<svg id="Grupo_575654" data-name="Grupo 575654" xmlns="http://www.w3.org/2000/svg" xmlns:xlink="http://www.w3.org/1999/xlink" width="493.977" height="507.45" viewBox="0 0 493.977 507.45">
  <defs>
    <clipPath id="clip-path">
      <rect id="Rectángulo_60827" data-name="Rectángulo 60827" width="493.977" height="507.45" fill="none"/>
    </clipPath>
    <clipPath id="clip-path-3">
      <rect id="Rectángulo_60825" data-name="Rectángulo 60825" width="201.541" height="174.699" fill="none"/>
    </clipPath>
  </defs>
  <g id="Grupo_183355" data-name="Grupo 183355" clip-path="url(#clip-path)">
    <g id="Grupo_183354" data-name="Grupo 183354">
      <g id="Grupo_183353" data-name="Grupo 183353" clip-path="url(#clip-path)">
        <path id="Trazado_218256" data-name="Trazado 218256" d="M427.02,390.96a225,225,0,0,0,54.551-147.2c0-124.753-101.134-225.887-225.887-225.887S29.8,119.01,29.8,243.763a225,225,0,0,0,54.551,147.2Z" transform="translate(7.363 4.417)" fill="#203a8a"/>
        <path id="Trazado_218257" data-name="Trazado 218257" d="M159.064,372.8c0,5.8-20.723,10.507-46.286,10.507S66.493,378.6,66.493,372.8s20.723-10.507,46.285-10.507,46.286,4.7,46.286,10.507" transform="translate(16.431 89.523)" fill="#cfb091"/>
        <path id="Trazado_218258" data-name="Trazado 218258" d="M372.968,382.143c-9.643,0-18.831.286-27.207.8,5.844-1.628,9.166-3.5,9.166-5.48,0-6.338-33.853-11.476-75.612-11.476S203.7,371.126,203.7,377.464s33.853,11.475,75.612,11.475c10.718,0,20.908-.341,30.145-.95-4.584,1.381-7.165,2.932-7.165,4.573,0,5.754,31.64,10.418,70.672,10.418s70.672-4.664,70.672-10.418S412,382.143,372.968,382.143" transform="translate(50.336 90.437)" fill="#cfb091"/>
        <path id="Trazado_218259" data-name="Trazado 218259" d="M201.276,386.649q-2.1,0-4.164.024c2.682-1.233,4.164-2.57,4.164-3.968,0-6.172-28.634-11.175-63.954-11.175s-63.954,5-63.954,11.175c0,6.147,28.407,11.134,63.532,11.174-6.371,2.138-10.038,4.618-10.038,7.268,0,8.006,33.316,14.5,74.413,14.5s74.413-6.491,74.413-14.5-33.316-14.5-74.413-14.5" transform="translate(18.129 91.806)" fill="#cfb091"/>
        <path id="Trazado_218260" data-name="Trazado 218260" d="M400.729,371.42c0,2.357-6.84,4.266-15.277,4.266s-15.277-1.909-15.277-4.266,6.839-4.266,15.277-4.266,15.277,1.911,15.277,4.266" transform="translate(91.472 90.725)" fill="#cfb091"/>
        <path id="Trazado_218261" data-name="Trazado 218261" d="M364.727,364.941c0,.958-3.07,1.735-6.859,1.735s-6.859-.777-6.859-1.735,3.07-1.735,6.859-1.735,6.859.777,6.859,1.735" transform="translate(86.736 89.749)" fill="#cfb091"/>
        <path id="Trazado_218262" data-name="Trazado 218262" d="M197.042,367.347c0,1.206-3.38,2.182-7.55,2.182s-7.55-.976-7.55-2.182,3.38-2.182,7.55-2.182,7.55.978,7.55,2.182" transform="translate(44.959 90.234)" fill="#cfb091"/>
        <path id="Trazado_218263" data-name="Trazado 218263" d="M217.559,361.3c0,.91-2.129,1.647-4.755,1.647s-4.754-.737-4.754-1.647,2.129-1.647,4.754-1.647,4.755.737,4.755,1.647" transform="translate(51.41 88.87)" fill="#cfb091"/>
        <path id="Trazado_218264" data-name="Trazado 218264" d="M81.267,382.239c-7.309-20.95-14.706-42.081-26.259-61.023S27.252,285.435,6.7,277.063c7.01,26.636,13.906,54.718,31.953,75.525,11.577,13.344,26.839,21.688,42.609,29.651" transform="translate(1.657 68.463)" fill="#8dc63f"/>
        <path id="Trazado_218265" data-name="Trazado 218265" d="M70.036,360.289c-4.644-8.675-9.417-17.282-14.5-25.708q-4.228-7.006-8.765-13.818c-6.511-9.726-13.923-19.378-24.249-24.886,4.093,10.814,8.188,21.631,12.732,32.262,3.564,8.339,7.439,16.624,12.8,23.937A92.159,92.159,0,0,0,63.5,368.1c2.871,2.4,5.84,4.68,8.852,6.9.04.03.085.067.126.1q2.43,1.259,4.881,2.5-1.8-5.154-3.624-10.31-1.839-3.5-3.7-6.991" transform="translate(5.565 73.112)" fill="#7cb332"/>
        <path id="Trazado_218266" data-name="Trazado 218266" d="M75.108,364.416c-10.676-9.625-21.456-19.326-33.92-26.488S14.279,326.243,0,327.887c12.275,12.949,24.94,26.753,41.671,32.952,10.73,3.976,22,3.963,33.437,3.577" transform="translate(0 80.939)" fill="#8dc63f"/>
        <path id="Trazado_218267" data-name="Trazado 218267" d="M61.893,355.378c-5.339-3.482-10.731-6.885-16.244-10.088q-4.583-2.664-9.282-5.121c-6.727-3.5-13.943-6.672-21.524-6.586,5.692,4.867,11.387,9.738,17.279,14.363a77.169,77.169,0,0,0,14.727,9.611,59.708,59.708,0,0,0,13.762,4.291c2.378.469,4.775.839,7.178,1.164.031,0,.069.011.1.016q1.773-.043,3.551-.1-2.626-2.368-5.269-4.729-2.136-1.416-4.279-2.82" transform="translate(3.668 82.429)" fill="#7cb332"/>
        <path id="Trazado_218268" data-name="Trazado 218268" d="M60.444,335.084c-.523-14.365-1.063-28.858-4.6-42.792s-10.342-27.451-21.461-36.56c-.752,17.827-1.847,36.529,5.349,52.856,4.614,10.472,12.469,18.554,20.708,26.5" transform="translate(8.362 63.192)" fill="#8dc63f"/>
        <path id="Trazado_218269" data-name="Trazado 218269" d="M57.578,319.35c-1.217-6.257-2.527-12.5-4.064-18.684-.852-3.43-1.772-6.843-2.785-10.229-2.171-7.264-4.915-14.655-10.255-20.037.468,7.475.935,14.954,1.716,22.4a77.2,77.2,0,0,0,3.351,17.264,59.729,59.729,0,0,0,6.5,12.868c1.319,2.034,2.721,4.013,4.162,5.964.019.025.04.057.059.084q1.265,1.242,2.545,2.477-.129-3.534-.273-7.073c-.313-1.68-.627-3.359-.954-5.035" transform="translate(10.001 66.817)" fill="#7cb332"/>
        <path id="Trazado_218270" data-name="Trazado 218270" d="M257.677,354.027c8.584-11.531,17.232-23.173,23.2-36.251s9.114-27.883,6.141-41.948c-11.743,13.435-24.3,27.335-28.907,44.573-2.954,11.055-1.887,22.274-.431,33.626" transform="translate(63.315 68.158)" fill="#8dc63f"/>
        <path id="Trazado_218271" data-name="Trazado 218271" d="M264.1,340.03c2.967-5.642,5.85-11.329,8.524-17.116,1.482-3.208,2.9-6.446,4.229-9.721,2.852-7.024,5.338-14.505,4.542-22.045-4.314,6.123-8.63,12.248-12.682,18.547a77.17,77.17,0,0,0-8.192,15.561,59.747,59.747,0,0,0-2.983,14.1c-.244,2.412-.39,4.834-.486,7.256,0,.032,0,.07-.007.1q.21,1.76.435,3.526,2.11-2.838,4.214-5.689,1.21-2.258,2.407-4.523" transform="translate(63.516 71.943)" fill="#7cb332"/>
        <path id="Trazado_218272" data-name="Trazado 218272" d="M263.942,329.376c4.354-11.582,8.736-23.272,10.554-35.511s.9-25.236-4.911-36.161c-6.514,13.909-13.591,28.4-13.3,43.755.19,9.849,3.745,18.875,7.652,27.918" transform="translate(63.328 63.68)" fill="#8dc63f"/>
        <path id="Trazado_218273" data-name="Trazado 218273" d="M266.165,315.965c1.11-5.374,2.141-10.765,2.974-16.189.461-3.007.863-6.023,1.182-9.048.687-6.491.96-13.272-1.494-19.319-2.109,6.092-4.22,12.188-6.072,18.364a66.422,66.422,0,0,0-3.069,14.823,51.4,51.4,0,0,0,.89,12.377c.373,2.053.829,4.091,1.326,6.117.006.026.012.059.019.086q.591,1.407,1.2,2.812,1.072-2.849,2.133-5.709c.308-1.438.616-2.875.913-4.315" transform="translate(64.15 67.066)" fill="#7cb332"/>
        <path id="Trazado_218274" data-name="Trazado 218274" d="M269.421,124.862A96.7,96.7,0,0,0,234.481,96.2c-2.645,35.182-3.969,70.58-3.2,105.853,9.469-4.934,18.765-10.4,26.656-17.6S272.378,168.218,275,157.868c3-11.828.855-24.486-5.58-33.006" transform="translate(57.097 23.771)" fill="#1c75bc"/>
        <path id="Trazado_218275" data-name="Trazado 218275" d="M235.889,96.919a10.978,10.978,0,0,0-2.12,3.984c-.009.027-.011.057-.02.085q-.428,5.977-.8,11.958-.159,20.921-.318,41.844c-.054,7.1-.071,14.4,2.547,21a36.906,36.906,0,0,0,5.268,8.889c1.19,1.538,4.254,6.52,6.744,5.885,2.179-.556,2.918-7.481,3.523-9.473q1.753-5.773,3.879-11.422a18.713,18.713,0,0,0,1.566-6.062,17.907,17.907,0,0,0-1.26-5.962c-3.735-11.21-7.35-22.579-8.443-34.345a135.465,135.465,0,0,1-.034-20.148,95.967,95.967,0,0,0-10.529-6.233" transform="translate(57.48 23.949)" fill="#155f99"/>
        <path id="Trazado_218276" data-name="Trazado 218276" d="M95.749,42.06s-11.764-.954-22.52,15.57c28.06-6.391,43.181-1.091,43.181-1.091S108.448,41.3,95.749,42.06" transform="translate(18.095 10.386)" fill="#808285"/>
        <path id="Trazado_218277" data-name="Trazado 218277" d="M163.657,54.34A92.518,92.518,0,0,1,151.3,35.568c5.036-4.433,5.548-13.243,3.546-19.647s-7.323-11.5-13.563-13.964A32.15,32.15,0,0,0,121.5,1.186c-7.88,2.051-15.452,6.975-18.587,14.49s-.415,17.6,7.024,20.908c-3.652,9.972-8.569,19.821-15.425,27.929,19.628.166,39.263.332,58.883-.236,3.2-.092,6.588-.262,9.244-2.051a5.311,5.311,0,0,0,1.016-7.885M140.636,27.3a13.345,13.345,0,0,1-12.442,1.277,10.263,10.263,0,0,1-5.651-4.981,10.207,10.207,0,0,1-.283-7.148,12.5,12.5,0,0,1,4.241-6.116c2.678-2.115,16.191-5.709,19.283,5.314,1.217,4.34-1.551,9.141-5.148,11.654" transform="translate(23.355 0)" fill="#bcbec0"/>
        <path id="Trazado_218278" data-name="Trazado 218278" d="M110.844,63.99a161.426,161.426,0,0,1,10.341-27.91,19.46,19.46,0,0,1-13.416-17.772,19.518,19.518,0,0,1,8-15.711c-5.622,2.6-10.491,6.787-12.848,12.439-3.135,7.515-.417,17.6,7.022,20.909-3.65,9.972-8.568,19.82-15.425,27.929q8.165.069,16.33.117" transform="translate(23.355 0.641)" fill="#d1d3d4"/>
        <path id="Trazado_218279" data-name="Trazado 218279" d="M33.373,47.064H286.559l32.355,369.065L68.8,446.285Z" transform="translate(8.247 11.63)" fill="#1c75bc"/>
        <path id="Trazado_218280" data-name="Trazado 218280" d="M187.5,85.613s22.848-8.465,15.443-38.55H171.273Z" transform="translate(42.322 11.629)" fill="#155f99"/>
        <path id="Trazado_218281" data-name="Trazado 218281" d="M35.257,47.064l-9.505,6.925L61.4,442.613l9.29,3.673Z" transform="translate(6.363 11.63)" fill="#519bd6"/>
        <path id="Trazado_218282" data-name="Trazado 218282" d="M314.659,413.923l-22.3-254.414-17.827-99.1L50.619,55.993S48.194,347.449,93.854,440.545Z" transform="translate(12.503 13.836)" fill="#155f99"/>
        <path id="Trazado_218283" data-name="Trazado 218283" d="M54.151,62.517,279.96,58.466c7.53,111.212,20.581,222.039,42.163,331.4-75.144,2.3-150.664,12.8-224.506,26.919C77,341.909,54.151,128.922,54.151,62.517" transform="translate(13.381 14.447)" fill="#fff"/>
        <path id="Trazado_218284" data-name="Trazado 218284" d="M176.515,59.613,186.2,82.629a28.164,28.164,0,0,0,16.754-23.49l-26.44.474" transform="translate(43.618 14.613)" fill="#e6e7e8"/>
        <path id="Trazado_218285" data-name="Trazado 218285" d="M110.758,47.14,158.6,44.961a92.553,92.553,0,0,1-8.417-12.129,68.811,68.811,0,0,0-16.029,3.3,124.424,124.424,0,0,0-23.4,11.008" transform="translate(27.369 8.113)" fill="#808285"/>
        <path id="Trazado_218286" data-name="Trazado 218286" d="M103.628,87.546l103.633.071c5.456-11.816,3.077-26.012-1.275-38.841a11.188,11.188,0,0,0-9.562-7.584c-33.658-3.109-68.108-3.332-105.138,1.627,11.541,6.076,13.364,28.09,12.341,44.726" transform="translate(22.557 9.627)" fill="#bcbec0"/>
        <path id="Trazado_218287" data-name="Trazado 218287" d="M206.735,54.673l-107.172.3a84.823,84.823,0,0,1,2.262,20.255L207.9,74.667a54.051,54.051,0,0,0-1.164-19.994" transform="translate(24.602 13.51)" fill="#d1d3d4"/>
        <path id="Trazado_218288" data-name="Trazado 218288" d="M143.178,40.891c-6.34.133-12.833.557-18.643,3.1-1.039.454-2.221,1.293-2.013,2.408.181.968,1.293,1.4,2.246,1.655,14.6,3.835,29.857,3.66,44.8,2.557,2.936-.217,17.994.212,17.36-3.79-.849-5.346-13.944-4.7-17.628-5.035a236.828,236.828,0,0,0-26.119-.894" transform="translate(30.27 10.091)" fill="#d1d3d4"/>
        <path id="Trazado_218289" data-name="Trazado 218289" d="M121.853,45.908c0,1.55-3.245,2.806-7.248,2.806s-7.249-1.256-7.249-2.806S110.6,43.1,114.6,43.1s7.248,1.256,7.248,2.806" transform="translate(26.528 10.651)" fill="#d1d3d4"/>
        <path id="Trazado_218290" data-name="Trazado 218290" d="M237.37,153.962l-41.012,2.079-7.838-49.729,41.01-2.079Zm-36.782-3.13,30.992-1.57-6.279-39.82-30.991,1.571Z" transform="translate(46.584 25.756)" fill="#bcbec0"/>
        <path id="Trazado_218291" data-name="Trazado 218291" d="M247.364,223.524l-41.021,1.889-7.612-49.764,41.021-1.891Zm-36.768-3.3,31-1.429L235.5,178.947l-31,1.429Z" transform="translate(49.107 42.936)" fill="#bcbec0"/>
        <path id="Trazado_218292" data-name="Trazado 218292" d="M219.441,295.4l-8.489-49.623,40.981-2.614,8.49,49.623Zm-2.636-45,6.8,39.733,30.969-1.974-6.8-39.734Z" transform="translate(52.127 60.086)" fill="#bcbec0"/>
        <path id="Trazado_218293" data-name="Trazado 218293" d="M73.871,130.425a3.118,3.118,0,0,1-.1-6.234l129.217-4.133a3.118,3.118,0,0,1,.2,6.233L73.974,130.424h-.1" transform="translate(17.484 29.667)" fill="#808285"/>
        <path id="Trazado_218294" data-name="Trazado 218294" d="M75.875,140.913a3.117,3.117,0,0,1-.1-6.233l129.217-4.134a3.118,3.118,0,0,1,.2,6.233L75.978,140.912h-.1" transform="translate(17.979 32.258)" fill="#808285"/>
        <path id="Trazado_218295" data-name="Trazado 218295" d="M77.877,150.992a3.118,3.118,0,0,1-.1-6.234l64.609-2.065a3.118,3.118,0,1,1,.2,6.232L77.98,150.991h-.1" transform="translate(18.474 35.259)" fill="#808285"/>
        <path id="Trazado_218296" data-name="Trazado 218296" d="M71.568,119.585a3.118,3.118,0,0,1-.1-6.234l64.609-2.066a3.117,3.117,0,1,1,.2,6.232l-64.607,2.068h-.1" transform="translate(16.915 27.498)" fill="#8dc63f"/>
        <path id="Trazado_218297" data-name="Trazado 218297" d="M87.885,207.051a3.118,3.118,0,0,1-.289-6.222l128.711-12.152a3.117,3.117,0,1,1,.585,6.207L88.182,207.037a2.969,2.969,0,0,1-.3.014" transform="translate(20.947 46.619)" fill="#808285"/>
        <path id="Trazado_218298" data-name="Trazado 218298" d="M90.535,217.395a3.118,3.118,0,0,1-.289-6.222l128.711-12.152a3.117,3.117,0,1,1,.586,6.207L90.832,217.381c-.1.009-.2.014-.3.014" transform="translate(21.602 49.175)" fill="#808285"/>
        <path id="Trazado_218299" data-name="Trazado 218299" d="M93.186,226.533a3.118,3.118,0,0,1-.289-6.222l64.356-6.077a3.118,3.118,0,1,1,.586,6.208l-64.356,6.077c-.1.009-.2.014-.3.014" transform="translate(22.257 52.935)" fill="#808285"/>
        <path id="Trazado_218300" data-name="Trazado 218300" d="M84.938,195.579a3.118,3.118,0,0,1-.289-6.222L149,183.281a3.117,3.117,0,1,1,.585,6.207l-64.354,6.077c-.1.009-.2.014-.3.014" transform="translate(20.219 45.286)" fill="#8dc63f"/>
        <path id="Trazado_218301" data-name="Trazado 218301" d="M100.131,280.616a3.117,3.117,0,0,1-.339-6.216l128.494-14.253a3.117,3.117,0,0,1,.687,6.2L100.478,280.6a2.943,2.943,0,0,1-.347.02" transform="translate(23.973 64.278)" fill="#808285"/>
        <path id="Trazado_218302" data-name="Trazado 218302" d="M102.95,290.915a3.117,3.117,0,0,1-.339-6.216L231.1,270.446a3.117,3.117,0,0,1,.687,6.2L103.3,290.895a2.943,2.943,0,0,1-.347.02" transform="translate(24.67 66.823)" fill="#808285"/>
        <path id="Trazado_218303" data-name="Trazado 218303" d="M105.77,299.8a3.117,3.117,0,0,1-.339-6.216l64.247-7.126a3.117,3.117,0,1,1,.686,6.2l-64.247,7.125a2.957,2.957,0,0,1-.347.02" transform="translate(25.367 70.78)" fill="#808285"/>
        <path id="Trazado_218304" data-name="Trazado 218304" d="M97.017,268.987a3.117,3.117,0,0,1-.34-6.216l64.247-7.127a3.117,3.117,0,1,1,.688,6.2l-64.247,7.126a2.967,2.967,0,0,1-.348.02" transform="translate(23.204 63.165)" fill="#8dc63f"/>
        <path id="Trazado_218305" data-name="Trazado 218305" d="M186.881,113.144c8.912,2.924,17.178,6.883,23.928,14,8.758-11.274,16.653-21.481,29.009-30.266a160.2,160.2,0,0,0-26.9,46.295,88.7,88.7,0,0,0-26.036-30.03" transform="translate(46.179 23.939)" fill="#39b54a"/>
        <path id="Trazado_218306" data-name="Trazado 218306" d="M197.006,185.907c8.912,2.924,17.178,6.883,23.928,14,8.758-11.274,16.653-21.481,29.009-30.266a160.236,160.236,0,0,0-26.9,46.295,88.7,88.7,0,0,0-26.035-30.03" transform="translate(48.681 41.919)" fill="#39b54a"/>
        <path id="Trazado_218307" data-name="Trazado 218307" d="M209.562,253.908c8.912,2.926,17.178,6.883,23.928,14,8.758-11.274,16.653-21.481,29.009-30.266a160.235,160.235,0,0,0-26.9,46.295,88.688,88.688,0,0,0-26.035-30.03" transform="translate(51.784 58.722)" fill="#39b54a"/>
        <path id="Trazado_218308" data-name="Trazado 218308" d="M275.906,357.136l-24.936,12.1c-.976.474-2.109,1.2-2.023,2.285.106,1.313,1.816,1.711,3.132,1.758l35.254,1.26V360.236a58.223,58.223,0,0,1-11.427-3.1" transform="translate(61.515 88.25)" fill="#fff"/>
        <path id="Trazado_218309" data-name="Trazado 218309" d="M342.063,376.414c-2.391,4.677-13.371,9.195-20.545,12.676-.842.409-1.818,1.039-1.743,1.972.09,1.134,1.566,1.477,2.7,1.518,7.324.262,19.006.524,28.749.784a6.053,6.053,0,0,0,5.59-8.725l-5.607-12.181c-3.138-.547-6.2,5.169-9.145,3.956" transform="translate(79.017 92.027)" fill="#fff"/>
        <path id="Trazado_218310" data-name="Trazado 218310" d="M345.379,200.812c-13.232,4.546-26.016,4.337-38.174,6-2.14,2.989-10.355,15.09-12.495,18.078l34.309,4.308a16.118,16.118,0,0,0,5.577.049c2.709-.616,4.915-2.59,6.635-4.771,5.087-6.451,6.45-15.777,4.148-23.663" transform="translate(72.824 49.621)" fill="#092942"/>
        <path id="Trazado_218311" data-name="Trazado 218311" d="M288.19,188.632c4.447-6.807,10.583-11.524,16.791-10.6-.506-.076-5.3,11.093-6.041,12.366a82.585,82.585,0,0,1-7.557,10.963,65.219,65.219,0,0,1-8.5,8.651c-.88.737-3.272,3.523-4.032,1.291-.481-1.413,1.55-5.728,2.013-7.029a74.617,74.617,0,0,1,7.324-15.647" transform="translate(68.887 43.965)" fill="#092942"/>
        <path id="Trazado_218312" data-name="Trazado 218312" d="M423.574,141.038,284.266,264.349l-22.1-24.965L401.472,116.072a16.672,16.672,0,1,1,22.1,24.966" transform="translate(64.782 27.647)" fill="#fbb040"/>
        <path id="Trazado_218313" data-name="Trazado 218313" d="M269,214.121l-34.511,52.82L291.1,239.087Z" transform="translate(57.944 52.91)" fill="#f98c6e"/>
        <rect id="Rectángulo_60823" data-name="Rectángulo 60823" width="170.236" height="13.407" transform="translate(333.554 274.495) rotate(-41.514)" fill="#9c681c"/>
        <path id="Trazado_218314" data-name="Trazado 218314" d="M246.869,241.285l-12.378,18.943,20.3-9.989Z" transform="translate(57.944 59.622)" fill="#39b54a"/>
        <path id="Trazado_218315" data-name="Trazado 218315" d="M376.678,116.073l-14.171,12.546,22.1,24.965,14.171-12.545a16.671,16.671,0,0,0-22.1-24.966" transform="translate(89.577 27.647)" fill="#f98c6e"/>
        <rect id="Rectángulo_60824" data-name="Rectángulo 60824" width="13.407" height="33.344" transform="translate(444.379 163.085) rotate(-41.519)" fill="#fff"/>
        <g id="Grupo_183352" data-name="Grupo 183352" transform="translate(292.436 145.152)" opacity="0.25">
          <g id="Grupo_183351" data-name="Grupo 183351">
            <g id="Grupo_183350" data-name="Grupo 183350" clip-path="url(#clip-path-3)">
              <path id="Trazado_218316" data-name="Trazado 218316" d="M430.412,139.924a16.655,16.655,0,0,0,1.432-23.534l-197.353,174.7L291.1,263.235Z" transform="translate(-234.492 -116.391)" fill="#231f20"/>
            </g>
          </g>
        </g>
        <path id="Trazado_218317" data-name="Trazado 218317" d="M328.85,193.432c3.211,5.737,3.466,21.446,1.989,27.852,4.915.827,10.459-6.969,15.374-6.142a41.22,41.22,0,0,1-1.546-18.135c.279-2,.649-4.254-.569-5.868-1.538-2.043-4.689-1.831-7.071-.9s-5.628,3.392-8.177,3.2" transform="translate(81.26 46.84)" fill="#e67a5c"/>
        <path id="Trazado_218318" data-name="Trazado 218318" d="M322.512,264.727s-30.784,28.672-37.436,51.535-16.049,61.523-16.049,61.523l17.159,3.365,17.6-54.5,27.853-29.1s1.291-28.66-9.124-32.829" transform="translate(66.478 65.415)" fill="#092942"/>
        <path id="Trazado_218319" data-name="Trazado 218319" d="M316.337,264.727a226.178,226.178,0,0,0-22.323,24.736c1.673,8.776,3.679,17.5,5.651,26.058q.831,3.6,1.711,7.2l24.085-25.163s1.291-28.66-9.124-32.829" transform="translate(72.652 65.415)" fill="#051d2e"/>
        <path id="Trazado_218320" data-name="Trazado 218320" d="M344.387,286.829c-1.564,4.16-13.227,9.421-17.68,10.281-3.824.738-7.832-1-10.534-3.719s-5.377-6.132-5.43-9.921c-.768-56.257,9.668-68.1,19.154-77.468,8.292-8.188,19.479-6.706,25.8,2.908,6.988,10.634,3.291,24.988.491,36.39-3.789,15.434-5.486,24.745-11.8,41.527" transform="translate(76.776 49.589)" fill="#0e4066"/>
        <path id="Trazado_218321" data-name="Trazado 218321" d="M332.612,263.433a90.8,90.8,0,0,0,16.988-52.1c-3.637,9.857-9.5,17.9-16.742,25.516a18,18,0,0,1-3.655,3.145c-3.938,2.366-8.941,1.8-13.405.72-.984-.239-1.977-.5-2.967-.753-.8,5.2-1.41,11.2-1.786,18.163a133.826,133.826,0,0,0,21.567,5.31" transform="translate(76.86 52.221)" fill="#092942"/>
        <path id="Trazado_218322" data-name="Trazado 218322" d="M338.935,302.634c4.129-12.679,7.126-19.622,6.666-33.4-21.334,6.494-34.333-4.5-34.333-4.5-3.342,30.467-4.127,46.805-.011,77.191,2.417,17.841,20.434,43.741,30.588,59.079,4.376-1.1,6.38-1.987,10.756-3.084-3.77-14.163-10.675-39.729-18.175-52.563,1.766-15.923-.538-27.219,4.51-42.716" transform="translate(76.221 65.415)" fill="#092942"/>
        <path id="Trazado_218323" data-name="Trazado 218323" d="M297.625,180.124c3.461-2.857,10.007-4.387,14.13-2.615,1.06.457,2.15,1.281,2.195,2.434.059,1.479-1.559,2.4-2.958,2.88a37.1,37.1,0,0,1-13.572,1.98c-1.457-.418-3.255-1.822.206-4.679" transform="translate(73.052 43.676)" fill="#f98c6e"/>
        <path id="Trazado_218324" data-name="Trazado 218324" d="M324.148,242a9.515,9.515,0,0,0,4.033-.315c1.953-.746,3.176-2.661,4.167-4.5a62.728,62.728,0,0,0,6.643-19.58c.675-4.149-.334-8.883-3.5-11.642a39.431,39.431,0,0,0-14.461,26c-2.156-.061-4.431-.1-6.686-.145-.692,2.823-1.318,5.936-1.857,9.423l11.665.764" transform="translate(77.216 50.893)" fill="#092942"/>
        <path id="Trazado_218325" data-name="Trazado 218325" d="M287.311,225.09a9.2,9.2,0,0,0-4.284-3.628c-1.818-.567-4.194.287-4.6,2.147-.579,2.66,2.972,5.173,1.9,7.677-.307.72-.95,1.243-1.31,1.937a3.741,3.741,0,0,0,.866,4.122,10.251,10.251,0,0,0,3.847,2.245,15.275,15.275,0,0,0,6.093,1.4,4.807,4.807,0,0,0,3.472-1.419c1.664-1.906-.234-4.758-1.14-6.585a51.309,51.309,0,0,0-4.85-7.9" transform="translate(68.785 54.681)" fill="#f98c6e"/>
        <path id="Trazado_218326" data-name="Trazado 218326" d="M329.02,238.4c3.807-15.391,3.333-19.124,8.777-29.242,1.8-3.341,5.213-5.687,8.73-7.11s7.857-1.287,10.774,1.137a10.922,10.922,0,0,1,3.553,7.867,26.332,26.332,0,0,1-1.379,8.73c-5.806,19.777-8.833,22.6-20.918,39.3-16.477-1.541-38.237-4.958-49.923-11.12-2.373-1.251-2.527-5.283-1.1-7.559,1.538-2.462,5.081-2.51,7.935-1.977,9.167,1.711,19.547.236,33.556-.029" transform="translate(70.825 49.701)" fill="#0e4066"/>
        <path id="Trazado_218327" data-name="Trazado 218327" d="M268.725,352.415l20.214,5.456-2.181,6.859-19.778-5.248Z" transform="translate(65.972 87.083)" fill="#0e4066"/>
        <path id="Trazado_218328" data-name="Trazado 218328" d="M347.4,367.154l-14.6,6.666,3.185,6.547,14.133-6.547Z" transform="translate(82.236 90.725)" fill="#0e4066"/>
        <path id="Trazado_218329" data-name="Trazado 218329" d="M287.332,371.956V368.1l-37.8-.5a1.677,1.677,0,0,0-.584,1.338c.1,1.313,1.815,1.711,3.13,1.758l35.254,1.26" transform="translate(61.515 90.835)" fill="#808285"/>
        <path id="Trazado_218330" data-name="Trazado 218330" d="M320.946,386.217c-.654.4-1.23.936-1.171,1.66.091,1.134,1.566,1.477,2.7,1.518,7.326.262,19.006.523,28.75.784a6.044,6.044,0,0,0,6.1-4.869q-18.185.658-36.38.907" transform="translate(79.016 95.211)" fill="#808285"/>
        <path id="Trazado_218331" data-name="Trazado 218331" d="M318.386,192.756c-.5,4.007.015,10.21,2.7,13.228,2.19,2.46,5.828,3.25,9.071,2.678a21.664,21.664,0,0,0,8.816-4.266,55.638,55.638,0,0,0,11.949-11.954c3.123-4.261,5.716-9.643,4.148-14.688-1.147-3.7-4.351-6.43-7.817-8.155a19.956,19.956,0,0,0-13.722-1.8c-11.521,3-13.9,15.077-15.142,24.956" transform="translate(78.632 41.333)" fill="#f98c6e"/>
        <path id="Trazado_218332" data-name="Trazado 218332" d="M349.436,194.523A13.185,13.185,0,0,0,338.652,178.6c-3.19-.51-6.433.163-9.633.614s-6.6.649-9.527-.716a11.735,11.735,0,0,1-5.631-6.158,20.344,20.344,0,0,1-1.372-8.361,16.679,16.679,0,0,1,1.026-5.88,8.538,8.538,0,0,1,3.82-4.466,6.789,6.789,0,0,1,9.563,8.195,20.069,20.069,0,0,1,9.1-7.1c2.2-.9,5.028-1.283,6.722.392a4.815,4.815,0,0,1,1.13,4.215,12.354,12.354,0,0,1-1.765,4.152,15.24,15.24,0,0,1,13.183-4.218,2.591,2.591,0,0,1,1.467.619,2.548,2.548,0,0,1,.161,2.63,10.98,10.98,0,0,1-5.087,5.841c3.548,1.384,7.3,2.926,9.489,6.044a12.987,12.987,0,0,1,1.973,8.508,18.038,18.038,0,0,1-8.2,13.719,5.371,5.371,0,0,1-3.564,1.023,2.9,2.9,0,0,1-2.075-3.128" transform="translate(77.216 37.783)" fill="#092942"/>
        <path id="Trazado_218333" data-name="Trazado 218333" d="M345.116,184.409a3.455,3.455,0,0,1,2.474-.385,2.612,2.612,0,0,1,1.642,2.176,5.514,5.514,0,0,1-.506,2.8,13,13,0,0,1-6.548,6.792,2.048,2.048,0,0,1-1.893.142c-1.558-.981-1.036-5.159-.4-6.653.889-2.089,3.255-3.935,5.23-4.87" transform="translate(83.833 45.448)" fill="#f98c6e"/>
        <path id="Trazado_218334" data-name="Trazado 218334" d="M332.368,182.891c-.723,1.817-2.108,2.972-3.092,2.58s-1.2-2.182-.473-4,2.108-2.972,3.092-2.58,1.2,2.182.473,4" transform="translate(81.143 44.186)" fill="#092942"/>
        <path id="Trazado_218335" data-name="Trazado 218335" d="M324.087,182.891c-.725,1.817-2.109,2.972-3.093,2.58s-1.2-2.182-.472-4,2.106-2.972,3.09-2.58,1.2,2.182.474,4" transform="translate(79.096 44.186)" fill="#092942"/>
        <path id="Trazado_218336" data-name="Trazado 218336" d="M322.513,187.824a5.55,5.55,0,0,0-1.213.474,1.148,1.148,0,0,0-.59,1.084,1.324,1.324,0,0,0,.9.9,3.745,3.745,0,0,0,3.957-.927,4.579,4.579,0,0,0,1.113-3.994c-.077-.407-.384-1.248-.934-.935-.373.212-.5,1.076-.713,1.435a4.763,4.763,0,0,1-2.515,1.965" transform="translate(79.246 45.555)" fill="#d1684b"/>
        <path id="Trazado_218337" data-name="Trazado 218337" d="M327.981,194.225a5.116,5.116,0,0,1-1.146-.128.623.623,0,1,1,.278-1.215,4.027,4.027,0,0,0,4.864-3.228.624.624,0,0,1,1.228.217,5.262,5.262,0,0,1-5.224,4.354" transform="translate(80.642 46.737)" fill="#d1684b"/>
        <path id="Trazado_218338" data-name="Trazado 218338" d="M272.1,112.787c-2.893,3.121-8.858,7.143-12.931,8.42-10.009,15.721-2.214,17.7,5.924,13.227q4.843-2.662,9.684-5.33a2.48,2.48,0,0,0,1.248-3.8c-1.359-3.907-.841-9.764-3.925-12.52" transform="translate(62.876 27.87)" fill="#e67a5c"/>
        <path id="Trazado_218339" data-name="Trazado 218339" d="M239.323,216.572a68.934,68.934,0,0,0-5.4,8.941,2.911,2.911,0,0,0-.44,2.105,1.99,1.99,0,0,0,1.54,1.237,5.874,5.874,0,0,0,2.06-.061c-.974,3.452-2.207,9.034-2.069,9.846a1.912,1.912,0,0,0,1.571,1.662c.993.071,3.681-3.729,5.864-7.518a23.757,23.757,0,0,0,4.584-2.293,7.826,7.826,0,0,0,3.132-3.882c.791-2.426-.1-5.118-1.54-7.222a10.383,10.383,0,0,0-3.37-3.239c-1.369-.773-4.4.085-5.936.424" transform="translate(57.678 53.334)" fill="#f98c6e"/>
        <path id="Trazado_218340" data-name="Trazado 218340" d="M274.824,134.845c2.2,36.01-9.724,75.412-26.046,107.842a26.691,26.691,0,0,1-12.107-1.25c2.024-28.273,7.63-56.2,14.952-83.582,1.243-4.649,2.616-9.441,5.71-13.124s13.055-11.75,17.491-9.886" transform="translate(58.482 33.252)" fill="#1c75bc"/>
        <path id="Trazado_218341" data-name="Trazado 218341" d="M286.062,140.938c-3.418,2.553-9.485,5.4-13.888,4.729a10.83,10.83,0,0,1-7.9-6.273,19.89,19.89,0,0,1-1.3-9.74,50.884,50.884,0,0,1,3.967-16.477c2.091-4.909,5.54-9.963,11.157-11.311,4.117-.988,8.565.279,12.233,2.3,4.467,2.467,8.237,6.187,9.857,10.685,4.094,11.361-5.7,19.79-14.127,26.083" transform="translate(64.96 25.087)" fill="#f98c6e"/>
        <path id="Trazado_218342" data-name="Trazado 218342" d="M266.538,115.817c6.784,1.953,12.042.932,15.44-5.626,1.681,7.733,16.323,34.057,30.482,21.454-6.948-3.587-6.545-10.875-8.871-17.963a17.884,17.884,0,0,0-4.612-7.74,11.224,11.224,0,0,0-8.808-3.052,33.6,33.6,0,0,0,5.371-2.5c.572-.33,1.191-.763,1.23-1.381.057-.894-1.1-1.435-2.073-1.578a9.368,9.368,0,0,0-7.01,1.793,10.694,10.694,0,0,0-4.909-6.317,4.712,4.712,0,0,0-1.978-.731,2.063,2.063,0,0,0-1.863.733,2.274,2.274,0,0,0-.208,1.655,10.809,10.809,0,0,0,2.926,5.772c-4.679-.738-9.368,1.712-12.243,5.1s-4.291,7.586-5.654,11.687c.661-.208,2.119-1.1,2.78-1.3" transform="translate(65.176 22.775)" fill="#092942"/>
        <path id="Trazado_218343" data-name="Trazado 218343" d="M271.117,110.167a3.368,3.368,0,0,0-1.119-2.3,3.143,3.143,0,0,0-3-.238,5.8,5.8,0,0,0-2.295,1.914,11.968,11.968,0,0,0-2.4,9.157,2.039,2.039,0,0,0,1,1.681c1.841.8,5.407-1.858,6.414-3.191,1.408-1.863,1.71-4.849,1.4-7.02" transform="translate(64.782 26.528)" fill="#f98c6e"/>
        <path id="Trazado_218344" data-name="Trazado 218344" d="M279.022,119.311c-1.255,1.578-1.5,3.365-.55,3.992s2.739-.145,3.993-1.722,1.5-3.365.551-3.991-2.74.143-3.995,1.721" transform="translate(68.668 29.003)" fill="#092942"/>
        <path id="Trazado_218345" data-name="Trazado 218345" d="M283.964,126.335c-1.255,1.578-1.5,3.365-.55,3.992s2.739-.145,3.993-1.722,1.5-3.363.551-3.991-2.74.143-3.994,1.721" transform="translate(69.889 30.739)" fill="#092942"/>
        <path id="Trazado_218346" data-name="Trazado 218346" d="M280.392,130.589a5.106,5.106,0,0,1,.284,1.281,1.116,1.116,0,0,1-.655,1.075,1.581,1.581,0,0,1-1.368-.284,3.6,3.6,0,0,1-1.5-3.847,4.685,4.685,0,0,1,3.043-3.063c.423-.15,1.388-.337,1.425.3.026.429-.7.99-.907,1.367a4.332,4.332,0,0,0-.323,3.175" transform="translate(68.459 31.037)" fill="#d1684b"/>
        <path id="Trazado_218347" data-name="Trazado 218347" d="M270.99,129.525a5.348,5.348,0,0,0,.8.9.738.738,0,0,0,.973,0,.579.579,0,0,0-.01-.882,3.966,3.966,0,0,1-1.334-2.952,3.889,3.889,0,0,1,1.428-2.886.58.58,0,0,0,.039-.88.741.741,0,0,0-.973-.046,4.9,4.9,0,0,0-.924,6.741" transform="translate(66.729 30.301)" fill="#d1684b"/>
        <path id="Trazado_218348" data-name="Trazado 218348" d="M167.98,328.172a29.538,29.538,0,0,1,8.482-.331,9.962,9.962,0,0,1,7.081,4.238c1.808,2.958,1.321,6.753.4,10.093-1.775,6.406-4.9,12.343-8.076,18.183-7.435,13.676-15.262,27.136-23.086,40.593-2.368.007-5.169.291-7.415-.463A7.388,7.388,0,0,1,140.4,395.8a10.944,10.944,0,0,1,.2-4.96q4.28-21.9,8.559-43.81c.92-4.71,1.924-9.613,4.874-13.4s9.727-7.743,13.946-5.455" transform="translate(34.641 80.926)" fill="#092942"/>
        <path id="Trazado_218349" data-name="Trazado 218349" d="M175.889,356.645a14.324,14.324,0,0,1-.8-1.327,48.177,48.177,0,0,1-5.182-18.435,46.56,46.56,0,0,1,.247-9.187c-1.379.092-2.76.277-4.129.463a5.607,5.607,0,0,0-2-.609q-3.515.92-7.02,1.882a17.75,17.75,0,0,0-4.926,4.183,23.793,23.793,0,0,0-4,9.281c1.741,2.372,3.378,4.845,5.073,7.234A116.154,116.154,0,0,0,169.4,368.517c1.515-2.72,3.028-5.441,4.515-8.176q1-1.839,1.979-3.7" transform="translate(36.592 80.939)" fill="#051d2e"/>
        <path id="Trazado_218350" data-name="Trazado 218350" d="M167.546,360.962a87.515,87.515,0,0,0-8.292-11.835c-2.754-3.132-6.8-6.068-10.775-4.816-.186.058-.355.146-.533.221l-4.108,21.027a11.232,11.232,0,0,1,2.009.668c4.407,2.172,7.657,6.391,9.5,10.861a38.921,38.921,0,0,1,2.427,9.61q6.209-10.725,12.271-21.531c-.793-1.429-1.647-2.83-2.5-4.205" transform="translate(35.543 85.007)" fill="#051d2e"/>
        <path id="Trazado_218351" data-name="Trazado 218351" d="M93.743,287.546a316.805,316.805,0,0,0,60.152,53.581c-2.091,2.678-4.481,5.588-7.851,6.012-2.764.348-5.407-1.074-7.831-2.448-11.063-6.278-22.283-12.674-31.191-21.755a48.035,48.035,0,0,1-13.279-35.39" transform="translate(23.146 71.054)" fill="#8dc63f"/>
        <path id="Trazado_218352" data-name="Trazado 218352" d="M93.743,287.546a48.037,48.037,0,0,0,13.279,35.39,81.1,81.1,0,0,0,9.165,7.929c.065-2.407.091-4.815.052-7.223-.072-4.483-.319-8.988-.746-13.47Q104.072,299.4,93.743,287.546" transform="translate(23.146 71.054)" fill="#7cb332"/>
        <path id="Trazado_218353" data-name="Trazado 218353" d="M82.028,283.34q-9.219,3.468-18.147,7.418c-2.22.983-4.538,2.079-5.72,3.936-1.579,2.481-.707,5.581.212,8.364q11.488,34.787,25.739,68.96c.6,1.433,8.619,21.357,10.154,21.59,8.288,1.258,10.01-17.315,18.316-17.923,2.266-.166,4.638-.439,6.41-1.589,2.255-1.46,3.04-3.989,3.63-6.354,2.669-10.7-7.342-64.718-14.121-74.941s-14.145-14.1-26.473-9.46" transform="translate(14.156 69.535)" fill="#8dc63f"/>
        <path id="Trazado_218354" data-name="Trazado 218354" d="M117.045,345.888a10.76,10.76,0,0,0,3.277.657c-.505-4.778-1.261-10.158-2.2-15.71a71.808,71.808,0,0,1-16.06-4.275,87.432,87.432,0,0,1-9.023-4.157c-9.951-5.27-18.91-12.223-27.446-19.565,3.3,6.1,6.642,12.263,11.286,17.411,4.162,4.612,9.25,8.278,14.392,11.763,8.1,5.491,16.524,10.674,25.77,13.875" transform="translate(16.209 74.833)" fill="#7cb332"/>
        <path id="Trazado_218355" data-name="Trazado 218355" d="M84.619,275.263a37.952,37.952,0,0,0-.51,14.469,3.738,3.738,0,0,1-3.968,4.341,36.86,36.86,0,0,1-5.712-.854,4.469,4.469,0,0,1-2.047-.888,4.722,4.722,0,0,1-1.15-2.825q-1.167-6.978-2.333-13.955a5.874,5.874,0,0,1,.254-3.926c.913-1.568,3-1.924,4.813-1.984a12.93,12.93,0,0,1,5.8.859c1.8.818,5.3,2.841,4.853,4.763" transform="translate(16.974 66.626)" fill="#e67a5c"/>
        <path id="Trazado_218356" data-name="Trazado 218356" d="M100.029,269.063c1.162,4.105,1.657,10.791-.546,14.661a10.834,10.834,0,0,1-8.681,5.134,19.88,19.88,0,0,1-9.563-2.267A50.878,50.878,0,0,1,67.269,277c-3.837-3.708-7.325-8.735-6.575-14.463.547-4.2,3.32-7.9,6.522-10.6,3.9-3.29,8.72-5.481,13.5-5.388,12.074.237,16.447,12.4,19.311,22.517" transform="translate(14.972 60.922)" fill="#f98c6e"/>
        <path id="Trazado_218357" data-name="Trazado 218357" d="M78.161,262.926c1.025,1.736,2.605,2.605,3.531,1.94s.846-2.609-.18-4.345-2.605-2.605-3.531-1.94-.846,2.609.18,4.345" transform="translate(19.11 63.841)" fill="#092942"/>
        <path id="Trazado_218358" data-name="Trazado 218358" d="M86.487,260.822c1.025,1.736,2.605,2.605,3.531,1.941s.846-2.609-.18-4.345-2.605-2.605-3.531-1.94-.846,2.609.18,4.345" transform="translate(21.168 63.321)" fill="#092942"/>
        <path id="Trazado_218359" data-name="Trazado 218359" d="M89.209,265.52a5.106,5.106,0,0,1,1.3.192,1.113,1.113,0,0,1,.769,1,1.58,1.58,0,0,1-.755,1.176,3.6,3.6,0,0,1-4.129.026,4.683,4.683,0,0,1-1.773-3.936c.011-.449.182-1.417.787-1.226.409.13.673,1.011.952,1.336a4.336,4.336,0,0,0,2.851,1.437" transform="translate(20.909 64.92)" fill="#d1684b"/>
        <path id="Trazado_218360" data-name="Trazado 218360" d="M84.951,273.625a5.374,5.374,0,0,0,1.131-.427.738.738,0,0,0,.349-.908.579.579,0,0,0-.827-.306,3.966,3.966,0,0,1-3.235.192,3.9,3.9,0,0,1-2.185-2.366.579.579,0,0,0-.808-.35.739.739,0,0,0-.39.892,4.895,4.895,0,0,0,5.965,3.272" transform="translate(19.509 66.57)" fill="#d1684b"/>
        <path id="Trazado_218361" data-name="Trazado 218361" d="M69.77,282.05a15.226,15.226,0,0,0,.763-18.223,99.513,99.513,0,0,0,20.9-5.344c2.941-1.091,6.062-2.525,7.486-5.319a10.075,10.075,0,0,0,.451-6.81c-1.584-6.845-6.774-12.26-12.269-16.639l2.9,8.667a32.73,32.73,0,0,0-9.5-7.027,70.4,70.4,0,0,1,4.663,12.2c-6.731-.592-13.832.092-19.76,3.334s-10.538,9.4-10.635,16.155a18.685,18.685,0,0,0,4.22,11.653C61.6,278.007,66,280.173,69.77,282.05" transform="translate(13.532 56.763)" fill="#092942"/>
        <path id="Trazado_218362" data-name="Trazado 218362" d="M66.679,267.551a3.366,3.366,0,0,0-2.552.222,3.141,3.141,0,0,0-1.295,2.716,5.8,5.8,0,0,0,.968,2.827,11.973,11.973,0,0,0,7.7,5.512,2.038,2.038,0,0,0,1.927-.332c1.405-1.432.2-5.713-.688-7.131-1.236-1.979-3.917-3.329-6.056-3.815" transform="translate(15.526 66.077)" fill="#f98c6e"/>
        <path id="Trazado_218363" data-name="Trazado 218363" d="M67.6,325.792a153.531,153.531,0,0,0,28.48,18.858,96.418,96.418,0,0,0,26,8.7c-.146-3.406-.528-7.5-1.092-11.975-4.007-1.43-7.974-2.971-11.876-4.664A200.852,200.852,0,0,1,61,307.181q3.2,9.327,6.6,18.611" transform="translate(15.073 75.906)" fill="#7cb332"/>
        <path id="Trazado_218364" data-name="Trazado 218364" d="M76.533,303.483c2.646,10.994,12.056,20.152,23.256,26.025s24.12,8.858,36.965,11.233a8.644,8.644,0,0,1,1.513,3.37,3.254,3.254,0,0,1-1.282,3.466,6.736,6.736,0,0,1-3.537.733,87.467,87.467,0,0,1-46.087-12.072c-13.353-8.044-23.6-19.772-28.888-32.977a15.261,15.261,0,0,1-1.405-6.113,6.751,6.751,0,0,1,2.968-5.5c3.225-2.084,8.13-1,10.975,1.456s4.708,7,5.522,10.381" transform="translate(14.1 71.794)" fill="#8dc63f"/>
        <path id="Trazado_218365" data-name="Trazado 218365" d="M188,319.259c.536,2.336.463,8.977.923,11.956-22.741,8.235-46.371,11.45-70.673,18.253L106.718,352.7c-1.389.389-2.942.763-4.22.092s-1.649-2.9-.312-3.441c24.683-10.069,48.384-22.72,73.716-31.024a20.4,20.4,0,0,1,5.866-1.283c2.009-.041,5.778.261,6.227,2.22" transform="translate(25.043 78.341)" fill="#92c6f0"/>
        <path id="Trazado_218366" data-name="Trazado 218366" d="M126,299.262l58.883-8.671a4.346,4.346,0,0,1,4.916,5.074,376.286,376.286,0,0,0-5.372,42.1c-20.842,2.778-40.8,5.273-64.893,8.933,1.6-16.261,2.365-29.178,2.749-43.233a4.359,4.359,0,0,1,3.718-4.2" transform="translate(29.537 71.794)" fill="#92c6f0"/>
        <path id="Trazado_218367" data-name="Trazado 218367" d="M157.74,315.67c-.7,4.043-4.026,6.84-7.419,6.249s-5.572-4.347-4.867-8.391,4.027-6.842,7.419-6.249,5.572,4.347,4.867,8.391" transform="translate(35.909 75.91)" fill="#a6d7ff"/>
        <path id="Trazado_218368" data-name="Trazado 218368" d="M94.862,387.747c7.168,2.582,15.831,1.892,23.073-.471,16.729-5.459,30.05-17.979,42.774-30.134,8.8,12.719,19.513,24.935,28.318,37.654,1.884,2.724,3.953,5.6,7.046,6.783s11.1-8.4,10.714-10.943a22.76,22.76,0,0,0-2.8-7.145A405.259,405.259,0,0,0,179.4,343.848c-3.348-4.835-7.16-9.921-12.775-11.668-5.853-1.82-12.1.456-17.839,2.615-18.468,6.948-33.4,9.177-53.922,15.584-23.487,7.334-11.6,33.192,0,37.368" transform="translate(20.101 81.919)" fill="#092942"/>
        <path id="Trazado_218369" data-name="Trazado 218369" d="M208.7,384.929c.809.158,1.773.458,1.962,1.261.226.965-.852,1.688-1.766,2.071-9.2,3.844-19.218,5.213-29.1,6.549a6.663,6.663,0,0,1-3.68-.2,6.018,6.018,0,0,1-2.648-3.335,7.953,7.953,0,0,1-.832-4.342c.342-2.064,2.055-3.639,3.883-4.653,1.418-.787,3.748-2.283,5.383-2.343,1.788-.066,3.993.756,5.765,1.071q6.79,1.207,13.566,2.488,3.736.705,7.468,1.434" transform="translate(42.644 93.883)" fill="#fff"/>
        <path id="Trazado_218370" data-name="Trazado 218370" d="M137.853,388.79a6.192,6.192,0,0,0-.148,4.135,4.516,4.516,0,0,0,2.772,2.332,12.927,12.927,0,0,0,3.684.5c6.658.244,13.324.223,19.986.2a34.676,34.676,0,0,0,5.586-.317c1.033-.171,2.3-.771,2.174-1.81-.09-.737-.858-1.164-1.534-1.469q-7.518-3.391-15.21-6.373-3.9-1.513-7.847-2.916c-1.482-.527-4.306-2.145-5.931-1.48-2.018.823-2.983,5.321-3.532,7.191" transform="translate(33.953 94.256)" fill="#fff"/>
      </g>
    </g>
  </g>
</svg>
