<svg xmlns="http://www.w3.org/2000/svg" width="99.323" height="3.965" viewBox="0 0 99.323 3.965">
  <g id="Grupo_556925" data-name="Grupo 556925" transform="translate(-1319.748 -965.853)">
    <path id="Trazado_268744" data-name="Trazado 268744" d="M2980.506,109.4a2,2,0,1,1-1.983,2A1.993,1.993,0,0,1,2980.506,109.4Z" transform="translate(1433.153 -2012.67) rotate(90)" fill="#491079"/>
    <path id="Trazado_268745" data-name="Trazado 268745" d="M2980.506,64.95a2,2,0,1,1-1.983,2A1.993,1.993,0,0,1,2980.506,64.95Z" transform="translate(1412.548 -2012.67) rotate(90)" fill="#491079"/>
    <path id="Trazado_268746" data-name="Trazado 268746" d="M2980.506,20.5a2,2,0,1,1-1.983,2A1.993,1.993,0,0,1,2980.506,20.5Z" transform="translate(1391.942 -2012.67) rotate(90)" fill="#491079"/>
    <path id="Trazado_268747" data-name="Trazado 268747" d="M2980.506-23.946a1.993,1.993,0,0,1,1.983,2,1.993,1.993,0,0,1-1.983,2,1.993,1.993,0,0,1-1.983-2A1.993,1.993,0,0,1,2980.506-23.946Z" transform="translate(1371.337 -2012.67) rotate(90)" fill="#491079"/>
    <path id="Trazado_268752" data-name="Trazado 268752" d="M2980.506-68.293a1.993,1.993,0,0,1,1.983,2,1.994,1.994,0,0,1-1.983,2,1.993,1.993,0,0,1-1.983-2A1.993,1.993,0,0,1,2980.506-68.293Z" transform="translate(1350.779 -2012.67) rotate(90)" fill="#491079"/>
  </g>
</svg>
