<svg xmlns="http://www.w3.org/2000/svg" xmlns:xlink="http://www.w3.org/1999/xlink" width="60" height="60" viewBox="0 0 60 60">
  <defs>
    <clipPath id="clip-path">
      <rect id="Rectángulo_200885" data-name="Rectángulo 200885" width="26.908" height="36.058" fill="#fff"/>
    </clipPath>
  </defs>
  <g id="Grupo_668689" data-name="Grupo 668689" transform="translate(-630.189 -3064)">
    <circle id="Elipse_5528" data-name="Elipse 5528" cx="30" cy="30" r="30" transform="translate(630.189 3064)" fill="#7181f4"/>
    <g id="Grupo_557390" data-name="Grupo 557390" transform="translate(646.189 3076)">
      <g id="Grupo_557389" data-name="Grupo 557389" clip-path="url(#clip-path)">
        <path id="Trazado_269373" data-name="Trazado 269373" d="M2.182,36.058A2.481,2.481,0,0,1,.3,34.684a3.218,3.218,0,0,1-.285-1.251Q-.01,18.029,0,2.625A2.5,2.5,0,0,1,2.648,0Q14.322,0,26,0c.661,0,.909.252.909.924q0,17.111,0,34.223a.859.859,0,0,1-.566.91ZM6.645,34.62H25.476V1.424H6.645Zm-4.039.015v-.481q0-12.851,0-25.7A2.393,2.393,0,0,1,2.632,8,.689.689,0,0,1,3.991,8a2.528,2.528,0,0,1,.022.456q0,12.869,0,25.738v.442H5.19V1.416c-.946,0-1.871-.022-2.795.015a1.259,1.259,0,0,0-.673.329,1.2,1.2,0,0,0-.315,1q0,15.263,0,30.526c0,.094,0,.188,0,.282a1.091,1.091,0,0,0,1.193,1.064" transform="translate(0 0)" fill="#fff"/>
        <path id="Trazado_269374" data-name="Trazado 269374" d="M112.112,173.96c-.162-.024-.28-.032-.393-.06a.667.667,0,0,1-.539-.718.637.637,0,0,1,.6-.635q2.728-.026,5.456,0a.636.636,0,0,1,.605.625.66.66,0,0,1-.526.727c-.122.032-.25.042-.4.067,0,.8-.01,1.594.013,2.389,0,.1.175.224.295.281a6.543,6.543,0,1,1-5.609.116.747.747,0,0,0,.515-.84c-.039-.641-.01-1.287-.01-1.949m-2.7,8.662a5.094,5.094,0,0,0,10.187,0Zm.164-1.438h9.842c-.026-.1-.041-.192-.072-.277a5.013,5.013,0,0,0-3.035-3.118c-.743-.285-.815-.381-.815-1.186q0-1.179,0-2.358c0-.1-.013-.2-.02-.29h-1.956v.363c0,.833,0,1.666,0,2.5a.788.788,0,0,1-.62.9c-.109.043-.223.074-.33.12a5.12,5.12,0,0,0-2.993,3.349" transform="translate(-98.452 -157.318)" fill="#fff"/>
        <path id="Trazado_269375" data-name="Trazado 269375" d="M102.033,67.908h6.76c.731,0,.979.244.98.965q0,1.954,0,3.908c0,.706-.253.963-.947.964H95.235c-.684,0-.942-.255-.943-.931q0-1.989,0-3.978c0-.677.257-.927.945-.927h6.8m-6.319,2.212h.457q3.89,0,7.78,0a2.571,2.571,0,0,1,.489.038.681.681,0,0,1,0,1.335,2.665,2.665,0,0,1-.49.034q-3.89,0-7.78,0h-.448v.787h12.613V69.343H95.7c0,.19,0,.353,0,.516,0,.068.007.137.013.26" transform="translate(-85.975 -61.919)" fill="#fff"/>
        <path id="Trazado_269376" data-name="Trazado 269376" d="M30.267,55a.676.676,0,0,1,.708.669.7.7,0,1,1-1.4.014.678.678,0,0,1,.7-.683" transform="translate(-26.963 -50.149)" fill="#fff"/>
        <path id="Trazado_269377" data-name="Trazado 269377" d="M229.034,93.918a.665.665,0,0,1,.687-.684.674.674,0,0,1,.709.667.7.7,0,0,1-.71.713.685.685,0,0,1-.686-.7" transform="translate(-208.836 -85.012)" fill="#fff"/>
      </g>
    </g>
  </g>
</svg>
