<svg xmlns="http://www.w3.org/2000/svg" xmlns:xlink="http://www.w3.org/1999/xlink" width="60" height="60" viewBox="0 0 60 60">
  <defs>
    <clipPath id="clip-path">
      <rect id="Rectángulo_56691" data-name="Rectángulo 56691" width="33.253" height="33.218" fill="#fff"/>
    </clipPath>
  </defs>
  <g id="Grupo_668684" data-name="Grupo 668684" transform="translate(-220.189 -2989)">
    <circle id="Elipse_5524" data-name="Elipse 5524" cx="30" cy="30" r="30" transform="translate(220.189 2989)" fill="#7181f4"/>
    <g id="Grupo_557213" data-name="Grupo 557213" transform="translate(233.189 3002)">
      <g id="Grupo_171399" data-name="Grupo 171399" clip-path="url(#clip-path)">
        <path id="Trazado_210775" data-name="Trazado 210775" d="M3.309,7.712V7.338q0-3.321,0-6.642C3.31.2,3.5,0,4,0Q16.61,0,29.223,0c.514,0,.7.193.7.717q0,5.223,0,10.447v.46h1.458a1.682,1.682,0,0,1,1.869,1.857q0,3.13,0,6.261a1.678,1.678,0,0,1-1.846,1.846h-1.48v.4c0,2.006,0,4.013,0,6.019a.988.988,0,0,1-.312.766q-2.08,2.057-4.142,4.133a.96.96,0,0,1-.734.308q-10.344-.009-20.687,0c-.568,0-.746-.177-.746-.742q0-6.019,0-12.038a2.656,2.656,0,0,0-.1-.712Q1.654,14.238.085,8.76A1.672,1.672,0,0,1,1.375,6.53,1.8,1.8,0,0,1,3.309,7.712M24.935,21.588c-.357,0-.677,0-1,0a1.667,1.667,0,0,1-1.774-1.779q0-3.2,0-6.4a1.667,1.667,0,0,1,1.8-1.785q2.235,0,4.47,0H28.8V1.127H4.418v.428q0,4.947,0,9.893a2.783,2.783,0,0,0,.106.745q2.507,8.82,5.017,17.638a1.986,1.986,0,0,1,.031.778c-.064.489-.173.972-.267,1.473H24.38c0-1.243,0-2.464,0-3.684,0-.54.185-.72.732-.721q1.663,0,3.327,0H28.8V21.511a2.253,2.253,0,0,0-.489.267c-.777.757-1.542,1.526-2.308,2.295-.207.208-.422.368-.733.232s-.344-.4-.341-.691c.007-.657,0-1.314,0-2.026m1.109.9a11.059,11.059,0,0,0,.971-1,2.426,2.426,0,0,1,2.423-1.015,16.717,16.717,0,0,0,2.007.014c.5,0,.7-.194.7-.685q0-3.2,0-6.395c0-.47-.2-.668-.68-.668q-3.757,0-7.514,0c-.477,0-.676.2-.676.671q0,3.2,0,6.395c0,.491.2.68.7.683.462,0,.923,0,1.385,0,.493,0,.683.2.686.7,0,.4,0,.8,0,1.3M8.294,31.449a3.88,3.88,0,0,0,.114-1.632q-2.5-8.677-4.964-17.365c-.217-.76-.436-1.519-.661-2.3l-1.053.307c.031.126.049.216.074.3q2.738,9.6,5.463,19.2a3.572,3.572,0,0,0,1.026,1.491M4.481,24.176l-.038.009v7.9H7.351c-.164-.182-.28-.336-.421-.464a2.267,2.267,0,0,1-.663-1.181c-.224-.881-.493-1.75-.743-2.625L4.481,24.176m21.035,4.615v2.322l2.326-2.322ZM1.417,9.384l1.065-.3c-.1-.338-.18-.623-.262-.908-.013-.044-.019-.09-.035-.133a.554.554,0,1,0-1.063.311c.083.321.181.638.294,1.03" transform="translate(0 0)" fill="#fff"/>
        <path id="Trazado_210776" data-name="Trazado 210776" d="M78.006,69.84V68.765H79.1v-.39q0-2.75,0-5.5c0-.59.172-.76.761-.761.624,0,1.247,0,1.871,0,.5,0,.693.194.694.69q0,2.767,0,5.534v.4h1.109v-.381q0-3.286,0-6.572c0-.611.166-.775.782-.776s1.224,0,1.836,0c.519,0,.708.19.708.71q0,3.3,0,6.606v.406H87.97v-.361q0-3.839,0-7.678c0-.632.161-.79.8-.791.612,0,1.224,0,1.836,0,.495,0,.688.2.688.7q0,3.874,0,7.747v.4l.538.026V69.84Zm11.09-1.1h1.07v-7.7H89.1Zm-3.368-6.605H84.662v6.611h1.066Zm-4.44,1.114H80.233v5.5h1.055Z" transform="translate(-70.798 -54.365)" fill="#fff"/>
        <path id="Trazado_210777" data-name="Trazado 210777" d="M113.927,191.039c.532,0,1.039,0,1.546,0s.689.2.687.7a8.016,8.016,0,0,1-2.24,5.638c-.389.415-.651.419-1.05.019-.366-.367-.724-.742-1.1-1.124a6.078,6.078,0,0,1-5.763,1.123,5.876,5.876,0,0,1-3.676-3.2,6.048,6.048,0,0,1,3.326-8.272,5.789,5.789,0,0,1,5.406.514,6.009,6.009,0,0,1,2.859,4.6m-7.966-4.03a.593.593,0,0,0,.038.126c.693,1.248,1.383,2.5,2.089,3.739a.441.441,0,0,0,.331.158c1.385.011,2.77.007,4.155.006a1.467,1.467,0,0,0,.194-.025,4.935,4.935,0,0,0-6.807-4m1.174,4.45-2.174-3.9a4.858,4.858,0,0,0-1,7.071l3.178-3.17m3.754,4.044-3.027-3.006-3.039,3.037a4.892,4.892,0,0,0,6.067-.031m-1.576-3.341,4.108,4.107a6.9,6.9,0,0,0,1.618-4.107Z" transform="translate(-92.335 -168.343)" fill="#fff"/>
        <path id="Trazado_210778" data-name="Trazado 210778" d="M237.151,53.981h-1.068v-4.94h-1.114v4.94h-1.093c-.007-.1-.019-.2-.019-.3q0-2.525,0-5.05c0-.543.183-.725.727-.726.658,0,1.317-.005,1.975,0a.548.548,0,0,1,.621.585c.006,1.8,0,3.6,0,5.4a.427.427,0,0,1-.027.09" transform="translate(-212.248 -43.48)" fill="#fff"/>
        <rect id="Rectángulo_56688" data-name="Rectángulo 56688" width="7.722" height="1.062" transform="translate(12.753 2.793)" fill="#fff"/>
        <path id="Trazado_210779" data-name="Trazado 210779" d="M280.087,146.649l.946.577-3.326,5.532-.947-.574,3.327-5.535" transform="translate(-251.188 -133.099)" fill="#fff"/>
        <rect id="Rectángulo_56689" data-name="Rectángulo 56689" width="1.054" height="1.077" transform="translate(26.073 13.846)" fill="#fff"/>
        <rect id="Rectángulo_56690" data-name="Rectángulo 56690" width="1.07" height="1.062" transform="translate(28.285 18.287)" fill="#fff"/>
      </g>
    </g>
  </g>
</svg>
