<svg xmlns="http://www.w3.org/2000/svg" xmlns:xlink="http://www.w3.org/1999/xlink" width="60" height="60" viewBox="0 0 60 60">
  <defs>
    <clipPath id="clip-path">
      <rect id="Rectángulo_200883" data-name="Rectángulo 200883" width="26.495" height="34.934" fill="#fff"/>
    </clipPath>
  </defs>
  <g id="Grupo_668691" data-name="Grupo 668691" transform="translate(-1085.189 -2989)">
    <circle id="Elipse_5525" data-name="Elipse 5525" cx="30" cy="30" r="30" transform="translate(1085.189 2989)" fill="#7181f4"/>
    <g id="Grupo_557387" data-name="Grupo 557387" transform="translate(1102.189 3002)">
      <g id="Grupo_557387-2" data-name="Grupo 557387" clip-path="url(#clip-path)">
        <path id="Trazado_269362" data-name="Trazado 269362" d="M13.043,34.933a.884.884,0,0,1-.385-.843c.013-1.387,0-2.775.009-4.162,0-.238-.06-.324-.313-.409-.762-.255-1.506-.567-2.244-.886a.543.543,0,0,1-.241-.734.563.563,0,0,1,.742-.294c.411.164.815.346,1.218.53a3.247,3.247,0,0,0,2.772.028c1.891-.833,3.786-1.658,5.665-2.516a3.05,3.05,0,0,0,1.91-2.9,1.916,1.916,0,0,0-.3-.984,2.05,2.05,0,0,1,0-2.5,1.885,1.885,0,0,0,.3-.949c.021-2.82.04-5.641,0-8.46A8.945,8.945,0,0,0,4.4,8.757a9.606,9.606,0,0,0-.1,1.461c-.009,2.65,0,5.3-.008,7.949A1.994,1.994,0,0,0,4.688,19.4,1.782,1.782,0,0,1,4.72,21.6a2.064,2.064,0,0,0-.3,1.966,3.153,3.153,0,0,0,1.812,2.092c.351.16.706.313,1.058.47.262.117.481.275.477.6s-.228.477-.5.573c-1.092.383-2.184.769-3.279,1.144a3.877,3.877,0,0,0-2.816,3.931c0,.591-.015,1.183.005,1.774a.778.778,0,0,1-.414.788H.419A.756.756,0,0,1,0,34.15a26.982,26.982,0,0,1,.082-2.723A4.774,4.774,0,0,1,3.178,27.5c.763-.317,1.559-.556,2.391-.848-.139-.086-.243-.144-.341-.211a4.313,4.313,0,0,1-2.087-3.9,2.6,2.6,0,0,1,.517-1.456c.329-.457.336-.662.019-1.105a2.774,2.774,0,0,1-.54-1.655c0-2.8-.028-5.6.01-8.393A10.1,10.1,0,0,1,23.209,8.5a12.532,12.532,0,0,1,.144,1.866c.016,2.593,0,5.186.011,7.779a2.955,2.955,0,0,1-.579,1.882.7.7,0,0,0-.033.918c1.045,1.266.718,3.4-.581,4.731a4.759,4.759,0,0,1-1.365.994c-1.957.907-3.94,1.758-5.916,2.622a3.152,3.152,0,0,1-.778.241c-.244.037-.286.147-.285.361.007,1.4,0,2.8.009,4.2a.887.887,0,0,1-.385.843Z" transform="translate(0 0)" fill="#fff"/>
        <path id="Trazado_269363" data-name="Trazado 269363" d="M248.325,307.921a.8.8,0,0,1-.416-.788,19.066,19.066,0,0,0-.065-2.586,3.668,3.668,0,0,0-2.327-2.969c-.062-.027-.128-.047-.19-.075a.582.582,0,1,1,.425-1.08,4.8,4.8,0,0,1,3.232,3.892,18.117,18.117,0,0,1,.072,3.061c0,.184-.254.363-.39.545Z" transform="translate(-222.59 -272.988)" fill="#fff"/>
        <path id="Trazado_269364" data-name="Trazado 269364" d="M70.615,88.268c1.321,0,2.594.02,3.865-.008a1.39,1.39,0,0,0,1.274-1.223c.079-.571.252-.8.607-.8s.523.225.6.8a1.43,1.43,0,0,0,1.346,1.229c.409.016.819,0,1.228.007s.683.243.671.6-.26.552-.675.559c-.171,0-.342-.009-.512,0a2.939,2.939,0,0,1-2.663-.97,3,3,0,0,1-2.631.976c-1.02-.035-2.042-.008-3.113-.008,0,.2,0,.381,0,.559,0,.716-.008,1.433,0,2.149A2.317,2.317,0,0,0,72.9,94.469c.626.024.694.079.857.692a2.688,2.688,0,0,0,5.285-.685,2.66,2.66,0,0,0-2.3-2.667,2.57,2.57,0,0,0-2.458.94c-.044.052-.085.107-.132.156a.571.571,0,0,1-.8.085.578.578,0,0,1-.095-.822,3.709,3.709,0,0,1,2.468-1.505,3.854,3.854,0,1,1-2.927,5.274.534.534,0,0,0-.486-.375,3.4,3.4,0,0,1-2.851-3.2q-.05-3.854,0-7.709a3.4,3.4,0,0,1,3.3-3.272q3.581-.042,7.164,0a3.4,3.4,0,0,1,3.317,3.292c.036,2.546.017,5.094.006,7.641a3.2,3.2,0,0,1-.795,2.058.584.584,0,1,1-.912-.715,2.534,2.534,0,0,0,.557-1.674c-.01-2.32,0-4.639,0-6.959a2.312,2.312,0,0,0-2.488-2.49q-3.258,0-6.516,0a2.315,2.315,0,0,0-2.484,2.494c0,1.067,0,2.134,0,3.241" transform="translate(-63.112 -73.944)" fill="#fff"/>
      </g>
    </g>
  </g>
</svg>
