<svg xmlns="http://www.w3.org/2000/svg" xmlns:xlink="http://www.w3.org/1999/xlink" width="60" height="60" viewBox="0 0 60 60">
  <defs>
    <clipPath id="clip-path">
      <rect id="Rectángulo_200882" data-name="Rectángulo 200882" width="29.338" height="40.143" fill="#fff"/>
    </clipPath>
  </defs>
  <g id="Grupo_668688" data-name="Grupo 668688" transform="translate(-630 -2989)">
    <circle id="Elipse_5526" data-name="Elipse 5526" cx="30" cy="30" r="30" transform="translate(630 2989)" fill="#7181f4"/>
    <g id="Grupo_557386" data-name="Grupo 557386" transform="translate(645.357 2998.25)">
      <g id="Grupo_557386-2" data-name="Grupo 557386" clip-path="url(#clip-path)">
        <path id="Trazado_269356" data-name="Trazado 269356" d="M.3,86.974C.233,86.9.12,86.84.1,86.755c-.051-.2-.154-.488-.062-.61a.918.918,0,0,1,.636-.332c1.894-.025,3.789-.015,5.683-.015h.492c-.095-.111-.151-.188-.218-.253A10.534,10.534,0,0,1,9.175,68.653a1.813,1.813,0,0,0,1.115-1.826c-.033-2.247-.011-4.495-.011-6.742v-.418c-.947-.329-1.059-.489-1.059-1.48,0-.366,0-.732,0-1.1,0-.725.177-.974.779-1.2a7.576,7.576,0,0,1-.057-1.624A2.419,2.419,0,0,1,13.664,52.7a.8.8,0,0,0,.527.1,3.356,3.356,0,0,1,3.995,2.923.586.586,0,0,0,.187.346,1.105,1.105,0,0,1,.407.894c0,.431,0,.862,0,1.293,0,.9-.189,1.15-1.073,1.392,0,.422,0,.852,0,1.282,0,2.025.009,4.05,0,6.076a1.627,1.627,0,0,0,.954,1.569c.6.32,1.165.694,1.727,1.072.386.259.456.6.24.9s-.555.295-.933.049c-.547-.355-1.11-.683-1.66-1.032-.295-.187-.577-.394-.875-.6-.107.4-.157.735.3,1.036a2.1,2.1,0,0,1,.825,1.339.493.493,0,0,0,.361.4,3.448,3.448,0,0,1,1.845,1.615c.075.133.261.2.391.306.237.188.559.332.692.578a8.449,8.449,0,0,1-2.332,10.435,1.444,1.444,0,0,1-.683.247,8.615,8.615,0,0,1-1.175.009.589.589,0,0,1-.638-.6c0-.35.241-.562.648-.576a.712.712,0,0,1,.157,0,1.872,1.872,0,0,0,1.849-.808,7.429,7.429,0,0,0,1.91-5.084c0-.326-.114-.453-.434-.407a1.149,1.149,0,0,1-.274,0c-.629-.061-1.085-.013-1.384.748a1.905,1.905,0,0,1-2.107,1.106,2.1,2.1,0,0,1-1.883-1.485c-.1-.286-.212-.386-.512-.375-.652.023-1.306.013-1.96,0-.467-.006-.719-.225-.714-.6s.254-.572.73-.576c.719-.006,1.437-.008,2.156,0a.451.451,0,0,0,.457-.266,2.209,2.209,0,0,1,3.883.005.446.446,0,0,0,.461.261c.439-.012.879,0,1.4,0-.179-.48-.321-.9-.493-1.3a.488.488,0,0,0-.287-.219,1.328,1.328,0,0,1-.83-.722,2.313,2.313,0,0,0-4.2-.018,1.349,1.349,0,0,1-1.325.792c-2.064,0-4.129,0-6.193-.008-.278,0-.435.073-.517.343-.108.357-.242.706-.39,1.129H8.549c.418,0,.837-.008,1.254,0s.644.232.644.582a.575.575,0,0,1-.644.584c-.915.013-1.829,0-2.744.007-.1,0-.2.016-.328.026a7.131,7.131,0,0,0,2.512,6.064.95.95,0,0,0,.559.2c1.555.015,3.11.007,4.664.01.467,0,.733.261.679.654a.555.555,0,0,1-.593.513c-1.725.009-3.449.015-5.174-.012a1.281,1.281,0,0,1-.7-.3A8.429,8.429,0,0,1,6.395,74.284c.155-.3.5-.512.873-.875.25-1.466.977-2.022,2.79-1.951.04-.183.068-.375.124-.558a3.111,3.111,0,0,1,2.54-2.273.49.49,0,0,0,.322-.193,2.1,2.1,0,0,1,3.459-.926V65.52c-.472.028-.917-.123-1.355.321a1.817,1.817,0,0,1-2.552-.031c-.349-.361-.7-.3-1.14-.273,0,.473-.013.927,0,1.38A2.759,2.759,0,0,1,9.8,69.653a9.215,9.215,0,0,0-4.993,6.556,9.335,9.335,0,0,0,3.8,9.444.883.883,0,0,0,.467.139q4.919.012,9.839,0a.987.987,0,0,0,.531-.182,9.347,9.347,0,0,0,2.317-12.813c-.051-.076-.106-.149-.154-.227a.589.589,0,1,1,.962-.669,9.617,9.617,0,0,1,1.564,3.266,10.418,10.418,0,0,1-2.748,10.354c-.068.071-.135.144-.261.278h.489q3.489,0,6.977,0c.5,0,.81.244.735.633a1.863,1.863,0,0,1-.326.542ZM16.99,55.846a2.107,2.107,0,0,0-2.777-1.811.9.9,0,0,1-1.054-.213,1.246,1.246,0,0,0-2.073.627,1.1,1.1,0,0,0,1.089,1.419c.379,0,.758-.014,1.136.006a1.009,1.009,0,0,1,1.025,1.057c0,.117,0,.235,0,.353,0,1.006,0,2.012,0,3.017a.62.62,0,0,0,.6.68c.355,0,.578-.255.593-.681,0-.117,0-.235,0-.353,0-.98-.007-1.959,0-2.939a1.026,1.026,0,0,1,1.106-1.14c.114-.005.228-.014.343-.021m-5.5,3.779v4.688h.405c.346-1.3.951-1.882,1.966-1.892,1.051-.011,1.672.564,2.033,1.89h.615V61.283l-.157.184a1.774,1.774,0,0,1-2,.59A1.8,1.8,0,0,1,13.162,60.3c0-.218,0-.437,0-.674ZM14.913,72.5a2.235,2.235,0,0,0-3.1-.065c-.788.706-.976.732-1.937.269a.96.96,0,0,0-1.4.93H8.9c1.6,0,3.206-.01,4.809.008a.624.624,0,0,0,.692-.405,4.586,4.586,0,0,1,.509-.737M17.07,71.49A1.434,1.434,0,0,0,15.6,70.464a2.007,2.007,0,0,1-1.408-.391,1.86,1.86,0,0,0-2.851,1.219c.121-.068.23-.134.343-.192a3.117,3.117,0,0,1,3.409.092,1.845,1.845,0,0,0,1.972.3M10.418,58.4h2.725V57.077H10.418Zm6.906,17.655a1.045,1.045,0,1,0,1.042,1.038,1.028,1.028,0,0,0-1.042-1.038M13.873,63.6a.78.78,0,0,0-.767.779.806.806,0,0,0,.781.777.779.779,0,0,0,.776-.81.756.756,0,0,0-.79-.746m2.01,5.623a.843.843,0,0,0-.563-1.056.87.87,0,0,0-1.113.592c.553.178.983.761,1.676.465m1.683-12.156H16.74v1.341h.826Z" transform="translate(0 -46.831)" fill="#fff"/>
        <path id="Trazado_269357" data-name="Trazado 269357" d="M102.745,0a1.793,1.793,0,0,1,1.192,1.324A1.61,1.61,0,1,1,101.681.151c.118-.054.239-.1.358-.151Zm-.534,2.055c.407-.019.573-.172.573-.442a.4.4,0,0,0-.413-.428.379.379,0,0,0-.435.43c.022.174.2.328.274.44" transform="translate(-90.209)" fill="#fff"/>
        <path id="Trazado_269358" data-name="Trazado 269358" d="M149.814,13.258a2.151,2.151,0,1,1-2.12-2.158,2.152,2.152,0,0,1,2.12,2.158m-2.167.948a.964.964,0,1,0-.955-.985.981.981,0,0,0,.955.985" transform="translate(-130.301 -9.939)" fill="#fff"/>
        <path id="Trazado_269359" data-name="Trazado 269359" d="M37.079,104.146a1.979,1.979,0,1,1,1.991-1.987,1.969,1.969,0,0,1-1.991,1.987m.055-2.776a.789.789,0,0,0-.843.744.8.8,0,1,0,1.6.088.786.786,0,0,0-.755-.832" transform="translate(-31.441 -89.715)" fill="#fff"/>
        <path id="Trazado_269360" data-name="Trazado 269360" d="M177.611,142.934a1.979,1.979,0,1,1,1.964,1.974,1.968,1.968,0,0,1-1.964-1.974m2-.806a.8.8,0,1,0,.783.808.795.795,0,0,0-.783-.808" transform="translate(-159.044 -126.216)" fill="#fff"/>
        <path id="Trazado_269361" data-name="Trazado 269361" d="M91.075,306.565a1.938,1.938,0,1,1,1.935-1.943,1.935,1.935,0,0,1-1.935,1.943m-.016-1.177a.757.757,0,0,0,.771-.76.746.746,0,0,0-.729-.759.76.76,0,1,0-.043,1.519" transform="translate(-79.814 -271.045)" fill="#fff"/>
      </g>
    </g>
  </g>
</svg>
