<svg xmlns="http://www.w3.org/2000/svg" xmlns:xlink="http://www.w3.org/1999/xlink" width="60" height="60" viewBox="0 0 60 60">
  <defs>
    <clipPath id="clip-path">
      <rect id="Rectángulo_200881" data-name="Rectángulo 200881" width="33.517" height="30.318" fill="#fff"/>
    </clipPath>
  </defs>
  <g id="Grupo_668692" data-name="Grupo 668692" transform="translate(-1085.189 -2912)">
    <circle id="Elipse_5523" data-name="Elipse 5523" cx="30" cy="30" r="30" transform="translate(1085.189 2912)" fill="#7181f4"/>
    <g id="Grupo_557385" data-name="Grupo 557385" transform="translate(1098.189 2927)">
      <g id="Grupo_557385-2" data-name="Grupo 557385" clip-path="url(#clip-path)">
        <path id="Trazado_269354" data-name="Trazado 269354" d="M0,25.119A9.177,9.177,0,0,1,1.461,21.86q5.586-9.7,11.176-19.406A4.505,4.505,0,0,1,16.713,0a4.424,4.424,0,0,1,4.1,2.346q2.8,4.846,5.591,9.7,3.212,5.574,6.424,11.148A4.664,4.664,0,0,1,32,29.087a4.73,4.73,0,0,1-3.323,1.223q-7.805-.014-15.61,0c-2.727,0-5.455-.037-8.181.011a4.708,4.708,0,0,1-4.836-4A.768.768,0,0,0,0,26.169v-1.05m16.741,3.219c4.025,0,8.051.007,12.076,0a2.679,2.679,0,0,0,2.357-4.069q-6.026-10.49-12.088-20.96a2.932,2.932,0,0,0-.943-.969A2.661,2.661,0,0,0,14.4,3.352Q10.827,9.533,7.267,15.719q-2.436,4.227-4.873,8.453A2.744,2.744,0,0,0,2,26.054,2.667,2.667,0,0,0,4.73,28.337q6.006.007,12.011,0" transform="translate(0 0)" fill="#fff"/>
        <path id="Trazado_269355" data-name="Trazado 269355" d="M98.265,123.782c.7,0,1.4-.006,2.094,0a.3.3,0,0,0,.337-.224,2.757,2.757,0,0,1,.374-.649.342.342,0,0,0,.024-.458c-.678-1.158-1.344-2.324-2.013-3.487a1.016,1.016,0,0,1,.473-1.638,8.326,8.326,0,0,1,8.139.069.971.971,0,0,1,.412,1.443q-1.028,1.807-2.078,3.6a.352.352,0,0,0,.031.486,1.367,1.367,0,0,1,.3.5c.09.325.289.361.582.357,1.309-.015,2.618-.008,3.927-.006a1,1,0,0,1,1.13,1.159,8.385,8.385,0,0,1-4.132,7.1.974.974,0,0,1-1.472-.385q-1.034-1.784-2.055-3.577a.352.352,0,0,0-.434-.221,1.78,1.78,0,0,1-.681,0c-.245-.05-.345.046-.454.239-.641,1.129-1.294,2.252-1.942,3.377-.485.841-.956.976-1.759.448a8.366,8.366,0,0,1-3.949-7,1,1,0,0,1,1.119-1.139c.676,0,1.352,0,2.029,0m11.7,1.968c-1.011,0-1.97.021-2.927-.01-.377-.012-.516.146-.738.434-.445.577-.271,1,.065,1.518.444.682.823,1.406,1.248,2.143a6.584,6.584,0,0,0,2.352-4.085M99.5,129.836c.514-.89.988-1.748,1.5-2.583a.544.544,0,0,0-.032-.768,1.576,1.576,0,0,1-.279-.514.294.294,0,0,0-.334-.226c-.425.014-.85,0-1.276,0H97.155a6.552,6.552,0,0,0,2.347,4.086m6.408-11.116a6.493,6.493,0,0,0-4.7,0c.556.964,1.086,1.891,1.63,2.811a.39.39,0,0,0,.279.139,7.164,7.164,0,0,0,.881,0,.391.391,0,0,0,.28-.138c.544-.919,1.074-1.847,1.633-2.816m-2.353,4.913a1.12,1.12,0,0,0-1.149,1.162,1.149,1.149,0,0,0,2.3,0,1.121,1.121,0,0,0-1.149-1.162" transform="translate(-86.796 -106.129)" fill="#fff"/>
      </g>
    </g>
  </g>
</svg>
