<svg xmlns="http://www.w3.org/2000/svg" xmlns:xlink="http://www.w3.org/1999/xlink" width="60" height="60" viewBox="0 0 60 60">
  <defs>
    <clipPath id="clip-path">
      <rect id="Rectángulo_200880" data-name="Rectángulo 200880" width="32.176" height="34.912" fill="#fff"/>
    </clipPath>
  </defs>
  <g id="Grupo_668687" data-name="Grupo 668687" transform="translate(-630 -2912)">
    <circle id="Elipse_5522" data-name="Elipse 5522" cx="30" cy="30" r="30" transform="translate(630 2912)" fill="#7181f4"/>
    <g id="Grupo_557384" data-name="Grupo 557384" transform="translate(644.189 2925)">
      <g id="Grupo_557384-2" data-name="Grupo 557384" clip-path="url(#clip-path)">
        <path id="Trazado_269348" data-name="Trazado 269348" d="M4.632,34.912a13.052,13.052,0,0,1-1.956-.644,5.009,5.009,0,0,1-2.067-6.8c1.079-1.878,2.289-3.683,3.451-5.513Q7.428,16.651,10.8,11.349a1.128,1.128,0,0,0,.166-.565c.013-1.533.007-3.066.007-4.545a11.384,11.384,0,0,1-1.517-.529A3.019,3.019,0,0,1,7.976,2.437,3.067,3.067,0,0,1,10.518.053a4.87,4.87,0,0,1,.61-.05q4.961,0,9.922,0a3.062,3.062,0,0,1,.623,6.083c-.146.019-.291.041-.469.066v.813c0,1.261-.009,2.523.008,3.784a1.261,1.261,0,0,0,.184.627Q26.3,19.115,31.232,26.84a5.034,5.034,0,0,1,.655,4.578,4.968,4.968,0,0,1-4.08,3.433c-.088.015-.174.04-.261.061Zm11.445-2.046c3.59,0,7.181.013,10.771-.014a3.8,3.8,0,0,0,1.544-.318,3.029,3.029,0,0,0,1.16-4.512q-2.716-4.286-5.452-8.559a1.108,1.108,0,0,0-.386-.363,6.825,6.825,0,0,0-6.776-.138,36.392,36.392,0,0,0-3.55,2.281,9.226,9.226,0,0,1-7.2,1.613.329.329,0,0,0-.391.173c-1.073,1.7-2.154,3.392-3.23,5.089a2.965,2.965,0,0,0-.489,1.976,3.053,3.053,0,0,0,3.161,2.772q5.42.008,10.839,0M13.02,6.163c0,1.661-.007,3.3,0,4.932a1.913,1.913,0,0,1-.316,1.088q-2.67,4.174-5.324,8.359c-.076.12-.149.242-.246.4a6.8,6.8,0,0,0,4.334-.923c1.164-.706,2.284-1.485,3.417-2.241a9.168,9.168,0,0,1,6.024-1.626c.373.032.745.083,1.159.129-.089-.147-.152-.253-.218-.358-.8-1.264-1.623-2.52-2.4-3.8a2.041,2.041,0,0,1-.28-.953c-.035-1.01-.013-2.022-.013-3.033V6.175a.612.612,0,0,0-.082-.037A1.042,1.042,0,0,1,18.143,5a1.053,1.053,0,0,1,1.165-.907c.591,0,1.182,0,1.773,0a1.028,1.028,0,1,0,.007-2.044q-4.994,0-9.988,0a1.028,1.028,0,1,0-.011,2.044c.636,0,1.273-.006,1.909,0A1.011,1.011,0,0,1,14,4.858c.17.61-.2,1.118-.984,1.3" transform="translate(0 0)" fill="#fff"/>
        <path id="Trazado_269349" data-name="Trazado 269349" d="M200.439,244.228a3.065,3.065,0,1,1,3.007,3.114,3.089,3.089,0,0,1-3.007-3.114m2.045.022a1.021,1.021,0,1,0,1.048-.992,1.031,1.031,0,0,0-1.048.992" transform="translate(-183.324 -220.616)" fill="#fff"/>
        <path id="Trazado_269350" data-name="Trazado 269350" d="M86.762,292.242a3.065,3.065,0,1,1-3.006-3.115,3.089,3.089,0,0,1,3.006,3.115m-3.077-1.071a1.02,1.02,0,1,0,1.032,1.008,1.03,1.03,0,0,0-1.032-1.008" transform="translate(-73.746 -264.44)" fill="#fff"/>
        <path id="Trazado_269351" data-name="Trazado 269351" d="M177.515,315.127a1.02,1.02,0,1,1,1.005-1.035,1.03,1.03,0,0,1-1.005,1.035" transform="translate(-161.411 -286.354)" fill="#fff"/>
        <path id="Trazado_269352" data-name="Trazado 269352" d="M273.352,313.087a1.02,1.02,0,1,1-1.026,1.014,1.03,1.03,0,0,1,1.026-1.014" transform="translate(-249.074 -286.355)" fill="#fff"/>
        <path id="Trazado_269353" data-name="Trazado 269353" d="M226.443,338.049a1.02,1.02,0,1,1-1.036-1,1.03,1.03,0,0,1,1.036,1" transform="translate(-205.243 -308.266)" fill="#fff"/>
      </g>
    </g>
  </g>
</svg>
