<svg xmlns="http://www.w3.org/2000/svg" width="153" height="69" viewBox="0 0 153 69"><g transform="translate(6495 7712.112)"><rect width="153" height="69" rx="11" transform="translate(-6495 -7712.112)" fill="#7181f4"/><path d="M5.086,12.977H3.6V17H.859V5.625H5.336a5,5,0,0,1,3.164.9A3.041,3.041,0,0,1,9.641,9.059a3.693,3.693,0,0,1-.48,1.967,3.41,3.41,0,0,1-1.5,1.264l2.375,4.593V17H7.094ZM3.6,10.867H5.336a1.557,1.557,0,0,0,1.176-.411,1.59,1.59,0,0,0,.395-1.147,1.608,1.608,0,0,0-.4-1.155,1.542,1.542,0,0,0-1.172-.419H3.6Zm11.664,6.289A4.345,4.345,0,0,1,12.117,16a4.006,4.006,0,0,1-1.2-3.02v-.219a5.191,5.191,0,0,1,.48-2.289,3.516,3.516,0,0,1,1.4-1.535,4.233,4.233,0,0,1,2.188-.543A3.659,3.659,0,0,1,17.8,9.5a4.344,4.344,0,0,1,1.031,3.082V13.6H13.594a1.9,1.9,0,0,0,.617,1.117,1.836,1.836,0,0,0,1.234.406A2.366,2.366,0,0,0,17.4,14.25l1.2,1.422a3.363,3.363,0,0,1-1.395,1.082A4.713,4.713,0,0,1,15.266,17.156Zm-.3-6.734q-1.156,0-1.375,1.531H16.25v-.2a1.3,1.3,0,0,0-.32-.98A1.275,1.275,0,0,0,14.969,10.422ZM20.469,17V10.375H19.242V8.547h1.227V7.875a2.921,2.921,0,0,1,.852-2.242,3.364,3.364,0,0,1,2.391-.8A5.235,5.235,0,0,1,24.945,5l.008,1.938a2.4,2.4,0,0,0-.648-.07q-1.2,0-1.2,1.031v.648h1.648v1.828H23.109V17Zm9.3.156A4.345,4.345,0,0,1,26.625,16a4.006,4.006,0,0,1-1.2-3.02v-.219a5.191,5.191,0,0,1,.48-2.289,3.516,3.516,0,0,1,1.4-1.535,4.233,4.233,0,0,1,2.188-.543A3.659,3.659,0,0,1,32.3,9.5a4.344,4.344,0,0,1,1.031,3.082V13.6H28.1a1.9,1.9,0,0,0,.617,1.117,1.836,1.836,0,0,0,1.234.406,2.366,2.366,0,0,0,1.953-.875l1.2,1.422a3.363,3.363,0,0,1-1.395,1.082A4.713,4.713,0,0,1,29.773,17.156Zm-.3-6.734q-1.156,0-1.375,1.531h2.656v-.2a1.3,1.3,0,0,0-.32-.98A1.275,1.275,0,0,0,29.477,10.422Zm10.031.508-.867-.062a1.558,1.558,0,0,0-1.594.781V17H34.414V8.547h2.469l.086,1.086A2.039,2.039,0,0,1,38.82,8.391a2.567,2.567,0,0,1,.734.094Zm5.039,6.227A4.345,4.345,0,0,1,41.4,16a4.006,4.006,0,0,1-1.2-3.02v-.219a5.191,5.191,0,0,1,.48-2.289,3.516,3.516,0,0,1,1.4-1.535,4.233,4.233,0,0,1,2.188-.543A3.659,3.659,0,0,1,47.078,9.5a4.344,4.344,0,0,1,1.031,3.082V13.6H42.875a1.9,1.9,0,0,0,.617,1.117,1.836,1.836,0,0,0,1.234.406,2.366,2.366,0,0,0,1.953-.875l1.2,1.422a3.363,3.363,0,0,1-1.395,1.082A4.713,4.713,0,0,1,44.547,17.156Zm-.3-6.734q-1.156,0-1.375,1.531h2.656v-.2a1.3,1.3,0,0,0-.32-.98A1.275,1.275,0,0,0,44.25,10.422Zm7.336-1.875.086.992a2.867,2.867,0,0,1,2.414-1.148,2.412,2.412,0,0,1,1.973.789,3.757,3.757,0,0,1,.676,2.375V17H54.094V11.664a1.426,1.426,0,0,0-.258-.941,1.193,1.193,0,0,0-.937-.3,1.256,1.256,0,0,0-1.148.609V17H49.117V8.547Zm10.18,6.578a1.171,1.171,0,0,0,.859-.3,1.1,1.1,0,0,0,.3-.84h2.469a2.922,2.922,0,0,1-1,2.281,3.705,3.705,0,0,1-2.566.891A3.751,3.751,0,0,1,58.922,16a4.556,4.556,0,0,1-1.062-3.2v-.109a5.149,5.149,0,0,1,.473-2.262A3.441,3.441,0,0,1,59.7,8.918,4.065,4.065,0,0,1,61.8,8.391a3.658,3.658,0,0,1,2.617.914,3.242,3.242,0,0,1,.969,2.477H62.922a1.445,1.445,0,0,0-.32-1.008,1.106,1.106,0,0,0-.859-.352q-1.023,0-1.2,1.3a9.206,9.206,0,0,0-.055,1.141,3.616,3.616,0,0,0,.3,1.766A1.055,1.055,0,0,0,61.766,15.125ZM69.281,17H66.641V8.547h2.641Zm-2.8-10.633a1.175,1.175,0,0,1,.406-.922,1.727,1.727,0,0,1,2.109,0,1.175,1.175,0,0,1,.406.922A1.175,1.175,0,0,1,69,7.289a1.727,1.727,0,0,1-2.109,0A1.175,1.175,0,0,1,66.484,6.367ZM75.664,17a2.973,2.973,0,0,1-.25-.758,2.448,2.448,0,0,1-2.031.914,3,3,0,0,1-2.031-.723,2.3,2.3,0,0,1-.836-1.816,2.364,2.364,0,0,1,1.016-2.078,5.174,5.174,0,0,1,2.953-.7H75.3v-.448q0-1.17-1.008-1.17a.824.824,0,0,0-.937.926H70.719a2.36,2.36,0,0,1,1.043-1.99,4.383,4.383,0,0,1,2.66-.765,3.843,3.843,0,0,1,2.555.789,2.743,2.743,0,0,1,.961,2.164v3.742a3.832,3.832,0,0,0,.359,1.781V17Zm-1.648-1.719a1.469,1.469,0,0,0,.816-.211,1.322,1.322,0,0,0,.465-.477V13.242h-.766q-1.375,0-1.375,1.234a.754.754,0,0,0,.242.582A.876.876,0,0,0,74.016,15.281Z" transform="translate(-6461 -7687.112)" fill="#fff"/></g></svg>