<svg xmlns="http://www.w3.org/2000/svg" xmlns:xlink="http://www.w3.org/1999/xlink" width="36.189" height="41.003" viewBox="0 0 36.189 41.003">
  <defs>
    <clipPath id="clip-path">
      <rect id="Rectángulo_61336" data-name="Rectángulo 61336" width="36.189" height="41.003" fill="#fff"/>
    </clipPath>
  </defs>
  <g id="Grupo_183863" data-name="Grupo 183863" transform="translate(36.189 41.003) rotate(180)">
    <g id="Grupo_183857" data-name="Grupo 183857" transform="translate(0 -0.001)" clip-path="url(#clip-path)">
      <path id="Trazado_218644" data-name="Trazado 218644" d="M13.779.669a2.282,2.282,0,1,0,3.227,0,2.283,2.283,0,0,0-3.227,0" transform="translate(0.296 0.001)" fill="#fff"/>
      <path id="Trazado_218645" data-name="Trazado 218645" d="M19.718,6.608a2.282,2.282,0,1,0,3.227,0,2.281,2.281,0,0,0-3.227,0" transform="translate(0.43 0.134)" fill="#fff"/>
      <path id="Trazado_218646" data-name="Trazado 218646" d="M25.657,12.547a2.282,2.282,0,1,0,3.226,0,2.281,2.281,0,0,0-3.226,0" transform="translate(0.564 0.268)" fill="#fff"/>
      <path id="Trazado_218647" data-name="Trazado 218647" d="M31.6,18.487a2.282,2.282,0,1,0,3.226,0,2.281,2.281,0,0,0-3.226,0" transform="translate(0.698 0.402)" fill="#fff"/>
      <path id="Trazado_218648" data-name="Trazado 218648" d="M13.779,39.531a2.282,2.282,0,1,1,3.227,0,2.283,2.283,0,0,1-3.227,0" transform="translate(0.296 0.804)" fill="#fff"/>
      <path id="Trazado_218649" data-name="Trazado 218649" d="M19.718,33.592a2.282,2.282,0,1,1,3.227,0,2.281,2.281,0,0,1-3.227,0" transform="translate(0.43 0.67)" fill="#fff"/>
      <path id="Trazado_218650" data-name="Trazado 218650" d="M25.657,27.652a2.281,2.281,0,1,1,3.226,0,2.28,2.28,0,0,1-3.226,0" transform="translate(0.564 0.536)" fill="#fff"/>
      <path id="Trazado_218651" data-name="Trazado 218651" d="M31.6,21.713a2.282,2.282,0,1,1,3.226,0,2.281,2.281,0,0,1-3.226,0" transform="translate(0.698 0.402)" fill="#fff"/>
      <path id="Trazado_218652" data-name="Trazado 218652" d="M.668.669a2.282,2.282,0,1,0,3.227,0,2.283,2.283,0,0,0-3.227,0" transform="translate(0 0.001)" fill="#fff"/>
      <path id="Trazado_218653" data-name="Trazado 218653" d="M6.608,6.608a2.282,2.282,0,1,0,3.227,0,2.283,2.283,0,0,0-3.227,0" transform="translate(0.134 0.134)" fill="#fff"/>
      <path id="Trazado_218654" data-name="Trazado 218654" d="M12.547,12.547a2.282,2.282,0,1,0,3.227,0,2.281,2.281,0,0,0-3.227,0" transform="translate(0.268 0.268)" fill="#fff"/>
      <path id="Trazado_218655" data-name="Trazado 218655" d="M18.487,18.487a2.282,2.282,0,1,0,3.226,0,2.281,2.281,0,0,0-3.226,0" transform="translate(0.402 0.402)" fill="#fff"/>
      <path id="Trazado_218656" data-name="Trazado 218656" d="M.668,39.531a2.282,2.282,0,1,1,3.227,0,2.283,2.283,0,0,1-3.227,0" transform="translate(0 0.804)" fill="#fff"/>
      <path id="Trazado_218657" data-name="Trazado 218657" d="M6.608,33.592a2.282,2.282,0,1,1,3.227,0,2.283,2.283,0,0,1-3.227,0" transform="translate(0.134 0.67)" fill="#fff"/>
      <path id="Trazado_218658" data-name="Trazado 218658" d="M12.547,27.652a2.282,2.282,0,1,1,3.227,0,2.28,2.28,0,0,1-3.227,0" transform="translate(0.268 0.536)" fill="#fff"/>
      <path id="Trazado_218659" data-name="Trazado 218659" d="M18.487,21.713a2.282,2.282,0,1,1,3.226,0,2.281,2.281,0,0,1-3.226,0" transform="translate(0.402 0.402)" fill="#fff"/>
    </g>
  </g>
</svg>
