<svg xmlns="http://www.w3.org/2000/svg" xmlns:xlink="http://www.w3.org/1999/xlink" width="339.1" height="230.431" viewBox="0 0 339.1 230.431">
  <defs>
    <clipPath id="clip-path">
      <rect id="Rectángulo_201658" data-name="Rectángulo 201658" width="339.1" height="230.431" transform="translate(0 0)" fill="none"/>
    </clipPath>
  </defs>
  <g id="Grupo_559903" data-name="Grupo 559903" transform="translate(0 0.002)">
    <g id="Grupo_559903-2" data-name="Grupo 559903" transform="translate(0 -0.002)" clip-path="url(#clip-path)">
      <path id="Trazado_273421" data-name="Trazado 273421" d="M323.072,229.938l-181.682-.063-91.3-.031-5.082,0-18.342,0S.47,208.521.016,178.386c-.894-59.379,37.94-32.633,32.664-104.2C27.866,8.886,153.651-26.326,221.95,23.564,246.781,41.7,248.73,54.424,284.413,50.4c40.28-4.54,44.869,44.453,30.771,71.611-20,38.534,55.468,32.2,7.888,107.925" transform="translate(0 0.002)" fill="#ebf3fa"/>
      <path id="Trazado_273422" data-name="Trazado 273422" d="M520.579,1004.073l-49.278.063-96.031.125-5.355.007,0-.009-12.672,0-26.289.012c4.8-13.156,20.665-52.022,31.973-67.366a121.845,121.845,0,0,1,10.279-12.244c6.745-7,11.2-.936,15.653,3.584l.025.026a14.68,14.68,0,0,0,4.411,3.4c2.9,1.2,8.5-6.756,14.5-15.626q.7-1.029,1.4-2.068h0c6.44-9.535,13.144-19.376,17.357-19.579,7.537-.365,13.8,6.587,19.043,16.378h0c11.6,21.66,19.284,34.841,22.14,38.551,4.658,6.051,9.52,13.585,14.305,8.537,2.638-2.782,5.19-5.006,7.436-5.057,4-.093,8.187,3.865,12.151,9.619l0,0c10.229,14.849,18.948,41.649,18.948,41.649" transform="translate(-286.566 -774.413)" fill="#d4e1ff"/>
      <path id="Trazado_273423" data-name="Trazado 273423" d="M588.321,1104.066c-1.809-2.461-5.922,7.851-8.554,8.554s-.165-3.633-1.316-5.273-9.127,4.424-9.127,4.424a121.856,121.856,0,0,1,10.278-12.243c6.746-7,11.2-.936,15.653,3.583l.025.027c1.038,1.072-5.149,3.389-6.959.928" transform="translate(-492.959 -949.283)" fill="#fff"/>
      <path id="Trazado_273424" data-name="Trazado 273424" d="M950.657,910.767h0a29.749,29.749,0,0,1-4.639-2.318c-1.48-1.055,0,4.219-2.632,5.508s-3.619-3.75-6.58-4.588-7.732,10.8-11.515,10.916-.987-9.141-1.81-10.664-9.224,4.346-9.224,4.346h0c6.441-9.534,13.144-19.375,17.357-19.579,7.538-.365,13.8,6.588,19.043,16.379" transform="translate(-791.625 -774.41)" fill="#fff"/>
      <path id="Trazado_273425" data-name="Trazado 273425" d="M1470.949,1337.264c-.74,1.172,1.48,4.16-.411,4.277s-6.91-5.976-7.9-6.269-1.809,2.871-3.537,2.637c-.788-.107-1.37-1.469-1.77-2.917,2.639-2.783,5.19-5.006,7.436-5.058,4-.093,8.187,3.866,12.15,9.62-.136-.089-5.241-3.446-5.971-2.29" transform="translate(-1261.858 -1151.544)" fill="#fff"/>
      <path id="Trazado_273426" data-name="Trazado 273426" d="M1277.223,732.833v96.083a9.528,9.528,0,0,1-9.354,9.693h-38.043a9.527,9.527,0,0,1-9.352-9.693V731.1a21.528,21.528,0,0,1,12.168-19.564,5.725,5.725,0,0,0,3.2-5.208v-3.871h26.008v4.315a6.136,6.136,0,0,0,3.224,5.42,23.314,23.314,0,0,1,12.147,20.64" transform="translate(-1056.768 -608.235)" fill="#aec3ff"/>
      <path id="Trazado_273427" data-name="Trazado 273427" d="M1299.49,954.834v84.548a8.275,8.275,0,0,1-8,8.528h-32.529a8.276,8.276,0,0,1-8-8.528V953.309c0-.642.03-1.279.09-1.905a28.181,28.181,0,0,1,14.055-.352c7.514,1.841,13.7-1.768,22.542-1.768,6.157,0,8.884.953,11.3.735a21.728,21.728,0,0,1,.536,4.815" transform="translate(-1083.171 -821.954)" fill="#83a9ff"/>
      <path id="Trazado_273428" data-name="Trazado 273428" d="M1354.414,663.47h-28.387v-5.033a2.411,2.411,0,0,1,2.411-2.411h23.684a2.292,2.292,0,0,1,2.292,2.292Z" transform="translate(-1148.163 -568.031)" fill="#f99746"/>
      <path id="Trazado_273429" data-name="Trazado 273429" d="M1531.012,799.091s-4.243-6.83-7.953-5.892-1.275,3.33.98,5.892,3.752,3.125,5.524,2.16,2.048-1.275,1.448-2.16" transform="translate(-1317.109 -686.728)" fill="#e3eeff"/>
      <path id="Trazado_273430" data-name="Trazado 273430" d="M1169.379,523.034s2.674-5.955,9.068-5.293c0,0,9.284-9.925,19.183-1.323,0,0,10.524-2.131,18.317,1.845,5.2,2.651,6.912,5.432,6.912,5.432Z" transform="translate(-1012.527 -444.112)" fill="#f8fcff"/>
      <path id="Trazado_273431" data-name="Trazado 273431" d="M445.282,286.4s5.7-13.328,19.334-11.847c0,0,19.793-22.213,40.9-2.962,0,0,22.436-4.77,39.052,4.13,11.078,5.934,14.737,12.159,14.737,12.159Z" transform="translate(-385.555 -228.36)" fill="#f8fcff"/>
      <path id="Trazado_273432" data-name="Trazado 273432" d="M1862.907,460.94s2.014-5.668,6.829-5.038c0,0,6.991-9.448,14.446-1.26,0,0,7.925-2.029,13.793,1.757a14.811,14.811,0,0,1,5.2,5.171Z" transform="translate(-1613.03 -390.768)" fill="#f8fcff"/>
      <path id="Trazado_273433" data-name="Trazado 273433" d="M877.153,134s1.992-5.128,6.755-4.558c0,0,6.915-8.547,14.29-1.14,0,0,7.839-1.835,13.644,1.589a13.963,13.963,0,0,1,5.149,4.679Z" transform="translate(-759.498 -108.479)" fill="#f8fcff"/>
      <path id="Trazado_273434" data-name="Trazado 273434" d="M1962.422,612.075c.013-.352.285-4.142,6.058-4.34,0,0-2.839.338-3.329,1.586,0,0,1.933-1.542,3.507-1.046s2.5,3.254,2.508,4.161-.865,3.831-1.864,4.08a3.047,3.047,0,0,1-1.21,0,13.642,13.642,0,0,1,.775,1.384c2.3,4.729-.072,9.35-2.022,8.839-1.251-.328-1.6,1.807-1.6,1.807l-12.151-9.837s4.463-9.235,9.333-6.636" transform="translate(-1691.116 -526.217)" fill="#2c3a64"/>
      <path id="Trazado_273435" data-name="Trazado 273435" d="M1827.224,873.4c3.555-.352,7.774-.977,9.454-2.012,2.559-1.563,6.989-8.124,9.723-12.91.078-.117.255-2.541.314-2.658,1.426-2.539,2.073-.976,2.151-2.988a10.1,10.1,0,0,0-.332-3.2,8.166,8.166,0,0,0-1.445-2.891,1.443,1.443,0,0,0-.273-.332,6.744,6.744,0,0,0-1.856-1.582c-.469-.2-.977.039-1.5.605v.02a8.965,8.965,0,0,0-1.348,1.992c-.019.019-.039.039-.039.059-.1.176-.2.371-.312.586a.489.489,0,0,0-.078.137q-.323.674-.645,1.406c-2.4,5.235-4.211,13.89-6.34,16.254-.918,1.016-5.868,2.283-9.208,3.767-2.4,1.055-.625,4,1.738,3.75" transform="translate(-1579.639 -731.451)" fill="#ffb27d"/>
      <path id="Trazado_273436" data-name="Trazado 273436" d="M1991.129,1160.941l2.581.961s11.21-15.548,12.591-29.228a20.773,20.773,0,0,0-.369-6.994s.11-.626.3-1.732c.089-.516.2-1.138.323-1.85.365-2.088.866-4.946,1.439-8.2,1.319-7.487,3.028-17.057,4.356-24.093l-.7-.223-7.525-2.428-1.555-4.939-5.6-1.475s-1.252,2.448-2.37,14.015c-.207,1.517-.394,3.19-.535,5a99.026,99.026,0,0,0,.533,20.26q.386,3.015.984,6.218a27.731,27.731,0,0,1,.215,6.14c-.565,11.183-4.669,28.562-4.669,28.562" transform="translate(-1724.053 -935.777)" fill="#aec3ff"/>
      <path id="Trazado_273437" data-name="Trazado 273437" d="M2013.028,1096.255l12.167,24.188c.088-.516.2-1.138.322-1.85.365-2.088.866-4.945,1.439-8.2,1.319-7.487,3.028-17.057,4.355-24.093l-.7-.223-7.525-2.427-1.555-4.939-7.664-2.018s-.844,14.949-.844,19.562" transform="translate(-1743.015 -932.273)" fill="#94b0ed"/>
      <path id="Trazado_273438" data-name="Trazado 273438" d="M2052.932,1065.682l.282-2.415c4.719,1.253,17.326-3.5,17.326-3.5s4.571,4.018,3.971,13.651c-.293,4.7-.828,24.679-1.387,30.591-.2,2.143-.379,3.667-.451,4.276a.012.012,0,0,0,0,.006.842.842,0,0,0,.137.524,27.756,27.756,0,0,1,2.063,4.338c5.485,14.618-.845,32.62-.845,32.62l-1.643-.662s-3.6-20.034-6.53-28.885a17.547,17.547,0,0,0-1.41-3.386,38.231,38.231,0,0,1-3.526-9.4,231.144,231.144,0,0,1-4.743-24.943c-.149.007-3.245-12.81-3.245-12.81" transform="translate(-1777.566 -917.615)" fill="#aec3ff"/>
      <path id="Trazado_273439" data-name="Trazado 273439" d="M1985.724,772.092a14.691,14.691,0,0,0,5.434,1.273c8.113.445,9.954-6.667,10.29-11.387a6.805,6.805,0,0,0-2.784-.352c-.219.012-.443.028-.663.047a2.391,2.391,0,0,1-2.088-.912,17,17,0,0,1-2.726-6.231l-.35.162-5.854,2.752s.622,1.9,1.081,3.728a19.161,19.161,0,0,1,.439,2.161,1.286,1.286,0,0,1-.776,1.335h0a.017.017,0,0,1,0,.006,40.155,40.155,0,0,0-2,7.419" transform="translate(-1719.373 -653.322)" fill="#ffb27d"/>
      <path id="Trazado_273440" data-name="Trazado 273440" d="M1966.2,822.227c.061.162.129.321.2.483,2.054,4.425,5.858,22.755,5.858,22.755,1.168,3.544,24.768-.647,24.833-3.648.891-3.182-3.163-8.294-5.449-10.858a7.29,7.29,0,0,1-.767-1.033,7.2,7.2,0,0,1-1.037-3.026,104.665,104.665,0,0,1-.316-10.664h0c-.447-.331-.879-.636-1.281-.927a11.409,11.409,0,0,1-1.559-1.294,2.36,2.36,0,0,1-.748-1.473,7.832,7.832,0,0,1,.032-1.235c.019-.2.044-.392.074-.588a16.732,16.732,0,0,1,1.176-3.926c-2.177-.881-6.048-.356-6.048-.356s0,.215.006.567c.013,1.414,0,5.044-.453,5.731-.567.855-10.936,4.6-11.484,3.443-.539-1.142.938-6.492.992-6.695a.016.016,0,0,0,0-.006,16.352,16.352,0,0,0-4.714,2.508c2.093,1.357-.938,5.949.681,10.241" transform="translate(-1701.88 -698.133)" fill="#f99746"/>
      <path id="Trazado_273441" data-name="Trazado 273441" d="M1995.118,758.5s.622,1.9,1.081,3.728c3.421-.955,4.46-4.551,4.773-6.479Z" transform="translate(-1727.507 -654.377)" fill="#ed985f"/>
      <path id="Trazado_273442" data-name="Trazado 273442" d="M1956.146,695.177s8.186-1.895,6.928-6.974-1.049-8.745-6.329-7.75-5.811,3.184-5.8,4.982,3.043,10.105,5.2,9.743" transform="translate(-1689.256 -589.04)" fill="#ffb27d"/>
      <path id="Trazado_273443" data-name="Trazado 273443" d="M1945.157,676.574c.88-1.841,1.916-1.743,2.564-1.416a5.872,5.872,0,0,1,7.619-.652,9.995,9.995,0,0,0,4.6,4.942s-1.258,1.288-4.9,1.259a6,6,0,0,1-3.251-1.224,19.6,19.6,0,0,0,4.269,3.184c-4.563-.873-7.622-6.155-7.936-6.716a6.582,6.582,0,0,0-1.188,2.812c-.085,1.394.395,4.1-.4,4.2,0,0-2.69-3.631-1.37-6.392" transform="translate(-1683.932 -583.063)" fill="#2c3a64"/>
      <path id="Trazado_273444" data-name="Trazado 273444" d="M1950.888,848c-.922.8-1.971,3.438-2.266,4.323,0,0,2.556-.1,3.588,1.868,0,0,.009-7.346-1.322-6.191" transform="translate(-1687.248 -734.149)" fill="#f99746"/>
      <path id="Trazado_273445" data-name="Trazado 273445" d="M2052.074,889.221c4.992-.053,9.219-5.236,11.8-9.379a7.189,7.189,0,0,1-1.037-3.026,104.563,104.563,0,0,1-.316-10.664h0c-.447-.331-.879-.636-1.281-.927a11.452,11.452,0,0,1-1.559-1.294c-4.088,6.909-14.377,25.362-7.609,25.29" transform="translate(-1774.878 -748.049)" fill="#ed7d2b"/>
      <path id="Trazado_273446" data-name="Trazado 273446" d="M2139,1663.665h13a7.134,7.134,0,0,0-.368-3.484c-.651-1.442-1.669-2.1-1.426-3.843a4.681,4.681,0,0,1-4.052,1.55,14.259,14.259,0,0,1-2.256,2.924c-.85.61-4.638.393-4.9,2.853" transform="translate(-1852.089 -1434.168)" fill="#2b478b"/>
      <path id="Trazado_273447" data-name="Trazado 273447" d="M1930.91,1667.429h13a5.4,5.4,0,0,0-.367-3.485,2.505,2.505,0,0,1,.094-2.992,5.052,5.052,0,0,1-2.189.412,4.579,4.579,0,0,1-1.933-.68,46.757,46.757,0,0,1-3.7,3.891c-.849.61-4.638.393-4.9,2.853" transform="translate(-1671.912 -1437.932)" fill="#2b478b"/>
      <path id="Trazado_273448" data-name="Trazado 273448" d="M1918.027,845.6l.523,2.017s6.492-1.361,7.918-1.674h.019c2.442-.586,5.176-1.289,7.481-2.071a20.551,20.551,0,0,0,3.985-1.777,2.386,2.386,0,0,0,.273-.2c2.285-1.66,5-6.543,7.11-11.778.293-.723.566-1.445.84-2.148a53.406,53.406,0,0,0,2.226-7.422,20.937,20.937,0,0,0,.528-3.536,8.692,8.692,0,0,0,.019-1c-.039-5.664-2.852-6.445-2.852-6.445-.059-.02-.117-.039-.2-.059-.488-.078-1,.254-1.523.9a17.754,17.754,0,0,0-2.09,3.691c-1.113,2.52-2.285,5.782-3.379,9.024-.605,1.777-1.191,3.555-1.777,5.2-.332,1-.664,1.934-.977,2.793a26.929,26.929,0,0,1-1.641,3.809,9.466,9.466,0,0,1-2.4,2.168c-2.07,1.5-14.086,8.5-14.086,8.5" transform="translate(-1660.756 -700.925)" fill="#ffb27d"/>
      <path id="Trazado_273449" data-name="Trazado 273449" d="M2094.595,814.429c3.76-1.037,7.246,1.687,7.246,1.687-.047-5.655-2.862-6.429-2.862-6.429-1.133-.469-3.03,1.7-4.384,4.743" transform="translate(-1813.641 -701.025)" fill="#f99746"/>
      <path id="Trazado_273450" data-name="Trazado 273450" d="M1888.414,1073.143a32.01,32.01,0,0,0-3.945,1.79,8.2,8.2,0,0,0-2.09,3s.012.354.341.354,1.07-1.266,1.612-1.064a11.087,11.087,0,0,1-1.094,2.1,6.548,6.548,0,0,0-.554,3.022c.082.463,2.866-1.746,4.032-2.75.621-.535.6-1.833.8-3.3.169-1.286,3.719-2.03,3.719-2.03Z" transform="translate(-1629.89 -929.199)" fill="#ffb27d"/>
      <path id="Trazado_273451" data-name="Trazado 273451" d="M1802.682,1052.316s-1.687,1.549-1.224,3.222,2.257,1.87,2.546.989-.445-4.519-1.322-4.211" transform="translate(-1559.754 -911.15)" fill="#ffb27d"/>
      <path id="Trazado_273452" data-name="Trazado 273452" d="M1665.483,759.71c0-3.793,6.288-11.156,6.288-11.156s6.288,7.363,6.288,11.156-2.816,6.867-6.288,6.867a6.6,6.6,0,0,1-6.288-6.867" transform="translate(-1442.087 -648.148)" fill="#83a9ff"/>
      <path id="Trazado_273453" data-name="Trazado 273453" d="M1679.932,829.1a2.6,2.6,0,0,1-.123-1.055c.074-1.661,1.607-2.558,2.829-1.429a4.6,4.6,0,0,1,.842,1.16c.474,1.151.272,2.189-.782,2.622a2.164,2.164,0,0,1-2.765-1.3" transform="translate(-1454.487 -715.3)" fill="#ccdcff"/>
      <path id="Trazado_273454" data-name="Trazado 273454" d="M677.061,576.018c0-8.854,14.68-26.043,14.68-26.043s14.68,17.189,14.68,26.043-6.572,16.031-14.68,16.031-14.68-7.177-14.68-16.031" transform="translate(-586.245 -476.205)" fill="#83a9ff"/>
      <path id="Trazado_273455" data-name="Trazado 273455" d="M710.793,738a6.073,6.073,0,0,1-.288-2.463c.172-3.878,3.752-5.971,6.6-3.336a10.734,10.734,0,0,1,1.966,2.709c1.1,2.686.634,5.11-1.826,6.122A5.053,5.053,0,0,1,710.793,738" transform="translate(-615.193 -632.97)" fill="#ccdcff"/>
      <rect id="Rectángulo_201656" data-name="Rectángulo 201656" width="28.207" height="4.616" transform="translate(156.852 184.607)" fill="#2b478b"/>
      <path id="Trazado_273456" data-name="Trazado 273456" d="M993.362,410.1H981.524V261.969a51.551,51.551,0,1,1,103.1,0v12.2h-11.839v-12.2a39.713,39.713,0,0,0-79.425,0Z" transform="translate(-849.869 -182.194)" fill="#233862"/>
      <path id="Trazado_273457" data-name="Trazado 273457" d="M1083.485,1352.988h-7.09v-14.855h7.09a6.893,6.893,0,0,1,6.893,6.893v1.069a6.893,6.893,0,0,1-6.893,6.893" transform="translate(-932.015 -1158.645)" fill="#233862"/>
      <path id="Trazado_273458" data-name="Trazado 273458" d="M1282.534,1364.607l-25.424-1.068a3.252,3.252,0,0,1-3.115-3.249v-2.271a3.252,3.252,0,0,1,3.156-3.251l25.424-.751a3.252,3.252,0,0,1,3.348,3.251v4.089a3.252,3.252,0,0,1-3.389,3.249" transform="translate(-1085.792 -1172.398)" fill="#f99746"/>
      <path id="Trazado_273459" data-name="Trazado 273459" d="M969.289,1331.805H948.626v-51.864a5.039,5.039,0,0,1,5.039-5.039h10.992a4.632,4.632,0,0,1,4.632,4.632Z" transform="translate(-821.384 -1103.896)" fill="#2b478b"/>
      <path id="Trazado_273460" data-name="Trazado 273460" d="M893.743,1683h-48.36v-.686a3.561,3.561,0,0,1,3.561-3.561h41.238a3.561,3.561,0,0,1,3.561,3.561Z" transform="translate(-731.989 -1453.579)" fill="#163560"/>
      <path id="Trazado_273461" data-name="Trazado 273461" d="M1660.565,661.225h-12.226a1.886,1.886,0,0,1-1.881-1.881v-1.438a1.886,1.886,0,0,1,1.881-1.881h12.226a1.886,1.886,0,0,1,1.881,1.881v1.438a1.886,1.886,0,0,1-1.881,1.881" transform="translate(-1425.614 -568.031)" fill="#060633"/>
      <path id="Trazado_273462" data-name="Trazado 273462" d="M1541.4,913.643h48.7l-4.085,100.1-42.115-.583Z" transform="translate(-1334.644 -791.093)" fill="#ccdbfd"/>
      <path id="Trazado_273463" data-name="Trazado 273463" d="M1593.1,1100.164l-1.877,60c-.091,2.881-2.09,5.162-4.526,5.162h-31.42c-2.571,0-4.687-2.4-4.8-5.439l-2.444-65.64c3.829-.935,11.384-1.622,20.4,3.611,7.642,4.437,17.659,3.692,24.671,2.3" transform="translate(-1340.389 -946.913)" fill="#a6c6ff"/>
      <rect id="Rectángulo_201657" data-name="Rectángulo 201657" width="50.56" height="0.638" transform="translate(204.893 122.55)" fill="#83a9ff"/>
      <path id="Trazado_273464" data-name="Trazado 273464" d="M1573.192,914.258l-3.255,104.026a2.914,2.914,0,0,1-2.912,2.823H1524.75l-3.977-106.849h2.766l.7,19.078.187,5.068,2.445,66.232c.112,3.07,2.229,5.487,4.8,5.487h31.419c2.435,0,4.436-2.3,4.526-5.208l1.878-60.543.435-14.034.5-16.08Z" transform="translate(-1316.787 -791.626)" fill="#2b478b"/>
      <path id="Trazado_273465" data-name="Trazado 273465" d="M1818.246,942.122s-.087-2.181-2.961-2.181c-4.638,0-4.443,15.94-2.875,17.769s4.674.83,5.226-.174c2.132-3.876.61-15.414.61-15.414" transform="translate(-1568.437 -813.864)" fill="#e3eeff"/>
      <path id="Trazado_273466" data-name="Trazado 273466" d="M1782.927,1505.352c-.127-.86-.369-2.532-1.917-2.9s-3.253,1.475-4.134,4.5-5.379,5.088-3.978,7.743,5.854,1.812,7.07.806c2.222-1.838,3.327-7.659,2.959-10.147" transform="translate(-1534.861 -1300.883)" fill="#e3eeff"/>
      <path id="Trazado_273467" data-name="Trazado 273467" d="M1723.206,1086.892s-5.662-1.415-6.707-4.1.849-4.215,2.809-3.616,1.067,3.148,2.483,5.434Z" transform="translate(-1486.003 -934.307)" fill="#a6c6ff"/>
      <path id="Trazado_273468" data-name="Trazado 273468" d="M1340.322,1541.4c1.406.57,6.432.109,6.594-.293s-3.124-4.231-4.53-4.8a2.748,2.748,0,0,0-2.064,5.093" transform="translate(-1159.055 -1330.061)" fill="#a8d29f"/>
      <path id="Trazado_273469" data-name="Trazado 273469" d="M1439.953,1584.951c-.79,1.3-1.146,6.329-.776,6.555s4.68-2.4,5.469-3.7a2.748,2.748,0,0,0-4.693-2.859" transform="translate(-1246.009 -1371.215)" fill="#a8d29f"/>
      <path id="Trazado_273470" data-name="Trazado 273470" d="M1383.069,1632.261c1.446.461,6.421-.381,6.553-.793s-3.437-3.981-4.882-4.442a2.748,2.748,0,0,0-1.671,5.235" transform="translate(-1195.897 -1408.675)" fill="#a8d29f"/>
      <path id="Trazado_273471" data-name="Trazado 273471" d="M1406.095,1590.061c0-.114-.561-11.506-6.8-17.389l.133-.141c6.3,5.936,6.854,17.406,6.859,17.521Z" transform="translate(-1211.605 -1361.604)" fill="#a8d29f"/>
      <path id="Trazado_273472" data-name="Trazado 273472" d="M1575.977,1554.88c-.876.582-4.352.964-4.518.714s1.536-3.3,2.412-3.886a1.9,1.9,0,1,1,2.106,3.172" transform="translate(-1360.665 -1343.297)" fill="#a8d29f"/>
      <path id="Trazado_273473" data-name="Trazado 273473" d="M1522.224,1598.7c.715.771,1.654,4.139,1.434,4.343s-3.509-.981-4.225-1.752a1.9,1.9,0,0,1,2.791-2.591" transform="translate(-1315.187 -1383.736)" fill="#a8d29f"/>
      <path id="Trazado_273474" data-name="Trazado 273474" d="M1558.486,1622.485c-.918.513-4.412.63-4.559.368s1.782-3.178,2.7-3.692a1.9,1.9,0,1,1,1.859,3.323" transform="translate(-1345.488 -1401.768)" fill="#a8d29f"/>
      <path id="Trazado_273475" data-name="Trazado 273475" d="M1553.706,1594.93c-.013-.078-1.211-7.89,2.21-12.747l-.11-.077c-3.453,4.9-2.245,12.766-2.232,12.845Z" transform="translate(-1345.003 -1369.893)" fill="#a8d29f"/>
      <path id="Trazado_273476" data-name="Trazado 273476" d="M1456.825,1471.346l-.4-.063a121.046,121.046,0,0,0-7.826-34.934l.362-.156a121.448,121.448,0,0,1,7.861,35.153" transform="translate(-1254.298 -1243.552)" fill="#a8d29f"/>
      <path id="Trazado_273477" data-name="Trazado 273477" d="M1414,1399.829c.762.863,4.328,2.251,4.574,2.033s-.688-3.928-1.45-4.791a2.084,2.084,0,1,0-3.125,2.758" transform="translate(-1223.885 -1209.068)" fill="#fff"/>
      <path id="Trazado_273478" data-name="Trazado 273478" d="M1450.942,1394.344c-.688.923-1.312,4.7-1.049,4.895s3.7-1.481,4.39-2.4a2.084,2.084,0,1,0-3.341-2.49" transform="translate(-1255.361 -1206.59)" fill="#fff"/>
      <path id="Trazado_273479" data-name="Trazado 273479" d="M1456.8,1429.252c-1.11-.3-4.853.5-4.939.814s2.733,2.9,3.843,3.207a2.084,2.084,0,0,0,1.1-4.021" transform="translate(-1257.116 -1237.484)" fill="#fff"/>
      <path id="Trazado_273480" data-name="Trazado 273480" d="M1443.027,1439.049c-.111-1.146-2.185-4.361-2.512-4.33s-1.747,3.585-1.636,4.731a2.084,2.084,0,0,0,4.148-.4" transform="translate(-1245.872 -1242.276)" fill="#fff"/>
      <path id="Trazado_273481" data-name="Trazado 273481" d="M1407.818,1438.407c1.019-.535,3.214-3.67,3.061-3.961s-3.979-.264-5,.271a2.084,2.084,0,0,0,1.937,3.69" transform="translate(-1216.34 -1241.88)" fill="#fff"/>
      <path id="Trazado_273482" data-name="Trazado 273482" d="M1445.237,1431.1a.686.686,0,1,1,.57.786.686.686,0,0,1-.57-.786" transform="translate(-1251.376 -1238.641)" fill="#163560"/>
      <path id="Trazado_273483" data-name="Trazado 273483" d="M1495.929,1536.371c-1.132,1.392-2.354,7.234-1.957,7.557s5.867-2.064,7-3.457a3.25,3.25,0,0,0-5.043-4.1" transform="translate(-1293.515 -1329.254)" fill="#a8d29f"/>
      <path id="Trazado_273484" data-name="Trazado 273484" d="M1286.921,1567.569l-.269-.007a81.029,81.029,0,0,0-8.259-22.493l.226-.135a81.292,81.292,0,0,1,8.3,22.636" transform="translate(-1106.919 -1337.707)" fill="#a8d29f"/>
      <path id="Trazado_273485" data-name="Trazado 273485" d="M1253.243,1522.819a1.842,1.842,0,1,0,1.831-2.1,1.395,1.395,0,1,0-1.831,2.1" transform="translate(-1084.727 -1316.44)" fill="#fff"/>
      <path id="Trazado_273486" data-name="Trazado 273486" d="M1279.038,1515.541a1.842,1.842,0,1,0,2.436,1.359,1.395,1.395,0,0,0-2.436-1.359" transform="translate(-1107.16 -1311.638)" fill="#fff"/>
      <path id="Trazado_273487" data-name="Trazado 273487" d="M1283.626,1537.277a1.842,1.842,0,1,0-.374,2.764,1.395,1.395,0,0,0,.374-2.764" transform="translate(-1108.673 -1331.07)" fill="#fff"/>
      <path id="Trazado_273488" data-name="Trazado 273488" d="M1277.355,1546.619a1.843,1.843,0,1,0-2.717.63,1.395,1.395,0,0,0,2.717-.63" transform="translate(-1103.641 -1336.868)" fill="#fff"/>
      <path id="Trazado_273489" data-name="Trazado 273489" d="M1252.649,1547.236a1.843,1.843,0,1,0-1.609-2.278,1.395,1.395,0,0,0,1.609,2.278" transform="translate(-1082.723 -1337.151)" fill="#fff"/>
      <path id="Trazado_273490" data-name="Trazado 273490" d="M1275.975,1541.671a.459.459,0,1,1,.447.471.46.46,0,0,1-.447-.471" transform="translate(-1104.825 -1334.495)" fill="#163560"/>
      <path id="Trazado_273491" data-name="Trazado 273491" d="M1323.049,1604.786c-.629,1.023-.927,5.007-.635,5.186s3.712-1.885,4.341-2.908a2.175,2.175,0,0,0-3.706-2.278" transform="translate(-1144.937 -1388.634)" fill="#a8d29f"/>
      <path id="Trazado_273492" data-name="Trazado 273492" d="M1661.835,1498.5l.353-.056a107.81,107.81,0,0,1,6.969-31.111l-.322-.139a108.173,108.173,0,0,0-7,31.307" transform="translate(-1438.929 -1270.398)" fill="#a8d29f"/>
      <path id="Trazado_273493" data-name="Trazado 273493" d="M1717.719,1434.813c-.678.768-3.854,2-4.074,1.811s.613-3.5,1.291-4.267a1.856,1.856,0,0,1,2.783,2.456" transform="translate(-1483.758 -1239.687)" fill="#fff"/>
      <path id="Trazado_273494" data-name="Trazado 273494" d="M1686.375,1429.928c.612.822,1.169,4.184.934,4.359s-3.3-1.32-3.91-2.141a1.856,1.856,0,0,1,2.976-2.218" transform="translate(-1457.281 -1237.48)" fill="#fff"/>
      <path id="Trazado_273495" data-name="Trazado 273495" d="M1671.89,1461.017c.989-.269,4.322.442,4.4.725s-2.434,2.587-3.423,2.856a1.856,1.856,0,0,1-.976-3.581" transform="translate(-1446.45 -1264.995)" fill="#fff"/>
      <path id="Trazado_273496" data-name="Trazado 273496" d="M1697.454,1469.742c.1-1.02,1.946-3.884,2.237-3.856s1.556,3.193,1.457,4.213a1.856,1.856,0,0,1-3.694-.357" transform="translate(-1469.762 -1269.263)" fill="#fff"/>
      <path id="Trazado_273497" data-name="Trazado 273497" d="M1717.558,1469.17c-.908-.477-2.862-3.268-2.726-3.528s3.544-.235,4.451.241a1.856,1.856,0,1,1-1.725,3.286" transform="translate(-1484.811 -1268.909)" fill="#fff"/>
      <path id="Trazado_273498" data-name="Trazado 273498" d="M1711.533,1462.663a.611.611,0,1,0-.508.7.611.611,0,0,0,.508-.7" transform="translate(-1480.909 -1266.025)" fill="#163560"/>
      <path id="Trazado_273499" data-name="Trazado 273499" d="M1622.539,1592.371c1.008,1.24,2.1,6.442,1.743,6.73s-5.225-1.838-6.234-3.078a2.894,2.894,0,0,1,4.491-3.652" transform="translate(-1400.453 -1377.856)" fill="#a8d29f"/>
      <path id="Trazado_273500" data-name="Trazado 273500" d="M1235.854,1658.357s2-5.252,9.252-5.582,12.249,3.957,18.242,1.978,15.913-6.446,25.3-3.47,10.966,7.074,10.966,7.074Z" transform="translate(-1070.085 -1428.932)" fill="#a8d29f"/>
      <path id="Trazado_273501" data-name="Trazado 273501" d="M512.426,1655.344h-15.68c-1.123-.762.3-8.21.3-8.21s4.279-1.624,5.018,1.678,5.451,4.349,7.943,4.751a2.683,2.683,0,0,1,2.415,1.781" transform="translate(-429.743 -1425.854)" fill="#2b478b"/>
      <path id="Trazado_273502" data-name="Trazado 273502" d="M459.482,1094.386l-7.32,76.03s-1.534,2.363-6.4.769a139.327,139.327,0,0,1-4.876-26.3c-.017-.23-.035-.461-.052-.693-.371-5.063-.814-12.113-1.232-19.1-.76-12.707-1.436-25.212-1.436-25.212Z" transform="translate(-379.394 -947.593)" fill="#f99746"/>
      <path id="Trazado_273503" data-name="Trazado 273503" d="M459.317,1202.823s-2.51,16.935-3.377,22.083c-1.846,10.958-5.784,13.875-5.784,13.875-.017-.23-.035-.461-.052-.693-.371-5.063-.814-12.113-1.232-19.1Z" transform="translate(-388.664 -1041.485)" fill="#ed7d2b"/>
      <path id="Trazado_273504" data-name="Trazado 273504" d="M786,923.636s1.453-1.763,2.234-2.011,2.294-1.418,2.491-.936-1.016,1.226-.952,1.777c.028.243.967.256,2.006.244,1.32-.015,2.925-.725,2.984-.4.218,1.176-1.514,3.316-3.31,3.506-1.448.154-3.462-.146-5.88.109-.838.088.427-2.286.427-2.286" transform="translate(-679.957 -797.095)" fill="#ffb27d"/>
      <path id="Trazado_273505" data-name="Trazado 273505" d="M523.469,817.029c-.05.142-5.262,1.014-9.773,1.646-2.656.374-5.071.665-6.047.675a30.675,30.675,0,0,1-10.988-2.715,46.69,46.69,0,0,1-8.519-4.7c-2.577-1.791-2.656-3.195-4.8-6.073-6.651-8.935,2.09-12.712,6.9-11a13.69,13.69,0,0,1,7.142,5.94c2.132,3.238,3.873,6.841,9.183,9.955,4,2.347,15.924,2.989,15.924,2.989a2.463,2.463,0,0,1,.877,1.372,7.352,7.352,0,0,1,.1,1.91" transform="translate(-416.427 -687.897)" fill="#aec3ff"/>
      <path id="Trazado_273506" data-name="Trazado 273506" d="M339.059,1655.344h-15.68c-1.123-.762.3-8.21.3-8.21s4.279-1.624,5.018,1.678,5.451,4.349,7.943,4.751a2.683,2.683,0,0,1,2.415,1.781" transform="translate(-279.63 -1425.854)" fill="#2b478b"/>
      <path id="Trazado_273507" data-name="Trazado 273507" d="M350.628,1065.389l-23.745,72.674s-5.052,1.35-7.639-1.4c0,0,.6-25.625,3.841-34.373,2.622-7.078,1.35-45.3,12.975-45.623s14.568,8.726,14.568,8.726" transform="translate(-276.423 -914.922)" fill="#f99746"/>
      <path id="Trazado_273508" data-name="Trazado 273508" d="M404.238,830.594c-3.664,1.887-8.416,3.213-16.26,2.7-7.539-.491-12.146-2.559-11.912-4.362.116-.9.229-1.82.327-2.784a69.727,69.727,0,0,0-.265-16.178c-.222-1.84-.506-3.794-.746-5.494v-.005h0a39.47,39.47,0,0,1-.494-4.4s2.386-10.719,4.175-12.441a7.7,7.7,0,0,1,2.714-1.544l.011,0c5.39-1.943,15.295-1.5,19.674,2.29a14.011,14.011,0,0,1,2.77,7.954c.082,5.385,2.388,33.044.009,34.268" transform="translate(-324.6 -679.664)" fill="#aec3ff"/>
      <path id="Trazado_273509" data-name="Trazado 273509" d="M454.011,745.491c-.54-.683.985-1.956.3-6.946a3.543,3.543,0,0,1,1.232.2c2.222.526,6.688,1.793,6.886,1.849h.008s.055,1.049.239,2.93c.015.166.032.339.05.519.023.221.039.456.073.7.53,3.754-6.261,3.944-8.791.749" transform="translate(-393.011 -639.463)" fill="#ffb27d"/>
      <path id="Trazado_273510" data-name="Trazado 273510" d="M466.028,744.979c-3.317.76-8.267-4.136-8.267-4.136a5.226,5.226,0,0,1,1.134-.643c2.222.526,6.688,1.793,6.886,1.849h.008s.055,1.05.239,2.931" transform="translate(-396.36 -640.914)" fill="#ed975d"/>
      <path id="Trazado_273511" data-name="Trazado 273511" d="M449.8,664.1a16.873,16.873,0,0,1-3.1.723c-2.543.343-5.886.141-6.937-2.936-1.769-5.178-4.029-8.283,1.177-10.4,2.787-1.132,4.57-1.192,5.781-.76a4.188,4.188,0,0,1,2.142,1.855c1.011,1.585,3.045,10.609.939,11.515" transform="translate(-379.008 -563.231)" fill="#ffb27d"/>
      <path id="Trazado_273512" data-name="Trazado 273512" d="M421.211,621.578a2.9,2.9,0,0,1-1.728,5.047,8.459,8.459,0,0,0-2.446.292c-1.295.575-1.527,2.747-1.551,3.436s-.114,1.273-1.873.86a.854.854,0,0,0-.638.038c-.73.433.2,2.53.484,2.984,0,0,.4,1.5-.493,2.234-.109.087-1.872.858-6.123-5.646a6.041,6.041,0,0,1-.274-5.536c1.03-2.215,5.262-4.642,8.991-5.49a6.258,6.258,0,0,1,5.652,1.781" transform="translate(-351.564 -536.54)" fill="#2b478b"/>
      <path id="Trazado_273513" data-name="Trazado 273513" d="M508.741,727.083s.109.67-1.45,1.205c0,0-1.308.449-1.547-.238a4.443,4.443,0,0,1,3-.967" transform="translate(-437.907 -629.556)" fill="#fff"/>
      <path id="Trazado_273514" data-name="Trazado 273514" d="M613.765,927.211c-2.656.374-5.071.665-6.047.675a30.68,30.68,0,0,1-10.988-2.715c-.2-.685-.393-4.971.026-5.259,1.272-.875,3.8,4.067,8.049,5.35a72.173,72.173,0,0,0,8.96,1.948" transform="translate(-516.497 -796.432)" fill="#8baaef"/>
      <path id="Trazado_273515" data-name="Trazado 273515" d="M380.986,942.626a1.311,1.311,0,0,1-1.384-.355,69.731,69.731,0,0,0-.265-16.178c-.222-1.84-.506-3.794-.746-5.494v-.005s3.555-3.059,4.774-.533-2.264,9.234-.348,13.241.119,8.721-2.032,9.325" transform="translate(-327.81 -795.784)" fill="#8baaef"/>
      <path id="Trazado_273516" data-name="Trazado 273516" d="M348.233,1077.13s1.922,1.394,2.415,1.311c1.443-.241,2.191-1.417,3.531-1.305s4.175,1.611,3.847,1.954c-1.192,1.245-3.029.571-3.892,1.333-.6.529-.96,1.627-3.138,1.4a8.312,8.312,0,0,1-4.1-2.013Z" transform="translate(-300.364 -932.65)" fill="#ffb27d"/>
      <path id="Trazado_273517" data-name="Trazado 273517" d="M291.461,793.359a29.477,29.477,0,0,0-14.37,10.577c-5.975,8.231-7.909,13.793-5.557,17.91s6.925,11.394,11.367,14.46c0,0,2.221-.475,2.047-3.872,0,0-5.454-11.628-5.257-13.2.366-2.929,8.132-10.352,9.83-11.883s1.94-13.991,1.94-13.991" transform="translate(-234.27 -686.943)" fill="#aec3ff"/>
      <path id="Trazado_273518" data-name="Trazado 273518" d="M381.646,1072.341a15.811,15.811,0,0,0,1.1-1.931c.131-.436.353.226.261.675a1.755,1.755,0,0,0,.021.806Z" transform="translate(-330.455 -926.71)" fill="#ffb27d"/>
      <path id="Trazado_273519" data-name="Trazado 273519" d="M2287.988,1634.465h-10.677c-.572-.485.4-1.587,1.407-1.661a6.236,6.236,0,0,1,1.63.193c.147-1.952.986-10.724,4.148-10.372,3.555.394,0,3.863-1.005,5.917a48.876,48.876,0,0,0-1.889,4.732c.289.062.588.124.893.18.471-1.447,2.225-6.314,4.455-6.031,2.618.332,1.566,2.284-.29,3.442-1.362.852-3.033,2.063-3.827,2.647a11.337,11.337,0,0,0,2.088.167,4.5,4.5,0,0,1,3.068.785" transform="translate(-1971.701 -1404.968)" fill="#a8d29f"/>
      <path id="Trazado_273520" data-name="Trazado 273520" d="M695.97,1528.036l-.318-.051a97.06,97.06,0,0,0-6.275-28.012l.29-.125a97.381,97.381,0,0,1,6.3,28.187" transform="translate(-596.909 -1298.67)" fill="#a8d29f"/>
      <path id="Trazado_273521" data-name="Trazado 273521" d="M661.632,1470.691a8.573,8.573,0,0,0,3.668,1.63,8.574,8.574,0,0,0-1.162-3.842,1.671,1.671,0,1,0-2.505,2.211" transform="translate(-572.523 -1271.018)" fill="#fff"/>
      <path id="Trazado_273522" data-name="Trazado 273522" d="M691.252,1466.293a8.572,8.572,0,0,0-.841,3.924,8.57,8.57,0,0,0,3.521-1.928,1.671,1.671,0,1,0-2.679-2" transform="translate(-597.762 -1269.032)" fill="#fff"/>
      <path id="Trazado_273523" data-name="Trazado 273523" d="M695.948,1494.283a2.207,2.207,0,1,0-.879,3.224,1.671,1.671,0,1,0,.879-3.224" transform="translate(-599.168 -1293.804)" fill="#fff"/>
      <path id="Trazado_273524" data-name="Trazado 273524" d="M684.906,1502.14a8.573,8.573,0,0,0-2.014-3.472,8.573,8.573,0,0,0-1.312,3.793,1.671,1.671,0,0,0,3.326-.322" transform="translate(-590.154 -1297.647)" fill="#fff"/>
      <path id="Trazado_273525" data-name="Trazado 273525" d="M656.674,1501.624a2.207,2.207,0,1,0-1.553-2.959,1.671,1.671,0,1,0,1.553,2.959" transform="translate(-566.473 -1297.329)" fill="#fff"/>
      <path id="Trazado_273526" data-name="Trazado 273526" d="M686.678,1495.765a.55.55,0,1,1,.457.63.55.55,0,0,1-.457-.63" transform="translate(-594.566 -1294.732)" fill="#f78248"/>
      <path id="Trazado_273527" data-name="Trazado 273527" d="M716.833,1528.1c-.908,1.116-1.888,5.8-1.569,6.06s4.7-1.655,5.613-2.772a2.606,2.606,0,0,0-4.043-3.288" transform="translate(-619.271 -1322.301)" fill="#a8d29f"/>
      <path id="Trazado_273528" data-name="Trazado 273528" d="M693.077,1633.365c.943.46,3.028,3.256,2.9,3.525s-3.618.349-4.561-.111a1.9,1.9,0,0,1,1.665-3.414" transform="translate(-597.747 -1414.11)" fill="#a8d29f"/>
      <path id="Trazado_273529" data-name="Trazado 273529" d="M802.548,1501.085l.365-.058a111.445,111.445,0,0,1,7.2-32.161l-.333-.143a111.812,111.812,0,0,0-7.237,32.363" transform="translate(-694.9 -1271.718)" fill="#a8d29f"/>
      <path id="Trazado_273530" data-name="Trazado 273530" d="M860.316,1435.245c-.7.794-3.984,2.072-4.211,1.872s.634-3.616,1.335-4.411a1.918,1.918,0,0,1,2.876,2.539" transform="translate(-741.241 -1239.971)" fill="#fff"/>
      <path id="Trazado_273531" data-name="Trazado 273531" d="M827.915,1430.195c.633.85,1.208,4.325.966,4.506s-3.409-1.364-4.042-2.213a1.918,1.918,0,0,1,3.076-2.293" transform="translate(-713.872 -1237.69)" fill="#fff"/>
      <path id="Trazado_273532" data-name="Trazado 273532" d="M812.943,1462.332c1.022-.278,4.467.458,4.547.749s-2.516,2.674-3.538,2.953a1.918,1.918,0,0,1-1.009-3.7" transform="translate(-702.676 -1266.132)" fill="#fff"/>
      <path id="Trazado_273533" data-name="Trazado 273533" d="M839.369,1471.352c.1-1.055,2.012-4.015,2.313-3.986s1.608,3.3,1.506,4.355a1.918,1.918,0,1,1-3.819-.369" transform="translate(-726.774 -1270.543)" fill="#fff"/>
      <path id="Trazado_273534" data-name="Trazado 273534" d="M860.15,1470.761c-.938-.493-2.959-3.379-2.818-3.646s3.664-.243,4.6.249a1.918,1.918,0,0,1-1.783,3.4" transform="translate(-742.33 -1270.179)" fill="#fff"/>
      <path id="Trazado_273535" data-name="Trazado 273535" d="M853.923,1464.033a.632.632,0,1,0-.524.723.632.632,0,0,0,.524-.723" transform="translate(-738.297 -1267.197)" fill="#f78248"/>
      <path id="Trazado_273536" data-name="Trazado 273536" d="M769.03,1560.949c1.042,1.282,2.168,6.66,1.8,6.958s-5.4-1.9-6.444-3.182a2.992,2.992,0,0,1,4.642-3.775" transform="translate(-661.277 -1350.618)" fill="#a8d29f"/>
      <path id="Trazado_273537" data-name="Trazado 273537" d="M812.975,1622.015c-1.083.528-3.476,3.739-3.325,4.047s4.154.4,5.237-.128a2.181,2.181,0,1,0-1.911-3.92" transform="translate(-701.043 -1404.258)" fill="#a8d29f"/>
      <path id="Trazado_273538" data-name="Trazado 273538" d="M712.38,1694.448a5.606,5.606,0,0,0-4.42-2.123c-3.168-.174-4.736,1.654-7.937.61s-11.546-1.985-13.351,1.457Z" transform="translate(-594.567 -1465.025)" fill="#a8d29f"/>
      <path id="Trazado_273539" data-name="Trazado 273539" d="M410.81,1710.934l-324.084-.112a.392.392,0,0,1-.391-.391v-.19a.392.392,0,0,1,.391-.391l324.084.112a.392.392,0,0,1,.391.391v.19a.392.392,0,0,1-.391.391" transform="translate(-74.755 -1480.503)" fill="#2e3552"/>
    </g>
  </g>
</svg>
