<svg id="Grupo_563916" data-name="Grupo 563916" xmlns="http://www.w3.org/2000/svg" xmlns:xlink="http://www.w3.org/1999/xlink" width="310.793" height="284.354" viewBox="0 0 310.793 284.354">
  <defs>
    <clipPath id="clip-path">
      <rect id="Rectángulo_203283" data-name="Rectángulo 203283" width="310.793" height="284.354" fill="none"/>
    </clipPath>
    <clipPath id="clip-path-2">
      <path id="Trazado_275789" data-name="Trazado 275789" d="M46.037,149.119l-7.917,33.64,7.006,3.84,1.071-.239L54.872,149.5l-.852-.692Z" transform="translate(-38.12 -148.806)" fill="none"/>
    </clipPath>
  </defs>
  <path id="Trazado_275773" data-name="Trazado 275773" d="M78.667,330.788l60.262-6.941-43.47-45.96Z" transform="translate(-23.339 -82.443)" fill="#5e8083"/>
  <path id="Trazado_275774" data-name="Trazado 275774" d="M90.031,345.267l.983-3.429-3.532-1.566,1.175-3.287-4.2-1.665,1.226-3.626-2.1-.59-4.911,15.473Z" transform="translate(-23.339 -98.231)" fill="#fff"/>
  <g id="Grupo_563917" data-name="Grupo 563917">
    <g id="Grupo_563916-2" data-name="Grupo 563916" clip-path="url(#clip-path)">
      <path id="Trazado_275775" data-name="Trazado 275775" d="M137.316,314.041l4.33,3.031s-5.293,7.293-13.368,18.022c-7.386,9.816-13.789,17.961-13.789,17.961l-1.676-1.172s5.53-8.762,12.153-19.106c8.173-12.766,12.35-18.734,12.35-18.734" transform="translate(-33.469 -93.169)" fill="#849da0"/>
      <path id="Trazado_275776" data-name="Trazado 275776" d="M139.054,329.637c5.724-7.669,9.278-12.566,9.278-12.566L144,314.041s-2.922,4.176-8.654,13Z" transform="translate(-40.154 -93.169)" fill="#a7b9bb"/>
      <path id="Trazado_275777" data-name="Trazado 275777" d="M111,365.045l3.239,2.267a1.66,1.66,0,0,1,.409,2.312l-3.452,3.415a2.368,2.368,0,0,1-3.024.257l-.715-.5a2.369,2.369,0,0,1-.795-2.929l2.026-4.412a1.66,1.66,0,0,1,2.313-.409" transform="translate(-31.579 -108.212)" fill="#fff"/>
      <path id="Trazado_275778" data-name="Trazado 275778" d="M111.2,373.092a66.306,66.306,0,0,1,.335,11.423,32.026,32.026,0,0,1-2.149,10.51s-.149.231-.638-.935-1.471-9.056-.808-11.7a44.851,44.851,0,0,1,1.867-5.724,16.693,16.693,0,0,0,.39-3.539Z" transform="translate(-31.957 -110.688)" fill="#14afde"/>
      <path id="Trazado_275779" data-name="Trazado 275779" d="M113.446,370.4a66.307,66.307,0,0,1,11.423-.335,32.026,32.026,0,0,1,10.51,2.149s.231.149-.935.638-9.056,1.471-11.7.808a44.869,44.869,0,0,1-5.724-1.867,16.7,16.7,0,0,0-3.539-.391Z" transform="translate(-33.657 -109.762)" fill="#14afde"/>
      <path id="Trazado_275780" data-name="Trazado 275780" d="M110.758,360.546a66.307,66.307,0,0,1-.335-11.423,32.026,32.026,0,0,1,2.149-10.51s.149-.231.638.935,1.471,9.056.808,11.7a44.853,44.853,0,0,1-1.867,5.724,16.694,16.694,0,0,0-.39,3.539Z" transform="translate(-32.731 -100.454)" fill="#14afde"/>
      <path id="Trazado_275781" data-name="Trazado 275781" d="M100.9,370.842a66.315,66.315,0,0,1-11.423.335,32.025,32.025,0,0,1-10.51-2.149s-.23-.149.935-.638,9.056-1.471,11.7-.808a44.854,44.854,0,0,1,5.724,1.867,16.693,16.693,0,0,0,3.539.39Z" transform="translate(-23.422 -108.988)" fill="#14afde"/>
      <path id="Trazado_275782" data-name="Trazado 275782" d="M108.336,370.181a2.53,2.53,0,1,1,2.237,2.792,2.53,2.53,0,0,1-2.237-2.792" transform="translate(-32.136 -109.156)" fill="#a7b9bb"/>
      <path id="Trazado_275783" data-name="Trazado 275783" d="M0,202.78l68.986,39.982-3.5-84.228Z" transform="translate(0 -47.033)" fill="#5e8083"/>
      <path id="Trazado_275784" data-name="Trazado 275784" d="M11.441,224.1l2.878-2.011-4.171-4.165,4.767-2.083-4.171-3.123,4.171-3.645-.975-1.022L0,217.471Z" transform="translate(0 -61.725)" fill="#fff"/>
      <rect id="Rectángulo_203277" data-name="Rectángulo 203277" width="36.709" height="23.155" transform="matrix(0.229, -0.973, 0.973, 0.229, 34.742, 141.422)" fill="#f5e782"/>
      <rect id="Rectángulo_203278" data-name="Rectángulo 203278" width="8.83" height="7.901" transform="translate(45.119 118.05) rotate(-76.757)" fill="#874f17"/>
      <rect id="Rectángulo_203279" data-name="Rectángulo 203279" width="7.552" height="6.953" transform="translate(45.726 117.537) rotate(-76.756)" fill="#bbe8f5"/>
      <path id="Trazado_275785" data-name="Trazado 275785" d="M70.073,156.8l-.931,3.958-3.506-.825-.16.679,3.506.825-.932,3.958.679.16.931-3.958,3.506.825.16-.679-3.506-.825.932-3.958Z" transform="translate(-19.425 -46.519)" fill="#874f17"/>
      <rect id="Rectángulo_203280" data-name="Rectángulo 203280" width="8.83" height="7.901" transform="translate(39.993 139.831) rotate(-76.757)" fill="#874f17"/>
      <rect id="Rectángulo_203281" data-name="Rectángulo 203281" width="7.552" height="6.953" transform="translate(40.6 139.317) rotate(-76.756)" fill="#bbe8f5"/>
      <path id="Trazado_275786" data-name="Trazado 275786" d="M62.785,187.767l-.932,3.958-3.505-.825-.16.679,3.505.825-.931,3.958.679.16.931-3.958,3.506.825.16-.679-3.506-.825.932-3.958Z" transform="translate(-17.263 -55.706)" fill="#874f17"/>
      <path id="Trazado_275787" data-name="Trazado 275787" d="M82.319,185.208l-11.61-2.732a4.076,4.076,0,0,1,1.866-7.93l11.61,2.732Z" transform="translate(-20.086 -51.754)" fill="#874f17"/>
      <path id="Trazado_275788" data-name="Trazado 275788" d="M46.036,149.119,38.12,182.758l7.006,3.84,1.07-.239L54.871,149.5l-.852-.692Z" transform="translate(-11.309 -44.147)" fill="#dd474a"/>
      <rect id="Rectángulo_203282" data-name="Rectángulo 203282" width="39.776" height="1.711" transform="translate(33.488 142.985) rotate(-76.757)" fill="#874f17"/>
    </g>
  </g>
  <g id="Grupo_563919" data-name="Grupo 563919" transform="translate(26.811 104.659)">
    <g id="Grupo_563918" data-name="Grupo 563918" clip-path="url(#clip-path-2)">
      <rect id="Rectángulo_203284" data-name="Rectángulo 203284" width="11.354" height="0.697" transform="matrix(1, -0.02, 0.02, 1, 6.739, 1.263)" fill="#874f17"/>
      <rect id="Rectángulo_203285" data-name="Rectángulo 203285" width="0.697" height="11.227" transform="translate(6.014 5.035) rotate(-88.402)" fill="#874f17"/>
      <rect id="Rectángulo_203286" data-name="Rectángulo 203286" width="0.697" height="11.126" transform="translate(5.274 8.104) rotate(-85.54)" fill="#874f17"/>
      <rect id="Rectángulo_203287" data-name="Rectángulo 203287" width="0.697" height="11.054" transform="translate(4.534 11.173) rotate(-82.638)" fill="#874f17"/>
      <rect id="Rectángulo_203288" data-name="Rectángulo 203288" width="0.698" height="11.01" transform="translate(3.794 14.24) rotate(-79.704)" fill="#874f17"/>
      <rect id="Rectángulo_203289" data-name="Rectángulo 203289" width="0.697" height="10.995" transform="matrix(0.229, -0.973, 0.973, 0.229, 3.053, 17.308)" fill="#874f17"/>
      <rect id="Rectángulo_203290" data-name="Rectángulo 203290" width="0.697" height="11.01" transform="translate(2.314 20.37) rotate(-73.777)" fill="#874f17"/>
      <rect id="Rectángulo_203291" data-name="Rectángulo 203291" width="0.698" height="11.054" transform="translate(1.574 23.438) rotate(-70.871)" fill="#874f17"/>
      <rect id="Rectángulo_203292" data-name="Rectángulo 203292" width="0.697" height="11.126" transform="translate(0.834 26.506) rotate(-68.016)" fill="#874f17"/>
      <rect id="Rectángulo_203293" data-name="Rectángulo 203293" width="0.697" height="11.226" transform="translate(0.096 29.566) rotate(-65.116)" fill="#874f17"/>
      <rect id="Rectángulo_203294" data-name="Rectángulo 203294" width="0.697" height="11.354" transform="matrix(0.464, -0.886, 0.886, 0.464, -0.643, 32.632)" fill="#874f17"/>
    </g>
  </g>
  <g id="Grupo_563921" data-name="Grupo 563921">
    <g id="Grupo_563920" data-name="Grupo 563920" clip-path="url(#clip-path)">
      <path id="Trazado_275790" data-name="Trazado 275790" d="M42.533,149.987,39.95,160.965a1.753,1.753,0,0,1-2.108,1.3l-2.67-.628a1.753,1.753,0,0,1-1.3-2.108l2.583-10.977a1.753,1.753,0,0,1,2.108-1.3l2.67.629a1.752,1.752,0,0,1,1.3,2.107" transform="translate(-10.034 -43.672)" fill="#95abad"/>
      <path id="Trazado_275791" data-name="Trazado 275791" d="M52.04,151.5l-3.282,13.945-8.011-3.881L43.14,151.4Z" transform="translate(-12.089 -44.917)" fill="#4f7477"/>
      <path id="Trazado_275792" data-name="Trazado 275792" d="M51.528,152.775l-2.793,11.868-6.89-3.32,2.035-8.649Z" transform="translate(-12.414 -45.295)" fill="#eaf8fc"/>
      <path id="Trazado_275793" data-name="Trazado 275793" d="M50.37,164.525l2.841-12.071h-.4l-2.8,11.894Z" transform="translate(-14.836 -45.229)" fill="#4f7477"/>
      <path id="Trazado_275794" data-name="Trazado 275794" d="M48.637,163.921l2.7-11.473h-.4l-2.659,11.3Z" transform="translate(-14.322 -45.228)" fill="#4f7477"/>
      <path id="Trazado_275795" data-name="Trazado 275795" d="M46.9,163.317l2.559-10.876h-.4l-2.518,10.7Z" transform="translate(-13.808 -45.225)" fill="#4f7477"/>
      <path id="Trazado_275796" data-name="Trazado 275796" d="M45.171,162.713l2.419-10.278h-.4l-2.377,10.1Z" transform="translate(-13.294 -45.224)" fill="#4f7477"/>
      <path id="Trazado_275797" data-name="Trazado 275797" d="M43.438,162.109l2.278-9.681h-.4l-2.237,9.5Z" transform="translate(-12.78 -45.221)" fill="#4f7477"/>
      <path id="Trazado_275798" data-name="Trazado 275798" d="M369.959,343.311l5.71-11.725-2.012-1.732-8.227,9.56Z" transform="translate(-108.415 -97.861)" fill="#799598"/>
      <rect id="Rectángulo_203295" data-name="Rectángulo 203295" width="18.715" height="44.917" transform="translate(222.254 213.488) rotate(-49.29)" fill="#4f7477"/>
      <rect id="Rectángulo_203296" data-name="Rectángulo 203296" width="15.135" height="2.257" transform="matrix(0.652, -0.758, 0.758, 0.652, 253.245, 237.793)" fill="#799598"/>
      <rect id="Rectángulo_203297" data-name="Rectángulo 203297" width="15.135" height="2.257" transform="translate(249.287 234.387) rotate(-49.291)" fill="#799598"/>
      <rect id="Rectángulo_203298" data-name="Rectángulo 203298" width="15.135" height="2.257" transform="translate(245.329 230.981) rotate(-49.291)" fill="#799598"/>
      <rect id="Rectángulo_203299" data-name="Rectángulo 203299" width="5.444" height="2.257" transform="translate(247.692 220.229) rotate(-49.291)" fill="#799598"/>
      <rect id="Rectángulo_203300" data-name="Rectángulo 203300" width="5.443" height="2.257" transform="translate(241.371 227.575) rotate(-49.285)" fill="#799598"/>
      <rect id="Rectángulo_203301" data-name="Rectángulo 203301" width="5.443" height="2.257" transform="translate(243.734 216.823) rotate(-49.286)" fill="#799598"/>
      <rect id="Rectángulo_203302" data-name="Rectángulo 203302" width="5.443" height="2.257" transform="translate(237.412 224.169) rotate(-49.285)" fill="#799598"/>
      <rect id="Rectángulo_203303" data-name="Rectángulo 203303" width="5.443" height="2.257" transform="translate(239.775 213.417) rotate(-49.286)" fill="#799598"/>
      <rect id="Rectángulo_203304" data-name="Rectángulo 203304" width="5.443" height="2.257" transform="translate(233.454 220.763) rotate(-49.285)" fill="#799598"/>
      <rect id="Rectángulo_203305" data-name="Rectángulo 203305" width="5.444" height="2.257" transform="translate(235.817 210.011) rotate(-49.291)" fill="#799598"/>
      <rect id="Rectángulo_203306" data-name="Rectángulo 203306" width="5.443" height="2.257" transform="translate(229.496 217.357) rotate(-49.285)" fill="#799598"/>
      <path id="Trazado_275799" data-name="Trazado 275799" d="M406.942,95.126a1.712,1.712,0,0,0-2.67-.5,1.484,1.484,0,0,0-1.481-.549,2.337,2.337,0,0,0-3.975-2.049,3.566,3.566,0,0,0-5.745,1.535,2.8,2.8,0,0,0-3.381.474,2.334,2.334,0,0,0-4.125.883,2.2,2.2,0,0,0-.6-.065,2.088,2.088,0,0,0-.25.037,2.212,2.212,0,0,0-4.237.384,1.818,1.818,0,0,0-.565-.071,1.841,1.841,0,0,0-1.075.411.979.979,0,0,0-.647-.21.989.989,0,0,0-.943,1.031,1.038,1.038,0,0,0,.023.151.781.781,0,0,0-.14-.021.864.864,0,1,0,.9.824c0-.013-.008-.024-.009-.037a1.033,1.033,0,0,0,.155.02,1.846,1.846,0,0,0,3.548.336,2.2,2.2,0,0,0,1.026.211,2.235,2.235,0,0,0,.25-.037,2.213,2.213,0,0,0,3.692.7,1.97,1.97,0,0,0,3.256-.09,1.847,1.847,0,0,0,2.656,1.552,2.327,2.327,0,0,0,3.621-.72,2.807,2.807,0,0,0,4.392.7,2.683,2.683,0,0,0,1.656.484c.032,0,.063-.011.095-.013a2.335,2.335,0,0,0,3.848.464,2.952,2.952,0,1,0,.723-5.83" transform="translate(-111.641 -27.036)" fill="#999"/>
      <path id="Trazado_275800" data-name="Trazado 275800" d="M398.566,110.476a1.763,1.763,0,0,0-1.739-.885,1.74,1.74,0,0,0-.845.343,1.639,1.639,0,0,0-2.548.09,2.216,2.216,0,0,0-.405-.07,1.6,1.6,0,0,0,.007-.4,1.646,1.646,0,0,0-1.824-1.446,1.629,1.629,0,0,1-2.6-1,1.63,1.63,0,0,1-2.493-.067,1.638,1.638,0,0,0-1.334,1.032,1.217,1.217,0,0,0-.215-.014,10.914,10.914,0,0,1-2.251-.105.941.941,0,1,0,1.011,1.2c.032.011.063.023.1.031a1.063,1.063,0,0,0,0,.183,1.175,1.175,0,0,0,1.3,1.032,1.163,1.163,0,0,0,.693-.34,1.6,1.6,0,0,0,1.426.172,1.408,1.408,0,0,0,1.547,1.165,1.33,1.33,0,0,0,.159-.035,1.408,1.408,0,0,0,1.48.91,1.388,1.388,0,0,0,.606-.224,2.2,2.2,0,0,0,.006.39,2.234,2.234,0,0,0,2.475,1.962,2.258,2.258,0,0,0,.369-.081,2.184,2.184,0,0,0,2.8.767,2.93,2.93,0,1,0,2.27-4.607" transform="translate(-113.179 -31.754)" fill="#999"/>
      <path id="Trazado_275801" data-name="Trazado 275801" d="M400.264,74.912a3.67,3.67,0,0,0-1.55.376,4.9,4.9,0,0,0-9.043,1.546,3.967,3.967,0,0,0-1.957-.477c-.085,0-.168.011-.252.018a3.053,3.053,0,0,0-5.5-.152,3.421,3.421,0,0,0-.693-.06A3.365,3.365,0,0,0,378,79.082a2.4,2.4,0,0,0-2.982,1.727,2.744,2.744,0,0,0-4.039,3.507,1.533,1.533,0,1,0,1.566,1.506,1.421,1.421,0,0,0-.02-.174,2.727,2.727,0,0,0,.94.158,2.76,2.76,0,0,0,2.666-2.257,2.431,2.431,0,0,0,3.486-1.12,3.323,3.323,0,0,0,4.377-.85,3.984,3.984,0,0,0,7.54.107,4.886,4.886,0,0,0,6.333-.364,3.678,3.678,0,1,0,2.4-6.409" transform="translate(-109.616 -21.618)" fill="#999"/>
      <rect id="Rectángulo_203307" data-name="Rectángulo 203307" width="24.813" height="2.757" transform="translate(239.794 78.303) rotate(-35.888)" fill="#604730"/>
      <rect id="Rectángulo_203308" data-name="Rectángulo 203308" width="24.813" height="2.757" transform="translate(244.138 84.306) rotate(-35.888)" fill="#604730"/>
      <rect id="Rectángulo_203309" data-name="Rectángulo 203309" width="24.813" height="2.757" transform="translate(248.481 90.309) rotate(-35.888)" fill="#604730"/>
      <path id="Trazado_275802" data-name="Trazado 275802" d="M346.819,123.163l5.305-3.838-3.232-4.468-5.305,3.838-1.111-1.535,5.3-3.838-3.232-4.468-5.3,3.838-1.111-1.535,5.305-3.838-3.232-4.468L334.9,106.69l-1.515-2.094-14.8,10.707,16.767,23.174,14.8-10.707Z" transform="translate(-94.518 -30.514)" fill="#874f17"/>
      <rect id="Rectángulo_203310" data-name="Rectángulo 203310" width="4.107" height="2.528" transform="translate(233.134 81.778) rotate(-35.888)" fill="#f5e782"/>
      <rect id="Rectángulo_203311" data-name="Rectángulo 203311" width="4.107" height="2.528" transform="translate(235.534 85.152) rotate(-35.888)" fill="#f5e782"/>
      <rect id="Rectángulo_203312" data-name="Rectángulo 203312" width="4.107" height="2.528" transform="translate(237.933 88.527) rotate(-35.888)" fill="#f5e782"/>
      <rect id="Rectángulo_203313" data-name="Rectángulo 203313" width="4.107" height="2.528" transform="translate(240.332 91.901) rotate(-35.888)" fill="#f5e782"/>
      <rect id="Rectángulo_203314" data-name="Rectángulo 203314" width="4.107" height="2.528" transform="translate(242.732 95.276) rotate(-35.888)" fill="#f5e782"/>
      <rect id="Rectángulo_203315" data-name="Rectángulo 203315" width="4.107" height="2.528" transform="translate(245.131 98.65) rotate(-35.888)" fill="#f5e782"/>
      <rect id="Rectángulo_203316" data-name="Rectángulo 203316" width="34.852" height="21.587" transform="translate(244.838 128.316) rotate(-8.52)" fill="#8aa3a5"/>
      <rect id="Rectángulo_203317" data-name="Rectángulo 203317" width="4.369" height="8.932" transform="translate(281.928 133.15) rotate(-8.522)" fill="#8aa3a5"/>
      <rect id="Rectángulo_203318" data-name="Rectángulo 203318" width="3.252" height="1.769" transform="translate(281.671 134.245) rotate(-8.53)" fill="#4f7477"/>
      <rect id="Rectángulo_203319" data-name="Rectángulo 203319" width="1.176" height="21.929" transform="translate(279.217 122.993) rotate(-8.521)" fill="#4f7477"/>
      <rect id="Rectángulo_203320" data-name="Rectángulo 203320" width="2.713" height="5.134" transform="translate(274.723 126.557) rotate(-8.517)" fill="#4f7477"/>
      <rect id="Rectángulo_203321" data-name="Rectángulo 203321" width="2.713" height="5.134" transform="translate(276.345 137.389) rotate(-8.524)" fill="#4f7477"/>
      <rect id="Rectángulo_203322" data-name="Rectángulo 203322" width="2.713" height="5.134" transform="translate(268.552 127.481) rotate(-8.517)" fill="#4f7477"/>
      <rect id="Rectángulo_203323" data-name="Rectángulo 203323" width="2.713" height="5.134" transform="translate(270.174 138.313) rotate(-8.524)" fill="#4f7477"/>
      <rect id="Rectángulo_203324" data-name="Rectángulo 203324" width="2.737" height="5.179" transform="translate(262.384 128.429) rotate(-8.52)" fill="#4f7477"/>
      <rect id="Rectángulo_203325" data-name="Rectángulo 203325" width="2.737" height="5.179" transform="translate(264.021 139.358) rotate(-8.52)" fill="#4f7477"/>
      <rect id="Rectángulo_203326" data-name="Rectángulo 203326" width="2.713" height="5.134" transform="translate(256.21 129.331) rotate(-8.524)" fill="#4f7477"/>
      <rect id="Rectángulo_203327" data-name="Rectángulo 203327" width="2.713" height="5.134" transform="translate(257.832 140.162) rotate(-8.524)" fill="#4f7477"/>
      <rect id="Rectángulo_203328" data-name="Rectángulo 203328" width="2.713" height="5.134" transform="translate(250.039 130.255) rotate(-8.524)" fill="#4f7477"/>
      <rect id="Rectángulo_203329" data-name="Rectángulo 203329" width="2.713" height="5.134" transform="translate(251.662 141.086) rotate(-8.517)" fill="#4f7477"/>
      <rect id="Rectángulo_203330" data-name="Rectángulo 203330" width="0.76" height="9.331" transform="translate(285.983 132.341) rotate(-8.522)" fill="#4f7477"/>
      <rect id="Rectángulo_203331" data-name="Rectángulo 203331" width="49.361" height="21.709" transform="matrix(0.949, -0.317, 0.317, 0.949, 238.806, 108.526)" fill="#799598"/>
      <path id="Trazado_275803" data-name="Trazado 275803" d="M402.8,152.977l-.614-1.838,3.677-1.227.614,1.838Zm-1.227-3.677-.614-1.838,3.677-1.227.614,1.838Zm-1.228-3.677-.613-1.838,3.677-1.227.613,1.838Zm-1.227-3.677-.614-1.838,3.677-1.227.614,1.838Z" transform="translate(-118.228 -41.203)" fill="#4f7477"/>
      <path id="Trazado_275804" data-name="Trazado 275804" d="M391.126,156.875l-.614-1.839,3.677-1.227.614,1.838ZM389.9,153.2l-.614-1.838,3.677-1.227.614,1.838Zm-1.228-3.677-.613-1.838,3.677-1.227.613,1.838Zm-1.227-3.677-.614-1.838,3.677-1.227.614,1.838Z" transform="translate(-114.764 -42.359)" fill="#4f7477"/>
      <path id="Trazado_275805" data-name="Trazado 275805" d="M379.45,160.773l-.614-1.838,3.677-1.227.614,1.839Zm-1.227-3.677-.614-1.838,3.677-1.227.614,1.838Zm-1.228-3.677-.613-1.838,3.677-1.227.613,1.838Zm-1.227-3.677-.614-1.838,3.677-1.227.614,1.838Z" transform="translate(-111.3 -43.516)" fill="#4f7477"/>
      <path id="Trazado_275806" data-name="Trazado 275806" d="M367.773,164.671l-.614-1.838,3.677-1.227.614,1.838Zm-1.227-3.677-.614-1.839,3.677-1.227.614,1.838Zm-1.228-3.677-.613-1.838,3.677-1.227.613,1.838Zm-1.227-3.677-.614-1.838,3.677-1.227.614,1.838Z" transform="translate(-107.835 -44.672)" fill="#4f7477"/>
      <path id="Trazado_275807" data-name="Trazado 275807" d="M356.1,168.569l-.614-1.838,3.677-1.227.614,1.838Zm-1.227-3.677-.614-1.838,3.677-1.227.614,1.839Zm-1.228-3.677-.613-1.838,3.677-1.227.613,1.838Zm-1.227-3.677L351.8,155.7l3.677-1.227.614,1.838Z" transform="translate(-104.371 -45.828)" fill="#4f7477"/>
      <rect id="Rectángulo_203332" data-name="Rectángulo 203332" width="3.489" height="12.534" transform="translate(286.221 94.673) rotate(-18.46)" fill="#4f7477"/>
      <path id="Trazado_275808" data-name="Trazado 275808" d="M413.98,139.485l-1.227-3.677,3.064-1.023s.5.155,1,1.644c.533,1.58.224,2.033.224,2.033Z" transform="translate(-122.455 -39.988)" fill="#799598"/>
      <rect id="Rectángulo_203333" data-name="Rectángulo 203333" width="2.326" height="3.968" transform="matrix(0.949, -0.317, 0.317, 0.949, 292.109, 101.289)" fill="#799598"/>
      <path id="Trazado_275809" data-name="Trazado 275809" d="M417.335,145.594a.877.877,0,1,1,.554-1.109.877.877,0,0,1-.554,1.109" transform="translate(-123.472 -42.688)" fill="#4f7477"/>
      <rect id="Rectángulo_203334" data-name="Rectángulo 203334" width="1.378" height="1.127" transform="translate(293.402 103.501) rotate(-18.481)" fill="#4f7477"/>
      <path id="Trazado_275810" data-name="Trazado 275810" d="M75.593,68.064l12.19,64.348L139.7,81.469Z" transform="translate(-22.427 -20.193)" fill="#5e8083"/>
      <path id="Trazado_275811" data-name="Trazado 275811" d="M87.3,80l6.143.478-.362-6.151,6.143.478-.107-1.817-23.525-4.92,4.474,23.615,1.815.141-.362-6.151,6.143.478Z" transform="translate(-22.427 -20.193)" fill="#fff"/>
      <path id="Trazado_275812" data-name="Trazado 275812" d="M96.754,115.882l-3.288,4.138s-6.958-5.727-17.176-14.439C66.943,97.611,59.2,90.724,59.2,90.724l1.272-1.6s8.409,6.053,18.331,13.293c12.245,8.934,17.949,13.466,17.949,13.466" transform="translate(-17.564 -26.441)" fill="#849da0"/>
      <path id="Trazado_275813" data-name="Trazado 275813" d="M90.889,117.306c7.307,6.179,11.978,10.025,11.978,10.025l3.288-4.138s-3.99-3.17-12.452-9.429Z" transform="translate(-26.965 -33.751)" fill="#a7b9bb"/>
      <path id="Trazado_275814" data-name="Trazado 275814" d="M60.054,87.321l-2.46,3.1a1.661,1.661,0,0,1-2.333.267l-3.2-3.653A2.368,2.368,0,0,1,51.991,84l.544-.684a2.368,2.368,0,0,1,2.972-.615l4.28,2.29a1.66,1.66,0,0,1,.267,2.333" transform="translate(-15.272 -24.451)" fill="#fff"/>
      <path id="Trazado_275815" data-name="Trazado 275815" d="M46.586,86.859A66.267,66.267,0,0,1,35.164,86.5a32.031,32.031,0,0,1-10.359-2.784s-.222-.162.972-.58,9.129-.919,11.729-.1a44.84,44.84,0,0,1,5.6,2.212,16.726,16.726,0,0,0,3.509.6Z" transform="translate(-7.354 -24.505)" fill="#14afde"/>
      <path id="Trazado_275816" data-name="Trazado 275816" d="M56.437,89.578A66.366,66.366,0,0,1,56.077,101a32.009,32.009,0,0,1-2.784,10.359s-.162.221-.58-.972-.918-9.129-.095-11.729a44.756,44.756,0,0,1,2.211-5.6,16.679,16.679,0,0,0,.6-3.509Z" transform="translate(-15.48 -26.568)" fill="#14afde"/>
      <path id="Trazado_275817" data-name="Trazado 275817" d="M59.156,87.093a66.317,66.317,0,0,1,11.422.36,32.031,32.031,0,0,1,10.359,2.784s.222.162-.972.58-9.129.918-11.729.1a44.841,44.841,0,0,1-5.6-2.212,16.726,16.726,0,0,0-3.509-.6Z" transform="translate(-17.542 -25.809)" fill="#14afde"/>
      <path id="Trazado_275818" data-name="Trazado 275818" d="M56.671,77.008a66.316,66.316,0,0,1,.36-11.422,32.031,32.031,0,0,1,2.784-10.359s.162-.222.58.972.918,9.129.1,11.729a44.839,44.839,0,0,1-2.212,5.6,16.726,16.726,0,0,0-.6,3.509Z" transform="translate(-16.784 -16.38)" fill="#14afde"/>
      <path id="Trazado_275819" data-name="Trazado 275819" d="M56.752,84.446a2.53,2.53,0,1,1-2.923,2.064,2.53,2.53,0,0,1,2.923-2.064" transform="translate(-15.959 -25.042)" fill="#a7b9bb"/>
      <path id="Trazado_275820" data-name="Trazado 275820" d="M275.117,172.559a97.058,97.058,0,1,0-97.058,97.058,97.059,97.059,0,0,0,97.058-97.058" transform="translate(-24.031 -22.399)" fill="#0490ba"/>
      <path id="Trazado_275821" data-name="Trazado 275821" d="M172.548,83.96a40.141,40.141,0,0,1-5.9-7.483l-.011-.021a97.06,97.06,0,0,0-66.9,153.71,47.277,47.277,0,0,0,3.477-7.521c1.018-2.837,1.737-6.089.369-8.775-1.824-3.581-6.668-4.805-8.492-8.387-1.709-3.357-.053-7.559,2.569-10.264a8.262,8.262,0,0,1,3.593-2.359c6.623-1.841,11.614,8.828,18.362,7.519,3.774-.732,5.834-5.236,5.183-9.025s-3.247-6.924-5.9-9.705-5.535-5.515-7.018-9.061a13.936,13.936,0,0,1,1.764-13.58c4.5-5.871,12.688-7.084,20.007-8.162s15.57-3.15,19.015-9.7c3.017-5.735,1.566-13.74,6.434-18.018,3.747-3.292,9.422-2.671,14.178-4.17a16.447,16.447,0,0,0,10.8-18.262c-1.346-6.744-6.772-11.774-11.532-16.737" transform="translate(-24.031 -22.683)" fill="#8fc027"/>
      <path id="Trazado_275822" data-name="Trazado 275822" d="M220.684,247.723c-7.516-6.572-19.978-4.415-27.5-10.976-7.607-6.632-5.121-15.787-10.829-24.111-3.094-4.512-8.463-7.692-13.907-7.156s-10.413,5.437-10.086,10.9c.308,5.142,3.217,6.542,2.383,11.625-.689,4.2-4.7,6.884-8.29,9.154s-7.5,5.233-7.779,9.475c-.256,3.938,2.785,7.356,3.315,11.266.743,5.482-3.434,10.235-6.933,14.519-3.526,4.319-6.71,9.322-7.927,14.66a96.642,96.642,0,0,0,60.4,21.083c1.013,0,2.022-.021,3.028-.051a19.258,19.258,0,0,1-1.23-7.306c.407-8.924,8.268-15.431,15.408-20.8s14.91-12.076,15-21.008a14.988,14.988,0,0,0-5.048-11.275" transform="translate(-39.496 -60.944)" fill="#8fc027"/>
      <path id="Trazado_275823" data-name="Trazado 275823" d="M267.065,88.407l-.1-.056q-1.258-.723-2.539-1.41l-.151-.079q-2.626-1.4-5.347-2.643l-.2-.09q-1.34-.608-2.7-1.176l-.179-.074q-1.306-.541-2.63-1.047l-.2-.077q-1.259-.475-2.534-.914c-.238-.082-.475-.163-.713-.243-.169-.057-.336-.117-.511-.166a96.932,96.932,0,0,0-30.59-4.93c-.258,0-.515.008-.773.009.229.279.456.546.667.795,5.78,6.8,14.887,9.153,22.879,12.328a3.454,3.454,0,0,1,2.762,4.216c-.2,5.824.331,11.117,3.342,16.238,1.847,3.142,4.446,6.18,4.423,9.825-.024,3.842-3.012,7.021-6.2,9.17-3.688,2.49-7.879,4.185-11.468,6.816s-6.653,6.589-6.547,11.037c.15,6.312,6.47,10.755,12.582,12.34s12.687,1.447,18.467,3.986c2.473,1.086,4.851,2.784,5.88,5.281,1.851,4.489-1.217,9.764.215,14.4,2.481,8.035,15.46,7.71,19.237,15.223,3.816,7.592-4.392,17.933.667,24.76,1.159,1.564,2.9,2.675,3.837,4.381,1.464,2.661.568,6.053-1.087,8.6s-3.986,4.588-5.719,7.082a18.162,18.162,0,0,0-2.8,6.527A97.058,97.058,0,0,0,267.065,88.407" transform="translate(-64.646 -22.399)" fill="#c7a36d"/>
      <path id="Trazado_275824" data-name="Trazado 275824" d="M226.914,69.3l.12,6.191,2.1-.091L229,68.668c-.7.194-1.4.4-2.091.634" transform="translate(-67.32 -20.372)" fill="#b66f20"/>
      <path id="Trazado_275825" data-name="Trazado 275825" d="M234.228,65.9l-.948,8.2,2.089.5,1.042-9.262c-.73.167-1.459.342-2.182.568" transform="translate(-69.209 -19.382)" fill="#b66f20"/>
      <path id="Trazado_275826" data-name="Trazado 275826" d="M243.13,71.464l-1.6,5.379,2.033.549,1.271-4.235a16.628,16.628,0,0,1-1.7-1.692" transform="translate(-71.655 -21.202)" fill="#b66f20"/>
      <path id="Trazado_275827" data-name="Trazado 275827" d="M252.124,73.024l-1.814,6.21,2.044.5L254.1,73.75c-.685-.217-1.347-.456-1.978-.726" transform="translate(-74.261 -21.665)" fill="#b66f20"/>
      <path id="Trazado_275828" data-name="Trazado 275828" d="M213.167,44.4l-1.608,1.354,11.012,13.078c.439-.553.9-1.094,1.373-1.632Z" transform="translate(-62.765 -13.173)" fill="#b66f20"/>
      <path id="Trazado_275829" data-name="Trazado 275829" d="M209.322,26.864a4.608,4.608,0,0,0-8.37-3.018,6.11,6.11,0,0,0-8.385,7.6,5.569,5.569,0,0,0-.716.5,5.622,5.622,0,0,0,4.938,9.768,3.6,3.6,0,0,0,6.742,1.8,5.237,5.237,0,0,0,8.023-6.72,5.13,5.13,0,0,0-2.232-9.929" transform="translate(-56.324 -6.493)" fill="#18672e"/>
      <path id="Trazado_275830" data-name="Trazado 275830" d="M274.483,21.158a6.046,6.046,0,0,0-7.114-5.615c0-.127,0-.252,0-.38a10.119,10.119,0,0,0-19.3-3.6,8.076,8.076,0,0,0-9.811,8.387c0,.043.011.084.014.127l35.932,3.31a6.041,6.041,0,0,0,.286-2.225" transform="translate(-70.679 -1.675)" fill="#333"/>
      <path id="Trazado_275831" data-name="Trazado 275831" d="M432.536,176.88a5.332,5.332,0,0,0-2.339-6.6,5.8,5.8,0,0,0,.191-2.6,7.867,7.867,0,0,0-9.61-12.457l5.944,24.957a5.334,5.334,0,0,0,5.813-3.307" transform="translate(-124.836 -45.588)" fill="#333"/>
      <path id="Trazado_275832" data-name="Trazado 275832" d="M413.046,243.235a3.522,3.522,0,0,0-6.189-2.1,1.656,1.656,0,0,0-2.579,1.319c-.068,0-.134-.013-.2-.009a2.575,2.575,0,0,0-.89.222,1.91,1.91,0,0,0-2.739-.713,2.349,2.349,0,0,0-3.815-.741,1.973,1.973,0,0,0-2.446.1,1.925,1.925,0,0,0-.234-.134,1.919,1.919,0,0,0,.35-1.212,1.939,1.939,0,0,0-2.047-1.826,1.837,1.837,0,0,0-.259.041,1.359,1.359,0,0,0-1.319-.952,1.188,1.188,0,0,0,.006-.151,1.149,1.149,0,1,0-1.309,1.2,1.343,1.343,0,0,0-.039.385,1.363,1.363,0,0,0,1.106,1.258,1.9,1.9,0,0,0-.011.262,1.932,1.932,0,0,0,1.087,1.624,1.917,1.917,0,0,0-.35,1.212,1.939,1.939,0,0,0,3.111,1.432,2,2,0,0,0,1.31.4c.044,0,.084-.015.127-.02a1.917,1.917,0,0,0-.03.447,3.937,3.937,0,0,0,5.513,1.943,1.943,1.943,0,0,0,1.175,1,2.592,2.592,0,0,0,4.5,1.493,3.326,3.326,0,0,0,5.314-3.977,3.51,3.51,0,0,0,.857-2.506" transform="translate(-115.225 -70.014)" fill="#6e6e6e"/>
      <path id="Trazado_275833" data-name="Trazado 275833" d="M400.054,298.054a3.9,3.9,0,0,0-3.494-2.014,3.077,3.077,0,0,0-.177-.414,3.128,3.128,0,0,0-1.155-1.177,3.313,3.313,0,0,0-2.9-3.695,3.305,3.305,0,0,0-2.692-.507,2.569,2.569,0,0,0-2.859-1.353,2.677,2.677,0,0,0,.02-.465,2.718,2.718,0,0,0-2.345-2.537,2.433,2.433,0,0,0-2.322-1.354,2.407,2.407,0,0,0-1.53.674,1.4,1.4,0,0,0-1.514-.055,6.63,6.63,0,0,1-4.539-.329,1.839,1.839,0,0,0-.576.136c0-.034.006-.068,0-.1a1.145,1.145,0,1,0-1.078,1.208h0a4.188,4.188,0,0,0,5.9,1.337c.02.02.039.043.06.062a1.841,1.841,0,0,0-.23,1,1.856,1.856,0,0,0,3.026,1.337,2.714,2.714,0,0,0,.806.948,1.979,1.979,0,0,0,2.614,2.411,2.717,2.717,0,0,0,.729.68,2.407,2.407,0,0,0-.208,1.108,2.366,2.366,0,0,0,.137.646,3.068,3.068,0,0,0,.423,3.892,3.877,3.877,0,0,0,.359,2.849c.061.111.127.217.2.319a4.455,4.455,0,1,0,7.334,4.731,3.684,3.684,0,0,0,4.363-3.983c.037-.019.075-.034.112-.055a3.9,3.9,0,0,0,1.532-5.3" transform="translate(-110.273 -84.192)" fill="#6e6e6e"/>
      <path id="Trazado_275834" data-name="Trazado 275834" d="M407.269,270.32a4.131,4.131,0,0,0-2.423-4.287,4.072,4.072,0,0,0-.644-.22,3.49,3.49,0,0,0-3.728-1.952,2.911,2.911,0,0,0-1.143-.921,2.941,2.941,0,0,0-3.406.76,2.409,2.409,0,0,0-3.118-.169,1.615,1.615,0,0,0-2.172.035,1.434,1.434,0,0,0-1.221.081,1.957,1.957,0,0,0-1.993-1.419,1.936,1.936,0,0,0-1.249.558,1.141,1.141,0,0,0-1.134-.75,1.163,1.163,0,0,0-.206.033,1.3,1.3,0,0,0-1.731-.551,1.139,1.139,0,0,0-.964-.459c0-.027,0-.053,0-.079a1.006,1.006,0,1,0-1.087,1.055,1.192,1.192,0,0,0-.01.23,1.144,1.144,0,0,0,1.206,1.076,1.16,1.16,0,0,0,.277-.054,1.3,1.3,0,0,0,.779.645,1.437,1.437,0,0,0-.021.331,1.469,1.469,0,0,0,1.551,1.383l.016,0a1.382,1.382,0,0,0,2.542.486,1.934,1.934,0,0,0,.241.01,1.3,1.3,0,0,0,.976.805,1.966,1.966,0,0,0-.008.2,2.033,2.033,0,0,0,3.209,1.548,1.345,1.345,0,0,0,1.52.511,2.4,2.4,0,0,0-.09.768,2.426,2.426,0,0,0,2.353,2.282c.008,0,.015.01.025.013a2.916,2.916,0,0,0,1.288.243,4.129,4.129,0,0,0,6.645,4.042,3.692,3.692,0,0,0,3.716-6.234" transform="translate(-112.777 -77.145)" fill="#6e6e6e"/>
      <path id="Trazado_275835" data-name="Trazado 275835" d="M383.2,235.58l.6-1.686-12.222-5.119-1.1,3.119Z" transform="translate(-109.91 -67.872)" fill="#4d3118"/>
      <path id="Trazado_275836" data-name="Trazado 275836" d="M374.777,259.44l.6-1.686-12.222-5.119-1.1,3.119Z" transform="translate(-107.412 -74.951)" fill="#4d3118"/>
      <path id="Trazado_275837" data-name="Trazado 275837" d="M366.356,283.3l.595-1.686L354.729,276.5l-1.1,3.119Z" transform="translate(-104.914 -82.03)" fill="#4d3118"/>
      <path id="Trazado_275838" data-name="Trazado 275838" d="M348.1,257.292l4.093,1.444,1.83-18.226,4.092,1.445,1.925-19.168-12.734-4.7L329.235,269.3l17.037,6.217Z" transform="translate(-97.677 -64.702)" fill="#874f17"/>
      <path id="Trazado_275839" data-name="Trazado 275839" d="M356.843,238.379l.471-1.336,2.227.786-.471,1.337Zm.629-1.782.471-1.336,2.228.786-.472,1.336Zm.629-1.782.472-1.336,2.227.786-.472,1.336Zm.629-1.782.472-1.336,2.227.786-.471,1.336Zm.629-1.782.472-1.337,2.227.786-.471,1.336Zm.629-1.782.471-1.337,2.228.786-.472,1.337Zm.629-1.782.471-1.337,2.228.786-.472,1.337Zm.629-1.782.472-1.336,2.227.786-.472,1.337Z" transform="translate(-105.867 -66.624)" fill="#f5e782"/>
      <path id="Trazado_275840" data-name="Trazado 275840" d="M348.422,262.24l.471-1.336,2.227.786-.471,1.337Zm.629-1.782.471-1.336,2.228.786-.472,1.336Zm.629-1.782.472-1.336,2.227.786-.472,1.336Zm.629-1.781.472-1.337,2.227.786-.471,1.336Zm.629-1.782.472-1.337,2.227.786-.471,1.336Zm.629-1.782.471-1.337,2.228.786-.472,1.337Zm.629-1.782.471-1.337,2.228.786-.472,1.337Zm.629-1.782.472-1.336,2.227.786-.472,1.337Z" transform="translate(-103.369 -73.703)" fill="#f5e782"/>
      <path id="Trazado_275841" data-name="Trazado 275841" d="M340,286.1l.471-1.336,2.227.786-.471,1.337Zm.629-1.781.471-1.336,2.228.786-.472,1.336Zm.629-1.782.472-1.336,2.227.786-.472,1.337Zm.629-1.782.472-1.337,2.227.787-.471,1.336Zm.629-1.782.472-1.337,2.227.786-.471,1.337Zm.629-1.783.471-1.336,2.228.786-.472,1.336Zm.629-1.782.471-1.337,2.228.786L346,276.194Zm.629-1.783.472-1.336,2.227.786-.472,1.337Z" transform="translate(-100.871 -80.782)" fill="#f5e782"/>
      <path id="Trazado_275842" data-name="Trazado 275842" d="M383.083,36.961a6.486,6.486,0,0,0-1.99.477,3.717,3.717,0,0,0-6.6,1.07,4.459,4.459,0,0,0-7.137,2.868,4.711,4.711,0,0,0-8.137,4.367,3.424,3.424,0,0,0-1.863.483,3.967,3.967,0,0,0-6.954,2.9c.007.088.02.174.032.26-.087,0-.174,0-.262.006a3.224,3.224,0,0,0-2.972,2.99,1.626,1.626,0,0,0-.287-.007,1.737,1.737,0,1,0,1.513,2.771,3.222,3.222,0,0,0,5.211-2.418,3.924,3.924,0,0,0,3.256-.845,3.462,3.462,0,0,0,4.309.11,4.953,4.953,0,0,0,7.794-1.531,3.7,3.7,0,0,0,1.984-.81,5.451,5.451,0,0,0,8.856-.992,6.452,6.452,0,1,0,3.249-11.7" transform="translate(-102.444 -10.638)" fill="#6e6e6e"/>
      <path id="Trazado_275843" data-name="Trazado 275843" d="M353.928,13.477a4.9,4.9,0,0,0-9.749-.293,5.764,5.764,0,0,0-6.317,5.013,4.9,4.9,0,0,0-3.321,5.008c.007.1.023.191.036.286a3.91,3.91,0,0,0-.686-.013A3.79,3.79,0,0,0,330.811,29a3.573,3.573,0,0,0-2.151,2.381,2.9,2.9,0,0,0-2.455,5.1,1.787,1.787,0,1,0,2.708.465,2.9,2.9,0,0,0,1.643-1.4,3.559,3.559,0,0,0,5.1-3.331,4.45,4.45,0,0,0,6.419-5.245,4.924,4.924,0,0,0,1.278-1.195,5.346,5.346,0,0,0,7.6-7.418,4.9,4.9,0,0,0,2.976-4.879" transform="translate(-96.448 -2.652)" fill="#6e6e6e"/>
      <path id="Trazado_275844" data-name="Trazado 275844" d="M321.483,6.646a4.742,4.742,0,1,0-8.478.4c-.081,0-.162,0-.244.006a2.761,2.761,0,0,0-1.869,4.579,4.068,4.068,0,0,0-.356.322,2.76,2.76,0,0,0-3.172,4.022,3.348,3.348,0,0,0-.616,4.577,2.369,2.369,0,0,0-.148,4.171,1.776,1.776,0,1,0,2.007.179,2.36,2.36,0,0,0,1.426-3,3.357,3.357,0,0,0,2.793-3.249,3.949,3.949,0,0,0,4.462-3.831,4.739,4.739,0,0,0,4.2-8.172" transform="translate(-90.613 0)" fill="#6e6e6e"/>
      <path id="Trazado_275845" data-name="Trazado 275845" d="M331.908,127.816c-.367.333-.33.91-.5,1.377a2.47,2.47,0,0,1-1.445,1.306,17.8,17.8,0,0,0-1.86.743c-.12.068-.25.165-.255.3a.444.444,0,0,0,.148.29l3.489,3.923a6.542,6.542,0,0,0,1.823-3.36,1.364,1.364,0,0,1,.247-.87c.27-.269.732-.2,1.059-.4.414-.251.47-.814.556-1.291a4.719,4.719,0,0,1,.953-2.1,1.538,1.538,0,0,0-1.763-2.443c-.868.415-.369,1.1-.781,1.73-.383.582-1.188.35-1.67.788" transform="translate(-97.266 -37.122)" fill="#44260c"/>
      <path id="Trazado_275846" data-name="Trazado 275846" d="M337.277,123.256l-2.628-2.7a2.531,2.531,0,0,0-.012-3.642l-4.664-4.218,2.609-2.721,4.664,4.218a6.3,6.3,0,0,1,.031,9.066" transform="translate(-97.895 -32.626)" fill="#4e686d"/>
      <path id="Trazado_275847" data-name="Trazado 275847" d="M336.621,124.995l2.628,2.7a6.259,6.259,0,0,0,1.586-2.532,8.3,8.3,0,0,1-4.172-.222c-.015.016-.026.035-.042.051" transform="translate(-99.868 -37.068)" fill="#474747"/>
      <path id="Trazado_275848" data-name="Trazado 275848" d="M337.765,114.027a16.737,16.737,0,0,1-.952,4.259,2.5,2.5,0,0,1,.632,1.646v.008a6.875,6.875,0,0,0,3.211-2.595,6.292,6.292,0,0,0-1.381-1.953Z" transform="translate(-99.925 -33.829)" fill="#474747"/>
      <path id="Trazado_275849" data-name="Trazado 275849" d="M332.58,109.972l-2.609,2.721,2.35,2.125c.226-1.453.421-2.9.773-4.382Z" transform="translate(-97.895 -32.626)" fill="#474747"/>
      <path id="Trazado_275850" data-name="Trazado 275850" d="M281.885,57.319l17.358-20.971,2.521,1.644L289.7,62.26Z" transform="translate(-83.629 -10.784)" fill="#1c2d2d"/>
      <rect id="Rectángulo_203335" data-name="Rectángulo 203335" width="1.885" height="4.894" transform="translate(214.31 25.839) rotate(-56.886)" fill="#4e686d"/>
      <path id="Trazado_275851" data-name="Trazado 275851" d="M306.074,106.8,261.528,78,272,61.952l44.546,28.795Z" transform="translate(-77.59 -18.38)" fill="#4e686d"/>
      <path id="Trazado_275852" data-name="Trazado 275852" d="M285.2,78.078l-1.58-1.028,1.714-2.633,1.58,1.028Zm-2.106-1.371-1.58-1.028,1.715-2.633,1.58,1.028Zm-2.107-1.371-1.58-1.028,1.715-2.633L282.7,72.7Zm-2.106-1.371-1.58-1.028,1.714-2.633,1.58,1.028Zm-2.106-1.371-1.58-1.028,1.714-2.633,1.58,1.028Z" transform="translate(-81.644 -20.451)" fill="#f5e782"/>
      <path id="Trazado_275853" data-name="Trazado 275853" d="M301.339,69.894,318.7,48.923l2.521,1.644L309.151,74.835Z" transform="translate(-89.401 -14.514)" fill="#1c2d2d"/>
      <rect id="Rectángulo_203336" data-name="Rectángulo 203336" width="1.885" height="4.894" transform="translate(227.992 34.683) rotate(-56.886)" fill="#4e686d"/>
      <path id="Trazado_275854" data-name="Trazado 275854" d="M304.653,90.654l-1.58-1.028,1.714-2.633,1.58,1.028Zm-2.106-1.371-1.58-1.028,1.715-2.633,1.58,1.028Zm-2.106-1.371-1.58-1.028,1.715-2.633,1.58,1.028Zm-2.106-1.371-1.58-1.028,1.714-2.633,1.58,1.028Zm-2.106-1.371-1.58-1.028,1.714-2.633,1.58,1.028Z" transform="translate(-87.416 -24.182)" fill="#f5e782"/>
      <path id="Trazado_275855" data-name="Trazado 275855" d="M320.793,82.469,338.151,61.5l2.521,1.644L328.6,87.411Z" transform="translate(-95.172 -18.245)" fill="#1c2d2d"/>
      <rect id="Rectángulo_203337" data-name="Rectángulo 203337" width="1.885" height="4.894" transform="translate(241.675 43.528) rotate(-56.886)" fill="#4e686d"/>
      <path id="Trazado_275856" data-name="Trazado 275856" d="M324.107,103.229l-1.58-1.028,1.714-2.633,1.58,1.028ZM322,101.858l-1.58-1.028,1.714-2.633,1.58,1.028Zm-2.106-1.371-1.58-1.028,1.715-2.633,1.58,1.028Zm-2.106-1.371-1.58-1.028,1.714-2.633,1.58,1.028Zm-2.106-1.371-1.58-1.028,1.714-2.633,1.58,1.028Z" transform="translate(-93.187 -27.913)" fill="#f5e782"/>
      <rect id="Rectángulo_203338" data-name="Rectángulo 203338" width="15.342" height="2.573" transform="translate(44.78 166.315) rotate(-8.489)" fill="#a7b9bb"/>
      <path id="Trazado_275857" data-name="Trazado 275857" d="M58.888,205.614l6.638,44.51L46.732,247.4l-4.884-32.747Z" transform="translate(-12.416 -61.001)" fill="#4e686d"/>
      <path id="Trazado_275858" data-name="Trazado 275858" d="M50.078,257.163l.7,4.68,7.548.942-.8-5.335Z" transform="translate(-14.857 -76.295)" fill="#eaf8fc"/>
      <path id="Trazado_275859" data-name="Trazado 275859" d="M49.665,254.2l7.438.208-.8-5.335-7.341.447Z" transform="translate(-14.528 -73.895)" fill="#eaf8fc"/>
      <path id="Trazado_275860" data-name="Trazado 275860" d="M62.045,262.962l7.548.942-.9-6.026-7.45-.286Z" transform="translate(-18.17 -76.422)" fill="#bbe8f5"/>
      <path id="Trazado_275861" data-name="Trazado 275861" d="M68.208,254.43l-.9-6.025-7.341.447.8,5.371Z" transform="translate(-17.791 -73.696)" fill="#bbe8f5"/>
      <path id="Trazado_275862" data-name="Trazado 275862" d="M47.776,241.205l.7,4.68,7.322-.578-.8-5.335Z" transform="translate(-14.174 -71.194)" fill="#eaf8fc"/>
      <path id="Trazado_275863" data-name="Trazado 275863" d="M46.665,233.443l.7,4.68,7.213-1.312-.8-5.335Z" transform="translate(-13.844 -68.674)" fill="#eaf8fc"/>
      <path id="Trazado_275864" data-name="Trazado 275864" d="M59.4,244.727l7.322-.578-.9-6.026L58.6,239.356Z" transform="translate(-17.386 -70.646)" fill="#bbe8f5"/>
      <path id="Trazado_275865" data-name="Trazado 275865" d="M58.128,235.865l7.212-1.312-.9-6.025-7.114,1.967Z" transform="translate(-17.008 -67.799)" fill="#bbe8f5"/>
      <path id="Trazado_275866" data-name="Trazado 275866" d="M45.474,225.127l.7,4.68,7.1-2.1-.8-5.335Z" transform="translate(-13.491 -65.973)" fill="#eaf8fc"/>
      <path id="Trazado_275867" data-name="Trazado 275867" d="M51.25,213.878l-6.888,3.487.7,4.68,6.985-2.832Z" transform="translate(-13.161 -63.453)" fill="#eaf8fc"/>
      <path id="Trazado_275868" data-name="Trazado 275868" d="M56.761,226.371l7.094-2.1-.9-6.026-7,2.754Z" transform="translate(-16.602 -64.749)" fill="#bbe8f5"/>
      <path id="Trazado_275869" data-name="Trazado 275869" d="M54.685,212.138l.8,5.371,6.985-2.832-.9-6.025Z" transform="translate(-16.224 -61.902)" fill="#bbe8f5"/>
      <rect id="Rectángulo_203339" data-name="Rectángulo 203339" width="20.63" height="2.041" transform="translate(51.503 195.058) rotate(-20.427)" fill="#b66f20"/>
      <path id="Trazado_275870" data-name="Trazado 275870" d="M57.258,267.332a4.475,4.475,0,0,0-5.5,6.667,5.933,5.933,0,0,0,4.2,10.151,5.355,5.355,0,0,0,.228.82,5.46,5.46,0,0,0,10.547-1.321,3.5,3.5,0,0,0,3.849-5.577,5.086,5.086,0,0,0-3.522-9.533,4.982,4.982,0,0,0-9.809-1.206" transform="translate(-14.834 -78.199)" fill="#18672e"/>
      <rect id="Rectángulo_203340" data-name="Rectángulo 203340" width="2.001" height="20.222" transform="matrix(0.508, -0.861, 0.861, 0.508, 54.306, 95.883)" fill="#b66f20"/>
      <path id="Trazado_275871" data-name="Trazado 275871" d="M71.785,115.883a5.815,5.815,0,0,0-8.6,3.581,4.622,4.622,0,0,0-4.546,8.035,3.119,3.119,0,1,0,2.59,5.651,5.809,5.809,0,0,0,11.206,2.173,5.819,5.819,0,0,0,4.873-9.2,3.164,3.164,0,0,0,.2-.292,3.12,3.12,0,0,0-2.86-4.7,5.823,5.823,0,0,0-2.861-5.253" transform="translate(-16.765 -34.14)" fill="#58a816"/>
      <rect id="Rectángulo_203341" data-name="Rectángulo 203341" width="19.654" height="1.945" transform="matrix(0.327, -0.945, 0.945, 0.327, 119.582, 246.623)" fill="#b66f20"/>
      <path id="Trazado_275872" data-name="Trazado 275872" d="M153.158,350.653a5.651,5.651,0,0,0,5.068,7.5,4.492,4.492,0,0,0,8.528,2.782,3.031,3.031,0,1,0,4.885-3.556,5.646,5.646,0,0,0-.089-11.093,5.656,5.656,0,0,0-9.7-2.87,3.134,3.134,0,0,0-.316-.132,3.031,3.031,0,0,0-3.925,3.63,5.659,5.659,0,0,0-4.453,3.737" transform="translate(-45.346 -101.352)" fill="#58a816"/>
      <rect id="Rectángulo_203342" data-name="Rectángulo 203342" width="2.102" height="21.243" transform="matrix(0.802, -0.598, 0.598, 0.802, 93.335, 54.359)" fill="#b66f20"/>
      <path id="Trazado_275873" data-name="Trazado 275873" d="M131.526,54.877A5.59,5.59,0,0,0,123,54.312a6.11,6.11,0,0,0-9.308,6.43,4.611,4.611,0,0,0,1.028,8.838,5.129,5.129,0,0,0,9.158,4.439,5.237,5.237,0,0,0,8.373-6.278,3.6,3.6,0,0,0-.212-6.975,5.62,5.62,0,0,0-.511-5.89" transform="translate(-32.871 -15.609)" fill="#18672e"/>
      <rect id="Rectángulo_203343" data-name="Rectángulo 203343" width="2.102" height="21.242" transform="matrix(0.922, -0.386, 0.386, 0.922, 110.619, 43.882)" fill="#b66f20"/>
      <path id="Trazado_275874" data-name="Trazado 275874" d="M159.031,44.646a4.608,4.608,0,0,0-7.089-5.377,6.11,6.11,0,0,0-10.269,4.748,5.62,5.62,0,0,0,.966,11.066,3.6,3.6,0,0,0,5.9,3.727,5.237,5.237,0,0,0,9.662-4.022,5.13,5.13,0,0,0,.831-10.143" transform="translate(-40.76 -11.163)" fill="#58a816"/>
      <rect id="Rectángulo_203344" data-name="Rectángulo 203344" width="20.481" height="2.027" transform="matrix(0.511, -0.86, 0.86, 0.511, 106.895, 225.181)" fill="#b66f20"/>
      <path id="Trazado_275875" data-name="Trazado 275875" d="M135.357,318.547a4.449,4.449,0,0,0-1.149,8.13,4.488,4.488,0,0,0,1.051.449,5.89,5.89,0,0,0,9.572,5.229,5.418,5.418,0,0,0,8.019-7.1,3.471,3.471,0,0,0-.5-6.71,5.049,5.049,0,0,0-8.661-5.176,4.946,4.946,0,0,0-8.334,5.177" transform="translate(-39.171 -92.291)" fill="#18672e"/>
      <rect id="Rectángulo_203345" data-name="Rectángulo 203345" width="1.887" height="19.067" transform="matrix(0.059, -0.998, 0.998, 0.059, 61.737, 152.465)" fill="#b66f20"/>
      <path id="Trazado_275876" data-name="Trazado 275876" d="M75.661,201.423a4.136,4.136,0,0,0-7.134,3.59,5.484,5.484,0,0,0-.23,10.152,5.044,5.044,0,0,0,9.3,3.593,3.23,3.23,0,0,0,5.334-3.282,4.7,4.7,0,0,0,.576-9.375,4.6,4.6,0,0,0-7.846-4.677" transform="translate(-19.284 -59.235)" fill="#58a816"/>
      <rect id="Rectángulo_203346" data-name="Rectángulo 203346" width="23.163" height="2.292" transform="translate(56.447 211.52) rotate(-42.102)" fill="#b66f20"/>
      <path id="Trazado_275877" data-name="Trazado 275877" d="M61.081,294.654a5.023,5.023,0,0,0-2.968,9.237,6.662,6.662,0,0,0,8.6,8.846,6.044,6.044,0,0,0,.578.761,6.131,6.131,0,0,0,10.456-5.755,3.925,3.925,0,0,0,1.7-7.416,5.71,5.71,0,0,0-7.63-8.485,5.594,5.594,0,0,0-10.734,2.812" transform="translate(-16.563 -85.545)" fill="#58a816"/>
      <path id="Trazado_275878" data-name="Trazado 275878" d="M158.594,191.589a1.172,1.172,0,1,1-1.172-1.172,1.172,1.172,0,0,1,1.172,1.172" transform="translate(-46.356 -56.493)" fill="#14afde"/>
      <path id="Trazado_275879" data-name="Trazado 275879" d="M154.873,189.146a.645.645,0,1,1-.645-.645.645.645,0,0,1,.645.645" transform="translate(-45.565 -55.924)" fill="#14afde"/>
      <path id="Trazado_275880" data-name="Trazado 275880" d="M186.373,170.979a.645.645,0,1,1-.645-.645.645.645,0,0,1,.645.645" transform="translate(-54.91 -50.534)" fill="#14afde"/>
      <path id="Trazado_275881" data-name="Trazado 275881" d="M190.078,171.382a1.495,1.495,0,1,1,2.1.215,1.495,1.495,0,0,1-2.1-.215" transform="translate(-56.292 -50.122)" fill="#14afde"/>
      <path id="Trazado_275882" data-name="Trazado 275882" d="M155.46,200.439a1.494,1.494,0,1,1,2.1.216,1.494,1.494,0,0,1-2.1-.216" transform="translate(-46.022 -58.743)" fill="#14afde"/>
      <path id="Trazado_275883" data-name="Trazado 275883" d="M164.105,159.287c-1.982.964-3.111,4.356-5.437,4-2.5-.386-3.507-3.4-3.882-5.9q-.492-3.282-.7-6.6a41.267,41.267,0,0,0-.844-7.638,10.3,10.3,0,0,0-4.124-6.281c-2.144-1.356-4.8-1.52-7.338-1.645-3.458-.171-14.771,5.247-21.277.148-2.611-2.046-4.339-8.733-5.216-11.833-.1-.343-.245-1.079-.444-2.1q-1.664,1.857-3.231,3.8c.559,4.868,1.034,8.6,1.268,9.471a27.051,27.051,0,0,0,3.548,8.523,11.2,11.2,0,0,0,7.511,4.97,17.116,17.116,0,0,0,5.991-.689l6.831-1.621c2.373-.563,5.046-1.082,7.111.216,2.185,1.374,2.823,4.275,2.777,6.855-.049,2.792-1.1,5.49-1.99,8.145-.647,1.921-2.048,6.068,1.191,6.6a9.11,9.11,0,0,0,2.054-.127,1.917,1.917,0,0,1,1.824.717c1.517,2.585-5.864,5.626-3.026,8.218,1.1,1,3.887,1.715,8.967-.879,5.6-2.86,7.967-6.6,10.648-10.065,2.5-3.238,2.282-8.471-2.208-6.287" transform="translate(-33.112 -36.029)" fill="#14afde"/>
      <path id="Trazado_275884" data-name="Trazado 275884" d="M306.964,132.071a13.607,13.607,0,0,0-8.2-2.672c-1.4.02-2.971.37-3.713,1.559-.977,1.568,0,3.574.9,5.188a62.762,62.762,0,0,1,4.446,9.9c.55,1.58.584,3.984-1.07,4.236-1.038.158-1.913-.784-2.943-.989-1.592-.317-3,1.234-3.394,2.808-.831,3.341,1.234,6.691,3.507,9.277,3.023,3.439,5.824,7.562,6.841,12.092,1.613,7.185-10.273,1.692-13.367,2.518-2.532.677-5.193,2.277-5.953,4.785-.836,2.761-1.016,5.434-2.487,7.482a3.742,3.742,0,0,1-3.337,1.773c-4.009-.089-7.621-8.664-11.478-5.293-.913.8-1.269,2.074-2.118,2.939-1.7,1.734-4.605,1.21-6.836.248a7.392,7.392,0,0,0-3.459-.942c-1.995.174-3.353,2.1-4.086,3.966-1.452,3.681-1.049,8.8,2.552,10.434,2.8,1.273,6.333-.143,9.036,1.324,2.921,1.585,3.318,5.551,3.253,8.873s.037,7.222,2.742,9.15a7.03,7.03,0,0,0,6.371.476c5.934-2.123,9.09-9.846,6.34-15.517-.689-1.423-1.673-2.692-2.3-4.143a6.752,6.752,0,0,1,.95-6.679c1.618-2.125,4.5-2.712,6.065-4.9,2.3-3.224,1.5-8.59,4.99-10.468,4.187-2.254,9.538,3.383,13.752,1.182,2.01-1.05,2.815-3.488,3.2-5.722s.594-4.643,2.01-6.414a1.494,1.494,0,0,1,.518-.455c.956-.435,1.662.906,2.1,1.858.956,2.059,4.107,3.264,5.463,1.445.827-1.108.544-2.6.487-3.877a5.486,5.486,0,0,1,.144-1.995c.444-1.319,1.333-.375,1.837.345.6.854.906,2.2,2.13,2.281a1.435,1.435,0,0,0,1.005-.307,96.566,96.566,0,0,0-15.9-35.774" transform="translate(-74.002 -38.39)" fill="#44260c"/>
      <path id="Trazado_275885" data-name="Trazado 275885" d="M252.365,237.13a1.889,1.889,0,1,0,1.889,1.889,1.889,1.889,0,0,0-1.889-1.889" transform="translate(-74.311 -70.351)" fill="#44260c"/>
      <path id="Trazado_275886" data-name="Trazado 275886" d="M243.029,211.768a2.162,2.162,0,1,0,2.162,2.162,2.162,2.162,0,0,0-2.162-2.162" transform="translate(-71.46 -62.827)" fill="#44260c"/>
      <path id="Trazado_275887" data-name="Trazado 275887" d="M263.5,237.25a.993.993,0,1,0,.993.993.994.994,0,0,0-.993-.993" transform="translate(-77.88 -70.387)" fill="#44260c"/>
      <path id="Trazado_275888" data-name="Trazado 275888" d="M281.564,263.253a1.892,1.892,0,1,0,1.891,1.892,1.892,1.892,0,0,0-1.891-1.892" transform="translate(-82.973 -78.101)" fill="#44260c"/>
      <path id="Trazado_275889" data-name="Trazado 275889" d="M295.738,254.031a1.081,1.081,0,1,0,1.081,1.081,1.081,1.081,0,0,0-1.081-1.081" transform="translate(-87.418 -75.365)" fill="#44260c"/>
      <path id="Trazado_275890" data-name="Trazado 275890" d="M374.444,225.221l.516-.379a22.482,22.482,0,0,1-1.71-2.572c.037-.312.172-1.63.267-2.559l.923.267.555,1.239.439-.2-.646-1.442-1.221-.355c.026-.254.044-.43.047-.459l.011-.115-3.385-5.107,2.668,1.16,2.931,1.873.826,1.572.975,1.049.35-.328-.914-.973-.674-1.281,2.267.144,1.321,1.719-.568,1.231.025,2.1.48-.006-.024-1.987.418-.9,1.14,1.483,3.169,1.016.2-.61-2.122-.679.659-1.24,1.2-.289-.113-.467-1.408.34-.8,1.507-.392-.125L379,216.138l-2.951-.188-2.841-1.81-3.165-1.381,4.876,1.094,2.616-1.236-.077.141,2.524,1.369,1.438-.279,1.534,1.135.286-.387-1.179-.872,1.721-.334-.122-.629-3.574.693-2.012-1.092,2.815-1.33,4.174.546,2.6-2.368-.432-.474-2.381,2.168-1.906-.25,1.208-2.226-.422-.229-1.3,2.388-1.651-.216-1.628.769.19-1.84-.637-.065-.23,2.225-3.637,1.718-4.135-.928,2.941-.2,5.278-4.772,1.993.072.017-.48L379,206.8l-.193-.828,1.846-2.04,3.014.395.063-.477-3.264-.427-1.792,1.979-.745-3.2,2.794-2.483-.426-.478-3.078,2.736,1.151,4.942-1.293,1.169-.864-.961-.2-2.91-.639.043.211,3.13,1.013,1.127-3.216,2.907-3.083.208,1.281-4.259,1.676-.3.707-1.379-.428-.219-.6,1.168-1.2.213.167-.553-.962-1.416,1.132-1.849-.41-.25-1.018,1.663-.821-1.208.052-2.642-.641-.012-.056,2.845,2.022,2.978-.634,2.111-1.2-.687L369,206.525l-.463.129.425,1.505,1.464.84-.757,2.517.3.092-17.288-2.96-.329,2.515,15.778,1.734-.112,3.2-2.2,1.86-1.317,3.229.593.241.865-2.118.432.767.283,1.455.471-.091-.29-1.494-.665-1.2.162-.4.933-.791,1.1,2.02.021,1.947.641-.007-.023-2.106-1.24-2.277.862-.729.121-3.437.2.022.19.083,2.243,3.384-.883.85.06,2.672.641-.015-.054-2.391.6-.574,1.2,1.814c-.058.579-.322,3.172-.354,3.42-.011.086-.027.235.457,1.006l-.46,1.167.448.177.335-.85c.258.383.6.867,1.054,1.488m-4.335-13.571-.139.009.006-.049Z" transform="translate(-104.536 -59.112)" fill="#604730"/>
      <path id="Trazado_275891" data-name="Trazado 275891" d="M309.475,114.777l-3.182-.978-1.125-2.052,1.982-.528-.009.019,2.737,1.281,2.192-.636-.148-.509-2,.58-2.005-.939.171-.046,2.235-2.379,2.685.072.019-.707-1.588-.043.8-1.272-.449-.283-.969,1.537-.8-.022-2.315,2.464-4.233,1.15-3.429-.369,2.2-2.708,1.919.153,2.663-.654-.174-.686-1.1.279.525-.929.807-.49-.274-.454-.926.562-.843,1.49-.677.171-1.376-.11.8-.99,3.508-3.359,2.276-3.594-.6-.377-1.867,2.964-.354-1.2.556-1.363-.491-.2-.627,1.534.532,1.81-2.308,2.212-.254-.931.435-2.01-.519-.113-.449,2.073.354,1.4-.713.684-3.491,4.3.367-4,.981-2.419-.117-1.26.107.114,1.629-1.529.516-2.228-.517-.12-.48,2.071-1.3,1.219-.289-3.123,1.094-1.739-.6-.377-1.223,1.942.456,4.924-.537,1.324-1.179-1.774-.435-1.63-.512.136.446,1.673,1.44,2.188-.159.392-.464,4.928-1.758-.945-.315-3.647-2.2-2.974-.88-.342-.077-2.04-.53.02.068,1.81-1.172-.456-.57-2.246-.686.174.66,2.6,2.742,1.066,1.27,1.714-1.457,0-1.27-.6-.224.481,1.324.62,2.019.021.3.407.331,3.828,1.754.942-4.69.1-2.346-1.582-.17-.065-.244-1.653-.591-.721-.411.335.5.609.179,1.213-2.32-.885-.252.66,2.983,1.139,2.005,1.352-.921.589-1.412-.291-.107.52,1.622.334,1.319-.843,5.055-.11L287.713,127l2.37,1.493,9.349-15.546.32,1.224-.321,2.851.629,2.838.518-.117-.614-2.706.065-.577.548.29.775,1.2.445-.288-.849-1.319-.855-.451.193-1.712-.471-1.87.025-.041,1.3,1.16.722,2.6,2.086,1.731.159,1.409.527-.06-.1-.86,1.7,1.41.453-.544-3.65-3.029,1.713-.013,1.625,1.637.376-.374-1.782-1.795-2.506.019-.7-2.524-1.307-1.164,3.007.324,1-.265,1.347,2.456.768.236.61,1.3.481-.224-.407-.87,2,.617Z" transform="translate(-85.358 -28.833)" fill="#604730"/>
      <path id="Trazado_275892" data-name="Trazado 275892" d="M332.223,249.8l1,1.591.491-.307-.892-1.424.24-2.549,1.057,1,.388,1.694.423-.1-.418-1.822-1.328-1.255-.086.092.1-1.028-.8-1.98-.359-3.981.1.02.006-.048,2.508,1.77.819.206-.014,2.291.456.475-.082,1.174.433.03.056-.783,1.188,1.236.416-.4-1.886-1.962.011-1.914,1.626.41-.013.01,1.447,2,1.82.416.1-.423-1.66-.38L338.3,242.4l.141.036,2.542-.814,1.89,1.119.294-.5-1.118-.661,1.077-.591-.209-.381-1.3.715-.561-.332-2.633.842-3.483-.859-2.613-1.844,5.083-1.175,0,0,.7,1.325,1.244.538.172-.4-1.1-.478-.6-1.148,3.294-1.305,3.353-.274-.046-.576-3.073.25.2-.878,1.091-1.279-.33-.281-1.16,1.36-.267,1.16-3.646,1.435-.365.084,1.163-1.573,2.38-1.07-.237-.528-1.488.67.366-1.085.81-.563-.248-.356-.926.644-.541,1.6-.491.221L336,237.689l-3.275.755,1.065-1.377.074-2.578,2.376-.152,1.331-.887-.241-.361-1.234.822-1.923.124,2.9-3.453-.443-.372-1.377,1.637-.136-1.084-.43.055.186,1.481-1.177,1.4-1.3-3.35.556-2.067,0-.13,1.153-.572.381-.606-.367-.231-.317.5-.838.416.049-1.871-.578-.015-.063,2.422-.471,1.75-.666-.513-.153-1.08-.43.06.178,1.256.967.745,1.487,3.83-.075,2.615-1.383,1.788-.075.017.011.049-.013,0-.4-1.606-1.047-1.514.554-.835.116-1.563-.432-.032-.108,1.45-.4.6-.378-.547-.759-2.694-.418.118.769,2.73,1.689,2.435.324,1.314-14.1-4.33-.523,2.23,13.713,2.917-.923.438-.5,2.35-.229.251h-1.215l-1,.4.167.4.871-.363h.775l-.846.926-1.877.656-.633,1.606.538.212.536-1.36.692-.241-.159.971.428.07.2-1.2.607-.212,1.675-1.834.479-2.224,1.348-.64.148.032.378,4.2.154.39-1.155,1.729-.395,1.429.419.113.356-1.33.969-1.45.432,1.09Z" transform="translate(-93.943 -66.983)" fill="#604730"/>
      <path id="Trazado_275893" data-name="Trazado 275893" d="M126.291,19.466a5.282,5.282,0,0,0-5.138,3.1,8.049,8.049,0,0,0-11.583,8.2,5.827,5.827,0,0,0-4.208,9.089l25.745-16.3a5.282,5.282,0,0,0-4.816-4.086" transform="translate(-30.956 -5.772)" fill="#fff"/>
      <path id="Trazado_275894" data-name="Trazado 275894" d="M25.594,255.03a5.725,5.725,0,0,0-5.113,9.185,8.424,8.424,0,0,0,9.767,13.692Z" transform="translate(-5.145 -75.653)" fill="#fff"/>
      <path id="Trazado_275895" data-name="Trazado 275895" d="M50.984,351.315a5.723,5.723,0,0,0,.562,10.5A8.423,8.423,0,0,0,67.1,368.2Z" transform="translate(-14.182 -104.227)" fill="#fff"/>
      <path id="Trazado_275896" data-name="Trazado 275896" d="M347.561,342.343a1.618,1.618,0,0,0-2.185-1.5,1.384,1.384,0,0,0-2.1.454,1.049,1.049,0,1,0-.964,1.395h.011c0,.039-.01.078-.009.118a1.167,1.167,0,0,0,.756,1.065,1.634,1.634,0,1,0,3.138.6c0-.053-.013-.1-.019-.155a1.277,1.277,0,0,0,.254-.4,1.63,1.63,0,0,0,1.118-1.581" transform="translate(-101.237 -101.032)" fill="#999"/>
      <path id="Trazado_275897" data-name="Trazado 275897" d="M340.392,349.3a1.635,1.635,0,0,0-1.673-1.6,1.617,1.617,0,0,0-1.07.441,1.747,1.747,0,0,0-.949-.48,1.191,1.191,0,0,0,.027-.267,1.168,1.168,0,1,0-1.765,1.028,1.743,1.743,0,0,0,.479,2.413,2.1,2.1,0,0,0,4.128-.091,1.627,1.627,0,0,0,.823-1.448" transform="translate(-99.206 -102.725)" fill="#999"/>
      <path id="Trazado_275898" data-name="Trazado 275898" d="M332.257,356.948a2.444,2.444,0,0,0-2.5-2.387c-.039,0-.076.011-.115.014a1.949,1.949,0,0,0-.925-1.044,1.3,1.3,0,1,0-1.876.043,1.943,1.943,0,0,0-.042,3.348,2.733,2.733,0,0,0,5.458.026" transform="translate(-96.605 -104.237)" fill="#999"/>
      <path id="Trazado_275899" data-name="Trazado 275899" d="M316,332.442l-1.873,1.3,8.92,13.019,1.872-1.3Z" transform="translate(-93.193 -98.628)" fill="#333"/>
      <path id="Trazado_275900" data-name="Trazado 275900" d="M323.152,327.485l-1.873,1.3L330.2,341.8l1.872-1.3Z" transform="translate(-95.316 -97.158)" fill="#333"/>
      <path id="Trazado_275901" data-name="Trazado 275901" d="M330.308,322.529l-1.873,1.3,8.919,13.019,1.873-1.3Z" transform="translate(-97.44 -95.687)" fill="#333"/>
      <path id="Trazado_275902" data-name="Trazado 275902" d="M323.331,316.822l1.137,1.735-3.745,2.595-1.137-1.735-1.287.891,1.137,1.736-3.746,2.594-1.137-1.735-1.288.892,1.137,1.735-3.746,2.594-1.137-1.735-1.755,1.216-8.8-12.708,19.431-13.457,8.8,12.708Z" transform="translate(-88.695 -89.43)" fill="#4e686d"/>
      <rect id="Rectángulo_203347" data-name="Rectángulo 203347" width="2.089" height="3.476" transform="matrix(0.822, -0.569, 0.569, 0.822, 216.608, 230.452)" fill="#f5e782"/>
      <rect id="Rectángulo_203348" data-name="Rectángulo 203348" width="2.089" height="3.476" transform="matrix(0.822, -0.569, 0.569, 0.822, 219.404, 228.48)" fill="#f5e782"/>
      <rect id="Rectángulo_203349" data-name="Rectángulo 203349" width="2.089" height="3.476" transform="matrix(0.822, -0.569, 0.569, 0.822, 222.2, 226.508)" fill="#f5e782"/>
      <rect id="Rectángulo_203350" data-name="Rectángulo 203350" width="2.089" height="3.476" transform="matrix(0.822, -0.569, 0.569, 0.822, 224.997, 224.537)" fill="#f5e782"/>
      <rect id="Rectángulo_203351" data-name="Rectángulo 203351" width="2.089" height="3.476" transform="matrix(0.822, -0.569, 0.569, 0.822, 227.793, 222.565)" fill="#f5e782"/>
      <rect id="Rectángulo_203352" data-name="Rectángulo 203352" width="2.089" height="3.476" transform="matrix(0.822, -0.569, 0.569, 0.822, 230.589, 220.593)" fill="#f5e782"/>
      <path id="Trazado_275903" data-name="Trazado 275903" d="M333.877,369.994a2.455,2.455,0,0,0-4.882.429,2.412,2.412,0,0,0,.118.664,1.769,1.769,0,0,0-.485,1.259c0,.02.006.037.007.056a1.637,1.637,0,1,0,1.879,2.35,1.5,1.5,0,0,0,2.5-.869l.027,0a2.045,2.045,0,0,0,.836-3.892" transform="translate(-97.143 -109.149)" fill="#999"/>
      <path id="Trazado_275904" data-name="Trazado 275904" d="M337.02,383.33a1.624,1.624,0,0,0-2.9-1.409,3.012,3.012,0,0,0-3.413.447,2.766,2.766,0,1,0-1.319,5.159c.068,0,.131-.018.2-.025a3.129,3.129,0,0,0-.027.347,3.1,3.1,0,0,0,6.189-.142,3.032,3.032,0,0,0-.063-.509c.072.006.141.018.215.017a2.116,2.116,0,0,0,1.115-3.884" transform="translate(-96.883 -113.092)" fill="#999"/>
      <path id="Trazado_275905" data-name="Trazado 275905" d="M348.1,361.936a1.749,1.749,0,0,0-3.352-.662,1.966,1.966,0,0,0-1.229-.4,1.98,1.98,0,0,0-.8,3.775,1.5,1.5,0,0,0-.153.686,1.518,1.518,0,0,0,2.925.534,1.957,1.957,0,0,0,.594.087A1.971,1.971,0,0,0,347.763,363a1.735,1.735,0,0,0,.336-1.061" transform="translate(-101.338 -106.87)" fill="#999"/>
      <path id="Trazado_275906" data-name="Trazado 275906" d="M358.806,372.444a2.045,2.045,0,0,0-3.7-1.166A2.616,2.616,0,0,0,352,373.34c-.023,0-.045-.006-.068,0a2.342,2.342,0,0,0-2.143,1.533c-.057,0-.111-.015-.169-.013a2.786,2.786,0,1,0,2.257,4.483,1.889,1.889,0,0,0,3.069-1.25c.058,0,.115.015.174.014a2.2,2.2,0,0,0,2.149-2.249,2.178,2.178,0,0,0-.259-.967,2.589,2.589,0,0,0,.122-.383,2.049,2.049,0,0,0,1.672-2.058" transform="translate(-102.918 -109.901)" fill="#999"/>
      <path id="Trazado_275907" data-name="Trazado 275907" d="M360.493,347.857a1.731,1.731,0,0,0-3.183-.9,2.24,2.24,0,0,0-3.059,2.77,2.129,2.129,0,1,0,3.872,1.572,1.447,1.447,0,0,0,1.883-1.431,1.448,1.448,0,0,0-.162-.627,1.722,1.722,0,0,0,.649-1.382" transform="translate(-104.995 -102.7)" fill="#999"/>
      <path id="Trazado_275908" data-name="Trazado 275908" d="M370.7,357.161a2.451,2.451,0,0,0-4.241-1.62,1.891,1.891,0,0,0-.354-.027,1.862,1.862,0,0,0-1.573.942,1.611,1.611,0,0,0-.51-.077,1.631,1.631,0,0,0-1.505,1.108,2.088,2.088,0,0,0-1.925,3.24,1.626,1.626,0,0,0,2.441,1.853,2.278,2.278,0,0,0,4.138-1.367c0-.052-.014-.1-.018-.151a1.978,1.978,0,0,0,1.532-1.442,2.447,2.447,0,0,0,2.016-2.462" transform="translate(-106.876 -105.251)" fill="#999"/>
      <path id="Trazado_275909" data-name="Trazado 275909" d="M436.621,222.584a7.084,7.084,0,0,0-4.2-6.078,4.827,4.827,0,0,0-5.039-5.891,4.919,4.919,0,0,0-.941.148l-2.274,27.309a6.106,6.106,0,0,0,9.349-4.889,5.122,5.122,0,0,0,1.45-5.641,7.056,7.056,0,0,0,1.66-4.958" transform="translate(-125.84 -62.482)" fill="#333"/>
      <path id="Trazado_275910" data-name="Trazado 275910" d="M33.22,104.875a6.058,6.058,0,0,0-4.518,2.573A10.453,10.453,0,0,0,17,118.612a10.4,10.4,0,0,0,2.7,6.243,7.753,7.753,0,0,0,1.209,13.516L38.462,107.2a6.064,6.064,0,0,0-5.243-2.322" transform="translate(-4.831 -31.109)" fill="#fff"/>
      <path id="Trazado_275911" data-name="Trazado 275911" d="M374.886,371.763a6.631,6.631,0,0,0,11.327-1.643,8.211,8.211,0,0,0,3.677-15.553Z" transform="translate(-111.22 -105.192)" fill="#333"/>
    </g>
  </g>
</svg>
