<svg id="Grupo_564066" data-name="Grupo 564066" xmlns="http://www.w3.org/2000/svg" xmlns:xlink="http://www.w3.org/1999/xlink" width="303.745" height="256.298" viewBox="0 0 303.745 256.298">
  <defs>
    <clipPath id="clip-path">
      <rect id="Rectángulo_203490" data-name="Rectángulo 203490" width="303.745" height="256.298" fill="none"/>
    </clipPath>
    <clipPath id="clip-path-2">
      <path id="Trazado_276232" data-name="Trazado 276232" d="M228.486,70.442c-17.135,2.024-33.657,7.035-50.994,8.523-10.229.88-20.471.878-30.714.877-7.686,0-15.373,0-23.058.369-12.737.613-29.909,1.31-39.984,9.545-4.381,3.581-6.806,8.585-9.459,13.29-3.869,6.858-4.057,13.179-21.387,27.366C34.206,145.706-4.255,155.916.386,182.9c4.809,27.97,67.4,41.44,91.89,44.105a202.426,202.426,0,0,0,21.509,1.218h.856c18.112-.042,32.677-2.662,45.87-5.284,15.485-3.078,29.077-6.154,44.285-5.063,50.039,3.6,64.631,8.053,85.185-8.971,18.624-15.424,14.4-35.55,9.926-60.114-6-32.938-6.952-46.13-17.449-60.8-7.206-10.071-19.88-18.3-41.888-18.3a102.829,102.829,0,0,0-12.084.749" transform="translate(0 -69.693)" fill="none"/>
    </clipPath>
    <linearGradient id="linear-gradient" x1="0.014" y1="1" x2="0.018" y2="1" gradientUnits="objectBoundingBox">
      <stop offset="0" stop-color="#546664"/>
      <stop offset="1" stop-color="#696d5a"/>
    </linearGradient>
    <clipPath id="clip-path-4">
      <rect id="Rectángulo_203483" data-name="Rectángulo 203483" width="20.488" height="29.577" fill="none"/>
    </clipPath>
    <clipPath id="clip-path-5">
      <rect id="Rectángulo_203484" data-name="Rectángulo 203484" width="117.392" height="68.933" fill="none"/>
    </clipPath>
    <clipPath id="clip-path-6">
      <rect id="Rectángulo_203485" data-name="Rectángulo 203485" width="117.391" height="68.933" fill="none"/>
    </clipPath>
    <clipPath id="clip-path-7">
      <rect id="Rectángulo_203486" data-name="Rectángulo 203486" width="32.016" height="24.529" fill="none"/>
    </clipPath>
    <clipPath id="clip-path-8">
      <rect id="Rectángulo_203487" data-name="Rectángulo 203487" width="32.017" height="24.529" fill="none"/>
    </clipPath>
    <clipPath id="clip-path-9">
      <rect id="Rectángulo_203488" data-name="Rectángulo 203488" width="42.837" height="23.047" fill="none"/>
    </clipPath>
  </defs>
  <g id="Grupo_564088" data-name="Grupo 564088" clip-path="url(#clip-path)">
    <g id="Grupo_564067" data-name="Grupo 564067" transform="translate(0.001 97.765)">
      <g id="Grupo_564066-2" data-name="Grupo 564066" clip-path="url(#clip-path-2)">
        <rect id="Rectángulo_203482" data-name="Rectángulo 203482" width="312.859" height="158.533" transform="translate(-4.255 0)" fill="url(#linear-gradient)"/>
      </g>
    </g>
    <g id="Grupo_564087" data-name="Grupo 564087">
      <g id="Grupo_564086" data-name="Grupo 564086" clip-path="url(#clip-path)">
        <path id="Trazado_276233" data-name="Trazado 276233" d="M236.271,111.765c-1.456-1.777-3.674-3.017-4.91-4.969-1.631-2.576-1.153-5.587-.575-8.372.7-3.377,2.066-6.743,1.89-10.24-.743-14.694-20.958-12.411-34.951-9.023-4.321.5-8.464,1.136-12.046,1.508-20.637,2.139-41.561,3.58-62.06,6.687-7.467,1.132-15.1,3.067-21.1,7.626-6.942,5.277-10.281,13.506-17.224,18.8-9.756,7.44-22.145,14.8-19.005,30.759,2.1,10.7,12.352,16.4,27.216,19.843,16.982,3.933,38.313,2.794,48.462-2.7a88.434,88.434,0,0,0,19.481-14.445c7.454-7.5,16.284-9.467,26.893-9.372,8.546.076,17.134.8,25.434-1.58a43.563,43.563,0,0,0,18.253-10.468c4.071-3.945,8.486-8.874,4.241-14.056" transform="translate(26.502 30.871)" fill="#7a7c66"/>
        <path id="Trazado_276234" data-name="Trazado 276234" d="M216.646,101.539c4.462-8.016,1.173-17.022-7.4-18.013-7.352-.85-25.393,1.178-37.223,2.167-3.266.274-15.668,4.075-18.682,5.157-7.609,2.731-15.181,2.872-23.148,2.977-5.147.069-11.611-.292-16.324,2.135-4.214,2.172-4.113,5.585-4.576,9.8-.982,8.947-9.806,11.723-16.94,14.764-7.234,3.083-17.1,10.306-12.589,19.586,1.918,3.945,10.614,12.827,18.2,15.018,11.158,3.222,34.93.6,44.227-6.651,9.469-7.387,16.518-17.548,28.433-21.294,11.238-3.534,23.055-3.608,33.447-10.407,10.079-6.595,9.832-10.3,12.582-15.237" transform="translate(31.669 33.562)" fill="#998c6d"/>
        <path id="Trazado_276235" data-name="Trazado 276235" d="M169.308,85.821c-3.607-.351-8.065-.724-6.31,2.689.54,1.052,2,1.582,2.807,2.322a3.155,3.155,0,0,1-.469,5.182c-.735.46-1.553.776-2.3,1.205-1.115.638-3.6,2.174-2.048,3.629,1.892,1.773,6.388.1,8.255-.686,2.63-1.112,5.547-2.5,6.617-5.346,1.657-4.4-1.943-8.547-6.55-8.995" transform="translate(64.644 34.48)" fill="#d3aa58"/>
        <path id="Trazado_276236" data-name="Trazado 276236" d="M115.648,127.324c-.473-.163-.738.094-1.223.223-1.063.282-2.413,1.4-3.424,1.871a8.318,8.318,0,0,1-3.91,1.07c-4.365,0-6.116-1.463-10.876-3.233-2.012-.749-6.059-2.863-8.262-1.383-1.5,1.009-1.01,2.023.094,3.079a58.4,58.4,0,0,0,5.429,3.91,14.278,14.278,0,0,0,3.877,2.037c3.56,1.22,6.934.772,10.41-.453,2.434-.857,7.025-1.17,8.55-3.565.728-1.143.864-3.029-.665-3.556" transform="translate(35.047 50.494)" fill="#d3aa58"/>
        <path id="Trazado_276237" data-name="Trazado 276237" d="M162.022,82.33a2.67,2.67,0,1,1-2.67-2.67,2.67,2.67,0,0,1,2.67,2.67" transform="translate(63.111 32.087)" fill="#d3aa58"/>
        <path id="Trazado_276238" data-name="Trazado 276238" d="M160.337,81.308a1.126,1.126,0,1,1-1.125-1.125,1.125,1.125,0,0,1,1.125,1.125" transform="translate(63.676 32.297)" fill="#eabe71"/>
        <path id="Trazado_276239" data-name="Trazado 276239" d="M147.786,88.784a2.67,2.67,0,1,1-2.67-2.67,2.67,2.67,0,0,1,2.67,2.67" transform="translate(57.377 34.686)" fill="#d3aa58"/>
        <path id="Trazado_276240" data-name="Trazado 276240" d="M146.1,87.762a1.126,1.126,0,1,1-1.125-1.124,1.126,1.126,0,0,1,1.125,1.124" transform="translate(57.943 34.897)" fill="#eabe71"/>
        <path id="Trazado_276241" data-name="Trazado 276241" d="M127.362,104.7a2.67,2.67,0,1,1-2.67-2.67,2.67,2.67,0,0,1,2.67,2.67" transform="translate(49.15 41.098)" fill="#d3aa58"/>
        <path id="Trazado_276242" data-name="Trazado 276242" d="M125.677,103.68a1.126,1.126,0,1,1-1.125-1.125,1.125,1.125,0,0,1,1.125,1.125" transform="translate(49.716 41.309)" fill="#eabe71"/>
        <path id="Trazado_276243" data-name="Trazado 276243" d="M129.7,114.634a2.049,2.049,0,1,1-2.048-2.048,2.049,2.049,0,0,1,2.048,2.048" transform="translate(50.594 45.349)" fill="#d3aa58"/>
        <path id="Trazado_276244" data-name="Trazado 276244" d="M128.411,113.851a.863.863,0,1,1-.864-.864.865.865,0,0,1,.864.864" transform="translate(51.028 45.511)" fill="#eabe71"/>
        <path id="Trazado_276245" data-name="Trazado 276245" d="M150.478,103.512a2.048,2.048,0,1,1-2.048-2.048,2.049,2.049,0,0,1,2.048,2.048" transform="translate(58.962 40.869)" fill="#d3aa58"/>
        <path id="Trazado_276246" data-name="Trazado 276246" d="M149.186,102.728a.863.863,0,1,1-.864-.864.864.864,0,0,1,.864.864" transform="translate(59.396 41.03)" fill="#eabe71"/>
        <path id="Trazado_276247" data-name="Trazado 276247" d="M168.75,81.573a2.049,2.049,0,1,1-2.048-2.048,2.049,2.049,0,0,1,2.048,2.048" transform="translate(66.321 32.032)" fill="#d3aa58"/>
        <path id="Trazado_276248" data-name="Trazado 276248" d="M167.457,80.79a.863.863,0,1,1-.864-.864.864.864,0,0,1,.864.864" transform="translate(66.755 32.194)" fill="#eabe71"/>
        <path id="Trazado_276249" data-name="Trazado 276249" d="M145.085,95.6a2.049,2.049,0,1,1-2.049-2.048,2.049,2.049,0,0,1,2.049,2.048" transform="translate(56.789 37.682)" fill="#d3aa58"/>
        <path id="Trazado_276250" data-name="Trazado 276250" d="M143.792,94.814a.864.864,0,1,1-.866-.864.865.865,0,0,1,.866.864" transform="translate(57.223 37.843)" fill="#eabe71"/>
        <path id="Trazado_276251" data-name="Trazado 276251" d="M89.648,116.819a2.049,2.049,0,1,1-2.048-2.048,2.048,2.048,0,0,1,2.048,2.048" transform="translate(34.459 46.229)" fill="#d3aa58"/>
        <path id="Trazado_276252" data-name="Trazado 276252" d="M88.355,116.036a.863.863,0,1,1-.864-.864.865.865,0,0,1,.864.864" transform="translate(34.893 46.391)" fill="#eabe71"/>
        <path id="Trazado_276253" data-name="Trazado 276253" d="M114.064,124.264a2.049,2.049,0,1,1-2.048-2.048,2.049,2.049,0,0,1,2.048,2.048" transform="translate(44.294 49.228)" fill="#d3aa58"/>
        <path id="Trazado_276254" data-name="Trazado 276254" d="M112.771,123.481a.863.863,0,1,1-.864-.864.865.865,0,0,1,.864.864" transform="translate(44.728 49.39)" fill="#eabe71"/>
        <path id="Trazado_276255" data-name="Trazado 276255" d="M20.046,138.74c-7.76,2.9-6.749,9.643,0,12.434s24.473.439,35.425,2.843,31.807,3.016,38.564-2.375S96.863,132.66,79.8,132.736s-59.754,6-59.754,6" transform="translate(5.88 53.465)" fill="#455051"/>
        <path id="Trazado_276256" data-name="Trazado 276256" d="M25.517,131.892c-8.211,7.5-6.308,8.675-8.449,13.119-2.535,5.263,7.474,8.037,23.344,5.871s20.773.189,26.614.671,12.691-.564,17.859-4.782S83.374,130.9,83.374,130.9s-49.646-6.508-57.857.99" transform="translate(6.717 51.671)" fill="#423629"/>
        <path id="Trazado_276257" data-name="Trazado 276257" d="M196.7,123.061c-.328-2.7-2.174-1.871-10.879-1.533-2.81.108-12.858.578-15.317.574-2.883-.006-8.536.469-11.335,2.9-2.908,2.519-.5,3.747,4.151,4.158,3.726.33,7.922,3.649,11.741,3.082a11.931,11.931,0,0,0,4.531-1.961,17.2,17.2,0,0,1,7.9-2.587c2.294-.231,9.588-1.519,9.211-4.628" transform="translate(63.603 48.794)" fill="#455051"/>
        <path id="Trazado_276258" data-name="Trazado 276258" d="M190.278,103.283l-4.032-2.207s-2.564,4.777-5.084,9.824c-.33.661-2.947,1.3-4.988,2.3a11.115,11.115,0,0,0-4.248,4.312c-2.588,4.482-6.4,12.1-6.955,13.206-.018.031-.031.063-.048.1l-.027.053h0a2.4,2.4,0,0,0-.283,1.1c0,2.306,3.514,4.176,7.85,4.176,3.71,0,6.812-1.372,7.631-3.212h0s2.663-4.869,4.855-9.19c3.149-6.2-.875-8.146.351-10.918,1.155-2.609,4.976-9.54,4.976-9.54" transform="translate(66.306 40.713)" fill="#9ba626"/>
        <g id="Grupo_564070" data-name="Grupo 564070" transform="translate(232.978 143.484)" opacity="0.5">
          <g id="Grupo_564069" data-name="Grupo 564069">
            <g id="Grupo_564068" data-name="Grupo 564068" clip-path="url(#clip-path-4)">
              <path id="Trazado_276259" data-name="Trazado 276259" d="M180.8,111.144c-1.237,2.04-5.552,2.347-7.614,5.749a116.133,116.133,0,0,0-6.973,13.575c-.574,1.386.885,1.838,2.187.9,1.272-.913,2.633-3.183,3.692-5.025,2.365-4.114,3.225-7.924,5.8-10.1a15.266,15.266,0,0,0,4.84-5.827c2.021-3.665,3.837-7.321,3.837-7.321l-.988-.807s-3.222,6.282-4.785,8.859" transform="translate(-166.081 -102.284)" fill="#c8ce4d"/>
            </g>
          </g>
        </g>
        <path id="Trazado_276260" data-name="Trazado 276260" d="M180.133,100.754l-.812,1.634c-.3.613.532,1.647,1.867,2.309s2.663.7,2.967.091l.812-1.634Z" transform="translate(72.205 40.583)" fill="#7d8520"/>
        <path id="Trazado_276261" data-name="Trazado 276261" d="M184.733,103.279c-.3.613-1.633.572-2.967-.091s-2.172-1.7-1.867-2.309,1.633-.572,2.968.091,2.17,1.7,1.866,2.309" transform="translate(72.437 40.459)" fill="#c8ce4d"/>
        <path id="Trazado_276262" data-name="Trazado 276262" d="M183.914,102.786c-.224.452-1.205.422-2.191-.067s-1.6-1.253-1.376-1.7,1.205-.422,2.19.067,1.6,1.253,1.378,1.7" transform="translate(72.624 40.559)" fill="#9ba626"/>
        <path id="Trazado_276263" data-name="Trazado 276263" d="M174.427,112.173c-.662.449-1.274,1.014-3.392,4.927-.877,1.62-2.222,4.039-3.132,5.888-.751,1.525.867,1.955,1.918.135,1.791-3.109,5.061-9.344,5.576-9.9,1.024-1.1.209-1.853-.969-1.053" transform="translate(67.553 45.049)" fill="#c8ce4d"/>
        <path id="Trazado_276264" data-name="Trazado 276264" d="M48.177,25.537l0,.006,106.61,61.552,1.385-2.619L43.88,19.647c.731,2.845,2.222,4.917,4.3,5.89" transform="translate(17.675 7.914)" fill="#806c53"/>
        <path id="Trazado_276265" data-name="Trazado 276265" d="M44.442,14.866,160.969,82.142l7.289-13.792L53.03,1.824c-3.743,2.865-6.906,7.791-8.588,13.042" transform="translate(17.901 0.735)" fill="#806c53"/>
        <path id="Trazado_276266" data-name="Trazado 276266" d="M167.31,63.453,58.848.766,58.837.759h0A6.8,6.8,0,0,0,55.646,0a8.051,8.051,0,0,0-1.459.152L166.5,64.993Z" transform="translate(21.826)" fill="#806c53"/>
        <path id="Trazado_276267" data-name="Trazado 276267" d="M55.646.108a10.834,10.834,0,0,0-3.455,1.314,15.048,15.048,0,0,0-1.627,1.091L165.792,69.041l2.163-4.092Z" transform="translate(20.367 0.044)" fill="#806c53"/>
        <g id="Grupo_564073" data-name="Grupo 564073" transform="translate(70.931 0.152)" opacity="0.5">
          <g id="Grupo_564072" data-name="Grupo 564072">
            <g id="Grupo_564071" data-name="Grupo 564071" clip-path="url(#clip-path-5)">
              <path id="Trazado_276268" data-name="Trazado 276268" d="M55.646.108a10.834,10.834,0,0,0-3.455,1.314,15.048,15.048,0,0,0-1.627,1.091L165.792,69.041l2.163-4.092Z" transform="translate(-50.564 -0.108)" fill="#9c8566"/>
            </g>
          </g>
        </g>
        <path id="Trazado_276269" data-name="Trazado 276269" d="M44.816,11.121a25.769,25.769,0,0,0-1.3,7.766,16.821,16.821,0,0,0,.513,4.2L156.314,87.911l5.029-9.514Z" transform="translate(17.527 4.479)" fill="#75604a"/>
        <path id="Trazado_276270" data-name="Trazado 276270" d="M128.131,78.515c-4.7,0-7.739-4.211-7.739-10.727,0-8.41,5.165-18.235,11.516-21.9a9.864,9.864,0,0,1,4.914-1.467c4.7,0,7.741,4.211,7.741,10.729,0,8.41-5.166,18.235-11.516,21.9a9.876,9.876,0,0,1-4.915,1.466" transform="translate(48.493 17.892)" fill="#9c8566"/>
        <path id="Trazado_276271" data-name="Trazado 276271" d="M143.1,54.821c0,8.06-4.9,17.424-10.946,20.914S121.2,75.521,121.2,67.46s4.9-17.424,10.946-20.914,10.946.215,10.946,8.275" transform="translate(48.82 18.22)" fill="#524535"/>
        <path id="Trazado_276272" data-name="Trazado 276272" d="M107.126,60.148c0-8.41,5.165-18.235,11.516-21.9a9.862,9.862,0,0,1,4.915-1.466,6.727,6.727,0,0,1,3.468.926l-13.011-7.585-.011.022a6.727,6.727,0,0,0-3.468-.926,9.862,9.862,0,0,0-4.915,1.466C99.271,34.35,94.1,44.176,94.1,52.585c0,4.621,1.533,8.072,4.1,9.695l-.006.011,12.795,7.374c-2.418-1.683-3.865-5.044-3.865-9.518" transform="translate(37.905 11.769)" fill="#524535"/>
        <path id="Trazado_276273" data-name="Trazado 276273" d="M103.5,58.026c0-8.41,5.165-18.235,11.516-21.9a9.854,9.854,0,0,1,4.915-1.466,6.752,6.752,0,0,1,3.478.9l-7.234-4.183-.01.022a6.731,6.731,0,0,0-3.468-.926,9.871,9.871,0,0,0-4.917,1.466c-6.35,3.665-11.516,13.491-11.516,21.9,0,4.621,1.533,8.072,4.1,9.695l-.007.013,7.008,4c-2.418-1.685-3.865-5.046-3.865-9.519" transform="translate(38.774 12.276)" fill="#423629"/>
        <path id="Trazado_276274" data-name="Trazado 276274" d="M167.884,101.141c-2.633-7.756-5.861-15.577-8.957-23.163C155.171,68.773,146.1,57.966,128.2,48.511a28.617,28.617,0,0,0-6.785,14.826c-.965,6.458.718,9.27,2.273,10.8.731.72,5.994,4.813,7.564,7.251,2.632,4.089,2.082,18.929,2.18,25.13a94.347,94.347,0,0,1-.591,9.646c-.238,2.672-4.626,1.575-5.808,4.332-1.04,2.428,1.379,4.389,6.08,4.342,4.272-.043,8.676-2.173,10.456-2.657,3.779-1.028,7.316-5.4,11.417-3.752,2.329.934,11.2-1.25,10.268-5.216-.282-1.2-.657-2.888,1.181-4.07,2.057-1.321,2.569-4.69,1.443-8" transform="translate(48.793 19.54)" fill="#727667"/>
        <path id="Trazado_276275" data-name="Trazado 276275" d="M175.135,102.3c-1.194-2.728-5.356-3.861-8.366-6.07a18.529,18.529,0,0,1-6.168-8.267c-1.707-4.8-3.158-10.32-6.018-14.742-1.724-2.664-2.538-2.186-1.986,1.487.616,4.109,3.451,11.556,1.382,14.895-1.368-3.269-3.066-11.584-4.795-14.633-.917-1.619-2.828-4.549-4.723-5.117-1.313-.394.957,5.12.655,8.923-1.428-4.068-1.968-5.774-4.646-8.309-3.678-3.485-7.363-5.39-10.445-7.7-2.519-1.89-5.481-2.813-6.09-1.313-.579,1.424,7.206,6.054,9.136,7.7,5.89,5.015,7.222,12.6,7.321,20.057a51.3,51.3,0,0,1-6.595,27.067c-1.648,2.957-5.512,4.626-2.735,6.595,3.712,2.63,12.816,1.794,16.81.2,3.936-1.574,3.912-4.777,4.855-5.97,2.232-2.825,4.518-1.348,7.447-.821a10.634,10.634,0,0,0,8.464-2c1.765-1.57-1.286-6.164,1.477-7.837,2.686-1.627,5.667-2.654,5.019-4.134" transform="translate(49.908 24.452)" fill="#b49860"/>
        <path id="Trazado_276276" data-name="Trazado 276276" d="M153.336,111.818c-4.6-4.92-4.569-11.427-4.8-17.684-.184-4.993.563-11.873-1.361-16.539-3.546-8.609-13.724-15.093-21.917-19.3-1.032-.53-2.044-.327-.934.551a19.945,19.945,0,0,0,4.084,2.462,37.918,37.918,0,0,1,9.362,6.4c4.886,4.468,6.545,10.459,7.7,16.929,1.056,5.918.285,11.786.9,17.712a12.477,12.477,0,0,0,6.45,10.086c1.032.548.859-.251.518-.616" transform="translate(49.883 23.365)" fill="#5d5c4b"/>
        <path id="Trazado_276277" data-name="Trazado 276277" d="M141.91,63.725a117.657,117.657,0,0,0-16.543-10.4c-1.35-.641-2.166-.05-1.338.466,5.129,3.2,10.346,6.508,15.269,10.008,4.316,3.067,7.307,5.725,9.978,10.11a18.24,18.24,0,0,1,1.73,3.973c.154.429.955,2.658.955,1.427a14.123,14.123,0,0,0-1.84-6.889,31.655,31.655,0,0,0-8.211-8.689" transform="translate(49.824 21.364)" fill="#5d5c4b"/>
        <path id="Trazado_276278" data-name="Trazado 276278" d="M153.96,104.052c-6.063-6.526-6.338-14.374-7.338-22.884a12.9,12.9,0,0,0-1.864-5.512c-.8-1.23-.965-.787-.591.38,1.972,6.168,2.15,13.005,3.51,19.307.846,3.924,2.491,9.355,6.726,9.693,1,.079-.06-.572-.443-.985" transform="translate(57.993 30.178)" fill="#5d5c4b"/>
        <path id="Trazado_276279" data-name="Trazado 276279" d="M139.434,85.352a25.455,25.455,0,0,0-10.388-18.211c-.006,0-.013.006-.008.01,5.67,4.863,8.551,12.765,8.941,20.082a45.1,45.1,0,0,1-1.161,12.077c-.853,3.859-2.519,7.5-3.273,11.367a.186.186,0,0,0,.338.142c4.594-6.9,6.482-17.309,5.551-25.466" transform="translate(51.976 27.044)" fill="#5d5c4b"/>
        <path id="Trazado_276280" data-name="Trazado 276280" d="M128.846,74.337c-.842,3.41-2.2,9.354-4.452,14.118-.565,1.194-1.312,3.128.168,3.992,4.36,2.54,5.342-9.57,4.284-18.11" transform="translate(49.824 29.943)" fill="#b49860"/>
        <path id="Trazado_276281" data-name="Trazado 276281" d="M151.944,62.963c-2.678-2.484-8.133-5.507-11.574-5.613A25.082,25.082,0,0,1,146.293,62c1.547,1.752,2.627,3.831,4.009,5.708.94,1.278,4.072,5.1,5.67,2.477,1.424-2.343-2.577-5.875-4.027-7.22" transform="translate(56.54 23.1)" fill="#d3aa58"/>
        <path id="Trazado_276282" data-name="Trazado 276282" d="M141.692,61.1c-1.243-.927-3.922-1.342-2.348.1,1.717,1.577,1.782,2.138,3.423,3.795.821.826,1.934,2.6,3.2,2.63a.483.483,0,0,0,.415-.243c.94-1.577-2.078-4.335-4.694-6.286" transform="translate(55.933 24.27)" fill="#d3aa58"/>
        <path id="Trazado_276283" data-name="Trazado 276283" d="M125.048,68.965s4.767,4,6.226,8.216c1.927,5.566,2.236,18.73,1.655,24.118-.369,3.424-.421,6.334-1.7,9.054-1.408,3-3.109,4.238-1.083,4.434s5.085-5.265,6.085-11.985.835-22.846-1.936-28.07-12.826-10.484-12.826-10.484,1.288,3.579,3.574,4.718" transform="translate(48.929 25.878)" fill="#5d5c4b"/>
        <path id="Trazado_276284" data-name="Trazado 276284" d="M133.833,77.622c-.578-.672-1.15-.846-1.766-.219a3.351,3.351,0,0,0-.62,2.395c-.1.739-.487,9.372-.074,10.362a1.082,1.082,0,0,0,1.85.411c1.265-1.046,1.321-4.684,1.438-6.248.138-1.818.5-5.155-.828-6.7" transform="translate(52.842 31.021)" fill="#d3aa58"/>
        <path id="Trazado_276285" data-name="Trazado 276285" d="M159.188,92.5c-.675-.53-2.905-1.669-3.548-2.226-4.273-3.694-5.847-8.065-6.85-10.367-.188-.432-.8-.17-.819.222-.076,1.365,2.25,8.927,3.823,10.994,1.16,1.523,4.509,5.075,6.857,4.26,2.1-.731,1.824-1.873.537-2.883" transform="translate(59.602 32.098)" fill="#d3aa58"/>
        <path id="Trazado_276286" data-name="Trazado 276286" d="M138.928,86.441c-.093-.359-.714-.405-.774,0a21.218,21.218,0,0,0-.164,5.893c.006,2.04.056,4.082-.1,6.1-.234,3.031-1.956,5.158-2.686,7.927-.435,1.644.323,3.118,2.221,2.547,2.333-.7,2.583-4.949,2.786-6.674a42.728,42.728,0,0,0-1.282-15.8" transform="translate(54.411 34.703)" fill="#d3aa58"/>
        <path id="Trazado_276287" data-name="Trazado 276287" d="M13.564,44.83l0,.006,106.61,61.552,1.385-2.619L9.267,38.94c.731,2.845,2.222,4.917,4.3,5.89" transform="translate(3.733 15.685)" fill="#806c53"/>
        <path id="Trazado_276288" data-name="Trazado 276288" d="M9.83,34.158l116.527,67.277,7.289-13.792L18.418,21.116c-3.743,2.865-6.906,7.791-8.588,13.042" transform="translate(3.959 8.505)" fill="#806c53"/>
        <path id="Trazado_276289" data-name="Trazado 276289" d="M132.7,82.745,24.236,20.058l-.011-.007h0a6.8,6.8,0,0,0-3.19-.758,8.051,8.051,0,0,0-1.459.152L131.884,84.285Z" transform="translate(7.885 7.771)" fill="#806c53"/>
        <path id="Trazado_276290" data-name="Trazado 276290" d="M21.033,19.4a10.835,10.835,0,0,0-3.455,1.314,15.048,15.048,0,0,0-1.627,1.091L131.179,88.333l2.163-4.092Z" transform="translate(6.425 7.814)" fill="#806c53"/>
        <g id="Grupo_564076" data-name="Grupo 564076" transform="translate(22.377 27.214)" opacity="0.5">
          <g id="Grupo_564075" data-name="Grupo 564075">
            <g id="Grupo_564074" data-name="Grupo 564074" clip-path="url(#clip-path-6)">
              <path id="Trazado_276291" data-name="Trazado 276291" d="M21.033,19.4a10.835,10.835,0,0,0-3.455,1.314,15.048,15.048,0,0,0-1.627,1.091L131.179,88.333l2.163-4.092Z" transform="translate(-15.952 -19.4)" fill="#9c8566"/>
            </g>
          </g>
        </g>
        <path id="Trazado_276292" data-name="Trazado 276292" d="M10.2,30.413a25.769,25.769,0,0,0-1.3,7.766,16.82,16.82,0,0,0,.513,4.2L121.7,107.2l5.029-9.514Z" transform="translate(3.586 12.25)" fill="#75604a"/>
        <path id="Trazado_276293" data-name="Trazado 276293" d="M93.519,97.807c-4.7,0-7.739-4.211-7.739-10.727,0-8.41,5.165-18.235,11.516-21.9a9.861,9.861,0,0,1,4.914-1.466c4.7,0,7.741,4.21,7.741,10.727,0,8.41-5.167,18.235-11.516,21.9a9.876,9.876,0,0,1-4.915,1.466" transform="translate(34.552 25.663)" fill="#9c8566"/>
        <path id="Trazado_276294" data-name="Trazado 276294" d="M108.484,74.113c0,8.06-4.9,17.424-10.946,20.914s-10.946-.215-10.946-8.275,4.9-17.424,10.946-20.914,10.946.215,10.946,8.275" transform="translate(34.879 25.99)" fill="#524535"/>
        <path id="Trazado_276295" data-name="Trazado 276295" d="M72.514,79.44c0-8.41,5.166-18.235,11.516-21.9a9.862,9.862,0,0,1,4.915-1.466A6.727,6.727,0,0,1,92.413,57L79.4,49.414l-.011.022a6.727,6.727,0,0,0-3.468-.926,9.866,9.866,0,0,0-4.915,1.466c-6.349,3.666-11.516,13.491-11.516,21.9,0,4.621,1.533,8.072,4.1,9.695l-.006.011,12.795,7.375c-2.418-1.683-3.865-5.044-3.865-9.518" transform="translate(23.963 19.54)" fill="#524535"/>
        <path id="Trazado_276296" data-name="Trazado 276296" d="M68.883,77.318c0-8.41,5.165-18.235,11.516-21.9a9.862,9.862,0,0,1,4.915-1.466,6.754,6.754,0,0,1,3.479.9l-7.234-4.183-.011.022a6.727,6.727,0,0,0-3.468-.926,9.862,9.862,0,0,0-4.915,1.466c-6.35,3.666-11.516,13.491-11.516,21.9,0,4.621,1.533,8.072,4.1,9.695l-.006.013,7.007,3.994c-2.418-1.683-3.865-5.044-3.865-9.518" transform="translate(24.832 20.046)" fill="#423629"/>
        <path id="Trazado_276297" data-name="Trazado 276297" d="M133.272,120.433c-2.633-7.756-5.861-15.577-8.957-23.163-3.757-9.205-12.827-20.012-30.723-29.467a28.617,28.617,0,0,0-6.785,14.826c-.965,6.458.718,9.27,2.273,10.8.731.721,5.994,4.813,7.564,7.251,2.632,4.089,2.082,18.929,2.18,25.131a94.393,94.393,0,0,1-.591,9.646c-.237,2.671-4.626,1.574-5.806,4.33-1.041,2.428,1.378,4.391,6.078,4.342,4.271-.043,8.678-2.173,10.456-2.657,3.779-1.028,7.316-5.4,11.417-3.752,2.329.934,11.2-1.249,10.268-5.216-.282-1.2-.657-2.887,1.181-4.068,2.056-1.323,2.569-4.691,1.443-8.006" transform="translate(34.851 27.311)" fill="#727667"/>
        <path id="Trazado_276298" data-name="Trazado 276298" d="M140.524,121.591c-1.2-2.728-5.357-3.861-8.368-6.07a18.531,18.531,0,0,1-6.168-8.267c-1.707-4.795-3.158-10.32-6.018-14.742-1.724-2.664-2.536-2.186-1.986,1.487.616,4.109,3.451,11.556,1.382,14.895C118,105.626,116.3,97.31,114.572,94.262c-.917-1.619-2.829-4.549-4.725-5.117-1.313-.394.957,5.12.655,8.923-1.427-4.068-1.968-5.774-4.646-8.309-3.677-3.483-7.363-5.39-10.445-7.7-2.519-1.89-5.481-2.811-6.09-1.313-.579,1.424,7.208,6.054,9.136,7.7,5.89,5.015,7.222,12.6,7.321,20.057a51.3,51.3,0,0,1-6.595,27.067c-1.648,2.957-5.512,4.626-2.734,6.595,3.71,2.63,12.815,1.794,16.808.2,3.938-1.574,3.912-4.777,4.855-5.97,2.232-2.825,4.518-1.348,7.447-.821a10.634,10.634,0,0,0,8.464-2c1.766-1.57-1.286-6.164,1.477-7.837,2.686-1.627,5.667-2.654,5.021-4.134" transform="translate(35.966 32.223)" fill="#b49860"/>
        <path id="Trazado_276299" data-name="Trazado 276299" d="M118.724,131.11c-4.6-4.92-4.569-11.427-4.8-17.684-.184-4.993.563-11.873-1.361-16.539-3.546-8.609-13.724-15.093-21.917-19.3-1.032-.53-2.044-.327-.934.551A19.952,19.952,0,0,0,93.8,80.6a37.924,37.924,0,0,1,9.362,6.4c4.886,4.468,6.545,10.458,7.7,16.929,1.056,5.918.285,11.786.9,17.712a12.475,12.475,0,0,0,6.45,10.085c1.034.55.859-.25.518-.614" transform="translate(35.941 31.136)" fill="#5d5c4b"/>
        <path id="Trazado_276300" data-name="Trazado 276300" d="M107.3,83.018a117.788,117.788,0,0,0-16.543-10.4c-1.349-.64-2.166-.051-1.338.466,5.129,3.2,10.347,6.508,15.269,10.008,4.316,3.066,7.307,5.725,9.978,10.11a18.271,18.271,0,0,1,1.73,3.973c.154.429.955,2.658.955,1.428a14.124,14.124,0,0,0-1.84-6.891,31.654,31.654,0,0,0-8.211-8.689" transform="translate(35.883 29.136)" fill="#5d5c4b"/>
        <path id="Trazado_276301" data-name="Trazado 276301" d="M119.348,123.344c-6.063-6.524-6.338-14.373-7.338-22.882a12.9,12.9,0,0,0-1.864-5.512c-.8-1.23-.964-.787-.591.379,1.974,6.169,2.15,13.007,3.51,19.307.846,3.925,2.491,9.357,6.726,9.695,1,.079-.06-.572-.443-.986" transform="translate(44.051 37.949)" fill="#5d5c4b"/>
        <path id="Trazado_276302" data-name="Trazado 276302" d="M104.822,104.644A25.451,25.451,0,0,0,94.435,86.433c-.006,0-.013.006-.007.01,5.669,4.863,8.55,12.765,8.94,20.082a45.1,45.1,0,0,1-1.162,12.077c-.852,3.859-2.519,7.5-3.273,11.367a.186.186,0,0,0,.338.142c4.6-6.9,6.482-17.309,5.551-25.466" transform="translate(38.034 34.815)" fill="#5d5c4b"/>
        <path id="Trazado_276303" data-name="Trazado 276303" d="M94.234,93.629c-.842,3.41-2.2,9.354-4.452,14.118-.565,1.194-1.312,3.128.168,3.991,4.36,2.542,5.342-9.568,4.284-18.109" transform="translate(35.883 37.713)" fill="#b49860"/>
        <path id="Trazado_276304" data-name="Trazado 276304" d="M117.332,82.255c-2.678-2.484-8.133-5.507-11.574-5.613a25.083,25.083,0,0,1,5.923,4.647c1.547,1.752,2.627,3.831,4.009,5.708.94,1.278,4.072,5.1,5.67,2.477,1.424-2.343-2.577-5.875-4.027-7.22" transform="translate(42.599 30.871)" fill="#d3aa58"/>
        <path id="Trazado_276305" data-name="Trazado 276305" d="M107.08,80.388c-1.243-.927-3.922-1.342-2.348.1,1.717,1.577,1.782,2.138,3.423,3.795.821.828,1.936,2.6,3.2,2.63a.483.483,0,0,0,.415-.243c.94-1.577-2.078-4.335-4.694-6.286" transform="translate(41.991 32.041)" fill="#d3aa58"/>
        <path id="Trazado_276306" data-name="Trazado 276306" d="M90.8,88.632s4.767,4,6.226,8.216c1.927,5.566,2.236,18.73,1.655,24.118-.369,3.424-.421,6.335-1.7,9.054-1.408,3-3.109,4.238-1.083,4.434s5.085-5.265,6.087-11.986.833-22.846-1.937-28.07-13.2-10.737-13.2-10.737,1.667,3.831,3.953,4.97" transform="translate(34.982 33.699)" fill="#5d5c4b"/>
        <path id="Trazado_276307" data-name="Trazado 276307" d="M99.221,96.914c-.579-.672-1.15-.844-1.766-.219a3.351,3.351,0,0,0-.62,2.395c-.1.739-.487,9.372-.074,10.364a1.082,1.082,0,0,0,1.85.41c1.265-1.045,1.321-4.684,1.438-6.248.137-1.818.5-5.155-.828-6.7" transform="translate(38.9 38.792)" fill="#d3aa58"/>
        <path id="Trazado_276308" data-name="Trazado 276308" d="M124.575,111.795c-.675-.53-2.905-1.669-3.548-2.226-4.273-3.694-5.847-8.063-6.85-10.367-.188-.432-.8-.17-.819.223-.076,1.364,2.25,8.926,3.823,10.992,1.16,1.523,4.507,5.075,6.857,4.26,2.1-.731,1.824-1.873.537-2.883" transform="translate(45.66 39.868)" fill="#d3aa58"/>
        <path id="Trazado_276309" data-name="Trazado 276309" d="M104.316,105.733c-.093-.359-.714-.405-.774,0a21.166,21.166,0,0,0-.164,5.893c.006,2.04.056,4.082-.1,6.1-.234,3.031-1.955,5.158-2.686,7.927-.435,1.644.323,3.118,2.221,2.547,2.333-.7,2.583-4.949,2.786-6.674a42.728,42.728,0,0,0-1.282-15.8" transform="translate(40.47 42.473)" fill="#d3aa58"/>
        <path id="Trazado_276310" data-name="Trazado 276310" d="M174.126,134.116c-2.707-1.564-7.1-.955-10.079-.87a45.233,45.233,0,0,0-11.9,2.051c-5.329,1.631-14.383,5.942-19.5,8.518-5.948,2.992-22.508,12.3-23.462,17.073-.964,4.807,4.072,4.245,7.433,4.471,8.5.568,13.534-2.235,22.025-2.235,11.959,0,13.794.724,15.866-5.043,1.383-3.852.14-6.583,3.6-9.423,3.283-2.695,9.174-5.07,12.893-6.614,3.549-1.474,7.071-5.646,3.121-7.929" transform="translate(43.933 53.595)" fill="#455051"/>
        <path id="Trazado_276311" data-name="Trazado 276311" d="M225.837,139.649c-3.125-.1-7.1-.955-10.079-.87a45.235,45.235,0,0,0-11.9,2.052c-5.329,1.63-14.383,5.941-19.5,8.516-5.948,2.992-22.508,12.3-23.462,17.073-.964,4.807,7.777,4.89,11.14,5.116,8.5.568,16.874-3.344,22.037-6.646,12.288-7.86,14.689-5.592,18.147-8.431a98.644,98.644,0,0,1,16.228-9.719c3.55-1.474,7.175-6.781-2.613-7.093" transform="translate(64.78 55.897)" fill="#455051"/>
        <path id="Trazado_276312" data-name="Trazado 276312" d="M61.8,152.809c3.125-.1,7.1-.955,10.079-.87a45.234,45.234,0,0,1,11.9,2.051c5.329,1.631,14.383,5.942,19.5,8.518,5.948,2.992,22.508,12.3,23.462,17.072.964,4.807-7.778,4.892-11.14,5.117-8.5.568-16.874-3.344-22.037-6.646-12.288-7.86-13.977-6.8-18.147-8.431-8.54-3.329-14.088-7.757-17.807-9.3-3.549-1.474-5.6-7.2,4.193-7.509" transform="translate(22.021 61.198)" fill="#455051"/>
        <path id="Trazado_276313" data-name="Trazado 276313" d="M144.527,162.336s-2.835-.362-3.506.551,2.376,3.751,4.594,5.43,6.735,2.641,9.827,3.225,4.465,2.535,7.062,3.973,5.786,0,7.073-2.1-.585-3.454-7.23-3.766c-5.044-1.87-17.82-7.309-17.82-7.309" transform="translate(56.765 65.36)" fill="#455051"/>
        <path id="Trazado_276314" data-name="Trazado 276314" d="M109.59,140.546s2.835-.362,3.506.551-2.375,3.751-4.593,5.43-6.735,2.64-9.828,3.225-4.465,2.535-7.062,3.973-5.787,0-7.071-2.1.584-3.454,7.229-3.767c5.046-1.87,17.82-7.309,17.82-7.309" transform="translate(33.9 56.583)" fill="#455051"/>
        <path id="Trazado_276315" data-name="Trazado 276315" d="M186.822,150.962a10.687,10.687,0,0,1,6.551-1.933c3.507.328,7.1.854,7.1.854s-4.127,3.245-8.948,2.28c-1.972-.394-4.7-1.2-4.7-1.2" transform="translate(75.251 60.015)" fill="#aa8977"/>
        <path id="Trazado_276316" data-name="Trazado 276316" d="M171.459,147.837s4.878-4.253,9.169-5.831,5.782-1.1,5.782-1.1l3.382,2.148Z" transform="translate(69.063 56.73)" fill="#bca08e"/>
        <path id="Trazado_276317" data-name="Trazado 276317" d="M198.366,147.515c1.616-1.076,7.411-3.647,12-5.618-.376-.755-1.171-1.112-1.278-.979-10.521.506-21.5.494-31.214,4.416a30.638,30.638,0,0,0-10.19,6.679,12.694,12.694,0,0,1,7.669,1.941,9.121,9.121,0,0,1,3.737,5.775,26.069,26.069,0,0,0,5.368-2.138c3.357-1.929,11.124-8.222,13.912-10.076" transform="translate(67.541 56.75)" fill="#d6bfad"/>
        <path id="Trazado_276318" data-name="Trazado 276318" d="M175.421,166.136a30.991,30.991,0,0,0,11.231-5.683c5.089-3.841,8.671-9.793,14.454-12.478,6.251-2.9,6.743-5.151,6.137-6.369-4.584,1.972-10.378,4.544-11.994,5.62-2.789,1.854-10.556,8.147-13.911,10.076a26.188,26.188,0,0,1-5.369,2.136,12.593,12.593,0,0,1-.548,6.7" transform="translate(70.659 57.039)" fill="#d6bfad"/>
        <g id="Grupo_564079" data-name="Grupo 564079" transform="translate(246.08 198.647)" opacity="0.5">
          <g id="Grupo_564078" data-name="Grupo 564078">
            <g id="Grupo_564077" data-name="Grupo 564077" clip-path="url(#clip-path-7)">
              <path id="Trazado_276319" data-name="Trazado 276319" d="M175.421,166.136a30.991,30.991,0,0,0,11.231-5.683c5.089-3.841,8.671-9.793,14.454-12.478,6.251-2.9,6.743-5.151,6.137-6.369-4.584,1.972-10.378,4.544-11.994,5.62-2.789,1.854-10.556,8.147-13.911,10.076a26.188,26.188,0,0,1-5.369,2.136,12.593,12.593,0,0,1-.548,6.7" transform="translate(-175.421 -141.608)" fill="#bca08e"/>
            </g>
          </g>
        </g>
        <path id="Trazado_276320" data-name="Trazado 276320" d="M177.349,150.763a12.7,12.7,0,0,0-7.669-1.941c-.621.616-1.23,1.253-1.808,1.932-1.762,2.071-6.721,6.985-4.67,9.991,1.157,1.7,4.276,1.97,6.05,2.343a27.56,27.56,0,0,0,8.846.6,20.761,20.761,0,0,0,2.439-.453c1.519-4.227.995-9.55-3.189-12.472" transform="translate(65.54 59.941)" fill="#bca08e"/>
        <path id="Trazado_276321" data-name="Trazado 276321" d="M192.559,142.969s1.438-3.959,9.254-5.824,11.782.909,11.782.909-5.143,2.058-7.54,4.6c4.374.9,11.177-.4,11.177-.4a11.163,11.163,0,0,1-8.021,6.488c-5.427,1.164-12.631.058-12.631.058a16.481,16.481,0,0,0,3.76-5.143c-2.618-1.133-6.174-.787-7.781-.7" transform="translate(77.562 54.982)" fill="#bca08e"/>
        <path id="Trazado_276322" data-name="Trazado 276322" d="M171.042,151.9c.059.627-.666,1.206-1.62,1.295s-1.773-.346-1.831-.974.666-1.206,1.62-1.3,1.772.348,1.831.975" transform="translate(67.504 60.788)" fill="#fff"/>
        <path id="Trazado_276323" data-name="Trazado 276323" d="M175.878,146.1s7.187-3.25,12.134-.8a50.8,50.8,0,0,1,6.372,3.507,18.269,18.269,0,0,1-5.158,1.227h-3.407l3.653,2.2a9.532,9.532,0,0,1-4.841,0c-3.243-.626-7.074-6.049-8.752-6.143" transform="translate(70.843 58.161)" fill="#bca08e"/>
        <path id="Trazado_276324" data-name="Trazado 276324" d="M187.773,150.034a10.68,10.68,0,0,1,6.463-2.214c3.517.175,7.132.546,7.132.546s-3.984,3.419-8.842,2.664c-1.988-.309-4.753-1-4.753-1" transform="translate(75.634 59.538)" fill="#bca08e"/>
        <path id="Trazado_276325" data-name="Trazado 276325" d="M84.015,164.481a10.693,10.693,0,0,0-6.552-1.933c-3.507.328-7.1.854-7.1.854s4.127,3.245,8.948,2.28c1.972-.394,4.706-1.2,4.706-1.2" transform="translate(28.341 65.461)" fill="#aa8977"/>
        <path id="Trazado_276326" data-name="Trazado 276326" d="M100.72,161.356s-4.878-4.253-9.169-5.831-5.782-1.1-5.782-1.1l-3.382,2.148Z" transform="translate(33.185 62.175)" fill="#bca08e"/>
        <path id="Trazado_276327" data-name="Trazado 276327" d="M80.8,161.034c-1.616-1.076-7.411-3.647-12-5.618.376-.755,1.171-1.112,1.278-.979,10.521.506,21.5.494,31.214,4.416a30.617,30.617,0,0,1,10.189,6.679,12.7,12.7,0,0,0-7.668,1.941,9.124,9.124,0,0,0-3.737,5.775,26.066,26.066,0,0,1-5.368-2.138c-3.357-1.929-11.124-8.222-13.912-10.076" transform="translate(27.716 62.196)" fill="#d6bfad"/>
        <path id="Trazado_276328" data-name="Trazado 276328" d="M100.687,179.655a30.991,30.991,0,0,1-11.231-5.683c-5.089-3.841-8.669-9.793-14.454-12.478-6.251-2.9-6.742-5.151-6.137-6.369,4.584,1.972,10.378,4.544,12,5.618,2.787,1.856,10.555,8.149,13.91,10.078a26.184,26.184,0,0,0,5.368,2.136,12.593,12.593,0,0,0,.549,6.7" transform="translate(27.66 62.484)" fill="#d6bfad"/>
        <g id="Grupo_564082" data-name="Grupo 564082" transform="translate(96.331 217.611)" opacity="0.5">
          <g id="Grupo_564081" data-name="Grupo 564081">
            <g id="Grupo_564080" data-name="Grupo 564080" clip-path="url(#clip-path-8)">
              <path id="Trazado_276329" data-name="Trazado 276329" d="M100.687,179.655a30.991,30.991,0,0,1-11.231-5.683c-5.089-3.841-8.669-9.793-14.454-12.478-6.251-2.9-6.742-5.151-6.137-6.369,4.584,1.972,10.378,4.544,12,5.618,2.787,1.856,10.555,8.149,13.91,10.078a26.184,26.184,0,0,0,5.368,2.136,12.593,12.593,0,0,0,.549,6.7" transform="translate(-68.671 -155.127)" fill="#bca08e"/>
            </g>
          </g>
        </g>
        <path id="Trazado_276330" data-name="Trazado 276330" d="M94.907,164.282a12.7,12.7,0,0,1,7.669-1.941c.621.616,1.23,1.253,1.808,1.932,1.762,2.071,6.721,6.985,4.671,9.991-1.159,1.7-4.277,1.969-6.052,2.343a27.558,27.558,0,0,1-8.846.6,20.77,20.77,0,0,1-2.439-.453c-1.519-4.227-.995-9.55,3.189-12.472" transform="translate(36.63 65.387)" fill="#bca08e"/>
        <path id="Trazado_276331" data-name="Trazado 276331" d="M81.442,156.488S80,152.53,72.187,150.664s-11.782.91-11.782.91,5.143,2.056,7.54,4.6c-4.373.9-11.177-.394-11.177-.394a11.166,11.166,0,0,0,8.021,6.488c5.429,1.163,12.631.056,12.631.056a16.481,16.481,0,0,1-3.759-5.143c2.618-1.133,6.174-.787,7.783-.7" transform="translate(22.866 60.427)" fill="#bca08e"/>
        <path id="Trazado_276332" data-name="Trazado 276332" d="M96.866,165.421c-.059.627.668,1.206,1.62,1.3s1.773-.348,1.831-.975-.666-1.206-1.62-1.3-1.772.348-1.831.975" transform="translate(39.016 66.234)" fill="#fff"/>
        <path id="Trazado_276333" data-name="Trazado 276333" d="M96.352,159.624s-7.188-3.25-12.136-.8a50.793,50.793,0,0,0-6.372,3.507A18.27,18.27,0,0,0,83,163.563h3.409l-3.656,2.2a9.531,9.531,0,0,0,4.841,0c3.243-.626,7.074-6.049,8.753-6.143" transform="translate(31.356 63.606)" fill="#bca08e"/>
        <path id="Trazado_276334" data-name="Trazado 276334" d="M83.047,163.553a10.685,10.685,0,0,0-6.463-2.214c-3.518.175-7.133.546-7.133.546s3.984,3.419,8.842,2.664c1.988-.309,4.754-1,4.754-1" transform="translate(27.975 64.983)" fill="#bca08e"/>
        <path id="Trazado_276335" data-name="Trazado 276335" d="M138.966,138.033a13.982,13.982,0,0,1,8.62-4.7,25.814,25.814,0,0,1,8.417,0s-1.286,1.986-5.26,3.74-11.776.962-11.776.962" transform="translate(55.975 53.579)" fill="#aa8977"/>
        <path id="Trazado_276336" data-name="Trazado 276336" d="M126.77,146.324c-8.692,5.422-12.876,10.6-14.484,12.959a12.9,12.9,0,0,0,7.365,1.281c5.6-.446,20.084-6.025,25.116-10.367a79.1,79.1,0,0,0,10.109-11.354l-1.657-1.8c-6.4,1.27-18.211,4.147-26.448,9.285" transform="translate(45.228 55.199)" fill="#d6bfad"/>
        <path id="Trazado_276337" data-name="Trazado 276337" d="M127.317,146.555c8.237-5.138,20.053-8.016,26.448-9.285l-.736-.8s-17.39.735-26.4,5.178-13.9,10.225-15.128,12.69c-1.183,2.386-.419,4.107,1.335,5.179,1.608-2.36,5.792-7.537,14.484-12.959" transform="translate(44.681 54.968)" fill="#d6bfad"/>
        <g id="Grupo_564085" data-name="Grupo 564085" transform="translate(155.609 191.435)" opacity="0.5">
          <g id="Grupo_564084" data-name="Grupo 564084">
            <g id="Grupo_564083" data-name="Grupo 564083" clip-path="url(#clip-path-9)">
              <path id="Trazado_276338" data-name="Trazado 276338" d="M127.317,146.555c8.237-5.138,20.053-8.016,26.448-9.285l-.736-.8s-17.39.735-26.4,5.178-13.9,10.225-15.128,12.69c-1.183,2.386-.419,4.107,1.335,5.179,1.608-2.36,5.792-7.537,14.484-12.959" transform="translate(-110.928 -136.467)" fill="#bca08e"/>
            </g>
          </g>
        </g>
        <path id="Trazado_276339" data-name="Trazado 276339" d="M126.717,147.321a11.7,11.7,0,0,1,1.546,8.413,29.578,29.578,0,0,1-12.81,2.911c-3.831,0-6.558-3.525-3.3-8.313a19.377,19.377,0,0,1,5.13-5.434s6-2.72,9.437,2.424" transform="translate(44.59 58.075)" fill="#bca08e"/>
        <path id="Trazado_276340" data-name="Trazado 276340" d="M119.57,151.69c.185.433-.3,1.058-1.094,1.394s-1.58.261-1.765-.173.306-1.058,1.094-1.394,1.58-.261,1.765.173" transform="translate(46.995 60.946)" fill="#fff"/>
        <path id="Trazado_276341" data-name="Trazado 276341" d="M127.027,150.426a11.316,11.316,0,0,1,8.3-3.221c4.91.351,10.521.527,10.521.527a48.432,48.432,0,0,1-5.578,2.162,10.782,10.782,0,0,1-2.966.532,38.851,38.851,0,0,0,3.7,2.014,10.776,10.776,0,0,1,3.32,2.493s-2.006.6-7.022,0-10.278-4.507-10.278-4.507" transform="translate(51.166 59.284)" fill="#bca08e"/>
        <path id="Trazado_276342" data-name="Trazado 276342" d="M133.275,138.508l-2.6.678a10.1,10.1,0,0,0,4.3,2.339c2.514.584,7.338-.234,7.338-.234s-5.642-2.758-9.033-2.782" transform="translate(52.634 55.79)" fill="#aa8977"/>
        <path id="Trazado_276343" data-name="Trazado 276343" d="M130.671,139.571a8.647,8.647,0,0,1,6.335-1.988,17.548,17.548,0,0,1,5.3.979,22.461,22.461,0,0,1-5.3,1.594,21.163,21.163,0,0,1-6.335-.585" transform="translate(52.634 55.405)" fill="#bca08e"/>
        <path id="Trazado_276344" data-name="Trazado 276344" d="M152.276,135.025a31.576,31.576,0,0,0-13.31,2.482,14.763,14.763,0,0,1,2.782.772c1.314.533.962,3.527.962,3.527a19.485,19.485,0,0,0,9.566-1.612,56.584,56.584,0,0,0,9.164-5.869s-2.281,1.139-9.164.7" transform="translate(55.975 54.105)" fill="#bca08e"/>
        <path id="Trazado_276345" data-name="Trazado 276345" d="M100.087,141.292c-5.081,2.062-10.644,7.41-10.644,7.41s8.828-.175,13.509-2.747,6.373-5.019,6.373-5.019-2.839-2.24-9.237.356" transform="translate(36.027 56.407)" fill="#d3aa58"/>
        <path id="Trazado_276346" data-name="Trazado 276346" d="M92.9,145.034a1.567,1.567,0,0,1,1.509,1.451c-.491.927-2,3.72-3.092,4.4a7.426,7.426,0,0,1-2.587.877s.715-1.58,1.239-2.5a8.143,8.143,0,0,1,1.874-2.017,40.305,40.305,0,0,1-4,1.1,19.194,19.194,0,0,1-2.309.264s.144-1.389,2.323-2.674a8.935,8.935,0,0,1,5.046-.9" transform="translate(34.452 58.398)" fill="#c49543"/>
        <path id="Trazado_276347" data-name="Trazado 276347" d="M100.676,142.912A16.955,16.955,0,0,0,98.4,144.8c-.483.613-1.491,2.28-1.491,2.28a6.038,6.038,0,0,0,3.2-1.209,5.415,5.415,0,0,0,1.233-1.885l-1.452.551a4.894,4.894,0,0,0,.788-1.622" transform="translate(39.033 57.564)" fill="#c49543"/>
        <path id="Trazado_276348" data-name="Trazado 276348" d="M98.709,141.809a9.179,9.179,0,0,0-3.1.759,10.194,10.194,0,0,0-1.762,1.514,4.155,4.155,0,0,0,2.061.226,3.175,3.175,0,0,0,2.806-2.5" transform="translate(37.8 57.12)" fill="#c49543"/>
        <path id="Trazado_276349" data-name="Trazado 276349" d="M99.127,140.369a5.828,5.828,0,0,1,2.145,1.38,5.277,5.277,0,0,1,.77,2.331s2.841-1.707,3.382-3.134c-1.392-1.688-6.3-.578-6.3-.578" transform="translate(39.928 56.396)" fill="#c49543"/>
        <path id="Trazado_276350" data-name="Trazado 276350" d="M151.678,162.827c5.081,2.061,10.643,7.41,10.643,7.41s-8.828-.175-13.508-2.747-6.373-5.019-6.373-5.019,2.838-2.24,9.237.356" transform="translate(57.375 65.081)" fill="#d3aa58"/>
        <path id="Trazado_276351" data-name="Trazado 276351" d="M155.706,166.569a1.567,1.567,0,0,0-1.509,1.45c.49.927,2,3.72,3.09,4.4a7.427,7.427,0,0,0,2.587.877s-.713-1.58-1.239-2.5a8.143,8.143,0,0,0-1.874-2.017,40.37,40.37,0,0,0,4.005,1.1,19.157,19.157,0,0,0,2.308.264s-.143-1.389-2.323-2.674a8.931,8.931,0,0,0-5.044-.9" transform="translate(62.11 67.072)" fill="#c49543"/>
        <path id="Trazado_276352" data-name="Trazado 276352" d="M146.654,164.447a16.955,16.955,0,0,1,2.28,1.885c.483.613,1.491,2.28,1.491,2.28a6.025,6.025,0,0,1-3.2-1.209,5.415,5.415,0,0,1-1.233-1.885l1.452.551a4.861,4.861,0,0,1-.788-1.622" transform="translate(58.804 66.239)" fill="#c49543"/>
        <path id="Trazado_276353" data-name="Trazado 276353" d="M148.745,163.344a9.18,9.18,0,0,1,3.1.759,10.256,10.256,0,0,1,1.762,1.514,4.159,4.159,0,0,1-2.061.226,3.173,3.173,0,0,1-2.806-2.5" transform="translate(59.914 65.794)" fill="#c49543"/>
        <path id="Trazado_276354" data-name="Trazado 276354" d="M148.738,161.9a5.8,5.8,0,0,0-2.145,1.38,5.266,5.266,0,0,0-.772,2.331s-2.842-1.707-3.381-3.132c1.39-1.689,6.3-.579,6.3-.579" transform="translate(57.375 65.07)" fill="#c49543"/>
        <path id="Trazado_276355" data-name="Trazado 276355" d="M190.718,116.176s-2.836-.362-3.507.551,2.376,3.751,4.594,5.43,6.733,2.64,9.827,3.225,4.465,2.535,7.062,3.973,5.787,0,7.073-2.1-.585-3.454-7.23-3.767c-5.044-1.87-17.818-7.309-17.818-7.309" transform="translate(75.37 46.767)" fill="#455051"/>
        <path id="Trazado_276356" data-name="Trazado 276356" d="M197.868,116.667c5.081,2.061,10.643,7.41,10.643,7.41S199.684,123.9,195,121.33s-6.373-5.019-6.373-5.019,2.838-2.24,9.237.356" transform="translate(75.98 46.488)" fill="#d3aa58"/>
        <path id="Trazado_276357" data-name="Trazado 276357" d="M201.9,120.409a1.567,1.567,0,0,0-1.509,1.451c.491.927,2,3.72,3.092,4.4a7.427,7.427,0,0,0,2.587.877s-.715-1.58-1.24-2.5a8.121,8.121,0,0,0-1.873-2.017,40.577,40.577,0,0,0,4,1.1,19.353,19.353,0,0,0,2.309.262s-.144-1.389-2.323-2.674a8.936,8.936,0,0,0-5.046-.9" transform="translate(80.715 48.479)" fill="#c49543"/>
        <path id="Trazado_276358" data-name="Trazado 276358" d="M192.844,118.287a16.955,16.955,0,0,1,2.28,1.885c.483.613,1.491,2.28,1.491,2.28a6.026,6.026,0,0,1-3.2-1.209,5.415,5.415,0,0,1-1.233-1.885l1.452.551a4.894,4.894,0,0,1-.788-1.622" transform="translate(77.409 47.646)" fill="#c49543"/>
        <path id="Trazado_276359" data-name="Trazado 276359" d="M194.935,117.185a9.179,9.179,0,0,1,3.1.759,10.2,10.2,0,0,1,1.762,1.514,4.155,4.155,0,0,1-2.061.226,3.175,3.175,0,0,1-2.806-2.5" transform="translate(78.519 47.202)" fill="#c49543"/>
        <path id="Trazado_276360" data-name="Trazado 276360" d="M194.928,115.744a5.828,5.828,0,0,0-2.145,1.38,5.277,5.277,0,0,0-.77,2.331s-2.842-1.707-3.382-3.132c1.39-1.689,6.3-.579,6.3-.579" transform="translate(75.98 46.477)" fill="#c49543"/>
        <path id="Trazado_276361" data-name="Trazado 276361" d="M179.567,136.3c-4.795.967-10.555,1.739-14.224,5.251-3.521,3.369-7.548,8-9.463,12.552-1.814,4.312-.675,7.464,3.1,9.979-.26-2.961.536-4.87.438-6.481-.254-4.123,3.2-4.986,5.924-7.447,2.09-1.888,7.112-5.7,9.35-7.411,2.626-2.01,6.4-4.683,9.588-4.977,5.453-.5,8.9,1.818,14.33,1.247,2.587-.272,7.237-2.229,8.225-4.782-12.649,1.3-21.927.993-27.265,2.069" transform="translate(62.447 54.067)" fill="#7a7c66"/>
        <path id="Trazado_276362" data-name="Trazado 276362" d="M205.574,157.236c-5.977,5.469-11.058,8.171-14.612,9.072-6.956,1.762-14.47,1.748-23.769.679,6.429,4.539,14.085,6.784,22,3.51,7.014-2.9,11.135-2.031,14.613-4.19,3.339-2.073,4.441-6.2,1.769-9.07" transform="translate(67.345 63.334)" fill="#7a7c66"/>
        <path id="Trazado_276363" data-name="Trazado 276363" d="M151.452,152.409c-1.648,1.041-2.994,3.374-4.4,4.814-2.94,2.092-6,1.427-9.73,1.776-3.149.295-5.411.087-9.721,1.975a18.737,18.737,0,0,0,16.8.917c3.535-1.643,9.438-4.669,7.057-9.483" transform="translate(51.396 61.39)" fill="#7a7c66"/>
        <path id="Trazado_276364" data-name="Trazado 276364" d="M55.225,162.948c1.648,1.041,2.994,3.374,4.4,4.814,2.94,2.092,6,1.427,9.731,1.776,3.148.295,5.409.087,9.72,1.975a18.737,18.737,0,0,1-16.8.917c-3.535-1.643-9.438-4.669-7.057-9.483" transform="translate(22.023 65.635)" fill="#7a7c66"/>
        <path id="Trazado_276365" data-name="Trazado 276365" d="M114.245,145.335c-3.674-.854-8.156,1.8-10.172,4.869a2.318,2.318,0,0,0,.135,3.026c.26.331.5.29.724.7s.1.868.189,1.323a7.09,7.09,0,0,0,1.3,3.013c.763-6.146,1.7-9.341,7.822-12.935" transform="translate(41.72 58.475)" fill="#7a7c66"/>
        <path id="Trazado_276366" data-name="Trazado 276366" d="M75.348,129.157c-1-.356-8.974-3.94-16.159-6.736S44.847,124,41.54,124.96s-7.912.843-12.028,2.926a11.859,11.859,0,0,0-6.522,8.5c-.233,1.9.372,3.211,5.246,5.589s13.547-1.884,16.928-.805,5.893,5.634,12.176,5.11a83.012,83.012,0,0,0,15.016-2.634c11.075-3.121,11.535-11.424,2.991-14.485" transform="translate(9.244 48.939)" fill="#524535"/>
        <path id="Trazado_276367" data-name="Trazado 276367" d="M65.833,129.4a33.158,33.158,0,0,0-5.4-1.341c-3.169-.526-4.5,1.929-7.08,4.033S46.57,137,46.57,137a32.383,32.383,0,0,0,9.632-1.213c4.4-1.417,9.632-6.388,9.632-6.388" transform="translate(18.758 51.552)" fill="#423629"/>
        <path id="Trazado_276368" data-name="Trazado 276368" d="M43.212,126.756c4.267.986,10.8,3.252,13.426,2.738a63.375,63.375,0,0,0,6.488-1.825s-2.63,4.406-5.962,5.4-5.982,3.012-10.968,1.741-8.972.334-13.293.408a9.332,9.332,0,0,1-6.543-2.149s10.452-7.794,16.852-6.314" transform="translate(10.618 50.981)" fill="#423629"/>
        <path id="Trazado_276369" data-name="Trazado 276369" d="M35.8,114s-.756,4.455-1.286,4.885a2.814,2.814,0,0,0-.751,2.956c-.178,2.023,1.7,4.716,2.037,7.656-1.7,2.338-.29,5.385-.29,5.385a5.865,5.865,0,0,1,2.1-1.181,5.013,5.013,0,0,1,3.779.53,3.183,3.183,0,0,1,1.762-2.017,7.465,7.465,0,0,1,2.069-.543s-6.272-1.812-7.185-2.8-2.463-5.948-2.452-6.582c.779-.453.779-1.669.779-3.083a42.468,42.468,0,0,0,1.925-4.332Z" transform="translate(13.533 45.921)" fill="#ffb82a"/>
        <path id="Trazado_276370" data-name="Trazado 276370" d="M43.476,111.284s-.756,4.454-1.286,4.885a2.812,2.812,0,0,0-.75,2.954c-.178,2.024,1.7,4.718,2.037,7.658-1.7,2.338-.29,5.385-.29,5.385a5.863,5.863,0,0,1,2.1-1.181,5.008,5.008,0,0,1,3.778.53,3.183,3.183,0,0,1,1.762-2.017,7.465,7.465,0,0,1,2.069-.543s-6.272-1.812-7.185-2.8-2.463-5.946-2.452-6.581c.78-.454.78-1.671.78-3.083a42.666,42.666,0,0,0,1.923-4.332Z" transform="translate(16.626 44.825)" fill="#ffb82a"/>
        <path id="Trazado_276371" data-name="Trazado 276371" d="M51.155,99.729a39.206,39.206,0,0,0-10.114.15,119.442,119.442,0,0,1-12.817,1.48c-3.868.086-4.539.955-3.079,1.81s14.686,2.507,18.594.979a31.572,31.572,0,0,0,7.417-4.419" transform="translate(9.841 40.071)" fill="#423629"/>
        <path id="Trazado_276372" data-name="Trazado 276372" d="M49.235,123.18a11.868,11.868,0,0,0,7.649-1.525c3.333-2.236,6.007-11.213,5.259-13.947a20.8,20.8,0,0,0-2.28-5.068s3.507,1.786,4.746.8a3.629,3.629,0,0,0,1.147-2.775l7.079.787a3.5,3.5,0,0,0,.938-2.521c-.527-4.892-3.156-6.329-7.014-7.825A7.036,7.036,0,0,0,59.4,92.62c-1.571,1.356-1.87,2.423-2.982,5.495a8.235,8.235,0,0,1-4.73,5.047c-5.481,2.132-11.8,1.33-17.448,3.378-1.87.547-5.332.432-6.986,1.383-3.343,0-6.986.014-8.767,1.014,2.9,1.711,9.173,4.323,13.366,7.673a6.027,6.027,0,0,1,.95,1c2.4,1.61,5.213,3.527,7.393,5.084a8.173,8.173,0,0,0,9.045.49" transform="translate(7.444 36.511)" fill="#eadac7"/>
        <path id="Trazado_276373" data-name="Trazado 276373" d="M42.953,124.35c4.3-.045,9.115-.518,12.113-1.54,6.707-2.288,10.1-6.606,9.981-11.078a13.19,13.19,0,0,0-1.154-5.952c-.553-1.612-.567-2.94,1.051-4.047a17.9,17.9,0,0,0,3.782-3.159l-7.079-.787a3.627,3.627,0,0,1-1.147,2.775c-1.239.988-4.746-.8-4.746-.8a20.715,20.715,0,0,1,2.28,5.067c.748,2.734-1.925,11.711-5.259,13.947a11.857,11.857,0,0,1-7.649,1.525,8.173,8.173,0,0,1-9.045-.49c-2.179-1.557-4.994-3.472-7.393-5.082,2.545,3.228,4.1,9.726,14.266,9.62" transform="translate(11.555 39.388)" fill="#d1c0ae"/>
        <path id="Trazado_276374" data-name="Trazado 276374" d="M32.423,104.07s-7.715-2.113-11.4-3.33-4.734-.187-3.682,1.665,8.417,4.316,10.7,5.012,4.384-3.347,4.384-3.347" transform="translate(6.83 40.365)" fill="#423629"/>
        <path id="Trazado_276375" data-name="Trazado 276375" d="M46.947,101.974s-2.786,4.081-1.159,6.342c4.335,1.9,3.3,4.987,1.89,6.975-1.292,1.822-5.53,3.6-7.929,4.178s-6.759-1.476-10.19-4.19-5.768-7.314-6.937-10.392,1.783-2.134,1.783-2.134-.7-2.411.788-1.847c1.551.588,3.419,1.441,5.333,1.991s11.753-1.69,16.42-.922" transform="translate(9.002 40.61)" fill="#524535"/>
        <path id="Trazado_276376" data-name="Trazado 276376" d="M52.183,97.9s1.8,1.337,4.618,3.218c2.364,1.577,6.924,3.939,10.838,5.925-.088-3.649-2.1-3.674-4.91-5.925A17.45,17.45,0,0,1,59.067,97.5s-4.663.386-6.884.407" transform="translate(21.019 39.271)" fill="#f4a61e"/>
        <path id="Trazado_276377" data-name="Trazado 276377" d="M77.46,134.576S73.844,137.742,66.489,137a32.473,32.473,0,0,1-8.8-2.12s0-10.745.743-18.176c.436-4.373,3.093-15.756,3.093-15.756a59.477,59.477,0,0,1,12.315,1.264,79.192,79.192,0,0,1,9.787,3.264s-3.32,6.607-6.171,11.176c-.842,3.024,0,17.924,0,17.924" transform="translate(23.238 40.661)" fill="#9ba626"/>
        <path id="Trazado_276378" data-name="Trazado 276378" d="M61.555,100.948a39.284,39.284,0,0,1,.513,13.871c-1.136,7.2-.056,17.413-.056,17.413l-4.294,2.648s-.488-10.973.743-18.177,3.093-15.755,3.093-15.755" transform="translate(23.21 40.661)" fill="#94992b"/>
        <path id="Trazado_276379" data-name="Trazado 276379" d="M57.692,125.9l4.293-2.647s6.339,2.647,8.676,2.647,6.8-.3,6.8-.3a22.8,22.8,0,0,1-6.8,2.674c-3.858.805-12.969-2.369-12.969-2.369" transform="translate(23.238 49.644)" fill="#7c8520"/>
        <path id="Trazado_276380" data-name="Trazado 276380" d="M63.184,105.755s-.351,3.553-.7,6.252-.585,6.266-.585,6.266,3.786-.212,6.3-.039c2.846.579,5.854,1.5,5.854,1.5V115l3.974-7.136a52.238,52.238,0,0,0-7.13-1.665c-2.806-.332-7.715-.439-7.715-.439" transform="translate(24.932 42.598)" fill="#ffb82a"/>
        <path id="Trazado_276381" data-name="Trazado 276381" d="M61.9,116.431a27.636,27.636,0,0,1,5.611,0,48.213,48.213,0,0,1,6.313,1.946v1.912a38.936,38.936,0,0,0-5.962-1.912,25.474,25.474,0,0,0-5.962,0Z" transform="translate(24.933 46.835)" fill="#ffb82a"/>
        <path id="Trazado_276382" data-name="Trazado 276382" d="M61.9,119.48a27.637,27.637,0,0,1,5.611,0,48.214,48.214,0,0,1,6.313,1.946v1.912a38.938,38.938,0,0,0-5.962-1.912,25.474,25.474,0,0,0-5.962,0Z" transform="translate(24.933 48.063)" fill="#ffb82a"/>
        <path id="Trazado_276383" data-name="Trazado 276383" d="M52.183,98.649s4.314,1.789,8.415,3.71a32.6,32.6,0,0,1,7.571,4.84s.8-3.4-2.706-6.574c-.993-.9-4.019-3.792-5.464-4.977-1.213.816-1.435,1.589-3.608,2.437a17.253,17.253,0,0,1-4.208.564" transform="translate(21.019 38.527)" fill="#ffb82a"/>
        <path id="Trazado_276384" data-name="Trazado 276384" d="M52.344,95.174c-.853-.638-1.676-.88-1.906,0s.525,1.857,1.906,1.682.6-1.234,0-1.682" transform="translate(20.3 38.105)" fill="#524535"/>
        <path id="Trazado_276385" data-name="Trazado 276385" d="M23.5,105.117a2.678,2.678,0,0,1,.877-1.048,5.713,5.713,0,0,1,1.286-.871s-1.4-.692-2.163,0,0,1.919,0,1.919" transform="translate(9.328 41.444)" fill="#eadac7"/>
        <path id="Trazado_276386" data-name="Trazado 276386" d="M24.579,106.532a2.678,2.678,0,0,1,.877-1.048,5.713,5.713,0,0,1,1.286-.871s-1.4-.692-2.163,0,0,1.919,0,1.919" transform="translate(9.764 42.014)" fill="#eadac7"/>
        <path id="Trazado_276387" data-name="Trazado 276387" d="M26.338,105.915a2.7,2.7,0,0,1,.633-1.211,5.678,5.678,0,0,1,1.072-1.125s-1.518-.377-2.114.46.41,1.876.41,1.876" transform="translate(10.368 41.687)" fill="#eadac7"/>
        <path id="Trazado_276388" data-name="Trazado 276388" d="M26.728,108.794a2.692,2.692,0,0,1,.261-1.341,5.709,5.709,0,0,1,.706-1.385s-1.563.073-1.894,1.045.927,1.681.927,1.681" transform="translate(10.37 42.724)" fill="#eadac7"/>
      </g>
    </g>
  </g>
</svg>
