<svg id="Grupo_576849" data-name="Grupo 576849" xmlns="http://www.w3.org/2000/svg" xmlns:xlink="http://www.w3.org/1999/xlink" width="208.714" height="191.071" viewBox="0 0 208.714 191.071">
  <defs>
    <clipPath id="clip-path">
      <rect id="Rectángulo_204467" data-name="Rectángulo 204467" width="208.714" height="191.071" fill="none"/>
    </clipPath>
  </defs>
  <g id="Grupo_564797" data-name="Grupo 564797" transform="translate(0)" clip-path="url(#clip-path)">
    <path id="Trazado_277624" data-name="Trazado 277624" d="M193.181,191.072H15.533A15.511,15.511,0,0,1,1.971,168.035L90.795,7.985a15.511,15.511,0,0,1,27.124,0l88.824,160.05a15.511,15.511,0,0,1-13.562,23.037" transform="translate(0 -0.001)" fill="#ffb923"/>
    <path id="Trazado_277625" data-name="Trazado 277625" d="M217.584,209.429H53.609a8.569,8.569,0,0,1-7.32-12.728L128.276,45.477a8.279,8.279,0,0,1,14.64,0L224.9,196.7a8.569,8.569,0,0,1-7.32,12.728" transform="translate(-31.239 -28.366)" fill="#ffb923"/>
    <path id="Trazado_277626" data-name="Trazado 277626" d="M217.584,209.429H53.609a8.569,8.569,0,0,1-7.32-12.728L128.276,45.477a8.279,8.279,0,0,1,14.64,0L224.9,196.7A8.569,8.569,0,0,1,217.584,209.429Z" transform="translate(-31.239 -28.366)" fill="none" stroke="#000" stroke-miterlimit="10" stroke-width="14"/>
    <path id="Trazado_277627" data-name="Trazado 277627" d="M245.285,234.624a5.2,5.2,0,0,1,3.991,1.808,5.773,5.773,0,0,1,1.327,3.95v27.056c0,.708-.02,1.386.873,1.842a1.436,1.436,0,0,0,1.964-1.322V230.741a5.424,5.424,0,0,1,3.415-5,5.2,5.2,0,0,1,7.021,4.864v37.832c1.362,1.778,3.275.729,3.275-.7V226.612a5.424,5.424,0,0,1,3.415-5,5.2,5.2,0,0,1,7.021,4.864v41.961c1.362,1.778,3.275.729,3.275-.7V231.3a5.424,5.424,0,0,1,3.415-5,5.2,5.2,0,0,1,7.021,4.864v53.27l7.549-15.585c1.948-4.021,8.832-9.537,13.048-7.509a3.6,3.6,0,0,1,1.79,4.775L297,300.564l-2.351,4.34a33.73,33.73,0,0,1-6.99,8.911c-.256.216-.514.43-.778.637a32.4,32.4,0,0,1-3.236,2.194l0,0h0q-.482.291-.971.572c-.583.336-1.167.669-1.736,1.027a22.183,22.183,0,0,1-3.33,1.718l-.018.009,0,0a22.173,22.173,0,0,1-8.472,1.674,28.9,28.9,0,0,1-28.946-28.851v-52.97a5.209,5.209,0,0,1,5.118-5.2" transform="translate(-165.896 -152.85)"/>
  </g>
</svg>
