<svg id="Grupo_184210" data-name="Grupo 184210" xmlns="http://www.w3.org/2000/svg" xmlns:xlink="http://www.w3.org/1999/xlink" width="190.72" height="181.252" viewBox="0 0 190.72 181.252">
  <defs>
    <clipPath id="clip-path">
      <rect id="Rectángulo_61521" data-name="Rectángulo 61521" width="190.72" height="181.252" fill="none"/>
    </clipPath>
    <clipPath id="clip-path-3">
      <path id="Trazado_219118" data-name="Trazado 219118" d="M199.568,114.118l18.752-8.552-20.486-3.043Z" transform="translate(-197.834 -102.523)" fill="none"/>
    </clipPath>
    <clipPath id="clip-path-5">
      <rect id="Rectángulo_61515" data-name="Rectángulo 61515" width="93.766" height="15.686" fill="none"/>
    </clipPath>
    <clipPath id="clip-path-6">
      <rect id="Rectángulo_61516" data-name="Rectángulo 61516" width="94.505" height="15.921" fill="none"/>
    </clipPath>
    <clipPath id="clip-path-7">
      <path id="Trazado_219125" data-name="Trazado 219125" d="M4.857,124.9a2.112,2.112,0,0,0-1.873,2.385l1.152,8.5a2.113,2.113,0,0,0,2.376,1.81l12.723-1.716-1.613-12.323Z" transform="translate(-2.964 -123.563)" fill="#a6e65a"/>
    </clipPath>
    <clipPath id="clip-path-9">
      <rect id="Rectángulo_61518" data-name="Rectángulo 61518" width="21.871" height="66.03" fill="none"/>
    </clipPath>
    <clipPath id="clip-path-10">
      <rect id="Rectángulo_61519" data-name="Rectángulo 61519" width="24.143" height="50.684" fill="none"/>
    </clipPath>
  </defs>
  <g id="Grupo_184209" data-name="Grupo 184209" clip-path="url(#clip-path)">
    <g id="Grupo_184188" data-name="Grupo 184188">
      <g id="Grupo_184187" data-name="Grupo 184187" clip-path="url(#clip-path)">
        <path id="Trazado_219091" data-name="Trazado 219091" d="M1.95,323.069c0,1.886,20.458,3.415,80.657,3.415s109-1.529,109-3.415-48.8-3.415-109-3.415S1.95,321.183,1.95,323.069" transform="translate(-0.886 -145.233)" fill="#d5d8ef"/>
        <path id="Trazado_219092" data-name="Trazado 219092" d="M218.921,190.542H110.694a2.183,2.183,0,0,1-2.183-2.183V29.466a2.182,2.182,0,0,1,2.183-2.183H218.921a2.182,2.182,0,0,1,2.183,2.183V188.359a2.183,2.183,0,0,1-2.183,2.183" transform="translate(-49.301 -12.396)" fill="#1f143f"/>
        <path id="Trazado_219093" data-name="Trazado 219093" d="M215.394,190.542H107.167a2.183,2.183,0,0,1-2.183-2.183V29.466a2.182,2.182,0,0,1,2.183-2.183H215.394a2.182,2.182,0,0,1,2.183,2.183V188.359a2.183,2.183,0,0,1-2.183,2.183" transform="translate(-47.699 -12.396)" fill="#4266b0"/>
        <rect id="Rectángulo_61508" data-name="Rectángulo 61508" width="97.39" height="149.123" transform="translate(66.811 21.955)" fill="#c1c6e0"/>
        <rect id="Rectángulo_61509" data-name="Rectángulo 61509" width="97.39" height="149.123" transform="translate(64.887 21.955)" fill="#fff"/>
        <path id="Trazado_219094" data-name="Trazado 219094" d="M212.113,34.486H164.824V22.9a2.728,2.728,0,0,1,2.728-2.728h41.832a2.728,2.728,0,0,1,2.728,2.728Z" transform="translate(-74.887 -9.167)" fill="#1f143f"/>
        <path id="Trazado_219095" data-name="Trazado 219095" d="M198.99,0A11.008,11.008,0,1,0,210,11.01,11.009,11.009,0,0,0,198.99,0m0,16.513a5.5,5.5,0,1,1,5.5-5.5,5.5,5.5,0,0,1-5.5,5.5" transform="translate(-85.408 0)" fill="#1f143f"/>
        <rect id="Rectángulo_61510" data-name="Rectángulo 61510" width="11.844" height="11.844" rx="2" transform="translate(136.437 52.082)" fill="none" stroke="#d5d8ef" stroke-miterlimit="10" stroke-width="1"/>
        <path id="Trazado_219096" data-name="Trazado 219096" d="M243.6,94.795l5.863,5.863a1.385,1.385,0,0,0,1.929,0l12.038-12.038,1.7-1.7a1.365,1.365,0,0,0-1.929-1.929L251.158,97.032l-1.7,1.7h1.929l-5.863-5.863a1.365,1.365,0,0,0-1.929,1.929" transform="translate(-110.495 -38.434)" fill="#a6e65a"/>
        <rect id="Rectángulo_61511" data-name="Rectángulo 61511" width="11.844" height="11.844" rx="2" transform="translate(136.437 75.06)" fill="none" stroke="#d5d8ef" stroke-miterlimit="10" stroke-width="1"/>
        <path id="Trazado_219097" data-name="Trazado 219097" d="M243.6,136.9l5.863,5.863a1.385,1.385,0,0,0,1.929,0l12.038-12.038,1.7-1.7A1.365,1.365,0,0,0,263.2,127.1l-12.039,12.038-1.7,1.7h1.929l-5.863-5.863A1.365,1.365,0,0,0,243.6,136.9" transform="translate(-110.495 -57.566)" fill="#a6e65a"/>
        <rect id="Rectángulo_61512" data-name="Rectángulo 61512" width="11.844" height="11.844" rx="2" transform="translate(136.437 96.971)" fill="none" stroke="#d5d8ef" stroke-miterlimit="10" stroke-width="1"/>
        <path id="Trazado_219098" data-name="Trazado 219098" d="M243.6,177.061l5.863,5.863a1.385,1.385,0,0,0,1.929,0l12.038-12.039,1.7-1.7a1.365,1.365,0,0,0-1.929-1.929L251.158,179.3l-1.7,1.7h1.929l-5.863-5.863a1.365,1.365,0,0,0-1.929,1.929" transform="translate(-110.495 -75.811)" fill="#a6e65a"/>
        <rect id="Rectángulo_61513" data-name="Rectángulo 61513" width="11.844" height="11.844" rx="2" transform="translate(136.437 119.238)" fill="none" stroke="#d5d8ef" stroke-miterlimit="10" stroke-width="1"/>
        <path id="Trazado_219099" data-name="Trazado 219099" d="M243.6,217.868l5.863,5.863a1.385,1.385,0,0,0,1.929,0l12.038-12.038,1.7-1.7a1.365,1.365,0,0,0-1.929-1.929L251.158,220.1l-1.7,1.7h1.929l-5.863-5.863a1.365,1.365,0,0,0-1.929,1.929" transform="translate(-110.495 -94.351)" fill="#a6e65a"/>
        <path id="Trazado_219100" data-name="Trazado 219100" d="M192.251,96.424H143.36a.546.546,0,0,1-.546-.546v-.862a.546.546,0,0,1,.546-.546h48.891a.546.546,0,0,1,.546.546v.862a.546.546,0,0,1-.546.546" transform="translate(-64.887 -42.922)" fill="#c1c6e0"/>
        <path id="Trazado_219101" data-name="Trazado 219101" d="M192.251,105.65H143.36a.546.546,0,0,1-.546-.546v-.862a.546.546,0,0,1,.546-.546h48.891a.546.546,0,0,1,.546.546v.862a.546.546,0,0,1-.546.546" transform="translate(-64.887 -47.114)" fill="#c1c6e0"/>
        <path id="Trazado_219102" data-name="Trazado 219102" d="M180.465,114.876H143.36a.546.546,0,0,1-.546-.546v-.862a.546.546,0,0,1,.546-.546h37.106a.546.546,0,0,1,.546.546v.862a.546.546,0,0,1-.546.546" transform="translate(-64.887 -51.306)" fill="#c1c6e0"/>
        <path id="Trazado_219103" data-name="Trazado 219103" d="M192.251,138.534H143.36a.546.546,0,0,1-.546-.546v-.862a.546.546,0,0,1,.546-.546h48.891a.546.546,0,0,1,.546.546v.862a.546.546,0,0,1-.546.546" transform="translate(-64.887 -62.055)" fill="#c1c6e0"/>
        <path id="Trazado_219104" data-name="Trazado 219104" d="M192.251,147.76H143.36a.546.546,0,0,1-.546-.546v-.862a.546.546,0,0,1,.546-.546h48.891a.546.546,0,0,1,.546.546v.862a.546.546,0,0,1-.546.546" transform="translate(-64.887 -66.246)" fill="#c1c6e0"/>
        <path id="Trazado_219105" data-name="Trazado 219105" d="M180.465,156.986H143.36a.546.546,0,0,1-.546-.546v-.862a.546.546,0,0,1,.546-.546h37.106a.546.546,0,0,1,.546.546v.862a.546.546,0,0,1-.546.546" transform="translate(-64.887 -70.438)" fill="#c1c6e0"/>
        <path id="Trazado_219106" data-name="Trazado 219106" d="M192.251,178.691H143.36a.546.546,0,0,1-.546-.546v-.862a.546.546,0,0,1,.546-.546h48.891a.546.546,0,0,1,.546.546v.862a.546.546,0,0,1-.546.546" transform="translate(-64.887 -80.3)" fill="#c1c6e0"/>
        <path id="Trazado_219107" data-name="Trazado 219107" d="M192.251,187.916H143.36a.546.546,0,0,1-.546-.546v-.862a.546.546,0,0,1,.546-.546h48.891a.546.546,0,0,1,.546.546v.862a.546.546,0,0,1-.546.546" transform="translate(-64.887 -84.491)" fill="#c1c6e0"/>
        <path id="Trazado_219108" data-name="Trazado 219108" d="M180.465,197.142H143.36a.546.546,0,0,1-.546-.546v-.862a.546.546,0,0,1,.546-.546h37.106a.546.546,0,0,1,.546.546v.862a.546.546,0,0,1-.546.546" transform="translate(-64.887 -88.683)" fill="#c1c6e0"/>
        <path id="Trazado_219109" data-name="Trazado 219109" d="M192.251,219.5H143.36a.546.546,0,0,1-.546-.546v-.862a.546.546,0,0,1,.546-.546h48.891a.546.546,0,0,1,.546.546v.862a.546.546,0,0,1-.546.546" transform="translate(-64.887 -98.84)" fill="#c1c6e0"/>
        <path id="Trazado_219110" data-name="Trazado 219110" d="M192.251,228.724H143.36a.546.546,0,0,1-.546-.546v-.862a.546.546,0,0,1,.546-.546h48.891a.546.546,0,0,1,.546.546v.862a.546.546,0,0,1-.546.546" transform="translate(-64.887 -103.032)" fill="#c1c6e0"/>
        <path id="Trazado_219111" data-name="Trazado 219111" d="M180.465,237.95H143.36a.546.546,0,0,1-.546-.546v-.862a.546.546,0,0,1,.546-.546h37.106a.546.546,0,0,1,.546.546v.862a.546.546,0,0,1-.546.546" transform="translate(-64.887 -107.224)" fill="#c1c6e0"/>
        <path id="Trazado_219112" data-name="Trazado 219112" d="M113.03,108.167c2.472.2,6.882,1.912,6.006,5.2a.775.775,0,0,1-.207.393.893.893,0,0,1-.579.155,4.606,4.606,0,0,1-3.145-.756c-.53-.446-.862-1.1-1.425-1.505a4.206,4.206,0,0,0-1.085-.5l-1.961-.688c-.346-.121-.737-.288-.841-.639a1.007,1.007,0,0,1,.508-1.006,4.078,4.078,0,0,1,2.729-.654" transform="translate(-49.872 -49.137)" fill="#1f143f"/>
        <path id="Trazado_219113" data-name="Trazado 219113" d="M9.879,321.568l.037.008a16.367,16.367,0,0,0,3.132.178c1.9.016,3.8.034,5.7-.052,1.169-.052,1.644-.634,1.862-1.718a13.9,13.9,0,0,0,.253-3.438.667.667,0,0,0-.074-.324.652.652,0,0,0-.35-.232A6.165,6.165,0,0,0,19,315.653c-.336-.038-.954-.159-1.24.055a4.436,4.436,0,0,0-.7,1.008,6.82,6.82,0,0,1-.839,1.057,5.516,5.516,0,0,1-2.3,1.253c-.845.254-1.719.392-2.578.593a4.932,4.932,0,0,0-1.815.727.774.774,0,0,0-.4.666c.045.328.416.483.744.555" transform="translate(-4.149 -143.384)" fill="#1f143f"/>
        <path id="Trazado_219114" data-name="Trazado 219114" d="M86.644,321.568l-.037.008a16.367,16.367,0,0,1-3.132.178c-1.9.016-3.8.034-5.7-.052-1.169-.052-1.644-.634-1.861-1.718a13.871,13.871,0,0,1-.254-3.438.673.673,0,0,1,.074-.324.651.651,0,0,1,.351-.232,6.154,6.154,0,0,1,1.436-.338c.336-.038.954-.159,1.24.055a4.436,4.436,0,0,1,.7,1.008,6.821,6.821,0,0,0,.839,1.057,5.516,5.516,0,0,0,2.3,1.253c.845.254,1.719.392,2.578.593a4.932,4.932,0,0,1,1.815.727.774.774,0,0,1,.4.666c-.045.328-.416.483-.744.555" transform="translate(-34.366 -143.384)" fill="#1f143f"/>
        <path id="Trazado_219115" data-name="Trazado 219115" d="M51.333,88.771a5.079,5.079,0,0,1-.116.843,11,11,0,0,1-1.9,3.223A4.437,4.437,0,0,0,48.77,95.9a12.08,12.08,0,0,0,3.164,5.965,5.572,5.572,0,0,0,1.092,1.049,8.266,8.266,0,0,0,1.64.617,21.752,21.752,0,0,0,4.594.989c.768.08,1.539.112,2.31.124a4.707,4.707,0,0,0,2.018-.7A8.509,8.509,0,0,0,65.61,102.6a12.2,12.2,0,0,0,1.653-2,5,5,0,0,0,.919-1.774,15.079,15.079,0,0,1,.259-2.377,7.644,7.644,0,0,1,.823-1.276c.913-1.417-.383-3.134.359-4.609.462-.916,1.4-1.481,1.794-2.433a3.819,3.819,0,0,0-.005-2.871,6.387,6.387,0,0,0-3.5-3.184c-1.694-.739-3.837-.986-5.256.2-.3.251-.554.555-.84.823-2.291,2.154-5.258.439-7.9,1.43a3.838,3.838,0,0,0-2.391,2.391,8.706,8.706,0,0,0-.2,1.853" transform="translate(-22.13 -37.008)" fill="#1f143f"/>
        <path id="Trazado_219116" data-name="Trazado 219116" d="M218.319,105.565l-20.486-3.043,1.734,11.595Z" transform="translate(-89.884 -46.581)" fill="#eeeaed"/>
      </g>
    </g>
    <g id="Grupo_184190" data-name="Grupo 184190" transform="translate(107.95 55.942)">
      <g id="Grupo_184189" data-name="Grupo 184189" clip-path="url(#clip-path-3)">
        <path id="Trazado_219117" data-name="Trazado 219117" d="M220.742,107.313a5.009,5.009,0,0,0,.883,1.874c1.443,1.837,4.854.617,6.554-.15a5.883,5.883,0,0,0,3.6-4.878,3.043,3.043,0,0,0-.325-1.76c-.664-1.166-2.306-1.406-3.5-1.674a8.755,8.755,0,0,0-4.429.057c-2.523.757-3.422,4-2.787,6.531" transform="translate(-208.153 -101.59)" fill="#a6e65a"/>
      </g>
    </g>
    <g id="Grupo_184198" data-name="Grupo 184198">
      <g id="Grupo_184197" data-name="Grupo 184197" clip-path="url(#clip-path)">
        <path id="Trazado_219119" data-name="Trazado 219119" d="M120.046,102.476,28.908,113.982l-1.1,12.689,94.1-12.456Z" transform="translate(-12.633 -46.559)" fill="#fb0"/>
        <g id="Grupo_184193" data-name="Grupo 184193" transform="translate(14.283 55.917)" opacity="0.2">
          <g id="Grupo_184192" data-name="Grupo 184192">
            <g id="Grupo_184191" data-name="Grupo 184191" clip-path="url(#clip-path-5)">
              <path id="Trazado_219120" data-name="Trazado 219120" d="M26.176,118.162,119.942,106.5l-.636-4.02L28.168,113.982Z" transform="translate(-26.176 -102.476)" fill="#fff"/>
            </g>
          </g>
        </g>
        <g id="Grupo_184196" data-name="Grupo 184196" transform="translate(14.764 64.192)" opacity="0.2">
          <g id="Grupo_184195" data-name="Grupo 184195">
            <g id="Grupo_184194" data-name="Grupo 184194" clip-path="url(#clip-path-6)">
              <path id="Trazado_219121" data-name="Trazado 219121" d="M27.057,129.66l93.958-12.018.547,3.464-94.1,12.456Z" transform="translate(-27.057 -117.641)" fill="#231f20"/>
            </g>
          </g>
        </g>
        <path id="Trazado_219122" data-name="Trazado 219122" d="M17.622,123.563l1.614,12.323L6.512,137.6a2.112,2.112,0,0,1-2.376-1.809l-1.152-8.5A2.112,2.112,0,0,1,4.857,124.9Z" transform="translate(-1.347 -56.14)" fill="#68838c"/>
      </g>
    </g>
    <g id="Grupo_184200" data-name="Grupo 184200" transform="translate(1.618 67.423)">
      <g id="Grupo_184199" data-name="Grupo 184199" clip-path="url(#clip-path-7)">
        <path id="Trazado_219123" data-name="Trazado 219123" d="M6.7,122.823,8.68,137.685l-6.552.465L0,124.382Z" transform="translate(-1.618 -123.227)" fill="#a6e65a"/>
        <path id="Trazado_219124" data-name="Trazado 219124" d="M17.562,122.17,19.585,137.3l3.2-.25-2.13-15.14" transform="translate(-9.597 -122.81)" fill="#a6e65a" stroke="#506d75" stroke-miterlimit="10" stroke-width="1"/>
      </g>
    </g>
    <g id="Grupo_184208" data-name="Grupo 184208">
      <g id="Grupo_184207" data-name="Grupo 184207" clip-path="url(#clip-path)">
        <path id="Trazado_219126" data-name="Trazado 219126" d="M197.645,114.043a2.273,2.273,0,1,1,1.39-2.758,2.187,2.187,0,0,1-1.39,2.758" transform="translate(-88.555 -49.8)" fill="#eeeaed"/>
        <path id="Trazado_219127" data-name="Trazado 219127" d="M198.672,120.941a1.793,1.793,0,1,1,1.339-2.247,1.852,1.852,0,0,1-1.339,2.247" transform="translate(-89.178 -53.35)" fill="#eeeaed"/>
        <path id="Trazado_219128" data-name="Trazado 219128" d="M196.408,106.5a2.063,2.063,0,1,1,1.265-2.5,1.987,1.987,0,0,1-1.265,2.5" transform="translate(-88.106 -46.56)" fill="#eeeaed"/>
        <path id="Trazado_219129" data-name="Trazado 219129" d="M28.881,243.462a229.449,229.449,0,0,0,4.941-25.051c.344-2.706.676-5.415,1.052-8.118.408-2.925.876-5.708,1.457-9.858.21-1.5,3.313-1.473,4.789-1.815,3.685-.854,7.483-.4,11.221-.341,1.376.023,3.241-.555,4.147.649.968,1.287.946,3.552,1.033,5.081.771,13.569-.858,27.115-1.238,40.667-.159,5.692-.062,11.34.222,17.025.056,1.125-.226,2.24-1.507,2.4a4.8,4.8,0,0,1-2.326-.288c-1.211-.7-1.972-3-2.387-4.224a35.57,35.57,0,0,1-1.232-5.427,99.682,99.682,0,0,1-1.1-10.229c-.748-11.15-1.328-18.347-.5-30.468-1.133,6.523-1.11,10.782-3.111,17.093a112.312,112.312,0,0,1-7.525,17.212c-1.587,3.09-3.1,6.222-4.82,9.239-.861,1.507-1.772,2.985-2.771,4.4-.877,1.246-1.568,2.508-3.212,2.7a9.119,9.119,0,0,1-2.131-.085c-.2-.023-.422-.067-.515-.242a.607.607,0,0,1-.025-.368c.484-3.314,2.13-6.551,3.019-9.793.924-3.368,1.694-6.775,2.516-10.169" transform="translate(-10.6 -90.008)" fill="#4266b0"/>
        <path id="Trazado_219130" data-name="Trazado 219130" d="M44.053,202.24a3.428,3.428,0,0,1,.688-.36,8.8,8.8,0,0,1,1.46-.455c1.161-.254,1.063.438,1.3,1.242.28.972.862,1.931,1.235,2.879.41,1.043,1.154,1.95-.045,2.63a5.081,5.081,0,0,1-1.994.632.643.643,0,0,1-.7-.284c-.535-.649-1.056-1.364-1.545-2.052a3.959,3.959,0,0,1-1.061-3.106,1.834,1.834,0,0,1,.226-.669,1.565,1.565,0,0,1,.439-.455" transform="translate(-19.693 -91.492)" fill="#fab594"/>
        <path id="Trazado_219131" data-name="Trazado 219131" d="M45.569,212.147a6.55,6.55,0,0,0,4.346-.859,7.349,7.349,0,0,0,2.542-3.267c.136-.324-.392-.464-.527-.145a6.652,6.652,0,0,1-2.368,2.993,4.573,4.573,0,0,1-1.57.673,8.958,8.958,0,0,1-2.423.059c-.351-.022-.349.523,0,.546" transform="translate(-20.585 -94.365)" fill="#4c83c3"/>
        <path id="Trazado_219132" data-name="Trazado 219132" d="M81.8,213.943a1.879,1.879,0,0,1-1.872-.464,5.187,5.187,0,0,1-.845-1.377,18.376,18.376,0,0,1-1.278-4.747c-.055-.346-.581-.2-.527.145a17.67,17.67,0,0,0,1.477,5.177,4.539,4.539,0,0,0,.968,1.367,2.476,2.476,0,0,0,2.222.425c.345-.057.2-.583-.145-.526" transform="translate(-35.108 -94.121)" fill="#4c83c3"/>
        <g id="Grupo_184203" data-name="Grupo 184203" transform="translate(25.195 108.097)" opacity="0.2">
          <g id="Grupo_184202" data-name="Grupo 184202">
            <g id="Grupo_184201" data-name="Grupo 184201" clip-path="url(#clip-path-9)">
              <path id="Trazado_219133" data-name="Trazado 219133" d="M62.8,198.279h-.135c-3.738-.062-7.536-.513-11.221.34-1.476.342-4.579.314-4.789,1.815-.168,1.2-.326,2.284-.477,3.291a8.937,8.937,0,0,0,2.221,1.245,35,35,0,0,0,7.678,2.1c3.005.511,7.107,0,8.662,3.264a11.976,11.976,0,0,1,.8,4.984,232.284,232.284,0,0,1-.4,24.1,92.4,92.4,0,0,1-1.821,12.138c-.7,3.157-1.908,6.563-2.023,9.876a5.054,5.054,0,0,0,1.7,2.376,4.8,4.8,0,0,0,2.326.288c1.281-.165,1.563-1.279,1.507-2.4-.283-5.685-.381-11.333-.222-17.025.379-13.552,2.009-27.1,1.237-40.667-.037-.656-.055-1.45-.139-2.243a10.437,10.437,0,0,0-4.9-3.487" transform="translate(-46.175 -198.105)" fill="#231f20"/>
            </g>
          </g>
        </g>
        <path id="Trazado_219134" data-name="Trazado 219134" d="M86.973,136.024a4.018,4.018,0,0,0-.964.724,2.727,2.727,0,0,0,.8,4.233c1.913.834,4.233.266,6.151-.261a61.112,61.112,0,0,0,13.021-5.542,16.032,16.032,0,0,0,2.18-1.22,2.456,2.456,0,0,0,.746-.862Z" transform="translate(-38.768 -60.471)" fill="#fab594"/>
        <path id="Trazado_219135" data-name="Trazado 219135" d="M70.269,144.816a27.172,27.172,0,0,0-1.49-5c-.753-1.831-1.989-4.029-3.741-5.087-1.641-.991-4.878-.045-6.7.379-1.716.4-4.292.936-5.684,2.084-1.285,1.06-1.14,3.709-.986,5.241.178,1.764.609,3.5.766,5.262a29.855,29.855,0,0,1-1.116,9.6,79.931,79.931,0,0,1-3.465,11.092,3.571,3.571,0,0,0-.383,1.66,3.22,3.22,0,0,0,1.83,2.166c5.564,3.293,12.375,2.787,18.625,2.48a2.772,2.772,0,0,0,1.488-.366,2.685,2.685,0,0,0,.874-1.684,46.623,46.623,0,0,0,.784-10.48c-.025-5.694.333-11.7-.8-17.348" transform="translate(-21.564 -61.012)" fill="#dfeae5"/>
        <path id="Trazado_219136" data-name="Trazado 219136" d="M68.191,129.979q-1.872-.571-3.7-1.27a.937.937,0,0,1-.35-.2c-.254-.261-.21-.842-.23-1.183a10.341,10.341,0,0,1,.021-1.345c.057-.819.194-1.639.189-2.461a4.15,4.15,0,0,1,.3-1.938,2.792,2.792,0,0,1,1.875-1.332,8.289,8.289,0,0,1,2.363-.1,1.072,1.072,0,0,1,.651.18c.586.5.45,1.491.523,2.176a26.961,26.961,0,0,0,.551,2.965c.1.456.243.9.353,1.358a2.16,2.16,0,0,1,.132,1.185,4.912,4.912,0,0,1-1.66,1.976.726.726,0,0,1-.3.148.768.768,0,0,1-.34-.048l-.379-.114" transform="translate(-29.031 -54.574)" fill="#fab594"/>
        <path id="Trazado_219137" data-name="Trazado 219137" d="M65.183,125.6a7.249,7.249,0,0,0,5.583,1.065c-.074-.395-.153-.791-.242-1.192a26.967,26.967,0,0,1-.551-2.965c-.073-.685.063-1.676-.523-2.176a1.065,1.065,0,0,0-.651-.18,8.27,8.27,0,0,0-2.363.1,2.792,2.792,0,0,0-1.875,1.332,4.153,4.153,0,0,0-.3,1.938c0,.427-.02.885-.046,1.356a8.933,8.933,0,0,0,.967.719" transform="translate(-29.176 -54.574)" fill="#eb977d"/>
        <path id="Trazado_219138" data-name="Trazado 219138" d="M57.78,106.036a10.2,10.2,0,0,0,4.426,7.147c1.877,1.2,4.664,1.823,6.678.594,2.7-1.65,3.247-5.655,3.178-8.532-.082-3.4-1.419-7.21-4.717-8.723-2.318-1.064-5.95-1.172-7.607,1.047a11.7,11.7,0,0,0-1.958,8.468" transform="translate(-26.196 -43.521)" fill="#fab594"/>
        <path id="Trazado_219139" data-name="Trazado 219139" d="M108.913,109.21c1.3,1.2,2.221,2.734.88,3.526-.437.259-.972-.148-1.247-.575s-.531-.954-1.026-1.067a1.609,1.609,0,0,0-1.109.31l-3.84,2.2a2.6,2.6,0,0,1-.642.294,1.621,1.621,0,0,1-1.779-.984,2.652,2.652,0,0,1,.134-2.143c1.111-2.374,2.774-2.614,5.128-2.7a4.43,4.43,0,0,1,3.5,1.141" transform="translate(-45.425 -49.098)" fill="#fab594"/>
        <path id="Trazado_219140" data-name="Trazado 219140" d="M66.494,95.037a4.477,4.477,0,0,0-1.977.734c-1.18.8-1.907,2.11-2.969,3.059a14.051,14.051,0,0,1-3.471,2.009,1.638,1.638,0,0,0-.619.422,1.348,1.348,0,0,0-.214.922c.11,1.824,1.332,3.439.392,5.261a1.414,1.414,0,0,1-.39.5c-1.043.777-1.978-1.178-2.347-1.891a9.479,9.479,0,0,1-1.006-3.434c-.231-2.392.235-5.547,2.15-7.156a10.578,10.578,0,0,1,6.647-2.607,8.855,8.855,0,0,1,2.469.339,2.966,2.966,0,0,1,1.162.631,2.9,2.9,0,0,1,.605.553,5.445,5.445,0,0,1,.277.631,4.388,4.388,0,0,0-.708.027" transform="translate(-24.46 -42.188)" fill="#1f143f"/>
        <path id="Trazado_219141" data-name="Trazado 219141" d="M70.233,119.544a21.927,21.927,0,0,0,3.079-.3,12.142,12.142,0,0,0,2.987-1.1s-.1,1.107-.133,1.224a4.032,4.032,0,0,1-.611,1.245,3.32,3.32,0,0,1-4.174.755,2.6,2.6,0,0,1-.827-.846c-.039-.064-.44-.97-.321-.98" transform="translate(-31.9 -53.679)" fill="#fff"/>
        <path id="Trazado_219142" data-name="Trazado 219142" d="M76.566,105.162a2.176,2.176,0,0,1,2.589.255.275.275,0,0,0,.386,0,.279.279,0,0,0,0-.386,2.727,2.727,0,0,0-3.25-.34.276.276,0,0,0-.1.373.279.279,0,0,0,.373.1" transform="translate(-34.602 -47.397)" fill="#1f143f"/>
        <g id="Grupo_184206" data-name="Grupo 184206" transform="translate(12.731 123.461)" opacity="0.2">
          <g id="Grupo_184205" data-name="Grupo 184205">
            <g id="Grupo_184204" data-name="Grupo 184204" clip-path="url(#clip-path-10)">
              <path id="Trazado_219143" data-name="Trazado 219143" d="M47.171,226.719c-.314,1-.543,2.053-.825,3.073a63.408,63.408,0,0,1-5.283,13.646c-2.573,4.687-6.2,8.373-9.637,12.407-1.212,1.422-2.4,2.9-3.51,4.435-.492,2.054-.994,4.106-1.552,6.142-.889,3.242-2.535,6.479-3.017,9.793a.6.6,0,0,0,.025.368c.092.175.318.218.515.241a9.121,9.121,0,0,0,2.131.085c1.644-.193,2.334-1.455,3.211-2.7,1-1.419,1.911-2.9,2.771-4.4,1.724-3.018,3.233-6.15,4.82-9.239a112.3,112.3,0,0,0,7.525-17.213c2-6.311,1.979-10.57,3.111-17.093-.067,0-.265.395-.284.458" transform="translate(-23.33 -226.261)" fill="#231f20"/>
              <path id="Trazado_219144" data-name="Trazado 219144" d="M67.531,226.261c-.005.082-.011.161-.016.242.026-.118.051-.242.016-.242" transform="translate(-43.405 -226.261)" fill="#231f20"/>
            </g>
          </g>
        </g>
        <path id="Trazado_219145" data-name="Trazado 219145" d="M62.237,154.87q.02,1.291.039,2.581a6.114,6.114,0,0,1-.12,1.62,2.059,2.059,0,0,1-.905,1.3c-.989.564-2.548-.287-3.1-1.151a8.331,8.331,0,0,1-1.2-4.359l5.292-.014c0,.007,0,.014,0,.02" transform="translate(-25.872 -70.355)" fill="#72c384"/>
        <path id="Trazado_219146" data-name="Trazado 219146" d="M57.981,117.16c.647,1.121.611,2.351-.08,2.751s-1.775-.187-2.422-1.306-.611-2.352.08-2.751,1.775.186,2.422,1.306" transform="translate(-24.997 -52.581)" fill="#fab594"/>
        <path id="Trazado_219147" data-name="Trazado 219147" d="M68.078,111.618c.157.73-.029,1.389-.416,1.472s-.828-.441-.984-1.17.029-1.389.416-1.472.827.441.984,1.17" transform="translate(-30.269 -50.177)" fill="#1f143f"/>
        <path id="Trazado_219148" data-name="Trazado 219148" d="M79.441,109.26c.059.744-.213,1.373-.607,1.4s-.762-.547-.821-1.291.213-1.372.607-1.4.762.547.821,1.291" transform="translate(-35.441 -49.054)" fill="#1f143f"/>
        <path id="Trazado_219149" data-name="Trazado 219149" d="M66.127,106.686a2.917,2.917,0,0,0-3,1.94.275.275,0,0,0,.19.336.279.279,0,0,0,.336-.19,2.195,2.195,0,0,1,.862-1.12,2.258,2.258,0,0,1,1.469-.439.282.282,0,0,0,.336-.19.274.274,0,0,0-.19-.336" transform="translate(-28.674 -48.461)" fill="#1f143f"/>
        <path id="Trazado_219150" data-name="Trazado 219150" d="M75.1,133.5l-1.862,2.653,2.777,2.352v-4.523Z" transform="translate(-33.277 -60.654)" fill="#fff"/>
        <path id="Trazado_219151" data-name="Trazado 219151" d="M59.353,136.019l2.545-1.761,5.034,2.239-1.3,3.274Z" transform="translate(-26.967 -60.999)" fill="#fff"/>
        <path id="Trazado_219152" data-name="Trazado 219152" d="M47.514,172.184a2.446,2.446,0,0,1-2.424-2.629c-.017-.522-.01-1.045.019-1.567.225-4.108,1.9-7.9,3.343-11.689a27.259,27.259,0,0,0,1.93-10.376,24,24,0,0,0-1.69-8.333.319.319,0,0,1-.034-.174.307.307,0,0,1,.075-.133,8.77,8.77,0,0,1,2.406-1.818,13.474,13.474,0,0,1,2.9-1.406,5.169,5.169,0,0,1,1.03-.321c.835.2,1.754,2.834,2.084,3.564,3.462,7.668,2.064,16.821-1.451,24.208a33.387,33.387,0,0,1-6.559,9.941,2.293,2.293,0,0,1-.786.558,2.913,2.913,0,0,1-.844.173" transform="translate(-20.482 -60.763)" fill="#1f143f"/>
        <path id="Trazado_219153" data-name="Trazado 219153" d="M32.744,153.608a16.794,16.794,0,0,0-2.466,5.328c-.411,2.39.244,4.644.991,6.919a49.964,49.964,0,0,0,5.99,11.986c.1.153.237.324.421.312a.526.526,0,0,0,.243-.106l3.6-2.38a.939.939,0,0,0,.38-1.435l-3.27-8.261a13.926,13.926,0,0,1-1.089-3.743,9.056,9.056,0,0,1,1.485-5.539,21.728,21.728,0,0,1,3.844-4.369,5.244,5.244,0,0,0,1.322-1.579c.917-2.015.766-4.362.563-6.509-.107-1.14.062-4.922-1.744-4.885a1.592,1.592,0,0,0-.9.411,20.333,20.333,0,0,0-4.725,6.09c-1.407,2.4-2.923,4.719-4.293,7.139-.116.2-.236.411-.36.619" transform="translate(-13.699 -63.312)" fill="#1f143f"/>
        <path id="Trazado_219154" data-name="Trazado 219154" d="M85.844,165.048c.082-5.615.165-11.237-.151-16.847q-.121-2.13-.324-4.252c-.085-.919-.2-.877.471-1.346a8.864,8.864,0,0,1,1.905-.694c3.45-1.257,6.9-2.518,10.325-3.838a19.794,19.794,0,0,0,8.218-5.195,80.753,80.753,0,0,1-9.614,1.281,110.527,110.527,0,0,1-13.047.691,12.636,12.636,0,0,1-5.3-1.151,17.179,17.179,0,0,1,1.419,5.131c.063,2.04.2,4.078.272,6.118q.21,6,.2,12.009c-.014,6.2-.455,12.2-1.042,18.352a11.944,11.944,0,0,0,4.013-.358,1.554,1.554,0,0,0,.646-.29,1.6,1.6,0,0,0,.378-.62,20.624,20.624,0,0,0,1.44-5.268,34.055,34.055,0,0,0,.192-3.724" transform="translate(-35.589 -60.372)" fill="#1f143f"/>
        <path id="Trazado_219155" data-name="Trazado 219155" d="M63.015,161.513c3.516-7.387,4.913-16.54,1.451-24.208-.33-.73-1.25-3.362-2.084-3.564a5.176,5.176,0,0,0-1.03.321c-.061.019-.117.045-.177.065a5.259,5.259,0,0,0,.457,1.013,12.051,12.051,0,0,1,.7,2.388,28.738,28.738,0,0,1,.29,10.939,3.512,3.512,0,0,1,1.548.181,5.273,5.273,0,0,1-.763,1.517,5.894,5.894,0,0,0-.186,3.327,25.032,25.032,0,0,1-.538,8.7c.11-.225.222-.45.329-.676" transform="translate(-27.794 -60.763)" fill="#274169"/>
        <path id="Trazado_219156" data-name="Trazado 219156" d="M83.209,149.466c-.387-2.587-.748-5.178-1.151-7.763a22,22,0,0,0-2.229-6.734,9.055,9.055,0,0,1-1.5-.588,17.178,17.178,0,0,1,1.418,5.131c.062,2.04.2,4.078.272,6.118q.21,6,.2,12.009c0,1.111-.023,2.215-.051,3.315.766-2.382,1.934-4.674,2.248-7.157a21.384,21.384,0,0,0-.065-4.471,1.565,1.565,0,0,0,.859.14" transform="translate(-35.59 -61.055)" fill="#274169"/>
        <path id="Trazado_219157" data-name="Trazado 219157" d="M72.826,140.983a24.7,24.7,0,0,1,1.217,6.768,68.825,68.825,0,0,1,.1,6.925,74.429,74.429,0,0,1-1.4,13.8c-.548,2.527-1.136,5.046-1.6,7.592-.062.343.464.491.526.145.825-4.562,2.126-9.036,2.6-13.657.234-2.308.313-4.631.392-6.948.082-2.4.113-4.8-.029-7.191a26.463,26.463,0,0,0-1.281-7.582c-.121-.326-.648-.186-.526.145" transform="translate(-32.324 -63.905)" fill="#fff"/>
        <path id="Trazado_219158" data-name="Trazado 219158" d="M292.232,240.425l-7.18-2.543-3.781,6.742.229.081a17.848,17.848,0,0,0-4.193.219l.219-.1-4.465-6.31-6.875,3.279,2.093,7.441.219-.1a17.828,17.828,0,0,0-2.81,3.12l.081-.229-7.619-1.305-2.543,7.18,6.742,3.781.081-.229a17.819,17.819,0,0,0,.22,4.193l-.1-.219-6.31,4.465,3.279,6.875,7.441-2.094-.1-.219a17.789,17.789,0,0,0,3.121,2.81l-.229-.081-1.305,7.618,7.18,2.543,3.781-6.742-.229-.081a17.821,17.821,0,0,0,4.193-.22l-.219.1,4.464,6.31,6.875-3.279-2.093-7.441-.219.1a17.833,17.833,0,0,0,2.81-3.121l-.081.229,7.618,1.306,2.543-7.18-6.742-3.781-.081.229a17.848,17.848,0,0,0-.219-4.193l.1.219,6.311-4.464-3.279-6.876-7.441,2.094.1.219a17.83,17.83,0,0,0-3.12-2.81l.229.081Z" transform="translate(-116.134 -108.08)" fill="#6a8fbc"/>
        <path id="Trazado_219159" data-name="Trazado 219159" d="M293.159,255.57a15.561,15.561,0,1,1-19.864,9.473,15.561,15.561,0,0,1,19.864-9.473" transform="translate(-123.762 -115.709)" fill="#a0b3d9"/>
        <path id="Trazado_219160" data-name="Trazado 219160" d="M295.09,262.445a11.689,11.689,0,1,1-14.92,7.115,11.688,11.688,0,0,1,14.92-7.115" transform="translate(-126.987 -118.934)" fill="#5a82ad"/>
        <path id="Trazado_219161" data-name="Trazado 219161" d="M296.865,268.76a8.132,8.132,0,1,1-10.381,4.95,8.132,8.132,0,0,1,10.381-4.95" transform="translate(-129.949 -121.896)" fill="#fff"/>
        <path id="Trazado_219162" data-name="Trazado 219162" d="M314.077,177.991l-4.594-2.223-3.016,4.211.147.071a11.938,11.938,0,0,0-2.809-.163l.154-.053-2.508-4.532-4.821,1.677.846,5.11.153-.053a11.957,11.957,0,0,0-2.1,1.87l.071-.146-4.977-1.431-2.224,4.594,4.211,3.015.071-.146a11.962,11.962,0,0,0-.163,2.809l-.053-.154-4.531,2.508,1.676,4.82,5.11-.845-.053-.154a11.942,11.942,0,0,0,1.871,2.1l-.146-.07-1.431,4.977,4.594,2.223,3.015-4.211-.146-.071a11.931,11.931,0,0,0,2.809.163l-.154.053,2.508,4.532L312.4,206.8l-.845-5.11-.154.053a11.953,11.953,0,0,0,2.1-1.87l-.071.146,4.978,1.431,2.223-4.594-4.211-3.015-.071.146a11.939,11.939,0,0,0,.163-2.809l.053.154,4.532-2.508L319.427,184l-5.11.845.053.154a11.962,11.962,0,0,0-1.871-2.1l.146.071Z" transform="translate(-130.82 -79.647)" fill="#6a8fbc"/>
        <path id="Trazado_219163" data-name="Trazado 219163" d="M314.186,187.628a10.426,10.426,0,1,1-13.927,4.844,10.427,10.427,0,0,1,13.927-4.844" transform="translate(-135.946 -84.773)" fill="#a0b3d9"/>
        <path id="Trazado_219164" data-name="Trazado 219164" d="M315.216,192.124a7.832,7.832,0,1,1-10.461,3.638,7.832,7.832,0,0,1,10.461-3.638" transform="translate(-138.107 -86.934)" fill="#5a82ad"/>
        <path id="Trazado_219165" data-name="Trazado 219165" d="M316.163,196.254a5.449,5.449,0,1,1-7.278,2.531,5.449,5.449,0,0,1,7.278-2.531" transform="translate(-140.092 -88.919)" fill="#fff"/>
      </g>
    </g>
  </g>
</svg>
