<svg id="Grupo_576848" data-name="Grupo 576848" xmlns="http://www.w3.org/2000/svg" xmlns:xlink="http://www.w3.org/1999/xlink" width="209.431" height="189.8" viewBox="0 0 209.431 189.8">
  <defs>
    <clipPath id="clip-path">
      <rect id="Rectángulo_204466" data-name="Rectángulo 204466" width="209.431" height="189.8" fill="none"/>
    </clipPath>
  </defs>
  <g id="Grupo_564795" data-name="Grupo 564795" clip-path="url(#clip-path)">
    <path id="Trazado_277620" data-name="Trazado 277620" d="M141.348,0H68.083A31.451,31.451,0,0,0,40.846,15.725L4.214,79.175a31.45,31.45,0,0,0,0,31.45l36.632,63.45A31.451,31.451,0,0,0,68.083,189.8h73.265a31.451,31.451,0,0,0,27.237-15.725l36.632-63.45a31.45,31.45,0,0,0,0-31.45L168.585,15.725A31.451,31.451,0,0,0,141.348,0" transform="translate(0)" fill="#ffb923"/>
    <path id="Trazado_277621" data-name="Trazado 277621" d="M162.6,33.379H94.377A24.834,24.834,0,0,0,72.87,45.8L38.759,104.878a24.834,24.834,0,0,0,0,24.835L72.87,188.794a24.834,24.834,0,0,0,21.507,12.417H162.6a24.835,24.835,0,0,0,21.507-12.417l34.111-59.082a24.834,24.834,0,0,0,0-24.835L184.106,45.8A24.834,24.834,0,0,0,162.6,33.379" transform="translate(-23.772 -22.395)" fill="#ffb923"/>
    <path id="Trazado_277622" data-name="Trazado 277622" d="M162.6,33.379H94.377A24.834,24.834,0,0,0,72.87,45.8L38.759,104.878a24.834,24.834,0,0,0,0,24.835L72.87,188.794a24.834,24.834,0,0,0,21.507,12.417H162.6a24.835,24.835,0,0,0,21.507-12.417l34.111-59.082a24.834,24.834,0,0,0,0-24.835L184.106,45.8A24.834,24.834,0,0,0,162.6,33.379Z" transform="translate(-23.772 -22.395)" fill="none" stroke="#000" stroke-miterlimit="10" stroke-width="14"/>
    <path id="Trazado_277623" data-name="Trazado 277623" d="M284.877,165.868l-2.553-38.224q-.718-11.171-.718-16.04,0-6.623,3.471-10.334a11.925,11.925,0,0,1,9.137-3.71q6.863,0,9.177,4.748t2.314,13.686a104.815,104.815,0,0,1-.558,10.693l-3.432,39.342q-.559,7.023-2.394,10.773a6.27,6.27,0,0,1-6.065,3.751,6.035,6.035,0,0,1-5.985-3.631q-1.676-3.63-2.395-11.053m8.858,52.508a12.559,12.559,0,0,1-8.5-3.152q-3.632-3.152-3.631-8.819a11.853,11.853,0,0,1,11.97-11.89,11.826,11.826,0,0,1,8.578,3.471,11.339,11.339,0,0,1,3.551,8.418,11.138,11.138,0,0,1-3.591,8.778,12.22,12.22,0,0,1-8.379,3.192" transform="translate(-188.94 -65.457)"/>
  </g>
</svg>
