<svg xmlns="http://www.w3.org/2000/svg" xmlns:xlink="http://www.w3.org/1999/xlink" width="1338.446" height="546" viewBox="0 0 1338.446 546">
  <defs>
    <linearGradient id="linear-gradient" x1="0.144" y1="0.697" x2="1.799" y2="1.023" gradientUnits="objectBoundingBox">
      <stop offset="0" stop-color="#fff"/>
      <stop offset="1" stop-color="#f0f0f0"/>
    </linearGradient>
    <filter id="Rectángulo_59636" x="432.635" y="0" width="489" height="82" filterUnits="userSpaceOnUse">
      <feOffset dy="8" input="SourceAlpha"/>
      <feGaussianBlur stdDeviation="3" result="blur"/>
      <feFlood flood-opacity="0.161"/>
      <feComposite operator="in" in2="blur"/>
      <feComposite in="SourceGraphic"/>
    </filter>
    <filter id="Rectángulo_204473" x="80.635" y="29" width="82" height="489" filterUnits="userSpaceOnUse">
      <feOffset dy="8" input="SourceAlpha"/>
      <feGaussianBlur stdDeviation="3" result="blur-2"/>
      <feFlood flood-opacity="0.161"/>
      <feComposite operator="in" in2="blur-2"/>
      <feComposite in="SourceGraphic"/>
    </filter>
    <filter id="Rectángulo_204475" x="1206.635" y="29" width="82" height="489" filterUnits="userSpaceOnUse">
      <feOffset dy="8" input="SourceAlpha"/>
      <feGaussianBlur stdDeviation="3" result="blur-3"/>
      <feFlood flood-opacity="0.161"/>
      <feComposite operator="in" in2="blur-3"/>
      <feComposite in="SourceGraphic"/>
    </filter>
    <filter id="Rectángulo_59636-2" x="432.635" y="116" width="489" height="82" filterUnits="userSpaceOnUse">
      <feOffset dy="8" input="SourceAlpha"/>
      <feGaussianBlur stdDeviation="3" result="blur-4"/>
      <feFlood flood-opacity="0.161"/>
      <feComposite operator="in" in2="blur-4"/>
      <feComposite in="SourceGraphic"/>
    </filter>
    <filter id="Rectángulo_59636-3" x="432.635" y="232" width="489" height="82" filterUnits="userSpaceOnUse">
      <feOffset dy="8" input="SourceAlpha"/>
      <feGaussianBlur stdDeviation="3" result="blur-5"/>
      <feFlood flood-opacity="0.161"/>
      <feComposite operator="in" in2="blur-5"/>
      <feComposite in="SourceGraphic"/>
    </filter>
    <filter id="Rectángulo_59636-4" x="432.635" y="348" width="489" height="82" filterUnits="userSpaceOnUse">
      <feOffset dy="8" input="SourceAlpha"/>
      <feGaussianBlur stdDeviation="3" result="blur-6"/>
      <feFlood flood-opacity="0.161"/>
      <feComposite operator="in" in2="blur-6"/>
      <feComposite in="SourceGraphic"/>
    </filter>
    <filter id="Rectángulo_59636-5" x="432.635" y="464" width="489" height="82" filterUnits="userSpaceOnUse">
      <feOffset dy="8" input="SourceAlpha"/>
      <feGaussianBlur stdDeviation="3" result="blur-7"/>
      <feFlood flood-opacity="0.161"/>
      <feComposite operator="in" in2="blur-7"/>
      <feComposite in="SourceGraphic"/>
    </filter>
    <clipPath id="clip-path">
      <path id="Trazado_212702" data-name="Trazado 212702" d="M281.022,330.254a6.768,6.768,0,1,0,6.768-6.768,6.767,6.767,0,0,0-6.768,6.768" transform="translate(-281.022 -323.486)" fill="#c148dc"/>
    </clipPath>
  </defs>
  <g id="Grupo_576854" data-name="Grupo 576854" transform="translate(-122.554 -7158)">
    <rect id="Rectángulo_204477" data-name="Rectángulo 204477" width="1240.081" height="118.271" transform="translate(220.919 7237.729)" fill="url(#linear-gradient)"/>
    <rect id="Rectángulo_204478" data-name="Rectángulo 204478" width="1240.081" height="118.271" transform="translate(1362.635 7615) rotate(180)" fill="url(#linear-gradient)"/>
    <g transform="matrix(1, 0, 0, 1, 122.55, 7158)" filter="url(#Rectángulo_59636)">
      <rect id="Rectángulo_59636-6" data-name="Rectángulo 59636" width="471" height="64" rx="6" transform="translate(441.64 1)" fill="#7f0f98"/>
    </g>
    <g transform="matrix(1, 0, 0, 1, 122.55, 7158)" filter="url(#Rectángulo_204473)">
      <rect id="Rectángulo_204473-2" data-name="Rectángulo 204473" width="471" height="64" rx="6" transform="translate(89.64 501) rotate(-90)" fill="#32d9cb"/>
    </g>
    <g transform="matrix(1, 0, 0, 1, 122.55, 7158)" filter="url(#Rectángulo_204475)">
      <rect id="Rectángulo_204475-2" data-name="Rectángulo 204475" width="471" height="64" rx="6" transform="translate(1215.64 501) rotate(-90)" fill="#32d9cb"/>
    </g>
    <rect id="Rectángulo_59635" data-name="Rectángulo 59635" width="456" height="50" rx="6" transform="translate(572.189 7166)" fill="#fff"/>
    <rect id="Rectángulo_204474" data-name="Rectángulo 204474" width="456" height="50" rx="6" transform="translate(219.189 7651) rotate(-90)" fill="#fff"/>
    <rect id="Rectángulo_204476" data-name="Rectángulo 204476" width="456" height="50" rx="6" transform="translate(1345.189 7652) rotate(-90)" fill="#fff"/>
    <path id="Trazado_287976" data-name="Trazado 287976" d="M11.141,16.442H4.054v5.795h8.232V24H1.9V7.648H12.174V9.412H4.054v5.267h7.086ZM21.72,20.777a1.53,1.53,0,0,0-.635-1.308,6.108,6.108,0,0,0-2.212-.8,10.46,10.46,0,0,1-2.5-.809A3.563,3.563,0,0,1,15,16.734a2.686,2.686,0,0,1-.444-1.55,3.152,3.152,0,0,1,1.263-2.527,4.934,4.934,0,0,1,3.229-1.033A5.077,5.077,0,0,1,22.4,12.691a3.389,3.389,0,0,1,1.286,2.729H21.6a1.876,1.876,0,0,0-.724-1.471,2.714,2.714,0,0,0-1.825-.618,2.84,2.84,0,0,0-1.774.494,1.555,1.555,0,0,0-.64,1.292,1.26,1.26,0,0,0,.6,1.134,7.323,7.323,0,0,0,2.151.73,11.206,11.206,0,0,1,2.521.831,3.678,3.678,0,0,1,1.432,1.162,2.858,2.858,0,0,1,.466,1.656,3.11,3.11,0,0,1-1.3,2.611,5.464,5.464,0,0,1-3.38.983,6.119,6.119,0,0,1-2.583-.517,4.2,4.2,0,0,1-1.758-1.443,3.478,3.478,0,0,1-.635-2h2.078a2.151,2.151,0,0,0,.837,1.656,3.246,3.246,0,0,0,2.061.612,3.35,3.35,0,0,0,1.892-.477A1.467,1.467,0,0,0,21.72,20.777Zm7.6-11.871v2.942h2.269v1.606H29.323V21a1.687,1.687,0,0,0,.3,1.1,1.276,1.276,0,0,0,1.033.365,5.03,5.03,0,0,0,.988-.135V24a6.059,6.059,0,0,1-1.595.223,2.587,2.587,0,0,1-2.1-.842,3.618,3.618,0,0,1-.708-2.392V13.455H25.033V11.849h2.212V8.906ZM41.519,24a4.364,4.364,0,0,1-.292-1.28,4.636,4.636,0,0,1-3.459,1.5,4.289,4.289,0,0,1-2.948-1.016,3.288,3.288,0,0,1-1.151-2.577,3.435,3.435,0,0,1,1.443-2.948,6.8,6.8,0,0,1,4.06-1.05h2.021v-.955a2.333,2.333,0,0,0-.651-1.735,2.618,2.618,0,0,0-1.92-.646,3.03,3.03,0,0,0-1.864.562A1.655,1.655,0,0,0,36,15.218H33.916a2.867,2.867,0,0,1,.646-1.758,4.407,4.407,0,0,1,1.752-1.342,5.894,5.894,0,0,1,2.431-.494,4.8,4.8,0,0,1,3.291,1.05,3.788,3.788,0,0,1,1.235,2.892v5.593A6.838,6.838,0,0,0,43.7,23.82V24Zm-3.448-1.583a3.651,3.651,0,0,0,1.853-.505A3.057,3.057,0,0,0,41.193,20.6V18.1H39.565q-3.818,0-3.818,2.235a1.891,1.891,0,0,0,.651,1.527A2.5,2.5,0,0,0,38.071,22.417Zm18.744-4.357a7.225,7.225,0,0,1-1.28,4.475,4.091,4.091,0,0,1-3.437,1.69,4.236,4.236,0,0,1-3.56-1.628l-.1,1.4H46.528V6.75h2.078v6.435a4.212,4.212,0,0,1,3.47-1.561A4.116,4.116,0,0,1,55.552,13.3a7.442,7.442,0,0,1,1.263,4.582Zm-2.078-.236a5.614,5.614,0,0,0-.82-3.279,2.714,2.714,0,0,0-2.358-1.157A3.05,3.05,0,0,0,48.605,15.3v5.256a3.136,3.136,0,0,0,2.976,1.909A2.7,2.7,0,0,0,53.906,21.3,5.97,5.97,0,0,0,54.737,17.823ZM61.689,24H59.611V6.75h2.078Zm8.367.225A5.309,5.309,0,0,1,66.035,22.6a6.023,6.023,0,0,1-1.55-4.341v-.382a7.292,7.292,0,0,1,.691-3.229,5.388,5.388,0,0,1,1.932-2.224,4.857,4.857,0,0,1,2.69-.8,4.551,4.551,0,0,1,3.684,1.561,6.759,6.759,0,0,1,1.314,4.47v.865H66.563a4.319,4.319,0,0,0,1.05,2.9,3.3,3.3,0,0,0,2.555,1.106,3.619,3.619,0,0,0,1.864-.449,4.684,4.684,0,0,0,1.336-1.19l1.269.988A5.1,5.1,0,0,1,70.056,24.225ZM69.8,13.331a2.771,2.771,0,0,0-2.111.915,4.449,4.449,0,0,0-1.056,2.566h6.087v-.157a3.957,3.957,0,0,0-.854-2.454A2.609,2.609,0,0,0,69.8,13.331Zm12.275,9.2a2.993,2.993,0,0,0,1.943-.674,2.371,2.371,0,0,0,.921-1.685H86.9a3.768,3.768,0,0,1-.719,1.988,4.734,4.734,0,0,1-1.769,1.5,5.1,5.1,0,0,1-2.342.562,5.006,5.006,0,0,1-3.948-1.656,6.6,6.6,0,0,1-1.466-4.531v-.348a7.316,7.316,0,0,1,.651-3.156,4.961,4.961,0,0,1,1.87-2.145,5.312,5.312,0,0,1,2.881-.764,4.873,4.873,0,0,1,3.4,1.224A4.375,4.375,0,0,1,86.9,16.026H84.936a2.863,2.863,0,0,0-.893-1.937,2.777,2.777,0,0,0-1.982-.758,2.908,2.908,0,0,0-2.454,1.14,5.353,5.353,0,0,0-.87,3.3v.393a5.247,5.247,0,0,0,.865,3.234A2.922,2.922,0,0,0,82.072,22.529Zm12.208,1.7A5.309,5.309,0,0,1,90.259,22.6a6.023,6.023,0,0,1-1.55-4.341v-.382a7.292,7.292,0,0,1,.691-3.229,5.388,5.388,0,0,1,1.932-2.224,4.857,4.857,0,0,1,2.69-.8,4.551,4.551,0,0,1,3.684,1.561,6.759,6.759,0,0,1,1.314,4.47v.865H90.787a4.319,4.319,0,0,0,1.05,2.9,3.3,3.3,0,0,0,2.555,1.106,3.619,3.619,0,0,0,1.864-.449,4.684,4.684,0,0,0,1.336-1.19l1.269.988A5.1,5.1,0,0,1,94.28,24.225Zm-.258-10.894a2.771,2.771,0,0,0-2.111.915,4.449,4.449,0,0,0-1.056,2.566h6.087v-.157a3.957,3.957,0,0,0-.854-2.454A2.609,2.609,0,0,0,94.021,13.331Zm13.274.382a6.226,6.226,0,0,0-1.022-.079,2.738,2.738,0,0,0-2.774,1.741V24h-2.078V11.849h2.021l.034,1.4a3.235,3.235,0,0,1,2.9-1.628,2.123,2.123,0,0,1,.921.157Zm12.477,8.816a2.993,2.993,0,0,0,1.943-.674,2.371,2.371,0,0,0,.921-1.685H124.6a3.768,3.768,0,0,1-.719,1.988,4.734,4.734,0,0,1-1.769,1.5,5.1,5.1,0,0,1-2.342.562,5.006,5.006,0,0,1-3.948-1.656,6.6,6.6,0,0,1-1.466-4.531v-.348a7.316,7.316,0,0,1,.651-3.156,4.961,4.961,0,0,1,1.87-2.145,5.312,5.312,0,0,1,2.881-.764,4.873,4.873,0,0,1,3.4,1.224,4.375,4.375,0,0,1,1.443,3.178h-1.965a2.863,2.863,0,0,0-.893-1.937,2.777,2.777,0,0,0-1.982-.758,2.908,2.908,0,0,0-2.454,1.14,5.353,5.353,0,0,0-.87,3.3v.393a5.247,5.247,0,0,0,.865,3.234A2.922,2.922,0,0,0,119.773,22.529Zm6.615-4.717a7.177,7.177,0,0,1,.7-3.212,5.236,5.236,0,0,1,1.954-2.2,5.319,5.319,0,0,1,2.858-.775,5.124,5.124,0,0,1,4.015,1.718,6.611,6.611,0,0,1,1.533,4.571v.146a7.24,7.24,0,0,1-.679,3.184,5.159,5.159,0,0,1-1.943,2.2,5.38,5.38,0,0,1-2.9.786,5.112,5.112,0,0,1-4-1.718,6.577,6.577,0,0,1-1.533-4.548Zm2.089.247a5.2,5.2,0,0,0,.938,3.246,3.178,3.178,0,0,0,5.026-.017,5.685,5.685,0,0,0,.932-3.476,5.189,5.189,0,0,0-.949-3.24,3.017,3.017,0,0,0-2.521-1.241,2.983,2.983,0,0,0-2.482,1.224A5.642,5.642,0,0,0,128.477,18.059Zm13.544-6.21.067,1.527a4.428,4.428,0,0,1,3.639-1.752q3.852,0,3.886,4.346V24h-2.078V15.959a2.8,2.8,0,0,0-.6-1.943,2.408,2.408,0,0,0-1.836-.629,3,3,0,0,0-1.774.539,3.661,3.661,0,0,0-1.19,1.415V24h-2.078V11.849Zm13.544-2.942v2.942h2.269v1.606h-2.269V21a1.687,1.687,0,0,0,.3,1.1,1.276,1.276,0,0,0,1.033.365,5.03,5.03,0,0,0,.988-.135V24a6.059,6.059,0,0,1-1.595.223,2.587,2.587,0,0,1-2.1-.842,3.618,3.618,0,0,1-.708-2.392V13.455h-2.212V11.849h2.212V8.906ZM165.3,24.225a5.309,5.309,0,0,1-4.021-1.623,6.023,6.023,0,0,1-1.55-4.341v-.382a7.292,7.292,0,0,1,.691-3.229,5.388,5.388,0,0,1,1.932-2.224,4.857,4.857,0,0,1,2.69-.8,4.551,4.551,0,0,1,3.684,1.561,6.759,6.759,0,0,1,1.314,4.47v.865h-8.232a4.319,4.319,0,0,0,1.05,2.9,3.3,3.3,0,0,0,2.555,1.106,3.619,3.619,0,0,0,1.864-.449,4.684,4.684,0,0,0,1.336-1.19l1.269.988A5.1,5.1,0,0,1,165.3,24.225Zm-.258-10.894a2.771,2.771,0,0,0-2.111.915,4.449,4.449,0,0,0-1.056,2.566h6.087v-.157a3.957,3.957,0,0,0-.854-2.454A2.609,2.609,0,0,0,165.043,13.331Zm11.478,2.954,2.7-4.436h2.426l-3.976,6.008,4.1,6.143h-2.4l-2.808-4.548L173.747,24h-2.415l4.1-6.143-3.976-6.008h2.4Zm10.141-7.378v2.942h2.269v1.606h-2.269V21a1.687,1.687,0,0,0,.3,1.1,1.276,1.276,0,0,0,1.033.365,5.03,5.03,0,0,0,.988-.135V24a6.059,6.059,0,0,1-1.595.223,2.587,2.587,0,0,1-2.1-.842,3.618,3.618,0,0,1-.708-2.392V13.455h-2.212V11.849h2.212V8.906Zm3.919,8.906a7.177,7.177,0,0,1,.7-3.212,5.236,5.236,0,0,1,1.954-2.2,5.319,5.319,0,0,1,2.858-.775,5.124,5.124,0,0,1,4.015,1.718,6.611,6.611,0,0,1,1.533,4.571v.146a7.24,7.24,0,0,1-.679,3.184,5.159,5.159,0,0,1-1.943,2.2,5.38,5.38,0,0,1-2.9.786,5.112,5.112,0,0,1-4-1.718,6.577,6.577,0,0,1-1.533-4.548Zm2.089.247a5.2,5.2,0,0,0,.938,3.246,3.178,3.178,0,0,0,5.026-.017,5.685,5.685,0,0,0,.932-3.476,5.189,5.189,0,0,0-.949-3.24,3.017,3.017,0,0,0-2.521-1.241,2.983,2.983,0,0,0-2.482,1.224A5.642,5.642,0,0,0,192.67,18.059Z" transform="translate(697.189 7177)" fill="#12263f"/>
    <path id="Trazado_287982" data-name="Trazado 287982" d="M19.62,18.812a6.016,6.016,0,0,1-1.915,4,6.275,6.275,0,0,1-4.284,1.409,5.762,5.762,0,0,1-4.644-2.078A8.359,8.359,0,0,1,7.03,16.588V15.016a9.317,9.317,0,0,1,.814-4.009A6.082,6.082,0,0,1,10.152,8.35a6.426,6.426,0,0,1,3.459-.927,5.909,5.909,0,0,1,4.178,1.454A6.088,6.088,0,0,1,19.62,12.9H17.452a4.7,4.7,0,0,0-1.219-2.839,3.687,3.687,0,0,0-2.622-.879,3.858,3.858,0,0,0-3.24,1.529A7.017,7.017,0,0,0,9.2,15.065V16.65a7.214,7.214,0,0,0,1.112,4.237,3.592,3.592,0,0,0,3.111,1.574,4.149,4.149,0,0,0,2.757-.814,4.518,4.518,0,0,0,1.275-2.836Zm2.066-1a7.177,7.177,0,0,1,.7-3.212,5.236,5.236,0,0,1,1.954-2.2,5.319,5.319,0,0,1,2.858-.775,5.124,5.124,0,0,1,4.015,1.718,6.611,6.611,0,0,1,1.533,4.571v.146a7.24,7.24,0,0,1-.679,3.184,5.159,5.159,0,0,1-1.943,2.2,5.38,5.38,0,0,1-2.9.786,5.112,5.112,0,0,1-4-1.718,6.577,6.577,0,0,1-1.533-4.548Zm2.089.247a5.2,5.2,0,0,0,.938,3.246,3.178,3.178,0,0,0,5.026-.017,5.685,5.685,0,0,0,.932-3.476,5.189,5.189,0,0,0-.949-3.24A3.017,3.017,0,0,0,27.2,13.331a2.983,2.983,0,0,0-2.482,1.224A5.642,5.642,0,0,0,23.775,18.059Zm13.533-6.21.056,1.348a4.488,4.488,0,0,1,3.6-1.572,3.474,3.474,0,0,1,3.47,1.954,4.6,4.6,0,0,1,1.578-1.415,4.66,4.66,0,0,1,2.3-.539q4,0,4.065,4.234V24H50.3V15.981a2.79,2.79,0,0,0-.6-1.948,2.621,2.621,0,0,0-2-.646,2.755,2.755,0,0,0-1.92.691,2.8,2.8,0,0,0-.887,1.859V24H42.811V16.038a2.318,2.318,0,0,0-2.594-2.65,2.78,2.78,0,0,0-2.8,1.741V24H35.342V11.849ZM63.014,22.8a4.413,4.413,0,0,1-3.56,1.426A3.777,3.777,0,0,1,56.495,23.1a4.885,4.885,0,0,1-1.028-3.341V11.849h2.078V19.7q0,2.763,2.246,2.763a3.11,3.11,0,0,0,3.167-1.774V11.849h2.078V24H63.059Zm7.143-10.95.067,1.527a4.428,4.428,0,0,1,3.639-1.752q3.852,0,3.886,4.346V24H75.671V15.959a2.8,2.8,0,0,0-.6-1.943,2.408,2.408,0,0,0-1.836-.629,3,3,0,0,0-1.774.539,3.661,3.661,0,0,0-1.19,1.415V24H68.191V11.849ZM83.139,24H81.062V11.849h2.078ZM80.893,8.625a1.24,1.24,0,0,1,.309-.854,1.16,1.16,0,0,1,.915-.348,1.178,1.178,0,0,1,.921.348,1.227,1.227,0,0,1,.314.854,1.187,1.187,0,0,1-.314.842,1.2,1.2,0,0,1-.921.337,1.18,1.18,0,0,1-.915-.337A1.2,1.2,0,0,1,80.893,8.625Zm10.444,13.9a2.993,2.993,0,0,0,1.943-.674A2.371,2.371,0,0,0,94.2,20.17h1.965a3.768,3.768,0,0,1-.719,1.988,4.734,4.734,0,0,1-1.769,1.5,5.1,5.1,0,0,1-2.342.562,5.006,5.006,0,0,1-3.948-1.656,6.6,6.6,0,0,1-1.466-4.531v-.348a7.316,7.316,0,0,1,.651-3.156,4.961,4.961,0,0,1,1.87-2.145,5.312,5.312,0,0,1,2.881-.764,4.873,4.873,0,0,1,3.4,1.224,4.375,4.375,0,0,1,1.443,3.178H94.2a2.863,2.863,0,0,0-.893-1.937,2.777,2.777,0,0,0-1.982-.758,2.908,2.908,0,0,0-2.454,1.14,5.353,5.353,0,0,0-.87,3.3v.393a5.247,5.247,0,0,0,.865,3.234A2.922,2.922,0,0,0,91.337,22.529ZM106,24a4.364,4.364,0,0,1-.292-1.28,4.636,4.636,0,0,1-3.459,1.5,4.289,4.289,0,0,1-2.948-1.016,3.288,3.288,0,0,1-1.151-2.577A3.435,3.435,0,0,1,99.6,17.683a6.8,6.8,0,0,1,4.06-1.05h2.021v-.955a2.333,2.333,0,0,0-.651-1.735,2.618,2.618,0,0,0-1.92-.646,3.03,3.03,0,0,0-1.864.562,1.655,1.655,0,0,0-.752,1.359H98.4a2.867,2.867,0,0,1,.646-1.758,4.407,4.407,0,0,1,1.752-1.342,5.894,5.894,0,0,1,2.431-.494,4.8,4.8,0,0,1,3.291,1.05,3.788,3.788,0,0,1,1.235,2.892v5.593a6.838,6.838,0,0,0,.427,2.662V24Zm-3.448-1.583a3.651,3.651,0,0,0,1.853-.505,3.057,3.057,0,0,0,1.269-1.314V18.1H104.05q-3.818,0-3.818,2.235a1.891,1.891,0,0,0,.651,1.527A2.5,2.5,0,0,0,102.557,22.417Zm14.33-8.7a6.226,6.226,0,0,0-1.022-.079,2.738,2.738,0,0,0-2.774,1.741V24h-2.078V11.849h2.021l.034,1.4a3.235,3.235,0,0,1,2.9-1.628,2.123,2.123,0,0,1,.921.157Zm11.579,7.244,2.83-9.108h2.224l-4.885,14.027q-1.134,3.032-3.6,3.032l-.393-.034-.775-.146V27.043l.562.045a2.765,2.765,0,0,0,1.645-.427,3.088,3.088,0,0,0,.971-1.561l.46-1.235-4.335-12.017h2.269Zm17.475,1.572a2.993,2.993,0,0,0,1.943-.674,2.371,2.371,0,0,0,.921-1.685h1.965a3.768,3.768,0,0,1-.719,1.988,4.734,4.734,0,0,1-1.769,1.5,5.1,5.1,0,0,1-2.342.562,5.006,5.006,0,0,1-3.948-1.656,6.6,6.6,0,0,1-1.466-4.531v-.348a7.316,7.316,0,0,1,.651-3.156,4.961,4.961,0,0,1,1.87-2.145,5.312,5.312,0,0,1,2.881-.764,4.873,4.873,0,0,1,3.4,1.224,4.375,4.375,0,0,1,1.443,3.178H148.8a2.863,2.863,0,0,0-.893-1.937,2.777,2.777,0,0,0-1.982-.758,2.908,2.908,0,0,0-2.454,1.14,5.353,5.353,0,0,0-.87,3.3v.393a5.247,5.247,0,0,0,.865,3.234A2.922,2.922,0,0,0,145.94,22.529Zm6.615-4.717a7.177,7.177,0,0,1,.7-3.212,5.236,5.236,0,0,1,1.954-2.2,5.319,5.319,0,0,1,2.858-.775,5.124,5.124,0,0,1,4.015,1.718,6.611,6.611,0,0,1,1.533,4.571v.146a7.24,7.24,0,0,1-.679,3.184,5.159,5.159,0,0,1-1.943,2.2,5.38,5.38,0,0,1-2.9.786,5.112,5.112,0,0,1-4-1.718,6.577,6.577,0,0,1-1.533-4.548Zm2.089.247a5.2,5.2,0,0,0,.938,3.246,3.178,3.178,0,0,0,5.026-.017,5.685,5.685,0,0,0,.932-3.476,5.189,5.189,0,0,0-.949-3.24,3.017,3.017,0,0,0-2.521-1.241,2.983,2.983,0,0,0-2.482,1.224A5.642,5.642,0,0,0,154.644,18.059Zm13.544-6.21.067,1.527a4.428,4.428,0,0,1,3.639-1.752q3.852,0,3.886,4.346V24H173.7V15.959a2.8,2.8,0,0,0-.6-1.943,2.408,2.408,0,0,0-1.836-.629,3,3,0,0,0-1.774.539,3.661,3.661,0,0,0-1.19,1.415V24h-2.078V11.849Zm17.8,8.928a1.529,1.529,0,0,0-.635-1.308,6.108,6.108,0,0,0-2.212-.8,10.46,10.46,0,0,1-2.5-.809,3.563,3.563,0,0,1-1.37-1.123,2.686,2.686,0,0,1-.444-1.55,3.152,3.152,0,0,1,1.263-2.527,4.934,4.934,0,0,1,3.229-1.033,5.077,5.077,0,0,1,3.352,1.067,3.389,3.389,0,0,1,1.286,2.729h-2.089a1.876,1.876,0,0,0-.724-1.471,2.714,2.714,0,0,0-1.825-.618,2.841,2.841,0,0,0-1.774.494,1.555,1.555,0,0,0-.64,1.292,1.26,1.26,0,0,0,.6,1.134,7.323,7.323,0,0,0,2.151.73,11.206,11.206,0,0,1,2.521.831,3.678,3.678,0,0,1,1.432,1.162,2.858,2.858,0,0,1,.466,1.656,3.11,3.11,0,0,1-1.3,2.611,5.464,5.464,0,0,1-3.38.983,6.119,6.119,0,0,1-2.583-.517,4.2,4.2,0,0,1-1.758-1.443,3.478,3.478,0,0,1-.635-2h2.078a2.151,2.151,0,0,0,.837,1.656,3.246,3.246,0,0,0,2.061.612,3.35,3.35,0,0,0,1.892-.477A1.467,1.467,0,0,0,185.988,20.777ZM198.274,22.8a4.413,4.413,0,0,1-3.56,1.426,3.777,3.777,0,0,1-2.959-1.129,4.885,4.885,0,0,1-1.028-3.341V11.849H192.8V19.7q0,2.763,2.246,2.763a3.11,3.11,0,0,0,3.167-1.774V11.849H200.3V24h-1.977Zm7.435,1.2h-2.078V6.75h2.078Zm6.143-15.094v2.942h2.269v1.606h-2.269V21a1.687,1.687,0,0,0,.3,1.1,1.276,1.276,0,0,0,1.033.365,5.03,5.03,0,0,0,.988-.135V24a6.059,6.059,0,0,1-1.595.223,2.587,2.587,0,0,1-2.1-.842,3.618,3.618,0,0,1-.708-2.392V13.455h-2.212V11.849h2.212V8.906ZM224.048,24a4.364,4.364,0,0,1-.292-1.28,4.636,4.636,0,0,1-3.459,1.5,4.289,4.289,0,0,1-2.948-1.016,3.288,3.288,0,0,1-1.151-2.577,3.435,3.435,0,0,1,1.443-2.948,6.8,6.8,0,0,1,4.06-1.05h2.021v-.955a2.333,2.333,0,0,0-.651-1.735,2.618,2.618,0,0,0-1.92-.646,3.03,3.03,0,0,0-1.864.562,1.655,1.655,0,0,0-.752,1.359h-2.089a2.867,2.867,0,0,1,.646-1.758,4.407,4.407,0,0,1,1.752-1.342,5.894,5.894,0,0,1,2.431-.494,4.8,4.8,0,0,1,3.291,1.05,3.788,3.788,0,0,1,1.235,2.892v5.593a6.838,6.838,0,0,0,.427,2.662V24ZM220.6,22.417a3.651,3.651,0,0,0,1.853-.505,3.057,3.057,0,0,0,1.269-1.314V18.1h-1.628q-3.818,0-3.818,2.235a1.891,1.891,0,0,0,.651,1.527A2.5,2.5,0,0,0,220.6,22.417Zm14.33-8.7a6.226,6.226,0,0,0-1.022-.079,2.738,2.738,0,0,0-2.774,1.741V24h-2.078V11.849h2.021l.034,1.4a3.235,3.235,0,0,1,2.9-1.628,2.123,2.123,0,0,1,.921.157Z" transform="translate(227.189 7545.5) rotate(-90)" fill="#12263f"/>
    <path id="Trazado_287981" data-name="Trazado 287981" d="M10.377,7.648,15.723,20.99,21.068,7.648h2.8V24H21.708V17.632l.2-6.873L16.542,24H14.892L9.535,10.793l.213,6.839V24H7.592V7.648ZM26.8,17.812a7.177,7.177,0,0,1,.7-3.212,5.236,5.236,0,0,1,1.954-2.2,5.319,5.319,0,0,1,2.858-.775,5.124,5.124,0,0,1,4.015,1.718,6.611,6.611,0,0,1,1.533,4.571v.146a7.24,7.24,0,0,1-.679,3.184,5.159,5.159,0,0,1-1.943,2.2,5.38,5.38,0,0,1-2.9.786,5.112,5.112,0,0,1-4-1.718A6.577,6.577,0,0,1,26.8,17.958Zm2.089.247a5.2,5.2,0,0,0,.938,3.246,3.178,3.178,0,0,0,5.026-.017,5.685,5.685,0,0,0,.932-3.476,5.189,5.189,0,0,0-.949-3.24,3.017,3.017,0,0,0-2.521-1.241,2.983,2.983,0,0,0-2.482,1.224A5.642,5.642,0,0,0,28.885,18.059Zm13.544-6.21.067,1.527a4.428,4.428,0,0,1,3.639-1.752q3.852,0,3.886,4.346V24H47.943V15.959a2.8,2.8,0,0,0-.6-1.943,2.408,2.408,0,0,0-1.836-.629,3,3,0,0,0-1.774.539,3.661,3.661,0,0,0-1.19,1.415V24H40.463V11.849ZM55.411,24H53.333V11.849h2.078ZM53.165,8.625a1.24,1.24,0,0,1,.309-.854,1.16,1.16,0,0,1,.915-.348,1.178,1.178,0,0,1,.921.348,1.227,1.227,0,0,1,.314.854,1.187,1.187,0,0,1-.314.842,1.2,1.2,0,0,1-.921.337,1.18,1.18,0,0,1-.915-.337A1.2,1.2,0,0,1,53.165,8.625Zm8.389.281v2.942h2.269v1.606H61.554V21a1.687,1.687,0,0,0,.3,1.1,1.276,1.276,0,0,0,1.033.365,5.03,5.03,0,0,0,.988-.135V24a6.059,6.059,0,0,1-1.595.223,2.587,2.587,0,0,1-2.1-.842,3.618,3.618,0,0,1-.708-2.392V13.455H57.264V11.849h2.212V8.906Zm3.919,8.906a7.177,7.177,0,0,1,.7-3.212,5.236,5.236,0,0,1,1.954-2.2,5.319,5.319,0,0,1,2.858-.775A5.124,5.124,0,0,1,75,13.342a6.611,6.611,0,0,1,1.533,4.571v.146a7.24,7.24,0,0,1-.679,3.184,5.159,5.159,0,0,1-1.943,2.2,5.38,5.38,0,0,1-2.9.786,5.112,5.112,0,0,1-4-1.718,6.577,6.577,0,0,1-1.533-4.548Zm2.089.247A5.2,5.2,0,0,0,68.5,21.3a3.178,3.178,0,0,0,5.026-.017,5.685,5.685,0,0,0,.932-3.476,5.189,5.189,0,0,0-.949-3.24,3.017,3.017,0,0,0-2.521-1.241,2.983,2.983,0,0,0-2.482,1.224A5.642,5.642,0,0,0,67.563,18.059Zm17.452-4.346a6.226,6.226,0,0,0-1.022-.079,2.738,2.738,0,0,0-2.774,1.741V24H79.141V11.849h2.021l.034,1.4a3.235,3.235,0,0,1,2.9-1.628,2.123,2.123,0,0,1,.921.157Zm6.952,10.512A5.309,5.309,0,0,1,87.946,22.6a6.023,6.023,0,0,1-1.55-4.341v-.382a7.292,7.292,0,0,1,.691-3.229,5.388,5.388,0,0,1,1.932-2.224,4.857,4.857,0,0,1,2.69-.8,4.551,4.551,0,0,1,3.684,1.561,6.759,6.759,0,0,1,1.314,4.47v.865H88.474a4.319,4.319,0,0,0,1.05,2.9,3.3,3.3,0,0,0,2.555,1.106,3.619,3.619,0,0,0,1.864-.449,4.684,4.684,0,0,0,1.336-1.19l1.269.988A5.1,5.1,0,0,1,91.966,24.225Zm-.258-10.894a2.771,2.771,0,0,0-2.111.915,4.449,4.449,0,0,0-1.056,2.566h6.087v-.157a3.957,3.957,0,0,0-.854-2.454A2.609,2.609,0,0,0,91.708,13.331ZM106.611,24a4.364,4.364,0,0,1-.292-1.28,4.636,4.636,0,0,1-3.459,1.5,4.289,4.289,0,0,1-2.948-1.016,3.288,3.288,0,0,1-1.151-2.577,3.435,3.435,0,0,1,1.443-2.948,6.8,6.8,0,0,1,4.06-1.05h2.021v-.955a2.333,2.333,0,0,0-.651-1.735,2.618,2.618,0,0,0-1.92-.646,3.03,3.03,0,0,0-1.864.562,1.655,1.655,0,0,0-.752,1.359H99.008a2.867,2.867,0,0,1,.646-1.758,4.407,4.407,0,0,1,1.752-1.342,5.894,5.894,0,0,1,2.431-.494,4.8,4.8,0,0,1,3.291,1.05,3.788,3.788,0,0,1,1.235,2.892v5.593a6.838,6.838,0,0,0,.427,2.662V24Zm-3.448-1.583a3.651,3.651,0,0,0,1.853-.505,3.057,3.057,0,0,0,1.269-1.314V18.1h-1.628q-3.818,0-3.818,2.235a1.891,1.891,0,0,0,.651,1.527A2.5,2.5,0,0,0,103.163,22.417Zm14.33-8.7a6.226,6.226,0,0,0-1.022-.079,2.738,2.738,0,0,0-2.774,1.741V24H111.62V11.849h2.021l.034,1.4a3.235,3.235,0,0,1,2.9-1.628,2.123,2.123,0,0,1,.921.157Zm11.579,7.244,2.83-9.108h2.224L129.24,25.875q-1.134,3.032-3.6,3.032l-.393-.034-.775-.146V27.043l.562.045a2.765,2.765,0,0,0,1.645-.427,3.088,3.088,0,0,0,.971-1.561l.46-1.235-4.335-12.017h2.269Zm18.474-7.244a6.226,6.226,0,0,0-1.022-.079,2.738,2.738,0,0,0-2.774,1.741V24h-2.078V11.849h2.021l.034,1.4a3.235,3.235,0,0,1,2.9-1.628,2.123,2.123,0,0,1,.921.157ZM154.5,24.225a5.309,5.309,0,0,1-4.021-1.623,6.023,6.023,0,0,1-1.55-4.341v-.382a7.292,7.292,0,0,1,.691-3.229,5.388,5.388,0,0,1,1.932-2.224,4.857,4.857,0,0,1,2.69-.8,4.551,4.551,0,0,1,3.684,1.561,6.759,6.759,0,0,1,1.314,4.47v.865H151a4.319,4.319,0,0,0,1.05,2.9,3.3,3.3,0,0,0,2.555,1.106,3.619,3.619,0,0,0,1.864-.449,4.684,4.684,0,0,0,1.336-1.19l1.269.988A5.1,5.1,0,0,1,154.5,24.225Zm-.258-10.894a2.771,2.771,0,0,0-2.111.915,4.449,4.449,0,0,0-1.056,2.566h6.087v-.157a3.957,3.957,0,0,0-.854-2.454A2.609,2.609,0,0,0,154.239,13.331Zm11.264,7.85,3.01-9.333h2.123L166.278,24h-1.583l-4.4-12.151h2.123ZM174.892,24h-2.078V11.849h2.078ZM172.646,8.625a1.24,1.24,0,0,1,.309-.854,1.16,1.16,0,0,1,.915-.348,1.178,1.178,0,0,1,.921.348,1.227,1.227,0,0,1,.314.854,1.187,1.187,0,0,1-.314.842,1.2,1.2,0,0,1-.921.337,1.18,1.18,0,0,1-.915-.337A1.2,1.2,0,0,1,172.646,8.625Zm12.646,12.151a1.529,1.529,0,0,0-.635-1.308,6.108,6.108,0,0,0-2.212-.8,10.46,10.46,0,0,1-2.5-.809,3.563,3.563,0,0,1-1.37-1.123,2.686,2.686,0,0,1-.444-1.55,3.152,3.152,0,0,1,1.263-2.527,4.934,4.934,0,0,1,3.229-1.033,5.077,5.077,0,0,1,3.352,1.067,3.389,3.389,0,0,1,1.286,2.729h-2.089a1.876,1.876,0,0,0-.724-1.471,2.714,2.714,0,0,0-1.825-.618,2.841,2.841,0,0,0-1.774.494,1.555,1.555,0,0,0-.64,1.292,1.26,1.26,0,0,0,.6,1.134,7.323,7.323,0,0,0,2.151.73,11.206,11.206,0,0,1,2.521.831,3.678,3.678,0,0,1,1.432,1.162,2.858,2.858,0,0,1,.466,1.656,3.11,3.11,0,0,1-1.3,2.611,5.464,5.464,0,0,1-3.38.983,6.119,6.119,0,0,1-2.583-.517,4.2,4.2,0,0,1-1.758-1.443,3.478,3.478,0,0,1-.635-2h2.078a2.151,2.151,0,0,0,.837,1.656,3.246,3.246,0,0,0,2.061.612,3.35,3.35,0,0,0,1.892-.477A1.467,1.467,0,0,0,185.292,20.777ZM197.578,24a4.364,4.364,0,0,1-.292-1.28,4.636,4.636,0,0,1-3.459,1.5,4.289,4.289,0,0,1-2.948-1.016,3.288,3.288,0,0,1-1.151-2.577,3.435,3.435,0,0,1,1.443-2.948,6.8,6.8,0,0,1,4.06-1.05h2.021v-.955a2.333,2.333,0,0,0-.651-1.735,2.618,2.618,0,0,0-1.92-.646,3.03,3.03,0,0,0-1.864.562,1.655,1.655,0,0,0-.752,1.359h-2.089a2.867,2.867,0,0,1,.646-1.758,4.407,4.407,0,0,1,1.752-1.342,5.894,5.894,0,0,1,2.431-.494,4.8,4.8,0,0,1,3.291,1.05,3.788,3.788,0,0,1,1.235,2.892v5.593a6.838,6.838,0,0,0,.427,2.662V24Zm-3.448-1.583a3.651,3.651,0,0,0,1.853-.505,3.057,3.057,0,0,0,1.269-1.314V18.1h-1.628q-3.818,0-3.818,2.235a1.891,1.891,0,0,0,.651,1.527A2.5,2.5,0,0,0,194.13,22.417Zm14.33-8.7a6.226,6.226,0,0,0-1.022-.079,2.738,2.738,0,0,0-2.774,1.741V24h-2.078V11.849h2.021l.034,1.4a3.235,3.235,0,0,1,2.9-1.628,2.123,2.123,0,0,1,.921.157Z" transform="translate(1354.189 7532.507) rotate(-90)" fill="#12263f"/>
    <g transform="matrix(1, 0, 0, 1, 122.55, 7158)" filter="url(#Rectángulo_59636-2)">
      <rect id="Rectángulo_59636-7" data-name="Rectángulo 59636" width="471" height="64" rx="6" transform="translate(441.64 117)" fill="#7f0f98"/>
    </g>
    <rect id="Rectángulo_59635-2" data-name="Rectángulo 59635" width="456" height="50" rx="6" transform="translate(572.189 7282)" fill="#fff"/>
    <path id="Trazado_287977" data-name="Trazado 287977" d="M4.211,24H2.055V7.648H4.211Zm3.111-6.177a7.118,7.118,0,0,1,1.325-4.5,4.191,4.191,0,0,1,3.47-1.7,4.214,4.214,0,0,1,3.38,1.46V6.75h2.078V24H15.667l-.1-1.3a4.231,4.231,0,0,1-3.47,1.527A4.15,4.15,0,0,1,8.653,22.5,7.2,7.2,0,0,1,7.322,17.98Zm2.078.236a5.39,5.39,0,0,0,.854,3.234,2.759,2.759,0,0,0,2.358,1.168A3.031,3.031,0,0,0,15.5,20.687V15.105a3.054,3.054,0,0,0-2.864-1.718,2.772,2.772,0,0,0-2.381,1.179A5.934,5.934,0,0,0,9.4,18.059Zm16.441,6.166A5.309,5.309,0,0,1,21.821,22.6a6.023,6.023,0,0,1-1.55-4.341v-.382a7.292,7.292,0,0,1,.691-3.229,5.388,5.388,0,0,1,1.932-2.224,4.857,4.857,0,0,1,2.69-.8,4.551,4.551,0,0,1,3.684,1.561,6.759,6.759,0,0,1,1.314,4.47v.865H22.349a4.319,4.319,0,0,0,1.05,2.9,3.3,3.3,0,0,0,2.555,1.106,3.619,3.619,0,0,0,1.864-.449,4.684,4.684,0,0,0,1.336-1.19l1.269.988A5.1,5.1,0,0,1,25.841,24.225Zm-.258-10.894a2.771,2.771,0,0,0-2.111.915,4.449,4.449,0,0,0-1.056,2.566H28.5v-.157a3.957,3.957,0,0,0-.854-2.454A2.609,2.609,0,0,0,25.583,13.331Zm9.366-1.482.067,1.527a4.428,4.428,0,0,1,3.639-1.752q3.852,0,3.886,4.346V24H40.463V15.959a2.8,2.8,0,0,0-.6-1.943,2.408,2.408,0,0,0-1.836-.629,3,3,0,0,0-1.774.539,3.661,3.661,0,0,0-1.19,1.415V24H32.984V11.849ZM48.493,8.906v2.942h2.269v1.606H48.493V21a1.687,1.687,0,0,0,.3,1.1,1.276,1.276,0,0,0,1.033.365,5.03,5.03,0,0,0,.988-.135V24a6.059,6.059,0,0,1-1.595.223,2.587,2.587,0,0,1-2.1-.842,3.618,3.618,0,0,1-.708-2.392V13.455H44.2V11.849h2.212V8.906ZM55.445,24H53.367V11.849h2.078ZM53.2,8.625a1.24,1.24,0,0,1,.309-.854,1.16,1.16,0,0,1,.915-.348,1.178,1.178,0,0,1,.921.348,1.227,1.227,0,0,1,.314.854,1.187,1.187,0,0,1-.314.842,1.2,1.2,0,0,1-.921.337,1.18,1.18,0,0,1-.915-.337A1.2,1.2,0,0,1,53.2,8.625ZM59.465,24V13.455h-1.92V11.849h1.92V10.815a4.222,4.222,0,0,1,1.162-3.167,4.507,4.507,0,0,1,3.285-1.134,9.891,9.891,0,0,1,3.178.685l-.348,1.752A7.2,7.2,0,0,0,64.07,8.39a2.615,2.615,0,0,0-1.926.6,2.477,2.477,0,0,0-.59,1.8v1.056h2.482v1.606H61.554V24Zm8.659,0H66.035V11.849h2.089Zm8.254-1.471a2.993,2.993,0,0,0,1.943-.674,2.371,2.371,0,0,0,.921-1.685h1.965a3.768,3.768,0,0,1-.719,1.988,4.734,4.734,0,0,1-1.769,1.5,5.1,5.1,0,0,1-2.342.562,5.006,5.006,0,0,1-3.948-1.656,6.6,6.6,0,0,1-1.466-4.531v-.348a7.316,7.316,0,0,1,.651-3.156,4.961,4.961,0,0,1,1.87-2.145,5.312,5.312,0,0,1,2.881-.764,4.873,4.873,0,0,1,3.4,1.224,4.375,4.375,0,0,1,1.443,3.178H79.242a2.863,2.863,0,0,0-.893-1.937,2.777,2.777,0,0,0-1.982-.758,2.908,2.908,0,0,0-2.454,1.14,5.353,5.353,0,0,0-.87,3.3v.393a5.247,5.247,0,0,0,.865,3.234A2.922,2.922,0,0,0,76.378,22.529ZM91.045,24a4.364,4.364,0,0,1-.292-1.28,4.636,4.636,0,0,1-3.459,1.5,4.289,4.289,0,0,1-2.948-1.016A3.288,3.288,0,0,1,83.2,20.631a3.435,3.435,0,0,1,1.443-2.948,6.8,6.8,0,0,1,4.06-1.05H90.72v-.955a2.333,2.333,0,0,0-.651-1.735,2.618,2.618,0,0,0-1.92-.646,3.03,3.03,0,0,0-1.864.562,1.655,1.655,0,0,0-.752,1.359H83.442a2.867,2.867,0,0,1,.646-1.758,4.407,4.407,0,0,1,1.752-1.342,5.894,5.894,0,0,1,2.431-.494,4.8,4.8,0,0,1,3.291,1.05A3.788,3.788,0,0,1,92.8,15.566v5.593a6.838,6.838,0,0,0,.427,2.662V24ZM87.6,22.417a3.651,3.651,0,0,0,1.853-.505A3.057,3.057,0,0,0,90.72,20.6V18.1H89.091q-3.818,0-3.818,2.235a1.891,1.891,0,0,0,.651,1.527A2.5,2.5,0,0,0,87.6,22.417Zm14.33-8.7a6.226,6.226,0,0,0-1.022-.079,2.738,2.738,0,0,0-2.774,1.741V24H96.054V11.849h2.021l.034,1.4a3.235,3.235,0,0,1,2.9-1.628,2.123,2.123,0,0,1,.921.157Zm13.477,0a6.226,6.226,0,0,0-1.022-.079,2.738,2.738,0,0,0-2.774,1.741V24h-2.078V11.849h2.021l.034,1.4a3.235,3.235,0,0,1,2.9-1.628,2.123,2.123,0,0,1,.921.157ZM119.571,24h-2.078V11.849h2.078ZM117.325,8.625a1.24,1.24,0,0,1,.309-.854,1.16,1.16,0,0,1,.915-.348,1.178,1.178,0,0,1,.921.348,1.227,1.227,0,0,1,.314.854,1.187,1.187,0,0,1-.314.842,1.2,1.2,0,0,1-.921.337,1.18,1.18,0,0,1-.915-.337A1.2,1.2,0,0,1,117.325,8.625Zm10.613,15.6a5.309,5.309,0,0,1-4.021-1.623,6.023,6.023,0,0,1-1.55-4.341v-.382a7.292,7.292,0,0,1,.691-3.229,5.388,5.388,0,0,1,1.932-2.224,4.857,4.857,0,0,1,2.69-.8,4.551,4.551,0,0,1,3.684,1.561,6.759,6.759,0,0,1,1.314,4.47v.865h-8.232a4.319,4.319,0,0,0,1.05,2.9,3.3,3.3,0,0,0,2.555,1.106,3.619,3.619,0,0,0,1.864-.449,4.684,4.684,0,0,0,1.336-1.19l1.269.988A5.1,5.1,0,0,1,127.938,24.225Zm-.258-10.894a2.771,2.771,0,0,0-2.111.915,4.449,4.449,0,0,0-1.056,2.566H130.6v-.157a3.957,3.957,0,0,0-.854-2.454A2.609,2.609,0,0,0,127.679,13.331Zm14.476,7.446a1.529,1.529,0,0,0-.635-1.308,6.108,6.108,0,0,0-2.212-.8,10.46,10.46,0,0,1-2.5-.809,3.563,3.563,0,0,1-1.37-1.123,2.686,2.686,0,0,1-.444-1.55,3.152,3.152,0,0,1,1.263-2.527,4.934,4.934,0,0,1,3.229-1.033,5.077,5.077,0,0,1,3.352,1.067,3.389,3.389,0,0,1,1.286,2.729h-2.089a1.876,1.876,0,0,0-.724-1.471,2.714,2.714,0,0,0-1.825-.618,2.841,2.841,0,0,0-1.774.494,1.555,1.555,0,0,0-.64,1.292,1.26,1.26,0,0,0,.6,1.134,7.323,7.323,0,0,0,2.151.73,11.206,11.206,0,0,1,2.521.831,3.678,3.678,0,0,1,1.432,1.162,2.858,2.858,0,0,1,.466,1.656,3.11,3.11,0,0,1-1.3,2.611,5.464,5.464,0,0,1-3.38.983,6.119,6.119,0,0,1-2.583-.517,4.2,4.2,0,0,1-1.758-1.443,3.478,3.478,0,0,1-.635-2h2.078a2.151,2.151,0,0,0,.837,1.656,3.246,3.246,0,0,0,2.061.612,3.35,3.35,0,0,0,1.892-.477A1.467,1.467,0,0,0,142.155,20.777Zm4.29-2.954a7.142,7.142,0,0,1,1.314-4.52,4.53,4.53,0,0,1,6.952-.107l.1-1.348h1.9V23.708a4.943,4.943,0,0,1-1.4,3.717,5.16,5.16,0,0,1-3.757,1.359,6.25,6.25,0,0,1-2.572-.562,4.427,4.427,0,0,1-1.92-1.539l1.078-1.247a4.063,4.063,0,0,0,3.268,1.651,3.183,3.183,0,0,0,2.364-.854,3.262,3.262,0,0,0,.848-2.4V22.787a4.27,4.27,0,0,1-3.4,1.438,4.151,4.151,0,0,1-3.453-1.718A7.509,7.509,0,0,1,146.445,17.823Zm2.089.236a5.448,5.448,0,0,0,.842,3.229,2.737,2.737,0,0,0,2.358,1.174,3.043,3.043,0,0,0,2.886-1.786V15.128a3.079,3.079,0,0,0-2.864-1.741,2.761,2.761,0,0,0-2.37,1.179A5.934,5.934,0,0,0,148.534,18.059Zm10.759-.247a7.177,7.177,0,0,1,.7-3.212,5.236,5.236,0,0,1,1.954-2.2,5.319,5.319,0,0,1,2.858-.775,5.124,5.124,0,0,1,4.015,1.718,6.611,6.611,0,0,1,1.533,4.571v.146a7.24,7.24,0,0,1-.679,3.184,5.159,5.159,0,0,1-1.943,2.2,5.38,5.38,0,0,1-2.9.786,5.112,5.112,0,0,1-4-1.718,6.577,6.577,0,0,1-1.533-4.548Zm2.089.247a5.2,5.2,0,0,0,.938,3.246,3.178,3.178,0,0,0,5.026-.017,5.685,5.685,0,0,0,.932-3.476,5.189,5.189,0,0,0-.949-3.24,3.017,3.017,0,0,0-2.521-1.241,2.983,2.983,0,0,0-2.482,1.224A5.642,5.642,0,0,0,161.382,18.059Zm18.654,2.718a1.529,1.529,0,0,0-.635-1.308,6.108,6.108,0,0,0-2.212-.8,10.46,10.46,0,0,1-2.5-.809,3.563,3.563,0,0,1-1.37-1.123,2.686,2.686,0,0,1-.444-1.55,3.152,3.152,0,0,1,1.263-2.527,4.934,4.934,0,0,1,3.229-1.033,5.077,5.077,0,0,1,3.352,1.067A3.389,3.389,0,0,1,182,15.42h-2.089a1.876,1.876,0,0,0-.724-1.471,2.714,2.714,0,0,0-1.825-.618,2.841,2.841,0,0,0-1.774.494,1.555,1.555,0,0,0-.64,1.292,1.26,1.26,0,0,0,.6,1.134,7.323,7.323,0,0,0,2.151.73,11.206,11.206,0,0,1,2.521.831,3.678,3.678,0,0,1,1.432,1.162,2.858,2.858,0,0,1,.466,1.656,3.11,3.11,0,0,1-1.3,2.611,5.464,5.464,0,0,1-3.38.983,6.119,6.119,0,0,1-2.583-.517,4.2,4.2,0,0,1-1.758-1.443,3.478,3.478,0,0,1-.635-2h2.078a2.151,2.151,0,0,0,.837,1.656,3.246,3.246,0,0,0,2.061.612,3.35,3.35,0,0,0,1.892-.477A1.467,1.467,0,0,0,180.036,20.777Z" transform="translate(704.189 7293)" fill="#12263f"/>
    <g transform="matrix(1, 0, 0, 1, 122.55, 7158)" filter="url(#Rectángulo_59636-3)">
      <rect id="Rectángulo_59636-8" data-name="Rectángulo 59636" width="471" height="64" rx="6" transform="translate(441.64 233)" fill="#7f0f98"/>
    </g>
    <rect id="Rectángulo_59635-3" data-name="Rectángulo 59635" width="456" height="50" rx="6" transform="translate(572.189 7398)" fill="#fff"/>
    <path id="Trazado_287978" data-name="Trazado 287978" d="M16.621,19.721H9.771L8.232,24H6.008L12.252,7.648h1.887L20.395,24H18.182Zm-6.2-1.763h5.559L13.2,10.31Zm13.813-6.109.067,1.527a4.428,4.428,0,0,1,3.639-1.752q3.852,0,3.886,4.346V24H29.75V15.959a2.8,2.8,0,0,0-.6-1.943,2.408,2.408,0,0,0-1.836-.629,3,3,0,0,0-1.774.539,3.661,3.661,0,0,0-1.19,1.415V24H22.27V11.849ZM42.462,24a4.364,4.364,0,0,1-.292-1.28,4.636,4.636,0,0,1-3.459,1.5,4.289,4.289,0,0,1-2.948-1.016,3.288,3.288,0,0,1-1.151-2.577,3.435,3.435,0,0,1,1.443-2.948,6.8,6.8,0,0,1,4.06-1.05h2.021v-.955a2.333,2.333,0,0,0-.651-1.735,2.618,2.618,0,0,0-1.92-.646,3.03,3.03,0,0,0-1.864.562,1.655,1.655,0,0,0-.752,1.359H34.859a2.867,2.867,0,0,1,.646-1.758,4.407,4.407,0,0,1,1.752-1.342,5.894,5.894,0,0,1,2.431-.494,4.8,4.8,0,0,1,3.291,1.05,3.788,3.788,0,0,1,1.235,2.892v5.593a6.838,6.838,0,0,0,.427,2.662V24Zm-3.448-1.583a3.651,3.651,0,0,0,1.853-.505A3.057,3.057,0,0,0,42.137,20.6V18.1H40.508q-3.818,0-3.818,2.235a1.891,1.891,0,0,0,.651,1.527A2.5,2.5,0,0,0,39.015,22.417ZM49.729,24H47.651V6.75h2.078Zm5.582,0H53.232V11.849H55.31ZM53.064,8.625a1.24,1.24,0,0,1,.309-.854,1.16,1.16,0,0,1,.915-.348,1.178,1.178,0,0,1,.921.348,1.227,1.227,0,0,1,.314.854,1.187,1.187,0,0,1-.314.842,1.2,1.2,0,0,1-.921.337,1.18,1.18,0,0,1-.915-.337A1.2,1.2,0,0,1,53.064,8.625ZM60.588,22.3H67.7V24H58.05V22.473l6.7-8.906h-6.6V11.849H67.36V13.32ZM77.535,24a4.364,4.364,0,0,1-.292-1.28,4.636,4.636,0,0,1-3.459,1.5,4.289,4.289,0,0,1-2.948-1.016,3.288,3.288,0,0,1-1.151-2.577,3.435,3.435,0,0,1,1.443-2.948,6.8,6.8,0,0,1,4.06-1.05h2.021v-.955a2.333,2.333,0,0,0-.651-1.735,2.618,2.618,0,0,0-1.92-.646,3.03,3.03,0,0,0-1.864.562,1.655,1.655,0,0,0-.752,1.359H69.932a2.867,2.867,0,0,1,.646-1.758,4.407,4.407,0,0,1,1.752-1.342,5.894,5.894,0,0,1,2.431-.494,4.8,4.8,0,0,1,3.291,1.05,3.788,3.788,0,0,1,1.235,2.892v5.593a6.838,6.838,0,0,0,.427,2.662V24Zm-3.448-1.583a3.651,3.651,0,0,0,1.853-.505A3.057,3.057,0,0,0,77.209,20.6V18.1H75.581q-3.818,0-3.818,2.235a1.891,1.891,0,0,0,.651,1.527A2.5,2.5,0,0,0,74.087,22.417Zm14.33-8.7a6.226,6.226,0,0,0-1.022-.079,2.738,2.738,0,0,0-2.774,1.741V24H82.544V11.849h2.021l.034,1.4a3.235,3.235,0,0,1,2.9-1.628,2.123,2.123,0,0,1,.921.157ZM98.278,24H96.2V6.75h2.078Zm2.774-6.188a7.177,7.177,0,0,1,.7-3.212,5.236,5.236,0,0,1,1.954-2.2,5.319,5.319,0,0,1,2.858-.775,5.124,5.124,0,0,1,4.015,1.718,6.611,6.611,0,0,1,1.533,4.571v.146a7.24,7.24,0,0,1-.679,3.184,5.159,5.159,0,0,1-1.943,2.2,5.38,5.38,0,0,1-2.9.786,5.112,5.112,0,0,1-4-1.718,6.577,6.577,0,0,1-1.533-4.548Zm2.089.247a5.2,5.2,0,0,0,.938,3.246,3.178,3.178,0,0,0,5.026-.017,5.685,5.685,0,0,0,.932-3.476,5.189,5.189,0,0,0-.949-3.24,3.017,3.017,0,0,0-2.521-1.241,2.983,2.983,0,0,0-2.482,1.224A5.642,5.642,0,0,0,103.141,18.059Zm18.654,2.718a1.53,1.53,0,0,0-.635-1.308,6.108,6.108,0,0,0-2.212-.8,10.46,10.46,0,0,1-2.5-.809,3.563,3.563,0,0,1-1.37-1.123,2.686,2.686,0,0,1-.444-1.55,3.152,3.152,0,0,1,1.263-2.527,4.934,4.934,0,0,1,3.229-1.033,5.077,5.077,0,0,1,3.352,1.067,3.389,3.389,0,0,1,1.286,2.729h-2.089a1.876,1.876,0,0,0-.724-1.471,2.714,2.714,0,0,0-1.825-.618,2.84,2.84,0,0,0-1.774.494,1.555,1.555,0,0,0-.64,1.292,1.26,1.26,0,0,0,.6,1.134,7.323,7.323,0,0,0,2.151.73,11.206,11.206,0,0,1,2.521.831,3.678,3.678,0,0,1,1.432,1.162,2.858,2.858,0,0,1,.466,1.656,3.11,3.11,0,0,1-1.3,2.611,5.464,5.464,0,0,1-3.38.983,6.119,6.119,0,0,1-2.583-.517,4.2,4.2,0,0,1-1.758-1.443,3.478,3.478,0,0,1-.635-2h2.078a2.151,2.151,0,0,0,.837,1.656,3.246,3.246,0,0,0,2.061.612,3.35,3.35,0,0,0,1.892-.477A1.467,1.467,0,0,0,121.794,20.777Zm16.352-7.064a6.226,6.226,0,0,0-1.022-.079,2.738,2.738,0,0,0-2.774,1.741V24h-2.078V11.849h2.021l.034,1.4a3.235,3.235,0,0,1,2.9-1.628,2.123,2.123,0,0,1,.921.157ZM142.313,24h-2.078V11.849h2.078ZM140.066,8.625a1.24,1.24,0,0,1,.309-.854,1.16,1.16,0,0,1,.915-.348,1.178,1.178,0,0,1,.921.348,1.227,1.227,0,0,1,.314.854,1.187,1.187,0,0,1-.314.842,1.2,1.2,0,0,1-.921.337,1.18,1.18,0,0,1-.915-.337A1.2,1.2,0,0,1,140.066,8.625Zm10.613,15.6a5.309,5.309,0,0,1-4.021-1.623,6.023,6.023,0,0,1-1.55-4.341v-.382a7.292,7.292,0,0,1,.691-3.229,5.388,5.388,0,0,1,1.932-2.224,4.857,4.857,0,0,1,2.69-.8,4.551,4.551,0,0,1,3.684,1.561,6.759,6.759,0,0,1,1.314,4.47v.865h-8.232a4.319,4.319,0,0,0,1.05,2.9,3.3,3.3,0,0,0,2.555,1.106,3.619,3.619,0,0,0,1.864-.449,4.684,4.684,0,0,0,1.336-1.19l1.269.988A5.1,5.1,0,0,1,150.679,24.225Zm-.258-10.894a2.771,2.771,0,0,0-2.111.915,4.449,4.449,0,0,0-1.056,2.566h6.087v-.157a3.957,3.957,0,0,0-.854-2.454A2.609,2.609,0,0,0,150.421,13.331ZM164.9,20.777a1.529,1.529,0,0,0-.635-1.308,6.108,6.108,0,0,0-2.212-.8,10.46,10.46,0,0,1-2.5-.809,3.563,3.563,0,0,1-1.37-1.123,2.686,2.686,0,0,1-.444-1.55A3.152,3.152,0,0,1,159,12.657a4.934,4.934,0,0,1,3.229-1.033,5.077,5.077,0,0,1,3.352,1.067,3.389,3.389,0,0,1,1.286,2.729h-2.089a1.876,1.876,0,0,0-.724-1.471,2.714,2.714,0,0,0-1.825-.618,2.841,2.841,0,0,0-1.774.494,1.555,1.555,0,0,0-.64,1.292,1.26,1.26,0,0,0,.6,1.134,7.323,7.323,0,0,0,2.151.73,11.206,11.206,0,0,1,2.521.831,3.678,3.678,0,0,1,1.432,1.162,2.858,2.858,0,0,1,.466,1.656,3.11,3.11,0,0,1-1.3,2.611,5.464,5.464,0,0,1-3.38.983,6.119,6.119,0,0,1-2.583-.517,4.2,4.2,0,0,1-1.758-1.443,3.478,3.478,0,0,1-.635-2h2.078a2.151,2.151,0,0,0,.837,1.656,3.246,3.246,0,0,0,2.061.612,3.35,3.35,0,0,0,1.892-.477A1.467,1.467,0,0,0,164.9,20.777Zm4.29-2.954A7.142,7.142,0,0,1,170.5,13.3a4.53,4.53,0,0,1,6.952-.107l.1-1.348h1.9V23.708a4.943,4.943,0,0,1-1.4,3.717,5.16,5.16,0,0,1-3.757,1.359,6.25,6.25,0,0,1-2.572-.562,4.427,4.427,0,0,1-1.92-1.539l1.078-1.247a4.063,4.063,0,0,0,3.268,1.651,3.183,3.183,0,0,0,2.364-.854,3.262,3.262,0,0,0,.848-2.4V22.787a4.27,4.27,0,0,1-3.4,1.438,4.151,4.151,0,0,1-3.453-1.718A7.509,7.509,0,0,1,169.187,17.823Zm2.089.236a5.448,5.448,0,0,0,.842,3.229,2.737,2.737,0,0,0,2.358,1.174,3.043,3.043,0,0,0,2.886-1.786V15.128a3.079,3.079,0,0,0-2.864-1.741,2.761,2.761,0,0,0-2.37,1.179A5.934,5.934,0,0,0,171.276,18.059Zm10.759-.247a7.177,7.177,0,0,1,.7-3.212,5.236,5.236,0,0,1,1.954-2.2,5.319,5.319,0,0,1,2.858-.775,5.124,5.124,0,0,1,4.015,1.718,6.611,6.611,0,0,1,1.533,4.571v.146a7.24,7.24,0,0,1-.679,3.184,5.159,5.159,0,0,1-1.943,2.2,5.38,5.38,0,0,1-2.9.786,5.112,5.112,0,0,1-4-1.718,6.577,6.577,0,0,1-1.533-4.548Zm2.089.247a5.2,5.2,0,0,0,.938,3.246,3.178,3.178,0,0,0,5.026-.017,5.685,5.685,0,0,0,.932-3.476,5.189,5.189,0,0,0-.949-3.24,3.017,3.017,0,0,0-2.521-1.241,2.983,2.983,0,0,0-2.482,1.224A5.642,5.642,0,0,0,184.124,18.059Zm18.654,2.718a1.529,1.529,0,0,0-.635-1.308,6.108,6.108,0,0,0-2.212-.8,10.46,10.46,0,0,1-2.5-.809,3.563,3.563,0,0,1-1.37-1.123,2.686,2.686,0,0,1-.444-1.55,3.152,3.152,0,0,1,1.263-2.527,4.934,4.934,0,0,1,3.229-1.033,5.077,5.077,0,0,1,3.352,1.067,3.389,3.389,0,0,1,1.286,2.729h-2.089a1.876,1.876,0,0,0-.724-1.471,2.714,2.714,0,0,0-1.825-.618,2.841,2.841,0,0,0-1.774.494,1.555,1.555,0,0,0-.64,1.292,1.26,1.26,0,0,0,.6,1.134,7.323,7.323,0,0,0,2.151.73,11.206,11.206,0,0,1,2.521.831,3.678,3.678,0,0,1,1.432,1.162,2.858,2.858,0,0,1,.466,1.656,3.11,3.11,0,0,1-1.3,2.611,5.464,5.464,0,0,1-3.38.983,6.119,6.119,0,0,1-2.583-.517,4.2,4.2,0,0,1-1.758-1.443,3.478,3.478,0,0,1-.635-2h2.078a2.151,2.151,0,0,0,.837,1.656,3.246,3.246,0,0,0,2.061.612,3.35,3.35,0,0,0,1.892-.477A1.467,1.467,0,0,0,202.777,20.777Z" transform="translate(695.189 7409)" fill="#12263f"/>
    <g transform="matrix(1, 0, 0, 1, 122.55, 7158)" filter="url(#Rectángulo_59636-4)">
      <rect id="Rectángulo_59636-9" data-name="Rectángulo 59636" width="471" height="64" rx="6" transform="translate(441.64 349)" fill="#7f0f98"/>
    </g>
    <rect id="Rectángulo_59635-4" data-name="Rectángulo 59635" width="456" height="50" rx="6" transform="translate(572.189 7514)" fill="#fff"/>
    <path id="Trazado_287979" data-name="Trazado 287979" d="M16.834,16.442H9.748v5.795H17.98V24H7.592V7.648H17.868V9.412H9.748v5.267h7.086Zm7.221,4.739,3.01-9.333h2.123L24.831,24H23.247l-4.4-12.151h2.123ZM38.521,24a4.364,4.364,0,0,1-.292-1.28,4.636,4.636,0,0,1-3.459,1.5,4.289,4.289,0,0,1-2.948-1.016,3.288,3.288,0,0,1-1.151-2.577,3.435,3.435,0,0,1,1.443-2.948,6.8,6.8,0,0,1,4.06-1.05h2.021v-.955a2.333,2.333,0,0,0-.651-1.735,2.618,2.618,0,0,0-1.92-.646,3.03,3.03,0,0,0-1.864.562,1.655,1.655,0,0,0-.752,1.359H30.917a2.867,2.867,0,0,1,.646-1.758,4.407,4.407,0,0,1,1.752-1.342,5.894,5.894,0,0,1,2.431-.494,4.8,4.8,0,0,1,3.291,1.05,3.788,3.788,0,0,1,1.235,2.892v5.593A6.838,6.838,0,0,0,40.7,23.82V24Zm-3.448-1.583a3.651,3.651,0,0,0,1.853-.505A3.057,3.057,0,0,0,38.195,20.6V18.1H36.566q-3.818,0-3.818,2.235a1.891,1.891,0,0,0,.651,1.527A2.5,2.5,0,0,0,35.073,22.417ZM45.787,24H43.709V6.75h2.078Zm10.826-1.2a4.413,4.413,0,0,1-3.56,1.426A3.777,3.777,0,0,1,50.094,23.1a4.885,4.885,0,0,1-1.028-3.341V11.849h2.078V19.7q0,2.763,2.246,2.763a3.11,3.11,0,0,0,3.167-1.774V11.849h2.078V24H56.658ZM69.292,24A4.364,4.364,0,0,1,69,22.72a4.636,4.636,0,0,1-3.459,1.5,4.289,4.289,0,0,1-2.948-1.016,3.288,3.288,0,0,1-1.151-2.577,3.435,3.435,0,0,1,1.443-2.948,6.8,6.8,0,0,1,4.06-1.05h2.021v-.955a2.333,2.333,0,0,0-.651-1.735,2.618,2.618,0,0,0-1.92-.646,3.03,3.03,0,0,0-1.864.562,1.655,1.655,0,0,0-.752,1.359H61.689a2.867,2.867,0,0,1,.646-1.758,4.407,4.407,0,0,1,1.752-1.342,5.894,5.894,0,0,1,2.431-.494,4.8,4.8,0,0,1,3.291,1.05,3.788,3.788,0,0,1,1.235,2.892v5.593a6.838,6.838,0,0,0,.427,2.662V24Zm-3.448-1.583a3.651,3.651,0,0,0,1.853-.505A3.057,3.057,0,0,0,68.966,20.6V18.1H67.338q-3.818,0-3.818,2.235a1.891,1.891,0,0,0,.651,1.527A2.5,2.5,0,0,0,65.844,22.417Zm14.33-8.7a6.226,6.226,0,0,0-1.022-.079,2.738,2.738,0,0,0-2.774,1.741V24H74.3V11.849h2.021l.034,1.4a3.235,3.235,0,0,1,2.9-1.628,2.123,2.123,0,0,1,.921.157Zm13.477,0a6.226,6.226,0,0,0-1.022-.079,2.738,2.738,0,0,0-2.774,1.741V24H87.777V11.849H89.8l.034,1.4a3.235,3.235,0,0,1,2.9-1.628,2.123,2.123,0,0,1,.921.157ZM97.817,24H95.74V11.849h2.078ZM95.571,8.625a1.24,1.24,0,0,1,.309-.854,1.16,1.16,0,0,1,.915-.348,1.178,1.178,0,0,1,.921.348,1.227,1.227,0,0,1,.314.854,1.187,1.187,0,0,1-.314.842A1.2,1.2,0,0,1,96.8,9.8a1.18,1.18,0,0,1-.915-.337A1.2,1.2,0,0,1,95.571,8.625Zm10.613,15.6a5.309,5.309,0,0,1-4.021-1.623,6.023,6.023,0,0,1-1.55-4.341v-.382a7.292,7.292,0,0,1,.691-3.229,5.388,5.388,0,0,1,1.932-2.224,4.857,4.857,0,0,1,2.69-.8,4.551,4.551,0,0,1,3.684,1.561,6.759,6.759,0,0,1,1.314,4.47v.865h-8.232a4.319,4.319,0,0,0,1.05,2.9,3.3,3.3,0,0,0,2.555,1.106,3.619,3.619,0,0,0,1.864-.449,4.684,4.684,0,0,0,1.336-1.19l1.269.988A5.1,5.1,0,0,1,106.184,24.225Zm-.258-10.894a2.771,2.771,0,0,0-2.111.915,4.449,4.449,0,0,0-1.056,2.566h6.087v-.157a3.957,3.957,0,0,0-.854-2.454A2.609,2.609,0,0,0,105.926,13.331ZM120.4,20.777a1.53,1.53,0,0,0-.635-1.308,6.108,6.108,0,0,0-2.212-.8,10.46,10.46,0,0,1-2.5-.809,3.563,3.563,0,0,1-1.37-1.123,2.686,2.686,0,0,1-.444-1.55,3.152,3.152,0,0,1,1.263-2.527,4.934,4.934,0,0,1,3.229-1.033,5.077,5.077,0,0,1,3.352,1.067,3.389,3.389,0,0,1,1.286,2.729h-2.089a1.876,1.876,0,0,0-.724-1.471,2.714,2.714,0,0,0-1.825-.618,2.84,2.84,0,0,0-1.774.494,1.555,1.555,0,0,0-.64,1.292,1.26,1.26,0,0,0,.6,1.134,7.323,7.323,0,0,0,2.151.73,11.206,11.206,0,0,1,2.521.831,3.678,3.678,0,0,1,1.432,1.162,2.858,2.858,0,0,1,.466,1.656,3.11,3.11,0,0,1-1.3,2.611,5.464,5.464,0,0,1-3.38.983,6.119,6.119,0,0,1-2.583-.517,4.2,4.2,0,0,1-1.758-1.443,3.478,3.478,0,0,1-.635-2H114.9a2.151,2.151,0,0,0,.837,1.656,3.246,3.246,0,0,0,2.061.612,3.35,3.35,0,0,0,1.892-.477A1.467,1.467,0,0,0,120.4,20.777Zm4.29-2.954a7.142,7.142,0,0,1,1.314-4.52,4.53,4.53,0,0,1,6.952-.107l.1-1.348h1.9V23.708a4.943,4.943,0,0,1-1.4,3.717,5.16,5.16,0,0,1-3.757,1.359,6.25,6.25,0,0,1-2.572-.562,4.427,4.427,0,0,1-1.92-1.539l1.078-1.247a4.063,4.063,0,0,0,3.268,1.651,3.183,3.183,0,0,0,2.364-.854,3.262,3.262,0,0,0,.848-2.4V22.787a4.27,4.27,0,0,1-3.4,1.438,4.151,4.151,0,0,1-3.453-1.718A7.509,7.509,0,0,1,124.692,17.823Zm2.089.236a5.448,5.448,0,0,0,.842,3.229,2.737,2.737,0,0,0,2.358,1.174,3.043,3.043,0,0,0,2.886-1.786V15.128A3.079,3.079,0,0,0,130,13.387a2.761,2.761,0,0,0-2.37,1.179A5.934,5.934,0,0,0,126.781,18.059Zm10.759-.247a7.177,7.177,0,0,1,.7-3.212,5.236,5.236,0,0,1,1.954-2.2,5.319,5.319,0,0,1,2.858-.775,5.124,5.124,0,0,1,4.015,1.718,6.611,6.611,0,0,1,1.533,4.571v.146a7.24,7.24,0,0,1-.679,3.184,5.159,5.159,0,0,1-1.943,2.2,5.38,5.38,0,0,1-2.9.786,5.112,5.112,0,0,1-4-1.718,6.577,6.577,0,0,1-1.533-4.548Zm2.089.247a5.2,5.2,0,0,0,.938,3.246,3.178,3.178,0,0,0,5.026-.017,5.685,5.685,0,0,0,.932-3.476,5.189,5.189,0,0,0-.949-3.24,3.017,3.017,0,0,0-2.521-1.241,2.983,2.983,0,0,0-2.482,1.224A5.642,5.642,0,0,0,139.628,18.059Zm18.654,2.718a1.529,1.529,0,0,0-.635-1.308,6.108,6.108,0,0,0-2.212-.8,10.46,10.46,0,0,1-2.5-.809,3.563,3.563,0,0,1-1.37-1.123,2.686,2.686,0,0,1-.444-1.55,3.152,3.152,0,0,1,1.263-2.527,4.934,4.934,0,0,1,3.229-1.033,5.077,5.077,0,0,1,3.352,1.067,3.389,3.389,0,0,1,1.286,2.729h-2.089a1.876,1.876,0,0,0-.724-1.471,2.714,2.714,0,0,0-1.825-.618,2.841,2.841,0,0,0-1.774.494,1.555,1.555,0,0,0-.64,1.292,1.26,1.26,0,0,0,.6,1.134,7.323,7.323,0,0,0,2.151.73,11.206,11.206,0,0,1,2.521.831,3.678,3.678,0,0,1,1.432,1.162,2.858,2.858,0,0,1,.466,1.656,3.11,3.11,0,0,1-1.3,2.611,5.464,5.464,0,0,1-3.38.983,6.119,6.119,0,0,1-2.583-.517,4.2,4.2,0,0,1-1.758-1.443,3.478,3.478,0,0,1-.635-2h2.078a2.151,2.151,0,0,0,.837,1.656,3.246,3.246,0,0,0,2.061.612,3.35,3.35,0,0,0,1.892-.477A1.467,1.467,0,0,0,158.282,20.777Z" transform="translate(716.189 7525)" fill="#12263f"/>
    <g transform="matrix(1, 0, 0, 1, 122.55, 7158)" filter="url(#Rectángulo_59636-5)">
      <rect id="Rectángulo_59636-10" data-name="Rectángulo 59636" width="471" height="64" rx="6" transform="translate(441.64 465)" fill="#7f0f98"/>
    </g>
    <rect id="Rectángulo_59635-5" data-name="Rectángulo 59635" width="456" height="50" rx="6" transform="translate(572.189 7630)" fill="#fff"/>
    <path id="Trazado_287980" data-name="Trazado 287980" d="M13.2,9.412H7.94V24H5.795V9.412H.55V7.648H13.2Zm7.131,4.3a6.226,6.226,0,0,0-1.022-.079,2.738,2.738,0,0,0-2.774,1.741V24H14.454V11.849h2.021l.034,1.4a3.235,3.235,0,0,1,2.9-1.628,2.123,2.123,0,0,1,.921.157ZM29.289,24A4.364,4.364,0,0,1,29,22.72a4.636,4.636,0,0,1-3.459,1.5,4.289,4.289,0,0,1-2.948-1.016,3.288,3.288,0,0,1-1.151-2.577,3.435,3.435,0,0,1,1.443-2.948,6.8,6.8,0,0,1,4.06-1.05h2.021v-.955a2.333,2.333,0,0,0-.651-1.735,2.618,2.618,0,0,0-1.92-.646,3.03,3.03,0,0,0-1.864.562,1.655,1.655,0,0,0-.752,1.359H21.686a2.867,2.867,0,0,1,.646-1.758,4.407,4.407,0,0,1,1.752-1.342,5.894,5.894,0,0,1,2.431-.494,4.8,4.8,0,0,1,3.291,1.05,3.788,3.788,0,0,1,1.235,2.892v5.593a6.838,6.838,0,0,0,.427,2.662V24Zm-3.448-1.583a3.651,3.651,0,0,0,1.853-.505A3.057,3.057,0,0,0,28.963,20.6V18.1H27.335q-3.818,0-3.818,2.235a1.891,1.891,0,0,0,.651,1.527A2.5,2.5,0,0,0,25.841,22.417ZM37.117,8.906v2.942h2.269v1.606H37.117V21a1.687,1.687,0,0,0,.3,1.1,1.276,1.276,0,0,0,1.033.365,5.03,5.03,0,0,0,.988-.135V24a6.059,6.059,0,0,1-1.595.223,2.587,2.587,0,0,1-2.1-.842,3.618,3.618,0,0,1-.708-2.392V13.455H32.827V11.849h2.212V8.906ZM49.313,24a4.364,4.364,0,0,1-.292-1.28,4.636,4.636,0,0,1-3.459,1.5,4.289,4.289,0,0,1-2.948-1.016,3.288,3.288,0,0,1-1.151-2.577,3.435,3.435,0,0,1,1.443-2.948,6.8,6.8,0,0,1,4.06-1.05h2.021v-.955a2.333,2.333,0,0,0-.651-1.735,2.618,2.618,0,0,0-1.92-.646,3.03,3.03,0,0,0-1.864.562,1.655,1.655,0,0,0-.752,1.359H41.71a2.867,2.867,0,0,1,.646-1.758,4.407,4.407,0,0,1,1.752-1.342,5.894,5.894,0,0,1,2.431-.494,4.8,4.8,0,0,1,3.291,1.05,3.788,3.788,0,0,1,1.235,2.892v5.593a6.838,6.838,0,0,0,.427,2.662V24Zm-3.448-1.583a3.651,3.651,0,0,0,1.853-.505A3.057,3.057,0,0,0,48.987,20.6V18.1H47.359q-3.818,0-3.818,2.235a1.891,1.891,0,0,0,.651,1.527A2.5,2.5,0,0,0,45.865,22.417ZM56.276,11.849l.056,1.348a4.488,4.488,0,0,1,3.6-1.572,3.474,3.474,0,0,1,3.47,1.954,4.6,4.6,0,0,1,1.578-1.415,4.66,4.66,0,0,1,2.3-.539q4,0,4.065,4.234V24H69.27V15.981a2.79,2.79,0,0,0-.6-1.948,2.621,2.621,0,0,0-2-.646,2.755,2.755,0,0,0-1.92.691,2.8,2.8,0,0,0-.887,1.859V24H61.779V16.038a2.318,2.318,0,0,0-2.594-2.65,2.78,2.78,0,0,0-2.8,1.741V24H54.311V11.849ZM76.738,24H74.66V11.849h2.078ZM74.492,8.625a1.24,1.24,0,0,1,.309-.854,1.16,1.16,0,0,1,.915-.348,1.178,1.178,0,0,1,.921.348,1.227,1.227,0,0,1,.314.854,1.187,1.187,0,0,1-.314.842,1.2,1.2,0,0,1-.921.337,1.18,1.18,0,0,1-.915-.337A1.2,1.2,0,0,1,74.492,8.625ZM85.1,24.225A5.309,5.309,0,0,1,81.084,22.6a6.023,6.023,0,0,1-1.55-4.341v-.382a7.292,7.292,0,0,1,.691-3.229,5.388,5.388,0,0,1,1.932-2.224,4.857,4.857,0,0,1,2.69-.8,4.551,4.551,0,0,1,3.684,1.561,6.759,6.759,0,0,1,1.314,4.47v.865H81.612a4.319,4.319,0,0,0,1.05,2.9,3.3,3.3,0,0,0,2.555,1.106,3.619,3.619,0,0,0,1.864-.449,4.684,4.684,0,0,0,1.336-1.19l1.269.988A5.1,5.1,0,0,1,85.1,24.225Zm-.258-10.894a2.771,2.771,0,0,0-2.111.915,4.449,4.449,0,0,0-1.056,2.566h6.087v-.157a3.957,3.957,0,0,0-.854-2.454A2.609,2.609,0,0,0,84.846,13.331Zm9.366-1.482.067,1.527a4.428,4.428,0,0,1,3.639-1.752q3.852,0,3.886,4.346V24H99.727V15.959a2.8,2.8,0,0,0-.6-1.943,2.408,2.408,0,0,0-1.836-.629,3,3,0,0,0-1.774.539,3.661,3.661,0,0,0-1.19,1.415V24H92.247V11.849Zm13.544-2.942v2.942h2.269v1.606h-2.269V21a1.687,1.687,0,0,0,.3,1.1,1.276,1.276,0,0,0,1.033.365,5.03,5.03,0,0,0,.988-.135V24a6.059,6.059,0,0,1-1.595.223,2.587,2.587,0,0,1-2.1-.842,3.618,3.618,0,0,1-.708-2.392V13.455h-2.212V11.849h2.212V8.906Zm3.919,8.906a7.177,7.177,0,0,1,.7-3.212,5.236,5.236,0,0,1,1.954-2.2,5.319,5.319,0,0,1,2.858-.775,5.124,5.124,0,0,1,4.015,1.718,6.611,6.611,0,0,1,1.533,4.571v.146a7.24,7.24,0,0,1-.679,3.184,5.159,5.159,0,0,1-1.943,2.2,5.38,5.38,0,0,1-2.9.786,5.112,5.112,0,0,1-4-1.718,6.577,6.577,0,0,1-1.533-4.548Zm2.089.247A5.2,5.2,0,0,0,114.7,21.3a3.178,3.178,0,0,0,5.026-.017,5.685,5.685,0,0,0,.932-3.476,5.189,5.189,0,0,0-.949-3.24,3.017,3.017,0,0,0-2.521-1.241,2.983,2.983,0,0,0-2.482,1.224A5.642,5.642,0,0,0,113.765,18.059Zm16.767-.236a7.118,7.118,0,0,1,1.325-4.5,4.509,4.509,0,0,1,6.851-.241V6.75h2.078V24h-1.909l-.1-1.3a4.231,4.231,0,0,1-3.47,1.527,4.15,4.15,0,0,1-3.442-1.729,7.2,7.2,0,0,1-1.331-4.515Zm2.078.236a5.39,5.39,0,0,0,.854,3.234,2.759,2.759,0,0,0,2.358,1.168,3.031,3.031,0,0,0,2.886-1.774V15.105a3.054,3.054,0,0,0-2.864-1.718,2.772,2.772,0,0,0-2.381,1.179A5.934,5.934,0,0,0,132.609,18.059Zm16.441,6.166A5.309,5.309,0,0,1,145.03,22.6a6.023,6.023,0,0,1-1.55-4.341v-.382a7.292,7.292,0,0,1,.691-3.229,5.388,5.388,0,0,1,1.932-2.224,4.857,4.857,0,0,1,2.69-.8,4.551,4.551,0,0,1,3.684,1.561,6.759,6.759,0,0,1,1.314,4.47v.865h-8.232a4.319,4.319,0,0,0,1.05,2.9,3.3,3.3,0,0,0,2.555,1.106,3.619,3.619,0,0,0,1.864-.449,4.684,4.684,0,0,0,1.336-1.19l1.269.988A5.1,5.1,0,0,1,149.051,24.225Zm-.258-10.894a2.771,2.771,0,0,0-2.111.915,4.449,4.449,0,0,0-1.056,2.566h6.087v-.157a3.957,3.957,0,0,0-.854-2.454A2.609,2.609,0,0,0,148.792,13.331Zm18.968.382a6.226,6.226,0,0,0-1.022-.079,2.738,2.738,0,0,0-2.774,1.741V24h-2.078V11.849h2.021l.034,1.4a3.235,3.235,0,0,1,2.9-1.628,2.123,2.123,0,0,1,.921.157ZM171.927,24H169.85V11.849h2.078ZM169.681,8.625a1.24,1.24,0,0,1,.309-.854,1.16,1.16,0,0,1,.915-.348,1.178,1.178,0,0,1,.921.348,1.227,1.227,0,0,1,.314.854,1.187,1.187,0,0,1-.314.842,1.2,1.2,0,0,1-.921.337,1.18,1.18,0,0,1-.915-.337A1.2,1.2,0,0,1,169.681,8.625Zm10.613,15.6a5.309,5.309,0,0,1-4.021-1.623,6.023,6.023,0,0,1-1.55-4.341v-.382a7.292,7.292,0,0,1,.691-3.229,5.388,5.388,0,0,1,1.932-2.224,4.857,4.857,0,0,1,2.69-.8,4.551,4.551,0,0,1,3.684,1.561,6.759,6.759,0,0,1,1.314,4.47v.865H176.8a4.319,4.319,0,0,0,1.05,2.9,3.3,3.3,0,0,0,2.555,1.106,3.619,3.619,0,0,0,1.864-.449,4.684,4.684,0,0,0,1.336-1.19l1.269.988A5.1,5.1,0,0,1,180.294,24.225Zm-.258-10.894a2.771,2.771,0,0,0-2.111.915,4.449,4.449,0,0,0-1.056,2.566h6.087v-.157A3.957,3.957,0,0,0,182.1,14.2,2.609,2.609,0,0,0,180.036,13.331Zm14.476,7.446a1.529,1.529,0,0,0-.635-1.308,6.108,6.108,0,0,0-2.212-.8,10.46,10.46,0,0,1-2.5-.809,3.563,3.563,0,0,1-1.37-1.123,2.686,2.686,0,0,1-.444-1.55,3.152,3.152,0,0,1,1.263-2.527,4.934,4.934,0,0,1,3.229-1.033,5.077,5.077,0,0,1,3.352,1.067,3.389,3.389,0,0,1,1.286,2.729h-2.089a1.876,1.876,0,0,0-.724-1.471,2.714,2.714,0,0,0-1.825-.618,2.841,2.841,0,0,0-1.774.494,1.555,1.555,0,0,0-.64,1.292,1.26,1.26,0,0,0,.6,1.134,7.323,7.323,0,0,0,2.151.73,11.206,11.206,0,0,1,2.521.831,3.678,3.678,0,0,1,1.432,1.162,2.858,2.858,0,0,1,.466,1.656,3.11,3.11,0,0,1-1.3,2.611,5.464,5.464,0,0,1-3.38.983,6.119,6.119,0,0,1-2.583-.517,4.2,4.2,0,0,1-1.758-1.443,3.478,3.478,0,0,1-.635-2h2.078a2.151,2.151,0,0,0,.837,1.656,3.246,3.246,0,0,0,2.061.612,3.35,3.35,0,0,0,1.892-.477A1.467,1.467,0,0,0,194.512,20.777Zm4.29-2.954a7.142,7.142,0,0,1,1.314-4.52,4.53,4.53,0,0,1,6.952-.107l.1-1.348h1.9V23.708a4.943,4.943,0,0,1-1.4,3.717,5.16,5.16,0,0,1-3.757,1.359,6.25,6.25,0,0,1-2.572-.562,4.427,4.427,0,0,1-1.92-1.539l1.078-1.247a4.063,4.063,0,0,0,3.268,1.651,3.183,3.183,0,0,0,2.364-.854,3.262,3.262,0,0,0,.848-2.4V22.787a4.27,4.27,0,0,1-3.4,1.438,4.151,4.151,0,0,1-3.453-1.718A7.509,7.509,0,0,1,198.8,17.823Zm2.089.236a5.448,5.448,0,0,0,.842,3.229,2.737,2.737,0,0,0,2.358,1.174,3.043,3.043,0,0,0,2.886-1.786V15.128a3.079,3.079,0,0,0-2.864-1.741,2.761,2.761,0,0,0-2.37,1.179A5.934,5.934,0,0,0,200.891,18.059Zm10.759-.247a7.177,7.177,0,0,1,.7-3.212,5.236,5.236,0,0,1,1.954-2.2,5.319,5.319,0,0,1,2.858-.775,5.124,5.124,0,0,1,4.015,1.718,6.611,6.611,0,0,1,1.533,4.571v.146a7.24,7.24,0,0,1-.679,3.184,5.159,5.159,0,0,1-1.943,2.2,5.38,5.38,0,0,1-2.9.786,5.112,5.112,0,0,1-4-1.718,6.577,6.577,0,0,1-1.533-4.548Zm2.089.247a5.2,5.2,0,0,0,.938,3.246,3.178,3.178,0,0,0,5.026-.017,5.685,5.685,0,0,0,.932-3.476,5.189,5.189,0,0,0-.949-3.24,3.017,3.017,0,0,0-2.521-1.241,2.983,2.983,0,0,0-2.482,1.224A5.642,5.642,0,0,0,213.738,18.059Zm18.654,2.718a1.529,1.529,0,0,0-.635-1.308,6.108,6.108,0,0,0-2.212-.8,10.46,10.46,0,0,1-2.5-.809,3.563,3.563,0,0,1-1.37-1.123,2.686,2.686,0,0,1-.444-1.55,3.152,3.152,0,0,1,1.263-2.527,4.934,4.934,0,0,1,3.229-1.033,5.077,5.077,0,0,1,3.352,1.067,3.389,3.389,0,0,1,1.286,2.729h-2.089a1.876,1.876,0,0,0-.724-1.471,2.714,2.714,0,0,0-1.825-.618,2.841,2.841,0,0,0-1.774.494,1.555,1.555,0,0,0-.64,1.292,1.26,1.26,0,0,0,.6,1.134,7.323,7.323,0,0,0,2.151.73,11.206,11.206,0,0,1,2.521.831A3.678,3.678,0,0,1,234,18.974a2.858,2.858,0,0,1,.466,1.656,3.11,3.11,0,0,1-1.3,2.611,5.464,5.464,0,0,1-3.38.983,6.119,6.119,0,0,1-2.583-.517,4.2,4.2,0,0,1-1.758-1.443,3.478,3.478,0,0,1-.635-2h2.078a2.151,2.151,0,0,0,.837,1.656,3.246,3.246,0,0,0,2.061.612,3.35,3.35,0,0,0,1.892-.477A1.467,1.467,0,0,0,232.392,20.777Z" transform="translate(679.189 7641)" fill="#12263f"/>
    <line id="Línea_627" data-name="Línea 627" x2="230" transform="translate(309.689 7191.5)" fill="none" stroke="#757070" stroke-width="3" stroke-dasharray="5"/>
    <g id="Grupo_564810" data-name="Grupo 564810" transform="translate(0.5 -18)">
      <g id="Grupo_564808" data-name="Grupo 564808">
        <line id="Línea_1866" data-name="Línea 1866" y1="16.5" x2="14" transform="translate(536.689 7209)" fill="none" stroke="#707070" stroke-linecap="round" stroke-width="3"/>
        <line id="Línea_1867" data-name="Línea 1867" x1="14" y1="16.5" transform="translate(536.689 7192.5)" fill="none" stroke="#707070" stroke-linecap="round" stroke-width="3"/>
      </g>
      <g id="Grupo_564809" data-name="Grupo 564809" transform="translate(298.689 7192.5)">
        <line id="Línea_1866-2" data-name="Línea 1866" x1="14" y1="16.5" transform="translate(0 16.5)" fill="none" stroke="#707070" stroke-linecap="round" stroke-width="3"/>
        <line id="Línea_1867-2" data-name="Línea 1867" y1="16.5" x2="14" fill="none" stroke="#707070" stroke-linecap="round" stroke-width="3"/>
      </g>
    </g>
    <line id="Línea_627-2" data-name="Línea 627" x2="230" transform="translate(1068.689 7191.5)" fill="none" stroke="#757070" stroke-width="3" stroke-dasharray="5"/>
    <g id="Grupo_564810-2" data-name="Grupo 564810" transform="translate(759.5 -18)">
      <g id="Grupo_564808-2" data-name="Grupo 564808">
        <line id="Línea_1866-3" data-name="Línea 1866" y1="16.5" x2="14" transform="translate(536.689 7209)" fill="none" stroke="#707070" stroke-linecap="round" stroke-width="3"/>
        <line id="Línea_1867-3" data-name="Línea 1867" x1="14" y1="16.5" transform="translate(536.689 7192.5)" fill="none" stroke="#707070" stroke-linecap="round" stroke-width="3"/>
      </g>
      <g id="Grupo_564809-2" data-name="Grupo 564809" transform="translate(298.689 7192.5)">
        <line id="Línea_1866-4" data-name="Línea 1866" x1="14" y1="16.5" transform="translate(0 16.5)" fill="none" stroke="#707070" stroke-linecap="round" stroke-width="3"/>
        <line id="Línea_1867-4" data-name="Línea 1867" y1="16.5" x2="14" fill="none" stroke="#707070" stroke-linecap="round" stroke-width="3"/>
      </g>
    </g>
    <line id="Línea_627-3" data-name="Línea 627" y2="33.549" transform="translate(799.189 7227.5)" fill="none" stroke="#757070" stroke-width="3" stroke-dasharray="5"/>
    <g id="Grupo_564808-3" data-name="Grupo 564808" transform="translate(8008.689 6717.859) rotate(90)">
      <line id="Línea_1866-5" data-name="Línea 1866" y1="16.5" x2="14" transform="translate(536.689 7209)" fill="none" stroke="#707070" stroke-linecap="round" stroke-width="3"/>
      <line id="Línea_1867-5" data-name="Línea 1867" x1="14" y1="16.5" transform="translate(536.689 7192.5)" fill="none" stroke="#707070" stroke-linecap="round" stroke-width="3"/>
    </g>
    <line id="Línea_627-4" data-name="Línea 627" y2="33.549" transform="translate(799.189 7343.5)" fill="none" stroke="#757070" stroke-width="3" stroke-dasharray="5"/>
    <g id="Grupo_564808-4" data-name="Grupo 564808" transform="translate(8008.689 6833.859) rotate(90)">
      <line id="Línea_1866-6" data-name="Línea 1866" y1="16.5" x2="14" transform="translate(536.689 7209)" fill="none" stroke="#707070" stroke-linecap="round" stroke-width="3"/>
      <line id="Línea_1867-6" data-name="Línea 1867" x1="14" y1="16.5" transform="translate(536.689 7192.5)" fill="none" stroke="#707070" stroke-linecap="round" stroke-width="3"/>
    </g>
    <line id="Línea_627-5" data-name="Línea 627" y2="33.549" transform="translate(799.189 7461.451)" fill="none" stroke="#757070" stroke-width="3" stroke-dasharray="5"/>
    <g id="Grupo_564808-5" data-name="Grupo 564808" transform="translate(8008.689 6951.811) rotate(90)">
      <line id="Línea_1866-7" data-name="Línea 1866" y1="16.5" x2="14" transform="translate(536.689 7209)" fill="none" stroke="#707070" stroke-linecap="round" stroke-width="3"/>
      <line id="Línea_1867-7" data-name="Línea 1867" x1="14" y1="16.5" transform="translate(536.689 7192.5)" fill="none" stroke="#707070" stroke-linecap="round" stroke-width="3"/>
    </g>
    <line id="Línea_627-6" data-name="Línea 627" y2="33.549" transform="translate(799.189 7577.451)" fill="none" stroke="#757070" stroke-width="3" stroke-dasharray="5"/>
    <g id="Grupo_564808-6" data-name="Grupo 564808" transform="translate(8008.689 7067.811) rotate(90)">
      <line id="Línea_1866-8" data-name="Línea 1866" y1="16.5" x2="14" transform="translate(536.689 7209)" fill="none" stroke="#707070" stroke-linecap="round" stroke-width="3"/>
      <line id="Línea_1867-8" data-name="Línea 1867" x1="14" y1="16.5" transform="translate(536.689 7192.5)" fill="none" stroke="#707070" stroke-linecap="round" stroke-width="3"/>
    </g>
    <line id="Línea_627-7" data-name="Línea 627" x2="230" transform="translate(309.689 7307.5)" fill="none" stroke="#757070" stroke-width="3" stroke-dasharray="5"/>
    <g id="Grupo_564810-3" data-name="Grupo 564810" transform="translate(0.5 98)">
      <g id="Grupo_564808-7" data-name="Grupo 564808">
        <line id="Línea_1866-9" data-name="Línea 1866" y1="16.5" x2="14" transform="translate(536.689 7209)" fill="none" stroke="#707070" stroke-linecap="round" stroke-width="3"/>
        <line id="Línea_1867-9" data-name="Línea 1867" x1="14" y1="16.5" transform="translate(536.689 7192.5)" fill="none" stroke="#707070" stroke-linecap="round" stroke-width="3"/>
      </g>
      <g id="Grupo_564809-3" data-name="Grupo 564809" transform="translate(298.689 7192.5)">
        <line id="Línea_1866-10" data-name="Línea 1866" x1="14" y1="16.5" transform="translate(0 16.5)" fill="none" stroke="#707070" stroke-linecap="round" stroke-width="3"/>
        <line id="Línea_1867-10" data-name="Línea 1867" y1="16.5" x2="14" fill="none" stroke="#707070" stroke-linecap="round" stroke-width="3"/>
      </g>
    </g>
    <line id="Línea_627-8" data-name="Línea 627" x2="230" transform="translate(1068.689 7307.5)" fill="none" stroke="#757070" stroke-width="3" stroke-dasharray="5"/>
    <g id="Grupo_564810-4" data-name="Grupo 564810" transform="translate(759.5 98)">
      <g id="Grupo_564808-8" data-name="Grupo 564808">
        <line id="Línea_1866-11" data-name="Línea 1866" y1="16.5" x2="14" transform="translate(536.689 7209)" fill="none" stroke="#707070" stroke-linecap="round" stroke-width="3"/>
        <line id="Línea_1867-11" data-name="Línea 1867" x1="14" y1="16.5" transform="translate(536.689 7192.5)" fill="none" stroke="#707070" stroke-linecap="round" stroke-width="3"/>
      </g>
      <g id="Grupo_564809-4" data-name="Grupo 564809" transform="translate(298.689 7192.5)">
        <line id="Línea_1866-12" data-name="Línea 1866" x1="14" y1="16.5" transform="translate(0 16.5)" fill="none" stroke="#707070" stroke-linecap="round" stroke-width="3"/>
        <line id="Línea_1867-12" data-name="Línea 1867" y1="16.5" x2="14" fill="none" stroke="#707070" stroke-linecap="round" stroke-width="3"/>
      </g>
    </g>
    <line id="Línea_627-9" data-name="Línea 627" x2="230" transform="translate(309.689 7423.5)" fill="none" stroke="#757070" stroke-width="3" stroke-dasharray="5"/>
    <g id="Grupo_564810-5" data-name="Grupo 564810" transform="translate(0.5 214)">
      <g id="Grupo_564808-9" data-name="Grupo 564808">
        <line id="Línea_1866-13" data-name="Línea 1866" y1="16.5" x2="14" transform="translate(536.689 7209)" fill="none" stroke="#707070" stroke-linecap="round" stroke-width="3"/>
        <line id="Línea_1867-13" data-name="Línea 1867" x1="14" y1="16.5" transform="translate(536.689 7192.5)" fill="none" stroke="#707070" stroke-linecap="round" stroke-width="3"/>
      </g>
      <g id="Grupo_564809-5" data-name="Grupo 564809" transform="translate(298.689 7192.5)">
        <line id="Línea_1866-14" data-name="Línea 1866" x1="14" y1="16.5" transform="translate(0 16.5)" fill="none" stroke="#707070" stroke-linecap="round" stroke-width="3"/>
        <line id="Línea_1867-14" data-name="Línea 1867" y1="16.5" x2="14" fill="none" stroke="#707070" stroke-linecap="round" stroke-width="3"/>
      </g>
    </g>
    <line id="Línea_627-10" data-name="Línea 627" x2="230" transform="translate(1068.689 7423.5)" fill="none" stroke="#757070" stroke-width="3" stroke-dasharray="5"/>
    <g id="Grupo_564810-6" data-name="Grupo 564810" transform="translate(759.5 214)">
      <g id="Grupo_564808-10" data-name="Grupo 564808">
        <line id="Línea_1866-15" data-name="Línea 1866" y1="16.5" x2="14" transform="translate(536.689 7209)" fill="none" stroke="#707070" stroke-linecap="round" stroke-width="3"/>
        <line id="Línea_1867-15" data-name="Línea 1867" x1="14" y1="16.5" transform="translate(536.689 7192.5)" fill="none" stroke="#707070" stroke-linecap="round" stroke-width="3"/>
      </g>
      <g id="Grupo_564809-6" data-name="Grupo 564809" transform="translate(298.689 7192.5)">
        <line id="Línea_1866-16" data-name="Línea 1866" x1="14" y1="16.5" transform="translate(0 16.5)" fill="none" stroke="#707070" stroke-linecap="round" stroke-width="3"/>
        <line id="Línea_1867-16" data-name="Línea 1867" y1="16.5" x2="14" fill="none" stroke="#707070" stroke-linecap="round" stroke-width="3"/>
      </g>
    </g>
    <line id="Línea_627-11" data-name="Línea 627" x2="230" transform="translate(309.689 7539.5)" fill="none" stroke="#757070" stroke-width="3" stroke-dasharray="5"/>
    <g id="Grupo_564810-7" data-name="Grupo 564810" transform="translate(0.5 330)">
      <g id="Grupo_564808-11" data-name="Grupo 564808">
        <line id="Línea_1866-17" data-name="Línea 1866" y1="16.5" x2="14" transform="translate(536.689 7209)" fill="none" stroke="#707070" stroke-linecap="round" stroke-width="3"/>
        <line id="Línea_1867-17" data-name="Línea 1867" x1="14" y1="16.5" transform="translate(536.689 7192.5)" fill="none" stroke="#707070" stroke-linecap="round" stroke-width="3"/>
      </g>
      <g id="Grupo_564809-7" data-name="Grupo 564809" transform="translate(298.689 7192.5)">
        <line id="Línea_1866-18" data-name="Línea 1866" x1="14" y1="16.5" transform="translate(0 16.5)" fill="none" stroke="#707070" stroke-linecap="round" stroke-width="3"/>
        <line id="Línea_1867-18" data-name="Línea 1867" y1="16.5" x2="14" fill="none" stroke="#707070" stroke-linecap="round" stroke-width="3"/>
      </g>
    </g>
    <line id="Línea_627-12" data-name="Línea 627" x2="230" transform="translate(1068.689 7539.5)" fill="none" stroke="#757070" stroke-width="3" stroke-dasharray="5"/>
    <g id="Grupo_564810-8" data-name="Grupo 564810" transform="translate(759.5 330)">
      <g id="Grupo_564808-12" data-name="Grupo 564808">
        <line id="Línea_1866-19" data-name="Línea 1866" y1="16.5" x2="14" transform="translate(536.689 7209)" fill="none" stroke="#707070" stroke-linecap="round" stroke-width="3"/>
        <line id="Línea_1867-19" data-name="Línea 1867" x1="14" y1="16.5" transform="translate(536.689 7192.5)" fill="none" stroke="#707070" stroke-linecap="round" stroke-width="3"/>
      </g>
      <g id="Grupo_564809-8" data-name="Grupo 564809" transform="translate(298.689 7192.5)">
        <line id="Línea_1866-20" data-name="Línea 1866" x1="14" y1="16.5" transform="translate(0 16.5)" fill="none" stroke="#707070" stroke-linecap="round" stroke-width="3"/>
        <line id="Línea_1867-20" data-name="Línea 1867" y1="16.5" x2="14" fill="none" stroke="#707070" stroke-linecap="round" stroke-width="3"/>
      </g>
    </g>
    <line id="Línea_627-13" data-name="Línea 627" x2="230" transform="translate(309.689 7655.5)" fill="none" stroke="#757070" stroke-width="3" stroke-dasharray="5"/>
    <g id="Grupo_564810-9" data-name="Grupo 564810" transform="translate(0.5 446)">
      <g id="Grupo_564808-13" data-name="Grupo 564808">
        <line id="Línea_1866-21" data-name="Línea 1866" y1="16.5" x2="14" transform="translate(536.689 7209)" fill="none" stroke="#707070" stroke-linecap="round" stroke-width="3"/>
        <line id="Línea_1867-21" data-name="Línea 1867" x1="14" y1="16.5" transform="translate(536.689 7192.5)" fill="none" stroke="#707070" stroke-linecap="round" stroke-width="3"/>
      </g>
      <g id="Grupo_564809-9" data-name="Grupo 564809" transform="translate(298.689 7192.5)">
        <line id="Línea_1866-22" data-name="Línea 1866" x1="14" y1="16.5" transform="translate(0 16.5)" fill="none" stroke="#707070" stroke-linecap="round" stroke-width="3"/>
        <line id="Línea_1867-22" data-name="Línea 1867" y1="16.5" x2="14" fill="none" stroke="#707070" stroke-linecap="round" stroke-width="3"/>
      </g>
    </g>
    <line id="Línea_627-14" data-name="Línea 627" x2="230" transform="translate(1068.689 7655.5)" fill="none" stroke="#757070" stroke-width="3" stroke-dasharray="5"/>
    <g id="Grupo_564810-10" data-name="Grupo 564810" transform="translate(759.5 446)">
      <g id="Grupo_564808-14" data-name="Grupo 564808">
        <line id="Línea_1866-23" data-name="Línea 1866" y1="16.5" x2="14" transform="translate(536.689 7209)" fill="none" stroke="#707070" stroke-linecap="round" stroke-width="3"/>
        <line id="Línea_1867-23" data-name="Línea 1867" x1="14" y1="16.5" transform="translate(536.689 7192.5)" fill="none" stroke="#707070" stroke-linecap="round" stroke-width="3"/>
      </g>
      <g id="Grupo_564809-10" data-name="Grupo 564809" transform="translate(298.689 7192.5)">
        <line id="Línea_1866-24" data-name="Línea 1866" x1="14" y1="16.5" transform="translate(0 16.5)" fill="none" stroke="#707070" stroke-linecap="round" stroke-width="3"/>
        <line id="Línea_1867-24" data-name="Línea 1867" y1="16.5" x2="14" fill="none" stroke="#707070" stroke-linecap="round" stroke-width="3"/>
      </g>
    </g>
    <g id="Grupo_180651" data-name="Grupo 180651" transform="translate(1289.604 7358.233)">
      <g id="Grupo_175269" data-name="Grupo 175269" clip-path="url(#clip-path)">
        <rect id="Rectángulo_58132" data-name="Rectángulo 58132" width="19.124" height="19.124" transform="translate(-6.743 6.19) rotate(-42.553)" fill="#c148dc"/>
      </g>
    </g>
    <path id="Trazado_216472" data-name="Trazado 216472" d="M279.495,306.241c-.18,0-.361-.01-.546-.01-.473,0-.941.019-1.4.063a15.185,15.185,0,0,0,0,30.239c.463.044.931.063,1.4.063.185,0,.366,0,.546-.01a15.183,15.183,0,0,0,0-30.346m0,26.552c-.18.01-.361.015-.546.015a11.135,11.135,0,0,1-1.4-.087,11.393,11.393,0,0,1,0-22.612,11.135,11.135,0,0,1,1.4-.088c.185,0,.366,0,.546.015a11.392,11.392,0,0,1,0,22.758" transform="translate(1017.421 7043.769)" fill="#7f0f98"/>
    <g id="Grupo_180651-2" data-name="Grupo 180651" transform="translate(307.239 7358.233)">
      <g id="Grupo_175269-2" data-name="Grupo 175269" clip-path="url(#clip-path)">
        <rect id="Rectángulo_58132-2" data-name="Rectángulo 58132" width="19.124" height="19.124" transform="translate(-6.743 6.19) rotate(-42.553)" fill="#c148dc"/>
      </g>
    </g>
    <path id="Trazado_216472-2" data-name="Trazado 216472" d="M279.495,306.241c-.18,0-.361-.01-.546-.01-.473,0-.941.019-1.4.063a15.185,15.185,0,0,0,0,30.239c.463.044.931.063,1.4.063.185,0,.366,0,.546-.01a15.183,15.183,0,0,0,0-30.346m0,26.552c-.18.01-.361.015-.546.015a11.135,11.135,0,0,1-1.4-.087,11.393,11.393,0,0,1,0-22.612,11.135,11.135,0,0,1,1.4-.088c.185,0,.366,0,.546.015a11.392,11.392,0,0,1,0,22.758" transform="translate(35.056 7043.769)" fill="#7f0f98"/>
    <g id="Grupo_180651-3" data-name="Grupo 180651" transform="translate(1289.604 7242.074)">
      <g id="Grupo_175269-3" data-name="Grupo 175269" clip-path="url(#clip-path)">
        <rect id="Rectángulo_58132-3" data-name="Rectángulo 58132" width="19.124" height="19.124" transform="translate(-6.743 6.19) rotate(-42.553)" fill="#c148dc"/>
      </g>
    </g>
    <path id="Trazado_216472-3" data-name="Trazado 216472" d="M279.495,306.241c-.18,0-.361-.01-.546-.01-.473,0-.941.019-1.4.063a15.185,15.185,0,0,0,0,30.239c.463.044.931.063,1.4.063.185,0,.366,0,.546-.01a15.183,15.183,0,0,0,0-30.346m0,26.552c-.18.01-.361.015-.546.015a11.135,11.135,0,0,1-1.4-.087,11.393,11.393,0,0,1,0-22.612,11.135,11.135,0,0,1,1.4-.088c.185,0,.366,0,.546.015a11.392,11.392,0,0,1,0,22.758" transform="translate(1017.421 6927.61)" fill="#7f0f98"/>
    <g id="Grupo_180651-4" data-name="Grupo 180651" transform="translate(307.239 7242.074)">
      <g id="Grupo_175269-4" data-name="Grupo 175269" clip-path="url(#clip-path)">
        <rect id="Rectángulo_58132-4" data-name="Rectángulo 58132" width="19.124" height="19.124" transform="translate(-6.743 6.19) rotate(-42.553)" fill="#c148dc"/>
      </g>
    </g>
    <path id="Trazado_216472-4" data-name="Trazado 216472" d="M279.495,306.241c-.18,0-.361-.01-.546-.01-.473,0-.941.019-1.4.063a15.185,15.185,0,0,0,0,30.239c.463.044.931.063,1.4.063.185,0,.366,0,.546-.01a15.183,15.183,0,0,0,0-30.346m0,26.552c-.18.01-.361.015-.546.015a11.135,11.135,0,0,1-1.4-.087,11.393,11.393,0,0,1,0-22.612,11.135,11.135,0,0,1,1.4-.088c.185,0,.366,0,.546.015a11.392,11.392,0,0,1,0,22.758" transform="translate(35.056 6927.61)" fill="#7f0f98"/>
    <g id="Grupo_180651-5" data-name="Grupo 180651" transform="translate(1289.604 7475.426)">
      <g id="Grupo_175269-5" data-name="Grupo 175269" clip-path="url(#clip-path)">
        <rect id="Rectángulo_58132-5" data-name="Rectángulo 58132" width="19.124" height="19.124" transform="translate(-6.743 6.19) rotate(-42.553)" fill="#c148dc"/>
      </g>
    </g>
    <path id="Trazado_216472-5" data-name="Trazado 216472" d="M279.495,306.241c-.18,0-.361-.01-.546-.01-.473,0-.941.019-1.4.063a15.185,15.185,0,0,0,0,30.239c.463.044.931.063,1.4.063.185,0,.366,0,.546-.01a15.183,15.183,0,0,0,0-30.346m0,26.552c-.18.01-.361.015-.546.015a11.135,11.135,0,0,1-1.4-.087,11.393,11.393,0,0,1,0-22.612,11.135,11.135,0,0,1,1.4-.088c.185,0,.366,0,.546.015a11.392,11.392,0,0,1,0,22.758" transform="translate(1017.421 7160.962)" fill="#7f0f98"/>
    <g id="Grupo_180651-6" data-name="Grupo 180651" transform="translate(307.239 7475.426)">
      <g id="Grupo_175269-6" data-name="Grupo 175269" clip-path="url(#clip-path)">
        <rect id="Rectángulo_58132-6" data-name="Rectángulo 58132" width="19.124" height="19.124" transform="translate(-6.743 6.19) rotate(-42.553)" fill="#c148dc"/>
      </g>
    </g>
    <path id="Trazado_216472-6" data-name="Trazado 216472" d="M279.495,306.241c-.18,0-.361-.01-.546-.01-.473,0-.941.019-1.4.063a15.185,15.185,0,0,0,0,30.239c.463.044.931.063,1.4.063.185,0,.366,0,.546-.01a15.183,15.183,0,0,0,0-30.346m0,26.552c-.18.01-.361.015-.546.015a11.135,11.135,0,0,1-1.4-.087,11.393,11.393,0,0,1,0-22.612,11.135,11.135,0,0,1,1.4-.088c.185,0,.366,0,.546.015a11.392,11.392,0,0,1,0,22.758" transform="translate(35.056 7160.962)" fill="#7f0f98"/>
    <g id="Grupo_180651-7" data-name="Grupo 180651" transform="translate(1288.239 7589.867)">
      <g id="Grupo_175269-7" data-name="Grupo 175269" clip-path="url(#clip-path)">
        <rect id="Rectángulo_58132-7" data-name="Rectángulo 58132" width="19.124" height="19.124" transform="translate(-6.743 6.19) rotate(-42.553)" fill="#c148dc"/>
      </g>
    </g>
    <path id="Trazado_216472-7" data-name="Trazado 216472" d="M279.495,306.241c-.18,0-.361-.01-.546-.01-.473,0-.941.019-1.4.063a15.185,15.185,0,0,0,0,30.239c.463.044.931.063,1.4.063.185,0,.366,0,.546-.01a15.183,15.183,0,0,0,0-30.346m0,26.552c-.18.01-.361.015-.546.015a11.135,11.135,0,0,1-1.4-.087,11.393,11.393,0,0,1,0-22.612,11.135,11.135,0,0,1,1.4-.088c.185,0,.366,0,.546.015a11.392,11.392,0,0,1,0,22.758" transform="translate(1016.056 7275.403)" fill="#7f0f98"/>
    <g id="Grupo_180651-8" data-name="Grupo 180651" transform="translate(305.873 7589.867)">
      <g id="Grupo_175269-8" data-name="Grupo 175269" clip-path="url(#clip-path)">
        <rect id="Rectángulo_58132-8" data-name="Rectángulo 58132" width="19.124" height="19.124" transform="translate(-6.743 6.19) rotate(-42.553)" fill="#c148dc"/>
      </g>
    </g>
    <path id="Trazado_216472-8" data-name="Trazado 216472" d="M279.495,306.241c-.18,0-.361-.01-.546-.01-.473,0-.941.019-1.4.063a15.185,15.185,0,0,0,0,30.239c.463.044.931.063,1.4.063.185,0,.366,0,.546-.01a15.183,15.183,0,0,0,0-30.346m0,26.552c-.18.01-.361.015-.546.015a11.135,11.135,0,0,1-1.4-.087,11.393,11.393,0,0,1,0-22.612,11.135,11.135,0,0,1,1.4-.088c.185,0,.366,0,.546.015a11.392,11.392,0,0,1,0,22.758" transform="translate(33.69 7275.403)" fill="#7f0f98"/>
  </g>
</svg>
