<svg xmlns="http://www.w3.org/2000/svg" width="24.291" height="55.481" viewBox="0 0 24.291 55.481">
  <path id="Dots" d="M20.326,63.477a1.983,1.983,0,1,1,1.983,2A1.993,1.993,0,0,1,20.326,63.477ZM0,63.477a1.993,1.993,0,0,1,1.983-2,2,2,0,0,1,0,4.008A1.993,1.993,0,0,1,0,63.477ZM20.326,49.635a1.983,1.983,0,1,1,1.983,2A1.993,1.993,0,0,1,20.326,49.635ZM0,49.635a1.993,1.993,0,0,1,1.983-2,2,2,0,0,1,0,4.007A1.993,1.993,0,0,1,0,49.635ZM20.326,25.792a1.983,1.983,0,1,1,1.983,2A1.993,1.993,0,0,1,20.326,25.792ZM0,25.792a1.993,1.993,0,0,1,1.983-2,2,2,0,0,1,0,4.007A1.993,1.993,0,0,1,0,25.792ZM20.326,12a1.983,1.983,0,1,1,1.983,2A1.993,1.993,0,0,1,20.326,12ZM0,12a1.993,1.993,0,0,1,1.983-2,2,2,0,0,1,0,4.008A1.993,1.993,0,0,1,0,12Z" transform="translate(0 -10)" fill="#491079"/>
</svg>
