<svg xmlns="http://www.w3.org/2000/svg" xmlns:xlink="http://www.w3.org/1999/xlink" width="336.323" height="327.249" viewBox="0 0 336.323 327.249">
  <defs>
    <clipPath id="clip-path">
      <rect id="Rectángulo_205260" data-name="Rectángulo 205260" width="336.323" height="327.249" fill="none"/>
    </clipPath>
    <clipPath id="clip-path-2">
      <rect id="Rectángulo_205256" data-name="Rectángulo 205256" width="336.323" height="327.249" fill="#e8e8e8"/>
    </clipPath>
    <clipPath id="clip-path-3">
      <rect id="Rectángulo_205253" data-name="Rectángulo 205253" width="199.224" height="71.57" fill="#f6f6f6"/>
    </clipPath>
    <clipPath id="clip-path-4">
      <rect id="Rectángulo_205254" data-name="Rectángulo 205254" width="129.768" height="92.461" fill="none"/>
    </clipPath>
    <clipPath id="clip-path-5">
      <rect id="Rectángulo_205255" data-name="Rectángulo 205255" width="80.032" height="63.458" fill="none"/>
    </clipPath>
    <clipPath id="clip-path-7">
      <path id="Trazado_278469" data-name="Trazado 278469" d="M136.725,294.643a114.573,114.573,0,0,0,19.184,19.185L313.827,155.91a114.557,114.557,0,0,0-19.185-19.185Z" transform="translate(-136.725 -136.725)" fill="#ff3131"/>
    </clipPath>
  </defs>
  <g id="Grupo_566967" data-name="Grupo 566967" clip-path="url(#clip-path)">
    <g id="Grupo_566959" data-name="Grupo 566959">
      <g id="Grupo_566958" data-name="Grupo 566958" clip-path="url(#clip-path-2)">
        <g id="Grupo_566951" data-name="Grupo 566951" transform="translate(137.099 255.678)" opacity="0.09">
          <g id="Grupo_566950" data-name="Grupo 566950">
            <g id="Grupo_566949" data-name="Grupo 566949" clip-path="url(#clip-path-3)">
              <path id="Trazado_278447" data-name="Trazado 278447" d="M569.973,698.964c10.109,11.192-59.27,48.913-110.22,59.154-32.966,6.627-82.12,10.059-87.225,2.143-8.617-13.363,55.189-36.756,104.724-53.147,43.79-14.49,83.567-18.285,92.72-8.15" transform="translate(-371.74 -693.267)" fill="#f6f6f6"/>
            </g>
          </g>
        </g>
        <path id="Trazado_278448" data-name="Trazado 278448" d="M380.506,279.85a4.776,4.776,0,0,1-.1-.923c0-.32.015-.639.029-1,0-.12-.263-2.76-.479-2.188l-.447,1.18-1.542-3.385-2.716-1.318-3.528,1.921-1.655,3.807c-.237.551,2.166,3.014,2.652,3.3.587.341,1.227.359,1.758.728a14.747,14.747,0,0,1,2.246,2.769.5.5,0,0,0,.347.236.5.5,0,0,0,.251-.094q1.791-1.084,3.56-2.2c.205-.13.432-.293.457-.535.063-.609-.7-1.64-.837-2.291" transform="translate(-233.577 -171.823)" fill="#eacdb0"/>
        <path id="Trazado_278449" data-name="Trazado 278449" d="M386.978,299.229l26.656,33.092,30.287,1.706-1.464-18.1-23.383-.524-28.338-25.1-5.853,4.316Z" transform="translate(-242.937 -183.243)" fill="#f2d263"/>
        <path id="Trazado_278450" data-name="Trazado 278450" d="M552.735,833.177l.858,4.024-7.191,5.74-4.882-3.166,3.166-4.883,7.19-5.74Z" transform="translate(-341.807 -523.36)" fill="#3a3029"/>
        <path id="Trazado_278451" data-name="Trazado 278451" d="M481.815,503.374l2.606,12.222-5,56.435,15.8,54.129-7.642,3.3-32.737-62.834-3.594-19.91-1.077-41.939Z" transform="translate(-284.147 -317.729)" fill="#949494"/>
        <path id="Trazado_278452" data-name="Trazado 278452" d="M404.045,506.614,402.2,559.1l8.3,67.93,7.608.18,6.28-62.351,11.886-62.219Z" transform="translate(-253.867 -317.268)" fill="#949494"/>
        <path id="Trazado_278453" data-name="Trazado 278453" d="M423.974,837.622l-.1,4.114-8.324,3.919-4.016-4.211,4.211-4.017Z" transform="translate(-259.761 -528.583)" fill="#3a3029"/>
        <path id="Trazado_278454" data-name="Trazado 278454" d="M429,424.29c-.8,4.726-2.159,11.04-4.011,10.926a1.67,1.67,0,0,1-.905-.469c-2.8-2.305-4.552-5.131-7.319-7.369a36.15,36.15,0,0,0-9.92-5.308,103.734,103.734,0,0,0-16.153-4.853,132.517,132.517,0,0,0-13.148-1.837c-3.653-.389-7.2.037-10.817-.918a23.977,23.977,0,0,1-10.015-5.422.651.651,0,0,1-.236-.339.658.658,0,0,1,.135-.43c1.168-1.955,2.118-3.93,3.843-5.4a39.031,39.031,0,0,0,5.052-5.9,108.227,108.227,0,0,0,8.932-13.171c3.751-6.2,7.822-12.165,11.494-18.406a116.424,116.424,0,0,1,8.054-12.733c2.42-3.109,6.523-7.543,10.594-8.338a11.981,11.981,0,0,1,4.185.179l12.614,2.039a10.336,10.336,0,0,1,4.394,1.413c1.9,1.34,2.661,3.752,3.3,5.989a101.935,101.935,0,0,1,3.622,30.948c-.156,5.476-.378,10.951-.78,16.412-.449,6.094-1.12,12.173-2.167,18.19-.116.669-.368,2.555-.746,4.8" transform="translate(-225.005 -217.256)" fill="#f2d263"/>
        <path id="Trazado_278455" data-name="Trazado 278455" d="M439.3,367.234a34.808,34.808,0,0,0-.839,7.192c-.687,14.715.4,32.571-.285,47.286-11.209-2.246-25.269-5.707-36.478-7.953,1.433-5.288,3.94-12.5,5.373-17.791a77.426,77.426,0,0,1,3.214-10.029c2.213-5.221,5.544-9.9,8.848-14.528l18.319-25.668a2.953,2.953,0,0,1,3.164-1.545,33.628,33.628,0,0,1,10.166,1.369c.245,3.091-3.706,7.626-5.331,10.147-2.365,3.667-5.034,7.247-6.15,11.52" transform="translate(-253.552 -217.256)" fill="#fff"/>
        <path id="Trazado_278456" data-name="Trazado 278456" d="M504.951,311.3l5.348,2.419a35.266,35.266,0,0,0,2.153-4.659c1.7.277,3.764.408,4.891-1.084a5.836,5.836,0,0,0,.757-1.605l2.455-6.966a7.13,7.13,0,0,0,.552-2.474,5.123,5.123,0,0,0-2.029-3.589,11.083,11.083,0,0,0-9.7-2.691,5.486,5.486,0,0,0-2.564,1.26,8.614,8.614,0,0,0-1.974,4.167l-1.118,4.185c-.429,1.6-.814,3.489.117,4.735.495.662,1.3,1.03,1.663,1.79.637,1.341-.426,2.97-.55,4.512" transform="translate(-317.66 -183.297)" fill="#eacdb0"/>
        <path id="Trazado_278457" data-name="Trazado 278457" d="M491.365,244.041a16.594,16.594,0,0,0-.129-2.087,31.814,31.814,0,0,1-.632-4.447,4.278,4.278,0,0,1,1.951-3.842,4.051,4.051,0,0,1,2.669-.106,15.344,15.344,0,0,1,7.66,4.313c2,2.062,3.511,4.417,6.42,4.829,2.733.387,4.141,1.716,5.972,4.02,1.982,2.494,5.242,4.73,6.762,7.5a8.68,8.68,0,0,1,.938,3.9,13.9,13.9,0,0,1-6.437,12,17.292,17.292,0,0,1-2.78,1.29c-1.968.739-4.353,1.678-6.279,1.245.843-1.658,4.959-6.026,4.557-8.03-.638-3.18-5.077-4.82-7.574-5.6-2.725-.855-5.909-.216-8.525-1.221-1.882-.723-3.574-2.964-4.5-4.824-1.147-2.295-.058-6.371-.07-8.935" transform="translate(-309.668 -147.312)" fill="#3a3029"/>
        <path id="Trazado_278458" data-name="Trazado 278458" d="M135.975.239,17.2,65.117c-3.645,1.991.59,20.831,9.39,42.118s19.105,37.617,23.092,36.453L179.6,105.751Z" transform="translate(-10.028 -0.151)" fill="#6ca2cf"/>
        <path id="Trazado_278459" data-name="Trazado 278459" d="M385.623,105.368c-2.209.913-13.736-21.9-25.745-50.946S339.923,1.082,342.132.169s13.736,21.9,25.745,50.946,19.955,53.34,17.746,54.253" transform="translate(-215.72 -0.09)" fill="#7bb4db"/>
        <g id="Grupo_566954" data-name="Grupo 566954" transform="translate(13.626 44.373)" opacity="0.51">
          <g id="Grupo_566953" data-name="Grupo 566953">
            <g id="Grupo_566952" data-name="Grupo 566952" clip-path="url(#clip-path-4)">
              <path id="Trazado_278460" data-name="Trazado 278460" d="M159.882,175.328c-1.114-.977-2.261-1.919-3.4-2.856l-4.79-3.929c-11.9-9.759-23.4-19.984-35.775-29.176-4.751-3.528-9.5-7.068-14.514-10.223-5.058-3.185-8.831-6.077-14.067-8.827L37.917,147.685c-2.848,1.578.794,17.12,8.08,34.744s15.683,31.2,18.814,30.307l12.5-3.569,28.946-8.262,32.583-9.3,23.416-6.683c1.021-.291,2.811-.441,3.69-1.053.284-.2.581,0,.742-.467.294-.848-2.194-3.407-2.721-4.02a41.065,41.065,0,0,0-4.089-4.053" transform="translate(-36.948 -120.317)" fill="#fff"/>
            </g>
          </g>
        </g>
        <g id="Grupo_566957" data-name="Grupo 566957" transform="translate(63.352 44.337)" opacity="0.51">
          <g id="Grupo_566956" data-name="Grupo 566956">
            <g id="Grupo_566955" data-name="Grupo 566955" clip-path="url(#clip-path-5)">
              <path id="Trazado_278461" data-name="Trazado 278461" d="M251.752,183.556c-1.16,1.454-18.945-10.307-41.385-28.2s-39.692-33.575-38.532-35.029,20.291,11.871,42.732,29.762,38.345,32.011,37.186,33.465" transform="translate(-171.779 -120.219)" fill="#fff"/>
            </g>
          </g>
        </g>
        <path id="Trazado_278462" data-name="Trazado 278462" d="M140.985,203.121q5.172-2.134,10.252-4.489a1.615,1.615,0,0,0-1.331-2.94q-4.638,2.153-9.357,4.115l-3.3-7.279,6.579-3.081c1.88-.88.554-3.823-1.331-2.941l-17.054,7.986c-1.88.88-.554,3.823,1.331,2.941l7.552-3.536,3.23,7.134q-4.632,1.863-9.335,3.551c-1.956.7-.614,3.637,1.331,2.941q5.106-1.828,10.127-3.871a1.828,1.828,0,0,0,1.3-.532" transform="translate(-78.608 -117.62)" fill="#fff"/>
        <path id="Trazado_278463" data-name="Trazado 278463" d="M112.5,263.716c-.092-.241-.87-2.181-1.137-2.924a8.17,8.17,0,0,0,1.552.547c.424.125.839.281,1.266.4,1.793.488,3.746.547,5.222-.743a3.326,3.326,0,0,0-2.831-5.836c-2.016.464-1.524,3.656.5,3.189q.379.756-.852.511a5.617,5.617,0,0,1-1.539-.333c-.635-.19-1.255-.42-1.9-.572a4.64,4.64,0,0,0-3.638.271c-2.39,1.591-.318,4.9.417,6.823.741,1.942,3.678.6,2.94-1.331" transform="translate(-68.185 -160.992)" fill="#fff"/>
        <path id="Trazado_278464" data-name="Trazado 278464" d="M180.655,264.582a1.44,1.44,0,0,0,.562-1.942c-2.376-4.862-10.779-3.7-14.755-1.859-4.449,2.066-8.729,6.89-6.231,12.01,2.455,5.033,8.688,5.727,13.424,3.87,4.127-1.619,8.436-7.442,7-12.079m-9,9.378c-3.092.964-7.476.532-8.717-3.023-1.221-3.5,2.648-6.322,5.415-7.462a13.2,13.2,0,0,1,4.356-.97c1.129-.056,3.42-.077,4.734.657a1.667,1.667,0,0,0-.018,1.915c.975,1.46-.629,4.514-1.426,5.768a7.682,7.682,0,0,1-4.345,3.115" transform="translate(-100.671 -163.599)" fill="#fff"/>
        <path id="Trazado_278465" data-name="Trazado 278465" d="M357.2,299.512a5.084,5.084,0,0,1-.158-.977c-.024-.341-.022-.682-.029-1.064,0-.128-.445-2.922-.641-2.3l-.4,1.283-1.844-3.511-2.971-1.24-3.641,2.257-1.533,4.151c-.22.6,2.486,3.079,3.021,3.35.645.327,1.328.308,1.916.669a15.752,15.752,0,0,1,2.557,2.813.4.4,0,0,0,.645.115q1.842-1.262,3.658-2.561c.211-.151.442-.338.454-.6.031-.652-.846-1.7-1.029-2.389" transform="translate(-218.37 -184.122)" fill="#eacdb0"/>
        <path id="Trazado_278466" data-name="Trazado 278466" d="M365.082,324.022,395.3,357.493h32.192l-2.631-19.085-24.807.84-31.524-24.9-5.944,4.923Z" transform="translate(-228.864 -198.416)" fill="#f2d263"/>
        <path id="Trazado_278467" data-name="Trazado 278467" d="M268.3,91.8a137.853,137.853,0,0,0-225.3-45.622A137.89,137.89,0,1,0,238.013,241.189,138.031,138.031,0,0,0,268.3,91.8M243.469,185.5A111.068,111.068,0,0,1,71.994,231.151,113.168,113.168,0,0,1,53.045,212.2,111.138,111.138,0,0,1,182.321,40.727,109.9,109.9,0,0,1,209.026,56.22a113.206,113.206,0,0,1,18.949,18.949A111.3,111.3,0,0,1,243.469,185.5" transform="translate(-1.654 -3.658)" fill="#ff3131"/>
      </g>
    </g>
    <g id="Grupo_566966" data-name="Grupo 566966" transform="translate(48.254 50.424)">
      <g id="Grupo_566965" data-name="Grupo 566965" clip-path="url(#clip-path-7)">
        <rect id="Rectángulo_205259" data-name="Rectángulo 205259" width="250.461" height="250.461" transform="translate(-88.551 88.551) rotate(-45)" fill="#ff3131"/>
      </g>
    </g>
  </g>
</svg>
