<svg xmlns="http://www.w3.org/2000/svg" xmlns:xlink="http://www.w3.org/1999/xlink" width="360" height="322" viewBox="0 0 360 322">
  <defs>
    <clipPath id="clip-path">
      <rect id="Rectángulo_208395" data-name="Rectángulo 208395" width="360" height="322" transform="translate(180.189 9442)" fill="#fff" stroke="#707070" stroke-width="1"/>
    </clipPath>
  </defs>
  <g id="Enmascarar_grupo_180457" data-name="Enmascarar grupo 180457" transform="translate(-180.189 -9442)" clip-path="url(#clip-path)">
    <g id="Grupo_575730" data-name="Grupo 575730" transform="translate(-24.577 -15)">
      <path id="Trazado_287239" data-name="Trazado 287239" d="M535.047,154.382l-30.613-17.675,30.613-17.676,30.614,17.676ZM506.6,136.708l28.446,16.423,28.447-16.423-28.447-16.423Z" transform="translate(-4.557 9420.848)" fill="#173d7a"/>
      <path id="Trazado_287240" data-name="Trazado 287240" d="M504.871,171.805l-30.614-17.675,30.614-17.676,30.613,17.676Zm-28.447-17.675,28.447,16.423,28.446-16.423-28.446-16.423Z" transform="translate(-3.91 9420.474)" fill="#173d7a"/>
      <path id="Trazado_287241" data-name="Trazado 287241" d="M535.048,189.228l-.27-.157-30.344-17.518,30.613-17.676.271.157,30.344,17.519ZM506.6,171.554l28.447,16.423,28.447-16.423L535.047,155.13Z" transform="translate(-4.557 9420.101)" fill="#173d7a"/>
      <path id="Trazado_287242" data-name="Trazado 287242" d="M504.872,206.651l-30.614-17.677L504.871,171.3l.27.157,30.344,17.518Zm-28.447-17.677L504.872,205.4l28.446-16.424-28.447-16.423Z" transform="translate(-3.91 9419.728)" fill="#173d7a"/>
      <path id="Trazado_287243" data-name="Trazado 287243" d="M535.049,224.074l-.27-.157L504.435,206.4l30.613-17.675.271.157L565.663,206.4ZM506.6,206.4l28.447,16.423L563.5,206.4l-28.448-16.423Z" transform="translate(-4.557 9419.353)" fill="#173d7a"/>
      <path id="Trazado_287244" data-name="Trazado 287244" d="M504.873,241.5l-30.615-17.677,30.614-17.674.27.157,30.344,17.518Zm-28.447-17.677,28.447,16.424,28.446-16.423L504.872,207.4Z" transform="translate(-3.91 9418.979)" fill="#173d7a"/>
      <path id="Trazado_287245" data-name="Trazado 287245" d="M535.05,258.919l-.27-.156-30.344-17.518,30.613-17.676.271.158,30.344,17.518ZM506.6,241.245l28.447,16.423L563.5,241.245l-28.448-16.423Z" transform="translate(-4.557 9418.606)" fill="#173d7a"/>
      <path id="Trazado_287246" data-name="Trazado 287246" d="M504.874,276.341l-.271-.157-30.344-17.518,30.614-17.675.27.157,30.344,17.519Zm-28.448-17.675,28.448,16.423,28.446-16.422-28.447-16.423Z" transform="translate(-3.909 9418.231)" fill="#173d7a"/>
      <path id="Trazado_287247" data-name="Trazado 287247" d="M535.051,293.765,504.437,276.09l30.613-17.675.271.157,30.343,17.519ZM506.6,276.09l28.447,16.424L563.5,276.091,535.05,259.667Z" transform="translate(-4.556 9417.858)" fill="#173d7a"/>
      <path id="Trazado_287248" data-name="Trazado 287248" d="M504.875,311.187l-.271-.157L474.26,293.512l30.614-17.675,30.614,17.676Zm-28.448-17.676,28.448,16.424,28.446-16.423-28.447-16.424Z" transform="translate(-3.909 9417.485)" fill="#173d7a"/>
      <path id="Trazado_287249" data-name="Trazado 287249" d="M535.052,328.611l-30.614-17.677,30.613-17.674.271.157,30.343,17.518Zm-28.447-17.677,28.447,16.424L563.5,310.936l-28.448-16.423Z" transform="translate(-4.557 9417.11)" fill="#173d7a"/>
      <path id="Trazado_287250" data-name="Trazado 287250" d="M504.876,346.033l-.271-.157-30.344-17.519,30.614-17.675,30.614,17.676Zm-28.447-17.676,28.447,16.423,28.446-16.422-28.447-16.424Z" transform="translate(-3.909 9416.737)" fill="#173d7a"/>
      <path id="Trazado_287251" data-name="Trazado 287251" d="M535.053,363.456l-.27-.158-30.344-17.518,30.613-17.675.271.158,30.343,17.518Zm-28.447-17.676L535.053,362.2,563.5,345.782l-28.448-16.423Z" transform="translate(-4.557 9416.364)" fill="#173d7a"/>
      <g id="Grupo_575729" data-name="Grupo 575729" transform="translate(204.577 9456.844)">
        <path id="Trazado_287252" data-name="Trazado 287252" d="M474.336,153.969,444.08,136.5l30.255-17.468.267.156L504.591,136.5ZM446.222,136.5l28.114,16.232L502.449,136.5,474.335,120.27Z" transform="translate(-210.601 -36.966)" fill="#173d7a"/>
        <path id="Trazado_287253" data-name="Trazado 287253" d="M413.981,153.968l-.267-.155L383.725,136.5l30.255-17.469.268.156L444.237,136.5ZM385.867,136.5l28.114,16.231L442.1,136.5,413.98,120.269Z" transform="translate(-208.616 -36.967)" fill="#173d7a"/>
        <path id="Trazado_287254" data-name="Trazado 287254" d="M444.159,171.391l-.267-.155L413.9,153.923l30.255-17.469,30.256,17.47Zm-28.114-17.468,28.114,16.231,28.113-16.23-28.114-16.232Z" transform="translate(-209.609 -37.54)" fill="#173d7a"/>
        <path id="Trazado_287255" data-name="Trazado 287255" d="M474.337,188.814l-.267-.155-29.989-17.313,30.255-17.468,30.255,17.469Zm-28.114-17.468,28.114,16.231,28.112-16.23-28.113-16.232Z" transform="translate(-210.601 -38.113)" fill="#173d7a"/>
        <path id="Trazado_287256" data-name="Trazado 287256" d="M353.627,153.968,323.371,136.5l30.255-17.468.267.156L383.882,136.5ZM325.513,136.5l28.114,16.232L381.74,136.5l-28.114-16.231Z" transform="translate(-206.631 -36.967)" fill="#173d7a"/>
        <path id="Trazado_287257" data-name="Trazado 287257" d="M383.805,171.391l-.268-.155-29.989-17.313L383.8,136.454l.267.155,29.989,17.314ZM355.69,153.923l28.115,16.231,28.113-16.231L383.8,137.692Z" transform="translate(-207.624 -37.54)" fill="#173d7a"/>
        <path id="Trazado_287258" data-name="Trazado 287258" d="M413.982,188.814l-.267-.155-29.989-17.313,30.255-17.469.268.155,29.989,17.314Zm-28.114-17.468,28.114,16.231L442.1,171.346l-28.115-16.232Z" transform="translate(-208.616 -38.113)" fill="#173d7a"/>
        <path id="Trazado_287259" data-name="Trazado 287259" d="M444.16,206.237l-.267-.155L413.9,188.768,444.159,171.3l.268.155,29.988,17.313Zm-28.114-17.469L444.16,205l28.113-16.232-28.114-16.231Z" transform="translate(-209.609 -38.686)" fill="#173d7a"/>
        <path id="Trazado_287260" data-name="Trazado 287260" d="M474.337,223.66l-30.255-17.469,30.255-17.468,30.255,17.469Zm-28.113-17.469,28.113,16.231,28.113-16.23L474.337,189.96Z" transform="translate(-210.601 -39.259)" fill="#173d7a"/>
        <path id="Trazado_287261" data-name="Trazado 287261" d="M293.272,153.967l-.267-.155L263.016,136.5l30.255-17.469.268.156L323.528,136.5ZM265.158,136.5l28.114,16.231L321.386,136.5l-28.115-16.231Z" transform="translate(-204.646 -36.967)" fill="#173d7a"/>
        <path id="Trazado_287262" data-name="Trazado 287262" d="M323.45,171.39l-.267-.155-29.989-17.313,30.255-17.469,30.256,17.47Zm-28.114-17.468,28.114,16.231,28.113-16.23-28.114-16.232Z" transform="translate(-205.639 -37.54)" fill="#173d7a"/>
        <path id="Trazado_287263" data-name="Trazado 287263" d="M353.628,188.813l-.267-.155-29.989-17.313,30.255-17.468.267.155,29.989,17.314Zm-28.114-17.468,28.114,16.231,28.113-16.23-28.114-16.232Z" transform="translate(-206.631 -38.113)" fill="#173d7a"/>
        <path id="Trazado_287264" data-name="Trazado 287264" d="M383.806,206.237l-30.257-17.47L383.805,171.3l.267.155,29.989,17.313Zm-28.115-17.47L383.806,205l28.113-16.232-28.114-16.231Z" transform="translate(-207.624 -38.686)" fill="#173d7a"/>
        <path id="Trazado_287265" data-name="Trazado 287265" d="M413.983,223.66l-.267-.155-29.989-17.314,30.255-17.468.268.155,29.989,17.313Zm-28.114-17.469,28.114,16.231L442.1,206.191,413.982,189.96Z" transform="translate(-208.616 -39.259)" fill="#173d7a"/>
        <path id="Trazado_287266" data-name="Trazado 287266" d="M444.16,241.083l-30.255-17.469,30.255-17.468,30.255,17.468Zm-28.113-17.469,28.113,16.231,28.113-16.231L444.16,207.383Z" transform="translate(-209.609 -39.832)" fill="#173d7a"/>
        <path id="Trazado_287267" data-name="Trazado 287267" d="M474.338,258.505l-.268-.155-29.988-17.313,30.255-17.469,30.256,17.47Zm-28.114-17.468,28.114,16.231,28.113-16.23-28.114-16.232Z" transform="translate(-210.601 -40.404)" fill="#173d7a"/>
        <path id="Trazado_287268" data-name="Trazado 287268" d="M232.918,153.966l-.267-.155L202.662,136.5l30.255-17.468.267.156L263.173,136.5ZM204.8,136.5l28.114,16.231,28.113-16.23-28.114-16.231Z" transform="translate(-202.662 -36.967)" fill="#173d7a"/>
        <path id="Trazado_287269" data-name="Trazado 287269" d="M263.1,171.39,232.84,153.921,263.1,136.453l.267.155,29.989,17.314Zm-28.115-17.469L263.1,170.153l28.113-16.231L263.1,137.691Z" transform="translate(-203.654 -37.54)" fill="#173d7a"/>
        <path id="Trazado_287270" data-name="Trazado 287270" d="M293.273,188.813l-.267-.155-29.989-17.313,30.255-17.469.268.155,29.989,17.314Zm-28.114-17.468,28.114,16.231,28.114-16.231-28.115-16.232Z" transform="translate(-204.646 -38.113)" fill="#173d7a"/>
        <path id="Trazado_287271" data-name="Trazado 287271" d="M323.451,206.236l-.267-.155-29.989-17.314L323.45,171.3l.268.155,29.988,17.313Zm-28.114-17.469L323.451,205l28.113-16.232L323.45,172.536Z" transform="translate(-205.639 -38.686)" fill="#173d7a"/>
        <path id="Trazado_287272" data-name="Trazado 287272" d="M353.629,223.659l-.268-.155L323.373,206.19l30.255-17.468,30.256,17.469ZM325.515,206.19l28.114,16.232,28.113-16.231-28.114-16.232Z" transform="translate(-206.631 -39.259)" fill="#173d7a"/>
        <path id="Trazado_287273" data-name="Trazado 287273" d="M383.807,241.082l-.268-.155L353.55,223.613l30.256-17.467.267.155,29.989,17.313Zm-28.115-17.469,28.115,16.231,28.113-16.23-28.114-16.231Z" transform="translate(-207.624 -39.832)" fill="#173d7a"/>
        <path id="Trazado_287274" data-name="Trazado 287274" d="M413.984,258.505l-30.256-17.469,30.255-17.468,30.256,17.469ZM385.87,241.036l28.114,16.232L442.1,241.037l-28.114-16.231Z" transform="translate(-208.616 -40.404)" fill="#173d7a"/>
        <path id="Trazado_287275" data-name="Trazado 287275" d="M444.161,275.928,413.906,258.46l30.254-17.469.267.155,29.989,17.314ZM416.048,258.46l28.113,16.231,28.113-16.231L444.16,242.229Z" transform="translate(-209.609 -40.978)" fill="#173d7a"/>
        <path id="Trazado_287276" data-name="Trazado 287276" d="M474.339,293.351l-.268-.155-29.988-17.313,30.255-17.469.267.155,29.989,17.314Zm-28.114-17.468,28.114,16.231,28.113-16.231-28.114-16.232Z" transform="translate(-210.601 -41.55)" fill="#173d7a"/>
        <path id="Trazado_287277" data-name="Trazado 287277" d="M232.919,188.812l-.267-.155-29.989-17.313,30.255-17.469,30.256,17.47Zm-28.114-17.468,28.114,16.231,28.113-16.23-28.114-16.233Z" transform="translate(-202.662 -38.113)" fill="#173d7a"/>
        <path id="Trazado_287278" data-name="Trazado 287278" d="M263.1,206.236l-30.257-17.47L263.1,171.3l.267.155,29.989,17.313Zm-28.115-17.47L263.1,205l28.113-16.232L263.1,172.536Z" transform="translate(-203.654 -38.686)" fill="#173d7a"/>
        <path id="Trazado_287279" data-name="Trazado 287279" d="M293.274,223.659l-.267-.155L263.018,206.19l30.255-17.468.268.155L323.53,206.19ZM265.16,206.19l28.114,16.232,28.114-16.232-28.115-16.231Z" transform="translate(-204.647 -39.259)" fill="#173d7a"/>
        <path id="Trazado_287280" data-name="Trazado 287280" d="M323.452,241.082l-.267-.155L293.2,223.613l30.255-17.468.267.155,29.989,17.313Zm-28.114-17.469,28.114,16.231,28.113-16.231-28.114-16.231Z" transform="translate(-205.639 -39.832)" fill="#173d7a"/>
        <path id="Trazado_287281" data-name="Trazado 287281" d="M353.63,258.505l-.268-.156-29.988-17.313,30.255-17.468.267.155,29.989,17.313Zm-28.114-17.469,28.114,16.231,28.113-16.231L353.629,224.8Z" transform="translate(-206.631 -40.404)" fill="#173d7a"/>
        <path id="Trazado_287282" data-name="Trazado 287282" d="M383.808,275.927l-.268-.155-29.989-17.313,30.256-17.469,30.256,17.47Zm-28.115-17.468,28.115,16.231,28.113-16.23-28.114-16.232Z" transform="translate(-207.624 -40.977)" fill="#173d7a"/>
        <path id="Trazado_287283" data-name="Trazado 287283" d="M413.984,293.351l-30.255-17.469,30.255-17.468,30.256,17.469Zm-28.113-17.469,28.113,16.232L442.1,275.883l-28.114-16.232Z" transform="translate(-208.616 -41.55)" fill="#173d7a"/>
        <path id="Trazado_287284" data-name="Trazado 287284" d="M444.162,310.774l-.267-.155-29.989-17.314,30.255-17.468.267.155,29.989,17.313Zm-28.114-17.469,28.114,16.232,28.113-16.232-28.114-16.231Z" transform="translate(-209.609 -42.123)" fill="#173d7a"/>
        <path id="Trazado_287285" data-name="Trazado 287285" d="M474.34,328.2l-.268-.155-29.988-17.314,30.255-17.468.267.155L504.6,310.728Zm-28.115-17.469L474.34,326.96l28.113-16.232L474.339,294.5Z" transform="translate(-210.601 -42.698)" fill="#173d7a"/>
        <path id="Trazado_287286" data-name="Trazado 287286" d="M232.92,223.658l-.267-.155-29.989-17.314,30.255-17.468,30.256,17.469Zm-28.114-17.469,28.114,16.232,28.113-16.231-28.114-16.232Z" transform="translate(-202.662 -39.259)" fill="#173d7a"/>
        <path id="Trazado_287287" data-name="Trazado 287287" d="M263.1,241.081l-.268-.155-29.989-17.314L263.1,206.145l.267.155,29.989,17.313Zm-28.115-17.469L263.1,239.843l28.113-16.23L263.1,207.382Z" transform="translate(-203.655 -39.832)" fill="#173d7a"/>
        <path id="Trazado_287288" data-name="Trazado 287288" d="M293.275,258.505l-30.256-17.47,30.255-17.467.268.155,29.989,17.313Zm-28.114-17.47,28.114,16.232,28.114-16.231L293.274,224.8Z" transform="translate(-204.647 -40.404)" fill="#173d7a"/>
        <path id="Trazado_287289" data-name="Trazado 287289" d="M323.453,275.927l-.267-.155L293.2,258.459l30.255-17.469.267.155,29.989,17.314Zm-28.114-17.468,28.114,16.231,28.113-16.231-28.114-16.231Z" transform="translate(-205.639 -40.977)" fill="#173d7a"/>
        <path id="Trazado_287290" data-name="Trazado 287290" d="M353.631,293.35l-.268-.155-29.988-17.313,30.255-17.469.267.155,29.989,17.314Zm-28.114-17.468,28.114,16.231,28.113-16.231L353.63,259.651Z" transform="translate(-206.632 -41.55)" fill="#173d7a"/>
        <path id="Trazado_287291" data-name="Trazado 287291" d="M383.808,310.773,353.552,293.3l30.256-17.469L414.063,293.3ZM355.694,293.3l28.114,16.231L411.921,293.3l-28.113-16.232Z" transform="translate(-207.624 -42.123)" fill="#173d7a"/>
        <path id="Trazado_287292" data-name="Trazado 287292" d="M413.985,328.2l-.267-.155-29.989-17.314,30.255-17.467.268.155,29.988,17.313Zm-28.114-17.469,28.114,16.232L442.1,310.728,413.984,294.5Z" transform="translate(-208.616 -42.698)" fill="#173d7a"/>
        <path id="Trazado_287293" data-name="Trazado 287293" d="M444.163,345.62l-30.256-17.47,30.255-17.467.267.155,29.989,17.313Zm-28.114-17.47,28.114,16.232,28.113-16.231L444.162,311.92Z" transform="translate(-209.609 -43.27)" fill="#173d7a"/>
        <path id="Trazado_287294" data-name="Trazado 287294" d="M474.341,363.043l-.268-.156-29.988-17.313,30.255-17.468.267.155L504.6,345.574Zm-28.115-17.469,28.115,16.231,28.113-16.231L474.34,329.343Z" transform="translate(-210.601 -43.843)" fill="#173d7a"/>
        <path id="Trazado_287295" data-name="Trazado 287295" d="M232.921,258.5l-.268-.156-29.988-17.313,30.255-17.468.267.155,29.989,17.313Zm-28.114-17.469,28.114,16.231,28.113-16.231L232.92,224.8Z" transform="translate(-202.662 -40.404)" fill="#173d7a"/>
        <path id="Trazado_287296" data-name="Trazado 287296" d="M263.1,275.926l-.268-.155-29.989-17.313L263.1,240.989l30.256,17.47Zm-28.115-17.468L263.1,274.689l28.113-16.23L263.1,242.227Z" transform="translate(-203.655 -40.977)" fill="#173d7a"/>
        <path id="Trazado_287297" data-name="Trazado 287297" d="M293.276,293.35,263.02,275.881l30.255-17.468.268.155,29.989,17.314Zm-28.114-17.469,28.114,16.232,28.114-16.231-28.115-16.231Z" transform="translate(-204.647 -41.55)" fill="#173d7a"/>
        <path id="Trazado_287298" data-name="Trazado 287298" d="M323.454,310.773l-.267-.155L293.2,293.3l30.255-17.469.267.155L353.709,293.3ZM295.34,293.3l28.114,16.231L351.567,293.3l-28.114-16.232Z" transform="translate(-205.639 -42.123)" fill="#173d7a"/>
        <path id="Trazado_287299" data-name="Trazado 287299" d="M353.632,328.2l-.268-.155-29.988-17.314,30.255-17.468,30.255,17.468Zm-28.115-17.469,28.115,16.232,28.112-16.232L353.631,294.5Z" transform="translate(-206.632 -42.697)" fill="#173d7a"/>
        <path id="Trazado_287300" data-name="Trazado 287300" d="M383.809,345.619,353.553,328.15l30.255-17.468.267.155,29.989,17.313ZM355.7,328.15l28.114,16.231,28.113-16.231-28.114-16.231Z" transform="translate(-207.624 -43.27)" fill="#173d7a"/>
        <path id="Trazado_287301" data-name="Trazado 287301" d="M413.986,363.042l-.267-.156L383.73,345.573l30.255-17.468,30.256,17.469Zm-28.114-17.469L413.986,361.8l28.114-16.23-28.115-16.232Z" transform="translate(-208.616 -43.843)" fill="#173d7a"/>
        <path id="Trazado_287302" data-name="Trazado 287302" d="M232.922,293.349l-.268-.155-29.988-17.313,30.255-17.469.267.155,29.989,17.314Zm-28.114-17.468,28.114,16.231,28.113-16.231L232.921,259.65Z" transform="translate(-202.662 -41.55)" fill="#173d7a"/>
        <path id="Trazado_287303" data-name="Trazado 287303" d="M263.1,310.772l-.268-.155L232.843,293.3,263.1,275.835l30.256,17.47ZM234.985,293.3,263.1,309.535l28.113-16.23L263.1,277.072Z" transform="translate(-203.655 -42.124)" fill="#173d7a"/>
        <path id="Trazado_287304" data-name="Trazado 287304" d="M293.277,328.2l-.267-.155-29.989-17.314,30.255-17.467.268.155,29.988,17.313Zm-28.114-17.469,28.114,16.232,28.114-16.231L293.276,294.5Z" transform="translate(-204.647 -42.697)" fill="#173d7a"/>
        <path id="Trazado_287305" data-name="Trazado 287305" d="M323.455,345.619,293.2,328.149l30.255-17.467.267.155L353.71,328.15Zm-28.114-17.47,28.114,16.232,28.113-16.231-28.114-16.231Z" transform="translate(-205.639 -43.27)" fill="#173d7a"/>
        <path id="Trazado_287306" data-name="Trazado 287306" d="M353.632,363.042l-30.255-17.469,30.255-17.468,30.255,17.468Zm-28.114-17.469L353.632,361.8l28.113-16.231-28.113-16.231Z" transform="translate(-206.632 -43.843)" fill="#173d7a"/>
        <path id="Trazado_287307" data-name="Trazado 287307" d="M232.923,328.2l-.268-.155-29.988-17.314,30.255-17.468.267.155,29.989,17.313Zm-28.115-17.469,28.115,16.232,28.113-16.232-28.114-16.231Z" transform="translate(-202.662 -42.696)" fill="#173d7a"/>
        <path id="Trazado_287308" data-name="Trazado 287308" d="M263.1,345.618l-.268-.155-29.989-17.314L263.1,310.681l.267.155,29.989,17.313Zm-28.115-17.469L263.1,344.38l28.113-16.231L263.1,311.918Z" transform="translate(-203.654 -43.27)" fill="#173d7a"/>
        <path id="Trazado_287309" data-name="Trazado 287309" d="M293.278,363.041l-.267-.156-29.989-17.313L293.277,328.1l30.256,17.469Zm-28.114-17.469L293.278,361.8l28.114-16.23-28.115-16.232Z" transform="translate(-204.647 -43.843)" fill="#173d7a"/>
        <path id="Trazado_287310" data-name="Trazado 287310" d="M232.924,363.041l-.268-.156-29.988-17.313L232.923,328.1l.267.155,29.989,17.313Zm-28.115-17.469L232.924,361.8l28.113-16.231-28.114-16.231Z" transform="translate(-202.662 -43.843)" fill="#173d7a"/>
        <line id="Línea_1921" data-name="Línea 1921" y1="164.917" x2="283.784" transform="translate(116.216 167.133)" fill="#68a333"/>
        <line id="Línea_1922" data-name="Línea 1922" x1="283.784" y2="164.917" transform="translate(116.175 181.31)" fill="#68a333"/>
        <line id="Línea_1923" data-name="Línea 1923" x2="237.83" y2="137.312" transform="translate(0.422 194.74)" fill="#588a2b"/>
        <line id="Línea_1924" data-name="Línea 1924" x1="237.83" y1="137.312" transform="translate(0.382 208.915)" fill="#588a2b"/>
        <line id="Línea_1925" data-name="Línea 1925" y1="164.917" x2="283.784" transform="translate(116.216 180.937)" fill="#575756"/>
        <line id="Línea_1926" data-name="Línea 1926" x1="283.784" y2="164.917" transform="translate(116.175 195.113)" fill="#575756"/>
        <line id="Línea_1927" data-name="Línea 1927" x2="237.83" y2="137.312" transform="translate(0.422 208.542)" fill="#3c3c3b"/>
        <line id="Línea_1928" data-name="Línea 1928" x1="237.83" y1="137.311" transform="translate(0.382 222.719)" fill="#3c3c3b"/>
        <line id="Línea_1929" data-name="Línea 1929" x1="237.83" y1="137.312" transform="translate(0.422 194.74)" fill="#83ce41"/>
        <line id="Línea_1930" data-name="Línea 1930" x1="283.784" y2="164.917" transform="translate(116.216 167.133)" fill="#83ce41"/>
        <g id="Grupo_575728" data-name="Grupo 575728" transform="translate(58.2)">
          <g id="Grupo_575682" data-name="Grupo 575682" transform="translate(142.486 83.021)">
            <g id="Grupo_575679" data-name="Grupo 575679" transform="translate(82.15 75.572)">
              <g id="Grupo_575678" data-name="Grupo 575678">
                <g id="Grupo_575677" data-name="Grupo 575677" style="isolation: isolate">
                  <g id="Grupo_575675" data-name="Grupo 575675" transform="translate(0 12.682)">
                    <path id="Trazado_287311" data-name="Trazado 287311" d="M142.106,174.212l-.016,5.239c-.008,3.242-2.137,6.48-6.392,8.949-8.569,4.979-22.5,4.975-31.115,0-4.339-2.506-6.508-5.792-6.5-9.074l.016-5.239c-.008,3.282,2.161,6.568,6.5,9.074,8.617,4.975,22.546,4.979,31.115,0C139.968,180.692,142.094,177.454,142.106,174.212Z" transform="translate(-98.083 -174.088)" fill="#575756"/>
                  </g>
                  <g id="Grupo_575676" data-name="Grupo 575676" transform="translate(0.017)">
                    <path id="Trazado_287312" data-name="Trazado 287312" d="M135.6,174.652c8.617,4.975,8.661,13.048.1,18.023s-22.5,4.975-31.115,0-8.669-13.044-.1-18.023S126.975,169.673,135.6,174.652Z" transform="translate(-98.087 -170.919)" fill="#fff"/>
                  </g>
                </g>
              </g>
              <path id="Trazado_287313" data-name="Trazado 287313" d="M125.878,174.443c6,3.03,6.036,7.945.072,10.971s-15.677,3.03-21.681,0-6.04-7.937-.072-10.971S119.87,171.413,125.878,174.443Z" transform="translate(-93.102 -167.16)" fill="#c6c6c6"/>
            </g>
            <path id="Trazado_287314" data-name="Trazado 287314" d="M166.392,240.38h30.615v-45.5c0-17.355-6.912-31.291-18.959-38.247s-27.581-5.972-42.6,2.7L77.558,192.747l15.309,26.52,57.887-33.42c6.148-3.546,10.294-3.678,11.983-2.7s3.654,4.627,3.654,11.731Z" transform="translate(-77.558 -152.038)" fill="#c6c6c6"/>
            <g id="Grupo_575680" data-name="Grupo 575680" transform="translate(88.79 61.006)">
              <path id="Trazado_287315" data-name="Trazado 287315" d="M130.4,167.28c.016,2.273-1.469,4.547-4.451,6.28-5.972,3.47-15.677,3.466-21.681,0-3.006-1.733-4.515-4.007-4.527-6.28v9.206c.012,2.273,1.521,4.543,4.527,6.28,6,3.466,15.71,3.47,21.681,0,2.982-1.733,4.467-4.006,4.451-6.28Z" transform="translate(-99.742 -167.28)" fill="#575756"/>
            </g>
            <g id="Grupo_575681" data-name="Grupo 575681" transform="translate(88.79 46.777)">
              <path id="Trazado_287316" data-name="Trazado 287316" d="M130.4,163.725c.016,2.269-1.469,4.543-4.451,6.276-5.972,3.47-15.677,3.466-21.681,0-3.006-1.733-4.515-4.006-4.527-6.276v9.2c.012,2.273,1.521,4.543,4.527,6.28,6,3.466,15.71,3.47,21.681,0,2.982-1.733,4.467-4.006,4.451-6.28Z" transform="translate(-99.742 -163.725)" fill="#d04158"/>
            </g>
          </g>
          <g id="Grupo_575727" data-name="Grupo 575727">
            <g id="Grupo_575686" data-name="Grupo 575686" transform="translate(0 151.129)">
              <g id="Grupo_575685" data-name="Grupo 575685" transform="translate(0 0)" style="isolation: isolate">
                <g id="Grupo_575683" data-name="Grupo 575683" transform="translate(0 63.244)">
                  <path id="Trazado_287317" data-name="Trazado 287317" d="M260.831,185.48l-.5,32.684c-.044,16.082-10.611,32.139-31.723,44.411-42.5,24.695-111.644,24.695-154.418,0C52.661,250.148,41.91,233.834,41.958,217.54l.5-32.684c-.048,16.29,10.7,32.608,32.228,45.035,42.774,24.695,111.924,24.695,154.418,0C250.216,217.62,260.783,201.562,260.831,185.48Z" transform="translate(-41.958 -184.856)" fill="#575756"/>
                </g>
                <g id="Grupo_575684" data-name="Grupo 575684" transform="translate(0.316)">
                  <ellipse id="Elipse_5597" data-name="Elipse 5597" cx="63.246" cy="109.191" rx="63.246" ry="109.191" transform="translate(0 126.492) rotate(-89.838)" fill="#fff"/>
                </g>
              </g>
            </g>
            <g id="Grupo_575691" data-name="Grupo 575691" transform="translate(13.208 1.629)">
              <g id="Grupo_575690" data-name="Grupo 575690" transform="translate(0 0)" style="isolation: isolate">
                <g id="Grupo_575688" data-name="Grupo 575688" transform="translate(0 55.717)">
                  <path id="Trazado_287318" data-name="Trazado 287318" d="M237.711,146.075l-.1,34.141-.124,48.381-.208,72.9c-.04,14.141-9.338,28.257-27.909,39.044-37.367,21.717-98.171,21.717-135.786,0-18.923-10.931-28.365-25.275-28.325-39.6l.208-72.54.124-48.033.1-34.737c0,14.285,9.462,28.589,28.341,39.5,37.619,21.717,98.424,21.717,135.79,0C228.377,174.336,237.671,160.216,237.711,146.075Z" transform="translate(-45.258 -145.623)" fill="#575756"/>
                  <g id="Grupo_575687" data-name="Grupo 575687" transform="translate(0.208 63.578)">
                    <path id="Trazado_287319" data-name="Trazado 287319" d="M59.01,180.119c-6.572-5.776-11.123-12.079-13.576-18.575l-.124,19.047a41.111,41.111,0,0,0,5.175,9.586,55.05,55.05,0,0,0,8.525,9.186Z" transform="translate(-45.31 -161.4)" fill="#878787"/>
                    <path id="Trazado_287320" data-name="Trazado 287320" d="M170.673,189.517c-30.222,17.226-75.366,20.773-111.94,10.767V219.5c36.566,9.982,81.669,6.432,111.876-10.767,13.872-7.929,22.694-17.639,26.42-27.825l.124-19.4C193.487,171.774,184.649,181.548,170.673,189.517Z" transform="translate(-5.008 -161.508)" fill="#878787"/>
                  </g>
                </g>
                <g id="Grupo_575689" data-name="Grupo 575689" transform="translate(0.272)">
                  <ellipse id="Elipse_5598" data-name="Elipse 5598" cx="55.616" cy="96.018" rx="55.616" ry="96.018" transform="translate(0 111.232) rotate(-89.838)" fill="#dadada"/>
                  <path id="Trazado_287321" data-name="Trazado 287321" d="M219.269,179.78a22.982,22.982,0,0,1-1.117,7.056c-2.67,8.425-10.122,16.482-21.633,23.166-16.5,9.586-38.735,14.885-62.586,14.885-23.87,0-46.168-5.3-62.81-14.905-11.739-6.768-19.34-14.945-22.049-23.5a22.815,22.815,0,0,1-1.121-7.016c-.02-10.951,8.057-21.7,22.754-30.226,16.5-9.606,38.735-14.885,62.586-14.885,23.87,0,46.164,5.3,62.81,14.905C211.032,157.875,219.269,168.7,219.269,179.78Z" transform="translate(-37.439 -123.731)" fill="#575756"/>
                  <path id="Trazado_287322" data-name="Trazado 287322" d="M217.311,176.244c-2.67,8.425-10.122,16.482-21.633,23.166C179.176,209,156.943,214.3,133.092,214.3c-23.87,0-46.168-5.3-62.81-14.905-11.739-6.768-19.34-14.945-22.049-23.5,2.69-8.425,10.142-16.458,21.633-23.122,16.5-9.606,38.735-14.885,62.586-14.885,23.87,0,46.164,5.3,62.81,14.905C207,159.558,214.6,167.7,217.311,176.244Z" transform="translate(-36.598 -113.139)" fill="#5fdced"/>
                </g>
              </g>
            </g>
            <g id="Grupo_575704" data-name="Grupo 575704" transform="translate(38.305 88.079)">
              <g id="Grupo_575694" data-name="Grupo 575694">
                <g id="Grupo_575692" data-name="Grupo 575692" transform="translate(0.011)">
                  <path id="Trazado_287323" data-name="Trazado 287323" d="M51.819,210.194a.285.285,0,0,1-.284-.284l0-50.19a7.54,7.54,0,0,1,3.406-5.9,2.618,2.618,0,0,1,2.662-.268,2.564,2.564,0,0,1,1.1,2.361v3.01a.288.288,0,0,1-.576,0v-3.01a1.708,1.708,0,0,0-2.83-1.633,6.912,6.912,0,0,0-3.186,5.435v50.19A.286.286,0,0,1,51.819,210.194Z" transform="translate(-51.531 -153.302)" fill="#fff"/>
                </g>
                <g id="Grupo_575693" data-name="Grupo 575693" transform="translate(7.143 4.114)">
                  <path id="Trazado_287324" data-name="Trazado 287324" d="M53.6,211.226a.287.287,0,0,1-.288-.288V160.751a7.531,7.531,0,0,1,3.406-5.9,2.61,2.61,0,0,1,2.658-.268,2.569,2.569,0,0,1,1.1,2.361v3.01a.288.288,0,0,1-.576,0v-3.01a1.709,1.709,0,0,0-2.83-1.633,6.924,6.924,0,0,0-3.186,5.439v50.186A.286.286,0,0,1,53.6,211.226Z" transform="translate(-53.313 -154.33)" fill="#fff"/>
                </g>
                <path id="Trazado_287325" data-name="Trazado 287325" d="M58.924,171.008c-.144-.04-7.24-4.134-7.24-4.134a.288.288,0,0,1-.1-.392.293.293,0,0,1,.392-.108l7.092,4.1a.289.289,0,0,1,.108.392A.294.294,0,0,1,58.924,171.008Z" transform="translate(-51.492 -114.164)" fill="#fff"/>
                <path id="Trazado_287326" data-name="Trazado 287326" d="M58.92,169.86c-.144-.036-7.236-4.135-7.236-4.135a.288.288,0,0,1-.108-.392.292.292,0,0,1,.392-.1l7.1,4.095a.288.288,0,0,1,.1.392A.284.284,0,0,1,58.92,169.86Z" transform="translate(-51.497 -117.602)" fill="#fff"/>
                <path id="Trazado_287327" data-name="Trazado 287327" d="M58.919,168.714c-.144-.036-7.236-4.131-7.236-4.131a.288.288,0,1,1,.284-.5l7.1,4.1a.286.286,0,0,1,.1.392A.28.28,0,0,1,58.919,168.714Z" transform="translate(-51.5 -121.043)" fill="#fff"/>
                <path id="Trazado_287328" data-name="Trazado 287328" d="M58.919,167.57c-.144-.04-7.236-4.135-7.236-4.135a.286.286,0,1,1,.284-.5l7.1,4.094a.288.288,0,0,1,.1.392A.284.284,0,0,1,58.919,167.57Z" transform="translate(-51.504 -124.482)" fill="#fff"/>
                <path id="Trazado_287329" data-name="Trazado 287329" d="M58.919,166.423c-.144-.036-7.24-4.135-7.24-4.135a.287.287,0,0,1-.1-.392.291.291,0,0,1,.392-.1l7.1,4.094a.288.288,0,0,1,.1.392A.284.284,0,0,1,58.919,166.423Z" transform="translate(-51.507 -127.921)" fill="#fff"/>
                <path id="Trazado_287330" data-name="Trazado 287330" d="M58.918,165.281c-.144-.04-7.24-4.135-7.24-4.135a.289.289,0,0,1,.288-.5l7.092,4.1a.285.285,0,0,1,.108.392A.294.294,0,0,1,58.918,165.281Z" transform="translate(-51.51 -131.362)" fill="#fff"/>
                <path id="Trazado_287331" data-name="Trazado 287331" d="M58.913,164.133c-.14-.036-7.236-4.134-7.236-4.134a.287.287,0,0,1,.288-.5l7.092,4.094a.289.289,0,0,1,.108.392A.3.3,0,0,1,58.913,164.133Z" transform="translate(-51.513 -134.801)" fill="#fff"/>
                <path id="Trazado_287332" data-name="Trazado 287332" d="M58.912,162.987c-.144-.036-7.236-4.131-7.236-4.131a.291.291,0,0,1-.1-.4.287.287,0,0,1,.392-.1l7.092,4.094a.3.3,0,0,1,.108.4A.3.3,0,0,1,58.912,162.987Z" transform="translate(-51.516 -138.242)" fill="#fff"/>
                <path id="Trazado_287333" data-name="Trazado 287333" d="M58.912,161.844c-.144-.04-7.236-4.135-7.236-4.135a.288.288,0,1,1,.284-.5l7.1,4.1a.288.288,0,0,1,.1.392A.284.284,0,0,1,58.912,161.844Z" transform="translate(-51.521 -141.682)" fill="#fff"/>
                <path id="Trazado_287334" data-name="Trazado 287334" d="M58.911,160.7c-.144-.036-7.24-4.134-7.24-4.134a.291.291,0,0,1-.1-.392.288.288,0,0,1,.392-.1l7.1,4.095a.288.288,0,0,1,.1.392A.284.284,0,0,1,58.911,160.7Z" transform="translate(-51.524 -145.121)" fill="#fff"/>
                <path id="Trazado_287335" data-name="Trazado 287335" d="M58.912,159.549c-.144-.036-7.24-4.131-7.24-4.131a.289.289,0,0,1,.288-.5l7.1,4.094a.291.291,0,0,1,.1.4A.288.288,0,0,1,58.912,159.549Z" transform="translate(-51.528 -148.56)" fill="#fff"/>
                <path id="Trazado_287336" data-name="Trazado 287336" d="M53.6,159.633a.287.287,0,0,1-.144-.536l3.374-1.945a.287.287,0,1,1,.288.5L53.743,159.6A.306.306,0,0,1,53.6,159.633Z" transform="translate(-46.172 -141.86)" fill="#fff"/>
                <path id="Trazado_287337" data-name="Trazado 287337" d="M51.823,158.586a.294.294,0,0,1-.248-.144.289.289,0,0,1,.108-.392l3.374-1.949a.294.294,0,0,1,.392.108.289.289,0,0,1-.108.392l-3.374,1.945A.262.262,0,0,1,51.823,158.586Z" transform="translate(-51.5 -145.008)" fill="#fff"/>
                <path id="Trazado_287338" data-name="Trazado 287338" d="M53.6,164.2a.288.288,0,0,1-.144-.536l3.374-1.945a.287.287,0,0,1,.288.5l-3.374,1.949A.308.308,0,0,1,53.6,164.2Z" transform="translate(-46.172 -128.151)" fill="#fff"/>
                <path id="Trazado_287339" data-name="Trazado 287339" d="M51.823,163.15a.284.284,0,0,1-.14-.532l3.374-1.949a.286.286,0,1,1,.284.5l-3.374,1.949A.3.3,0,0,1,51.823,163.15Z" transform="translate(-51.5 -131.301)" fill="#fff"/>
                <path id="Trazado_287340" data-name="Trazado 287340" d="M53.6,168.762a.285.285,0,0,1-.144-.532l3.374-1.949a.291.291,0,0,1,.392.1.286.286,0,0,1-.1.392l-3.374,1.949A.266.266,0,0,1,53.6,168.762Z" transform="translate(-46.172 -114.444)" fill="#fff"/>
                <path id="Trazado_287341" data-name="Trazado 287341" d="M51.823,167.716a.294.294,0,0,1-.248-.144.289.289,0,0,1,.108-.392l3.374-1.945a.286.286,0,1,1,.284.5l-3.374,1.949A.3.3,0,0,1,51.823,167.716Z" transform="translate(-51.5 -117.591)" fill="#fff"/>
              </g>
              <g id="Grupo_575697" data-name="Grupo 575697" transform="translate(0.006 44.433)">
                <g id="Grupo_575695" data-name="Grupo 575695" transform="translate(0.005)">
                  <path id="Trazado_287342" data-name="Trazado 287342" d="M51.531,164.4l0,48.717a.286.286,0,0,0,.572,0V164.4Z" transform="translate(-51.531 -164.403)" fill="#fff"/>
                </g>
                <g id="Grupo_575696" data-name="Grupo 575696" transform="translate(7.137 3.658)">
                  <path id="Trazado_287343" data-name="Trazado 287343" d="M53.313,165.317v49.174a.286.286,0,1,0,.572,0V165.317Z" transform="translate(-53.313 -165.317)" fill="#fff"/>
                </g>
                <path id="Trazado_287344" data-name="Trazado 287344" d="M58.924,180.139c-.144-.04-7.24-4.134-7.24-4.134a.289.289,0,0,1,.288-.5l7.092,4.1a.289.289,0,0,1,.108.392A.294.294,0,0,1,58.924,180.139Z" transform="translate(-51.498 -131.185)" fill="#fff"/>
                <path id="Trazado_287345" data-name="Trazado 287345" d="M58.92,178.991c-.144-.04-7.236-4.134-7.236-4.134a.286.286,0,1,1,.284-.5l7.1,4.094a.288.288,0,0,1,.1.392A.284.284,0,0,1,58.92,178.991Z" transform="translate(-51.503 -134.624)" fill="#fff"/>
                <path id="Trazado_287346" data-name="Trazado 287346" d="M58.919,177.844c-.144-.036-7.236-4.134-7.236-4.134a.288.288,0,0,1-.108-.392.291.291,0,0,1,.392-.1l7.1,4.095a.287.287,0,0,1-.144.536Z" transform="translate(-51.506 -138.064)" fill="#fff"/>
                <path id="Trazado_287347" data-name="Trazado 287347" d="M58.919,176.7c-.144-.04-7.236-4.135-7.236-4.135a.285.285,0,0,1-.108-.392.293.293,0,0,1,.392-.108l7.1,4.1a.288.288,0,0,1,.1.392A.284.284,0,0,1,58.919,176.7Z" transform="translate(-51.51 -141.504)" fill="#fff"/>
                <path id="Trazado_287348" data-name="Trazado 287348" d="M58.919,175.554c-.144-.036-7.24-4.134-7.24-4.134a.287.287,0,0,1,.288-.5l7.1,4.095a.288.288,0,0,1,.1.392A.284.284,0,0,1,58.919,175.554Z" transform="translate(-51.513 -144.943)" fill="#fff"/>
                <path id="Trazado_287349" data-name="Trazado 287349" d="M58.918,174.407c-.144-.036-7.24-4.134-7.24-4.134a.286.286,0,0,1-.1-.392.291.291,0,0,1,.392-.1l7.092,4.1a.284.284,0,0,1,.108.392A.3.3,0,0,1,58.918,174.407Z" transform="translate(-51.516 -148.383)" fill="#fff"/>
                <path id="Trazado_287350" data-name="Trazado 287350" d="M58.913,173.264c-.14-.04-7.236-4.134-7.236-4.134a.288.288,0,0,1-.1-.392.293.293,0,0,1,.392-.108l7.092,4.1a.289.289,0,0,1,.108.392A.3.3,0,0,1,58.913,173.264Z" transform="translate(-51.519 -151.823)" fill="#fff"/>
                <path id="Trazado_287351" data-name="Trazado 287351" d="M58.912,172.117c-.144-.036-7.236-4.134-7.236-4.134a.287.287,0,1,1,.288-.5l7.092,4.094a.287.287,0,0,1-.144.536Z" transform="translate(-51.522 -155.263)" fill="#fff"/>
                <path id="Trazado_287352" data-name="Trazado 287352" d="M58.912,170.971c-.144-.036-7.236-4.135-7.236-4.135a.286.286,0,1,1,.284-.5l7.1,4.1a.287.287,0,0,1,.1.392A.28.28,0,0,1,58.912,170.971Z" transform="translate(-51.527 -158.703)" fill="#fff"/>
                <path id="Trazado_287353" data-name="Trazado 287353" d="M58.911,169.827c-.144-.036-7.24-4.134-7.24-4.134a.291.291,0,0,1-.1-.392.284.284,0,0,1,.392-.1l7.1,4.095a.288.288,0,0,1,.1.392A.284.284,0,0,1,58.911,169.827Z" transform="translate(-51.53 -162.142)" fill="#fff"/>
                <path id="Trazado_287354" data-name="Trazado 287354" d="M53.6,168.763a.287.287,0,0,1-.144-.536l3.374-1.945a.287.287,0,0,1,.288.5l-3.374,1.949A.308.308,0,0,1,53.6,168.763Z" transform="translate(-46.178 -158.881)" fill="#fff"/>
                <path id="Trazado_287355" data-name="Trazado 287355" d="M51.823,167.716a.294.294,0,0,1-.248-.144.289.289,0,0,1,.108-.392l3.374-1.949a.288.288,0,1,1,.284.5l-3.374,1.945A.261.261,0,0,1,51.823,167.716Z" transform="translate(-51.506 -162.029)" fill="#fff"/>
                <path id="Trazado_287356" data-name="Trazado 287356" d="M53.6,173.329a.288.288,0,0,1-.144-.536l3.374-1.949a.292.292,0,0,1,.392.108.288.288,0,0,1-.1.392l-3.374,1.945A.271.271,0,0,1,53.6,173.329Z" transform="translate(-46.178 -145.173)" fill="#fff"/>
                <path id="Trazado_287357" data-name="Trazado 287357" d="M51.823,172.28a.3.3,0,0,1-.248-.14.293.293,0,0,1,.108-.4l3.374-1.945a.286.286,0,1,1,.284.5l-3.374,1.949A.3.3,0,0,1,51.823,172.28Z" transform="translate(-51.506 -148.321)" fill="#fff"/>
                <path id="Trazado_287358" data-name="Trazado 287358" d="M53.6,177.892a.287.287,0,0,1-.144-.536l3.374-1.945a.291.291,0,0,1,.392.1.287.287,0,0,1-.1.392l-3.374,1.949A.307.307,0,0,1,53.6,177.892Z" transform="translate(-46.178 -131.464)" fill="#fff"/>
                <path id="Trazado_287359" data-name="Trazado 287359" d="M51.823,176.847a.294.294,0,0,1-.248-.144.289.289,0,0,1,.108-.392l3.374-1.949a.294.294,0,0,1,.392.108.289.289,0,0,1-.108.392l-3.374,1.949A.3.3,0,0,1,51.823,176.847Z" transform="translate(-51.506 -134.613)" fill="#fff"/>
              </g>
              <g id="Grupo_575700" data-name="Grupo 575700" transform="translate(0.006 80.983)">
                <g id="Grupo_575698" data-name="Grupo 575698" transform="translate(0.005)">
                  <path id="Trazado_287360" data-name="Trazado 287360" d="M51.531,173.535l0,48.721a.286.286,0,0,0,.572,0V173.535Z" transform="translate(-51.531 -173.535)" fill="#fff"/>
                </g>
                <g id="Grupo_575699" data-name="Grupo 575699" transform="translate(7.137 3.662)">
                  <path id="Trazado_287361" data-name="Trazado 287361" d="M53.313,174.45v49.174a.286.286,0,0,0,.572,0V174.45Z" transform="translate(-53.313 -174.45)" fill="#fff"/>
                </g>
                <path id="Trazado_287362" data-name="Trazado 287362" d="M58.924,189.272c-.144-.04-7.24-4.135-7.24-4.135a.289.289,0,0,1,.288-.5l7.092,4.1a.288.288,0,0,1,.108.392A.294.294,0,0,1,58.924,189.272Z" transform="translate(-51.498 -140.314)" fill="#fff"/>
                <path id="Trazado_287363" data-name="Trazado 287363" d="M58.92,188.124c-.144-.04-7.236-4.134-7.236-4.134a.286.286,0,1,1,.284-.5l7.1,4.094a.288.288,0,0,1,.1.392A.284.284,0,0,1,58.92,188.124Z" transform="translate(-51.503 -143.753)" fill="#fff"/>
                <path id="Trazado_287364" data-name="Trazado 287364" d="M58.919,186.978c-.144-.036-7.236-4.135-7.236-4.135a.286.286,0,1,1,.284-.5l7.1,4.094a.287.287,0,0,1-.144.536Z" transform="translate(-51.506 -147.194)" fill="#fff"/>
                <path id="Trazado_287365" data-name="Trazado 287365" d="M58.919,185.835c-.144-.04-7.236-4.135-7.236-4.135a.288.288,0,1,1,.284-.5l7.1,4.1a.288.288,0,0,1,.1.392A.284.284,0,0,1,58.919,185.835Z" transform="translate(-51.51 -150.633)" fill="#fff"/>
                <path id="Trazado_287366" data-name="Trazado 287366" d="M58.919,184.687c-.144-.04-7.24-4.135-7.24-4.135a.287.287,0,0,1,.288-.5l7.1,4.095a.288.288,0,0,1,.1.392A.284.284,0,0,1,58.919,184.687Z" transform="translate(-51.513 -154.072)" fill="#fff"/>
                <path id="Trazado_287367" data-name="Trazado 287367" d="M58.918,183.541c-.144-.036-7.24-4.134-7.24-4.134a.287.287,0,0,1,.288-.5L59.058,183a.289.289,0,0,1,.108.4A.3.3,0,0,1,58.918,183.541Z" transform="translate(-51.516 -157.513)" fill="#fff"/>
                <path id="Trazado_287368" data-name="Trazado 287368" d="M58.913,182.4c-.14-.04-7.236-4.134-7.236-4.134a.289.289,0,0,1,.288-.5l7.092,4.1a.289.289,0,0,1,.108.392A.3.3,0,0,1,58.913,182.4Z" transform="translate(-51.519 -160.953)" fill="#fff"/>
                <path id="Trazado_287369" data-name="Trazado 287369" d="M58.912,181.25c-.144-.04-7.236-4.134-7.236-4.134a.287.287,0,1,1,.288-.5l7.092,4.095a.287.287,0,0,1-.144.536Z" transform="translate(-51.522 -164.392)" fill="#fff"/>
                <path id="Trazado_287370" data-name="Trazado 287370" d="M58.912,180.1c-.144-.036-7.236-4.135-7.236-4.135a.286.286,0,1,1,.284-.5l7.1,4.094a.287.287,0,0,1-.144.536Z" transform="translate(-51.527 -167.833)" fill="#fff"/>
                <path id="Trazado_287371" data-name="Trazado 287371" d="M58.911,178.961c-.144-.04-7.24-4.134-7.24-4.134a.3.3,0,0,1-.1-.4.291.291,0,0,1,.392-.1l7.1,4.1a.288.288,0,0,1,.1.392A.284.284,0,0,1,58.911,178.961Z" transform="translate(-51.53 -171.272)" fill="#fff"/>
                <path id="Trazado_287372" data-name="Trazado 287372" d="M53.6,177.9a.288.288,0,0,1-.144-.536l3.374-1.945a.287.287,0,1,1,.288.5l-3.374,1.945A.27.27,0,0,1,53.6,177.9Z" transform="translate(-46.178 -168.01)" fill="#fff"/>
                <path id="Trazado_287373" data-name="Trazado 287373" d="M51.823,176.851a.294.294,0,0,1-.248-.144.288.288,0,0,1,.108-.392l3.374-1.949a.289.289,0,0,1,.392.1.293.293,0,0,1-.108.4l-3.374,1.945A.3.3,0,0,1,51.823,176.851Z" transform="translate(-51.506 -171.159)" fill="#fff"/>
                <path id="Trazado_287374" data-name="Trazado 287374" d="M53.6,182.463a.288.288,0,0,1-.144-.536l3.374-1.949a.289.289,0,0,1,.288.5l-3.374,1.945A.271.271,0,0,1,53.6,182.463Z" transform="translate(-46.178 -154.302)" fill="#fff"/>
                <path id="Trazado_287375" data-name="Trazado 287375" d="M51.823,181.413a.294.294,0,0,1-.248-.144.289.289,0,0,1,.108-.392l3.374-1.945a.286.286,0,1,1,.284.5l-3.374,1.949A.3.3,0,0,1,51.823,181.413Z" transform="translate(-51.506 -157.45)" fill="#fff"/>
                <path id="Trazado_287376" data-name="Trazado 287376" d="M53.6,187.027a.287.287,0,0,1-.144-.536l3.374-1.945a.287.287,0,0,1,.288.5l-3.374,1.949A.307.307,0,0,1,53.6,187.027Z" transform="translate(-46.178 -140.595)" fill="#fff"/>
                <path id="Trazado_287377" data-name="Trazado 287377" d="M51.823,185.98a.294.294,0,0,1-.248-.144.289.289,0,0,1,.108-.392l3.374-1.949a.288.288,0,1,1,.284.5l-3.374,1.945A.261.261,0,0,1,51.823,185.98Z" transform="translate(-51.506 -143.743)" fill="#fff"/>
              </g>
              <g id="Grupo_575703" data-name="Grupo 575703" transform="translate(0.006 117.537)">
                <g id="Grupo_575701" data-name="Grupo 575701" transform="translate(0.005)">
                  <path id="Trazado_287378" data-name="Trazado 287378" d="M51.531,182.668l0,48.717a.286.286,0,1,0,.572,0V182.668Z" transform="translate(-51.531 -182.668)" fill="#fff"/>
                </g>
                <g id="Grupo_575702" data-name="Grupo 575702" transform="translate(7.137 3.662)">
                  <path id="Trazado_287379" data-name="Trazado 287379" d="M53.313,183.583v49.17a.286.286,0,1,0,.572,0v-49.17Z" transform="translate(-53.313 -183.583)" fill="#fff"/>
                </g>
                <path id="Trazado_287380" data-name="Trazado 287380" d="M58.924,198.4c-.144-.036-7.24-4.135-7.24-4.135a.287.287,0,1,1,.288-.5l7.092,4.1a.287.287,0,0,1,.108.392A.3.3,0,0,1,58.924,198.4Z" transform="translate(-51.498 -149.448)" fill="#fff"/>
                <path id="Trazado_287381" data-name="Trazado 287381" d="M58.92,197.254c-.144-.036-7.236-4.13-7.236-4.13a.289.289,0,0,1-.108-.392.294.294,0,0,1,.392-.108l7.1,4.1a.287.287,0,0,1,.1.392A.28.28,0,0,1,58.92,197.254Z" transform="translate(-51.503 -152.887)" fill="#fff"/>
                <path id="Trazado_287382" data-name="Trazado 287382" d="M58.919,196.111c-.144-.036-7.236-4.135-7.236-4.135a.286.286,0,1,1,.284-.5l7.1,4.094a.288.288,0,0,1,.1.392A.284.284,0,0,1,58.919,196.111Z" transform="translate(-51.506 -156.327)" fill="#fff"/>
                <path id="Trazado_287383" data-name="Trazado 287383" d="M58.919,194.964c-.144-.036-7.236-4.135-7.236-4.135a.284.284,0,0,1-.108-.392.291.291,0,0,1,.392-.1l7.1,4.1a.286.286,0,0,1,.1.392A.28.28,0,0,1,58.919,194.964Z" transform="translate(-51.51 -159.766)" fill="#fff"/>
                <path id="Trazado_287384" data-name="Trazado 287384" d="M58.919,193.821c-.144-.04-7.24-4.134-7.24-4.134a.288.288,0,0,1-.1-.392.293.293,0,0,1,.392-.108l7.1,4.1a.288.288,0,0,1-.144.536Z" transform="translate(-51.513 -163.206)" fill="#fff"/>
                <path id="Trazado_287385" data-name="Trazado 287385" d="M58.918,192.674c-.144-.036-7.24-4.135-7.24-4.135a.287.287,0,0,1,.288-.5l7.092,4.094a.285.285,0,0,1,.108.392A.294.294,0,0,1,58.918,192.674Z" transform="translate(-51.516 -166.646)" fill="#fff"/>
                <path id="Trazado_287386" data-name="Trazado 287386" d="M58.913,191.527c-.14-.036-7.236-4.131-7.236-4.131a.289.289,0,0,1,.288-.5l7.092,4.1a.288.288,0,0,1,.108.392A.291.291,0,0,1,58.913,191.527Z" transform="translate(-51.519 -170.086)" fill="#fff"/>
                <path id="Trazado_287387" data-name="Trazado 287387" d="M58.912,190.383c-.144-.04-7.236-4.134-7.236-4.134a.287.287,0,1,1,.288-.5l7.092,4.094a.287.287,0,0,1-.144.536Z" transform="translate(-51.522 -173.525)" fill="#fff"/>
                <path id="Trazado_287388" data-name="Trazado 287388" d="M58.912,189.237c-.144-.036-7.236-4.134-7.236-4.134a.286.286,0,1,1,.284-.5l7.1,4.094a.288.288,0,0,1,.1.392A.284.284,0,0,1,58.912,189.237Z" transform="translate(-51.527 -176.966)" fill="#fff"/>
                <path id="Trazado_287389" data-name="Trazado 287389" d="M58.911,188.094c-.144-.04-7.24-4.135-7.24-4.135a.3.3,0,0,1-.1-.4.291.291,0,0,1,.392-.1l7.1,4.1a.288.288,0,0,1,.1.392A.284.284,0,0,1,58.911,188.094Z" transform="translate(-51.53 -180.405)" fill="#fff"/>
                <path id="Trazado_287390" data-name="Trazado 287390" d="M53.6,187.03a.288.288,0,0,1-.144-.536l3.374-1.949a.3.3,0,0,1,.392.1.292.292,0,0,1-.1.4l-3.374,1.945A.271.271,0,0,1,53.6,187.03Z" transform="translate(-46.178 -177.144)" fill="#fff"/>
                <path id="Trazado_287391" data-name="Trazado 287391" d="M51.823,185.98a.284.284,0,0,1-.14-.532l3.374-1.949a.286.286,0,1,1,.284.5l-3.374,1.949A.3.3,0,0,1,51.823,185.98Z" transform="translate(-51.506 -180.292)" fill="#fff"/>
                <path id="Trazado_287392" data-name="Trazado 287392" d="M53.6,191.6a.288.288,0,0,1-.144-.536l3.374-1.949a.287.287,0,1,1,.288.5l-3.374,1.949A.313.313,0,0,1,53.6,191.6Z" transform="translate(-46.178 -163.437)" fill="#fff"/>
                <path id="Trazado_287393" data-name="Trazado 287393" d="M51.823,190.547a.294.294,0,0,1-.248-.144.289.289,0,0,1,.108-.392l3.374-1.949a.3.3,0,0,1,.392.1.293.293,0,0,1-.108.4l-3.374,1.945A.262.262,0,0,1,51.823,190.547Z" transform="translate(-51.506 -166.584)" fill="#fff"/>
                <path id="Trazado_287394" data-name="Trazado 287394" d="M53.6,196.16a.288.288,0,0,1-.144-.536l3.374-1.945a.287.287,0,0,1,.288.5l-3.374,1.949A.307.307,0,0,1,53.6,196.16Z" transform="translate(-46.178 -149.728)" fill="#fff"/>
                <path id="Trazado_287395" data-name="Trazado 287395" d="M51.823,195.113a.294.294,0,0,1-.248-.144.288.288,0,0,1,.108-.392l3.374-1.949a.288.288,0,1,1,.284.5l-3.374,1.945A.261.261,0,0,1,51.823,195.113Z" transform="translate(-51.506 -152.876)" fill="#fff"/>
              </g>
            </g>
            <g id="Grupo_575705" data-name="Grupo 575705" transform="translate(17.684)">
              <path id="Trazado_287396" data-name="Trazado 287396" d="M138.487,238.043c-17.475,0-35.041-2.862-50.411-8.721a.31.31,0,1,1,.22-.58c36.118,13.772,84.451,10.915,114.926-6.8,17.094-9.93,26.5-23.122,26.48-37.142-.02-14.117-9.574-27.4-26.9-37.407-35.77-20.653-93.785-20.648-129.322,0-16.162,9.39-25.539,21.849-26.412,35.081-.8,12.055,5.627,24.007,18.1,33.644a.312.312,0,0,1,.056.436.317.317,0,0,1-.436.056c-12.636-9.77-19.148-21.909-18.339-34.177.885-13.448,10.374-26.08,26.72-35.577,35.71-20.753,94-20.753,129.947,0,17.527,10.122,27.192,23.6,27.212,37.947.016,14.249-9.494,27.633-26.792,37.683C185.884,232.74,162.273,238.043,138.487,238.043Z" transform="translate(-46.376 -131.295)" fill="#3c3c3b"/>
              <path id="Trazado_287397" data-name="Trazado 287397" d="M51.256,157.376a.312.312,0,0,1-.312-.308v-4.283a.312.312,0,1,1,.624,0v4.283A.312.312,0,0,1,51.256,157.376Z" transform="translate(-32.662 -67.71)" fill="#3c3c3b"/>
              <path id="Trazado_287398" data-name="Trazado 287398" d="M47.135,152.074a.309.309,0,0,1-.312-.308v-4.283a.312.312,0,0,1,.624,0v4.283A.309.309,0,0,1,47.135,152.074Z" transform="translate(-45.035 -83.629)" fill="#3c3c3b"/>
              <path id="Trazado_287399" data-name="Trazado 287399" d="M47.135,146.776a.313.313,0,0,1-.312-.312v-4.283a.312.312,0,1,1,.624,0v4.283A.313.313,0,0,1,47.135,146.776Z" transform="translate(-45.035 -99.548)" fill="#3c3c3b"/>
              <path id="Trazado_287400" data-name="Trazado 287400" d="M50.041,142.5a.309.309,0,0,1-.308-.312v-4.279a.309.309,0,0,1,.308-.312.313.313,0,0,1,.312.312v4.279A.313.313,0,0,1,50.041,142.5Z" transform="translate(-36.298 -112.359)" fill="#3c3c3b"/>
              <path id="Trazado_287401" data-name="Trazado 287401" d="M55.411,139.09a.313.313,0,0,1-.312-.312V134.5a.312.312,0,0,1,.624,0v4.283A.313.313,0,0,1,55.411,139.09Z" transform="translate(-20.187 -122.612)" fill="#3c3c3b"/>
              <path id="Trazado_287402" data-name="Trazado 287402" d="M62.685,136.86a.309.309,0,0,1-.312-.308v-4.283a.312.312,0,1,1,.624,0v4.283A.309.309,0,0,1,62.685,136.86Z" transform="translate(1.653 -129.308)" fill="#3c3c3b"/>
              <path id="Trazado_287403" data-name="Trazado 287403" d="M71.532,136.329a.313.313,0,0,1-.312-.312v-4.283a.312.312,0,1,1,.624,0v4.283A.313.313,0,0,1,71.532,136.329Z" transform="translate(28.215 -130.914)" fill="#3c3c3b"/>
              <path id="Trazado_287404" data-name="Trazado 287404" d="M79.485,137.514a.313.313,0,0,1-.312-.312v-4.283a.312.312,0,0,1,.624,0V137.2A.313.313,0,0,1,79.485,137.514Z" transform="translate(52.094 -127.344)" fill="#3c3c3b"/>
              <path id="Trazado_287405" data-name="Trazado 287405" d="M85.3,139.906a.313.313,0,0,1-.312-.312v-4.279a.312.312,0,0,1,.624,0v4.279A.313.313,0,0,1,85.3,139.906Z" transform="translate(69.565 -120.163)" fill="#3c3c3b"/>
              <path id="Trazado_287406" data-name="Trazado 287406" d="M90.433,144.069a.313.313,0,0,1-.312-.312v-4.282a.312.312,0,1,1,.624,0v4.282A.313.313,0,0,1,90.433,144.069Z" transform="translate(84.964 -107.675)" fill="#3c3c3b"/>
              <path id="Trazado_287407" data-name="Trazado 287407" d="M92.491,150.019a.313.313,0,0,1-.312-.312v-4.283a.312.312,0,0,1,.624,0v4.283A.313.313,0,0,1,92.491,150.019Z" transform="translate(91.143 -89.799)" fill="#3c3c3b"/>
              <path id="Trazado_287408" data-name="Trazado 287408" d="M89.922,155.692a.313.313,0,0,1-.312-.312V151.1a.31.31,0,1,1,.62,0v4.279A.312.312,0,0,1,89.922,155.692Z" transform="translate(83.43 -72.766)" fill="#3c3c3b"/>
              <path id="Trazado_287409" data-name="Trazado 287409" d="M83.321,160.138a.313.313,0,0,1-.312-.312v-4.283a.312.312,0,1,1,.624,0v4.283A.313.313,0,0,1,83.321,160.138Z" transform="translate(63.611 -59.429)" fill="#3c3c3b"/>
              <path id="Trazado_287410" data-name="Trazado 287410" d="M74.007,162.608a.309.309,0,0,1-.308-.312v-4.279a.309.309,0,0,1,.308-.312.313.313,0,0,1,.312.312V162.3A.313.313,0,0,1,74.007,162.608Z" transform="translate(35.658 -52.001)" fill="#3c3c3b"/>
              <path id="Trazado_287411" data-name="Trazado 287411" d="M65.106,162.414a.312.312,0,0,1-.308-.312v-4.279a.31.31,0,1,1,.62,0V162.1A.313.313,0,0,1,65.106,162.414Z" transform="translate(8.934 -52.584)" fill="#3c3c3b"/>
              <path id="Trazado_287412" data-name="Trazado 287412" d="M57.06,160.446a.309.309,0,0,1-.312-.308v-4.283a.309.309,0,0,1,.312-.308.306.306,0,0,1,.308.308v4.283A.306.306,0,0,1,57.06,160.446Z" transform="translate(-15.236 -58.481)" fill="#3c3c3b"/>
            </g>
            <g id="Grupo_575726" data-name="Grupo 575726" transform="translate(165.564 196.415)">
              <g id="Grupo_575713" data-name="Grupo 575713" transform="translate(50.525 90.873)">
                <g id="Grupo_575709" data-name="Grupo 575709">
                  <g id="Grupo_575708" data-name="Grupo 575708" style="isolation: isolate">
                    <g id="Grupo_575706" data-name="Grupo 575706" transform="translate(0.002 8.414)">
                      <path id="Trazado_287413" data-name="Trazado 287413" d="M95.948,205.26l.008,3.478c.008,2.149,1.417,4.3,4.243,5.94,5.683,3.3,14.929,3.3,20.649,0,2.878-1.665,4.319-3.846,4.311-6.024l-.008-3.478c0,2.181-1.433,4.363-4.315,6.024-5.715,3.3-14.961,3.306-20.648,0C97.365,209.559,95.952,207.413,95.948,205.26Z" transform="translate(-95.948 -205.176)" fill="#575756"/>
                    </g>
                    <g id="Grupo_575707" data-name="Grupo 575707">
                      <path id="Trazado_287414" data-name="Trazado 287414" d="M100.256,205.552c-5.719,3.3-5.748,8.657-.068,11.959s14.933,3.3,20.648,0,5.755-8.657.068-11.959S105.98,202.246,100.256,205.552Z" transform="translate(-95.947 -203.074)" fill="#fff"/>
                    </g>
                  </g>
                </g>
                <g id="Grupo_575712" data-name="Grupo 575712" transform="translate(4.459 3.326)">
                  <g id="Grupo_575710" data-name="Grupo 575710">
                    <path id="Trazado_287415" data-name="Trazado 287415" d="M100.065,205.415c-3.986,2.009-4.006,5.267-.048,7.28a17.943,17.943,0,0,0,14.389,0c3.986-2.013,4.01-5.271.048-7.28A17.9,17.9,0,0,0,100.065,205.415Z" transform="translate(-97.062 -203.905)" fill="#a62338"/>
                  </g>
                  <g id="Grupo_575711" data-name="Grupo 575711">
                    <path id="Trazado_287416" data-name="Trazado 287416" d="M100.065,205.415c-3.986,2.009-4.006,5.267-.048,7.28a17.943,17.943,0,0,0,14.389,0c3.986-2.013,4.01-5.271.048-7.28A17.9,17.9,0,0,0,100.065,205.415Z" transform="translate(-97.062 -203.905)" fill="#c6c6c6"/>
                  </g>
                </g>
              </g>
              <g id="Grupo_575721" data-name="Grupo 575721">
                <g id="Grupo_575717" data-name="Grupo 575717">
                  <g id="Grupo_575716" data-name="Grupo 575716" style="isolation: isolate">
                    <g id="Grupo_575714" data-name="Grupo 575714">
                      <path id="Trazado_287417" data-name="Trazado 287417" d="M103.929,182.782l-3.018-1.729c-1.865-1.069-4.431-.921-7.26.7-5.707,3.274-10.326,11.279-10.326,17.883,0,3.326,1.169,5.663,3.058,6.744l3.018,1.733c-1.889-1.085-3.058-3.422-3.058-6.748,0-6.6,4.619-14.609,10.322-17.883C99.5,181.865,102.063,181.713,103.929,182.782Z" transform="translate(-83.324 -180.369)" fill="#c6c6c6"/>
                    </g>
                    <g id="Grupo_575715" data-name="Grupo 575715" transform="translate(3.018 1.729)">
                      <path id="Trazado_287418" data-name="Trazado 287418" d="M104.727,188.229c0-6.6-4.627-9.31-10.326-6.04s-10.322,11.283-10.322,17.883,4.619,9.314,10.322,6.04S104.727,194.837,104.727,188.229Z" transform="translate(-84.078 -180.801)" fill="#575756"/>
                    </g>
                  </g>
                </g>
                <g id="Grupo_575720" data-name="Grupo 575720" transform="translate(6.556 5.911)">
                  <g id="Grupo_575718" data-name="Grupo 575718">
                    <path id="Trazado_287419" data-name="Trazado 287419" d="M98.454,186.645c.252-4.455-2.562-6.1-6.284-3.682a17.916,17.916,0,0,0-7.192,12.464c-.252,4.459,2.558,6.1,6.28,3.678A17.9,17.9,0,0,0,98.454,186.645Z" transform="translate(-84.962 -181.846)" fill="#a62338"/>
                  </g>
                  <g id="Grupo_575719" data-name="Grupo 575719">
                    <path id="Trazado_287420" data-name="Trazado 287420" d="M98.454,186.645c.252-4.455-2.562-6.1-6.284-3.682a17.916,17.916,0,0,0-7.192,12.464c-.252,4.459,2.558,6.1,6.28,3.678A17.9,17.9,0,0,0,98.454,186.645Z" transform="translate(-84.962 -181.846)" fill="#c6c6c6"/>
                  </g>
                </g>
              </g>
              <path id="Trazado_287421" data-name="Trazado 287421" d="M132.169,275.015h20.348V246.95c0-18.011-12.219-39.176-27.817-48.181L95.543,181.935,85.369,199.558l29.158,16.834c9.4,5.427,17.643,19.7,17.643,30.559Z" transform="translate(-77.184 -175.668)" fill="#c6c6c6"/>
              <g id="Grupo_575722" data-name="Grupo 575722" transform="translate(54.985 81.588)">
                <path id="Trazado_287422" data-name="Trazado 287422" d="M97.062,200.754c-.008,1.509.977,3.018,2.954,4.167a15.845,15.845,0,0,0,14.389,0c1.993-1.153,3-2.658,3.006-4.167v6.108c-.008,1.509-1.013,3.018-3.006,4.167a15.856,15.856,0,0,1-14.389,0c-1.977-1.149-2.962-2.658-2.954-4.167Z" transform="translate(-97.062 -200.754)" fill="#d04158"/>
              </g>
              <g id="Grupo_575723" data-name="Grupo 575723" transform="translate(54.985 72.143)">
                <path id="Trazado_287423" data-name="Trazado 287423" d="M97.062,198.394c-.008,1.509.977,3.018,2.954,4.167a15.844,15.844,0,0,0,14.389,0c1.993-1.149,3-2.657,3.006-4.167V204.5c-.008,1.509-1.013,3.018-3.006,4.171a15.869,15.869,0,0,1-14.389,0c-1.977-1.153-2.962-2.662-2.954-4.171Z" transform="translate(-97.062 -198.394)" fill="#d04158"/>
              </g>
              <g id="Grupo_575724" data-name="Grupo 575724" transform="translate(16.538 11.815)">
                <path id="Trazado_287424" data-name="Trazado 287424" d="M105.023,186.866c-1.3-.76-3.1-.664-5.087.476A15.846,15.846,0,0,0,92.743,199.8c0,2.3.8,3.922,2.105,4.687l-5.287-3.054c-1.3-.764-2.105-2.385-2.105-4.687a15.846,15.846,0,0,1,7.192-12.46c1.985-1.141,3.782-1.237,5.087-.476Z" transform="translate(-87.456 -183.321)" fill="#d04158"/>
              </g>
              <g id="Grupo_575725" data-name="Grupo 575725" transform="translate(24.715 16.538)">
                <path id="Trazado_287425" data-name="Trazado 287425" d="M107.07,188.046c-1.3-.76-3.1-.664-5.087.476a15.846,15.846,0,0,0-7.192,12.46c0,2.3.8,3.922,2.105,4.683L91.6,202.611c-1.3-.76-2.105-2.381-2.105-4.683a15.839,15.839,0,0,1,7.2-12.46c1.985-1.141,3.782-1.237,5.083-.476Z" transform="translate(-89.499 -184.501)" fill="#d04158"/>
              </g>
            </g>
          </g>
        </g>
      </g>
    </g>
  </g>
</svg>
