<svg xmlns="http://www.w3.org/2000/svg" xmlns:xlink="http://www.w3.org/1999/xlink" width="325.776" height="326.584" viewBox="0 0 325.776 326.584">
  <defs>
    <clipPath id="clip-path">
      <rect id="Rectángulo_207353" data-name="Rectángulo 207353" width="325.776" height="326.584" fill="none"/>
    </clipPath>
    <clipPath id="clip-path-2">
      <rect id="Rectángulo_207352" data-name="Rectángulo 207352" width="325.776" height="326.584" fill="#cc8686"/>
    </clipPath>
    <clipPath id="clip-path-3">
      <rect id="Rectángulo_207320" data-name="Rectángulo 207320" width="151.982" height="226.739" fill="none"/>
    </clipPath>
    <clipPath id="clip-path-4">
      <rect id="Rectángulo_207321" data-name="Rectángulo 207321" width="45.995" height="23.803" fill="none"/>
    </clipPath>
    <clipPath id="clip-path-5">
      <rect id="Rectángulo_207323" data-name="Rectángulo 207323" width="20.767" height="20.767" fill="none"/>
    </clipPath>
    <clipPath id="clip-path-7">
      <rect id="Rectángulo_207325" data-name="Rectángulo 207325" width="20.766" height="20.767" fill="none"/>
    </clipPath>
    <clipPath id="clip-path-13">
      <rect id="Rectángulo_207334" data-name="Rectángulo 207334" width="20.767" height="20.766" fill="none"/>
    </clipPath>
    <clipPath id="clip-path-19">
      <rect id="Rectángulo_207345" data-name="Rectángulo 207345" width="15.389" height="3.163" fill="none"/>
    </clipPath>
    <clipPath id="clip-path-20">
      <rect id="Rectángulo_207346" data-name="Rectángulo 207346" width="2.059" height="2.051" fill="none"/>
    </clipPath>
    <clipPath id="clip-path-21">
      <rect id="Rectángulo_207347" data-name="Rectángulo 207347" width="26.52" height="2.135" fill="none"/>
    </clipPath>
    <clipPath id="clip-path-22">
      <rect id="Rectángulo_207348" data-name="Rectángulo 207348" width="13.114" height="2.692" fill="none"/>
    </clipPath>
    <clipPath id="clip-path-23">
      <rect id="Rectángulo_207349" data-name="Rectángulo 207349" width="8.592" height="29.702" fill="none"/>
    </clipPath>
    <clipPath id="clip-path-24">
      <rect id="Rectángulo_207351" data-name="Rectángulo 207351" width="11.824" height="13.738" fill="none"/>
    </clipPath>
  </defs>
  <g id="Grupo_572615" data-name="Grupo 572615" clip-path="url(#clip-path)">
    <g id="Grupo_572614" data-name="Grupo 572614">
      <g id="Grupo_572613" data-name="Grupo 572613" clip-path="url(#clip-path-2)">
        <path id="Trazado_281436" data-name="Trazado 281436" d="M328.221,213.9a6.5,6.5,0,0,1-1.894.975,8.551,8.551,0,0,1-5.762-.073,8.664,8.664,0,0,1-3.37-2.238,8.806,8.806,0,0,1-2.149-4.117,8.809,8.809,0,0,1,.421-5.11,8.771,8.771,0,0,1,8.862-5.534,8.824,8.824,0,0,1,4.777,1.866,8.8,8.8,0,0,1,2.755,3.738,8.655,8.655,0,0,1,.531,4.01,8.556,8.556,0,0,1-2.465,5.209,6.5,6.5,0,0,1-1.707,1.273c-.036-.049.64-.421,1.568-1.406a8.566,8.566,0,0,0,2.256-5.108,8.395,8.395,0,0,0-3.219-7.359,8.4,8.4,0,0,0-4.533-1.741,8.33,8.33,0,0,0-8.377,5.23,8.4,8.4,0,0,0-.425,4.836,8.4,8.4,0,0,0,5.2,6.123,8.566,8.566,0,0,0,5.58.217c1.292-.4,1.924-.846,1.952-.792" transform="translate(-84.099 -52.828)" fill="#e0e0e0"/>
        <path id="Trazado_281437" data-name="Trazado 281437" d="M324.227,219.557a1.806,1.806,0,0,1,.225.2l.659.638,2.581,2.544-.1-.012,6.773-4.282-.051.147c-.489-1.383-1.032-2.92-1.612-4.564l-.029-.082.06-.064a19.614,19.614,0,0,0,3-4.23l.045-.086h.1l4.844.008-.172.136,1.788-7.81.1.218-4.366-2.1-.111-.053,0-.124a19.493,19.493,0,0,0-.858-5.1l-.038-.123.092-.091,3.434-3.413-.032.273L336.3,184.8l.27.095-4.57,1.6-.133.047-.1-.1a19.529,19.529,0,0,0-4.2-2.994l-.128-.067v-.144c.006-1.518.012-3.173.019-4.844l.187.237-7.807-1.8.276-.132L318,181.054l-.065.134-.149.005a19.431,19.431,0,0,0-5.084.846h0l-.248-.062,0,0-.007-.007-.013-.013-.027-.027-.053-.054-.108-.108-.214-.216-.429-.432-.855-.863-1.7-1.715.306.036-6.8,4.243.1-.288,1.592,4.572.048.139-.1.107a19.439,19.439,0,0,0-3,4.2l-.067.128h-.145l-4.843-.026.23-.182q-.929,4-1.814,7.8l-.122-.256,4.359,2.113.121.059,0,.133a19.438,19.438,0,0,0,.841,5.1l.038.125-.092.09-3.445,3.4.03-.254,4.229,6.807-.222-.078,4.575-1.582.1-.035.078.073a19.584,19.584,0,0,0,4.208,3.02l.087.046v.1c-.014,1.76-.026,3.345-.038,4.843l-.113-.143,7.8,1.841-.125.059L319,220.381l.021-.043h.048a20.361,20.361,0,0,0,3.9-.479l.945-.227a2,2,0,0,1,.314-.073,2.317,2.317,0,0,1-.3.112c-.205.064-.516.161-.937.267a19,19,0,0,1-3.91.558l.069-.045-2.078,4.375-.038.079-.086-.019-7.815-1.772-.113-.026v-.117c0-1.5,0-3.083.005-4.843l.086.144a19.785,19.785,0,0,1-4.3-3.048l.179.038-4.568,1.6-.142.051-.08-.129L295.94,210l-.087-.139.117-.116,3.433-3.414-.054.214a19.839,19.839,0,0,1-.874-5.209l.125.192-4.364-2.1-.163-.078.041-.177q.876-3.808,1.8-7.807l.042-.183h.188l4.843.018-.212.127a19.868,19.868,0,0,1,3.069-4.306l-.052.246-1.6-4.571-.064-.185.166-.1,6.8-4.246.166-.1.139.14,1.7,1.714.855.863.429.432.214.217.108.108.053.054.027.027.013.014.007.007,0,0c-.5-.124-.137-.034-.247-.062h0a19.879,19.879,0,0,1,5.213-.867l-.213.138,2.108-4.361.085-.177.191.044,7.807,1.81.188.044v.193c-.009,1.672-.018,3.327-.025,4.844l-.127-.212a20.018,20.018,0,0,1,4.3,3.074l-.237-.05,4.573-1.589.173-.06.1.156,4.235,6.8.093.15-.125.124-3.444,3.4.053-.213a19.85,19.85,0,0,1,.858,5.21l-.115-.177,4.357,2.116.141.068-.036.15c-.64,2.738-1.249,5.346-1.823,7.8l-.032.137h-.14l-4.844-.035.144-.086a19.826,19.826,0,0,1-3.072,4.276l.031-.147,1.575,4.578.033.1-.085.052-6.822,4.2-.054.033-.043-.045-2.5-2.58-.64-.673a2.381,2.381,0,0,1-.214-.241" transform="translate(-78.55 -47.093)" fill="#e0e0e0"/>
        <path id="Trazado_281438" data-name="Trazado 281438" d="M341.584,134.066a27.825,27.825,0,0,1-7.286,1.214l-2.979,6.166-11.039-2.553.031-6.848a27.766,27.766,0,0,1-6.014-4.29l-6.464,2.254-6-9.612,4.862-4.819a27.682,27.682,0,0,1-1.213-7.287l-6.167-2.979,2.553-11.037,6.849.03a27.739,27.739,0,0,1,4.291-6.013l-2.254-6.464,9.612-6,4.819,4.863a27.714,27.714,0,0,1,7.286-1.213l2.98-6.167L346.49,75.86l-.031,6.85A27.8,27.8,0,0,1,352.472,87l6.463-2.252,6,9.611-4.863,4.818a27.684,27.684,0,0,1,1.214,7.287l6.167,2.979L364.9,120.481l-6.849-.031a27.765,27.765,0,0,1-4.291,6.013l2.254,6.463-9.611,6Zm-2.2-16.107a12.154,12.154,0,1,0-16.747-3.873,12.155,12.155,0,0,0,16.747,3.873" transform="translate(-79.951 -19.581)" fill="#e0e0e0" fill-rule="evenodd"/>
        <path id="Trazado_281439" data-name="Trazado 281439" d="M384.279,194.244a14.816,14.816,0,0,1-3.875.646l-1.584,3.28-5.873-1.359.016-3.643a14.785,14.785,0,0,1-3.2-2.282l-3.439,1.2-3.192-5.113,2.586-2.564a14.736,14.736,0,0,1-.645-3.876l-3.28-1.585,1.358-5.872,3.643.016a14.782,14.782,0,0,1,2.283-3.2l-1.2-3.439,5.113-3.192,2.564,2.587a14.761,14.761,0,0,1,3.876-.646l1.585-3.281,5.873,1.359-.017,3.644a14.822,14.822,0,0,1,3.2,2.282l3.439-1.2,3.192,5.113-2.586,2.563a14.743,14.743,0,0,1,.646,3.877l3.28,1.585-1.358,5.873L393.04,187a14.739,14.739,0,0,1-2.282,3.2l1.2,3.439-5.113,3.192Zm-1.17-8.569a6.466,6.466,0,1,0-8.91-2.061,6.466,6.466,0,0,0,8.91,2.061" transform="translate(-96.64 -43.251)" fill="#ebebeb" fill-rule="evenodd"/>
        <path id="Trazado_281440" data-name="Trazado 281440" d="M79.914,117.537c.074.075-3.362,3.6-7.675,7.862s-7.87,7.666-7.944,7.591,3.362-3.595,7.676-7.863,7.869-7.665,7.943-7.591" transform="translate(-17.174 -31.395)" fill="#e0e0e0"/>
        <path id="Trazado_281441" data-name="Trazado 281441" d="M79.938,132.967c-.074.075-3.647-3.307-7.98-7.552s-7.787-7.75-7.714-7.826,3.646,3.305,7.981,7.553,7.786,7.75,7.712,7.825" transform="translate(-17.16 -31.409)" fill="#e0e0e0"/>
        <path id="Trazado_281442" data-name="Trazado 281442" d="M99.69,249.864c-.011.1-4.4-.272-9.793-.841s-9.765-1.117-9.754-1.222,4.4.272,9.794.842,9.764,1.116,9.753,1.221" transform="translate(-21.407 -66.186)" fill="#e0e0e0"/>
        <path id="Trazado_281443" data-name="Trazado 281443" d="M98.629,259.909c-.011.1-4.4-.272-9.793-.841s-9.765-1.117-9.754-1.222,4.4.272,9.794.842,9.764,1.116,9.753,1.221" transform="translate(-21.124 -68.869)" fill="#e0e0e0"/>
        <path id="Trazado_281444" data-name="Trazado 281444" d="M25.467,228.571s-5.8-.418-5.269,12.6a150.762,150.762,0,0,0,1.863,19.954s-.171,2.887-2.407,2.32-6.441-3.376-8.518-1.276c-2.154,2.177-1.388,5.518,1.469,9.453s8.8,12.785,9.336,13.588.735,2.265-.849,2.122-12.282-3.768-13.7,1.412,8.345,14.832,9.392,15.908,1.1,1.755.679,2.406-3.906-.907-6.99-1.813-6.82-1.417-7.388,1.639,3.733,12,19.834,21.4l7.746,3.867L38,327.477c15.08-10.964,18.464-20.294,17.594-23.278s-4.536-2.1-7.514-.892-6.286,3.108-6.774,2.5-.5-1.286.435-2.462,9.681-11.756,7.754-16.768-12.208-.333-13.771-.034-1.5-1.191-1.058-2.027c.451-.852,5.481-10.252,7.93-14.453s2.877-7.6.516-9.552c-2.276-1.882-6.18,1.334-8.348,2.122s-2.626-2.068-2.626-2.068a150.772,150.772,0,0,0-.143-20.039c-.77-13.007-6.642-11.957-6.642-11.957" transform="translate(-0.811 -61.049)" fill="#b0c0d2"/>
        <path id="Trazado_281445" data-name="Trazado 281445" d="M34.267,244.488s.015.092.031.272.036.457.062.8c.048.717.118,1.75.208,3.074.178,2.67.405,6.536.669,11.313.532,9.555,1.153,22.76,1.79,37.346s1.224,27.8,1.7,37.354c.243,4.768.439,8.631.576,11.317.066,1.326.117,2.36.152,3.077.014.342.025.608.033.8s0,.273,0,.273-.016-.092-.032-.271-.035-.458-.062-.8c-.049-.716-.119-1.749-.209-3.074-.177-2.67-.406-6.535-.671-11.312-.53-9.555-1.151-22.761-1.788-37.352s-1.225-27.79-1.7-37.347c-.243-4.768-.438-8.631-.575-11.317-.066-1.326-.117-2.36-.152-3.077-.015-.342-.025-.608-.032-.8s0-.273,0-.273" transform="translate(-9.153 -65.306)" fill="#e0e0e0"/>
        <path id="Trazado_281446" data-name="Trazado 281446" d="M21.9,280.108a2.541,2.541,0,0,1,.482.4c.3.27.716.676,1.228,1.181,1.022,1.013,2.4,2.449,3.884,4.061l3.788,4.145,1.153,1.25a2.545,2.545,0,0,1,.4.479,2.572,2.572,0,0,1-.485-.4c-.3-.272-.716-.676-1.223-1.187-1.012-1.023-2.368-2.476-3.854-4.089l-3.817-4.117L22.3,280.59a2.55,2.55,0,0,1-.4-.482" transform="translate(-5.849 -74.82)" fill="#e0e0e0"/>
        <path id="Trazado_281447" data-name="Trazado 281447" d="M37.874,290.721c-.059-.057,2.775-3.024,6.326-6.625s6.48-6.475,6.539-6.417-2.774,3.023-6.328,6.625-6.479,6.475-6.537,6.417" transform="translate(-10.116 -74.171)" fill="#e0e0e0"/>
        <path id="Trazado_281448" data-name="Trazado 281448" d="M37.831,323.016a2.624,2.624,0,0,1,.54-.344l1.515-.85c1.278-.718,3.041-1.716,4.946-2.888s3.6-2.281,4.817-3.1l1.445-.964a2.663,2.663,0,0,1,.551-.326,2.664,2.664,0,0,1-.484.42c-.322.254-.8.613-1.392,1.042-1.19.862-2.869,2.008-4.783,3.179s-3.694,2.147-5,2.819c-.654.333-1.187.6-1.561.768a2.626,2.626,0,0,1-.593.241" transform="translate(-10.105 -84.019)" fill="#e0e0e0"/>
        <path id="Trazado_281449" data-name="Trazado 281449" d="M20.322,315.383a2.275,2.275,0,0,1,.535.251c.336.179.815.446,1.4.781,1.178.67,2.8,1.613,4.575,2.671s3.382,2.03,4.532,2.746c.576.358,1.039.652,1.357.861a2.264,2.264,0,0,1,.476.35,2.237,2.237,0,0,1-.535-.251c-.336-.178-.814-.445-1.4-.78-1.179-.671-2.8-1.614-4.576-2.671s-3.381-2.029-4.531-2.745c-.577-.358-1.04-.652-1.357-.862a2.234,2.234,0,0,1-.476-.35" transform="translate(-5.428 -84.242)" fill="#e0e0e0"/>
        <path id="Trazado_281450" data-name="Trazado 281450" d="M16.848,342.417a3.713,3.713,0,0,1,.682.33l1.8.995c1.516.851,3.6,2.044,5.891,3.377s4.36,2.556,5.849,3.453l1.755,1.076a3.733,3.733,0,0,1,.623.429,3.713,3.713,0,0,1-.682-.33l-1.8-.994c-1.516-.851-3.6-2.045-5.892-3.379s-4.359-2.556-5.848-3.453l-1.756-1.076a3.733,3.733,0,0,1-.623-.429" transform="translate(-4.5 -91.464)" fill="#e0e0e0"/>
        <path id="Trazado_281451" data-name="Trazado 281451" d="M39.049,351.041a4.245,4.245,0,0,1,.674-.451l1.883-1.147c1.589-.968,3.779-2.312,6.156-3.863s4.5-3,6.025-4.068l1.81-1.258a4.269,4.269,0,0,1,.685-.434,4.18,4.18,0,0,1-.616.527c-.408.323-1.007.782-1.756,1.335-1.5,1.108-3.6,2.6-5.985,4.146s-4.594,2.872-6.212,3.8c-.81.46-1.47.824-1.932,1.066a4.231,4.231,0,0,1-.731.351" transform="translate(-10.43 -90.77)" fill="#e0e0e0"/>
        <path id="Trazado_281452" data-name="Trazado 281452" d="M47.124,373.372H25.694l6.995,52.944H40.13Z" transform="translate(-6.863 -99.732)" fill="#727997"/>
        <path id="Trazado_281453" data-name="Trazado 281453" d="M27.211,381.457c-.008.005.023.075.114.188a1.354,1.354,0,0,0,.517.37,2.6,2.6,0,0,0,2.263-.278c.866-.478,1.619-1.415,2.778-1.829a6.081,6.081,0,0,1,3.941.078,16.874,16.874,0,0,1,3.67,1.777,25.4,25.4,0,0,0,2.984,1.6,8.242,8.242,0,0,0,2.2.636,4.012,4.012,0,0,0,.622.043c.142,0,.217-.007.218-.018a11.166,11.166,0,0,1-2.94-.886,29.311,29.311,0,0,1-2.918-1.651,16.272,16.272,0,0,0-3.732-1.836,6.292,6.292,0,0,0-4.159-.045,5.481,5.481,0,0,0-1.565.968,12.207,12.207,0,0,1-1.227.951,2.518,2.518,0,0,1-2.087.362,2.141,2.141,0,0,1-.679-.431" transform="translate(-7.268 -101.309)" fill="#f5f5f5"/>
        <path id="Trazado_281454" data-name="Trazado 281454" d="M28.277,394.141c.029.018.17-.218.5-.568a4.758,4.758,0,0,1,1.711-1.085,7.652,7.652,0,0,1,2.98-.449,31.368,31.368,0,0,1,3.729.508,12.81,12.81,0,0,0,3.818.158,10.489,10.489,0,0,0,3-.857,9.566,9.566,0,0,0,1.807-1.074,2.565,2.565,0,0,0,.572-.515,19.108,19.108,0,0,1-2.478,1.362,10.993,10.993,0,0,1-2.943.764,13.16,13.16,0,0,1-3.725-.184,28.09,28.09,0,0,0-3.775-.484,7.547,7.547,0,0,0-3.082.542,4.5,4.5,0,0,0-1.72,1.223,3.1,3.1,0,0,0-.324.475c-.063.116-.09.179-.08.185" transform="translate(-7.553 -104.242)" fill="#f5f5f5"/>
        <path id="Trazado_281455" data-name="Trazado 281455" d="M45.829,402.141a1.807,1.807,0,0,0-.591-.306,6.3,6.3,0,0,0-1.776-.381,11.35,11.35,0,0,0-2.685.153c-1,.162-2.07.438-3.2.677a13.511,13.511,0,0,1-3.191.361,6.961,6.961,0,0,1-2.534-.548,5.835,5.835,0,0,1-1.922-1.431,1.635,1.635,0,0,0,.362.559,4.529,4.529,0,0,0,1.456,1.1,6.816,6.816,0,0,0,2.623.646,12.9,12.9,0,0,0,3.277-.34c1.137-.242,2.2-.525,3.179-.7a12.265,12.265,0,0,1,2.616-.224,9.855,9.855,0,0,1,2.38.44" transform="translate(-7.996 -107.022)" fill="#f5f5f5"/>
        <path id="Trazado_281456" data-name="Trazado 281456" d="M30.862,412.245a3.476,3.476,0,0,1,2.081-.21,10.031,10.031,0,0,1,2.177.811,8.272,8.272,0,0,0,2.825.778,8.471,8.471,0,0,0,5.127-1.188,7.273,7.273,0,0,0,1.276-.981c.261-.278.4-.438.377-.454a18.639,18.639,0,0,1-1.777,1.222,8.789,8.789,0,0,1-4.971,1.053c-2.029-.116-3.586-1.326-4.992-1.486a3.189,3.189,0,0,0-1.617.14,1.063,1.063,0,0,0-.5.314" transform="translate(-8.243 -109.783)" fill="#f5f5f5"/>
        <path id="Trazado_281457" data-name="Trazado 281457" d="M32.491,425.486a4.108,4.108,0,0,0,1.787-.355c1.077-.36,2.41-1.187,3.968-1.805a6.445,6.445,0,0,1,2.276-.476,4.193,4.193,0,0,1,1.831.418,4.061,4.061,0,0,1,1.324,1.142.975.975,0,0,0-.2-.451,2.939,2.939,0,0,0-1-.909,4.2,4.2,0,0,0-1.943-.522,6.386,6.386,0,0,0-2.406.473c-1.614.643-2.9,1.493-3.933,1.9-1.017.438-1.7.529-1.7.585" transform="translate(-8.679 -112.862)" fill="#f5f5f5"/>
        <path id="Trazado_281458" data-name="Trazado 281458" d="M33.924,433.011a4.981,4.981,0,0,0,1.357.44,24.948,24.948,0,0,0,6.831.671,5.036,5.036,0,0,0,1.417-.168c-.006-.106-2.172-.013-4.821-.28s-4.757-.767-4.783-.664" transform="translate(-9.061 -115.659)" fill="#f5f5f5"/>
        <path id="Trazado_281459" data-name="Trazado 281459" d="M325.776,444.381c0,.106-72.933.191-162.88.191-89.978,0-162.9-.085-162.9-.191s72.918-.191,162.9-.191c89.947,0,162.88.085,162.88.191" transform="translate(0 -118.649)" fill="#263238"/>
        <path id="Trazado_281460" data-name="Trazado 281460" d="M125.6,124.072s2-11.953,2.471-12.863,5.985-6.5,6.636-6.614,9.336-2.842,8.855-1.487-6.573,3.183-6.573,3.183l-.578.728s5.206-1.694,6.5-1.651c1.191.04,1.4,1.277.473,1.634s-5.521,1.694-5.691,1.981,5.109-1.221,5.772-1.193c.892.039,1.54,1.168.628,1.552-.537.226-5.641,1.4-5.641,1.4a45.029,45.029,0,0,1,4.74-.369c.786.213.718,1.165-.144,1.394-.592.157-3.71.29-4.5.5,0,0-.589.5-.567,2.082s-2.03,5.785-2.03,5.785Z" transform="translate(-33.549 -27.441)" fill="#ffbe9d"/>
        <path id="Trazado_281461" data-name="Trazado 281461" d="M146.633,103.282a4.364,4.364,0,0,1-1.278,1.11,10.335,10.335,0,0,1-1.626.892c-.647.243-1.363.489-2.115.75l-1.6.542.086-.053a25.441,25.441,0,0,1-2.965,2.75,25.107,25.107,0,0,1,2.684-3.007l.033-.034.054-.019,1.582-.555,2.1-.712a12.712,12.712,0,0,0,1.612-.79c.888-.517,1.388-.921,1.429-.875" transform="translate(-36.629 -27.587)" fill="#eb996e"/>
        <path id="Trazado_281462" data-name="Trazado 281462" d="M262.708,228.382,144.4,216.195a6.587,6.587,0,0,1-5.877-7.227L159.016,10.075a9.355,9.355,0,0,1,10.265-8.348L282.076,13.347a9.357,9.357,0,0,1,8.348,10.266L269.935,222.5a6.587,6.587,0,0,1-7.227,5.877" transform="translate(-36.993 -0.448)" fill="#e8505b"/>
        <g id="Grupo_572549" data-name="Grupo 572549" transform="translate(101.499 1.23)" opacity="0.4">
          <g id="Grupo_572548" data-name="Grupo 572548">
            <g id="Grupo_572547" data-name="Grupo 572547" clip-path="url(#clip-path-3)">
              <path id="Trazado_281463" data-name="Trazado 281463" d="M262.708,228.382,144.4,216.195a6.587,6.587,0,0,1-5.877-7.227L159.016,10.075a9.355,9.355,0,0,1,10.265-8.348L282.076,13.347a9.357,9.357,0,0,1,8.348,10.266L269.935,222.5a6.587,6.587,0,0,1-7.227,5.877" transform="translate(-138.492 -1.678)"/>
            </g>
          </g>
        </g>
        <path id="Trazado_281464" data-name="Trazado 281464" d="M246.42,226.7l-118.3-12.187a6.587,6.587,0,0,1-5.877-7.227L142.728,8.4A9.356,9.356,0,0,1,152.993.049l112.795,11.62a9.356,9.356,0,0,1,8.348,10.265L253.647,220.827a6.587,6.587,0,0,1-7.227,5.877" transform="translate(-32.642 0)" fill="#e8505b"/>
        <path id="Trazado_281465" data-name="Trazado 281465" d="M191.4,253.509l-40.793-4.2a1.774,1.774,0,0,1-1.582-1.946l1.653-16.053a1.774,1.774,0,0,1,1.947-1.582l40.792,4.2A1.774,1.774,0,0,1,195,235.874l-1.654,16.052a1.773,1.773,0,0,1-1.946,1.582" transform="translate(-39.805 -61.36)" fill="#e8505b"/>
        <g id="Grupo_572552" data-name="Grupo 572552" transform="translate(109.214 168.356)" opacity="0.4">
          <g id="Grupo_572551" data-name="Grupo 572551">
            <g id="Grupo_572550" data-name="Grupo 572550" clip-path="url(#clip-path-4)">
              <path id="Trazado_281466" data-name="Trazado 281466" d="M191.4,253.509l-40.793-4.2a1.774,1.774,0,0,1-1.582-1.946l1.653-16.053a1.774,1.774,0,0,1,1.947-1.582l40.792,4.2A1.774,1.774,0,0,1,195,235.874l-1.654,16.052a1.773,1.773,0,0,1-1.946,1.582" transform="translate(-149.019 -229.716)"/>
            </g>
          </g>
        </g>
        <rect id="Rectángulo_207322" data-name="Rectángulo 207322" width="44.302" height="112.941" transform="matrix(0.102, -0.995, 0.995, 0.102, 113.786, 66.353)" fill="#fafafa"/>
        <path id="Trazado_281467" data-name="Trazado 281467" d="M267.531,85.973s.019-.271.067-.786.124-1.284.221-2.281c.2-2.007.492-4.955.869-8.756.766-7.6,1.875-18.6,3.25-32.259l.119.146L159.713,30.52h-.007l.209-.17c-1.59,15.413-3.127,30.3-4.548,44.068l-.163-.2,80.508,8.38,23.381,2.46,6.261.668,1.62.178c.366.042.557.069.557.069s-.178-.01-.536-.044l-1.6-.153-6.227-.619L235.816,82.8l-80.65-8.222-.182-.018.018-.182c1.416-13.765,2.947-28.657,4.532-44.071l.02-.19.19.02h.007L272.084,41.771l.132.013-.014.132c-1.44,13.684-2.6,24.71-3.4,32.324-.4,3.786-.717,6.722-.932,8.721l-.246,2.254c-.056.506-.092.757-.092.757" transform="translate(-41.398 -8.045)" fill="#263238"/>
        <path id="Trazado_281468" data-name="Trazado 281468" d="M176.3,136.358l-16.06-1.654a1.526,1.526,0,0,1-1.362-1.674l1.655-16.06a1.526,1.526,0,0,1,1.674-1.362l16.06,1.654a1.527,1.527,0,0,1,1.362,1.675L177.977,135a1.524,1.524,0,0,1-1.674,1.36" transform="translate(-42.437 -30.878)" fill="#e8505b"/>
        <g id="Grupo_572555" data-name="Grupo 572555" transform="translate(116.436 84.722)" opacity="0.4">
          <g id="Grupo_572554" data-name="Grupo 572554">
            <g id="Grupo_572553" data-name="Grupo 572553" clip-path="url(#clip-path-5)">
              <path id="Trazado_281469" data-name="Trazado 281469" d="M176.3,136.358l-16.06-1.654a1.526,1.526,0,0,1-1.362-1.674l1.655-16.06a1.526,1.526,0,0,1,1.674-1.362l16.06,1.654a1.527,1.527,0,0,1,1.362,1.675L177.977,135a1.524,1.524,0,0,1-1.674,1.36" transform="translate(-158.873 -115.6)"/>
            </g>
          </g>
        </g>
        <path id="Trazado_281470" data-name="Trazado 281470" d="M172.28,135.944l-16.06-1.655a1.525,1.525,0,0,1-1.362-1.674l1.655-16.06a1.525,1.525,0,0,1,1.674-1.361l16.06,1.654a1.526,1.526,0,0,1,1.362,1.674l-1.655,16.061a1.526,1.526,0,0,1-1.674,1.361" transform="translate(-41.362 -30.768)" fill="#263238"/>
        <path id="Trazado_281471" data-name="Trazado 281471" d="M170.12,123.865l-.82,7.958-1.841-.19.668-6.48-1.592-.164.152-1.478Z" transform="translate(-44.484 -32.992)" fill="#fff"/>
        <path id="Trazado_281472" data-name="Trazado 281472" d="M212.636,140.1l-16.06-1.655a1.525,1.525,0,0,1-1.362-1.674l1.655-16.06a1.525,1.525,0,0,1,1.674-1.361l16.06,1.654a1.526,1.526,0,0,1,1.362,1.674L214.31,138.74a1.526,1.526,0,0,1-1.674,1.361" transform="translate(-52.142 -31.878)" fill="#e8505b"/>
        <g id="Grupo_572558" data-name="Grupo 572558" transform="translate(143.064 87.465)" opacity="0.4">
          <g id="Grupo_572557" data-name="Grupo 572557">
            <g id="Grupo_572556" data-name="Grupo 572556" clip-path="url(#clip-path-5)">
              <path id="Trazado_281473" data-name="Trazado 281473" d="M212.636,140.1l-16.06-1.655a1.525,1.525,0,0,1-1.362-1.674l1.655-16.06a1.525,1.525,0,0,1,1.674-1.361l16.06,1.654a1.526,1.526,0,0,1,1.362,1.674L214.31,138.74a1.526,1.526,0,0,1-1.674,1.361" transform="translate(-195.206 -119.343)"/>
            </g>
          </g>
        </g>
        <path id="Trazado_281474" data-name="Trazado 281474" d="M208.613,139.687l-16.06-1.655a1.525,1.525,0,0,1-1.362-1.674l1.655-16.06a1.525,1.525,0,0,1,1.674-1.361l16.06,1.654a1.526,1.526,0,0,1,1.362,1.674l-1.655,16.061a1.526,1.526,0,0,1-1.674,1.361" transform="translate(-51.067 -31.767)" fill="#263238"/>
        <path id="Trazado_281475" data-name="Trazado 281475" d="M208.53,134.418l-.155,1.5-6.014-.619.123-1.194,3.369-2.583c.773-.6.94-.995.98-1.381.064-.625-.33-1.034-1.17-1.121a1.957,1.957,0,0,0-1.731.627l-1.253-1a3.717,3.717,0,0,1,3.313-1.153c1.773.182,2.862,1.215,2.713,2.658a3.192,3.192,0,0,1-1.589,2.375l-2.009,1.54Z" transform="translate(-54.053 -34.048)" fill="#fff"/>
        <path id="Trazado_281476" data-name="Trazado 281476" d="M250.3,143.982l-16.06-1.655a1.525,1.525,0,0,1-1.362-1.674l1.655-16.06a1.526,1.526,0,0,1,1.674-1.362l16.06,1.655a1.526,1.526,0,0,1,1.362,1.674l-1.655,16.061a1.526,1.526,0,0,1-1.674,1.361" transform="translate(-62.203 -32.914)" fill="#e8505b"/>
        <g id="Grupo_572561" data-name="Grupo 572561" transform="translate(170.67 90.309)" opacity="0.4">
          <g id="Grupo_572560" data-name="Grupo 572560">
            <g id="Grupo_572559" data-name="Grupo 572559" clip-path="url(#clip-path-7)">
              <path id="Trazado_281477" data-name="Trazado 281477" d="M250.3,143.982l-16.06-1.655a1.525,1.525,0,0,1-1.362-1.674l1.655-16.06a1.526,1.526,0,0,1,1.674-1.362l16.06,1.655a1.526,1.526,0,0,1,1.362,1.674l-1.655,16.061a1.526,1.526,0,0,1-1.674,1.361" transform="translate(-232.873 -123.223)"/>
            </g>
          </g>
        </g>
        <path id="Trazado_281478" data-name="Trazado 281478" d="M246.279,143.567l-16.06-1.655a1.525,1.525,0,0,1-1.362-1.674l1.655-16.06a1.526,1.526,0,0,1,1.674-1.362l16.06,1.655a1.526,1.526,0,0,1,1.362,1.674l-1.655,16.06a1.526,1.526,0,0,1-1.674,1.362" transform="translate(-61.129 -32.804)" fill="#263238"/>
        <path id="Trazado_281479" data-name="Trazado 281479" d="M246.11,137.314c-.138,1.342-1.3,2.462-3.56,2.23a5.5,5.5,0,0,1-2.949-1.166l.862-1.336a3.882,3.882,0,0,0,2.2.951c.921.1,1.528-.221,1.595-.869.062-.6-.343-1.024-1.389-1.132l-.841-.086.125-1.217,1.829-1.684-3.388-.35.152-1.478,5.571.574-.123,1.194-2.007,1.861a2.272,2.272,0,0,1,1.925,2.508" transform="translate(-64 -35.039)" fill="#fff"/>
        <path id="Trazado_281480" data-name="Trazado 281480" d="M287.969,147.862l-16.06-1.655a1.525,1.525,0,0,1-1.362-1.674l1.655-16.06a1.526,1.526,0,0,1,1.674-1.362l16.06,1.655a1.527,1.527,0,0,1,1.362,1.674L289.643,146.5a1.526,1.526,0,0,1-1.674,1.361" transform="translate(-72.264 -33.951)" fill="#e8505b"/>
        <g id="Grupo_572564" data-name="Grupo 572564" transform="translate(198.275 93.152)" opacity="0.4">
          <g id="Grupo_572563" data-name="Grupo 572563">
            <g id="Grupo_572562" data-name="Grupo 572562" clip-path="url(#clip-path-7)">
              <path id="Trazado_281481" data-name="Trazado 281481" d="M287.969,147.862l-16.06-1.655a1.525,1.525,0,0,1-1.362-1.674l1.655-16.06a1.526,1.526,0,0,1,1.674-1.362l16.06,1.655a1.527,1.527,0,0,1,1.362,1.674L289.643,146.5a1.526,1.526,0,0,1-1.674,1.361" transform="translate(-270.539 -127.103)"/>
            </g>
          </g>
        </g>
        <path id="Trazado_281482" data-name="Trazado 281482" d="M284.036,147.447l-16.06-1.654a1.526,1.526,0,0,1-1.362-1.675l1.655-16.06a1.525,1.525,0,0,1,1.674-1.361L286,128.351a1.527,1.527,0,0,1,1.362,1.674l-1.655,16.061a1.526,1.526,0,0,1-1.674,1.361" transform="translate(-71.214 -33.84)" fill="#263238"/>
        <rect id="Rectángulo_207327" data-name="Rectángulo 207327" width="0.733" height="8.572" transform="translate(201.391 102.842) rotate(-84.117)" fill="#fff"/>
        <path id="Trazado_281483" data-name="Trazado 281483" d="M282.059,134.99a1.39,1.39,0,1,1-1.24-1.524,1.39,1.39,0,0,1,1.24,1.524" transform="translate(-74.601 -35.648)" fill="#fff"/>
        <path id="Trazado_281484" data-name="Trazado 281484" d="M281.014,145.136a1.39,1.39,0,1,1-1.24-1.524,1.39,1.39,0,0,1,1.24,1.524" transform="translate(-74.322 -38.358)" fill="#fff"/>
        <path id="Trazado_281485" data-name="Trazado 281485" d="M172.371,174.528l-16.06-1.654a1.526,1.526,0,0,1-1.362-1.675l1.655-16.06a1.525,1.525,0,0,1,1.674-1.361l16.06,1.654a1.527,1.527,0,0,1,1.362,1.674l-1.655,16.061a1.526,1.526,0,0,1-1.674,1.361" transform="translate(-41.387 -41.074)" fill="#e8505b"/>
        <g id="Grupo_572567" data-name="Grupo 572567" transform="translate(113.554 112.695)" opacity="0.4">
          <g id="Grupo_572566" data-name="Grupo 572566">
            <g id="Grupo_572565" data-name="Grupo 572565" clip-path="url(#clip-path-5)">
              <path id="Trazado_281486" data-name="Trazado 281486" d="M172.371,174.528l-16.06-1.654a1.526,1.526,0,0,1-1.362-1.675l1.655-16.06a1.525,1.525,0,0,1,1.674-1.361l16.06,1.654a1.527,1.527,0,0,1,1.362,1.674l-1.655,16.061a1.526,1.526,0,0,1-1.674,1.361" transform="translate(-154.941 -153.769)"/>
            </g>
          </g>
        </g>
        <path id="Trazado_281487" data-name="Trazado 281487" d="M168.348,174.113l-16.06-1.655a1.525,1.525,0,0,1-1.362-1.674l1.655-16.06a1.525,1.525,0,0,1,1.674-1.361l16.06,1.654a1.526,1.526,0,0,1,1.362,1.674l-1.655,16.061a1.526,1.526,0,0,1-1.674,1.361" transform="translate(-40.312 -40.963)" fill="#263238"/>
        <path id="Trazado_281488" data-name="Trazado 281488" d="M167.093,168.64l-1.3-.133-.172,1.671-1.8-.185.172-1.672-4.286-.441.127-1.239,4.273-4.661,1.932.2-3.972,4.427,2.137.22.153-1.488,1.739.179-.153,1.489,1.3.133Z" transform="translate(-42.662 -43.267)" fill="#fff"/>
        <path id="Trazado_281489" data-name="Trazado 281489" d="M208.7,178.271l-16.06-1.655a1.525,1.525,0,0,1-1.362-1.674l1.655-16.06a1.526,1.526,0,0,1,1.674-1.362l16.06,1.655a1.526,1.526,0,0,1,1.362,1.674l-1.655,16.06a1.526,1.526,0,0,1-1.674,1.362" transform="translate(-51.092 -42.074)" fill="#e8505b"/>
        <g id="Grupo_572570" data-name="Grupo 572570" transform="translate(140.182 115.438)" opacity="0.4">
          <g id="Grupo_572569" data-name="Grupo 572569">
            <g id="Grupo_572568" data-name="Grupo 572568" clip-path="url(#clip-path-5)">
              <path id="Trazado_281490" data-name="Trazado 281490" d="M208.7,178.271l-16.06-1.655a1.525,1.525,0,0,1-1.362-1.674l1.655-16.06a1.526,1.526,0,0,1,1.674-1.362l16.06,1.655a1.526,1.526,0,0,1,1.362,1.674l-1.655,16.06a1.526,1.526,0,0,1-1.674,1.362" transform="translate(-191.274 -157.512)"/>
            </g>
          </g>
        </g>
        <path id="Trazado_281491" data-name="Trazado 281491" d="M204.681,177.856l-16.06-1.655a1.525,1.525,0,0,1-1.362-1.674l1.655-16.06a1.526,1.526,0,0,1,1.674-1.362l16.06,1.655a1.526,1.526,0,0,1,1.362,1.674l-1.655,16.06a1.526,1.526,0,0,1-1.674,1.362" transform="translate(-50.017 -41.963)" fill="#263238"/>
        <path id="Trazado_281492" data-name="Trazado 281492" d="M203.407,171.443c-.145,1.409-1.306,2.531-3.58,2.3a5.527,5.527,0,0,1-2.947-1.165l.873-1.335a3.844,3.844,0,0,0,2.188.95c.921.1,1.53-.234,1.6-.882.065-.625-.3-1.077-1.746-1.225l-2.035-.21.871-4.437,4.855.5-.152,1.478-3.32-.342-.281,1.5.648.067c2.353.243,3.176,1.4,3.031,2.806" transform="translate(-52.589 -44.19)" fill="#fff"/>
        <path id="Trazado_281493" data-name="Trazado 281493" d="M246.37,182.151,230.31,180.5a1.525,1.525,0,0,1-1.362-1.674l1.655-16.06a1.525,1.525,0,0,1,1.674-1.361l16.06,1.654a1.526,1.526,0,0,1,1.362,1.674l-1.655,16.061a1.526,1.526,0,0,1-1.674,1.361" transform="translate(-61.153 -43.11)" fill="#e8505b"/>
        <g id="Grupo_572573" data-name="Grupo 572573" transform="translate(167.787 118.282)" opacity="0.4">
          <g id="Grupo_572572" data-name="Grupo 572572">
            <g id="Grupo_572571" data-name="Grupo 572571" clip-path="url(#clip-path-5)">
              <path id="Trazado_281494" data-name="Trazado 281494" d="M246.37,182.151,230.31,180.5a1.525,1.525,0,0,1-1.362-1.674l1.655-16.06a1.525,1.525,0,0,1,1.674-1.361l16.06,1.654a1.526,1.526,0,0,1,1.362,1.674l-1.655,16.061a1.526,1.526,0,0,1-1.674,1.361" transform="translate(-228.94 -161.392)"/>
            </g>
          </g>
        </g>
        <path id="Trazado_281495" data-name="Trazado 281495" d="M242.347,181.736l-16.06-1.655a1.525,1.525,0,0,1-1.362-1.674l1.655-16.06a1.526,1.526,0,0,1,1.674-1.362l16.06,1.655a1.527,1.527,0,0,1,1.362,1.674l-1.655,16.061a1.526,1.526,0,0,1-1.674,1.361" transform="translate(-60.078 -42.999)" fill="#263238"/>
        <path id="Trazado_281496" data-name="Trazado 281496" d="M241.856,175.437a2.75,2.75,0,0,1-3.286,2.339c-2.194-.226-3.416-1.742-3.151-4.312.284-2.751,2.1-4.115,4.5-3.868a4.315,4.315,0,0,1,2.16.775l-.822,1.283a2.632,2.632,0,0,0-1.449-.552,2.124,2.124,0,0,0-2.476,2.077,2.7,2.7,0,0,1,2.039-.5,2.538,2.538,0,0,1,2.484,2.761m-1.794-.093a1.207,1.207,0,0,0-1.231-1.333,1.252,1.252,0,0,0-1.5,1.052c-.07.682.391,1.235,1.277,1.326a1.2,1.2,0,0,0,1.453-1.045" transform="translate(-62.874 -45.294)" fill="#fff"/>
        <path id="Trazado_281497" data-name="Trazado 281497" d="M284.036,186.031l-16.06-1.654a1.526,1.526,0,0,1-1.362-1.675l1.655-16.06a1.525,1.525,0,0,1,1.674-1.361L286,166.935a1.527,1.527,0,0,1,1.362,1.674L285.71,184.67a1.526,1.526,0,0,1-1.674,1.361" transform="translate(-71.214 -44.147)" fill="#e8505b"/>
        <g id="Grupo_572576" data-name="Grupo 572576" transform="translate(195.393 121.126)" opacity="0.4">
          <g id="Grupo_572575" data-name="Grupo 572575">
            <g id="Grupo_572574" data-name="Grupo 572574" clip-path="url(#clip-path-7)">
              <path id="Trazado_281498" data-name="Trazado 281498" d="M284.036,186.031l-16.06-1.654a1.526,1.526,0,0,1-1.362-1.675l1.655-16.06a1.525,1.525,0,0,1,1.674-1.361L286,166.935a1.527,1.527,0,0,1,1.362,1.674L285.71,184.67a1.526,1.526,0,0,1-1.674,1.361" transform="translate(-266.607 -165.272)"/>
            </g>
          </g>
        </g>
        <path id="Trazado_281499" data-name="Trazado 281499" d="M280.013,185.617l-16.06-1.655a1.525,1.525,0,0,1-1.362-1.674l1.655-16.06a1.525,1.525,0,0,1,1.674-1.361l16.06,1.654a1.526,1.526,0,0,1,1.362,1.674l-1.655,16.061a1.526,1.526,0,0,1-1.674,1.361" transform="translate(-70.139 -44.036)" fill="#263238"/>
        <rect id="Rectángulo_207332" data-name="Rectángulo 207332" width="8.572" height="0.733" transform="matrix(0.785, -0.619, 0.619, 0.785, 199.235, 133.572)" fill="#fff"/>
        <rect id="Rectángulo_207333" data-name="Rectángulo 207333" width="0.733" height="8.572" transform="translate(199.839 128.112) rotate(-39.126)" fill="#fff"/>
        <path id="Trazado_281500" data-name="Trazado 281500" d="M168.471,212.386l-16.06-1.654a1.526,1.526,0,0,1-1.362-1.675L152.7,193a1.525,1.525,0,0,1,1.674-1.361l16.06,1.654a1.527,1.527,0,0,1,1.362,1.674l-1.655,16.061a1.526,1.526,0,0,1-1.674,1.361" transform="translate(-40.345 -51.186)" fill="#e8505b"/>
        <g id="Grupo_572579" data-name="Grupo 572579" transform="translate(110.696 140.442)" opacity="0.4">
          <g id="Grupo_572578" data-name="Grupo 572578">
            <g id="Grupo_572577" data-name="Grupo 572577" clip-path="url(#clip-path-13)">
              <path id="Trazado_281501" data-name="Trazado 281501" d="M168.471,212.386l-16.06-1.654a1.526,1.526,0,0,1-1.362-1.675L152.7,193a1.525,1.525,0,0,1,1.674-1.361l16.06,1.654a1.527,1.527,0,0,1,1.362,1.674l-1.655,16.061a1.526,1.526,0,0,1-1.674,1.361" transform="translate(-151.041 -191.628)"/>
            </g>
          </g>
        </g>
        <path id="Trazado_281502" data-name="Trazado 281502" d="M164.448,211.972l-16.06-1.655a1.525,1.525,0,0,1-1.362-1.674l1.655-16.06a1.525,1.525,0,0,1,1.674-1.361l16.06,1.654a1.526,1.526,0,0,1,1.362,1.674l-1.655,16.061a1.526,1.526,0,0,1-1.674,1.361" transform="translate(-39.27 -51.076)" fill="#263238"/>
        <path id="Trazado_281503" data-name="Trazado 281503" d="M162.893,199.96l-.123,1.194-3.653,6.46-2-.206,3.519-6.164L158,200.972l-.133,1.3-1.637-.169.288-2.8Z" transform="translate(-41.73 -53.236)" fill="#fff"/>
        <path id="Trazado_281504" data-name="Trazado 281504" d="M204.8,216.129l-16.06-1.654a1.526,1.526,0,0,1-1.362-1.675l1.655-16.06a1.525,1.525,0,0,1,1.674-1.361l16.06,1.654a1.527,1.527,0,0,1,1.362,1.674l-1.655,16.061a1.526,1.526,0,0,1-1.674,1.361" transform="translate(-50.05 -52.186)" fill="#e8505b"/>
        <g id="Grupo_572582" data-name="Grupo 572582" transform="translate(137.324 143.185)" opacity="0.4">
          <g id="Grupo_572581" data-name="Grupo 572581">
            <g id="Grupo_572580" data-name="Grupo 572580" clip-path="url(#clip-path-13)">
              <path id="Trazado_281505" data-name="Trazado 281505" d="M204.8,216.129l-16.06-1.654a1.526,1.526,0,0,1-1.362-1.675l1.655-16.06a1.525,1.525,0,0,1,1.674-1.361l16.06,1.654a1.527,1.527,0,0,1,1.362,1.674l-1.655,16.061a1.526,1.526,0,0,1-1.674,1.361" transform="translate(-187.374 -195.371)"/>
            </g>
          </g>
        </g>
        <path id="Trazado_281506" data-name="Trazado 281506" d="M200.781,215.715l-16.06-1.655a1.525,1.525,0,0,1-1.362-1.674l1.655-16.06a1.526,1.526,0,0,1,1.674-1.362l16.06,1.655a1.527,1.527,0,0,1,1.362,1.674l-1.655,16.061a1.526,1.526,0,0,1-1.674,1.361" transform="translate(-48.975 -52.075)" fill="#263238"/>
        <path id="Trazado_281507" data-name="Trazado 281507" d="M200.294,209.6c-.155,1.5-1.593,2.306-3.616,2.1s-3.245-1.288-3.091-2.789a2.032,2.032,0,0,1,1.4-1.752,1.848,1.848,0,0,1-.753-1.733c.144-1.4,1.486-2.145,3.293-1.958,1.831.188,2.99,1.192,2.847,2.591a1.859,1.859,0,0,1-1.1,1.541,2.025,2.025,0,0,1,1.022,2m-1.858-.249c.073-.705-.462-1.2-1.384-1.291s-1.522.279-1.6.984.45,1.207,1.359,1.3,1.547-.289,1.62-.994m-2.381-3.658c-.062.6.377,1.027,1.127,1.1s1.289-.246,1.351-.849c.064-.625-.4-1.052-1.148-1.129s-1.266.248-1.331.874" transform="translate(-51.706 -54.341)" fill="#fff"/>
        <path id="Trazado_281508" data-name="Trazado 281508" d="M242.47,220.01l-16.06-1.655a1.525,1.525,0,0,1-1.362-1.674l1.655-16.06a1.525,1.525,0,0,1,1.674-1.361l16.06,1.654a1.527,1.527,0,0,1,1.362,1.674l-1.655,16.061a1.526,1.526,0,0,1-1.674,1.361" transform="translate(-60.111 -53.223)" fill="#e8505b"/>
        <g id="Grupo_572585" data-name="Grupo 572585" transform="translate(164.929 146.028)" opacity="0.4">
          <g id="Grupo_572584" data-name="Grupo 572584">
            <g id="Grupo_572583" data-name="Grupo 572583" clip-path="url(#clip-path-5)">
              <path id="Trazado_281509" data-name="Trazado 281509" d="M242.47,220.01l-16.06-1.655a1.525,1.525,0,0,1-1.362-1.674l1.655-16.06a1.525,1.525,0,0,1,1.674-1.361l16.06,1.654a1.527,1.527,0,0,1,1.362,1.674l-1.655,16.061a1.526,1.526,0,0,1-1.674,1.361" transform="translate(-225.04 -199.251)"/>
            </g>
          </g>
        </g>
        <path id="Trazado_281510" data-name="Trazado 281510" d="M238.447,219.6l-16.06-1.655a1.525,1.525,0,0,1-1.362-1.674l1.655-16.06a1.526,1.526,0,0,1,1.674-1.362l16.06,1.655a1.527,1.527,0,0,1,1.362,1.674l-1.655,16.061a1.526,1.526,0,0,1-1.674,1.361" transform="translate(-59.036 -53.112)" fill="#263238"/>
        <path id="Trazado_281511" data-name="Trazado 281511" d="M237.827,211.591c-.283,2.751-2.089,4.116-4.5,3.868a4.282,4.282,0,0,1-2.15-.773L232,213.4a2.589,2.589,0,0,0,1.448.552,2.134,2.134,0,0,0,2.478-2.089,2.729,2.729,0,0,1-2.051.512,2.537,2.537,0,0,1-2.485-2.76,2.751,2.751,0,0,1,3.286-2.339c2.205.228,3.417,1.743,3.151,4.312m-1.914-1.6c.07-.682-.39-1.235-1.266-1.325a1.2,1.2,0,1,0-.221,2.378,1.241,1.241,0,0,0,1.487-1.053" transform="translate(-61.751 -55.361)" fill="#fff"/>
        <path id="Trazado_281512" data-name="Trazado 281512" d="M280.137,223.89l-16.06-1.654a1.526,1.526,0,0,1-1.362-1.675l1.655-16.061a1.525,1.525,0,0,1,1.674-1.361l16.06,1.654a1.527,1.527,0,0,1,1.362,1.674l-1.655,16.061a1.525,1.525,0,0,1-1.673,1.361" transform="translate(-70.172 -54.259)" fill="#e8505b"/>
        <g id="Grupo_572588" data-name="Grupo 572588" transform="translate(192.534 148.872)" opacity="0.4">
          <g id="Grupo_572587" data-name="Grupo 572587">
            <g id="Grupo_572586" data-name="Grupo 572586" clip-path="url(#clip-path-5)">
              <path id="Trazado_281513" data-name="Trazado 281513" d="M280.137,223.89l-16.06-1.654a1.526,1.526,0,0,1-1.362-1.675l1.655-16.061a1.525,1.525,0,0,1,1.674-1.361l16.06,1.654a1.527,1.527,0,0,1,1.362,1.674l-1.655,16.061a1.525,1.525,0,0,1-1.673,1.361" transform="translate(-262.706 -203.131)"/>
            </g>
          </g>
        </g>
        <path id="Trazado_281514" data-name="Trazado 281514" d="M276.113,223.475l-16.06-1.655a1.525,1.525,0,0,1-1.362-1.674l1.655-16.06a1.525,1.525,0,0,1,1.674-1.361l16.06,1.654a1.526,1.526,0,0,1,1.362,1.674l-1.655,16.061a1.526,1.526,0,0,1-1.674,1.361" transform="translate(-69.098 -54.148)" fill="#263238"/>
        <rect id="Rectángulo_207338" data-name="Rectángulo 207338" width="0.733" height="8.572" transform="matrix(0.102, -0.995, 0.995, 0.102, 195.668, 158.878)" fill="#fff"/>
        <path id="Trazado_281515" data-name="Trazado 281515" d="M238.536,258.2l-16.06-1.655a1.525,1.525,0,0,1-1.362-1.674l1.655-16.06a1.526,1.526,0,0,1,1.674-1.362L240.5,239.1a1.526,1.526,0,0,1,1.362,1.674l-1.655,16.061a1.526,1.526,0,0,1-1.674,1.361" transform="translate(-59.06 -63.423)" fill="#e8505b"/>
        <g id="Grupo_572591" data-name="Grupo 572591" transform="translate(162.046 174.017)" opacity="0.4">
          <g id="Grupo_572590" data-name="Grupo 572590">
            <g id="Grupo_572589" data-name="Grupo 572589" clip-path="url(#clip-path-5)">
              <path id="Trazado_281516" data-name="Trazado 281516" d="M238.536,258.2l-16.06-1.655a1.525,1.525,0,0,1-1.362-1.674l1.655-16.06a1.526,1.526,0,0,1,1.674-1.362L240.5,239.1a1.526,1.526,0,0,1,1.362,1.674l-1.655,16.061a1.526,1.526,0,0,1-1.674,1.361" transform="translate(-221.106 -237.44)"/>
            </g>
          </g>
        </g>
        <path id="Trazado_281517" data-name="Trazado 281517" d="M234.513,257.784l-16.06-1.655a1.525,1.525,0,0,1-1.362-1.674l1.655-16.061a1.525,1.525,0,0,1,1.674-1.361l16.06,1.654a1.526,1.526,0,0,1,1.362,1.674l-1.655,16.061a1.526,1.526,0,0,1-1.674,1.361" transform="translate(-57.986 -63.313)" fill="#263238"/>
        <path id="Trazado_281518" data-name="Trazado 281518" d="M276.2,262.079l-16.06-1.655a1.525,1.525,0,0,1-1.362-1.674l1.655-16.06a1.526,1.526,0,0,1,1.674-1.362l16.06,1.655a1.526,1.526,0,0,1,1.362,1.674l-1.655,16.061a1.525,1.525,0,0,1-1.674,1.361" transform="translate(-69.121 -64.46)" fill="#e8505b"/>
        <g id="Grupo_572594" data-name="Grupo 572594" transform="translate(189.651 176.86)" opacity="0.4">
          <g id="Grupo_572593" data-name="Grupo 572593">
            <g id="Grupo_572592" data-name="Grupo 572592" clip-path="url(#clip-path-5)">
              <path id="Trazado_281519" data-name="Trazado 281519" d="M276.2,262.079l-16.06-1.655a1.525,1.525,0,0,1-1.362-1.674l1.655-16.06a1.526,1.526,0,0,1,1.674-1.362l16.06,1.655a1.526,1.526,0,0,1,1.362,1.674l-1.655,16.061a1.525,1.525,0,0,1-1.674,1.361" transform="translate(-258.772 -241.32)"/>
            </g>
          </g>
        </g>
        <path id="Trazado_281520" data-name="Trazado 281520" d="M272.179,261.665l-16.06-1.654a1.526,1.526,0,0,1-1.362-1.675l1.655-16.06a1.525,1.525,0,0,1,1.674-1.361l16.06,1.654a1.527,1.527,0,0,1,1.362,1.674L273.853,260.3a1.526,1.526,0,0,1-1.674,1.361" transform="translate(-68.047 -64.349)" fill="#455a64"/>
        <rect id="Rectángulo_207341" data-name="Rectángulo 207341" width="0.732" height="8.572" transform="translate(192.893 185.814) rotate(-84.126)" fill="#fff"/>
        <rect id="Rectángulo_207342" data-name="Rectángulo 207342" width="0.732" height="8.572" transform="translate(192.559 189.06) rotate(-84.126)" fill="#fff"/>
        <path id="Trazado_281521" data-name="Trazado 281521" d="M185.816,252.936l-42.448-4.373a1.832,1.832,0,0,1-1.635-2.01l1.642-15.935a1.833,1.833,0,0,1,2.011-1.635l42.447,4.372a1.833,1.833,0,0,1,1.635,2.011L187.826,251.3a1.832,1.832,0,0,1-2.01,1.635" transform="translate(-37.856 -61.162)" fill="#263238"/>
        <path id="Trazado_281522" data-name="Trazado 281522" d="M171.953,243.186c.27-2.627,1.88-3.966,3.834-3.765s3.257,1.841,2.987,4.467-1.867,3.967-3.834,3.763-3.257-1.84-2.987-4.465m4.968.512c.186-1.808-.373-2.624-1.294-2.719s-1.623.591-1.809,2.4.372,2.624,1.282,2.717,1.635-.589,1.821-2.4" transform="translate(-45.921 -63.947)" fill="#fff"/>
        <rect id="Rectángulo_207343" data-name="Rectángulo 207343" width="8.572" height="0.732" transform="translate(168.615 188.311) rotate(-83.274)" fill="#fff"/>
        <rect id="Rectángulo_207344" data-name="Rectángulo 207344" width="0.732" height="8.573" transform="translate(165.179 184.023) rotate(-84.122)" fill="#fff"/>
        <path id="Trazado_281523" data-name="Trazado 281523" d="M218.728,66.989l-1.226,11.9-.561-.058,1.171-11.371-2.992-.308.054-.527Z" transform="translate(-57.461 -17.796)" fill="#263238"/>
        <path id="Trazado_281524" data-name="Trazado 281524" d="M230.422,79.829l-.054.527-8.057-.83.042-.407,5.629-4.608c1.612-1.311,2.007-2.147,2.107-3.116.163-1.582-.837-2.715-2.91-2.929a4.414,4.414,0,0,0-3.717,1.06l-.353-.413a5.056,5.056,0,0,1,4.141-1.172c2.278.235,3.6,1.557,3.4,3.477-.115,1.123-.573,2.072-2.3,3.474l-5.123,4.2Z" transform="translate(-59.382 -18.137)" fill="#263238"/>
        <path id="Trazado_281525" data-name="Trazado 281525" d="M243.212,78.255c-.2,1.972-1.741,3.222-4.358,2.953a5.382,5.382,0,0,1-3.961-2.075l.348-.376a4.961,4.961,0,0,0,3.651,1.922c2.277.235,3.582-.765,3.759-2.482.179-1.733-.863-2.957-3.379-3.217l-.663-.068.042-.408,4.2-4.446-6.562-.676.054-.527,7.309.753-.042.407-4.221,4.461c2.787.287,4.024,1.789,3.819,3.777" transform="translate(-62.743 -18.392)" fill="#263238"/>
        <path id="Trazado_281526" data-name="Trazado 281526" d="M258.581,79.927,256,79.661l-.354,3.434-.561-.058.353-3.434-6.833-.7.042-.407,7.409-7.379.663.068L249.4,78.466l6.084.627.311-3.026.561.059-.311,3.025,2.583.266Z" transform="translate(-66.405 -18.995)" fill="#263238"/>
        <path id="Trazado_281527" data-name="Trazado 281527" d="M265.079,87.293a3.249,3.249,0,0,1-.167.618l-.847,2.216-.441-.045.77-2.292a.571.571,0,0,1-.436-.612.557.557,0,0,1,.619-.5.568.568,0,0,1,.5.619" transform="translate(-70.417 -23.151)" fill="#263238"/>
        <path id="Trazado_281528" data-name="Trazado 281528" d="M278.061,81.933l-2.583-.266-.354,3.434-.561-.058.353-3.434-6.833-.7.042-.408,7.409-7.379.663.068-7.312,7.286,6.084.627.311-3.025.561.058-.311,3.025,2.583.266Z" transform="translate(-71.609 -19.531)" fill="#263238"/>
        <path id="Trazado_281529" data-name="Trazado 281529" d="M290.707,83.118c-.2,1.938-1.7,3.3-4.4,3.017a5.393,5.393,0,0,1-3.944-2.073l.365-.374a4.916,4.916,0,0,0,3.633,1.92c2.328.24,3.594-.866,3.768-2.549.189-1.836-.787-3.036-4.187-3.386l-2.312-.238,1.207-5.544,6.136.632-.054.526-5.66-.583-.98,4.5,1.836.19c3.637.375,4.808,1.852,4.592,3.96" transform="translate(-75.423 -19.737)" fill="#263238"/>
        <path id="Trazado_281530" data-name="Trazado 281530" d="M114.668,419.056l-4.66,17.229,15.144,1.382,3.182-16.4Z" transform="translate(-29.385 -111.935)" fill="#e8505b"/>
        <path id="Trazado_281531" data-name="Trazado 281531" d="M125.8,441.888a10.7,10.7,0,0,1-2.218-.075c-1.365-.11-3.244-.318-5.313-.584l-5.294-.71a12.541,12.541,0,0,1-2.184-.378,10.8,10.8,0,0,1,2.218.081c1.365.113,3.244.323,5.313.589l5.292.705a12.68,12.68,0,0,1,2.185.372" transform="translate(-29.594 -117.559)" fill="#263238"/>
        <g id="Grupo_572597" data-name="Grupo 572597" transform="translate(80.623 322.568)" opacity="0.6">
          <g id="Grupo_572596" data-name="Grupo 572596">
            <g id="Grupo_572595" data-name="Grupo 572595" clip-path="url(#clip-path-19)">
              <path id="Trazado_281532" data-name="Trazado 281532" d="M110.008,441.915l15.144,1.382.246-1.264-14.952-1.9-.422,1.611" transform="translate(-110.008 -440.134)" fill="#fff"/>
            </g>
          </g>
        </g>
        <path id="Trazado_281533" data-name="Trazado 281533" d="M120.271,436.737A128.4,128.4,0,0,1,123.5,423.62a64.2,64.2,0,0,1-1.44,6.6,64.283,64.283,0,0,1-1.785,6.516" transform="translate(-32.123 -113.154)" fill="#263238"/>
        <path id="Trazado_281534" data-name="Trazado 281534" d="M125.469,439.351a7.265,7.265,0,0,0,.034-3.2,6.365,6.365,0,0,0-1.657-3,6.2,6.2,0,0,0-3.768-1.732,6.455,6.455,0,0,0-4.057.922,7.026,7.026,0,0,0-2.358,2.505,9,9,0,0,0-.956,3.073c-.012,0-.019-.078-.022-.229a4.66,4.66,0,0,1,.035-.656,6.9,6.9,0,0,1,.721-2.307,7.075,7.075,0,0,1,2.4-2.663,6.668,6.668,0,0,1,4.267-1,6.25,6.25,0,0,1,5.637,5.029,5.991,5.991,0,0,1,.005,2.419,4.03,4.03,0,0,1-.187.631c-.054.141-.087.211-.1.207" transform="translate(-30.099 -115.134)" fill="#263238"/>
        <path id="Trazado_281535" data-name="Trazado 281535" d="M196.614,416.221l-.9,13.568s13.5,4.482,13.582,7l-26.385.191.533-21.2Z" transform="translate(-48.858 -111.062)" fill="#e8505b"/>
        <g id="Grupo_572600" data-name="Grupo 572600" transform="translate(137.939 317.299)" opacity="0.6">
          <g id="Grupo_572599" data-name="Grupo 572599">
            <g id="Grupo_572598" data-name="Grupo 572598" clip-path="url(#clip-path-20)">
              <path id="Trazado_281536" data-name="Trazado 281536" d="M189.012,432.983a1.078,1.078,0,0,0-.782,1.206,1.036,1.036,0,0,0,1.189.786,1.137,1.137,0,0,0,.821-1.282,1.073,1.073,0,0,0-1.327-.68" transform="translate(-188.213 -432.945)" fill="#fff"/>
            </g>
          </g>
        </g>
        <g id="Grupo_572603" data-name="Grupo 572603" transform="translate(134.055 323.789)" opacity="0.6">
          <g id="Grupo_572602" data-name="Grupo 572602">
            <g id="Grupo_572601" data-name="Grupo 572601" clip-path="url(#clip-path-21)">
              <path id="Trazado_281537" data-name="Trazado 281537" d="M182.913,443.933l.137-2.135,25.4.7a1.824,1.824,0,0,1,.981,1.434Z" transform="translate(-182.913 -441.799)" fill="#fff"/>
            </g>
          </g>
        </g>
        <path id="Trazado_281538" data-name="Trazado 281538" d="M200.079,434.679c-.008.128-.654.168-1.3.562-.656.378-1,.926-1.117.871-.117-.029.1-.792.888-1.257s1.56-.294,1.529-.177" transform="translate(-52.79 -116.073)" fill="#263238"/>
        <path id="Trazado_281539" data-name="Trazado 281539" d="M204.041,436.381c.026.125-.539.328-.992.859-.47.518-.6,1.1-.726,1.094-.122.017-.188-.74.389-1.39s1.329-.686,1.329-.563" transform="translate(-54.021 -116.548)" fill="#263238"/>
        <path id="Trazado_281540" data-name="Trazado 281540" d="M206.653,440.185c-.118.024-.278-.625.075-1.32s.962-.958,1.014-.849c.07.108-.333.474-.613,1.049s-.347,1.11-.475,1.119" transform="translate(-55.162 -116.993)" fill="#263238"/>
        <path id="Trazado_281541" data-name="Trazado 281541" d="M199.781,430.294c-.057.116-.643-.08-1.372-.053s-1.3.24-1.368.128c-.072-.1.5-.555,1.355-.575s1.451.4,1.384.5" transform="translate(-52.631 -114.803)" fill="#263238"/>
        <g id="Grupo_572606" data-name="Grupo 572606" transform="translate(134.461 307.572)" opacity="0.3">
          <g id="Grupo_572605" data-name="Grupo 572605">
            <g id="Grupo_572604" data-name="Grupo 572604" clip-path="url(#clip-path-22)">
              <path id="Trazado_281542" data-name="Trazado 281542" d="M196.581,419.946l-.157,2.418-12.957-.51.049-2.181Z" transform="translate(-183.468 -419.673)"/>
            </g>
          </g>
        </g>
        <path id="Trazado_281543" data-name="Trazado 281543" d="M199.515,425.926a2.476,2.476,0,0,1-1.321-.047,5.923,5.923,0,0,1-1.369-.466,6.2,6.2,0,0,1-.746-.425,1.622,1.622,0,0,1-.389-.323.561.561,0,0,1-.038-.687.706.706,0,0,1,.573-.277,1.7,1.7,0,0,1,.493.084,4.712,4.712,0,0,1,.812.306,4.652,4.652,0,0,1,1.194.836c.594.585.789,1.072.744,1.1-.059.041-.345-.371-.953-.857a5.242,5.242,0,0,0-1.158-.7,4.9,4.9,0,0,0-.75-.257c-.278-.081-.515-.091-.591.032-.027.046-.031.065.025.149a1.33,1.33,0,0,0,.287.235,7,7,0,0,0,.685.42,7.321,7.321,0,0,0,1.262.528,9.047,9.047,0,0,1,1.241.353" transform="translate(-52.234 -113.176)" fill="#263238"/>
        <path id="Trazado_281544" data-name="Trazado 281544" d="M200.611,425.466a2.1,2.1,0,0,1-.31-1.286,4.285,4.285,0,0,1,.585-2.232,1.093,1.093,0,0,1,.863-.641.618.618,0,0,1,.54.385,1.776,1.776,0,0,1,.121.488,2.941,2.941,0,0,1-.026.89,3.042,3.042,0,0,1-.605,1.347c-.536.668-1.078.805-1.088.761-.041-.066.416-.3.83-.946a3.031,3.031,0,0,0,.455-1.228,2.72,2.72,0,0,0,0-.764c-.033-.281-.131-.511-.237-.485-.13-.006-.36.2-.475.419a4.466,4.466,0,0,0-.349.706,4.752,4.752,0,0,0-.3,1.31c-.059.773.063,1.259-.007,1.277" transform="translate(-53.503 -112.536)" fill="#263238"/>
        <path id="Trazado_281545" data-name="Trazado 281545" d="M120.615,127.109s-2.859,15.612-5.157,25.059c-1.785,7.336-6.406,21.087,1.956,25.082s19.608-12.124,19.608-12.124l4.772-36.742c-3.324.622-7.087,4.474-11.1,10.14l.728-13.938Z" transform="translate(-30.069 -33.279)" fill="#455a64"/>
        <path id="Trazado_281546" data-name="Trazado 281546" d="M277.493,153.372l-4.4,2.1-4.048-6.351,2.367-4.9c.224-.455.465-.966.717-1.552a6.7,6.7,0,0,0,.522-2.158,10.225,10.225,0,0,0-.07-2.759c-.218-.818.647-1.489,1.236-1.011s1.244,2.717.808,5.418,2.709-.165,3.873-1.188,4.911-4.018,5.5-3.9c.863.171.839,1.151-.347,2.146s-4.539,4.233-3.986,4.835l.027,0a3.307,3.307,0,0,1,2.87,2.567c.3,1.331.542,3.168-.207,3.774a43.478,43.478,0,0,1-4.863,2.984" transform="translate(-71.865 -36.481)" fill="#ffbe9d"/>
        <path id="Trazado_281547" data-name="Trazado 281547" d="M164.185,76.958l-.117,38.192,16.386.781.473-9.289s5.82,1.156,7.322-4.249c.959-3.453.719-30.136.719-30.136Z" transform="translate(-43.825 -19.301)" fill="#ffbe9d"/>
        <path id="Trazado_281548" data-name="Trazado 281548" d="M190.453,73.841c-1.1,2.282-6.359,6.458-6.359,6.458l-2.374,6.362c-2.062-1.615-4.831-1.521-5.355,2.1-.379,2.619,2.877,3.148,2.877,3.148-1.9,3.225-3.181,5.835-5.94,8.9-2.987,3.321-4.66,3.655-7.9,3.709H161.83s-7.309-6.108-5.865-22.194,15.907-11.393,19.358-15.413c5.622-6.546,18.814-.694,15.13,6.924" transform="translate(-41.61 -17.118)" fill="#263238"/>
        <path id="Trazado_281549" data-name="Trazado 281549" d="M157.142,98.019s.158-.005.457,0a7.223,7.223,0,0,0,1.3-.15,9.262,9.262,0,0,0,4.2-2.222,23.407,23.407,0,0,0,4.254-5.694c.693-1.154,1.42-2.372,2.3-3.552a13.619,13.619,0,0,1,3.215-3.2,13.275,13.275,0,0,1,4.177-1.78c1.423-.37,2.822-.6,4.142-.855a15.587,15.587,0,0,0,6.617-2.473,7.163,7.163,0,0,0,2.679-3.87,5.6,5.6,0,0,0,.157-1.294c-.015-.3-.016-.457-.016-.457s.021.156.047.456a5.266,5.266,0,0,1-.13,1.308,7.157,7.157,0,0,1-2.671,3.941,15.575,15.575,0,0,1-6.655,2.526c-1.322.261-2.718.491-4.131.861a13.2,13.2,0,0,0-4.13,1.762,13.544,13.544,0,0,0-3.181,3.168c-.874,1.171-1.6,2.384-2.3,3.535a23.236,23.236,0,0,1-4.3,5.7,9.206,9.206,0,0,1-4.257,2.2,6.664,6.664,0,0,1-1.308.122c-.3-.015-.457-.031-.457-.031" transform="translate(-41.975 -19.357)" fill="#455a64"/>
        <path id="Trazado_281550" data-name="Trazado 281550" d="M155.991,84.159s.259-.1.759-.268A11.028,11.028,0,0,1,159,83.358a5.086,5.086,0,0,1,3.515.759,2.935,2.935,0,0,1,1.254,1.873,2.636,2.636,0,0,1-.723,2.394,2.05,2.05,0,0,1-1.284.516,2.67,2.67,0,0,1-1.4-.375,4.214,4.214,0,0,1-1.873-2.372,5.963,5.963,0,0,1-.142-3.255,5.669,5.669,0,0,1,1.766-2.959,5.9,5.9,0,0,1,3.306-1.479,10.135,10.135,0,0,1,3.766.487,26,26,0,0,0,3.808.913,15.435,15.435,0,0,0,4.015.01,13.287,13.287,0,0,0,3.864-1.069,4.563,4.563,0,0,0,2.589-2.713,3.523,3.523,0,0,0-.86-3.436,3.014,3.014,0,0,0-3.31-.49,2.506,2.506,0,0,0-1.222,1.144,2.759,2.759,0,0,0-.262,1.619,3.742,3.742,0,0,0,1.667,2.624,5.463,5.463,0,0,0,2.864.8,8.528,8.528,0,0,0,2.749-.413,9.916,9.916,0,0,0,4.067-2.477,10.524,10.524,0,0,0,2.1-2.946,11.143,11.143,0,0,0,.77-2.164c.1-.517.16-.788.16-.788s-.04.274-.13.794a10.658,10.658,0,0,1-.745,2.183,10.5,10.5,0,0,1-2.095,2.981,9.979,9.979,0,0,1-4.1,2.52,8.656,8.656,0,0,1-2.783.427,5.569,5.569,0,0,1-2.93-.816,3.87,3.87,0,0,1-1.732-2.713,2.9,2.9,0,0,1,.273-1.7,2.641,2.641,0,0,1,1.285-1.209,3.156,3.156,0,0,1,3.47.512,3.67,3.67,0,0,1,.9,3.582,4.71,4.71,0,0,1-2.667,2.81,13.407,13.407,0,0,1-3.91,1.082,15.547,15.547,0,0,1-4.055-.01,26.091,26.091,0,0,1-3.828-.92,10.026,10.026,0,0,0-3.711-.487,5.724,5.724,0,0,0-4.824,7.508,4.1,4.1,0,0,0,1.812,2.31,2.56,2.56,0,0,0,1.338.364,1.942,1.942,0,0,0,1.216-.484,2.536,2.536,0,0,0,.7-2.3,2.847,2.847,0,0,0-1.208-1.82,5.04,5.04,0,0,0-3.459-.77,11.506,11.506,0,0,0-2.242.5c-.5.158-.768.238-.768.238" transform="translate(-41.667 -18.582)" fill="#455a64"/>
        <path id="Trazado_281551" data-name="Trazado 281551" d="M133.3,231.338,111.492,374.6l18.116,2.3,25.562-120.163,6.436,120.97,19.635-.343-3.255-145.688Z" transform="translate(-29.781 -61.793)" fill="#cbcbcb"/>
        <path id="Trazado_281552" data-name="Trazado 281552" d="M161.105,377.943l-.019-.353-6.288-118.2L129.744,377.169l-18.823-2.388,21.916-143.946,45.354.342,3.272,146.413Zm-5.87-124.132L161.8,377.2l18.914-.33L177.474,231.9l-44.008-.331L111.758,374.147l17.408,2.21Z" transform="translate(-29.628 -61.659)" fill="#263238"/>
        <path id="Trazado_281553" data-name="Trazado 281553" d="M198.631,383.54c-.106,0-.191-28.7-.191-64.1s.085-64.111.191-64.111.191,28.7.191,64.111-.085,64.1-.191,64.1" transform="translate(-53.006 -68.201)" fill="#455a64"/>
        <path id="Trazado_281554" data-name="Trazado 281554" d="M130.771,386.215a1.926,1.926,0,0,1,.044-.311c.04-.222.1-.523.166-.908l.673-3.482,2.569-12.787c2.2-10.791,5.316-25.683,8.892-42.1s6.942-31.263,9.432-41.991c1.257-5.346,2.275-9.679,2.984-12.7.359-1.482.641-2.639.836-3.446.1-.38.171-.676.226-.894a1.943,1.943,0,0,1,.09-.3,1.835,1.835,0,0,1-.052.311l-.19.9-.767,3.461c-.681,3.023-1.659,7.365-2.866,12.723-2.422,10.743-5.743,25.591-9.322,42.013s-6.734,31.3-9,42.076L131.8,381.544c-.32,1.491-.569,2.655-.744,3.467-.086.382-.153.68-.2.9a1.86,1.86,0,0,1-.082.3" transform="translate(-34.93 -71.398)" fill="#455a64"/>
        <path id="Trazado_281555" data-name="Trazado 281555" d="M172.2,265.8a3.535,3.535,0,0,1-.828.11l-2.264.16c-1.911.128-4.554.259-7.457.543s-5.521.678-7.42.927l-2.251.286a3.552,3.552,0,0,1-.834.055,3.492,3.492,0,0,1,.811-.2c.525-.106,1.288-.244,2.233-.406,1.89-.318,4.506-.749,7.423-1.041s5.567-.374,7.482-.432c.958-.026,1.734-.04,2.27-.039a3.516,3.516,0,0,1,.835.039" transform="translate(-40.372 -70.989)" fill="#455a64"/>
        <path id="Trazado_281556" data-name="Trazado 281556" d="M198.829,250.317a1.556,1.556,0,0,1-.564.142,7.872,7.872,0,0,1-1.581.07,9.178,9.178,0,0,1-8.088-5.813,7.846,7.846,0,0,1-.437-1.521,1.547,1.547,0,0,1-.045-.579c.067-.014.193.8.73,1.995a9.549,9.549,0,0,0,7.86,5.649c1.3.13,2.116-.012,2.124.056" transform="translate(-50.244 -64.806)" fill="#455a64"/>
        <path id="Trazado_281557" data-name="Trazado 281557" d="M136.165,206l50.183-.162L183.6,172.715c-.3-7.578-.258-8.482-.446-15.479,0,0,7.124,8.614,12.727,14.653a11.417,11.417,0,0,0,13.253,2.542l29.32-20.455-5.49-14.045-26.645,16.31c-1.22-.759-11.6-15.556-18.764-22.782a25.365,25.365,0,0,0-17.285-7.475,126.347,126.347,0,0,0-16.187.649,16.936,16.936,0,0,0-15.072,15.437c-.519,6.192-.1,13.381-.1,25.6Z" transform="translate(-36.371 -33.641)" fill="#455a64"/>
        <path id="Trazado_281558" data-name="Trazado 281558" d="M139.343,152.52s.008.133.008.387c0,.3,0,.663-.007,1.109-.014.962-.013,2.356,0,4.077.019,3.443.158,8.2.306,13.45s.177,10.016.045,13.459c-.06,1.722-.136,3.113-.217,4.073-.037.444-.067.809-.091,1.105-.022.253-.042.385-.042.385s0-.134.011-.387c.017-.3.037-.662.062-1.107.063-.961.122-2.353.169-4.073.1-3.441.059-8.2-.089-13.451s-.27-10.008-.262-13.453c0-1.722.019-3.116.051-4.079.014-.446.026-.812.035-1.109.01-.254.023-.386.023-.386" transform="translate(-37.191 -40.74)" fill="#263238"/>
        <path id="Trazado_281559" data-name="Trazado 281559" d="M230.391,172.064a3.193,3.193,0,0,1,.106-.69c.085-.423.212-1.006.362-1.647s.294-1.22.405-1.637a3.129,3.129,0,0,1,.211-.665,3.256,3.256,0,0,1-.107.693c-.084.424-.211,1-.361,1.644s-.293,1.217-.4,1.634a3.231,3.231,0,0,1-.212.669" transform="translate(-61.539 -44.721)" fill="#263238"/>
        <path id="Trazado_281560" data-name="Trazado 281560" d="M233.595,172.379a48.648,48.648,0,0,1-1.211-5.313,48.751,48.751,0,0,1,1.211,5.313" transform="translate(-62.071 -44.625)" fill="#263238"/>
        <path id="Trazado_281561" data-name="Trazado 281561" d="M197.566,159.036s-.1-.083-.275-.251l-.766-.744c-.661-.65-1.616-1.593-2.753-2.8a45.677,45.677,0,0,1-3.743-4.465,25.854,25.854,0,0,1-3.4-6.26A17.483,17.483,0,0,1,185.5,137.5a14.485,14.485,0,0,1,1.262-5.667,8.338,8.338,0,0,1,2.465-3.033,8.089,8.089,0,0,1,.893-.588c.211-.122.326-.18.326-.18.015.024-.453.246-1.183.815a8.421,8.421,0,0,0-2.4,3.032,14.523,14.523,0,0,0-1.219,5.627,17.47,17.47,0,0,0,1.125,6.962,26.064,26.064,0,0,0,3.375,6.231,47.563,47.563,0,0,0,3.708,4.474c1.126,1.214,2.069,2.168,2.717,2.831l.745.764c.169.176.253.273.253.273" transform="translate(-49.543 -34.198)" fill="#263238"/>
        <path id="Trazado_281562" data-name="Trazado 281562" d="M156.314,150.3a16.83,16.83,0,0,1-3.145-3.967,16.87,16.87,0,0,1,3.145,3.967" transform="translate(-40.912 -39.086)" fill="#fafafa"/>
        <path id="Trazado_281563" data-name="Trazado 281563" d="M171.192,169.4a33.114,33.114,0,0,1-5.025,5.013,33.2,33.2,0,0,1,5.025-5.013" transform="translate(-44.385 -45.249)" fill="#fafafa"/>
        <path id="Trazado_281564" data-name="Trazado 281564" d="M187.1,193.069c-.108.033-.51-1.1-1.255-2.362s-1.526-2.174-1.445-2.252a7.52,7.52,0,0,1,2.7,4.614" transform="translate(-49.254 -50.337)" fill="#fafafa"/>
        <path id="Trazado_281565" data-name="Trazado 281565" d="M148.525,189.142a14.154,14.154,0,0,1-1.32-7.518c.114,0,.15,1.714.52,3.784s.907,3.7.8,3.734" transform="translate(-39.292 -48.514)" fill="#fafafa"/>
        <path id="Trazado_281566" data-name="Trazado 281566" d="M169.457,200.752a9.3,9.3,0,0,1-.562-6.285c.113.016-.049,1.429.112,3.157s.558,3.091.45,3.127" transform="translate(-45.031 -51.945)" fill="#fafafa"/>
        <path id="Trazado_281567" data-name="Trazado 281567" d="M159.138,217.734a20.566,20.566,0,0,1-3.447-1.93,20.5,20.5,0,0,1-3.244-2.253,20.536,20.536,0,0,1,3.447,1.93,20.528,20.528,0,0,1,3.244,2.253" transform="translate(-40.72 -57.041)" fill="#fafafa"/>
        <path id="Trazado_281568" data-name="Trazado 281568" d="M191.2,214.46c.047.1-1.654.947-3.625,2.2s-3.471,2.413-3.543,2.327a19.8,19.8,0,0,1,7.168-4.523" transform="translate(-49.157 -57.283)" fill="#fafafa"/>
        <path id="Trazado_281569" data-name="Trazado 281569" d="M150.6,232.252a18.424,18.424,0,0,1-3.7-.543,18.418,18.418,0,0,1-3.623-.918,18.366,18.366,0,0,1,3.7.543,18.393,18.393,0,0,1,3.623.918" transform="translate(-38.272 -61.641)" fill="#fafafa"/>
        <path id="Trazado_281570" data-name="Trazado 281570" d="M173.883,227.445a9.514,9.514,0,0,1-2.718-5.019c.106-.034.56,1.161,1.31,2.537s1.5,2.412,1.409,2.482" transform="translate(-45.716 -59.413)" fill="#fafafa"/>
        <path id="Trazado_281571" data-name="Trazado 281571" d="M198.26,230.966a5.467,5.467,0,0,1-1.141,1.664c-.711.851-1.353,1.486-1.434,1.418a5.454,5.454,0,0,1,1.142-1.663c.711-.851,1.353-1.486,1.434-1.419" transform="translate(-52.268 -61.693)" fill="#fafafa"/>
        <path id="Trazado_281572" data-name="Trazado 281572" d="M153.571,162.222c.059.088-.6.627-1.461,1.206a4.833,4.833,0,0,1-1.674.888c-.059-.088.6-.627,1.462-1.206a4.812,4.812,0,0,1,1.673-.888" transform="translate(-40.182 -43.328)" fill="#fafafa"/>
        <path id="Trazado_281573" data-name="Trazado 281573" d="M170.833,140.569a16.5,16.5,0,0,1-1.319-3.771,16.467,16.467,0,0,1-.744-3.925,28.847,28.847,0,0,1,1.113,3.826,28.931,28.931,0,0,1,.951,3.869" transform="translate(-45.075 -35.492)" fill="#fafafa"/>
        <path id="Trazado_281574" data-name="Trazado 281574" d="M185.971,160.138c-.045.1-1.115-.309-2.49-.567s-2.519-.28-2.523-.392a7.161,7.161,0,0,1,5.013.959" transform="translate(-48.336 -42.482)" fill="#fafafa"/>
        <path id="Trazado_281575" data-name="Trazado 281575" d="M196.957,145.646a7.594,7.594,0,0,1-5.437-.836c.044-.1,1.2.327,2.7.55s2.729.173,2.739.286" transform="translate(-51.157 -38.676)" fill="#fafafa"/>
        <path id="Trazado_281576" data-name="Trazado 281576" d="M210.309,159.326a18.378,18.378,0,0,1,1.285-7.94c.108.032-.356,1.774-.706,3.96s-.468,3.983-.58,3.98" transform="translate(-56.156 -40.437)" fill="#fafafa"/>
        <path id="Trazado_281577" data-name="Trazado 281577" d="M221.927,179.513a33.018,33.018,0,0,1-4.94-5.1,33.2,33.2,0,0,1,4.94,5.1" transform="translate(-57.959 -46.588)" fill="#fafafa"/>
        <path id="Trazado_281578" data-name="Trazado 281578" d="M233.8,179.9a19.6,19.6,0,0,1-2.954,4.583A19.6,19.6,0,0,1,233.8,179.9" transform="translate(-61.658 -48.053)" fill="#fafafa"/>
        <path id="Trazado_281579" data-name="Trazado 281579" d="M246.768,171.484a27.366,27.366,0,0,1-2.818-5.807,27.371,27.371,0,0,1,2.818,5.807" transform="translate(-65.159 -44.254)" fill="#fafafa"/>
        <path id="Trazado_281580" data-name="Trazado 281580" d="M262.973,165.875a30.061,30.061,0,0,1-6.667-1.186,30.178,30.178,0,0,1,6.667,1.186" transform="translate(-68.463 -43.983)" fill="#fafafa"/>
        <path id="Trazado_281581" data-name="Trazado 281581" d="M125.594,182.668a34.011,34.011,0,0,1,3.068-6.515,34.128,34.128,0,0,1-3.068,6.515" transform="translate(-33.545 -47.052)" fill="#fafafa"/>
        <path id="Trazado_281582" data-name="Trazado 281582" d="M133.412,166.9a25.4,25.4,0,0,1-4.156-4.624,25.4,25.4,0,0,1,4.156,4.624" transform="translate(-34.525 -43.344)" fill="#fafafa"/>
        <path id="Trazado_281583" data-name="Trazado 281583" d="M133.237,195.015c.067.081-.44.614-1.134,1.191s-1.311.978-1.379.9.44-.614,1.134-1.191,1.31-.978,1.378-.9" transform="translate(-34.917 -52.088)" fill="#fafafa"/>
        <path id="Trazado_281584" data-name="Trazado 281584" d="M136.692,151.09c.082.066-.226.588-.688,1.165s-.9.992-.986.926.226-.587.688-1.165.9-.992.986-.926" transform="translate(-36.062 -40.356)" fill="#fafafa"/>
        <g id="Grupo_572609" data-name="Grupo 572609" transform="translate(138.933 114.067)" opacity="0.3">
          <g id="Grupo_572608" data-name="Grupo 572608">
            <g id="Grupo_572607" data-name="Grupo 572607" clip-path="url(#clip-path-23)">
              <path id="Trazado_281585" data-name="Trazado 281585" d="M189.57,155.64c3.1,9.739,5.493,19.963,8.592,29.7l-.739-20.173a48.363,48.363,0,0,1-7.853-9.529" transform="translate(-189.57 -155.64)"/>
            </g>
          </g>
        </g>
        <path id="Trazado_281586" data-name="Trazado 281586" d="M120.761,165.006a1.548,1.548,0,0,1,.095-.24l.3-.676c.261-.586.652-1.426,1.149-2.46.993-2.066,2.434-4.889,4.158-7.934s3.408-5.732,4.669-7.645c.631-.957,1.151-1.726,1.519-2.25l.426-.6a1.655,1.655,0,0,1,.157-.2,1.627,1.627,0,0,1-.131.221l-.4.619-1.477,2.276c-1.238,1.928-2.9,4.621-4.627,7.662s-3.176,5.854-4.193,7.906c-.479.977-.878,1.795-1.192,2.438l-.325.663a1.585,1.585,0,0,1-.122.227" transform="translate(-32.257 -38.196)" fill="#263238"/>
        <path id="Trazado_281587" data-name="Trazado 281587" d="M125.761,160.3c.007.024-.309.127-.8.337a10.2,10.2,0,0,0-3.4,2.364c-.369.387-.575.648-.594.632s.034-.078.12-.2a5.742,5.742,0,0,1,.394-.5,8.562,8.562,0,0,1,3.437-2.391,5.756,5.756,0,0,1,.609-.195.688.688,0,0,1,.232-.043" transform="translate(-32.312 -42.817)" fill="#263238"/>
        <path id="Trazado_281588" data-name="Trazado 281588" d="M126.71,139.788a21.845,21.845,0,0,1-2.228,3.406,21.872,21.872,0,0,1-2.538,3.183,21.819,21.819,0,0,1,2.229-3.406,21.776,21.776,0,0,1,2.537-3.183" transform="translate(-32.572 -37.339)" fill="#fafafa"/>
        <path id="Trazado_281589" data-name="Trazado 281589" d="M135.67,120.415a1.766,1.766,0,0,0,1.862-.879c.41-.613.6-1.346.964-1.987,1.089-1.917,3.566-2.751,4.562-4.717.139-.274.224-.656-.014-.849-.221-.18-.548-.059-.8.069l-6.529,3.269" transform="translate(-36.239 -29.888)" fill="#ffbe9d"/>
        <path id="Trazado_281590" data-name="Trazado 281590" d="M135.713,115.248a2.887,2.887,0,0,1,.669-.426c.443-.25,1.092-.6,1.9-1.023l2.835-1.47.822-.419a1.449,1.449,0,0,1,1.064-.256.616.616,0,0,1,.4.565,1.264,1.264,0,0,1-.13.583,4.794,4.794,0,0,1-.589.9,27.944,27.944,0,0,1-2.961,2.59,5.493,5.493,0,0,0-1.064,1.255c-.261.442-.432.911-.635,1.327a2.567,2.567,0,0,1-1.547,1.53.922.922,0,0,1-.8-.062,2.139,2.139,0,0,0,.751-.092,2.489,2.489,0,0,0,1.329-1.5c.18-.407.334-.886.6-1.375a5.7,5.7,0,0,1,1.1-1.365,32.521,32.521,0,0,0,2.9-2.572,4.467,4.467,0,0,0,.535-.813c.133-.273.128-.555-.032-.589-.168-.065-.468.085-.747.227l-.828.407-2.875,1.39c-.822.39-1.489.7-1.955.905a2.936,2.936,0,0,1-.742.281" transform="translate(-36.239 -29.816)" fill="#eb996e"/>
        <rect id="Rectángulo_207350" data-name="Rectángulo 207350" width="46.388" height="6.374" transform="translate(257.647 286.758)" fill="#727997"/>
        <path id="Trazado_281591" data-name="Trazado 281591" d="M397.988,397.7H351.442v-6.533h46.546Zm-46.387-.159H397.83v-6.216H351.6Z" transform="translate(-93.875 -104.485)" fill="#263238"/>
        <path id="Trazado_281592" data-name="Trazado 281592" d="M357.419,397.074l6.677,32.941H388.8l6.455-30.819Z" transform="translate(-95.471 -106.064)" fill="#7e87aa"/>
        <path id="Trazado_281593" data-name="Trazado 281593" d="M357.419,437.769l3.561,4.9H391.01l4.247-4.9Z" transform="translate(-95.471 -116.934)" fill="#727997"/>
        <path id="Trazado_281594" data-name="Trazado 281594" d="M380.716,373.543c-.091,0-.208-15.26-.261-34.081s-.022-34.085.069-34.085.208,15.257.262,34.084.022,34.082-.07,34.082" transform="translate(-101.618 -81.57)" fill="#263238"/>
        <path id="Trazado_281595" data-name="Trazado 281595" d="M393.364,346.278a1.6,1.6,0,0,1-.125.355l-.414.988-.3.711-.309.866-.358.994c-.124.352-.221.737-.343,1.133a46.164,46.164,0,0,0-1.3,5.68,69.07,69.07,0,0,0-.719,7.1,95.675,95.675,0,0,0,.367,12.974c.149,1.656.3,3,.41,3.919.048.434.086.786.117,1.066a1.636,1.636,0,0,1,.019.375,1.545,1.545,0,0,1-.084-.366c-.048-.277-.106-.627-.179-1.058-.15-.92-.336-2.256-.514-3.913a85.372,85.372,0,0,1-.465-13.012,64.855,64.855,0,0,1,.748-7.138,43.043,43.043,0,0,1,1.374-5.7c.13-.4.235-.781.368-1.133l.383-.991.336-.86c.115-.26.232-.492.331-.7l.472-.964a1.592,1.592,0,0,1,.185-.326" transform="translate(-103.932 -92.495)" fill="#263238"/>
        <path id="Trazado_281596" data-name="Trazado 281596" d="M391.107,329.437a3.155,3.155,0,0,1-.147.5q-.18.529-.483,1.419-.162.465-.355,1.022c-.116.38-.24.792-.374,1.232-.271.883-.586,1.886-.865,3.016q-.223.844-.465,1.764-.21.93-.435,1.93c-.325,1.328-.558,2.771-.857,4.279-.511,3.031-.962,6.382-1.272,9.916-.293,3.537-.421,6.917-.466,9.992-.009,3.074.03,5.846.156,8.168.041,1.163.116,2.213.176,3.135s.111,1.716.17,2.364q.071.938.114,1.5a3.066,3.066,0,0,1,.017.523,3.171,3.171,0,0,1-.084-.517q-.065-.555-.175-1.489c-.078-.647-.155-1.44-.226-2.363s-.169-1.973-.224-3.137c-.156-2.325-.22-5.1-.227-8.183.028-3.083.147-6.471.44-10.018.311-3.544.772-6.9,1.3-9.942.309-1.51.553-2.956.89-4.285l.454-1.931.487-1.764c.295-1.129.626-2.13.915-3.01q.214-.657.4-1.227l.383-1.015.542-1.4a3.1,3.1,0,0,1,.21-.479" transform="translate(-102.861 -87.997)" fill="#263238"/>
        <path id="Trazado_281597" data-name="Trazado 281597" d="M373.6,376.994a.709.709,0,0,1-.026-.178c-.011-.137-.026-.31-.043-.525-.033-.486-.079-1.162-.137-2.021-.111-1.78-.27-4.314-.465-7.434-.4-6.275-.985-14.944-2.041-24.478-.539-4.767-1.165-9.294-1.816-13.4-.346-2.048-.659-4-1.015-5.812-.326-1.819-.678-3.5-1-5.042-.3-1.542-.644-2.923-.918-4.141s-.529-2.263-.746-3.115c-.2-.835-.366-1.494-.482-1.966-.048-.211-.086-.38-.117-.514a.722.722,0,0,1-.029-.178.745.745,0,0,1,.062.169l.149.506.542,1.952c.236.847.515,1.887.8,3.1s.647,2.594.967,4.134c.339,1.537.7,3.221,1.042,5.04.368,1.814.693,3.764,1.047,5.814.668,4.107,1.3,8.639,1.844,13.411,1.057,9.544,1.6,18.221,1.946,24.5.171,3.14.289,5.684.361,7.441.032.86.056,1.537.074,2.024,0,.215.008.389.011.526a.72.72,0,0,1-.007.18" transform="translate(-97.432 -82.322)" fill="#263238"/>
        <path id="Trazado_281598" data-name="Trazado 281598" d="M374.987,314a4.6,4.6,0,0,0-4.558-3.815,7.177,7.177,0,0,0-5.523,3,17.276,17.276,0,0,0-2.659,5.9,40.1,40.1,0,0,0-1.637,15.707,23.771,23.771,0,0,0,6.537,14.161,2.677,2.677,0,0,0,2.251,1.029,2.713,2.713,0,0,0,1.188-.734,35.149,35.149,0,0,0,11.407-26.729,10.854,10.854,0,0,0-1.429-5.75c-1.108-1.667-3.692-3.437-5.578-2.768" transform="translate(-96.267 -82.853)" fill="#e8505b"/>
        <path id="Trazado_281599" data-name="Trazado 281599" d="M353.873,288.874l-3.058,5.538c-.071.129-.166.273-.312.286s-.281-.139-.369-.273l-8.085-12.409,1.863-1.055Z" transform="translate(-91.366 -75.048)" fill="#e8505b"/>
        <g id="Grupo_572612" data-name="Grupo 572612" transform="translate(250.683 205.913)" opacity="0.2">
          <g id="Grupo_572611" data-name="Grupo 572611">
            <g id="Grupo_572610" data-name="Grupo 572610" clip-path="url(#clip-path-24)">
              <path id="Trazado_281600" data-name="Trazado 281600" d="M353.873,288.874l-3.058,5.538c-.071.129-.166.273-.312.286s-.281-.139-.369-.273l-8.085-12.409,1.863-1.055Z" transform="translate(-342.049 -280.961)"/>
            </g>
          </g>
        </g>
        <path id="Trazado_281601" data-name="Trazado 281601" d="M370.255,296.668l-27.579-16.274a1.284,1.284,0,0,1-.671-.677c-.11-.408.2-.8.49-1.105a19.008,19.008,0,0,1,14.739-5.79,16.837,16.837,0,0,1,13.324,8.287c2.662,4.756,2.75,11.045-.3,15.56" transform="translate(-91.348 -72.862)" fill="#e8505b"/>
        <path id="Trazado_281602" data-name="Trazado 281602" d="M348.352,276.046a1.491,1.491,0,0,1,.361-.045c.238-.012.589-.055,1.042-.051a20.755,20.755,0,0,1,3.827.3,22.363,22.363,0,0,1,17.85,16.152,20.734,20.734,0,0,1,.684,3.777,7.967,7.967,0,0,1,.042.8,1.345,1.345,0,0,1-.213.6,4.636,4.636,0,0,0,.042-1.392,23.427,23.427,0,0,0-.78-3.727,22.53,22.53,0,0,0-17.668-15.986,23.462,23.462,0,0,0-3.786-.405c-.9-.02-1.4,0-1.4-.034" transform="translate(-93.049 -73.709)" fill="#263238"/>
        <path id="Trazado_281603" data-name="Trazado 281603" d="M371.847,290.046a6.677,6.677,0,0,1-1.394.634c-.879.346-2.107.789-3.48,1.225s-2.632.783-3.549,1.007a6.715,6.715,0,0,1-1.5.287,7.472,7.472,0,0,1,1.442-.512l3.513-1.1,3.5-1.131a7.5,7.5,0,0,1,1.473-.413" transform="translate(-96.673 -77.473)" fill="#263238"/>
        <path id="Trazado_281604" data-name="Trazado 281604" d="M369.52,274.131a19.286,19.286,0,0,1,.156,6.166,57.716,57.716,0,0,1-.156-6.166" transform="translate(-98.689 -73.224)" fill="#263238"/>
        <path id="Trazado_281605" data-name="Trazado 281605" d="M342.6,281.51a12.424,12.424,0,0,1,2-.705c1.253-.386,3-.875,4.943-1.344s3.722-.828,5.014-1.055a12.241,12.241,0,0,1,2.1-.284,14.858,14.858,0,0,1-2.059.514c-1.277.284-3.041.679-4.982,1.146s-3.69.92-4.957,1.248a14.794,14.794,0,0,1-2.067.48" transform="translate(-91.513 -74.287)" fill="#263238"/>
        <path id="Trazado_281606" data-name="Trazado 281606" d="M353.374,308.236c-2.372-1.8-4.88-2.153-7.854-2.035a24.014,24.014,0,0,0-8.6,2.218c-4.65,2.037-9.022,5.039-11.8,9.288s-3.746,9.874-1.665,14.506a2.065,2.065,0,0,0,.942,1.143,2.248,2.248,0,0,0,1.557-.119c5.289-1.725,10.616-3.467,15.479-6.169s9.29-6.458,11.9-11.372a9.777,9.777,0,0,0,1.253-3.774,4.7,4.7,0,0,0-1.214-3.686" transform="translate(-86.1 -81.785)" fill="#e8505b"/>
        <path id="Trazado_281607" data-name="Trazado 281607" d="M354.087,308.223a1.952,1.952,0,0,1-.38.155l-1.109.381-.8.268c-.29.1-.6.235-.937.365-.669.271-1.446.542-2.264.939l-1.3.591c-.45.207-.9.462-1.374.705-.959.471-1.929,1.072-2.962,1.683a46.794,46.794,0,0,0-11.668,10.266c-.737.947-1.457,1.832-2.046,2.723-.3.44-.611.854-.874,1.273l-.751,1.211c-.5.761-.866,1.5-1.219,2.126-.172.317-.341.608-.482.883l-.367.762-.52,1.05a1.917,1.917,0,0,1-.2.358,1.911,1.911,0,0,1,.141-.384l.464-1.079.343-.777c.133-.281.294-.577.459-.9.34-.64.695-1.388,1.182-2.161l.737-1.229c.259-.426.566-.844.863-1.291.583-.9,1.3-1.8,2.035-2.759A45.321,45.321,0,0,1,342.8,313.049c1.044-.607,2.026-1.2,3-1.667.482-.238.936-.49,1.391-.693l1.313-.575c.829-.385,1.615-.641,2.293-.9.341-.122.656-.245.951-.341l.814-.241,1.129-.322a1.891,1.891,0,0,1,.4-.091" transform="translate(-86.766 -82.33)" fill="#263238"/>
        <path id="Trazado_281608" data-name="Trazado 281608" d="M335.226,321.912a111.325,111.325,0,0,1-11.632,3.4,111.055,111.055,0,0,1,11.632-3.4" transform="translate(-86.436 -85.985)" fill="#263238"/>
        <path id="Trazado_281609" data-name="Trazado 281609" d="M339.087,334.817a9.206,9.206,0,0,1-.127-1.8c-.031-1.111-.035-2.648.012-4.344s.139-3.231.231-4.338a9.208,9.208,0,0,1,.227-1.788,10.353,10.353,0,0,1,.007,1.8c-.038,1.218-.084,2.7-.134,4.335s-.078,3.116-.108,4.334a10.228,10.228,0,0,1-.107,1.8" transform="translate(-90.535 -86.157)" fill="#263238"/>
        <path id="Trazado_281610" data-name="Trazado 281610" d="M353.662,326.615c-.091.007-.381-3.116-.648-6.972s-.409-6.99-.318-7,.381,3.115.648,6.973.409,6.989.318,7" transform="translate(-94.202 -83.512)" fill="#263238"/>
        <path id="Trazado_281611" data-name="Trazado 281611" d="M335.5,312.213a10.275,10.275,0,0,1,1.85-.056c1.14.008,2.714.041,4.452.1s3.312.128,4.45.2a10.329,10.329,0,0,1,1.842.177,10.214,10.214,0,0,1-1.847.056c-1.14-.007-2.715-.041-4.455-.1s-3.313-.128-4.452-.2a10.248,10.248,0,0,1-1.839-.177" transform="translate(-89.616 -83.381)" fill="#263238"/>
        <path id="Trazado_281612" data-name="Trazado 281612" d="M371.176,351.092a1.537,1.537,0,0,1-.04-.369c-.013-.278-.029-.629-.048-1.06-.042-.921-.051-2.257-.016-3.906s.142-3.612.341-5.785c.215-2.172.525-4.553.97-7.033s1.006-4.819,1.57-6.93c.58-2.107,1.167-3.987,1.721-5.545s1.028-2.809,1.392-3.66l.419-.979a1.626,1.626,0,0,1,.167-.333,1.537,1.537,0,0,1-.1.357c-.095.262-.215.593-.361,1-.327.863-.773,2.122-1.291,3.687s-1.086,3.444-1.648,5.548c-.546,2.108-1.083,4.441-1.539,6.911s-.762,4.843-.992,7c-.215,2.164-.35,4.12-.41,5.764s-.091,2.976-.089,3.9c-.005.432-.01.783-.013,1.06a1.548,1.548,0,0,1-.027.371" transform="translate(-99.112 -84.272)" fill="#263238"/>
        <path id="Trazado_281613" data-name="Trazado 281613" d="M370.16,339.428a7.562,7.562,0,0,1-1.1,1.208c-.714.711-1.727,1.667-2.883,2.68s-2.237,1.893-3.034,2.507a7.5,7.5,0,0,1-1.342.932,8.548,8.548,0,0,1,1.194-1.113l2.965-2.575,2.94-2.6a8.485,8.485,0,0,1,1.261-1.037" transform="translate(-96.641 -90.665)" fill="#263238"/>
        <path id="Trazado_281614" data-name="Trazado 281614" d="M382.277,344.941a13.016,13.016,0,0,1-1.172-1.623l-2.726-3.977L375.6,335.4a12.972,12.972,0,0,1-1.114-1.663,11.22,11.22,0,0,1,1.3,1.523c.764.972,1.787,2.34,2.866,3.889s2.005,2.984,2.65,4.039a11.283,11.283,0,0,1,.975,1.75" transform="translate(-100.029 -89.146)" fill="#263238"/>
        <path id="Trazado_281615" data-name="Trazado 281615" d="M374.092,318.847c.049.077-2.85,2.029-6.476,4.36s-6.606,4.159-6.655,4.082,2.849-2.029,6.477-4.36,6.605-4.159,6.655-4.082" transform="translate(-96.417 -85.168)" fill="#263238"/>
        <path id="Trazado_281616" data-name="Trazado 281616" d="M386.921,327.849a107.873,107.873,0,0,1-8.542-8.342,107.881,107.881,0,0,1,8.542,8.342" transform="translate(-101.07 -85.344)" fill="#263238"/>
        <path id="Trazado_281617" data-name="Trazado 281617" d="M392.841,324.009l2.489-.206a12.331,12.331,0,0,0,5.027-1.539,20,20,0,0,1,2.343-1.177c3.077-1.236,6.511-1.014,9.824-1.181a40.675,40.675,0,0,0,15.627-4,1.512,1.512,0,0,0,.68-.618c.512-.932-.438-1.761-1.255-2.265-4.2-2.584-8.463-5.2-13.22-6.485s-10.153-1.066-14.213,1.727c-4.763,3.278-6.5,10.011-7.3,15.738" transform="translate(-104.933 -81.68)" fill="#e8505b"/>
        <path id="Trazado_281618" data-name="Trazado 281618" d="M428.907,315.846a2.407,2.407,0,0,1-.422-.2l-1.18-.618c-1.023-.538-2.5-1.332-4.358-2.225a40.751,40.751,0,0,0-6.746-2.6,22.274,22.274,0,0,0-8.743-.708,14.948,14.948,0,0,0-7.971,3.423,17.726,17.726,0,0,0-4.15,5.829,48.845,48.845,0,0,0-1.806,4.539c-.183.521-.331.938-.443,1.255a2.458,2.458,0,0,1-.174.432,2.489,2.489,0,0,1,.111-.452l.385-1.275a41.374,41.374,0,0,1,1.716-4.6,17.648,17.648,0,0,1,4.161-5.959,15.11,15.11,0,0,1,8.129-3.522,22.255,22.255,0,0,1,8.867.742,39.172,39.172,0,0,1,6.767,2.683c1.856.923,3.313,1.749,4.318,2.323l1.15.672a2.422,2.422,0,0,1,.39.255" transform="translate(-104.952 -82.54)" fill="#263238"/>
        <path id="Trazado_281619" data-name="Trazado 281619" d="M428.636,319.191c-.051.076-3.307-2.031-7.271-4.7s-7.138-4.9-7.087-4.978,3.306,2.03,7.272,4.7,7.138,4.9,7.086,4.978" transform="translate(-110.659 -82.673)" fill="#263238"/>
        <path id="Trazado_281620" data-name="Trazado 281620" d="M427.386,309.267a7.908,7.908,0,0,1-2.37.427,8.016,8.016,0,0,1-2.417-.032,61.647,61.647,0,0,1,4.787-.4" transform="translate(-112.882 -82.603)" fill="#263238"/>
        <path id="Trazado_281621" data-name="Trazado 281621" d="M408.8,306.742a6.308,6.308,0,0,1-1.068,1.668,7.14,7.14,0,0,1-1.353,1.538,6.33,6.33,0,0,1,1.068-1.669,7.167,7.167,0,0,1,1.353-1.537" transform="translate(-108.547 -81.934)" fill="#263238"/>
        <path id="Trazado_281622" data-name="Trazado 281622" d="M410.055,322.784a8.607,8.607,0,0,1-1.567-.849c-.94-.571-2.211-1.407-3.569-2.393s-2.556-1.919-3.417-2.6a9.619,9.619,0,0,1-1.351-1.159,9.4,9.4,0,0,1,1.492.973l3.469,2.521c1.354.982,2.6,1.845,3.5,2.464a10.606,10.606,0,0,1,1.44,1.046" transform="translate(-106.885 -84.348)" fill="#263238"/>
        <path id="Trazado_281623" data-name="Trazado 281623" d="M395.717,344.669c-2.375-.627-5.2,1.683-5.694,4.089s.413,4.868,1.469,7.085a36.142,36.142,0,0,0,9.819,12.847,24.281,24.281,0,0,0,15.012,5.527c-1-4.663.266-9.533-.293-14.27a18.561,18.561,0,0,0-16.44-16.276c-1.516-.163-3.269-.4-3.874,1" transform="translate(-104.144 -91.765)" fill="#e8505b"/>
        <path id="Trazado_281624" data-name="Trazado 281624" d="M418.448,374.627a1.55,1.55,0,0,1-.338-.158,6.1,6.1,0,0,1-.888-.6,9.265,9.265,0,0,1-2.344-3.135c-.378-.735-.8-1.533-1.215-2.417l-1.277-2.824a27.458,27.458,0,0,0-1.57-3.018,23.772,23.772,0,0,0-2.161-2.938c-1.626-1.909-3.37-3.561-4.882-5.139a33.609,33.609,0,0,1-3.722-4.466,16.355,16.355,0,0,1-1.818-3.474,10.53,10.53,0,0,1-.317-1.018,1.553,1.553,0,0,1-.075-.365c.031-.009.165.485.512,1.336a17.941,17.941,0,0,0,1.892,3.389,35.451,35.451,0,0,0,3.748,4.386c1.519,1.561,3.273,3.209,4.915,5.138a23.325,23.325,0,0,1,2.184,2.983,26.849,26.849,0,0,1,1.571,3.061l1.249,2.835c.4.879.81,1.686,1.174,2.425a9.589,9.589,0,0,0,2.219,3.143c.693.6,1.163.82,1.143.852" transform="translate(-106.268 -92.175)" fill="#263238"/>
        <path id="Trazado_281625" data-name="Trazado 281625" d="M409.2,376.262a7.108,7.108,0,0,1,.218-1.6c.186-.978.491-2.32.9-3.782s.853-2.767,1.2-3.7a7.146,7.146,0,0,1,.649-1.477,8.608,8.608,0,0,1-.427,1.553c-.294.948-.7,2.256-1.108,3.711s-.748,2.782-.992,3.744a8.626,8.626,0,0,1-.446,1.548" transform="translate(-109.3 -97.685)" fill="#263238"/>
        <path id="Trazado_281626" data-name="Trazado 281626" d="M421.191,363.552a9.73,9.73,0,0,1-1.672-.385c-1.023-.267-2.436-.632-4.007-.987s-3.006-.629-4.045-.826a9.812,9.812,0,0,1-1.676-.369,8.1,8.1,0,0,1,1.713.138c1.051.139,2.5.379,4.08.734s2.991.76,4,1.085a8.074,8.074,0,0,1,1.607.609" transform="translate(-109.46 -96.42)" fill="#263238"/>
        <path id="Trazado_281627" data-name="Trazado 281627" d="M397.181,364.548a9.719,9.719,0,0,1,.257-1.85c.209-1.133.542-2.692.985-4.394s.917-3.225,1.289-4.316a9.656,9.656,0,0,1,.679-1.739,11.311,11.311,0,0,1-.457,1.809c-.314,1.106-.748,2.633-1.192,4.329s-.81,3.241-1.077,4.359a11.3,11.3,0,0,1-.485,1.8" transform="translate(-106.089 -94.09)" fill="#263238"/>
        <path id="Trazado_281628" data-name="Trazado 281628" d="M413.1,350.368c-.01.091-2.974-.15-6.619-.536s-6.6-.773-6.586-.864,2.973.149,6.62.536,6.595.773,6.585.864" transform="translate(-106.817 -93.209)" fill="#263238"/>
        <path id="Trazado_281629" data-name="Trazado 281629" d="M397.988,399.872c0,.091-10.419.165-23.27.165s-23.272-.074-23.272-.165,10.417-.165,23.272-.165,23.27.074,23.27.165" transform="translate(-93.876 -106.767)" fill="#455a64"/>
        <path id="Trazado_281630" data-name="Trazado 281630" d="M393.63,418.168c0,.092-7.02.166-15.679.166s-15.68-.074-15.68-.166,7.019-.165,15.68-.165,15.679.074,15.679.165" transform="translate(-96.767 -111.654)" fill="#455a64"/>
        <path id="Trazado_281631" data-name="Trazado 281631" d="M393.458,420.784c0,.091-6.9.165-15.405.165s-15.407-.074-15.407-.165,6.9-.165,15.407-.165,15.405.074,15.405.165" transform="translate(-96.867 -112.353)" fill="#455a64"/>
        <path id="Trazado_281632" data-name="Trazado 281632" d="M393.611,416.012c0,.092-7.261.166-16.217.166s-16.219-.074-16.219-.166,7.26-.165,16.219-.165,16.217.074,16.217.165" transform="translate(-96.475 -111.078)" fill="#455a64"/>
        <path id="Trazado_281633" data-name="Trazado 281633" d="M393.187,30.667c0,.106-4.92.165-10.986.133s-10.986-.144-10.985-.249,4.918-.165,10.987-.133,10.985.144,10.984.249" transform="translate(-99.157 -8.123)" fill="#263238"/>
        <path id="Trazado_281634" data-name="Trazado 281634" d="M386.237,37.663c-.106,0-.24-4.917-.3-10.983s-.026-10.987.079-10.987.241,4.915.3,10.984.026,10.986-.08,10.987" transform="translate(-103.08 -4.192)" fill="#263238"/>
        <path id="Trazado_281635" data-name="Trazado 281635" d="M412.153,252.09a146.307,146.307,0,0,1-13.314-6.8,146.572,146.572,0,0,1,13.314,6.8" transform="translate(-106.535 -65.519)" fill="#263238"/>
        <path id="Trazado_281636" data-name="Trazado 281636" d="M403.421,254.194a73.437,73.437,0,0,1,3.126-6.792,73.284,73.284,0,0,1,3.469-6.625,73.366,73.366,0,0,1-3.126,6.793,73.582,73.582,0,0,1-3.469,6.624" transform="translate(-107.758 -64.314)" fill="#263238"/>
        <path id="Trazado_281637" data-name="Trazado 281637" d="M52.278,184.156c.039.1-3.468,1.588-7.833,3.328s-7.936,3.071-7.975,2.973,3.468-1.588,7.834-3.328,7.936-3.071,7.975-2.973" transform="translate(-9.741 -49.189)" fill="#263238"/>
        <path id="Trazado_281638" data-name="Trazado 281638" d="M44.995,176.971c-.032.014-.125-.215-.39-.55a2.758,2.758,0,0,0-1.47-.953,2.632,2.632,0,0,0-2.418.6,2.587,2.587,0,0,0,1.8,4.507,2.633,2.633,0,0,0,2.166-1.23,2.755,2.755,0,0,0,.411-1.7c-.038-.426-.128-.656-.1-.668a1.371,1.371,0,0,1,.243.648,2.741,2.741,0,0,1-.327,1.862,2.882,2.882,0,0,1-2.386,1.442,2.923,2.923,0,0,1-2.041-5.121,2.881,2.881,0,0,1,2.724-.594,2.749,2.749,0,0,1,1.519,1.126,1.368,1.368,0,0,1,.269.638" transform="translate(-10.547 -46.767)" fill="#263238"/>
        <path id="Trazado_281639" data-name="Trazado 281639" d="M52.493,195.78c-.032.014-.125-.215-.39-.55a2.758,2.758,0,0,0-1.47-.953,2.6,2.6,0,1,0,1.544,3.874,2.755,2.755,0,0,0,.411-1.7c-.038-.426-.128-.656-.1-.668a1.376,1.376,0,0,1,.243.648,2.74,2.74,0,0,1-.327,1.862,2.882,2.882,0,0,1-2.386,1.442,2.923,2.923,0,0,1-2.041-5.121,2.882,2.882,0,0,1,2.724-.594,2.746,2.746,0,0,1,1.519,1.126,1.367,1.367,0,0,1,.269.637" transform="translate(-12.55 -51.792)" fill="#263238"/>
        <path id="Trazado_281640" data-name="Trazado 281640" d="M97.157,66.918s.083.2.223.578l.608,1.694,2.292,6.5.048.136-.144-.02-9.44-1.283.092-.025a24.466,24.466,0,0,1-11.294,4.93,23.387,23.387,0,0,1-3.511.3c-.6.015-1.206-.046-1.818-.067l-.923-.045c-.308-.026-.614-.086-.923-.129a23.3,23.3,0,0,1-7.405-2.231A25.088,25.088,0,0,1,58.24,72.5a24.655,24.655,0,0,1,3.969-38.03A24.074,24.074,0,0,1,69.355,31.3l.93-.238.463-.118.471-.072,1.873-.284c.625-.051,1.25-.067,1.869-.1a12.225,12.225,0,0,1,1.847.019,17.777,17.777,0,0,1,1.82.133l1.782.274c.589.1,1.155.283,1.728.418l.852.221c.278.09.549.2.822.3A24.244,24.244,0,0,1,89.8,34.9a24.514,24.514,0,0,1,10.42,18.631A23.28,23.28,0,0,1,99.552,61a23.656,23.656,0,0,1-1.613,4.461c-.238.487-.429.855-.567,1.092s-.216.365-.216.365.053-.127.179-.377.309-.621.534-1.113a24.884,24.884,0,0,0,1.538-4.463,23.375,23.375,0,0,0,.6-7.416A24.337,24.337,0,0,0,89.622,35.163a24,24,0,0,0-5.92-3c-.27-.1-.537-.2-.811-.29l-.841-.215c-.565-.132-1.124-.316-1.7-.408l-1.757-.266a17.513,17.513,0,0,0-1.795-.128,12.176,12.176,0,0,0-1.821-.015c-.61.036-1.225.053-1.842.1l-1.844.283-.465.071-.456.117-.916.237a23.718,23.718,0,0,0-7.034,3.136A24.344,24.344,0,0,0,58.5,72.246a24.759,24.759,0,0,0,6.617,4.705,23,23,0,0,0,7.3,2.219c.3.043.607.1.911.13l.91.048c.6.021,1.2.085,1.795.071a23.137,23.137,0,0,0,3.469-.285,24.3,24.3,0,0,0,11.19-4.825l.041-.032.051.007,9.43,1.349-.1.116L97.9,69.191l-.563-1.7c-.125-.382-.176-.576-.176-.576" transform="translate(-13.642 -8.134)" fill="#263238"/>
        <path id="Trazado_281641" data-name="Trazado 281641" d="M84.076,56.272a.982.982,0,0,1,.556.884v4.881a.979.979,0,0,1-1.246.943A3.041,3.041,0,0,0,81,63.347a2.738,2.738,0,0,0-1.3,1.741,2.805,2.805,0,0,0,.5,2.133,3.13,3.13,0,0,0,2.015,1.335,3.673,3.673,0,0,0,3.839-2.483.98.98,0,1,1,1.867.6A5.646,5.646,0,0,1,81.9,70.49a5.057,5.057,0,0,1-3.319-2.157,4.77,4.77,0,0,1-.8-3.645,4.7,4.7,0,0,1,2.2-3.018,5.129,5.129,0,0,1,2.693-.753V57.156a.981.981,0,0,1,1.4-.884" transform="translate(-20.751 -15.005)" fill="#e8505b"/>
        <path id="Trazado_281642" data-name="Trazado 281642" d="M84.564,53.207a.8.8,0,1,1,.822.781.8.8,0,0,1-.822-.781" transform="translate(-22.588 -13.993)" fill="#e8505b"/>
      </g>
    </g>
  </g>
</svg>
