<svg xmlns="http://www.w3.org/2000/svg" xmlns:xlink="http://www.w3.org/1999/xlink" width="328.374" height="312.072" viewBox="0 0 328.374 312.072">
  <defs>
    <clipPath id="clip-path">
      <rect id="Rectángulo_61521" data-name="Rectángulo 61521" width="328.374" height="312.072" fill="none"/>
    </clipPath>
    <clipPath id="clip-path-3">
      <path id="Trazado_219118" data-name="Trazado 219118" d="M200.819,122.486l32.286-14.725-35.271-5.239Z" transform="translate(-197.834 -102.523)" fill="none"/>
    </clipPath>
    <clipPath id="clip-path-5">
      <rect id="Rectángulo_61515" data-name="Rectángulo 61515" width="161.442" height="27.008" fill="none"/>
    </clipPath>
    <clipPath id="clip-path-6">
      <rect id="Rectángulo_61516" data-name="Rectángulo 61516" width="162.715" height="27.412" fill="none"/>
    </clipPath>
    <clipPath id="clip-path-7">
      <path id="Trazado_219125" data-name="Trazado 219125" d="M6.222,125.872A3.637,3.637,0,0,0,3,129.978l1.984,14.641a3.638,3.638,0,0,0,4.091,3.116l21.905-2.955L28.2,123.563Z" transform="translate(-2.965 -123.563)" fill="#a6e65a"/>
    </clipPath>
    <clipPath id="clip-path-9">
      <rect id="Rectángulo_61518" data-name="Rectángulo 61518" width="37.656" height="113.688" fill="none"/>
    </clipPath>
    <clipPath id="clip-path-10">
      <rect id="Rectángulo_61519" data-name="Rectángulo 61519" width="41.568" height="87.267" fill="none"/>
    </clipPath>
  </defs>
  <g id="Grupo_184209" data-name="Grupo 184209" clip-path="url(#clip-path)">
    <g id="Grupo_184188" data-name="Grupo 184188">
      <g id="Grupo_184187" data-name="Grupo 184187" clip-path="url(#clip-path)">
        <path id="Trazado_219091" data-name="Trazado 219091" d="M1.95,325.534c0,3.248,35.223,5.88,138.872,5.88s187.671-2.633,187.671-5.88-84.023-5.88-187.671-5.88S1.95,322.286,1.95,325.534" transform="translate(-0.118 -19.342)" fill="#d5d8ef"/>
        <path id="Trazado_219092" data-name="Trazado 219092" d="M298.61,308.376H112.269a3.758,3.758,0,0,1-3.758-3.758V31.041a3.758,3.758,0,0,1,3.758-3.758H298.61a3.758,3.758,0,0,1,3.758,3.758V304.618a3.758,3.758,0,0,1-3.758,3.758" transform="translate(-6.566 -1.651)" fill="#1f143f"/>
        <path id="Trazado_219093" data-name="Trazado 219093" d="M295.083,308.376H108.742a3.758,3.758,0,0,1-3.758-3.758V31.041a3.758,3.758,0,0,1,3.758-3.758H295.083a3.758,3.758,0,0,1,3.758,3.758V304.618a3.758,3.758,0,0,1-3.758,3.758" transform="translate(-6.353 -1.651)" fill="#4266b0"/>
        <rect id="Rectángulo_61508" data-name="Rectángulo 61508" width="167.682" height="256.754" transform="translate(115.032 37.801)" fill="#c1c6e0"/>
        <rect id="Rectángulo_61509" data-name="Rectángulo 61509" width="167.682" height="256.754" transform="translate(111.719 37.801)" fill="#fff"/>
        <path id="Trazado_219094" data-name="Trazado 219094" d="M246.244,44.815h-81.42V24.873a4.7,4.7,0,0,1,4.7-4.7h72.025a4.7,4.7,0,0,1,4.7,4.7Z" transform="translate(-9.973 -1.221)" fill="#1f143f"/>
        <path id="Trazado_219095" data-name="Trazado 219095" d="M206.935,0a18.954,18.954,0,1,0,18.954,18.954A18.954,18.954,0,0,0,206.935,0m0,28.431a9.477,9.477,0,1,1,9.477-9.477,9.477,9.477,0,0,1-9.477,9.477" transform="translate(-11.375 0)" fill="#1f143f"/>
        <rect id="Rectángulo_61510" data-name="Rectángulo 61510" width="20.393" height="20.393" rx="2" transform="translate(234.912 89.673)" fill="none" stroke="#d5d8ef" stroke-miterlimit="10" stroke-width="1"/>
        <path id="Trazado_219096" data-name="Trazado 219096" d="M243.888,102.159l10.094,10.095a2.385,2.385,0,0,0,3.322,0l20.727-20.727,2.921-2.922c2.14-2.14-1.18-5.462-3.321-3.322L256.9,106.01l-2.921,2.921H257.3L247.211,98.837c-2.141-2.14-5.463,1.181-3.322,3.321" transform="translate(-14.716 -5.119)" fill="#a6e65a"/>
        <rect id="Rectángulo_61511" data-name="Rectángulo 61511" width="20.393" height="20.393" rx="2" transform="translate(234.912 129.234)" fill="none" stroke="#d5d8ef" stroke-miterlimit="10" stroke-width="1"/>
        <path id="Trazado_219097" data-name="Trazado 219097" d="M243.888,144.269l10.094,10.094a2.385,2.385,0,0,0,3.322,0l20.727-20.727,2.921-2.922c2.14-2.14-1.18-5.462-3.321-3.321L256.9,148.119l-2.921,2.921H257.3l-10.094-10.094c-2.141-2.14-5.463,1.181-3.322,3.322" transform="translate(-14.716 -7.667)" fill="#a6e65a"/>
        <rect id="Rectángulo_61512" data-name="Rectángulo 61512" width="20.393" height="20.393" rx="2" transform="translate(234.912 166.961)" fill="none" stroke="#d5d8ef" stroke-miterlimit="10" stroke-width="1"/>
        <path id="Trazado_219098" data-name="Trazado 219098" d="M243.888,184.426l10.094,10.094a2.385,2.385,0,0,0,3.322,0l20.727-20.728,2.921-2.921c2.14-2.14-1.18-5.462-3.321-3.321L256.9,188.277l-2.921,2.921H257.3q-5.048-5.046-10.094-10.094c-2.141-2.14-5.463,1.181-3.322,3.322" transform="translate(-14.716 -10.097)" fill="#a6e65a"/>
        <rect id="Rectángulo_61513" data-name="Rectángulo 61513" width="20.393" height="20.393" rx="2" transform="translate(234.912 205.299)" fill="none" stroke="#d5d8ef" stroke-miterlimit="10" stroke-width="1"/>
        <path id="Trazado_219099" data-name="Trazado 219099" d="M243.888,225.232l10.094,10.094a2.385,2.385,0,0,0,3.322,0L278.031,214.6l2.921-2.922c2.14-2.14-1.18-5.462-3.321-3.321L256.9,229.083,253.982,232H257.3L247.211,221.91c-2.141-2.14-5.463,1.181-3.322,3.322" transform="translate(-14.716 -12.566)" fill="#a6e65a"/>
        <path id="Trazado_219100" data-name="Trazado 219100" d="M227.932,97.834H143.753a.94.94,0,0,1-.939-.939V95.41a.94.94,0,0,1,.939-.939h84.178a.94.94,0,0,1,.939.939v1.484a.94.94,0,0,1-.939.939" transform="translate(-8.642 -5.716)" fill="#c1c6e0"/>
        <path id="Trazado_219101" data-name="Trazado 219101" d="M227.932,107.06H143.753a.94.94,0,0,1-.939-.939v-1.484a.94.94,0,0,1,.939-.939h84.178a.94.94,0,0,1,.939.939v1.484a.94.94,0,0,1-.939.939" transform="translate(-8.642 -6.275)" fill="#c1c6e0"/>
        <path id="Trazado_219102" data-name="Trazado 219102" d="M207.641,116.286H143.753a.94.94,0,0,1-.939-.939v-1.484a.94.94,0,0,1,.939-.939h63.887a.94.94,0,0,1,.939.939v1.484a.94.94,0,0,1-.939.939" transform="translate(-8.642 -6.833)" fill="#c1c6e0"/>
        <path id="Trazado_219103" data-name="Trazado 219103" d="M227.932,139.944H143.753a.94.94,0,0,1-.939-.939V137.52a.94.94,0,0,1,.939-.939h84.178a.94.94,0,0,1,.939.939V139a.94.94,0,0,1-.939.939" transform="translate(-8.642 -8.265)" fill="#c1c6e0"/>
        <path id="Trazado_219104" data-name="Trazado 219104" d="M227.932,149.17H143.753a.94.94,0,0,1-.939-.939v-1.484a.94.94,0,0,1,.939-.939h84.178a.94.94,0,0,1,.939.939v1.484a.94.94,0,0,1-.939.939" transform="translate(-8.642 -8.823)" fill="#c1c6e0"/>
        <path id="Trazado_219105" data-name="Trazado 219105" d="M207.641,158.4H143.753a.94.94,0,0,1-.939-.94v-1.484a.94.94,0,0,1,.939-.939h63.887a.94.94,0,0,1,.939.939v1.484a.94.94,0,0,1-.939.94" transform="translate(-8.642 -9.381)" fill="#c1c6e0"/>
        <path id="Trazado_219106" data-name="Trazado 219106" d="M227.932,180.1H143.753a.94.94,0,0,1-.939-.939v-1.484a.94.94,0,0,1,.939-.94h84.178a.94.94,0,0,1,.939.94v1.484a.94.94,0,0,1-.939.939" transform="translate(-8.642 -10.694)" fill="#c1c6e0"/>
        <path id="Trazado_219107" data-name="Trazado 219107" d="M227.932,189.326H143.753a.94.94,0,0,1-.939-.939V186.9a.94.94,0,0,1,.939-.94h84.178a.94.94,0,0,1,.939.94v1.484a.94.94,0,0,1-.939.939" transform="translate(-8.642 -11.253)" fill="#c1c6e0"/>
        <path id="Trazado_219108" data-name="Trazado 219108" d="M207.641,198.552H143.753a.94.94,0,0,1-.939-.939v-1.484a.94.94,0,0,1,.939-.94h63.887a.94.94,0,0,1,.939.94v1.484a.94.94,0,0,1-.939.939" transform="translate(-8.642 -11.811)" fill="#c1c6e0"/>
        <path id="Trazado_219109" data-name="Trazado 219109" d="M227.932,220.908H143.753a.94.94,0,0,1-.939-.939v-1.484a.94.94,0,0,1,.939-.94h84.178a.94.94,0,0,1,.939.94v1.484a.94.94,0,0,1-.939.939" transform="translate(-8.642 -13.164)" fill="#c1c6e0"/>
        <path id="Trazado_219110" data-name="Trazado 219110" d="M227.932,230.134H143.753a.94.94,0,0,1-.939-.94V227.71a.94.94,0,0,1,.939-.94h84.178a.94.94,0,0,1,.939.94v1.484a.94.94,0,0,1-.939.94" transform="translate(-8.642 -13.722)" fill="#c1c6e0"/>
        <path id="Trazado_219111" data-name="Trazado 219111" d="M207.641,239.36H143.753a.94.94,0,0,1-.939-.939v-1.484a.94.94,0,0,1,.939-.939h63.887a.94.94,0,0,1,.939.939v1.484a.94.94,0,0,1-.939.939" transform="translate(-8.642 -14.28)" fill="#c1c6e0"/>
        <path id="Trazado_219112" data-name="Trazado 219112" d="M115.384,108.18c4.256.34,11.85,3.292,10.34,8.956a1.335,1.335,0,0,1-.356.676,1.537,1.537,0,0,1-1,.267c-1.9.053-3.962-.077-5.414-1.3-.912-.769-1.483-1.9-2.453-2.592a7.243,7.243,0,0,0-1.869-.863l-3.376-1.185c-.6-.209-1.268-.5-1.449-1.1a1.734,1.734,0,0,1,.875-1.731,7.022,7.022,0,0,1,4.7-1.126" transform="translate(-6.642 -6.544)" fill="#1f143f"/>
        <path id="Trazado_219113" data-name="Trazado 219113" d="M10.419,325.886l.064.013a28.185,28.185,0,0,0,5.392.307c3.277.027,6.543.059,9.819-.089,2.013-.09,2.831-1.092,3.206-2.958a23.929,23.929,0,0,0,.436-5.92,1.149,1.149,0,0,0-.127-.557,1.122,1.122,0,0,0-.6-.4,10.617,10.617,0,0,0-2.474-.581c-.579-.065-1.643-.274-2.135.095a7.637,7.637,0,0,0-1.206,1.735,11.745,11.745,0,0,1-1.444,1.821,9.5,9.5,0,0,1-3.963,2.157c-1.454.438-2.959.675-4.438,1.02a8.492,8.492,0,0,0-3.125,1.252,1.333,1.333,0,0,0-.682,1.147c.077.565.716.832,1.281.956" transform="translate(-0.553 -19.096)" fill="#1f143f"/>
        <path id="Trazado_219114" data-name="Trazado 219114" d="M94.587,325.886l-.064.013a28.184,28.184,0,0,1-5.392.307c-3.277.027-6.543.059-9.819-.089-2.013-.09-2.831-1.092-3.2-2.958a23.884,23.884,0,0,1-.437-5.92,1.16,1.16,0,0,1,.127-.557,1.121,1.121,0,0,1,.6-.4,10.6,10.6,0,0,1,2.473-.581c.579-.065,1.643-.274,2.135.095a7.637,7.637,0,0,1,1.206,1.735,11.745,11.745,0,0,0,1.444,1.821,9.5,9.5,0,0,0,3.963,2.157c1.454.438,2.959.675,4.438,1.02a8.492,8.492,0,0,1,3.125,1.252,1.333,1.333,0,0,1,.682,1.147c-.077.565-.716.832-1.281.956" transform="translate(-4.577 -19.096)" fill="#1f143f"/>
        <path id="Trazado_219115" data-name="Trazado 219115" d="M53.229,94.052a8.745,8.745,0,0,1-.2,1.451c-.516,2.151-2.105,3.744-3.271,5.55a7.639,7.639,0,0,0-.942,5.27c.582,3.833,2.895,7.438,5.447,10.27a9.593,9.593,0,0,0,1.881,1.807,14.231,14.231,0,0,0,2.823,1.062,37.452,37.452,0,0,0,7.91,1.7c1.322.138,2.649.194,3.977.214a8.1,8.1,0,0,0,3.475-1.211,14.65,14.65,0,0,0,3.482-2.3,21.006,21.006,0,0,0,2.847-3.441,8.615,8.615,0,0,0,1.582-3.055c.289-1.348-.055-2.809.446-4.093a13.161,13.161,0,0,1,1.417-2.2c1.573-2.439-.66-5.4.618-7.936.795-1.577,2.4-2.55,3.089-4.188a6.575,6.575,0,0,0-.009-4.944,11,11,0,0,0-6.018-5.482c-2.916-1.272-6.606-1.7-9.049.339-.519.432-.955.955-1.447,1.418-3.945,3.709-9.054.755-13.6,2.462a6.607,6.607,0,0,0-4.117,4.116,14.99,14.99,0,0,0-.344,3.191" transform="translate(-2.947 -4.929)" fill="#1f143f"/>
        <path id="Trazado_219116" data-name="Trazado 219116" d="M233.105,107.761l-35.271-5.239,2.986,19.963Z" transform="translate(-11.971 -6.204)" fill="#eeeaed"/>
      </g>
    </g>
    <g id="Grupo_184190" data-name="Grupo 184190" transform="translate(185.863 96.319)">
      <g id="Grupo_184189" data-name="Grupo 184189" clip-path="url(#clip-path-3)">
        <path id="Trazado_219117" data-name="Trazado 219117" d="M220.884,112.253a8.624,8.624,0,0,0,1.521,3.226c2.485,3.162,8.358,1.063,11.285-.258a10.13,10.13,0,0,0,6.2-8.4,5.239,5.239,0,0,0-.56-3.031c-1.143-2.007-3.97-2.42-6.021-2.882a15.074,15.074,0,0,0-7.625.1c-4.344,1.3-5.892,6.888-4.8,11.245" transform="translate(-199.208 -102.399)" fill="#a6e65a"/>
      </g>
    </g>
    <g id="Grupo_184198" data-name="Grupo 184198">
      <g id="Grupo_184197" data-name="Grupo 184197" clip-path="url(#clip-path)">
        <path id="Trazado_219119" data-name="Trazado 219119" d="M186.623,102.476,29.7,122.287l-1.9,21.848,162.013-21.446Z" transform="translate(-1.682 -6.201)" fill="#fb0"/>
        <g id="Grupo_184193" data-name="Grupo 184193" transform="translate(24.592 96.275)" opacity="0.2">
          <g id="Grupo_184192" data-name="Grupo 184192">
            <g id="Grupo_184191" data-name="Grupo 184191" clip-path="url(#clip-path-5)">
              <path id="Trazado_219120" data-name="Trazado 219120" d="M26.176,129.484,187.618,109.4l-1.095-6.921L29.606,122.287Z" transform="translate(-26.176 -102.476)" fill="#fff"/>
            </g>
          </g>
        </g>
        <g id="Grupo_184196" data-name="Grupo 184196" transform="translate(25.42 110.523)" opacity="0.2">
          <g id="Grupo_184195" data-name="Grupo 184195">
            <g id="Grupo_184194" data-name="Grupo 184194" clip-path="url(#clip-path-6)">
              <path id="Trazado_219121" data-name="Trazado 219121" d="M27.057,138.334,188.83,117.642l.942,5.965L27.759,145.053Z" transform="translate(-27.057 -117.641)" fill="#231f20"/>
            </g>
          </g>
        </g>
        <path id="Trazado_219122" data-name="Trazado 219122" d="M28.2,123.563l2.778,21.217L9.073,147.735a3.636,3.636,0,0,1-4.091-3.115L3,129.978a3.636,3.636,0,0,1,3.225-4.106Z" transform="translate(-0.179 -7.477)" fill="#68838c"/>
      </g>
    </g>
    <g id="Grupo_184200" data-name="Grupo 184200" transform="translate(2.785 116.086)">
      <g id="Grupo_184199" data-name="Grupo 184199" clip-path="url(#clip-path-7)">
        <path id="Trazado_219123" data-name="Trazado 219123" d="M11.529,122.823l3.416,25.59-11.281.8L0,125.507Z" transform="translate(-2.785 -123.518)" fill="#a6e65a"/>
        <path id="Trazado_219124" data-name="Trazado 219124" d="M17.562,122.359,21.044,148.4l5.517-.431-3.667-26.067" transform="translate(-3.848 -123.463)" fill="#a6e65a" stroke="#506d75" stroke-miterlimit="10" stroke-width="1"/>
      </g>
    </g>
    <g id="Grupo_184208" data-name="Grupo 184208">
      <g id="Grupo_184207" data-name="Grupo 184207" clip-path="url(#clip-path)">
        <path id="Trazado_219126" data-name="Trazado 219126" d="M199.621,117.242a3.914,3.914,0,1,1,2.393-4.749,3.766,3.766,0,0,1-2.393,4.749" transform="translate(-11.794 -6.632)" fill="#eeeaed"/>
        <path id="Trazado_219127" data-name="Trazado 219127" d="M200.4,123.482a3.088,3.088,0,1,1,2.3-3.869,3.189,3.189,0,0,1-2.3,3.869" transform="translate(-11.877 -7.105)" fill="#eeeaed"/>
        <path id="Trazado_219128" data-name="Trazado 219128" d="M198.2,109.4a3.551,3.551,0,1,1,2.178-4.31,3.421,3.421,0,0,1-2.178,4.31" transform="translate(-11.734 -6.201)" fill="#eeeaed"/>
        <path id="Trazado_219129" data-name="Trazado 219129" d="M32.887,276.2c3.455-14.26,6.658-28.583,8.507-43.131.592-4.66,1.163-9.323,1.811-13.978.7-5.037,1.509-9.827,2.509-16.973.362-2.584,5.7-2.536,8.245-3.125,6.345-1.47,12.884-.693,19.32-.587,2.368.04,5.58-.956,7.14,1.117,1.667,2.215,1.628,6.116,1.778,8.748,1.327,23.363-1.478,46.685-2.131,70.018-.274,9.8-.106,19.524.381,29.313.1,1.937-.389,3.857-2.595,4.139a8.256,8.256,0,0,1-4-.5c-2.086-1.2-3.4-5.165-4.11-7.274a61.244,61.244,0,0,1-2.12-9.343,171.627,171.627,0,0,1-1.893-17.613c-1.287-19.2-2.287-31.589-.858-52.458-1.95,11.231-1.911,18.564-5.356,29.43-3.267,10.3-8.029,20.043-12.957,29.635-2.733,5.319-5.332,10.712-8.3,15.907-1.482,2.594-3.051,5.139-4.771,7.584-1.51,2.146-2.7,4.319-5.53,4.65a15.706,15.706,0,0,1-3.67-.146c-.337-.04-.727-.115-.886-.416a1.046,1.046,0,0,1-.043-.634c.833-5.706,3.667-11.28,5.2-16.861,1.591-5.8,2.916-11.666,4.332-17.508" transform="translate(-1.412 -11.987)" fill="#4266b0"/>
        <path id="Trazado_219130" data-name="Trazado 219130" d="M44.563,202.867a5.9,5.9,0,0,1,1.185-.62,15.152,15.152,0,0,1,2.513-.784c2-.438,1.831.753,2.231,2.138.483,1.674,1.484,3.325,2.126,4.957.706,1.8,1.987,3.358-.078,4.527a8.748,8.748,0,0,1-3.433,1.088,1.106,1.106,0,0,1-1.2-.489c-.921-1.117-1.819-2.348-2.66-3.533-1.2-1.7-2.181-3.152-1.826-5.349a3.158,3.158,0,0,1,.389-1.152,2.7,2.7,0,0,1,.756-.784" transform="translate(-2.623 -12.185)" fill="#fab594"/>
        <path id="Trazado_219131" data-name="Trazado 219131" d="M45.759,215.359c2.664.169,5.212.08,7.482-1.479a12.653,12.653,0,0,0,4.377-5.625c.234-.557-.675-.8-.907-.25a11.454,11.454,0,0,1-4.077,5.153,7.874,7.874,0,0,1-2.7,1.158,15.424,15.424,0,0,1-4.171.1c-.6-.039-.6.9,0,.94" transform="translate(-2.742 -12.568)" fill="#4c83c3"/>
        <path id="Trazado_219132" data-name="Trazado 219132" d="M85.065,218.841a3.235,3.235,0,0,1-3.222-.8,8.93,8.93,0,0,1-1.455-2.37,31.639,31.639,0,0,1-2.2-8.173c-.095-.6-1-.343-.907.249a30.424,30.424,0,0,0,2.543,8.914,7.816,7.816,0,0,0,1.667,2.353,4.262,4.262,0,0,0,3.826.732c.595-.1.343-1-.25-.906" transform="translate(-4.676 -12.535)" fill="#4c83c3"/>
        <g id="Grupo_184203" data-name="Grupo 184203" transform="translate(43.381 186.118)" opacity="0.2">
          <g id="Grupo_184202" data-name="Grupo 184202">
            <g id="Grupo_184201" data-name="Grupo 184201" clip-path="url(#clip-path-9)">
              <path id="Trazado_219133" data-name="Trazado 219133" d="M74.794,198.4c-.078,0-.157,0-.233,0-6.436-.107-12.975-.883-19.32.586-2.541.589-7.883.541-8.245,3.125-.289,2.067-.562,3.932-.821,5.667A15.388,15.388,0,0,0,50,209.928a60.255,60.255,0,0,0,13.221,3.624c5.175.88,12.236,0,14.913,5.62,1.257,2.637,1.331,5.66,1.383,8.581.241,13.7.5,27.722-.7,41.5a159.09,159.09,0,0,1-3.135,20.9c-1.213,5.435-3.284,11.3-3.483,17,.729,1.694,1.691,3.379,2.928,4.091a8.261,8.261,0,0,0,4.005.5c2.206-.284,2.692-2.2,2.595-4.139-.488-9.789-.656-19.512-.381-29.313.653-23.334,3.458-46.655,2.13-70.019-.064-1.13-.094-2.5-.24-3.862a17.971,17.971,0,0,0-8.445-6" transform="translate(-46.175 -198.105)" fill="#231f20"/>
            </g>
          </g>
        </g>
        <path id="Trazado_219134" data-name="Trazado 219134" d="M88.161,138.137a6.919,6.919,0,0,0-1.659,1.246,4.7,4.7,0,0,0,1.38,7.289c3.293,1.436,7.288.458,10.591-.45a105.22,105.22,0,0,0,22.419-9.541,27.6,27.6,0,0,0,3.753-2.1,4.229,4.229,0,0,0,1.285-1.484Z" transform="translate(-5.163 -8.054)" fill="#fab594"/>
        <path id="Trazado_219135" data-name="Trazado 219135" d="M86.73,152.415a46.783,46.783,0,0,0-2.566-8.617c-1.3-3.152-3.424-6.937-6.441-8.759-2.825-1.707-8.4-.077-11.533.652-2.954.687-7.39,1.611-9.786,3.589-2.212,1.825-1.964,6.386-1.7,9.024.306,3.037,1.048,6.019,1.318,9.059.491,5.553-.608,11.119-1.922,16.537A137.623,137.623,0,0,1,48.137,193a6.148,6.148,0,0,0-.659,2.859c.174,1.682,1.695,2.867,3.15,3.729,9.58,5.67,21.308,4.8,32.068,4.27a4.773,4.773,0,0,0,2.562-.629,4.623,4.623,0,0,0,1.5-2.9c1.33-5.9,1.375-12,1.349-18.044-.043-9.8.573-20.145-1.381-29.868" transform="translate(-2.872 -8.126)" fill="#dfeae5"/>
        <path id="Trazado_219136" data-name="Trazado 219136" d="M71.291,137.1q-3.223-.984-6.374-2.187a1.613,1.613,0,0,1-.6-.337c-.438-.45-.361-1.45-.4-2.037a17.806,17.806,0,0,1,.037-2.316c.1-1.41.334-2.822.325-4.238a7.146,7.146,0,0,1,.513-3.336,4.807,4.807,0,0,1,3.229-2.293,14.273,14.273,0,0,1,4.068-.175,1.846,1.846,0,0,1,1.121.31c1.009.861.775,2.567.9,3.747a46.421,46.421,0,0,0,.949,5.1c.175.785.418,1.555.608,2.337a3.719,3.719,0,0,1,.226,2.041,8.458,8.458,0,0,1-2.858,3.4,1.249,1.249,0,0,1-.509.256,1.322,1.322,0,0,1-.585-.082c-.218-.065-.436-.13-.653-.2" transform="translate(-3.866 -7.268)" fill="#fab594"/>
        <path id="Trazado_219137" data-name="Trazado 219137" d="M65.881,129.557c2.678,1.714,6.432,2.737,9.613,1.834-.128-.679-.263-1.361-.417-2.052a46.431,46.431,0,0,1-.949-5.1c-.126-1.18.108-2.886-.9-3.746a1.833,1.833,0,0,0-1.121-.31,14.239,14.239,0,0,0-4.068.174,4.807,4.807,0,0,0-3.229,2.293,7.15,7.15,0,0,0-.513,3.337c0,.736-.034,1.524-.08,2.336a15.379,15.379,0,0,0,1.665,1.238" transform="translate(-3.886 -7.268)" fill="#eb977d"/>
        <path id="Trazado_219138" data-name="Trazado 219138" d="M57.868,113.432a17.571,17.571,0,0,0,7.62,12.305c3.231,2.068,8.03,3.139,11.5,1.023,4.653-2.841,5.59-9.737,5.472-14.69-.141-5.858-2.444-12.414-8.121-15.02-3.991-1.832-10.245-2.017-13.1,1.8a20.136,20.136,0,0,0-3.371,14.579" transform="translate(-3.489 -5.796)" fill="#fab594"/>
        <path id="Trazado_219139" data-name="Trazado 219139" d="M115.36,110.038c2.244,2.074,3.825,4.707,1.514,6.071-.753.445-1.674-.256-2.148-.989s-.914-1.642-1.766-1.838a2.771,2.771,0,0,0-1.91.534l-6.611,3.78a4.482,4.482,0,0,1-1.1.505,2.791,2.791,0,0,1-3.063-1.695,4.567,4.567,0,0,1,.23-3.689c1.914-4.087,4.775-4.5,8.829-4.643a7.627,7.627,0,0,1,6.029,1.964" transform="translate(-6.05 -6.539)" fill="#fab594"/>
        <path id="Trazado_219140" data-name="Trazado 219140" d="M75.628,96.612a7.708,7.708,0,0,0-3.4,1.264c-2.031,1.375-3.283,3.632-5.113,5.267a24.193,24.193,0,0,1-5.977,3.458,2.821,2.821,0,0,0-1.065.727,2.322,2.322,0,0,0-.369,1.587c.189,3.141,2.294,5.922.676,9.058a2.434,2.434,0,0,1-.671.861c-1.8,1.338-3.406-2.027-4.042-3.256a16.321,16.321,0,0,1-1.731-5.912c-.4-4.119.4-9.551,3.7-12.32a18.212,18.212,0,0,1,11.445-4.488,15.246,15.246,0,0,1,4.25.584,5.106,5.106,0,0,1,2,1.086,4.989,4.989,0,0,1,1.042.953,9.377,9.377,0,0,1,.476,1.087,7.554,7.554,0,0,0-1.219.046" transform="translate(-3.258 -5.619)" fill="#1f143f"/>
        <path id="Trazado_219141" data-name="Trazado 219141" d="M70.249,120.553a37.754,37.754,0,0,0,5.3-.519,20.905,20.905,0,0,0,5.143-1.887s-.169,1.906-.228,2.107a6.942,6.942,0,0,1-1.051,2.143,5.716,5.716,0,0,1-7.187,1.3A4.472,4.472,0,0,1,70.8,122.24c-.068-.111-.757-1.67-.553-1.687" transform="translate(-4.248 -7.149)" fill="#fff"/>
        <path id="Trazado_219142" data-name="Trazado 219142" d="M76.861,105.77c1.384-.674,3.368-.847,4.457.44a.474.474,0,0,0,.664,0,.48.48,0,0,0,0-.664c-1.373-1.622-3.854-1.435-5.6-.586a.474.474,0,0,0-.168.643.48.48,0,0,0,.643.168" transform="translate(-4.608 -6.312)" fill="#1f143f"/>
        <g id="Grupo_184206" data-name="Grupo 184206" transform="translate(21.919 212.57)" opacity="0.2">
          <g id="Grupo_184205" data-name="Grupo 184205">
            <g id="Grupo_184204" data-name="Grupo 184204" clip-path="url(#clip-path-10)">
              <path id="Trazado_219143" data-name="Trazado 219143" d="M64.379,227.049c-.54,1.728-.936,3.535-1.421,5.291a109.173,109.173,0,0,1-9.1,23.5c-4.43,8.07-10.678,14.416-16.593,21.362-2.087,2.449-4.139,4.994-6.043,7.636-.847,3.536-1.711,7.069-2.673,10.576-1.53,5.581-4.364,11.155-5.2,16.862a1.026,1.026,0,0,0,.042.634c.158.3.548.375.886.415a15.7,15.7,0,0,0,3.67.147c2.831-.332,4.019-2.5,5.529-4.65,1.719-2.444,3.29-4.99,4.771-7.584,2.968-5.2,5.566-10.588,8.3-15.907,4.928-9.592,9.69-19.334,12.957-29.637,3.445-10.865,3.407-18.2,5.357-29.43-.115,0-.456.679-.489.788" transform="translate(-23.331 -226.261)" fill="#231f20"/>
              <path id="Trazado_219144" data-name="Trazado 219144" d="M67.543,226.261c-.009.141-.019.277-.028.417.045-.2.087-.416.028-.417" transform="translate(-26.004 -226.261)" fill="#231f20"/>
            </g>
          </g>
        </g>
        <path id="Trazado_219145" data-name="Trazado 219145" d="M66.057,154.885q.034,2.222.067,4.445a10.528,10.528,0,0,1-.207,2.788,3.544,3.544,0,0,1-1.559,2.242c-1.7.971-4.387-.494-5.346-1.981a14.343,14.343,0,0,1-2.069-7.5l9.112-.023c0,.011,0,.023,0,.035" transform="translate(-3.446 -9.37)" fill="#72c384"/>
        <path id="Trazado_219146" data-name="Trazado 219146" d="M60.12,118.193c1.113,1.93,1.052,4.048-.137,4.736s-3.056-.321-4.169-2.249-1.052-4.049.137-4.736,3.056.32,4.169,2.249" transform="translate(-3.329 -7.003)" fill="#fab594"/>
        <path id="Trazado_219147" data-name="Trazado 219147" d="M69.129,112.469c.271,1.256-.05,2.391-.716,2.534s-1.425-.759-1.695-2.015.05-2.391.716-2.534,1.424.759,1.695,2.015" transform="translate(-4.031 -6.683)" fill="#1f143f"/>
        <path id="Trazado_219148" data-name="Trazado 219148" d="M80.478,110.193c.1,1.281-.367,2.364-1.046,2.417s-1.312-.941-1.413-2.223.367-2.363,1.046-2.417,1.311.941,1.413,2.223" transform="translate(-4.72 -6.533)" fill="#1f143f"/>
        <path id="Trazado_219149" data-name="Trazado 219149" d="M68.3,106.7a5.023,5.023,0,0,0-5.17,3.34.473.473,0,0,0,.328.578.481.481,0,0,0,.578-.328,3.779,3.779,0,0,1,1.484-1.929,3.888,3.888,0,0,1,2.53-.755.485.485,0,0,0,.578-.328.473.473,0,0,0-.328-.578" transform="translate(-3.819 -6.454)" fill="#1f143f"/>
        <path id="Trazado_219150" data-name="Trazado 219150" d="M76.447,133.5l-3.206,4.568,4.782,4.049v-7.787Z" transform="translate(-4.432 -8.078)" fill="#fff"/>
        <path id="Trazado_219151" data-name="Trazado 219151" d="M59.353,137.29l4.382-3.033,8.667,3.855-2.237,5.637Z" transform="translate(-3.591 -8.124)" fill="#fff"/>
        <path id="Trazado_219152" data-name="Trazado 219152" d="M49.27,199.934c-2.475.113-4.091-1.978-4.174-4.526q-.044-1.349.032-2.7c.387-7.073,3.274-13.6,5.756-20.125a46.933,46.933,0,0,0,3.323-17.864A41.319,41.319,0,0,0,51.3,140.374a.55.55,0,0,1-.059-.3.529.529,0,0,1,.13-.229,15.1,15.1,0,0,1,4.142-3.129,23.2,23.2,0,0,1,5-2.421,8.9,8.9,0,0,1,1.774-.552c1.437.348,3.02,4.879,3.589,6.137,5.96,13.2,3.553,28.962-2.5,41.68-2.954,6.206-6.343,12.347-11.294,17.116a3.949,3.949,0,0,1-1.353.96,5.015,5.015,0,0,1-1.452.3" transform="translate(-2.728 -8.092)" fill="#1f143f"/>
        <path id="Trazado_219153" data-name="Trazado 219153" d="M34.615,163.9c-1.69,2.857-3.694,5.951-4.246,9.173-.708,4.115.421,8,1.707,11.914A86.027,86.027,0,0,0,42.39,205.625c.175.263.409.558.724.536a.906.906,0,0,0,.419-.183l6.206-4.1a1.617,1.617,0,0,0,.654-2.471q-2.814-7.112-5.629-14.223a23.978,23.978,0,0,1-1.874-6.445,15.593,15.593,0,0,1,2.556-9.537,37.411,37.411,0,0,1,6.619-7.522,9.028,9.028,0,0,0,2.275-2.718c1.579-3.47,1.318-7.51.969-11.206-.185-1.963.107-8.475-3-8.41a2.741,2.741,0,0,0-1.543.708c-3.557,2.749-5.892,6.669-8.136,10.486-2.423,4.125-5.033,8.126-7.392,12.291-.2.351-.407.707-.619,1.066" transform="translate(-1.824 -8.432)" fill="#1f143f"/>
        <path id="Trazado_219154" data-name="Trazado 219154" d="M91.267,188.267c.142-9.667.285-19.347-.259-29.006q-.209-3.667-.557-7.321c-.147-1.583-.341-1.511.811-2.318a15.262,15.262,0,0,1,3.281-1.194c5.939-2.164,11.878-4.336,17.777-6.607,5.256-2.024,10.425-4.6,14.149-8.944a139.034,139.034,0,0,1-16.553,2.2,190.3,190.3,0,0,1-22.464,1.19,21.755,21.755,0,0,1-9.12-1.982c1.031,2.785,2.353,5.88,2.443,8.834.108,3.512.346,7.022.468,10.534q.361,10.334.338,20.676c-.023,10.673-.783,21-1.793,31.6a20.565,20.565,0,0,0,6.91-.616,2.676,2.676,0,0,0,1.111-.5,2.763,2.763,0,0,0,.65-1.067,35.509,35.509,0,0,0,2.479-9.07,58.635,58.635,0,0,0,.33-6.412" transform="translate(-4.74 -8.04)" fill="#1f143f"/>
        <path id="Trazado_219155" data-name="Trazado 219155" d="M64.343,181.56c6.053-12.719,8.459-28.479,2.5-41.68-.567-1.257-2.151-5.788-3.589-6.137a8.913,8.913,0,0,0-1.773.552c-.105.033-.2.077-.305.112a9.054,9.054,0,0,0,.787,1.745,20.749,20.749,0,0,1,1.21,4.111,49.479,49.479,0,0,1,.5,18.834,6.047,6.047,0,0,1,2.665.311,9.08,9.08,0,0,1-1.314,2.612c-.873,1.736-.541,3.8-.319,5.729a43.1,43.1,0,0,1-.926,14.975c.189-.388.381-.775.566-1.164" transform="translate(-3.702 -8.092)" fill="#274169"/>
        <path id="Trazado_219156" data-name="Trazado 219156" d="M86.729,160.353c-.667-4.454-1.288-8.916-1.982-13.366a37.885,37.885,0,0,0-3.838-11.594,15.59,15.59,0,0,1-2.577-1.012c1.031,2.785,2.352,5.88,2.442,8.834.107,3.512.346,7.022.468,10.535q.361,10.334.338,20.676c0,1.914-.039,3.813-.088,5.708,1.318-4.1,3.331-8.047,3.87-12.323a36.818,36.818,0,0,0-.112-7.7,2.7,2.7,0,0,0,1.48.241" transform="translate(-4.74 -8.131)" fill="#274169"/>
        <path id="Trazado_219157" data-name="Trazado 219157" d="M74.04,141.221a42.519,42.519,0,0,1,2.1,11.653,118.5,118.5,0,0,1,.177,11.924A128.148,128.148,0,0,1,73.9,188.564c-.943,4.352-1.956,8.688-2.748,13.072-.107.591.8.845.906.249,1.42-7.854,3.66-15.557,4.468-23.515.4-3.974.539-7.973.675-11.963.142-4.125.194-8.258-.051-12.382-.259-4.369-.678-8.922-2.2-13.054-.208-.562-1.116-.319-.906.25" transform="translate(-4.305 -8.511)" fill="#fff"/>
        <path id="Trazado_219158" data-name="Trazado 219158" d="M318.667,242.261,306.3,237.882l-6.51,11.607.394.14a30.73,30.73,0,0,0-7.22.378l.378-.18-7.687-10.864-11.838,5.645,3.6,12.811.378-.179a30.7,30.7,0,0,0-4.838,5.372l.14-.394-13.118-2.247-4.378,12.363,11.607,6.51.139-.394a30.683,30.683,0,0,0,.379,7.22l-.18-.378-10.864,7.687,5.645,11.838,12.811-3.6-.18-.378a30.629,30.629,0,0,0,5.373,4.838l-.394-.139L277.7,318.65l12.362,4.379,6.511-11.607-.394-.139a30.682,30.682,0,0,0,7.22-.379l-.378.18,7.686,10.864,11.838-5.645-3.6-12.811-.378.18A30.7,30.7,0,0,0,323.4,298.3l-.139.394,13.117,2.248,4.379-12.363-11.607-6.511-.14.394a30.732,30.732,0,0,0-.378-7.22l.179.378,10.865-7.686-5.645-11.839-12.812,3.6.18.378a30.7,30.7,0,0,0-5.372-4.838l.394.139Z" transform="translate(-15.467 -14.394)" fill="#6a8fbc"/>
        <path id="Trazado_219159" data-name="Trazado 219159" d="M308.143,256.217a26.792,26.792,0,1,1-34.2,16.31,26.793,26.793,0,0,1,34.2-16.31" transform="translate(-16.483 -15.41)" fill="#a0b3d9"/>
        <path id="Trazado_219160" data-name="Trazado 219160" d="M306.346,262.931a20.125,20.125,0,1,1-25.689,12.251,20.125,20.125,0,0,1,25.689-12.251" transform="translate(-16.912 -15.84)" fill="#5a82ad"/>
        <path id="Trazado_219161" data-name="Trazado 219161" d="M304.7,269.1a14,14,0,1,1-17.873,8.523A14,14,0,0,1,304.7,269.1" transform="translate(-17.307 -16.234)" fill="#fff"/>
        <path id="Trazado_219162" data-name="Trazado 219162" d="M332.948,179.932l-7.91-3.827-5.193,7.25.253.122a20.553,20.553,0,0,0-4.837-.281l.265-.092-4.318-7.8-8.3,2.887,1.456,8.8.264-.092a20.589,20.589,0,0,0-3.618,3.221l.122-.252-8.57-2.463-3.828,7.91,7.25,5.192.122-.252a20.6,20.6,0,0,0-.281,4.837l-.092-.265-7.8,4.318,2.886,8.3,8.8-1.455-.092-.265a20.559,20.559,0,0,0,3.221,3.618l-.252-.121-2.464,8.57,7.91,3.827,5.192-7.25-.252-.122a20.543,20.543,0,0,0,4.836.281l-.265.092,4.318,7.8,8.3-2.887-1.455-8.8-.265.092a20.578,20.578,0,0,0,3.618-3.221l-.122.252,8.571,2.463,3.827-7.91-7.25-5.192-.122.252a20.555,20.555,0,0,0,.281-4.836l.092.265,7.8-4.318-2.887-8.3-8.8,1.455.092.265a20.6,20.6,0,0,0-3.221-3.619l.252.122Z" transform="translate(-17.423 -10.607)" fill="#6a8fbc"/>
        <path id="Trazado_219163" data-name="Trazado 219163" d="M324.991,188.381a17.952,17.952,0,1,1-23.979,8.34,17.953,17.953,0,0,1,23.979-8.34" transform="translate(-18.106 -11.29)" fill="#a0b3d9"/>
        <path id="Trazado_219164" data-name="Trazado 219164" d="M323.332,192.69a13.485,13.485,0,1,1-18.012,6.264,13.485,13.485,0,0,1,18.012-6.264" transform="translate(-18.393 -11.578)" fill="#5a82ad"/>
        <path id="Trazado_219165" data-name="Trazado 219165" d="M321.809,196.648a9.381,9.381,0,1,1-12.531,4.358,9.382,9.382,0,0,1,12.531-4.358" transform="translate(-18.658 -11.842)" fill="#fff"/>
      </g>
    </g>
  </g>
</svg>
