<svg xmlns="http://www.w3.org/2000/svg" xmlns:xlink="http://www.w3.org/1999/xlink" width="60" height="60" viewBox="0 0 60 60">
  <defs>
    <clipPath id="clip-path">
      <rect id="Rectángulo_200886" data-name="Rectángulo 200886" width="26.982" height="36" fill="#fff"/>
    </clipPath>
  </defs>
  <g id="Grupo_668690" data-name="Grupo 668690" transform="translate(-1085.189 -3064)">
    <circle id="Elipse_5527" data-name="Elipse 5527" cx="30" cy="30" r="30" transform="translate(1085.189 3064)" fill="#7181f4"/>
    <g id="Grupo_557392" data-name="Grupo 557392" transform="translate(1102.189 3076)">
      <g id="Grupo_557391" data-name="Grupo 557391" clip-path="url(#clip-path)">
        <path id="Trazado_269378" data-name="Trazado 269378" d="M2.448,36a1.882,1.882,0,0,1-1.34-2.079c.04-1.651.02-3.3.006-4.956a1.8,1.8,0,0,1,.91-1.736.33.33,0,0,0,.11-.275c-.4-2.746-.85-5.484-1.191-8.237-.333-2.7-.57-5.4-.813-8.108C.035,9.537.008,8.457,0,7.38a2.792,2.792,0,0,1,4.483-2.3A2.945,2.945,0,0,1,6.048,2.563a2.735,2.735,0,0,1,2.939.255c.036-.243.049-.454.1-.656A2.755,2.755,0,0,1,11.151.076c.077-.021.151-.051.227-.076h.844a7.138,7.138,0,0,1,1.137.516,2.727,2.727,0,0,1,1.192,2.021c.01.079.023.157.033.232a7.866,7.866,0,0,1,1.1-.435A2.766,2.766,0,0,1,19.046,4.7a5.874,5.874,0,0,1,.044.735q0,5.657,0,11.314c0,.105,0,.211,0,.316a.622.622,0,0,0,.342.671.669.669,0,0,0,.742-.155c.768-.6,1.53-1.2,2.313-1.774a2.777,2.777,0,1,1,3.374,4.41c-1.707,1.333-3.431,2.645-5.147,3.967-.241.186-.474.385-.725.555a1.932,1.932,0,0,0-.9,1.857.793.793,0,0,0,.413.778,1.49,1.49,0,0,1,.712,1.371q.01,2.776,0,5.552A1.737,1.737,0,0,1,18.9,36Zm.772-8.938c.238,0,.425,0,.611,0,.371.008.583.192.591.5s-.212.535-.595.547c-.3.01-.609,0-.914,0-.532,0-.739.21-.74.75q0,2.654,0,5.308c0,.558.211.769.762.77q7.734,0,15.468,0c.538,0,.758-.209.76-.738q.007-2.672,0-5.343c0-.542-.209-.746-.745-.746q-2.039,0-4.078,0c-.1,0-.2.012-.328.021,0,.179,0,.33,0,.482a1.663,1.663,0,0,1-1.779,1.749c-1.066.006-2.133.01-3.2,0a1.667,1.667,0,0,1-1.717-1.709c0-.171,0-.342,0-.546-.42,0-.794.016-1.165,0a.522.522,0,1,1,.022-1.044c.105-.006.211,0,.316,0h9.265V23.038c-.375,0-.736.01-1.1,0A.518.518,0,0,1,14.1,22.5a.507.507,0,0,1,.554-.507,6.707,6.707,0,0,1,.773,0c.266.019.387-.054.363-.347s-.01-.609,0-.913a4.2,4.2,0,0,0-.322-1.852.521.521,0,0,0-.552-.361q-6.275.017-12.55.009c-.121,0-.243.015-.389.024l.468,3.437H8.306c1.324,0,2.648,0,3.972,0,.389,0,.606.209.6.535-.007.308-.222.5-.59.515-.094,0-.187,0-.281,0H2.591l.629,4.023m11.309-9.6a5.675,5.675,0,0,1-1-4.009q0-5.132,0-10.264a4.552,4.552,0,0,0-.035-.631,1.759,1.759,0,0,0-1.547-1.5,1.7,1.7,0,0,0-1.779,1.2,2.839,2.839,0,0,0-.095.8q-.009,5.062,0,10.124a2.814,2.814,0,0,1-.013.386A.469.469,0,0,1,9.585,14a.475.475,0,0,1-.544-.39,1.823,1.823,0,0,1-.03-.418q0-3.919,0-7.839c0-.176,0-.352-.016-.527A1.716,1.716,0,0,0,6.946,3.346,1.821,1.821,0,0,0,5.555,5.252q0,4.253,0,8.507a2.9,2.9,0,0,1-.008.351.475.475,0,0,1-.454.455.477.477,0,0,1-.557-.373,1.575,1.575,0,0,1-.034-.417c0-2.179,0-4.359-.008-6.538A1.674,1.674,0,0,0,3.147,5.608a1.638,1.638,0,0,0-1.871.9,2.292,2.292,0,0,0-.214,1.048c.17,2.711.368,5.42.57,8.129.044.59.138,1.176.21,1.774Zm2.308,9.578h1.209c0-.173.008-.323,0-.473a2.842,2.842,0,0,1,1.235-2.6c.4-.291.78-.6,1.17-.9l4.733-3.642a1.68,1.68,0,0,0,.715-1.686,1.717,1.717,0,0,0-2.791-1.069c-.791.584-1.563,1.195-2.341,1.8a1.664,1.664,0,0,1-2.727-1.427q0-5.8,0-11.6a3.823,3.823,0,0,0-.052-.7,1.718,1.718,0,0,0-2.162-1.36A1.75,1.75,0,0,0,14.58,5.2c0,2.636,0,5.271,0,7.907,0,2.582-.073,2.4,1.374,4.526a5.01,5.01,0,0,1,.889,2.939c-.012,1.921,0,3.842,0,5.763v.7m-8.461,1.1c0,.218-.012.393,0,.567a.587.587,0,0,0,.6.6q1.684.02,3.368,0a.579.579,0,0,0,.6-.6c.014-.183,0-.367,0-.571Z" transform="translate(0)" fill="#fff"/>
      </g>
    </g>
  </g>
</svg>
