<svg id="Grupo_183356" data-name="Grupo 183356" xmlns="http://www.w3.org/2000/svg" xmlns:xlink="http://www.w3.org/1999/xlink" width="401.213" height="412.156" viewBox="0 0 401.213 412.156">
  <defs>
    <clipPath id="clip-path">
      <rect id="Rectángulo_60827" data-name="Rectángulo 60827" width="401.213" height="412.156" fill="none"/>
    </clipPath>
    <clipPath id="clip-path-3">
      <rect id="Rectángulo_60825" data-name="Rectángulo 60825" width="163.693" height="141.893" fill="none"/>
    </clipPath>
  </defs>
  <g id="Grupo_183355" data-name="Grupo 183355" clip-path="url(#clip-path)">
    <g id="Grupo_183354" data-name="Grupo 183354">
      <g id="Grupo_183353" data-name="Grupo 183353" clip-path="url(#clip-path)">
        <path id="Trazado_218256" data-name="Trazado 218256" d="M352.425,320.9a183.468,183.468,0,1,0-278.322,0Z" transform="translate(0.385 0.231)" fill="#ffeedb"/>
        <path id="Trazado_218257" data-name="Trazado 218257" d="M141.68,370.824c0,4.713-16.832,8.534-37.594,8.534s-37.593-3.821-37.593-8.534,16.832-8.534,37.593-8.534,37.594,3.821,37.594,8.534" transform="translate(0.858 4.677)" fill="#cfb091"/>
        <path id="Trazado_218258" data-name="Trazado 218258" d="M341.182,379.109c-7.832,0-15.295.232-22.1.65,4.746-1.322,7.445-2.839,7.445-4.451,0-5.148-27.5-9.321-61.413-9.321s-61.413,4.173-61.413,9.321,27.5,9.32,61.413,9.32c8.7,0,16.981-.277,24.484-.772-3.723,1.121-5.819,2.381-5.819,3.714,0,4.674,25.7,8.462,57.4,8.462s57.4-3.788,57.4-8.462-25.7-8.462-57.4-8.462" transform="translate(2.63 4.725)" fill="#cfb091"/>
        <path id="Trazado_218259" data-name="Trazado 218259" d="M177.256,383.809q-1.7,0-3.382.019c2.179-1,3.382-2.088,3.382-3.223,0-5.013-23.256-9.077-51.944-9.077s-51.944,4.064-51.944,9.077c0,4.993,23.072,9.043,51.6,9.076-5.175,1.736-8.153,3.751-8.153,5.9,0,6.5,27.06,11.775,60.439,11.775s60.439-5.272,60.439-11.775-27.06-11.775-60.439-11.775" transform="translate(0.947 4.797)" fill="#cfb091"/>
        <path id="Trazado_218260" data-name="Trazado 218260" d="M394.991,370.619c0,1.914-5.556,3.465-12.408,3.465s-12.408-1.551-12.408-3.465,5.555-3.465,12.408-3.465,12.408,1.552,12.408,3.465" transform="translate(4.779 4.74)" fill="#cfb091"/>
        <path id="Trazado_218261" data-name="Trazado 218261" d="M362.151,364.615c0,.778-2.494,1.409-5.571,1.409s-5.571-.631-5.571-1.409,2.494-1.409,5.571-1.409,5.571.631,5.571,1.409" transform="translate(4.532 4.689)" fill="#cfb091"/>
        <path id="Trazado_218262" data-name="Trazado 218262" d="M194.206,366.938c0,.979-2.745,1.773-6.132,1.773s-6.132-.793-6.132-1.773,2.745-1.773,6.132-1.773,6.132.794,6.132,1.773" transform="translate(2.349 4.714)" fill="#cfb091"/>
        <path id="Trazado_218263" data-name="Trazado 218263" d="M215.773,360.986c0,.739-1.729,1.338-3.862,1.338s-3.861-.6-3.861-1.338,1.729-1.338,3.861-1.338,3.862.6,3.862,1.338" transform="translate(2.686 4.643)" fill="#cfb091"/>
        <path id="Trazado_218264" data-name="Trazado 218264" d="M67.265,362.488c-5.937-17.016-11.944-34.179-21.328-49.564S23.394,283.863,6.7,277.063C12.4,298.7,18,321.505,32.658,338.4c9.4,10.838,21.8,17.615,34.607,24.083" transform="translate(0.087 3.577)" fill="#8dc63f"/>
        <path id="Trazado_218265" data-name="Trazado 218265" d="M61.113,348.193c-3.772-7.046-7.648-14.037-11.778-20.88q-3.434-5.69-7.119-11.223c-5.288-7.9-11.308-15.739-19.7-20.213,3.324,8.783,6.651,17.569,10.341,26.2,2.895,6.773,6.042,13.5,10.4,19.442A74.853,74.853,0,0,0,55.8,354.535c2.332,1.949,4.743,3.8,7.19,5.6.032.024.069.055.1.079q1.974,1.023,3.965,2.027-1.462-4.186-2.944-8.374-1.494-2.844-3-5.678" transform="translate(0.291 3.82)" fill="#7cb332"/>
        <path id="Trazado_218266" data-name="Trazado 218266" d="M61,357.493c-8.672-7.818-17.427-15.7-27.55-21.514S11.6,326.488,0,327.823c9.97,10.517,20.256,21.729,33.845,26.764,8.715,3.229,17.869,3.219,27.158,2.905" transform="translate(0 4.229)" fill="#8dc63f"/>
        <path id="Trazado_218267" data-name="Trazado 218267" d="M53.058,351.285c-4.336-2.828-8.716-5.592-13.193-8.193q-3.722-2.164-7.539-4.159c-5.464-2.841-11.324-5.419-17.482-5.349,4.623,3.953,9.249,7.909,14.034,11.666a62.677,62.677,0,0,0,11.961,7.806,48.5,48.5,0,0,0,11.177,3.485c1.932.381,3.878.682,5.83.945.025,0,.056.009.082.013q1.44-.035,2.884-.083-2.133-1.924-4.28-3.841-1.735-1.15-3.475-2.29" transform="translate(0.192 4.307)" fill="#7cb332"/>
        <path id="Trazado_218268" data-name="Trazado 218268" d="M55.448,320.182c-.424-11.668-.863-23.439-3.733-34.756s-8.4-22.3-17.431-29.694c-.611,14.48-1.5,29.669,4.344,42.93,3.748,8.505,10.127,15.07,16.819,21.52" transform="translate(0.437 3.302)" fill="#8dc63f"/>
        <path id="Trazado_218269" data-name="Trazado 218269" d="M54.366,310.158c-.989-5.082-2.052-10.15-3.3-15.175-.692-2.786-1.439-5.558-2.262-8.308-1.763-5.9-3.992-11.9-8.329-16.275.38,6.071.76,12.146,1.394,18.2a62.706,62.706,0,0,0,2.722,14.022,48.512,48.512,0,0,0,5.278,10.451c1.072,1.652,2.21,3.26,3.38,4.844.015.02.032.047.048.068q1.027,1.009,2.067,2.012-.1-2.87-.222-5.745c-.254-1.364-.509-2.728-.775-4.089" transform="translate(0.523 3.491)" fill="#7cb332"/>
        <path id="Trazado_218270" data-name="Trazado 218270" d="M257.4,339.343c6.972-9.365,14-18.821,18.841-29.443s7.4-22.647,4.988-34.07c-9.538,10.912-19.738,22.2-23.478,36.2-2.4,8.979-1.533,18.092-.35,27.311" transform="translate(3.308 3.561)" fill="#8dc63f"/>
        <path id="Trazado_218271" data-name="Trazado 218271" d="M262.772,330.85c2.41-4.582,4.752-9.2,6.923-13.9,1.2-2.605,2.355-5.236,3.435-7.9,2.317-5.7,4.335-11.781,3.689-17.905-3.5,4.973-7.009,9.948-10.3,15.064a62.677,62.677,0,0,0-6.654,12.639,48.525,48.525,0,0,0-2.423,11.455c-.2,1.959-.317,3.926-.4,5.893,0,.026,0,.057-.006.083q.17,1.43.353,2.864,1.714-2.3,3.423-4.621.983-1.834,1.955-3.674" transform="translate(3.318 3.759)" fill="#7cb332"/>
        <path id="Trazado_218272" data-name="Trazado 218272" d="M262.5,315.917c3.536-9.407,7.1-18.9,8.572-28.843s.729-20.5-3.989-29.37c-5.29,11.3-11.039,23.066-10.8,35.538.154,8,3.042,15.33,6.215,22.675" transform="translate(3.309 3.327)" fill="#8dc63f"/>
        <path id="Trazado_218273" data-name="Trazado 218273" d="M264.934,307.6c.9-4.365,1.739-8.743,2.416-13.149.375-2.442.7-4.892.96-7.349.558-5.272.78-10.779-1.213-15.691-1.713,4.948-3.428,9.9-4.932,14.915a53.946,53.946,0,0,0-2.493,12.039,41.748,41.748,0,0,0,.723,10.053c.3,1.667.674,3.322,1.077,4.968.005.021.01.048.015.07q.48,1.143.973,2.284.871-2.314,1.732-4.637c.25-1.168.5-2.335.741-3.5" transform="translate(3.352 3.504)" fill="#7cb332"/>
        <path id="Trazado_218274" data-name="Trazado 218274" d="M262.218,119.48A78.537,78.537,0,0,0,233.839,96.2c-2.148,28.575-3.224,57.326-2.6,85.975,7.691-4.007,15.241-8.45,21.65-14.293s11.729-13.187,13.86-21.593c2.434-9.606.695-19.887-4.532-26.808" transform="translate(2.983 1.242)" fill="#1c75bc"/>
        <path id="Trazado_218275" data-name="Trazado 218275" d="M235.274,96.919a8.917,8.917,0,0,0-1.722,3.236c-.007.022-.009.047-.016.069q-.348,4.854-.652,9.713-.129,16.993-.258,33.986c-.044,5.764-.058,11.7,2.068,17.056a29.975,29.975,0,0,0,4.279,7.22c.966,1.249,3.455,5.3,5.478,4.78,1.77-.452,2.37-6.076,2.861-7.694q1.424-4.689,3.15-9.277a15.2,15.2,0,0,0,1.272-4.924,14.542,14.542,0,0,0-1.023-4.843c-3.034-9.105-5.97-18.339-6.857-27.9a110.03,110.03,0,0,1-.027-16.365,77.942,77.942,0,0,0-8.552-5.063" transform="translate(3.003 1.251)" fill="#155f99"/>
        <path id="Trazado_218276" data-name="Trazado 218276" d="M91.52,42.055S81.965,41.28,73.229,54.7c22.79-5.191,35.072-.886,35.072-.886s-6.466-12.378-16.781-11.76" transform="translate(0.945 0.543)" fill="#808285"/>
        <path id="Trazado_218277" data-name="Trazado 218277" d="M150.673,44.136a75.145,75.145,0,0,1-10.037-15.247c4.09-3.6,4.506-10.756,2.88-15.957A18.619,18.619,0,0,0,132.5,1.589,26.113,26.113,0,0,0,116.434.963c-6.4,1.666-12.55,5.665-15.1,11.769s-.337,14.293,5.7,16.981c-2.966,8.1-6.96,16.1-12.529,22.684,15.942.135,31.889.269,47.826-.191,2.6-.075,5.351-.213,7.508-1.666a4.314,4.314,0,0,0,.826-6.4m-18.7-21.963a10.839,10.839,0,0,1-10.106,1.037,8.336,8.336,0,0,1-4.589-4.046,8.291,8.291,0,0,1-.23-5.806,10.153,10.153,0,0,1,3.445-4.967c2.175-1.718,13.151-4.637,15.662,4.316.989,3.525-1.26,7.425-4.181,9.466" transform="translate(1.22 0)" fill="#bcbec0"/>
        <path id="Trazado_218278" data-name="Trazado 218278" d="M107.777,52.461a131.114,131.114,0,0,1,8.4-22.669,15.805,15.805,0,0,1-10.9-14.435A15.852,15.852,0,0,1,111.774,2.6c-4.566,2.113-8.521,5.512-10.435,10.1-2.546,6.1-.338,14.294,5.7,16.982-2.965,8.1-6.959,16.1-12.529,22.684q6.632.056,13.263.1" transform="translate(1.22 0.034)" fill="#d1d3d4"/>
        <path id="Trazado_218279" data-name="Trazado 218279" d="M33.373,47.064h205.64l26.279,299.759L62.149,371.316Z" transform="translate(0.431 0.608)" fill="#1c75bc"/>
        <path id="Trazado_218280" data-name="Trazado 218280" d="M184.45,78.374s18.558-6.876,12.543-31.311h-25.72Z" transform="translate(2.211 0.608)" fill="#155f99"/>
        <path id="Trazado_218281" data-name="Trazado 218281" d="M33.472,47.064l-7.72,5.625L54.7,368.333l7.545,2.983Z" transform="translate(0.332 0.608)" fill="#519bd6"/>
        <path id="Trazado_218282" data-name="Trazado 218282" d="M265.071,346.707,246.955,140.07l-14.48-80.488L50.615,55.993S48.645,292.716,85.731,368.33Z" transform="translate(0.653 0.723)" fill="#155f99"/>
        <path id="Trazado_218283" data-name="Trazado 218283" d="M54.151,61.756l183.4-3.29c6.116,90.327,16.716,180.343,34.245,269.163-61.033,1.868-122.371,10.4-182.346,21.864-16.742-60.811-35.3-233.8-35.3-287.736" transform="translate(0.699 0.755)" fill="#fff"/>
        <path id="Trazado_218284" data-name="Trazado 218284" d="M176.515,59.524l7.867,18.694A22.875,22.875,0,0,0,197.99,59.139l-21.475.385" transform="translate(2.279 0.764)" fill="#e6e7e8"/>
        <path id="Trazado_218285" data-name="Trazado 218285" d="M110.758,44.453l38.858-1.77a75.175,75.175,0,0,1-6.836-9.852,55.89,55.89,0,0,0-13.019,2.68,101.06,101.06,0,0,0-19,8.941" transform="translate(1.43 0.424)" fill="#808285"/>
        <path id="Trazado_218286" data-name="Trazado 218286" d="M101.311,78.422l84.172.058c4.431-9.6,2.5-21.127-1.035-31.547a9.087,9.087,0,0,0-7.766-6.16,374.444,374.444,0,0,0-85.394,1.322c9.373,4.935,10.854,22.815,10.024,36.327" transform="translate(1.179 0.503)" fill="#bcbec0"/>
        <path id="Trazado_218287" data-name="Trazado 218287" d="M186.609,54.673l-87.046.243A68.892,68.892,0,0,1,101.4,71.368l86.154-.456a43.9,43.9,0,0,0-.945-16.239" transform="translate(1.285 0.706)" fill="#d1d3d4"/>
        <path id="Trazado_218288" data-name="Trazado 218288" d="M139.294,40.882c-5.15.108-10.423.453-15.142,2.517-.844.369-1.8,1.05-1.635,1.956.147.786,1.05,1.141,1.824,1.344,11.856,3.115,24.25,2.973,36.385,2.076,2.384-.176,14.615.172,14.1-3.078-.69-4.342-11.325-3.821-14.317-4.089a192.353,192.353,0,0,0-21.214-.726" transform="translate(1.581 0.527)" fill="#d1d3d4"/>
        <path id="Trazado_218289" data-name="Trazado 218289" d="M119.13,45.381c0,1.259-2.636,2.279-5.887,2.279s-5.888-1.02-5.888-2.279,2.636-2.279,5.888-2.279,5.887,1.02,5.887,2.279" transform="translate(1.386 0.556)" fill="#d1d3d4"/>
        <path id="Trazado_218290" data-name="Trazado 218290" d="M228.2,144.623l-33.311,1.688-6.366-40.391,33.309-1.689Zm-29.875-2.542,25.172-1.275-5.1-32.342-25.171,1.276Z" transform="translate(2.434 1.346)" fill="#bcbec0"/>
        <path id="Trazado_218291" data-name="Trazado 218291" d="M238.231,214.178l-33.318,1.535-6.183-40.419,33.318-1.536Zm-29.864-2.68,25.177-1.161-4.95-32.364-25.177,1.161Z" transform="translate(2.566 2.243)" fill="#bcbec0"/>
        <path id="Trazado_218292" data-name="Trazado 218292" d="M217.847,285.59l-6.895-40.3,33.285-2.123,6.9,40.3Zm-2.141-36.548,5.52,32.271,25.154-1.6-5.521-32.272Z" transform="translate(2.723 3.139)" fill="#bcbec0"/>
        <path id="Trazado_218293" data-name="Trazado 218293" d="M73.286,128.478a2.532,2.532,0,0,1-.08-5.064l104.952-3.357a2.533,2.533,0,0,1,.162,5.063L73.369,128.477h-.083" transform="translate(0.913 1.55)" fill="#808285"/>
        <path id="Trazado_218294" data-name="Trazado 218294" d="M75.29,138.966a2.532,2.532,0,0,1-.08-5.062l104.952-3.358a2.533,2.533,0,0,1,.162,5.063L75.373,138.965H75.29" transform="translate(0.939 1.685)" fill="#808285"/>
        <path id="Trazado_218295" data-name="Trazado 218295" d="M77.292,149.433a2.532,2.532,0,0,1-.08-5.064l52.476-1.677a2.532,2.532,0,1,1,.162,5.062l-52.475,1.678h-.083" transform="translate(0.965 1.842)" fill="#808285"/>
        <path id="Trazado_218296" data-name="Trazado 218296" d="M70.983,118.026a2.532,2.532,0,0,1-.08-5.064l52.476-1.678a2.532,2.532,0,1,1,.162,5.062l-52.475,1.679h-.083" transform="translate(0.884 1.437)" fill="#8dc63f"/>
        <path id="Trazado_218297" data-name="Trazado 218297" d="M87.3,203.6a2.532,2.532,0,0,1-.235-5.053l104.54-9.87a2.532,2.532,0,1,1,.475,5.041L87.541,203.586a2.409,2.409,0,0,1-.241.011" transform="translate(1.094 2.436)" fill="#808285"/>
        <path id="Trazado_218298" data-name="Trazado 218298" d="M89.95,213.941a2.532,2.532,0,0,1-.235-5.053l104.54-9.87a2.532,2.532,0,1,1,.476,5.041L90.191,213.93c-.081.007-.161.011-.241.011" transform="translate(1.129 2.569)" fill="#808285"/>
        <path id="Trazado_218299" data-name="Trazado 218299" d="M92.6,224.221a2.532,2.532,0,0,1-.235-5.053l52.27-4.936a2.532,2.532,0,1,1,.476,5.042l-52.27,4.936c-.081.007-.161.011-.241.011" transform="translate(1.163 2.766)" fill="#808285"/>
        <path id="Trazado_218300" data-name="Trazado 218300" d="M84.353,193.266a2.532,2.532,0,0,1-.235-5.053l52.27-4.935a2.532,2.532,0,1,1,.475,5.041l-52.269,4.936c-.081.007-.162.011-.241.011" transform="translate(1.056 2.366)" fill="#8dc63f"/>
        <path id="Trazado_218301" data-name="Trazado 218301" d="M99.546,276.768a2.532,2.532,0,0,1-.275-5.048l104.364-11.577a2.532,2.532,0,0,1,.558,5.033L99.828,276.752a2.393,2.393,0,0,1-.282.016" transform="translate(1.253 3.358)" fill="#808285"/>
        <path id="Trazado_218302" data-name="Trazado 218302" d="M102.365,287.067a2.532,2.532,0,0,1-.276-5.048l104.364-11.577a2.532,2.532,0,0,1,.558,5.033L102.647,287.051a2.392,2.392,0,0,1-.282.016" transform="translate(1.289 3.491)" fill="#808285"/>
        <path id="Trazado_218303" data-name="Trazado 218303" d="M105.185,297.292a2.532,2.532,0,0,1-.276-5.048l52.182-5.788a2.532,2.532,0,1,1,.557,5.033l-52.182,5.787a2.412,2.412,0,0,1-.282.016" transform="translate(1.325 3.698)" fill="#808285"/>
        <path id="Trazado_218304" data-name="Trazado 218304" d="M96.432,266.477a2.532,2.532,0,0,1-.277-5.048l52.182-5.789a2.532,2.532,0,1,1,.559,5.033l-52.182,5.788a2.41,2.41,0,0,1-.283.016" transform="translate(1.212 3.3)" fill="#8dc63f"/>
        <path id="Trazado_218305" data-name="Trazado 218305" d="M186.881,110.089c7.238,2.375,13.952,5.59,19.435,11.372,7.114-9.157,13.525-17.447,23.561-24.582a130.12,130.12,0,0,0-21.85,37.6,72.047,72.047,0,0,0-21.147-24.391" transform="translate(2.413 1.251)" fill="#39b54a"/>
        <path id="Trazado_218306" data-name="Trazado 218306" d="M197.006,182.852c7.238,2.375,13.952,5.59,19.435,11.372,7.114-9.157,13.525-17.447,23.561-24.582a130.146,130.146,0,0,0-21.85,37.6,72.044,72.044,0,0,0-21.146-24.391" transform="translate(2.543 2.19)" fill="#39b54a"/>
        <path id="Trazado_218307" data-name="Trazado 218307" d="M209.562,250.853c7.238,2.376,13.952,5.59,19.435,11.372,7.114-9.157,13.525-17.447,23.561-24.582a130.144,130.144,0,0,0-21.851,37.6,72.033,72.033,0,0,0-21.146-24.391" transform="translate(2.706 3.068)" fill="#39b54a"/>
        <path id="Trazado_218308" data-name="Trazado 218308" d="M270.842,357.136l-20.253,9.83c-.793.385-1.713.977-1.643,1.856.086,1.067,1.475,1.39,2.543,1.428l28.634,1.023V359.654a47.287,47.287,0,0,1-9.281-2.518" transform="translate(3.214 4.611)" fill="#fff"/>
        <path id="Trazado_218309" data-name="Trazado 218309" d="M337.877,375.664c-1.942,3.8-10.86,7.468-16.687,10.3-.684.332-1.477.844-1.416,1.6.073.921,1.272,1.2,2.194,1.233,5.949.213,15.437.425,23.351.637a4.916,4.916,0,0,0,4.54-7.086l-4.554-9.893c-2.549-.445-5.035,4.2-7.428,3.213" transform="translate(4.128 4.808)" fill="#fff"/>
        <path id="Trazado_218310" data-name="Trazado 218310" d="M335.864,200.812c-10.747,3.692-21.13,3.523-31.005,4.873-1.738,2.428-8.41,12.256-10.148,14.683l27.866,3.5a13.091,13.091,0,0,0,4.53.039,10.064,10.064,0,0,0,5.389-3.875c4.132-5.24,5.239-12.814,3.369-19.219" transform="translate(3.805 2.593)" fill="#092942"/>
        <path id="Trazado_218311" data-name="Trazado 218311" d="M286.422,186.62c3.612-5.528,8.6-9.36,13.638-8.606-.411-.062-4.306,9.01-4.906,10.044a67.074,67.074,0,0,1-6.138,8.9,52.975,52.975,0,0,1-6.9,7.027c-.715.6-2.658,2.861-3.275,1.048-.391-1.148,1.259-4.652,1.635-5.709a60.607,60.607,0,0,1,5.949-12.709" transform="translate(3.599 2.297)" fill="#092942"/>
        <path id="Trazado_218312" data-name="Trazado 218312" d="M393.263,135.563,280.116,235.717l-17.952-20.276L375.311,115.285a13.541,13.541,0,1,1,17.952,20.277" transform="translate(3.385 1.444)" fill="#fbb040"/>
        <path id="Trazado_218313" data-name="Trazado 218313" d="M262.522,214.121l-28.03,42.9L280.474,234.4Z" transform="translate(3.027 2.764)" fill="#f98c6e"/>
        <rect id="Rectángulo_60823" data-name="Rectángulo 60823" width="138.267" height="10.889" transform="translate(270.916 222.947) rotate(-41.514)" fill="#9c681c"/>
        <path id="Trazado_218314" data-name="Trazado 218314" d="M244.545,241.285l-10.053,15.386,16.491-8.113Z" transform="translate(3.027 3.115)" fill="#39b54a"/>
        <path id="Trazado_218315" data-name="Trazado 218315" d="M374.017,115.286l-11.51,10.19,17.951,20.276,11.51-10.189a13.541,13.541,0,0,0-17.951-20.277" transform="translate(4.68 1.444)" fill="#f98c6e"/>
        <rect id="Rectángulo_60824" data-name="Rectángulo 60824" width="10.889" height="27.082" transform="translate(360.929 132.459) rotate(-41.519)" fill="#fff"/>
        <g id="Grupo_183352" data-name="Grupo 183352" transform="translate(237.519 117.894)" opacity="0.25">
          <g id="Grupo_183351" data-name="Grupo 183351">
            <g id="Grupo_183350" data-name="Grupo 183350" clip-path="url(#clip-path-3)">
              <path id="Trazado_218316" data-name="Trazado 218316" d="M393.62,135.5a13.528,13.528,0,0,0,1.163-19.115L234.491,258.283l45.982-22.623Z" transform="translate(-234.492 -116.391)" fill="#231f20"/>
            </g>
          </g>
        </g>
        <path id="Trazado_218317" data-name="Trazado 218317" d="M328.85,192.7c2.608,4.659,2.815,17.419,1.616,22.621,3.992.672,8.5-5.66,12.487-4.989a33.481,33.481,0,0,1-1.256-14.73c.227-1.626.527-3.455-.462-4.766-1.249-1.659-3.808-1.487-5.743-.732s-4.571,2.755-6.642,2.6" transform="translate(4.246 2.447)" fill="#e67a5c"/>
        <path id="Trazado_218318" data-name="Trazado 218318" d="M312.468,264.727s-25,23.288-30.406,41.858-13.035,49.97-13.035,49.97l13.937,2.733,14.292-44.262,22.622-23.634s1.048-23.278-7.41-26.664" transform="translate(3.473 3.418)" fill="#092942"/>
        <path id="Trazado_218319" data-name="Trazado 218319" d="M312.145,264.727a183.7,183.7,0,0,0-18.131,20.091c1.359,7.128,2.988,14.216,4.589,21.165q.675,2.928,1.39,5.845l19.562-20.437s1.048-23.278-7.41-26.664" transform="translate(3.796 3.418)" fill="#051d2e"/>
        <path id="Trazado_218320" data-name="Trazado 218320" d="M338.062,270.651c-1.27,3.379-10.743,7.652-14.36,8.35a9.842,9.842,0,0,1-8.556-3.021c-2.195-2.211-4.368-4.98-4.41-8.058-.624-45.692,7.852-55.31,15.557-62.92,6.735-6.651,15.821-5.446,20.951,2.362,5.675,8.637,2.673,20.3.4,29.557-3.077,12.536-4.456,20.1-9.581,33.729" transform="translate(4.011 2.591)" fill="#0e4066"/>
        <path id="Trazado_218321" data-name="Trazado 218321" d="M328.562,253.649a73.749,73.749,0,0,0,13.8-42.316c-2.954,8.006-7.718,14.538-13.6,20.724a14.619,14.619,0,0,1-2.969,2.555c-3.2,1.921-7.262,1.465-10.888.584-.8-.194-1.605-.405-2.41-.612-.65,4.224-1.146,9.1-1.451,14.752a108.688,108.688,0,0,0,17.517,4.313" transform="translate(4.016 2.728)" fill="#092942"/>
        <path id="Trazado_218322" data-name="Trazado 218322" d="M333.212,295.515c3.354-10.3,5.788-15.937,5.414-27.131-17.328,5.274-27.885-3.658-27.885-3.658-2.715,24.745-3.352,38.016-.009,62.7,1.963,14.491,16.6,35.527,24.844,47.985,3.554-.891,5.182-1.614,8.736-2.5-3.062-11.5-8.671-32.268-14.762-42.692,1.434-12.933-.437-22.108,3.663-34.694" transform="translate(3.982 3.418)" fill="#092942"/>
        <path id="Trazado_218323" data-name="Trazado 218323" d="M297.251,179.491c2.811-2.321,8.128-3.563,11.476-2.124.861.371,1.746,1.04,1.783,1.977.048,1.2-1.266,1.948-2.4,2.339a30.131,30.131,0,0,1-11.024,1.609c-1.183-.339-2.644-1.48.167-3.8" transform="translate(3.817 2.282)" fill="#f98c6e"/>
        <path id="Trazado_218324" data-name="Trazado 218324" d="M321.958,235.228a7.728,7.728,0,0,0,3.276-.256c1.586-.606,2.58-2.162,3.384-3.658a50.948,50.948,0,0,0,5.4-15.9c.548-3.37-.271-7.215-2.846-9.456a32.026,32.026,0,0,0-11.746,21.115c-1.751-.05-3.6-.082-5.43-.117-.562,2.293-1.071,4.821-1.508,7.654l9.475.621" transform="translate(4.034 2.659)" fill="#092942"/>
        <path id="Trazado_218325" data-name="Trazado 218325" d="M285.631,224.376a7.473,7.473,0,0,0-3.479-2.947c-1.477-.461-3.406.233-3.736,1.744-.47,2.161,2.414,4.2,1.547,6.236-.249.584-.772,1.01-1.064,1.573a3.038,3.038,0,0,0,.7,3.348,8.325,8.325,0,0,0,3.125,1.823,12.407,12.407,0,0,0,4.949,1.14,3.9,3.9,0,0,0,2.82-1.153c1.351-1.548-.19-3.864-.926-5.348a41.67,41.67,0,0,0-3.939-6.416" transform="translate(3.594 2.857)" fill="#f98c6e"/>
        <path id="Trazado_218326" data-name="Trazado 218326" d="M321.058,231.4c3.092-12.5,2.707-15.533,7.129-23.751a13.727,13.727,0,0,1,7.09-5.775c2.855-1.157,6.381-1.045,8.751.924a8.871,8.871,0,0,1,2.886,6.389,21.387,21.387,0,0,1-1.12,7.09c-4.716,16.063-7.175,18.36-16.99,31.922-13.383-1.252-31.057-4.027-40.548-9.032-1.927-1.016-2.052-4.291-.9-6.139,1.249-2,4.127-2.039,6.445-1.605,7.446,1.39,15.876.191,27.254-.023" transform="translate(3.7 2.597)" fill="#0e4066"/>
        <path id="Trazado_218327" data-name="Trazado 218327" d="M268.4,352.415l16.418,4.431-1.772,5.571-16.064-4.262Z" transform="translate(3.447 4.55)" fill="#0e4066"/>
        <path id="Trazado_218328" data-name="Trazado 218328" d="M344.661,367.154l-11.86,5.414,2.587,5.318,11.479-5.318Z" transform="translate(4.297 4.74)" fill="#0e4066"/>
        <path id="Trazado_218329" data-name="Trazado 218329" d="M280.122,371.138V368l-30.7-.4a1.362,1.362,0,0,0-.474,1.087c.085,1.067,1.474,1.39,2.542,1.428l28.634,1.023" transform="translate(3.214 4.746)" fill="#808285"/>
        <path id="Trazado_218330" data-name="Trazado 218330" d="M320.725,386.046c-.531.323-1,.761-.951,1.348.074.921,1.272,1.2,2.194,1.233,5.95.213,15.437.424,23.351.637a4.909,4.909,0,0,0,4.955-3.954q-14.77.535-29.549.736" transform="translate(4.128 4.974)" fill="#808285"/>
        <path id="Trazado_218331" data-name="Trazado 218331" d="M318.354,187.97c-.408,3.255.012,8.293,2.191,10.744a8.039,8.039,0,0,0,7.368,2.175,17.6,17.6,0,0,0,7.16-3.465,45.192,45.192,0,0,0,9.7-9.709c2.536-3.461,4.642-7.832,3.369-11.93-.932-3-3.534-5.223-6.349-6.623a16.209,16.209,0,0,0-11.145-1.461c-9.357,2.434-11.292,12.246-12.3,20.269" transform="translate(4.108 2.16)" fill="#f98c6e"/>
        <path id="Trazado_218332" data-name="Trazado 218332" d="M342.5,186.707a10.709,10.709,0,0,0-8.759-12.931c-2.591-.414-5.225.133-7.824.5s-5.359.527-7.738-.581a9.531,9.531,0,0,1-4.573-5,16.524,16.524,0,0,1-1.114-6.791,13.548,13.548,0,0,1,.834-4.776,6.934,6.934,0,0,1,3.1-3.627,5.514,5.514,0,0,1,7.767,6.656,16.3,16.3,0,0,1,7.393-5.77c1.791-.731,4.084-1.042,5.46.318a3.911,3.911,0,0,1,.918,3.424,10.035,10.035,0,0,1-1.433,3.372,12.378,12.378,0,0,1,10.707-3.426,2.1,2.1,0,0,1,1.191.5,2.07,2.07,0,0,1,.131,2.136,8.918,8.918,0,0,1-4.132,4.744c2.882,1.124,5.932,2.376,7.707,4.909a10.549,10.549,0,0,1,1.6,6.91,14.651,14.651,0,0,1-6.66,11.143,4.363,4.363,0,0,1-2.895.831,2.352,2.352,0,0,1-1.685-2.54" transform="translate(4.034 1.974)" fill="#092942"/>
        <path id="Trazado_218333" data-name="Trazado 218333" d="M344.017,184.317a2.806,2.806,0,0,1,2.01-.313,2.121,2.121,0,0,1,1.334,1.768,4.478,4.478,0,0,1-.411,2.273,10.555,10.555,0,0,1-5.319,5.516,1.664,1.664,0,0,1-1.538.115c-1.265-.8-.842-4.19-.324-5.4a8.969,8.969,0,0,1,4.248-3.955" transform="translate(4.38 2.374)" fill="#f98c6e"/>
        <path id="Trazado_218334" data-name="Trazado 218334" d="M331.618,182.125c-.587,1.476-1.712,2.414-2.511,2.1s-.971-1.773-.384-3.248,1.712-2.414,2.511-2.1.971,1.773.384,3.248" transform="translate(4.239 2.309)" fill="#092942"/>
        <path id="Trazado_218335" data-name="Trazado 218335" d="M323.337,182.125c-.588,1.476-1.713,2.414-2.512,2.1s-.971-1.773-.383-3.248,1.711-2.414,2.51-2.1.971,1.773.385,3.248" transform="translate(4.133 2.309)" fill="#092942"/>
        <path id="Trazado_218336" data-name="Trazado 218336" d="M322.173,187.173a4.509,4.509,0,0,0-.986.385.933.933,0,0,0-.479.88,1.076,1.076,0,0,0,.728.729,3.042,3.042,0,0,0,3.214-.753,3.719,3.719,0,0,0,.9-3.244c-.063-.33-.312-1.014-.759-.76-.3.172-.4.874-.579,1.166a3.869,3.869,0,0,1-2.043,1.6" transform="translate(4.14 2.38)" fill="#d1684b"/>
        <path id="Trazado_218337" data-name="Trazado 218337" d="M327.675,193.27a4.154,4.154,0,0,1-.931-.1.506.506,0,1,1,.226-.987,3.271,3.271,0,0,0,3.95-2.621.507.507,0,0,1,1,.176,4.274,4.274,0,0,1-4.243,3.536" transform="translate(4.213 2.442)" fill="#d1684b"/>
        <path id="Trazado_218338" data-name="Trazado 218338" d="M268.788,112.787a29.779,29.779,0,0,1-10.5,6.839c-8.13,12.769-1.8,14.375,4.811,10.743q3.934-2.162,7.865-4.329a2.014,2.014,0,0,0,1.014-3.084c-1.1-3.173-.683-7.93-3.188-10.169" transform="translate(3.285 1.456)" fill="#e67a5c"/>
        <path id="Trazado_218339" data-name="Trazado 218339" d="M238.213,216.434a55.99,55.99,0,0,0-4.383,7.262,2.364,2.364,0,0,0-.358,1.71,1.616,1.616,0,0,0,1.251,1,4.771,4.771,0,0,0,1.673-.05c-.791,2.8-1.793,7.338-1.68,8a1.553,1.553,0,0,0,1.276,1.35c.806.058,2.99-3.029,4.763-6.106a19.3,19.3,0,0,0,3.723-1.863,6.356,6.356,0,0,0,2.543-3.153,6.9,6.9,0,0,0-1.251-5.866,8.433,8.433,0,0,0-2.737-2.63c-1.112-.628-3.575.069-4.821.344" transform="translate(3.013 2.787)" fill="#f98c6e"/>
        <path id="Trazado_218340" data-name="Trazado 218340" d="M267.659,134.793c1.787,29.248-7.9,61.251-21.155,87.59a21.679,21.679,0,0,1-9.833-1.015c1.644-22.964,6.2-45.645,12.144-67.886,1.01-3.776,2.125-7.668,4.638-10.66s10.6-9.544,14.206-8.029" transform="translate(3.056 1.737)" fill="#1c75bc"/>
        <path id="Trazado_218341" data-name="Trazado 218341" d="M281.71,133.536c-2.776,2.073-7.7,4.39-11.28,3.841a8.8,8.8,0,0,1-6.415-5.095,16.155,16.155,0,0,1-1.056-7.911,41.329,41.329,0,0,1,3.222-13.383c1.7-3.987,4.5-8.092,9.061-9.187,3.344-.8,6.957.227,9.936,1.871a17.009,17.009,0,0,1,8.006,8.679c3.325,9.228-4.628,16.074-11.474,21.185" transform="translate(3.394 1.311)" fill="#f98c6e"/>
        <path id="Trazado_218342" data-name="Trazado 218342" d="M266.016,111.376c5.51,1.586,9.781.757,12.541-4.569,1.365,6.281,13.258,27.662,24.758,17.425-5.643-2.913-5.316-8.833-7.2-14.59a14.525,14.525,0,0,0-3.746-6.286,9.116,9.116,0,0,0-7.154-2.479,27.291,27.291,0,0,0,4.363-2.031c.465-.268.967-.62,1-1.121.047-.726-.89-1.166-1.684-1.281a7.609,7.609,0,0,0-5.694,1.457,8.686,8.686,0,0,0-3.987-5.13,3.827,3.827,0,0,0-1.606-.594,1.675,1.675,0,0,0-1.513.6,1.847,1.847,0,0,0-.169,1.344,8.779,8.779,0,0,0,2.376,4.688c-3.8-.6-7.609,1.391-9.944,4.14s-3.485,6.162-4.593,9.492c.537-.169,1.721-.89,2.258-1.059" transform="translate(3.405 1.19)" fill="#092942"/>
        <path id="Trazado_218343" data-name="Trazado 218343" d="M269.436,109.639a2.736,2.736,0,0,0-.909-1.871,2.552,2.552,0,0,0-2.437-.193,4.711,4.711,0,0,0-1.864,1.555,9.72,9.72,0,0,0-1.947,7.438,1.656,1.656,0,0,0,.81,1.365c1.5.65,4.392-1.509,5.209-2.592a8.212,8.212,0,0,0,1.137-5.7" transform="translate(3.385 1.386)" fill="#f98c6e"/>
        <path id="Trazado_218344" data-name="Trazado 218344" d="M278.81,118.947c-1.019,1.281-1.219,2.733-.447,3.242s2.224-.117,3.243-1.4,1.22-2.733.448-3.241-2.225.116-3.244,1.4" transform="translate(3.588 1.515)" fill="#092942"/>
        <path id="Trazado_218345" data-name="Trazado 218345" d="M283.752,125.971c-1.019,1.281-1.219,2.733-.447,3.242s2.224-.117,3.243-1.4,1.22-2.732.448-3.241-2.225.117-3.244,1.4" transform="translate(3.651 1.606)" fill="#092942"/>
        <path id="Trazado_218346" data-name="Trazado 218346" d="M279.764,129.653a4.141,4.141,0,0,1,.231,1.04.907.907,0,0,1-.532.873,1.284,1.284,0,0,1-1.111-.231,2.926,2.926,0,0,1-1.219-3.125,3.8,3.8,0,0,1,2.471-2.488c.343-.122,1.127-.274,1.158.241.021.348-.57.8-.736,1.11a3.519,3.519,0,0,0-.262,2.579" transform="translate(3.577 1.622)" fill="#d1684b"/>
        <path id="Trazado_218347" data-name="Trazado 218347" d="M270.813,128.229a4.344,4.344,0,0,0,.651.734.6.6,0,0,0,.79,0,.47.47,0,0,0-.008-.716,3.221,3.221,0,0,1-1.084-2.4,3.159,3.159,0,0,1,1.16-2.344.471.471,0,0,0,.031-.715.6.6,0,0,0-.79-.037,3.976,3.976,0,0,0-.751,5.475" transform="translate(3.486 1.583)" fill="#d1684b"/>
        <path id="Trazado_218348" data-name="Trazado 218348" d="M162.761,328.045a23.989,23.989,0,0,1,6.889-.268,8.091,8.091,0,0,1,5.751,3.442c1.469,2.4,1.073,5.485.321,8.2-1.441,5.2-3.981,10.025-6.56,14.768-6.039,11.108-12.4,22.04-18.751,32.97-1.924.006-4.2.236-6.023-.376a6,6,0,0,1-4.025-3.809,8.888,8.888,0,0,1,.16-4.028q3.476-17.79,6.952-35.583c.748-3.826,1.563-7.807,3.958-10.884s7.9-6.289,11.327-4.43" transform="translate(1.81 4.228)" fill="#092942"/>
        <path id="Trazado_218349" data-name="Trazado 218349" d="M170.668,351.181a11.633,11.633,0,0,1-.647-1.078,39.129,39.129,0,0,1-4.209-14.973,37.815,37.815,0,0,1,.2-7.462c-1.12.075-2.242.225-3.354.376a4.554,4.554,0,0,0-1.624-.494q-2.855.747-5.7,1.528a14.418,14.418,0,0,0-4,3.4,19.326,19.326,0,0,0-3.248,7.538c1.414,1.927,2.744,3.935,4.12,5.876a94.341,94.341,0,0,0,13.189,14.934c1.231-2.209,2.459-4.419,3.667-6.641q.813-1.494,1.607-3" transform="translate(1.912 4.229)" fill="#051d2e"/>
        <path id="Trazado_218350" data-name="Trazado 218350" d="M163.094,357.779a71.082,71.082,0,0,0-6.735-9.612c-2.237-2.543-5.521-4.929-8.752-3.912-.151.047-.289.118-.432.179l-3.337,17.079a9.118,9.118,0,0,1,1.632.543,16.907,16.907,0,0,1,7.717,8.821,31.612,31.612,0,0,1,1.971,7.806q5.043-8.711,9.967-17.488c-.644-1.161-1.338-2.3-2.032-3.416" transform="translate(1.857 4.441)" fill="#051d2e"/>
        <path id="Trazado_218351" data-name="Trazado 218351" d="M93.729,287.546a257.313,257.313,0,0,0,48.856,43.519c-1.7,2.175-3.639,4.539-6.376,4.883-2.245.283-4.392-.872-6.36-1.988-8.986-5.1-18.1-10.294-25.334-17.669a39.015,39.015,0,0,1-10.785-28.744" transform="translate(1.209 3.712)" fill="#8dc63f"/>
        <path id="Trazado_218352" data-name="Trazado 218352" d="M93.729,287.546a39.016,39.016,0,0,0,10.785,28.744,65.869,65.869,0,0,0,7.444,6.44c.053-1.955.074-3.911.043-5.867-.059-3.641-.259-7.3-.606-10.94q-9.277-8.748-17.666-18.377" transform="translate(1.209 3.712)" fill="#7cb332"/>
        <path id="Trazado_218353" data-name="Trazado 218353" d="M77.382,282.975Q69.895,285.792,62.643,289c-1.8.8-3.686,1.688-4.646,3.2-1.282,2.015-.574,4.533.172,6.794Q67.5,327.244,79.075,355c.485,1.164,7,17.346,8.247,17.535,6.732,1.022,8.131-14.063,14.877-14.558a11.151,11.151,0,0,0,5.206-1.29c1.831-1.186,2.469-3.24,2.949-5.161,2.168-8.693-5.963-52.565-11.469-60.868s-11.488-11.451-21.5-7.684" transform="translate(0.74 3.633)" fill="#8dc63f"/>
        <path id="Trazado_218354" data-name="Trazado 218354" d="M107.384,337.8a8.742,8.742,0,0,0,2.662.534c-.41-3.881-1.024-8.25-1.784-12.76a58.325,58.325,0,0,1-13.044-3.472,71,71,0,0,1-7.328-3.376C79.807,314.449,72.53,308.8,65.6,302.839c2.679,4.954,5.395,9.96,9.167,14.141a62.872,62.872,0,0,0,11.689,9.554c6.578,4.46,13.421,8.669,20.931,11.27" transform="translate(0.847 3.91)" fill="#7cb332"/>
        <path id="Trazado_218355" data-name="Trazado 218355" d="M81.628,274.2a30.825,30.825,0,0,0-.414,11.752,3.036,3.036,0,0,1-3.223,3.526,29.936,29.936,0,0,1-4.639-.694,3.63,3.63,0,0,1-1.662-.721,3.836,3.836,0,0,1-.934-2.294q-.948-5.667-1.9-11.334a4.771,4.771,0,0,1,.207-3.189c.741-1.273,2.434-1.563,3.909-1.612a10.5,10.5,0,0,1,4.711.7c1.459.664,4.3,2.307,3.941,3.868" transform="translate(0.887 3.481)" fill="#e67a5c"/>
        <path id="Trazado_218356" data-name="Trazado 218356" d="M92.623,264.834c.944,3.334,1.346,8.765-.444,11.908a8.8,8.8,0,0,1-7.051,4.17,16.147,16.147,0,0,1-7.767-1.841,41.324,41.324,0,0,1-11.347-7.791c-3.117-3.011-5.95-7.094-5.34-11.747.445-3.409,2.7-6.416,5.3-8.611a17.009,17.009,0,0,1,10.966-4.376c9.807.192,13.358,10.068,15.685,18.288" transform="translate(0.782 3.183)" fill="#f98c6e"/>
        <path id="Trazado_218357" data-name="Trazado 218357" d="M78.007,262.068c.833,1.41,2.116,2.116,2.868,1.576s.687-2.119-.146-3.529-2.116-2.116-2.868-1.576-.687,2.119.146,3.529" transform="translate(0.998 3.335)" fill="#092942"/>
        <path id="Trazado_218358" data-name="Trazado 218358" d="M86.333,259.964c.833,1.41,2.116,2.116,2.868,1.576s.687-2.119-.146-3.529-2.116-2.116-2.868-1.576-.687,2.119.146,3.529" transform="translate(1.106 3.308)" fill="#092942"/>
        <path id="Trazado_218359" data-name="Trazado 218359" d="M88.347,264.995a4.147,4.147,0,0,1,1.054.156.9.9,0,0,1,.625.808,1.283,1.283,0,0,1-.613.955,2.922,2.922,0,0,1-3.354.021,3.8,3.8,0,0,1-1.44-3.2c.009-.365.148-1.151.639-1,.332.105.547.821.773,1.085a3.521,3.521,0,0,0,2.315,1.167" transform="translate(1.092 3.392)" fill="#d1684b"/>
        <path id="Trazado_218360" data-name="Trazado 218360" d="M83.824,272.832a4.367,4.367,0,0,0,.919-.346.6.6,0,0,0,.284-.737.47.47,0,0,0-.672-.248,3.221,3.221,0,0,1-2.628.156,3.165,3.165,0,0,1-1.775-1.922.471.471,0,0,0-.656-.285.6.6,0,0,0-.317.724,3.976,3.976,0,0,0,4.845,2.658" transform="translate(1.019 3.478)" fill="#d1684b"/>
        <path id="Trazado_218361" data-name="Trazado 218361" d="M66.952,272.222a12.366,12.366,0,0,0,.62-14.8,80.83,80.83,0,0,0,16.972-4.34c2.388-.886,4.924-2.051,6.08-4.32a8.183,8.183,0,0,0,.367-5.532c-1.286-5.56-5.5-9.958-9.965-13.514l2.355,7.04a26.584,26.584,0,0,0-7.716-5.708,57.178,57.178,0,0,1,3.787,9.912c-5.467-.481-11.234.075-16.05,2.708s-8.559,7.633-8.638,13.121a15.176,15.176,0,0,0,3.428,9.465c2.121,2.685,5.7,4.445,8.76,5.969" transform="translate(0.707 2.966)" fill="#092942"/>
        <path id="Trazado_218362" data-name="Trazado 218362" d="M65.957,267.523a2.734,2.734,0,0,0-2.072.18,2.551,2.551,0,0,0-1.051,2.206,4.714,4.714,0,0,0,.786,2.3,9.725,9.725,0,0,0,6.251,4.477,1.655,1.655,0,0,0,1.565-.269c1.142-1.163.16-4.64-.559-5.792a8.216,8.216,0,0,0-4.919-3.1" transform="translate(0.811 3.452)" fill="#f98c6e"/>
        <path id="Trazado_218363" data-name="Trazado 218363" d="M66.361,322.3a124.7,124.7,0,0,0,23.132,15.316,78.309,78.309,0,0,0,21.116,7.065c-.118-2.766-.428-6.091-.887-9.726-3.254-1.162-6.477-2.413-9.646-3.788A163.134,163.134,0,0,1,61,307.181q2.6,7.575,5.363,15.116" transform="translate(0.788 3.966)" fill="#7cb332"/>
        <path id="Trazado_218364" data-name="Trazado 218364" d="M72.877,301.053c2.149,8.93,9.792,16.368,18.889,21.137s19.591,7.195,30.024,9.123a7.021,7.021,0,0,1,1.229,2.737,2.643,2.643,0,0,1-1.041,2.815,5.471,5.471,0,0,1-2.873.6,71.042,71.042,0,0,1-37.432-9.8C70.826,321.123,62.5,311.6,58.209,300.872a12.4,12.4,0,0,1-1.142-4.965,5.484,5.484,0,0,1,2.411-4.468c2.619-1.693,6.6-.81,8.914,1.183s3.824,5.683,4.485,8.431" transform="translate(0.737 3.751)" fill="#8dc63f"/>
        <path id="Trazado_218365" data-name="Trazado 218365" d="M171.723,318.842c.436,1.9.376,7.291.75,9.711-18.47,6.688-37.663,9.3-57.4,14.825L105.709,346a4.721,4.721,0,0,1-3.428.075c-1.038-.546-1.339-2.352-.253-2.795,20.048-8.178,39.3-18.453,59.873-25.2a16.563,16.563,0,0,1,4.765-1.042c1.632-.033,4.693.212,5.057,1.8" transform="translate(1.308 4.093)" fill="#92c6f0"/>
        <path id="Trazado_218366" data-name="Trazado 218366" d="M124.783,297.624l47.826-7.043A3.53,3.53,0,0,1,176.6,294.7a305.621,305.621,0,0,0-4.364,34.191c-16.928,2.257-33.134,4.283-52.707,7.255,1.3-13.207,1.92-23.7,2.232-35.115a3.541,3.541,0,0,1,3.019-3.411" transform="translate(1.543 3.751)" fill="#92c6f0"/>
        <path id="Trazado_218367" data-name="Trazado 218367" d="M155.408,314.08c-.572,3.284-3.27,5.556-6.026,5.076s-4.526-3.531-3.953-6.815,3.271-5.557,6.026-5.076,4.526,3.531,3.953,6.815" transform="translate(1.876 3.966)" fill="#a6d7ff"/>
        <path id="Trazado_218368" data-name="Trazado 218368" d="M92.324,377.188c5.822,2.1,12.858,1.537,18.74-.383,13.587-4.433,24.407-14.6,34.742-24.475,7.15,10.331,15.849,20.252,23,30.583,1.531,2.212,3.211,4.545,5.723,5.509s9.014-6.824,8.7-8.888a18.486,18.486,0,0,0-2.271-5.8,329.149,329.149,0,0,0-19.975-32.2c-2.72-3.927-5.815-8.058-10.376-9.477-4.754-1.478-9.83.371-14.489,2.124-15,5.643-27.13,7.454-43.8,12.657-19.076,5.957-9.421,26.959,0,30.351" transform="translate(1.05 4.28)" fill="#092942"/>
        <path id="Trazado_218369" data-name="Trazado 218369" d="M201.92,383.991c.657.129,1.44.372,1.593,1.024.183.784-.692,1.371-1.434,1.682-7.474,3.122-15.609,4.234-23.636,5.319a5.411,5.411,0,0,1-2.989-.163,4.888,4.888,0,0,1-2.15-2.708,6.459,6.459,0,0,1-.676-3.527,5.757,5.757,0,0,1,3.154-3.779c1.152-.639,3.044-1.855,4.372-1.9,1.453-.054,3.243.614,4.683.87q5.515.98,11.018,2.021,3.034.573,6.065,1.165" transform="translate(2.228 4.905)" fill="#fff"/>
        <path id="Trazado_218370" data-name="Trazado 218370" d="M137.769,387.41a5.029,5.029,0,0,0-.121,3.359,3.668,3.668,0,0,0,2.252,1.894,10.5,10.5,0,0,0,2.992.408c5.408.2,10.822.181,16.233.165a28.155,28.155,0,0,0,4.537-.257c.839-.139,1.87-.626,1.766-1.47-.073-.6-.7-.945-1.246-1.193q-6.106-2.755-12.353-5.176-3.171-1.229-6.373-2.368c-1.2-.428-3.5-1.742-4.817-1.2-1.639.669-2.423,4.322-2.869,5.84" transform="translate(1.774 4.925)" fill="#fff"/>
      </g>
    </g>
  </g>
</svg>
