<svg id="Grupo_564732" data-name="Grupo 564732" xmlns="http://www.w3.org/2000/svg" xmlns:xlink="http://www.w3.org/1999/xlink" width="199.997" height="190.359" viewBox="0 0 199.997 190.359">
  <defs>
    <clipPath id="clip-path">
      <rect id="Rectángulo_204426" data-name="Rectángulo 204426" width="199.997" height="190.359" fill="none"/>
    </clipPath>
    <clipPath id="clip-path-3">
      <rect id="Rectángulo_204398" data-name="Rectángulo 204398" width="12.985" height="14.974" fill="none"/>
    </clipPath>
    <clipPath id="clip-path-4">
      <rect id="Rectángulo_204401" data-name="Rectángulo 204401" width="12.986" height="17.889" fill="none"/>
    </clipPath>
    <clipPath id="clip-path-5">
      <rect id="Rectángulo_204405" data-name="Rectángulo 204405" width="12.985" height="77.21" fill="none"/>
    </clipPath>
    <clipPath id="clip-path-6">
      <rect id="Rectángulo_204407" data-name="Rectángulo 204407" width="12.226" height="12.561" fill="none"/>
    </clipPath>
    <clipPath id="clip-path-7">
      <rect id="Rectángulo_204408" data-name="Rectángulo 204408" width="12.227" height="12.561" fill="none"/>
    </clipPath>
    <clipPath id="clip-path-15">
      <rect id="Rectángulo_204416" data-name="Rectángulo 204416" width="7.317" height="7.517" fill="none"/>
    </clipPath>
    <clipPath id="clip-path-16">
      <rect id="Rectángulo_204417" data-name="Rectángulo 204417" width="4.215" height="9.122" fill="none"/>
    </clipPath>
    <clipPath id="clip-path-17">
      <rect id="Rectángulo_204418" data-name="Rectángulo 204418" width="13.193" height="8.452" fill="none"/>
    </clipPath>
    <clipPath id="clip-path-18">
      <rect id="Rectángulo_204419" data-name="Rectángulo 204419" width="2.652" height="6.636" fill="none"/>
    </clipPath>
    <clipPath id="clip-path-19">
      <rect id="Rectángulo_204420" data-name="Rectángulo 204420" width="2.105" height="12.653" fill="none"/>
    </clipPath>
    <clipPath id="clip-path-20">
      <rect id="Rectángulo_204421" data-name="Rectángulo 204421" width="8.051" height="9.945" fill="none"/>
    </clipPath>
    <clipPath id="clip-path-21">
      <rect id="Rectángulo_204422" data-name="Rectángulo 204422" width="7.843" height="9.701" fill="none"/>
    </clipPath>
    <clipPath id="clip-path-22">
      <rect id="Rectángulo_204423" data-name="Rectángulo 204423" width="9.453" height="3.866" fill="none"/>
    </clipPath>
    <clipPath id="clip-path-23">
      <rect id="Rectángulo_204424" data-name="Rectángulo 204424" width="8.312" height="16.65" fill="none"/>
    </clipPath>
  </defs>
  <g id="Grupo_564731" data-name="Grupo 564731" clip-path="url(#clip-path)">
    <rect id="Rectángulo_204391" data-name="Rectángulo 204391" width="95.33" height="59.002" transform="translate(3.389 7.144)" fill="#fafafa"/>
    <g id="Grupo_564730" data-name="Grupo 564730">
      <g id="Grupo_564729" data-name="Grupo 564729" clip-path="url(#clip-path)">
        <path id="Trazado_277391" data-name="Trazado 277391" d="M93.01,81.178C86.4,78.672,78.8,85.6,72.316,82.776c-3.771-1.645-5.481-5.91-7.329-9.586s-5.03-7.553-9.122-7.126c-4.127.43-7.464,5.208-11.451,4.057-2.513-.726-3.767-3.512-4.4-6.051s-1.066-5.343-2.982-7.124-5.908-1.3-6.209,1.294V89.519h74.549S95.3,82.046,93.01,81.178" transform="translate(-17.306 -31.374)" fill="#ebebeb"/>
        <path id="Trazado_277392" data-name="Trazado 277392" d="M102.026,132.416c0,.067-18.07.121-40.355.121s-40.358-.054-40.358-.121,18.065-.121,40.358-.121,40.355.054,40.355.121" transform="translate(-11.965 -74.271)" fill="#e0e0e0"/>
        <path id="Trazado_277393" data-name="Trazado 277393" d="M102.026,101.267c0,.067-18.07.121-40.355.121s-40.358-.054-40.358-.121,18.065-.121,40.358-.121,40.355.054,40.355.121" transform="translate(-11.965 -56.783)" fill="#e0e0e0"/>
        <path id="Trazado_277394" data-name="Trazado 277394" d="M102.026,70.118c0,.067-18.07.121-40.355.121s-40.358-.054-40.358-.121S39.378,70,61.671,70s40.355.054,40.355.121" transform="translate(-11.965 -39.296)" fill="#e0e0e0"/>
        <path id="Trazado_277395" data-name="Trazado 277395" d="M102.026,40.515c0,.067-18.07.121-40.355.121s-40.358-.054-40.358-.121,18.065-.121,40.358-.121,40.355.054,40.355.121" transform="translate(-11.965 -22.677)" fill="#e0e0e0"/>
        <path id="Trazado_277396" data-name="Trazado 277396" d="M345.836,24.366V9.267a15.1,15.1,0,1,1-15.095,15.448Z" transform="translate(-185.678 -5.203)" fill="#ebebeb"/>
        <path id="Trazado_277397" data-name="Trazado 277397" d="M337.438,15.094l-15.1.341a15.926,15.926,0,0,1,4.278-10.871A15.524,15.524,0,0,1,337.2,0Z" transform="translate(-180.961)" fill="#f5f5f5"/>
        <path id="Trazado_277398" data-name="Trazado 277398" d="M70.069,333.106V319.444a13.662,13.662,0,1,0,13.658,13.978Z" transform="translate(-31.667 -179.336)" fill="#ebebeb"/>
        <path id="Trazado_277399" data-name="Trazado 277399" d="M95.15,324.717l13.662.309a14.41,14.41,0,0,0-3.871-9.836,14.046,14.046,0,0,0-9.579-4.129Z" transform="translate(-53.417 -174.629)" fill="#f5f5f5"/>
        <rect id="Rectángulo_204392" data-name="Rectángulo 204392" width="6.386" height="19.945" transform="translate(121.439 52.902)" fill="#f5f5f5"/>
        <rect id="Rectángulo_204393" data-name="Rectángulo 204393" width="6.386" height="15.389" transform="translate(130.974 57.459)" fill="#f5f5f5"/>
        <rect id="Rectángulo_204394" data-name="Rectángulo 204394" width="6.386" height="9.139" transform="translate(139.802 63.709)" fill="#f5f5f5"/>
        <path id="Trazado_277400" data-name="Trazado 277400" d="M124.892,38.946l.164-.886c1.385-7.472,6.5-13.467,13.436-15.369a17.725,17.725,0,0,1,2.725-.524,20.864,20.864,0,0,1,18.168,7.93c2.606,3.28,4.468,7.453,7.98,9.554,4.57,2.735,10.091.949,14.852-.887s10.291-3.608,14.851-.853c2.855,1.726,4.7,4.953,5.664,8.258,2.564,8.75-.389,18.4-6.219,24.716s-14.141,9.592-22.564,10.638c-11.8,1.466-24.49-1.369-34.244-9.177s-16.079-20.868-14.812-33.4" transform="translate(-70.024 -12.383)" fill="#f5f5f5"/>
        <path id="Trazado_277401" data-name="Trazado 277401" d="M115.909,157.92a11.741,11.741,0,0,0-10.015-1.57c-2.122.411-5.993,4.6-5.347,8.2s4.092,6.157,7.664,6.917c3.967.845,8.747-.534,10.434-4.222,1.455-3.182.056-7.211-2.735-9.32" transform="translate(-56.407 -87.515)" fill="#f5f5f5"/>
        <path id="Trazado_277402" data-name="Trazado 277402" d="M273.606,2.262A11.74,11.74,0,0,0,263.591.692c-2.121.411-5.993,4.6-5.347,8.2s4.092,6.157,7.664,6.917c3.967.845,8.747-.534,10.434-4.222,1.455-3.182.056-7.211-2.735-9.32" transform="translate(-144.938 -0.128)" fill="#f5f5f5"/>
        <rect id="Rectángulo_204395" data-name="Rectángulo 204395" width="12.985" height="25.339" transform="translate(7.167 164.784)" fill="#ff725e"/>
        <rect id="Rectángulo_204396" data-name="Rectángulo 204396" width="12.985" height="14.974" transform="translate(35.36 175.149)" fill="#ff725e"/>
        <g id="Grupo_564668" data-name="Grupo 564668" transform="translate(35.36 175.149)" opacity="0.79">
          <g id="Grupo_564667" data-name="Grupo 564667">
            <g id="Grupo_564666" data-name="Grupo 564666" clip-path="url(#clip-path-3)">
              <rect id="Rectángulo_204397" data-name="Rectángulo 204397" width="12.985" height="14.974" transform="translate(0 0)" fill="#fff"/>
            </g>
          </g>
        </g>
        <path id="Trazado_277403" data-name="Trazado 277403" d="M153.339,390.112l-12.985.085v-33.97h12.985Z" transform="translate(-78.795 -199.986)" fill="#ff725e"/>
        <rect id="Rectángulo_204399" data-name="Rectángulo 204399" width="12.986" height="17.889" transform="translate(88.986 172.234)" fill="#ff725e"/>
        <g id="Grupo_564671" data-name="Grupo 564671" transform="translate(88.986 172.234)" opacity="0.79">
          <g id="Grupo_564670" data-name="Grupo 564670">
            <g id="Grupo_564669" data-name="Grupo 564669" clip-path="url(#clip-path-4)">
              <rect id="Rectángulo_204400" data-name="Rectángulo 204400" width="12.986" height="17.889" transform="translate(0 0)" fill="#fff"/>
            </g>
          </g>
        </g>
        <rect id="Rectángulo_204402" data-name="Rectángulo 204402" width="12.985" height="33.882" transform="translate(115.951 156.241)" fill="#ff725e"/>
        <rect id="Rectángulo_204403" data-name="Rectángulo 204403" width="12.985" height="77.21" transform="translate(142.659 112.913)" fill="#ff725e"/>
        <g id="Grupo_564674" data-name="Grupo 564674" transform="translate(142.659 112.912)" opacity="0.79">
          <g id="Grupo_564673" data-name="Grupo 564673">
            <g id="Grupo_564672" data-name="Grupo 564672" clip-path="url(#clip-path-5)">
              <rect id="Rectángulo_204404" data-name="Rectángulo 204404" width="12.985" height="77.21" transform="translate(0 0)" fill="#fff"/>
            </g>
          </g>
        </g>
        <path id="Trazado_277404" data-name="Trazado 277404" d="M29.389,403.2a82.169,82.169,0,0,1-6.282,6.832,81.6,81.6,0,0,1-6.651,6.455,82.27,82.27,0,0,1,6.283-6.832,81.72,81.72,0,0,1,6.65-6.455" transform="translate(-9.237 -226.358)" fill="#fff"/>
        <path id="Trazado_277405" data-name="Trazado 277405" d="M93.476,403.713a82.141,82.141,0,0,1-6.283,6.832A81.716,81.716,0,0,1,80.543,417a82.134,82.134,0,0,1,6.283-6.832,81.71,81.71,0,0,1,6.65-6.455" transform="translate(-45.215 -226.643)" fill="#ff725e"/>
        <path id="Trazado_277406" data-name="Trazado 277406" d="M215.877,403.18a82.139,82.139,0,0,1-6.283,6.832,81.711,81.711,0,0,1-6.65,6.455,82.139,82.139,0,0,1,6.283-6.832,81.715,81.715,0,0,1,6.65-6.455" transform="translate(-113.931 -226.344)" fill="#ff725e"/>
        <path id="Trazado_277407" data-name="Trazado 277407" d="M28.989,376.294a82.092,82.092,0,0,1-6.283,6.832,81.549,81.549,0,0,1-6.65,6.455,82.245,82.245,0,0,1,6.283-6.832,81.723,81.723,0,0,1,6.65-6.455" transform="translate(-9.012 -211.251)" fill="#fff"/>
        <path id="Trazado_277408" data-name="Trazado 277408" d="M153.855,403.644a82.164,82.164,0,0,1-6.283,6.832,81.75,81.75,0,0,1-6.651,6.455A82.148,82.148,0,0,1,147.2,410.1a81.723,81.723,0,0,1,6.65-6.455" transform="translate(-79.112 -226.604)" fill="#fff"/>
        <path id="Trazado_277409" data-name="Trazado 277409" d="M153.456,376.734a82.148,82.148,0,0,1-6.283,6.832,81.638,81.638,0,0,1-6.65,6.455,82.133,82.133,0,0,1,6.283-6.832,81.7,81.7,0,0,1,6.65-6.455" transform="translate(-78.888 -211.497)" fill="#fff"/>
        <path id="Trazado_277410" data-name="Trazado 277410" d="M149.408,356.222a39,39,0,0,1-4.26,4.753,38.642,38.642,0,0,1-4.627,4.377,38.886,38.886,0,0,1,4.26-4.754,38.667,38.667,0,0,1,4.627-4.376" transform="translate(-78.887 -199.981)" fill="#fff"/>
        <path id="Trazado_277411" data-name="Trazado 277411" d="M338.153,403.18a82.141,82.141,0,0,1-6.283,6.832,81.7,81.7,0,0,1-6.65,6.455,163.517,163.517,0,0,1,12.933-13.287" transform="translate(-182.577 -226.344)" fill="#ff725e"/>
        <path id="Trazado_277412" data-name="Trazado 277412" d="M337.754,376.27a82.142,82.142,0,0,1-6.283,6.832,81.558,81.558,0,0,1-6.65,6.455,163.4,163.4,0,0,1,12.933-13.287" transform="translate(-182.353 -211.237)" fill="#ff725e"/>
        <path id="Trazado_277413" data-name="Trazado 277413" d="M337.754,346.28a82.1,82.1,0,0,1-6.283,6.832,81.544,81.544,0,0,1-6.65,6.455,163.59,163.59,0,0,1,12.933-13.287" transform="translate(-182.353 -194.401)" fill="#ff725e"/>
        <path id="Trazado_277414" data-name="Trazado 277414" d="M278.136,403.18a82.14,82.14,0,0,1-6.283,6.832,81.721,81.721,0,0,1-6.65,6.455,163.516,163.516,0,0,1,12.933-13.287" transform="translate(-148.884 -226.344)" fill="#fff"/>
        <path id="Trazado_277415" data-name="Trazado 277415" d="M277.736,376.27a82.146,82.146,0,0,1-6.283,6.832,81.556,81.556,0,0,1-6.65,6.455,163.4,163.4,0,0,1,12.933-13.287" transform="translate(-148.659 -211.237)" fill="#fff"/>
        <path id="Trazado_277416" data-name="Trazado 277416" d="M273.6,355.962a75.849,75.849,0,0,1-8.8,9.04,75.839,75.839,0,0,1,8.8-9.04" transform="translate(-148.658 -199.835)" fill="#fff"/>
        <path id="Trazado_277417" data-name="Trazado 277417" d="M338.153,317.278a82.146,82.146,0,0,1-6.283,6.832,81.711,81.711,0,0,1-6.65,6.455,163.5,163.5,0,0,1,12.933-13.287" transform="translate(-182.577 -178.118)" fill="#ff725e"/>
        <path id="Trazado_277418" data-name="Trazado 277418" d="M338.153,263.349a82.144,82.144,0,0,1-6.283,6.832,81.566,81.566,0,0,1-6.65,6.455A82.266,82.266,0,0,1,331.5,269.8a81.715,81.715,0,0,1,6.65-6.455" transform="translate(-182.577 -147.843)" fill="#ff725e"/>
        <path id="Trazado_277419" data-name="Trazado 277419" d="M337.754,290.368a82.134,82.134,0,0,1-6.283,6.832,81.712,81.712,0,0,1-6.65,6.455,82.137,82.137,0,0,1,6.283-6.832,81.709,81.709,0,0,1,6.65-6.455" transform="translate(-182.353 -163.011)" fill="#ff725e"/>
        <rect id="Rectángulo_204406" data-name="Rectángulo 204406" width="12.271" height="123.768" transform="translate(170.859 66.355)" fill="#ff725e"/>
        <g id="Grupo_564677" data-name="Grupo 564677" transform="translate(170.964 177.564)" opacity="0.6">
          <g id="Grupo_564676" data-name="Grupo 564676">
            <g id="Grupo_564675" data-name="Grupo 564675" clip-path="url(#clip-path-6)">
              <path id="Trazado_277420" data-name="Trazado 277420" d="M402.018,404.847A154.451,154.451,0,0,1,389.8,417.4a154.659,154.659,0,0,1,12.222-12.556" transform="translate(-389.795 -404.844)" fill="#fff"/>
            </g>
          </g>
        </g>
        <g id="Grupo_564680" data-name="Grupo 564680" transform="translate(170.798 166.411)" opacity="0.6">
          <g id="Grupo_564679" data-name="Grupo 564679">
            <g id="Grupo_564678" data-name="Grupo 564678" clip-path="url(#clip-path-7)">
              <path id="Trazado_277421" data-name="Trazado 277421" d="M401.641,379.418a77.575,77.575,0,0,1-5.937,6.456,77.254,77.254,0,0,1-6.285,6.1,154.566,154.566,0,0,1,12.222-12.556" transform="translate(-389.417 -379.415)" fill="#fff"/>
            </g>
          </g>
        </g>
        <g id="Grupo_564683" data-name="Grupo 564683" transform="translate(170.798 153.982)" opacity="0.6">
          <g id="Grupo_564682" data-name="Grupo 564682">
            <g id="Grupo_564681" data-name="Grupo 564681" clip-path="url(#clip-path-7)">
              <path id="Trazado_277422" data-name="Trazado 277422" d="M401.641,351.08a77.564,77.564,0,0,1-5.937,6.456,77.123,77.123,0,0,1-6.285,6.1,154.647,154.647,0,0,1,12.222-12.556" transform="translate(-389.417 -351.077)" fill="#fff"/>
            </g>
          </g>
        </g>
        <g id="Grupo_564686" data-name="Grupo 564686" transform="translate(170.964 141.961)" opacity="0.6">
          <g id="Grupo_564685" data-name="Grupo 564685">
            <g id="Grupo_564684" data-name="Grupo 564684" clip-path="url(#clip-path-6)">
              <path id="Trazado_277423" data-name="Trazado 277423" d="M402.018,323.673a77.753,77.753,0,0,1-5.937,6.456,77.175,77.175,0,0,1-6.285,6.1,154.66,154.66,0,0,1,12.222-12.556" transform="translate(-389.795 -323.67)" fill="#fff"/>
            </g>
          </g>
        </g>
        <g id="Grupo_564689" data-name="Grupo 564689" transform="translate(170.798 130.808)" opacity="0.6">
          <g id="Grupo_564688" data-name="Grupo 564688">
            <g id="Grupo_564687" data-name="Grupo 564687" clip-path="url(#clip-path-7)">
              <path id="Trazado_277424" data-name="Trazado 277424" d="M401.641,298.244A77.652,77.652,0,0,1,395.7,304.7a77.127,77.127,0,0,1-6.285,6.1,154.633,154.633,0,0,1,12.222-12.556" transform="translate(-389.417 -298.241)" fill="#fff"/>
            </g>
          </g>
        </g>
        <g id="Grupo_564692" data-name="Grupo 564692" transform="translate(170.798 118.379)" opacity="0.6">
          <g id="Grupo_564691" data-name="Grupo 564691">
            <g id="Grupo_564690" data-name="Grupo 564690" clip-path="url(#clip-path-7)">
              <path id="Trazado_277425" data-name="Trazado 277425" d="M401.641,269.9a77.649,77.649,0,0,1-5.937,6.456,77.107,77.107,0,0,1-6.285,6.1A77.607,77.607,0,0,1,395.358,276a77.153,77.153,0,0,1,6.284-6.1" transform="translate(-389.417 -269.902)" fill="#fff"/>
            </g>
          </g>
        </g>
        <g id="Grupo_564695" data-name="Grupo 564695" transform="translate(170.798 103.788)" opacity="0.6">
          <g id="Grupo_564694" data-name="Grupo 564694">
            <g id="Grupo_564693" data-name="Grupo 564693" clip-path="url(#clip-path-7)">
              <path id="Trazado_277426" data-name="Trazado 277426" d="M401.641,236.639a77.565,77.565,0,0,1-5.937,6.456,77.194,77.194,0,0,1-6.285,6.1,77.681,77.681,0,0,1,5.938-6.456,77.241,77.241,0,0,1,6.284-6.1" transform="translate(-389.417 -236.636)" fill="#fff"/>
            </g>
          </g>
        </g>
        <g id="Grupo_564698" data-name="Grupo 564698" transform="translate(170.964 88.514)" opacity="0.6">
          <g id="Grupo_564697" data-name="Grupo 564697">
            <g id="Grupo_564696" data-name="Grupo 564696" clip-path="url(#clip-path-6)">
              <path id="Trazado_277427" data-name="Trazado 277427" d="M402.018,201.813a77.666,77.666,0,0,1-5.937,6.456,77.327,77.327,0,0,1-6.285,6.1,77.567,77.567,0,0,1,5.938-6.457,77.238,77.238,0,0,1,6.284-6.1" transform="translate(-389.795 -201.811)" fill="#fff"/>
            </g>
          </g>
        </g>
        <g id="Grupo_564701" data-name="Grupo 564701" transform="translate(170.799 73.511)" opacity="0.6">
          <g id="Grupo_564700" data-name="Grupo 564700">
            <g id="Grupo_564699" data-name="Grupo 564699" clip-path="url(#clip-path-7)">
              <path id="Trazado_277428" data-name="Trazado 277428" d="M401.643,167.608a77.657,77.657,0,0,1-5.937,6.456,77.1,77.1,0,0,1-6.285,6.1,77.7,77.7,0,0,1,5.938-6.456,77.151,77.151,0,0,1,6.284-6.1" transform="translate(-389.419 -167.605)" fill="#fff"/>
            </g>
          </g>
        </g>
        <g id="Grupo_564704" data-name="Grupo 564704" transform="translate(170.797 66.128)" opacity="0.6">
          <g id="Grupo_564703" data-name="Grupo 564703">
            <g id="Grupo_564702" data-name="Grupo 564702" clip-path="url(#clip-path-15)">
              <path id="Trazado_277429" data-name="Trazado 277429" d="M396.728,150.775a27.93,27.93,0,0,1-3.481,3.932,27.687,27.687,0,0,1-3.828,3.576,27.962,27.962,0,0,1,3.481-3.932,27.687,27.687,0,0,1,3.827-3.576" transform="translate(-389.415 -150.771)" fill="#fff"/>
            </g>
          </g>
        </g>
        <path id="Trazado_277430" data-name="Trazado 277430" d="M203.855,140.626s-.187-.125-.545-.378l-.667-.471-.949-.612a32.882,32.882,0,0,0-6.716-3.248,29.6,29.6,0,0,0-5.23-1.31,24.316,24.316,0,0,0-6.4-.145,26.062,26.062,0,0,0-13.986,6.46,42.087,42.087,0,0,0-6.17,6.668c-1.865,2.559-3.722,5.29-5.644,8.112-3.83,5.658-7.766,11.807-11.853,18.312s-8.325,13.368-12.861,20.393c-2.275,3.507-4.614,7.063-7.055,10.626-1.225,1.775-2.382,3.615-3.571,5.454s-2.389,3.688-3.632,5.525a110.739,110.739,0,0,1-7.889,10.51,38.231,38.231,0,0,1-4.569,4.539,15.529,15.529,0,0,1-2.643,1.792,6.905,6.905,0,0,1-3.043.9,8.232,8.232,0,0,1-3.023-.875,30.989,30.989,0,0,1-2.744-1.449c-1.777-1.037-3.469-2.17-5.122-3.32-3.3-2.309-6.423-4.711-9.429-7.107q-2.253-1.8-4.412-3.6t-4.278-3.516c-2.839-2.275-5.629-4.446-8.406-6.431a27.859,27.859,0,0,0-8.689-4.539,19.766,19.766,0,0,0-8.993-.32,24.823,24.823,0,0,0-7.637,3.049,37.108,37.108,0,0,0-5.888,4.426c-3.4,3.121-6.272,5.872-8.6,8.137s-4.114,4.05-5.321,5.262l-1.371,1.381c-.309.311-.47.468-.47.468s.15-.168.454-.484l1.355-1.4c1.2-1.223,2.973-3.016,5.291-5.293s5.183-5.037,8.576-8.168a37.124,37.124,0,0,1,5.9-4.457,24.939,24.939,0,0,1,7.679-3.082,19.922,19.922,0,0,1,9.072.309,28.024,28.024,0,0,1,8.751,4.554c2.785,1.986,5.578,4.154,8.422,6.429q2.132,1.706,4.283,3.514t4.411,3.59c3,2.391,6.129,4.79,9.422,7.093,1.65,1.147,3.339,2.276,5.108,3.307a30.7,30.7,0,0,0,2.725,1.437,8.062,8.062,0,0,0,2.931.854,6.7,6.7,0,0,0,2.938-.873,15.317,15.317,0,0,0,2.6-1.768,38.025,38.025,0,0,0,4.54-4.513,110.65,110.65,0,0,0,7.871-10.489c1.241-1.835,2.443-3.681,3.629-5.52s2.347-3.679,3.575-5.458c2.441-3.56,4.779-7.114,7.055-10.619,4.537-7.021,8.781-13.879,12.871-20.384s8.036-12.65,11.875-18.305c1.927-2.823,3.786-5.547,5.66-8.113a42.194,42.194,0,0,1,6.206-6.684,26.173,26.173,0,0,1,14.077-6.465,24.389,24.389,0,0,1,6.427.164,29.611,29.611,0,0,1,5.243,1.334,32.383,32.383,0,0,1,6.711,3.293l.943.623.661.481c.354.259.532.4.532.4" transform="translate(-9.012 -75.337)" fill="#ff725e"/>
        <path id="Trazado_277431" data-name="Trazado 277431" d="M90.638,287.985a2.553,2.553,0,1,1-2.552-2.615,2.584,2.584,0,0,1,2.552,2.615" transform="translate(-48.019 -160.207)" fill="#ff725e"/>
        <path id="Trazado_277432" data-name="Trazado 277432" d="M85.5,290.022a4.685,4.685,0,1,1,4.576-4.684,4.636,4.636,0,0,1-4.576,4.684m0-8.929a4.247,4.247,0,1,0,4.138,4.246,4.2,4.2,0,0,0-4.138-4.246" transform="translate(-45.428 -157.559)" fill="#ff725e"/>
        <path id="Trazado_277433" data-name="Trazado 277433" d="M403.433,130.959a2.553,2.553,0,1,1-2.552-2.615,2.584,2.584,0,0,1,2.552,2.615" transform="translate(-223.622 -72.052)" fill="#ff725e"/>
        <path id="Trazado_277434" data-name="Trazado 277434" d="M398.29,133a4.685,4.685,0,1,1,4.577-4.684A4.636,4.636,0,0,1,398.29,133m0-8.929a4.247,4.247,0,1,0,4.138,4.246,4.2,4.2,0,0,0-4.138-4.246" transform="translate(-221.031 -69.405)" fill="#ff725e"/>
        <path id="Trazado_277435" data-name="Trazado 277435" d="M20.193,201.473v22.789H48.318l5.168,7.243v-7.243H59.6V201.473Z" transform="translate(-11.336 -113.107)" fill="#fafafa"/>
        <path id="Trazado_277436" data-name="Trazado 277436" d="M20.084,201.34s.059,0,.18-.006l.545-.006,2.132-.012,8.072-.028,28.478-.051h.1v.1c0,6.98.007,14.681.011,22.789v.114H53.377l.114-.114q0,3.674,0,7.243v.355l-.206-.289-5.165-7.244.09.046-28.126-.025H20v-.085c.019-7.032.035-12.736.046-16.69.009-1.962.016-3.488.021-4.531q.006-.767.01-1.174c0-.264.009-.394.009-.394s.006.143.009.412.005.671.01,1.189c0,1.048.012,2.58.021,4.55.011,3.941.027,9.627.046,16.637l-.085-.085,28.126-.025h.057l.033.046,5.17,7.241-.206.066q0-3.563,0-7.243v-.114H59.49l-.114.114c0-8.107.007-15.808.01-22.789l.1.1-28.41-.051-8.095-.028-2.153-.012-.557-.006c-.125,0-.193-.006-.193-.006" transform="translate(-11.227 -112.974)" fill="#263238"/>
        <path id="Trazado_277437" data-name="Trazado 277437" d="M61.643,222.073c0,.063-5.554.114-12.4.114s-12.4-.051-12.4-.114,5.553-.114,12.4-.114,12.4.051,12.4.114" transform="translate(-20.679 -124.608)" fill="#263238"/>
        <path id="Trazado_277438" data-name="Trazado 277438" d="M61.643,233.527c0,.063-5.554.114-12.4.114s-12.4-.051-12.4-.114,5.553-.114,12.4-.114,12.4.051,12.4.114" transform="translate(-20.679 -131.038)" fill="#263238"/>
        <path id="Trazado_277439" data-name="Trazado 277439" d="M399.083,55.017H362.9v20.53h5.982l-.448.081,5.125,6.531-.335-6.612h25.855Z" transform="translate(-203.735 -30.887)" fill="#fafafa"/>
        <path id="Trazado_277440" data-name="Trazado 277440" d="M398.938,54.884s.006.118.009.355.005.6.009,1.059c0,.942.012,2.318.021,4.085.01,3.566.026,8.7.045,15.031V75.5h-.085l-25.855.026.11-.116c.107,2.1.221,4.335.338,6.612l.018.355-.22-.28-5.126-6.53-.117-.149.187-.034.448-.081.02.226h-6.1v-.114c0-7.309.007-14.238.01-20.53v-.1h.1l26.147.051,7.409.028,1.957.012.5.006c.112,0,.165.006.165.006s-.062,0-.177.006l-.511.006-1.977.012-7.433.028-26.079.051.1-.1c0,6.293.007,13.221.01,20.53l-.114-.114h5.981l.021.227-.449.081.07-.183,5.124,6.532-.2.075c-.114-2.278-.227-4.514-.333-6.612l-.006-.116h.116l25.855.026-.085.085c.019-6.3.035-11.426.045-14.979.009-1.775.016-3.157.021-4.1q.006-.7.009-1.074c0-.243.009-.372.009-.372" transform="translate(-203.59 -30.754)" fill="#263238"/>
        <path id="Trazado_277441" data-name="Trazado 277441" d="M378.432,73.818c0-.063,5.05-.114,11.279-.114s11.279.051,11.279.114-5.049.114-11.279.114-11.279-.051-11.279-.114" transform="translate(-212.452 -41.377)" fill="#263238"/>
        <path id="Trazado_277442" data-name="Trazado 277442" d="M378.432,83.848c0-.063,5.05-.114,11.279-.114s11.279.051,11.279.114-5.049.114-11.279.114-11.279-.051-11.279-.114" transform="translate(-212.452 -47.008)" fill="#263238"/>
        <path id="Trazado_277443" data-name="Trazado 277443" d="M106.658,87.109A19.579,19.579,0,1,0,102,92.3l8.776,2.067h0Z" transform="translate(-39.62 -32.27)" fill="#fff"/>
        <path id="Trazado_277444" data-name="Trazado 277444" d="M102.128,92.15l-.177-.023a19.337,19.337,0,0,1-9.258,3.844,17.316,17.316,0,0,1-3.043.141c-.523-.032-1.056-.046-1.593-.093l-1.622-.25a19.39,19.39,0,0,1-11.968-7.724,19.123,19.123,0,0,1-3.227-7.4,19.545,19.545,0,0,1,.233-8.518,18.9,18.9,0,0,1,4.105-7.872,19.247,19.247,0,0,1,7.375-5.268,19.566,19.566,0,0,1,8.582-1.326,18.923,18.923,0,0,1,7.886,2.318,19.508,19.508,0,0,1,9.133,11.183,20.853,20.853,0,0,1,.859,6.247,19.294,19.294,0,0,1-2.82,9.567l-.023.039.022.038,4.183,7.22-4.03-7.255a19.341,19.341,0,0,0,2.886-9.6,21,21,0,0,0-.842-6.325A19.731,19.731,0,0,0,99.56,59.72a19.194,19.194,0,0,0-8-2.367,19.849,19.849,0,0,0-8.721,1.339,19.538,19.538,0,0,0-7.5,5.352,19.194,19.194,0,0,0-4.17,8,19.831,19.831,0,0,0-.229,8.654,19.393,19.393,0,0,0,3.289,7.515,19.621,19.621,0,0,0,12.157,7.8l1.643.247c.544.045,1.083.058,1.613.088a17.478,17.478,0,0,0,3.079-.157,19.4,19.4,0,0,0,9.285-3.909l8.767,1.984-8.646-2.115" transform="translate(-39.619 -32.169)" fill="#263238"/>
        <path id="Trazado_277445" data-name="Trazado 277445" d="M111.579,84.766l.555,8.766a1.422,1.422,0,0,0,2.833.066l.973-8.81a1.116,1.116,0,0,0-1.125-1.239l-2.138.03a1.116,1.116,0,0,0-1.1,1.186" transform="translate(-62.639 -46.905)" fill="#ff725e"/>
        <path id="Trazado_277446" data-name="Trazado 277446" d="M115.851,116.98a2.139,2.139,0,1,1-1.356-2.7,2.139,2.139,0,0,1,1.356,2.7" transform="translate(-62.697 -64.093)" fill="#ff725e"/>
        <path id="Trazado_277447" data-name="Trazado 277447" d="M225.376,289.88l1.736,4.914s8.029,7.371,9.214,17.244,1.185,12.025,1.185,12.025l-2.487,28.8H181.5s-1.773-23.278-1.115-29.86,4.479-14.031,4.479-14.031l4.08-9.874.121-4.97Z" transform="translate(-101.184 -162.739)" fill="#263238"/>
        <path id="Trazado_277448" data-name="Trazado 277448" d="M239.051,302.226a2.39,2.39,0,0,1-.375.082l-1.082.191-3.989.655c-3.371.539-8.031,1.254-13.189,1.977s-9.842,1.3-13.239,1.635c-1.7.175-3.075.289-4.027.357l-1.1.069a2.388,2.388,0,0,1-.383.008,2.4,2.4,0,0,1,.38-.054l1.093-.111c.95-.1,2.323-.234,4.018-.429,3.391-.379,8.066-.982,13.225-1.7s9.819-1.412,13.2-1.91l4-.583,1.089-.149a2.355,2.355,0,0,1,.382-.036" transform="translate(-113.218 -169.669)" fill="#455a64"/>
        <path id="Trazado_277449" data-name="Trazado 277449" d="M207.851,341.957a2.293,2.293,0,0,1-.2.482c-.138.3-.355.736-.636,1.263a36.528,36.528,0,0,1-5.432,7.568c-.409.436-.749.779-.993,1.007a2.242,2.242,0,0,1-.393.34,2.274,2.274,0,0,1,.329-.4l.937-1.053c.785-.894,1.833-2.161,2.893-3.636s1.922-2.873,2.518-3.9l.7-1.225a2.281,2.281,0,0,1,.275-.441" transform="translate(-112.393 -191.975)" fill="#455a64"/>
        <path id="Trazado_277450" data-name="Trazado 277450" d="M350.52,167.788s1.1,18.449,1.428,20.536-1.428,4.722-1.428,4.722-4.063.439-6.809-4.612l-1.757-3.954a25.175,25.175,0,0,0,.988-10.432c-.659-5.93-.988-8.676-.988-8.676Z" transform="translate(-191.973 -92.84)" fill="#ffbe9d"/>
        <path id="Trazado_277451" data-name="Trazado 277451" d="M338.42,101.467c.482,4.453.42,8.3-1.774,9.09-.184.066-1.657.123-1.852.145-2.525.273-5-3.418-5.518-8.245s1.1-8.961,3.626-9.234a16.612,16.612,0,0,1,1.818-.177c2.264.4,3.227,4.047,3.7,8.422" transform="translate(-184.802 -52.233)" fill="#455a64"/>
        <path id="Trazado_277452" data-name="Trazado 277452" d="M351.872,139.689a2.194,2.194,0,0,1,1.516,2.4,41.207,41.207,0,0,1-1.516,4.956l-2.3,2.55-8.353-2.55a5.15,5.15,0,0,1-.57-2.5c.056-1.4,0-4.861,0-4.861a8.275,8.275,0,0,0,1.512-3.185c.279-1.445.482-3.123.541-3.639a.152.152,0,0,1,.183-.132,2.155,2.155,0,0,1,1.622,1.481,3.951,3.951,0,0,1,.335,1.788Z" transform="translate(-191.24 -74.514)" fill="#ffbe9d"/>
        <path id="Trazado_277453" data-name="Trazado 277453" d="M347.974,132.59l-1.194-1.907-1.253.967,2.323,4.592.634-1.925Z" transform="translate(-193.979 -73.365)" fill="#455a64"/>
        <path id="Trazado_277454" data-name="Trazado 277454" d="M348.184,133.383s1.307-1.974,2.519-1.034.933,1.5,0,3.227c0,0,2.379-.327,1.82,2.193,0,0,2.359-.464,2.3,1.564,0,0,1.946,1.608,1.107,2.821s-4.059,3.546-4.946,3.266-1-1.493-1-1.493a3.345,3.345,0,0,1-1.384-.886c-.326-.513.093-1.306.093-1.306s-.933-.806-1.166-1.032,0-1.393,0-1.393l1.26-1.447s-1.82.98-2.24.7-.886-.513-.513-1.119a19.207,19.207,0,0,1,1.764-2.011Z" transform="translate(-194.19 -74.158)" fill="#ffbe9d"/>
        <path id="Trazado_277455" data-name="Trazado 277455" d="M355.679,153.314a6.52,6.52,0,0,1,.556-.8,7.253,7.253,0,0,1,1.61-1.745,16.876,16.876,0,0,0,1.855-1.425,9.368,9.368,0,0,0,.611-.744,1.75,1.75,0,0,1-.493.855,11.623,11.623,0,0,1-1.835,1.5,8.786,8.786,0,0,0-1.62,1.661,3.092,3.092,0,0,1-.683.7" transform="translate(-199.678 -83.421)" fill="#eb996e"/>
        <path id="Trazado_277456" data-name="Trazado 277456" d="M352.265,149.349a18.388,18.388,0,0,1,1.782-2.282c.519-.6.959-1.18,1.349-1.545a1.772,1.772,0,0,1,.7-.5c.019.029-.241.219-.582.608s-.766.972-1.291,1.58a18.389,18.389,0,0,1-1.956,2.134" transform="translate(-197.761 -81.417)" fill="#eb996e"/>
        <path id="Trazado_277457" data-name="Trazado 277457" d="M352.485,142.183a8.451,8.451,0,0,1,1.01-1.153,14.347,14.347,0,0,0,.871-1.237,2.3,2.3,0,0,1-.7,1.386,3.847,3.847,0,0,1-1.182,1" transform="translate(-197.883 -78.48)" fill="#eb996e"/>
        <path id="Trazado_277458" data-name="Trazado 277458" d="M344.84,150.69a1.64,1.64,0,0,1,.778.319,4.437,4.437,0,0,1,1.388,1.479,8.439,8.439,0,0,1,.793,1.858,2.787,2.787,0,0,1,.187.814,3.29,3.29,0,0,1-.339-.76,12.133,12.133,0,0,0-.836-1.794,5.07,5.07,0,0,0-1.285-1.463c-.4-.3-.7-.417-.686-.452" transform="translate(-193.593 -84.595)" fill="#eb996e"/>
        <path id="Trazado_277459" data-name="Trazado 277459" d="M342.383,101.378c.522,4.827-.8,8.929-2.956,9.161s-4.325-3.49-4.847-8.317.8-8.928,2.955-9.161,4.325,3.491,4.847,8.317" transform="translate(-187.77 -52.239)" fill="#263238"/>
        <path id="Trazado_277460" data-name="Trazado 277460" d="M338.646,110.723c2.018-1.012,3.223-4.725,2.763-8.975-.457-4.228-2.41-7.585-4.584-8.168-1.712.977-2.685,4.665-2.224,8.918.457,4.226,2.178,7.607,4.045,8.226" transform="translate(-187.781 -52.535)" fill="#e0e0e0"/>
        <path id="Trazado_277461" data-name="Trazado 277461" d="M343.519,114.137a37.657,37.657,0,0,1-.361-4.135,37.851,37.851,0,0,1-.133-4.149,37.715,37.715,0,0,1,.361,4.136,37.921,37.921,0,0,1,.132,4.149" transform="translate(-192.561 -59.426)" fill="#fff"/>
        <path id="Trazado_277462" data-name="Trazado 277462" d="M341.766,108.2a5.412,5.412,0,0,1-.224-1.15c-.1-.716-.208-1.71-.268-2.812s-.063-2.1-.039-2.825a5.442,5.442,0,0,1,.1-1.168,6.6,6.6,0,0,1,.064,1.168c.018.721.047,1.715.106,2.813s.14,2.089.2,2.807a6.645,6.645,0,0,1,.063,1.168" transform="translate(-191.562 -56.276)" fill="#fff"/>
        <path id="Trazado_277463" data-name="Trazado 277463" d="M348.089,133.306a.617.617,0,0,1-.013.139c-.016.1-.036.235-.061.4l-.259,1.521,0,.014-.011.012c-.256.266-.542.571-.85.914a8.18,8.18,0,0,0-.928,1.175.574.574,0,0,0-.075.355.551.551,0,0,0,.211.307,3.722,3.722,0,0,0,.36.25.508.508,0,0,0,.387.043,7.313,7.313,0,0,0,1.8-.73l.427-.22-.313.362-1.254,1.451.018-.031a1.751,1.751,0,0,0,.047,1.4,3.9,3.9,0,0,0,1.175,1.011l.1.062-.067.094c-.269.378-.433.953-.014,1.264a5.084,5.084,0,0,0,1.369.777l-.153.1v-.032c.031.031-.071-.074.073.092.3-.171.085-.068.15-.1h0l0,.053.011.111a2.034,2.034,0,0,0,.04.223,1.76,1.76,0,0,0,.155.423,1.153,1.153,0,0,0,.273.343.682.682,0,0,0,.371.174,2.173,2.173,0,0,0,.889-.254,8.1,8.1,0,0,0,.863-.479,14.773,14.773,0,0,0,1.515-1.1,9.349,9.349,0,0,0,1.3-1.264,1.135,1.135,0,0,0,.3-.75,1.75,1.75,0,0,0-.214-.792,4.6,4.6,0,0,0-1.055-1.286l-.037-.033,0-.053a1.726,1.726,0,0,0-.146-.778,1.171,1.171,0,0,0-.529-.528,2.583,2.583,0,0,0-1.5-.158l-.136.02.021-.138c.024-.152.054-.3.072-.453a2.476,2.476,0,0,0,0-.442,1.223,1.223,0,0,0-.312-.757,1.8,1.8,0,0,0-1.47-.437l-.16.014.075-.137a13.336,13.336,0,0,0,.664-1.32,1.855,1.855,0,0,0,.143-.638,1.021,1.021,0,0,0-.172-.568,2.59,2.59,0,0,0-.82-.753,1.107,1.107,0,0,0-.9-.016,3,3,0,0,0-1.053.789c-.1.112-.177.2-.228.264a.539.539,0,0,1-.079.09.383.383,0,0,1,.059-.1,3.369,3.369,0,0,1,.211-.282,3.65,3.65,0,0,1,.4-.414,2.282,2.282,0,0,1,.659-.43,1.2,1.2,0,0,1,.985,0l.243.148.224.18a2.366,2.366,0,0,1,.416.455,1.157,1.157,0,0,1,.2.641,1.978,1.978,0,0,1-.144.693,13.213,13.213,0,0,1-.658,1.346l-.086-.123a2.5,2.5,0,0,1,.843.049,1.545,1.545,0,0,1,.784.43,1.41,1.41,0,0,1,.367.861,2.694,2.694,0,0,1,.006.479c-.018.159-.048.317-.073.479l-.115-.118a2.764,2.764,0,0,1,1.628.167,1.379,1.379,0,0,1,.625.62,1.935,1.935,0,0,1,.172.878l-.039-.086a4.774,4.774,0,0,1,1.115,1.351,1.967,1.967,0,0,1,.241.9,1.408,1.408,0,0,1-.093.478,2.06,2.06,0,0,1-.255.407,9.449,9.449,0,0,1-1.332,1.3,14.906,14.906,0,0,1-1.539,1.118,8.275,8.275,0,0,1-.888.492,2.338,2.338,0,0,1-1,.274,1.131,1.131,0,0,1-.83-.637,1.989,1.989,0,0,1-.175-.478,2.372,2.372,0,0,1-.043-.247l-.011-.125,0-.067v-.017c.065-.03-.147.073.15-.1.144.164.043.061.074.092v.232l-.152-.065a5.247,5.247,0,0,1-1.437-.824,1.061,1.061,0,0,1-.264-.353.881.881,0,0,1-.056-.439,1.7,1.7,0,0,1,.311-.762l.031.157a4.047,4.047,0,0,1-1.241-1.086,1.454,1.454,0,0,1-.194-.8,2.57,2.57,0,0,1,.137-.773l.006-.017.013-.014,1.265-1.442.114.142a7.376,7.376,0,0,1-1.866.732.673.673,0,0,1-.5-.073,3.809,3.809,0,0,1-.372-.265.7.7,0,0,1-.259-.4.714.714,0,0,1,.094-.449,8.008,8.008,0,0,1,.966-1.191c.316-.34.609-.639.871-.9l-.014.025.308-1.519c.035-.16.063-.289.086-.391a.528.528,0,0,1,.037-.129" transform="translate(-194.095 -74.088)" fill="#eb996e"/>
        <path id="Trazado_277464" data-name="Trazado 277464" d="M152.416,294.459l-16.564-20.567s-8.809,7.417-9.042,7.65,13.779,13.863,22.776,19.14l2.83-1.873Z" transform="translate(-71.189 -153.763)" fill="#ffbe9d"/>
        <path id="Trazado_277465" data-name="Trazado 277465" d="M194.9,305.01s-5.23-.826-5.711-.482-4.06,2.753-4.06,2.753a19.508,19.508,0,0,1-1.583,2.133s-1.17,1.376-2.064,1.514a4,4,0,0,1-1.445,0l-2.34,6.468s1.789,1.858,2.89,1.72,6.95-3.372,6.95-3.372l1.445-.482s5.643.207,5.918-1.514v-.482l-5.574-.482-2.064.344,3.578-1.346s5.23-.306,5.711-.443,1.032-.894.826-1.307l-1.1-.137s1.188-.822,1.146-1.579l-4.95-.786s2.979-1.49,2.429-2.522" transform="translate(-99.756 -170.916)" fill="#ffbe9d"/>
        <path id="Trazado_277466" data-name="Trazado 277466" d="M207.4,315.35a2.026,2.026,0,0,1-.454-.063c-.289-.052-.707-.12-1.226-.2-1.038-.154-2.477-.335-4.069-.513a5.1,5.1,0,0,0-.576-.049,1.746,1.746,0,0,0-.531.1c-.336.132-.676.291-.987.434-.627.293-1.182.577-1.637.834a12.3,12.3,0,0,0-1.047.658,2.5,2.5,0,0,1-.375.26,1.372,1.372,0,0,1,.321-.33,8.274,8.274,0,0,1,1.02-.727c.45-.278,1-.58,1.629-.885.318-.152.637-.308,1-.456a1.943,1.943,0,0,1,.6-.111,4.989,4.989,0,0,1,.607.049c1.6.178,3.035.386,4.071.581.518.1.934.19,1.219.269a1.59,1.59,0,0,1,.434.15" transform="translate(-110.311 -176.449)" fill="#eb996e"/>
        <path id="Trazado_277467" data-name="Trazado 277467" d="M203.05,311.242c-.015.036-.4-.136-1.065-.263a5.8,5.8,0,0,0-4.9,1.269c-.516.433-.772.771-.8.747a2.781,2.781,0,0,1,.7-.868,5.427,5.427,0,0,1,5.038-1.306,2.778,2.778,0,0,1,1.03.421" transform="translate(-110.194 -174.404)" fill="#eb996e"/>
        <path id="Trazado_277468" data-name="Trazado 277468" d="M317.133,193.392a8.577,8.577,0,0,1,1.007,3.531,20.321,20.321,0,0,1-1,4.716l-1.248,1.179s.819,3.751-3.932,4.823-31.341-14.214-31.341-14.214l-.741-20.3a23.511,23.511,0,0,1,6.645,4.395c2.787,2.787,18.651,14.47,18.651,14.47s.645-4.139,1.359-3.865,10.6,5.265,10.6,5.265" transform="translate(-157.122 -97.194)" fill="#e0e0e0"/>
        <path id="Trazado_277469" data-name="Trazado 277469" d="M217.054,164.079l-14.391-3.061-3.746-3.85-16.549-.158-1.993,3.622-12.4,7.541s3.123,20.655,4.262,23.06S182.406,220.2,182.406,220.2l36.077-4.3.309-16.669,1.043-8.066a23.912,23.912,0,0,0,.1-5.2c-.675-7.544-2.883-21.879-2.883-21.879" transform="translate(-94.301 -88.146)" fill="#e0e0e0"/>
        <path id="Trazado_277470" data-name="Trazado 277470" d="M131.865,227.51l-11.825,8.11-4.132-5.89,1.1-.982s-6.1-5.043-5.733-8.6,6.8-12.709,6.8-12.709,13.784-22.565,18.056-24.985c.6-.339,5.783,12.185,5.783,17.093s-.982,4.908-.982,4.908a39.219,39.219,0,0,0-6.135,7.73c-1.963,3.681-5.3,7.689-7.505,9.161Z" transform="translate(-62.463 -102.426)" fill="#e0e0e0"/>
        <path id="Trazado_277471" data-name="Trazado 277471" d="M132.746,264.5a.874.874,0,0,1,.319-.032,5.914,5.914,0,0,1,.869.048,8.535,8.535,0,0,1,2.746.833,9.076,9.076,0,0,1,2.332,1.674,3.945,3.945,0,0,1,.754.917,13.626,13.626,0,0,0-3.188-2.386,9.9,9.9,0,0,0-2.668-.877c-.712-.124-1.165-.137-1.164-.176" transform="translate(-74.524 -148.474)" fill="#263238"/>
        <path id="Trazado_277472" data-name="Trazado 277472" d="M140.966,255.441a3.546,3.546,0,0,1,.879.748,8.152,8.152,0,0,1,1.525,2.336,8.332,8.332,0,0,1,.662,2.71,3.612,3.612,0,0,1-.048,1.154c-.039,0-.029-.441-.113-1.138a9.722,9.722,0,0,0-.711-2.634,9.5,9.5,0,0,0-1.435-2.319c-.454-.536-.785-.825-.759-.855" transform="translate(-79.138 -143.404)" fill="#263238"/>
        <path id="Trazado_277473" data-name="Trazado 277473" d="M237.476,226.167a3.081,3.081,0,0,1,.107.6,5.94,5.94,0,0,1,.069.709c.013.277.044.593.029.943a11.008,11.008,0,0,1-.054,1.144c-.023.412-.1.846-.169,1.3a15.079,15.079,0,0,1-2.2,5.576c-.263.382-.5.751-.769,1.068a11.044,11.044,0,0,1-.743.872c-.229.266-.468.475-.667.669a5.935,5.935,0,0,1-.535.47,3.089,3.089,0,0,1-.486.363c-.032-.037.651-.57,1.568-1.61.228-.261.475-.549.713-.879.255-.318.487-.686.742-1.066a15.793,15.793,0,0,0,2.174-5.5c.074-.451.156-.879.187-1.285.053-.4.069-.782.081-1.129.042-1.386-.092-2.242-.044-2.247" transform="translate(-130.275 -126.97)" fill="#263238"/>
        <path id="Trazado_277474" data-name="Trazado 277474" d="M216.479,184.118a2.108,2.108,0,0,1-.281-.211c-.181-.142-.436-.364-.784-.628-.683-.544-1.7-1.293-2.994-2.185s-2.857-1.921-4.59-3.089a55.7,55.7,0,0,1-5.479-4.084l.168-.019c-.184.263-.371.551-.549.849a12.544,12.544,0,0,0-1.51,4l-.066.347-.144-.322a55.831,55.831,0,0,1-3.24-9.565c-.295-1.224-.493-2.209-.611-2.889-.063-.339-.1-.6-.126-.782a1.435,1.435,0,0,1-.029-.273,1.416,1.416,0,0,1,.068.266c.041.195.095.452.162.774.141.675.361,1.653.674,2.869a59.52,59.52,0,0,0,3.3,9.507l-.21.025a12.665,12.665,0,0,1,1.532-4.076c.18-.3.371-.6.559-.864l.072-.1.1.084a57.853,57.853,0,0,0,5.444,4.084c1.725,1.178,3.284,2.22,4.564,3.132s2.29,1.681,2.958,2.247c.341.275.587.508.759.661a2.114,2.114,0,0,1,.251.244" transform="translate(-110.171 -92.782)" fill="#263238"/>
        <path id="Trazado_277475" data-name="Trazado 277475" d="M244.434,166.148a.88.88,0,0,1,.12.181c.072.123.181.3.311.543.265.476.634,1.179,1.063,2.072a35.284,35.284,0,0,1,2.674,7.451l.068.3-.246-.191a16.153,16.153,0,0,1-3.2-3.313l.2-.061c-.143,2.534-.272,4.848-.379,6.747v.021l-.01.018-1.915,3.435-.538.938a2.087,2.087,0,0,1-.2.32,1.984,1.984,0,0,1,.158-.346l.5-.961,1.846-3.473-.011.038c.093-1.9.207-4.215.332-6.75l.016-.321.189.26a16.269,16.269,0,0,0,3.154,3.269l-.178.111A37.7,37.7,0,0,0,245.8,169c-.41-.9-.758-1.61-1-2.1l-.277-.56a.9.9,0,0,1-.085-.2" transform="translate(-136.072 -93.275)" fill="#263238"/>
        <path id="Trazado_277476" data-name="Trazado 277476" d="M285,205.017c-.063.006-.444-3.472-.852-7.767s-.687-7.784-.624-7.79.444,3.471.852,7.768.687,7.783.624,7.789" transform="translate(-159.165 -106.363)" fill="#263238"/>
        <path id="Trazado_277477" data-name="Trazado 277477" d="M340.871,221.8a3.7,3.7,0,0,1-.768-.733,11.66,11.66,0,0,1-2.442-4.475,3.665,3.665,0,0,1-.2-1.043,17.015,17.015,0,0,0,3.411,6.251" transform="translate(-189.446 -121.01)" fill="#263238"/>
        <path id="Trazado_277478" data-name="Trazado 277478" d="M338.319,220.828c-.013.009-.089-.079-.216-.249a5.45,5.45,0,0,1-.471-.761,7.927,7.927,0,0,1-.6-5.767,5.464,5.464,0,0,1,.305-.842c.089-.192.146-.294.16-.287.037.015-.142.445-.309,1.169a8.794,8.794,0,0,0,.587,5.656c.312.674.575,1.058.542,1.081" transform="translate(-189.049 -119.534)" fill="#263238"/>
        <path id="Trazado_277479" data-name="Trazado 277479" d="M166.751,211.333a2.113,2.113,0,0,1,.237.441l.58,1.228,1.928,4.047c.755,1.581,1.419,3.022,1.869,4.079.226.529.4.959.514,1.26a2.064,2.064,0,0,1,.155.476,2.14,2.14,0,0,1-.237-.441l-.58-1.229-1.928-4.047c-.754-1.58-1.418-3.021-1.868-4.079-.226-.528-.4-.958-.515-1.259a2.1,2.1,0,0,1-.155-.476" transform="translate(-93.613 -118.642)" fill="#263238"/>
        <path id="Trazado_277480" data-name="Trazado 277480" d="M256.592,266.2a2.531,2.531,0,0,1-.129.533c-.1.339-.249.826-.449,1.423-.4,1.2-1,2.83-1.767,4.6s-1.539,3.328-2.136,4.438c-.3.555-.547,1-.729,1.3a2.53,2.53,0,0,1-.3.459,2.526,2.526,0,0,1,.222-.5l.663-1.334c.559-1.127,1.308-2.693,2.07-4.454s1.387-3.381,1.825-4.56l.517-1.4a2.531,2.531,0,0,1,.213-.505" transform="translate(-140.957 -149.443)" fill="#263238"/>
        <path id="Trazado_277481" data-name="Trazado 277481" d="M258.655,282.956a2.994,2.994,0,0,1-.35.812,16.691,16.691,0,0,1-2.447,3.479,3.02,3.02,0,0,1-.646.6c-.05-.046.847-1.045,1.794-2.4s1.589-2.529,1.649-2.5" transform="translate(-143.275 -158.852)" fill="#263238"/>
        <path id="Trazado_277482" data-name="Trazado 277482" d="M248.8,240.929a1.948,1.948,0,0,1-.05-.339l-.1-.974c-.075-.847-.2-2.071-.357-3.582-.332-3.02-.845-7.19-1.725-11.74a109.744,109.744,0,0,0-2.84-11.518c-.216-.728-.428-1.382-.617-1.955s-.346-1.069-.487-1.47l-.311-.928a1.916,1.916,0,0,1-.093-.329,1.9,1.9,0,0,1,.137.314l.351.914c.154.4.329.887.524,1.459s.423,1.221.65,1.947a98.272,98.272,0,0,1,2.911,11.523c.882,4.56,1.371,8.74,1.662,11.767.138,1.514.237,2.742.285,3.591.023.407.041.732.055.978a1.945,1.945,0,0,1,0,.342" transform="translate(-135.981 -116.824)" fill="#263238"/>
        <path id="Trazado_277483" data-name="Trazado 277483" d="M258.537,284.345a5.138,5.138,0,0,0-.287-4.078c.022-.016.193.162.379.511a3.823,3.823,0,0,1,.212,3.007c-.136.372-.28.572-.3.559" transform="translate(-144.979 -157.342)" fill="#263238"/>
        <path id="Trazado_277484" data-name="Trazado 277484" d="M257.253,292.8c-.063,0-.1-.286-.077-.629s.088-.62.151-.616.1.286.077.629-.088.62-.151.616" transform="translate(-144.375 -163.678)" fill="#263238"/>
        <path id="Trazado_277485" data-name="Trazado 277485" d="M134.075,275.043a2.589,2.589,0,0,1-.525.179c-.341.1-.832.253-1.429.463s-1.3.49-2.068.823-1.589.755-2.434,1.226a36.214,36.214,0,0,0-4.135,2.725c-.5.384-.909.7-1.186.925a2.591,2.591,0,0,1-.447.328,2.574,2.574,0,0,1,.389-.4c.259-.245.649-.583,1.144-.985a29.784,29.784,0,0,1,4.123-2.8c.851-.474,1.687-.881,2.461-1.219s1.489-.6,2.1-.783,1.108-.325,1.458-.4a2.585,2.585,0,0,1,.547-.093" transform="translate(-68.408 -154.408)" fill="#263238"/>
        <path id="Trazado_277486" data-name="Trazado 277486" d="M135.876,274.988c0,.04-.6.021-1.558.105a16.28,16.28,0,0,0-3.663.772,19.9,19.9,0,0,0-3.418,1.543c-.837.476-1.335.809-1.356.778a1.493,1.493,0,0,1,.322-.272c.215-.166.539-.388.951-.645a16.557,16.557,0,0,1,3.429-1.621,14.056,14.056,0,0,1,3.724-.716,9.62,9.62,0,0,1,1.15,0,1.488,1.488,0,0,1,.419.052" transform="translate(-70.669 -154.339)" fill="#263238"/>
        <g id="Grupo_564707" data-name="Grupo 564707" transform="translate(73.861 94.259)" opacity="0.3">
          <g id="Grupo_564706" data-name="Grupo 564706">
            <g id="Grupo_564705" data-name="Grupo 564705" clip-path="url(#clip-path-16)">
              <path id="Trazado_277487" data-name="Trazado 277487" d="M168.5,214.909a9.382,9.382,0,0,0,4.114,9.122c-1.033-2.632-2.825-6.415-4.114-9.122" transform="translate(-168.402 -214.909)"/>
            </g>
          </g>
        </g>
        <g id="Grupo_564710" data-name="Grupo 564710" transform="translate(90.726 81.037)" opacity="0.3">
          <g id="Grupo_564709" data-name="Grupo 564709">
            <g id="Grupo_564708" data-name="Grupo 564708" clip-path="url(#clip-path-17)">
              <path id="Trazado_277488" data-name="Trazado 277488" d="M206.855,187.739a9.976,9.976,0,0,0,2.25,2.992q-.022-1.2-.044-2.4l10.987,4.882-11.793-8.452c-.644,1.083-.756,1.892-1.4,2.975" transform="translate(-206.855 -184.764)"/>
            </g>
          </g>
        </g>
        <g id="Grupo_564713" data-name="Grupo 564713" transform="translate(108.893 79.851)" opacity="0.3">
          <g id="Grupo_564712" data-name="Grupo 564712">
            <g id="Grupo_564711" data-name="Grupo 564711" clip-path="url(#clip-path-18)">
              <path id="Trazado_277489" data-name="Trazado 277489" d="M250.393,184.354c-.47-.738-1.769-2.294-1.769-2.294-.042,1.151-.143,2.727-.184,3.878l-.165,2.758c.17-.961.3-2.817.467-3.778l2.044,1.937a2.878,2.878,0,0,0-.392-2.5" transform="translate(-248.275 -182.06)"/>
            </g>
          </g>
        </g>
        <g id="Grupo_564716" data-name="Grupo 564716" transform="translate(124.418 84.97)" opacity="0.3">
          <g id="Grupo_564715" data-name="Grupo 564715">
            <g id="Grupo_564714" data-name="Grupo 564714" clip-path="url(#clip-path-19)">
              <path id="Trazado_277490" data-name="Trazado 277490" d="M283.672,193.73l1.4,12.653c.611-4.116,1.731-6.353-1.4-12.653" transform="translate(-283.672 -193.73)"/>
            </g>
          </g>
        </g>
        <g id="Grupo_564719" data-name="Grupo 564719" transform="translate(148.053 94.747)" opacity="0.3">
          <g id="Grupo_564718" data-name="Grupo 564718">
            <g id="Grupo_564717" data-name="Grupo 564717" clip-path="url(#clip-path-20)">
              <path id="Trazado_277491" data-name="Trazado 277491" d="M345.173,224.485a16.112,16.112,0,0,0-2.29-1.035c-2.725-1.48-4.169-4.19-5.231-7.1l-.094-.326a11.34,11.34,0,0,0,6.149,9.683,2.087,2.087,0,0,0,1.169.247.825.825,0,0,0,.729-.82,1.06,1.06,0,0,0-.432-.645" transform="translate(-337.558 -216.021)"/>
            </g>
          </g>
        </g>
        <g id="Grupo_564722" data-name="Grupo 564722" transform="translate(99.17 104.605)" opacity="0.3">
          <g id="Grupo_564721" data-name="Grupo 564721">
            <g id="Grupo_564720" data-name="Grupo 564720" clip-path="url(#clip-path-21)">
              <path id="Trazado_277492" data-name="Trazado 277492" d="M226.106,247.953c4.509-1.5,6.683-5.743,7.84-9.455a14.963,14.963,0,0,1-.574,4.771,7.584,7.584,0,0,1-2.688,3.909,5.115,5.115,0,0,1-4.578.775" transform="translate(-226.106 -238.498)"/>
            </g>
          </g>
        </g>
        <g id="Grupo_564725" data-name="Grupo 564725" transform="translate(55.337 120.85)" opacity="0.3">
          <g id="Grupo_564724" data-name="Grupo 564724">
            <g id="Grupo_564723" data-name="Grupo 564723" clip-path="url(#clip-path-22)">
              <path id="Trazado_277493" data-name="Trazado 277493" d="M135.621,275.612a13.1,13.1,0,0,0-9.129,2.947c-.186.154-.386.376-.306.6a.42.42,0,0,0,.445.236,1.262,1.262,0,0,0,.5-.208,39.245,39.245,0,0,1,8.492-3.655" transform="translate(-126.168 -275.536)"/>
            </g>
          </g>
        </g>
        <g id="Grupo_564728" data-name="Grupo 564728" transform="translate(110.76 111.871)" opacity="0.3">
          <g id="Grupo_564727" data-name="Grupo 564727">
            <g id="Grupo_564726" data-name="Grupo 564726" clip-path="url(#clip-path-23)">
              <path id="Trazado_277494" data-name="Trazado 277494" d="M260.667,255.315a.92.92,0,0,0-1.24-.022,2.673,2.673,0,0,0-.717,1.155l-5.356,13.294-.822,1.972,5.615-9.412a18.355,18.355,0,0,0,2.65-5.96,1.259,1.259,0,0,0-.131-1.026" transform="translate(-252.532 -255.064)"/>
            </g>
          </g>
        </g>
        <path id="Trazado_277495" data-name="Trazado 277495" d="M183.429,74.317c3.323-4.636,8.826-7.349,14.435-8.377a14.614,14.614,0,0,1,6.26.357,10.157,10.157,0,0,1,6.022,3.453,17.029,17.029,0,0,1,3.82,7.544,47.722,47.722,0,0,1,.976,8.715,16,16,0,0,1-2.2,8.387l-7.331,1.762c-4.086.4-8.228.8-12.276.121s-8.061-2.578-10.421-5.937c-3.278-4.667-2.606-11.39.717-16.026" transform="translate(-101.371 -36.904)" fill="#263238"/>
        <path id="Trazado_277496" data-name="Trazado 277496" d="M249.412,132.044c-.014.019.132.175.468.361a3.634,3.634,0,0,0,1.56.418,3.965,3.965,0,0,0,2.326-.628,3.963,3.963,0,0,0,1.089-5.367,3.967,3.967,0,0,0-1.9-1.486,3.646,3.646,0,0,0-1.6-.223,1.136,1.136,0,0,0-.571.15,5.553,5.553,0,0,1,2.053.364,3.824,3.824,0,0,1,1.672,1.418,3.649,3.649,0,0,1-.976,4.806,3.824,3.824,0,0,1-2.093.653,5.523,5.523,0,0,1-2.032-.466" transform="translate(-140.02 -70.233)" fill="#e0e0e0"/>
        <path id="Trazado_277497" data-name="Trazado 277497" d="M174.015,126.95a5.544,5.544,0,0,1,2.243-4.332,3.992,3.992,0,0,1,4.706.107l1.254,1.314a4.794,4.794,0,0,1,3.061,4.65,5.254,5.254,0,0,1-3.362,4.522,5.816,5.816,0,0,1-5.612-.982,6.52,6.52,0,0,1-2.29-5.278" transform="translate(-97.689 -68.437)" fill="#263238"/>
        <path id="Trazado_277498" data-name="Trazado 277498" d="M177.133,134.023a2.5,2.5,0,0,1-.493-1.449,6.717,6.717,0,0,1,1.484-3.441,10.052,10.052,0,0,1,2.818-2.572c.839-.521,1.425-.73,1.4-.789a4.042,4.042,0,0,0-1.531.566,8.958,8.958,0,0,0-2.983,2.578,8.753,8.753,0,0,0-1.082,1.9,4.007,4.007,0,0,0-.368,1.768,2.1,2.1,0,0,0,.407,1.154c.183.23.331.3.344.287" transform="translate(-99.017 -70.605)" fill="#455a64"/>
        <path id="Trazado_277499" data-name="Trazado 277499" d="M185.918,136.923a13.116,13.116,0,0,1,1.845-9.483,4,4,0,0,0-.909,1.163,10.338,10.338,0,0,0-1.343,6.9,4.007,4.007,0,0,0,.407,1.419" transform="translate(-104.077 -71.545)" fill="#455a64"/>
        <path id="Trazado_277500" data-name="Trazado 277500" d="M215.254,111.606c-.216-2.6-.413-4.725-.412-4.713s6-1.052,7.178-8.906c.584-3.906.331-10.3-.045-15.524-.339-4.7-4.754-10.854-10.565-10.5l-2.6-.135-9.632,4.56a2.76,2.76,0,0,0-2.443,2.821l2.111,33.6,17.91,18.857,1.028-5.32Z" transform="translate(-110.445 -40.322)" fill="#ffbe9d"/>
        <path id="Trazado_277501" data-name="Trazado 277501" d="M227.623,127.068a1.653,1.653,0,0,1,.505-1.054,1.689,1.689,0,0,1,2.037-.247,2.262,2.262,0,0,1,.993,2.064,2.057,2.057,0,0,1-1.414.946,2.409,2.409,0,0,1-.275.026,1.845,1.845,0,0,1-1.274-.412,1.645,1.645,0,0,1-.572-1.323" transform="translate(-127.786 -70.474)" fill="#eb996e"/>
        <path id="Trazado_277502" data-name="Trazado 277502" d="M246.994,107.084a1.006,1.006,0,0,1-.961,1.024.962.962,0,0,1-1.045-.9,1.007,1.007,0,0,1,.96-1.024.963.963,0,0,1,1.047.9" transform="translate(-137.536 -59.612)" fill="#263238"/>
        <path id="Trazado_277503" data-name="Trazado 277503" d="M245.231,101.644c-.124.132-.891-.425-1.973-.412-1.081,0-1.871.561-1.989.429-.059-.058.067-.3.41-.551a2.761,2.761,0,0,1,1.591-.506,2.651,2.651,0,0,1,1.572.492c.335.252.45.489.389.548" transform="translate(-135.441 -56.479)" fill="#263238"/>
        <path id="Trazado_277504" data-name="Trazado 277504" d="M235.3,111.055a7.168,7.168,0,0,1,1.755-.333c.276-.031.537-.088.582-.277a1.408,1.408,0,0,0-.192-.818l-.836-2.1a36.2,36.2,0,0,1-1.885-5.489,36.227,36.227,0,0,1,2.322,5.324q.42,1.1.8,2.11a1.6,1.6,0,0,1,.153,1.083.694.694,0,0,1-.451.408,1.862,1.862,0,0,1-.469.069,7.048,7.048,0,0,1-1.782.018" transform="translate(-131.77 -57.286)" fill="#263238"/>
        <path id="Trazado_277505" data-name="Trazado 277505" d="M224.545,148.315a19.951,19.951,0,0,1-10.529-2.708s2.847,5.411,10.69,4.607Z" transform="translate(-120.149 -81.744)" fill="#eb996e"/>
        <path id="Trazado_277506" data-name="Trazado 277506" d="M228.591,124.365c.176-.012.189,1.163,1.2,1.988s2.263.684,2.273.848c.017.074-.277.231-.805.25a2.925,2.925,0,0,1-1.9-.642,2.545,2.545,0,0,1-.932-1.668c-.049-.49.079-.783.16-.777" transform="translate(-128.235 -69.819)" fill="#263238"/>
        <path id="Trazado_277507" data-name="Trazado 277507" d="M244.44,91.375c-.188.247-.936,0-1.833,0-.9-.036-1.654.18-1.832-.076-.078-.124.04-.371.369-.607a2.654,2.654,0,0,1,2.953.065c.319.25.425.5.343.623" transform="translate(-135.158 -50.678)" fill="#263238"/>
        <path id="Trazado_277508" data-name="Trazado 277508" d="M221.808,107.556a1.006,1.006,0,0,0,1.016.969.962.962,0,0,0,.994-.954,1.006,1.006,0,0,0-1.015-.969.963.963,0,0,0-.995.954" transform="translate(-124.523 -59.846)" fill="#263238"/>
        <path id="Trazado_277509" data-name="Trazado 277509" d="M217.96,103.34c.131.125.866-.473,1.947-.521,1.079-.063,1.9.457,2.01.318.055-.061-.083-.292-.44-.527a2.766,2.766,0,0,0-1.617-.418,2.654,2.654,0,0,0-1.542.578c-.321.271-.422.513-.358.569" transform="translate(-122.353 -57.37)" fill="#263238"/>
        <path id="Trazado_277510" data-name="Trazado 277510" d="M217.974,99.817c.2.236.935-.053,1.83-.106.893-.085,1.662.088,1.825-.177.071-.129-.06-.369-.4-.586a2.654,2.654,0,0,0-2.944.228c-.305.267-.4.525-.308.641" transform="translate(-122.353 -55.358)" fill="#263238"/>
        <path id="Trazado_277511" data-name="Trazado 277511" d="M195.976,115.977c-.007-.584-.694-1.955-1.272-2.04-1.543-.226-4.318-.078-4.308,3.834.012,5.348,5.379,4.232,5.388,4.079.007-.12.215-3.857.192-5.873" transform="translate(-106.888 -63.927)" fill="#ffbe9d"/>
        <path id="Trazado_277512" data-name="Trazado 277512" d="M194.834,121.932c-.023-.017-.093.065-.25.138a.933.933,0,0,1-.7.016,2.3,2.3,0,0,1-1.072-2.066,3.076,3.076,0,0,1,.257-1.335,1.074,1.074,0,0,1,.7-.716.475.475,0,0,1,.55.254c.072.15.038.257.067.265s.114-.089.071-.31a.6.6,0,0,0-.211-.335.705.705,0,0,0-.515-.135,1.31,1.31,0,0,0-.971.832,3.166,3.166,0,0,0-.319,1.492,2.418,2.418,0,0,0,1.364,2.306,1,1,0,0,0,.852-.144c.165-.132.193-.252.175-.261" transform="translate(-108.037 -66.079)" fill="#eb996e"/>
        <path id="Trazado_277513" data-name="Trazado 277513" d="M193.833,89.167l1.443,1.318c5.487-5.968,16.015-20.7,15.431-19.829a17.055,17.055,0,0,0-8.408-.373C198,71.3,189.9,74,190.351,79.119a26.791,26.791,0,0,0,3.483,10.048" transform="translate(-106.853 -39.247)" fill="#263238"/>
        <path id="Trazado_277514" data-name="Trazado 277514" d="M192.291,135.575c.016.016-.109.191-.418.417a3.646,3.646,0,0,1-1.494.614,3.97,3.97,0,0,1-2.387-.327,3.962,3.962,0,0,1-1.764-5.185,3.972,3.972,0,0,1,1.693-1.715,3.638,3.638,0,0,1,1.558-.425,1.137,1.137,0,0,1,.585.075,5.549,5.549,0,0,0-1.99.622,3.824,3.824,0,0,0-1.478,1.619,3.649,3.649,0,0,0,1.579,4.643,3.824,3.824,0,0,0,2.158.382,5.527,5.527,0,0,0,1.957-.72" transform="translate(-104.338 -72.394)" fill="#e0e0e0"/>
        <path id="Trazado_277515" data-name="Trazado 277515" d="M189.78,92.78a11.338,11.338,0,0,0-.026-1.241,18.683,18.683,0,0,1,.232-3.354A22.8,22.8,0,0,1,194.4,78.133a36.314,36.314,0,0,1,8.093-7.559c1.167-.82,2.139-1.446,2.812-1.875a8.758,8.758,0,0,0,1.033-.692,1.076,1.076,0,0,0-.3.13c-.187.1-.463.24-.811.44-.7.392-1.693.987-2.885,1.783a34.231,34.231,0,0,0-8.238,7.552,22.152,22.152,0,0,0-4.381,10.234,16.221,16.221,0,0,0-.119,3.4c.017.4.078.709.1.918a1.069,1.069,0,0,0,.066.316" transform="translate(-106.425 -38.179)" fill="#455a64"/>
        <path id="Trazado_277516" data-name="Trazado 277516" d="M200.849,67.783a1.13,1.13,0,0,0-.3.122c-.195.089-.477.231-.837.42-.72.379-1.748.956-2.972,1.745a45.184,45.184,0,0,0-4.136,3.01,26.25,26.25,0,0,0-4.447,4.426,12.159,12.159,0,0,0-1.6,2.853,11.312,11.312,0,0,0-.686,2.972,17.693,17.693,0,0,0,.34,5.116c.29,1.431.621,2.562.859,3.339.119.389.219.688.291.89a1.1,1.1,0,0,0,.127.3,9.23,9.23,0,0,0-.281-1.231c-.2-.787-.488-1.925-.743-3.348a18.227,18.227,0,0,1-.26-5.034,11.151,11.151,0,0,1,.686-2.877,11.994,11.994,0,0,1,1.564-2.765,27,27,0,0,1,4.368-4.385,50.661,50.661,0,0,1,4.064-3.054c1.2-.812,2.2-1.42,2.9-1.836a9.88,9.88,0,0,0,1.073-.666" transform="translate(-104.307 -38.052)" fill="#455a64"/>
        <path id="Trazado_277517" data-name="Trazado 277517" d="M198.093,89.335a4.938,4.938,0,0,0,.654-.718l1.675-2.04c1.4-1.733,3.316-4.141,5.414-6.815s3.982-5.109,5.331-6.882l1.583-2.112a4.947,4.947,0,0,0,.542-.806,4.9,4.9,0,0,0-.652.717l-1.674,2.039c-1.4,1.733-3.318,4.143-5.417,6.818s-3.982,5.11-5.332,6.883l-1.582,2.111a4.927,4.927,0,0,0-.541.8" transform="translate(-111.209 -39.276)" fill="#e0e0e0"/>
        <path id="Trazado_277518" data-name="Trazado 277518" d="M227.225,123.289a2.708,2.708,0,0,0-1.909.414c-.056-.028.251-.479.867-.608a1.09,1.09,0,0,1,1.042.194" transform="translate(-126.489 -69.084)" fill="#eb996e"/>
        <path id="Trazado_277519" data-name="Trazado 277519" d="M214.432,108.059a2.824,2.824,0,0,1-1.991-.122,10.7,10.7,0,0,1,1.991.122" transform="translate(-119.265 -60.578)" fill="#eb996e"/>
        <path id="Trazado_277520" data-name="Trazado 277520" d="M214.649,109.04c.009.064-.3.156-.675.274s-.681.218-.711.161.247-.256.643-.379.737-.118.744-.056" transform="translate(-119.725 -61.191)" fill="#eb996e"/>
        <path id="Trazado_277521" data-name="Trazado 277521" d="M252.191,106.835c.021.059-.233.208-.57.331s-.627.175-.649.116.234-.207.57-.33.627-.175.649-.117" transform="translate(-140.895 -59.964)" fill="#eb996e"/>
        <path id="Trazado_277522" data-name="Trazado 277522" d="M252.062,108.71c-.021.06-.3.017-.626-.095s-.573-.251-.552-.311.3-.017.626.095.573.251.552.311" transform="translate(-140.846 -60.787)" fill="#eb996e"/>
        <path id="Trazado_277523" data-name="Trazado 277523" d="M200,433.332c0,.063-44.774.114-99.994.114-55.238,0-100-.051-100-.114s44.765-.114,100-.114c55.219,0,99.994.051,99.994.114" transform="translate(0 -243.209)" fill="#263238"/>
      </g>
    </g>
  </g>
</svg>
