<svg xmlns="http://www.w3.org/2000/svg" xmlns:xlink="http://www.w3.org/1999/xlink" width="60" height="60" viewBox="0 0 60 60">
  <defs>
    <clipPath id="clip-path">
      <rect id="Rectángulo_200884" data-name="Rectángulo 200884" width="34.564" height="34.241" fill="#fff"/>
    </clipPath>
  </defs>
  <g id="Grupo_668686" data-name="Grupo 668686" transform="translate(-220.189 -3064)">
    <circle id="Elipse_5529" data-name="Elipse 5529" cx="30" cy="30" r="30" transform="translate(220.189 3064)" fill="#7181f4"/>
    <g id="Grupo_557388" data-name="Grupo 557388" transform="translate(233.189 3077)">
      <g id="Grupo_557388-2" data-name="Grupo 557388" clip-path="url(#clip-path)">
        <path id="Trazado_269365" data-name="Trazado 269365" d="M5.592,206.284a5.541,5.541,0,0,1,.006-.83,1.647,1.647,0,0,1,1.627-1.4c1-.012,2,0,3,0h.4a3.938,3.938,0,0,1,1.712-2.686,3.836,3.836,0,0,1,2.408-.649,3.949,3.949,0,0,1,3.608,3.324H20.6v1.126H7.563c-.1,0-.209,0-.313,0a.557.557,0,0,0-.56.549.549.549,0,0,0,.549.559c.255.014.511,0,.766,0h3.675V207.4h-.415q-4.476,0-8.951,0a1.115,1.115,0,1,0-.048,2.226c.7.006,1.393,0,2.09,0a1.95,1.95,0,0,1,2.051,1.919.836.836,0,0,0,.891.864q2.4.01,4.806,0a.371.371,0,0,0,.279-.168,2.23,2.23,0,0,1,4.336.63.511.511,0,0,0,.034.088h1.052v1.117H14.521c-.09.734.241,1.126.934,1.126q7.558,0,15.116,0a1.672,1.672,0,1,0,.013-3.341c-.534,0-1.068.005-1.6,0a2.227,2.227,0,0,1-.007-4.454c1.08-.011,2.159,0,3.239,0a1.119,1.119,0,1,0-.01-2.228q-3.883,0-7.767,0h-.445v-1.09a1.382,1.382,0,0,1,.186-.023c2.717,0,5.433-.01,8.15,0a2.225,2.225,0,0,1-.006,4.45c-1.068.006-2.136,0-3.2,0a1.122,1.122,0,1,0-.011,2.23,14.776,14.776,0,0,1,2.014.06,2.742,2.742,0,0,1,2.309,2.967,2.777,2.777,0,0,1-2.753,2.54q-7.68.015-15.359,0a1.938,1.938,0,0,1-1.94-1.852.863.863,0,0,0-1-.93c-1.672,0-3.344,0-5.015,0a1.949,1.949,0,0,1-2.067-1.94.834.834,0,0,0-.876-.843c-.708-.009-1.416,0-2.125,0a2.229,2.229,0,1,1,.008-4.456c1.1,0,2.2,0,3.293,0m6.193-2.246h5.4a2.755,2.755,0,0,0-5.4,0m1.649,8.619a1.819,1.819,0,0,0,.585.293c.517.041,1.04.014,1.56.014a1.1,1.1,0,0,0-.863-1.094,1.119,1.119,0,0,0-1.282.787" transform="translate(0 -182.075)" fill="#fff"/>
        <path id="Trazado_269366" data-name="Trazado 269366" d="M90.447,3.242c2.762-1.034,3.4-1.034,6.044,0A4.338,4.338,0,0,0,97.371,0a9.525,9.525,0,0,1,5.548,9.541,4.474,4.474,0,0,0-3.3-.862A6.156,6.156,0,0,1,96.6,13.867,4.424,4.424,0,0,0,98.988,16.3a9.458,9.458,0,0,1-11.027,0,4.412,4.412,0,0,0,2.386-2.432,6.153,6.153,0,0,1-3.013-5.178,2.94,2.94,0,0,0-1.707.093c-.542.191-1.054.464-1.574.7A9.474,9.474,0,0,1,89.518,0c.057.569.084,1.143.179,1.706a3.305,3.305,0,0,0,.75,1.535M90.1,16.252a8.458,8.458,0,0,0,6.746,0c-1.725-1.886-2.231-3.992-.939-6.232s3.361-2.866,5.875-2.32A8.45,8.45,0,0,0,98.4,1.863c-.729,2.355-2.232,3.828-4.7,3.924-2.691.105-4.349-1.384-5.173-3.919a8.445,8.445,0,0,0-3.372,5.838c2.5-.548,4.555.07,5.849,2.269,1.319,2.242.826,4.361-.909,6.277m.475-3.558A3.626,3.626,0,0,0,88.5,9.121a4.993,4.993,0,0,0,2.078,3.573m7.875-3.608a3.611,3.611,0,0,0-2.047,3.58,4.976,4.976,0,0,0,2.047-3.58m-7.043-5.01a3.626,3.626,0,0,0,4.1-.021,4.9,4.9,0,0,0-4.1.021" transform="translate(-76.197 -0.001)" fill="#fff"/>
        <path id="Trazado_269367" data-name="Trazado 269367" d="M205.425,262.962a2.247,2.247,0,0,1,4.494-.017H211v1.092h-6.64v-1.075Zm3.352-.027a1.115,1.115,0,0,0-1.15-1.1,1.092,1.092,0,0,0-1.051,1.1Z" transform="translate(-185.381 -236.513)" fill="#fff"/>
        <path id="Trazado_269368" data-name="Trazado 269368" d="M58.474,124.932a2.228,2.228,0,1,1-2.231-2.233,2.235,2.235,0,0,1,2.231,2.233m-2.231-1.119a1.113,1.113,0,1,0,1.116,1.1,1.121,1.121,0,0,0-1.116-1.1" transform="translate(-49.002 -111.306)" fill="#fff"/>
        <path id="Trazado_269369" data-name="Trazado 269369" d="M20.229,182.71a2.228,2.228,0,1,1-2.223,2.242,2.233,2.233,0,0,1,2.223-2.242m0,3.341a1.114,1.114,0,1,0-1.107-1.111,1.124,1.124,0,0,0,1.107,1.111" transform="translate(-16.334 -165.744)" fill="#fff"/>
        <path id="Trazado_269370" data-name="Trazado 269370" d="M273.434,148.389a1.671,1.671,0,1,1-1.639-1.684,1.679,1.679,0,0,1,1.639,1.684m-1.674-.568a.554.554,0,1,0,.558.551.56.56,0,0,0-.558-.551" transform="translate(-245.013 -133.082)" fill="#fff"/>
        <path id="Trazado_269371" data-name="Trazado 269371" d="M301.763,188.714a1.671,1.671,0,1,1-1.66,1.664,1.677,1.677,0,0,1,1.66-1.664m0,1.116a.555.555,0,1,0,.567.542.56.56,0,0,0-.567-.542" transform="translate(-272.237 -171.191)" fill="#fff"/>
        <path id="Trazado_269372" data-name="Trazado 269372" d="M171.4,76.354a1.671,1.671,0,1,1-1.665-1.659,1.679,1.679,0,0,1,1.665,1.659m-1.116.008a.554.554,0,1,0-.551.558.56.56,0,0,0,.551-.558" transform="translate(-152.453 -67.759)" fill="#fff"/>
      </g>
    </g>
  </g>
</svg>
