<svg xmlns="http://www.w3.org/2000/svg" xmlns:xlink="http://www.w3.org/1999/xlink" width="60" height="60" viewBox="0 0 60 60">
  <defs>
    <clipPath id="clip-path">
      <rect id="Rectángulo_200879" data-name="Rectángulo 200879" width="33.782" height="33.788" fill="#fff"/>
    </clipPath>
  </defs>
  <g id="Grupo_668685" data-name="Grupo 668685" transform="translate(-220.189 -2909)">
    <g id="Grupo_668683" data-name="Grupo 668683">
      <circle id="Elipse_5409" data-name="Elipse 5409" cx="30" cy="30" r="30" transform="translate(220.189 2909)" fill="#7181f4"/>
    </g>
    <g id="Grupo_557383" data-name="Grupo 557383" transform="translate(233.189 2922)">
      <g id="Grupo_557382" data-name="Grupo 557382" clip-path="url(#clip-path)">
        <path id="Trazado_269347" data-name="Trazado 269347" d="M20.354,10.478a8.814,8.814,0,0,1,8.615,4,8.817,8.817,0,0,1,.271,9.512c.1.084.218.187.338.288q1.8,1.5,3.6,3a1.411,1.411,0,0,1,.569,1.425,1.389,1.389,0,0,1-2.28.8c-.82-.649-1.612-1.332-2.417-2l-1.629-1.352-1.157.859c.054.119.108.242.166.363.69,1.438,1.386,2.873,2.07,4.314a1.373,1.373,0,0,1-.679,1.957,1.884,1.884,0,0,1-.7.134q-12.827.01-25.654,0a1.4,1.4,0,0,1-1.29-2.12q1.806-3.792,3.633-7.573,2.2-4.577,4.391-9.157a1.421,1.421,0,0,0,.138-.589c.008-3.723,0-7.447.01-11.17,0-.24-.022-.381-.306-.466A1.331,1.331,0,0,1,7.13,1.327,1.383,1.383,0,0,1,8.269.034,2.152,2.152,0,0,1,8.681,0q5.655,0,11.31,0a1.422,1.422,0,0,1,1.525,1.12,1.375,1.375,0,0,1-.953,1.619c-.172.055-.241.114-.241.3q.009,3.654.006,7.309a.838.838,0,0,0,.026.13m4.672,20.473c-.423-.885-.838-1.726-1.225-2.58a.33.33,0,0,0-.45-.216,8.788,8.788,0,0,1-3.081.115,8.959,8.959,0,0,1-3.024-16.754.439.439,0,0,0,.266-.452c-.009-2.642-.005-5.285-.006-7.927,0-.1-.012-.2-.018-.29H11.164v.441c0,3.8.007,7.605-.011,11.408a2.718,2.718,0,0,1-.254,1.12Q7.376,23.211,3.82,30.589c-.053.11-.1.223-.164.362Zm2.786-11.543a6.306,6.306,0,1,0-6.327,6.3,6.306,6.306,0,0,0,6.327-6.3" transform="translate(0 0)" fill="#fff"/>
      </g>
    </g>
  </g>
</svg>
