<svg id="Grupo_564486" data-name="Grupo 564486" xmlns="http://www.w3.org/2000/svg" xmlns:xlink="http://www.w3.org/1999/xlink" width="262.5" height="220.522" viewBox="0 0 262.5 220.522">
  <defs>
    <clipPath id="clip-path">
      <rect id="Rectángulo_204298" data-name="Rectángulo 204298" width="262.5" height="220.522" fill="none"/>
    </clipPath>
    <clipPath id="clip-path-3">
      <rect id="Rectángulo_204291" data-name="Rectángulo 204291" width="18.237" height="32.453" fill="none"/>
    </clipPath>
    <clipPath id="clip-path-4">
      <rect id="Rectángulo_204292" data-name="Rectángulo 204292" width="8.641" height="11.261" fill="none"/>
    </clipPath>
    <clipPath id="clip-path-5">
      <rect id="Rectángulo_204293" data-name="Rectángulo 204293" width="19.643" height="43.239" fill="none"/>
    </clipPath>
    <clipPath id="clip-path-6">
      <rect id="Rectángulo_204294" data-name="Rectángulo 204294" width="83.544" height="75.222" fill="none"/>
    </clipPath>
    <clipPath id="clip-path-8">
      <rect id="Rectángulo_204296" data-name="Rectángulo 204296" width="38.445" height="54.373" fill="none"/>
    </clipPath>
  </defs>
  <g id="Grupo_564485" data-name="Grupo 564485" clip-path="url(#clip-path)">
    <g id="Grupo_564484" data-name="Grupo 564484">
      <g id="Grupo_564483" data-name="Grupo 564483" clip-path="url(#clip-path)">
        <path id="Trazado_276788" data-name="Trazado 276788" d="M42.866,256.129c50.683,26.477,132.856,26.477,183.539,0s50.683-69.406,0-95.883-132.856-26.478-183.539,0-50.683,69.406,0,95.883" transform="translate(-1.917 -55.465)" fill="#fafafa"/>
        <path id="Trazado_276789" data-name="Trazado 276789" d="M290.514,325.619c-7.246,3.453-18.993,3.453-26.239,0s-7.246-9.053,0-12.506,18.993-3.453,26.239,0,7.246,9.053,0,12.506" transform="translate(-102.264 -122.683)" fill="#f0f0f0"/>
        <path id="Trazado_276790" data-name="Trazado 276790" d="M49.673,43.725V74.174c0,1,.7,1.41,1.573.907L121.888,34.3a3.479,3.479,0,0,0,1.573-2.725V1.123c0-1-.7-1.41-1.573-.909L51.246,41a3.476,3.476,0,0,0-1.573,2.725" transform="translate(-19.625 0)" fill="#f0f0f0"/>
        <path id="Trazado_276791" data-name="Trazado 276791" d="M56.664,63.393,77.831,51.172c.968-.559,1.754-.106,1.754,1.013V73.46A3.875,3.875,0,0,1,77.831,76.5L56.664,88.719c-.968.559-1.753.106-1.754-1.013V66.43a3.876,3.876,0,0,1,1.754-3.037" transform="translate(-21.694 -20.123)" fill="#fafafa"/>
        <path id="Trazado_276792" data-name="Trazado 276792" d="M73.806,68.5,67.512,81.558l-3.207-1.852a1.35,1.35,0,0,0-1.844.494l-7.55,13.076v1.141c0,1.118.785,1.572,1.754,1.013L77.832,83.21a3.877,3.877,0,0,0,1.753-3.035V72.7l-4.259-4.437a.875.875,0,0,0-1.521.242" transform="translate(-21.694 -26.834)" fill="#27debf"/>
        <path id="Trazado_276793" data-name="Trazado 276793" d="M58.088,77.506a9.934,9.934,0,0,0,4.5-7.785,3.3,3.3,0,0,0-1.118-2.772l-4.8,2.772a3.874,3.874,0,0,0-1.754,3.037v5.063a3.157,3.157,0,0,0,3.178-.315" transform="translate(-21.694 -26.45)" fill="#27debf"/>
        <path id="Trazado_276794" data-name="Trazado 276794" d="M107.908,33.278l31.812-18.367c.724-.418,1.311-.121,1.311.663a2.812,2.812,0,0,1-1.311,2.177L107.908,36.118c-.724.418-1.311.121-1.311-.663a2.811,2.811,0,0,1,1.311-2.177" transform="translate(-42.115 -5.816)" fill="#fafafa"/>
        <path id="Trazado_276795" data-name="Trazado 276795" d="M107.908,43.67,139.721,25.3c.724-.418,1.311-.121,1.311.664a2.811,2.811,0,0,1-1.311,2.176L107.908,46.511c-.724.418-1.311.121-1.311-.664a2.812,2.812,0,0,1,1.311-2.177" transform="translate(-42.115 -9.922)" fill="#fafafa"/>
        <path id="Trazado_276796" data-name="Trazado 276796" d="M107.908,54.062,139.721,35.7c.724-.418,1.311-.121,1.311.663a2.811,2.811,0,0,1-1.311,2.177L107.908,56.9c-.724.418-1.311.121-1.311-.663a2.811,2.811,0,0,1,1.311-2.177" transform="translate(-42.115 -14.028)" fill="#fafafa"/>
        <path id="Trazado_276797" data-name="Trazado 276797" d="M107.908,64.454l31.812-18.367c.724-.418,1.311-.121,1.311.663a2.811,2.811,0,0,1-1.311,2.177L107.908,67.294c-.724.419-1.311.122-1.311-.663a2.812,2.812,0,0,1,1.311-2.177" transform="translate(-42.115 -18.134)" fill="#fafafa"/>
        <path id="Trazado_276798" data-name="Trazado 276798" d="M25.277,179.356V134.707a3.479,3.479,0,0,1,1.573-2.725l53.424-30.845c.869-.5,1.573-.095,1.573.909V146.7a3.48,3.48,0,0,1-1.573,2.725L26.85,180.264c-.869.5-1.573.1-1.573-.908" transform="translate(-9.987 -39.873)" fill="#f0f0f0"/>
        <path id="Trazado_276799" data-name="Trazado 276799" d="M25.277,205.556v2.235c0,1,.7,1.41,1.573.909l53.425-30.845a3.48,3.48,0,0,0,1.573-2.725V172.9Z" transform="translate(-9.987 -68.308)" fill="#27debf"/>
        <path id="Trazado_276800" data-name="Trazado 276800" d="M67.216,159.764l5.436-.286c.668-.035.852.344.41.846l-6.256,7.115c-.442.5-.8.367-.8-.3v-6.1a1.291,1.291,0,0,1,1.21-1.275" transform="translate(-26.078 -63.006)" fill="#27debf"/>
        <path id="Trazado_276801" data-name="Trazado 276801" d="M63.113,167.415a3.689,3.689,0,0,1-1.864-.48c-1.344-.776-2.084-2.394-2.084-4.556a15.194,15.194,0,0,1,6.864-11.889c1.873-1.081,3.644-1.248,4.988-.473s2.084,2.394,2.084,4.556a15.2,15.2,0,0,1-6.864,11.888,6.352,6.352,0,0,1-3.124.953m6.038-17.462a5.938,5.938,0,0,0-2.914.9,14.731,14.731,0,0,0-6.656,11.528c0,2.007.666,3.5,1.875,4.2s2.834.531,4.572-.474a14.732,14.732,0,0,0,6.656-11.527c0-2.007-.666-3.5-1.876-4.2a3.268,3.268,0,0,0-1.657-.425" transform="translate(-23.375 -59.08)" fill="#27debf"/>
        <path id="Trazado_276802" data-name="Trazado 276802" d="M18.237,86.461l-3.313-1.9h0c-1.581-1.058-3.776-1.013-6.2.389C3.9,87.728,0,94.787,0,100.716v1.349c0,5.928,7.97,12.369,7.97,12.369l3.259,1.844s-1.958-2.232-1.734-2.69C11.629,109.206,17.44,96.835,17.44,92V90.647a10.521,10.521,0,0,0-.373-2.894l.373.215ZM8.72,100.051c-2.408,1.39-4.36.263-4.36-2.517,1.3-.2,4.555-5.767,4.36-7.551,2.408-1.391,4.36-.264,4.36,2.517a9.638,9.638,0,0,1-4.36,7.551" transform="translate(0 -33.118)" fill="#27debf"/>
        <g id="Grupo_564467" data-name="Grupo 564467" transform="translate(0 50.706)" opacity="0.2">
          <g id="Grupo_564466" data-name="Grupo 564466">
            <g id="Grupo_564465" data-name="Grupo 564465" clip-path="url(#clip-path-3)">
              <path id="Trazado_276803" data-name="Trazado 276803" d="M18.237,86.461l-3.313-1.9h0c-1.581-1.058-3.776-1.013-6.2.389C3.9,87.728,0,94.787,0,100.716v1.349c0,5.928,7.97,12.369,7.97,12.369l3.259,1.844s-1.958-2.232-1.734-2.69C11.629,109.206,17.44,96.835,17.44,92V90.647a10.521,10.521,0,0,0-.373-2.894l.373.215ZM8.72,100.051c-2.408,1.39-4.36.263-4.36-2.517,1.3-.2,4.555-5.767,4.36-7.551,2.408-1.391,4.36-.264,4.36,2.517a9.638,9.638,0,0,1-4.36,7.551" transform="translate(0 -83.824)"/>
            </g>
          </g>
        </g>
        <path id="Trazado_276804" data-name="Trazado 276804" d="M20.518,87.777c-.039-.024-.077-.048-.116-.067-1.556-.87-3.634-.754-5.915.566-3.451,2-6.433,6.181-7.844,10.574,0,0,0,.01,0,.015a17.2,17.2,0,0,0-.87,5.18v1.348c0,4.567,5.171,9.864,7.549,12.058a1.025,1.025,0,0,0,.165.126s.015.01.019.015a1.174,1.174,0,0,0,1.667-.488c2.054-4.2,8.037-16.866,8.037-21.777V93.973c0-3.045-1.03-5.2-2.687-6.2M10.2,101.739a4.526,4.526,0,0,1-.077-.875,9.641,9.641,0,0,1,4.36-7.554,5.108,5.108,0,0,1,.792-.377c2.029-.739,3.567.43,3.567,2.895a9.631,9.631,0,0,1-4.359,7.549c-2.137,1.238-3.915.489-4.282-1.638" transform="translate(-2.279 -34.432)" fill="#27debf"/>
        <path id="Trazado_276805" data-name="Trazado 276805" d="M21.742,99.462a9.632,9.632,0,0,1-4.359,7.549c-2.136,1.237-3.915.488-4.282-1.638a5.1,5.1,0,0,0,.793-.372,9.638,9.638,0,0,0,4.359-7.554,4.583,4.583,0,0,0-.077-.88c2.029-.739,3.567.431,3.567,2.9" transform="translate(-5.176 -38.065)" fill="#27debf"/>
        <g id="Grupo_564470" data-name="Grupo 564470" transform="translate(7.925 58.282)" opacity="0.2">
          <g id="Grupo_564469" data-name="Grupo 564469">
            <g id="Grupo_564468" data-name="Grupo 564468" clip-path="url(#clip-path-4)">
              <path id="Trazado_276806" data-name="Trazado 276806" d="M21.742,99.462a9.632,9.632,0,0,1-4.359,7.549c-2.136,1.237-3.915.488-4.282-1.638a5.1,5.1,0,0,0,.793-.372,9.638,9.638,0,0,0,4.359-7.554,4.583,4.583,0,0,0-.077-.88c2.029-.739,3.567.431,3.567,2.9" transform="translate(-13.101 -96.347)"/>
            </g>
          </g>
        </g>
        <path id="Trazado_276807" data-name="Trazado 276807" d="M119.948,201.113s2.181-13.888-2.665-25.877-11.394-12.718-14.781-11.008-1.189,8.34,1.842,12.8c3.973,5.845,10.677,18.444,10.435,29.752Z" transform="translate(-39.822 -64.612)" fill="#27debf"/>
        <g id="Grupo_564473" data-name="Grupo 564473" transform="translate(60.972 98.928)" opacity="0.2">
          <g id="Grupo_564472" data-name="Grupo 564472">
            <g id="Grupo_564471" data-name="Grupo 564471" clip-path="url(#clip-path-5)">
              <path id="Trazado_276808" data-name="Trazado 276808" d="M119.948,201.113s2.181-13.888-2.665-25.877-11.394-12.718-14.781-11.008-1.189,8.34,1.842,12.8c3.973,5.845,10.677,18.444,10.435,29.752Z" transform="translate(-100.794 -163.54)"/>
            </g>
          </g>
        </g>
        <path id="Trazado_276809" data-name="Trazado 276809" d="M120.091,202.8h-.018a.412.412,0,0,1-.394-.428c.8-19.049-8.716-33.306-12.821-36.043a.411.411,0,1,1,.456-.684c4.842,3.227,13.986,17.77,13.187,36.761a.411.411,0,0,1-.411.394" transform="translate(-42.146 -65.417)" fill="#fff"/>
        <path id="Trazado_276810" data-name="Trazado 276810" d="M112.658,225.272c-.827-2.083-2.965-4.4-8.492-6.887s-9.635-5.787-10.4-8.183a3.573,3.573,0,0,1,.979-3.815s-5.185-.607-5.837-3.783c-.821-4,3.711-4.264,3.711-4.264s-5.945-8.374-7.526-12.125.246-3.946,4.078-2.527,11.145,8.58,12.277,10.764c0,0,1.976-2.441,4.1-.834s2.234,6.356.975,8.071a4.462,4.462,0,0,1,4.5,1.86c2.165,2.837,2.878,9.93,2.878,9.93Z" transform="translate(-33.393 -72.251)" fill="#27debf"/>
        <path id="Trazado_276811" data-name="Trazado 276811" d="M114.609,224.236a.412.412,0,0,1-.4-.315c-2.942-12.248-16.9-31.8-25.568-38.02a.412.412,0,0,1,.48-.669c8.778,6.3,22.909,26.1,25.889,38.5a.412.412,0,0,1-.3.5.4.4,0,0,1-.1.011" transform="translate(-34.953 -73.152)" fill="#fff"/>
        <path id="Trazado_276812" data-name="Trazado 276812" d="M311.311,44.67a.408.408,0,0,1-.205-.055l-1.7-.982a.411.411,0,0,1,.411-.713l1.7.982a.411.411,0,0,1-.206.768" transform="translate(-122.16 -16.935)" fill="#fff"/>
        <path id="Trazado_276813" data-name="Trazado 276813" d="M131.034,63.637v90c0,1,.7,1.408,1.572.907L237.58,93.94a3.474,3.474,0,0,0,1.571-2.722v-90c0-1-.7-1.409-1.571-.907L132.606,60.915a3.476,3.476,0,0,0-1.572,2.722" transform="translate(-51.77 -0.037)" fill="#455a64"/>
        <path id="Trazado_276814" data-name="Trazado 276814" d="M151.344,95.564c0,3.134,2.345,4.321,5.239,2.65L239.8,50.167V38.817l-83.22,48.047a11.234,11.234,0,0,0-5.239,8.7" transform="translate(-59.794 -15.336)" fill="#f5f5f5"/>
        <path id="Trazado_276815" data-name="Trazado 276815" d="M304.625,31.6c2.893-1.67,5.239-.483,5.239,2.651a11.235,11.235,0,0,1-5.239,8.7l-7.047,4.068V35.666Z" transform="translate(-117.568 -12.185)" fill="#27debf"/>
        <path id="Trazado_276816" data-name="Trazado 276816" d="M303.9,43.119a1.707,1.707,0,0,1-.861-.224,2.156,2.156,0,0,1-.943-1.987,5.939,5.939,0,0,1,2.724-4.718A1.936,1.936,0,0,1,307.951,38a5.939,5.939,0,0,1-2.723,4.718,2.69,2.69,0,0,1-1.33.4m2.248-6.505a1.888,1.888,0,0,0-.918.29,5.2,5.2,0,0,0-2.313,4.005,1.138,1.138,0,0,0,1.9,1.1A5.2,5.2,0,0,0,307.129,38a1.392,1.392,0,0,0-.532-1.274.9.9,0,0,0-.452-.113" transform="translate(-119.352 -14.14)" fill="#fff"/>
        <path id="Trazado_276817" data-name="Trazado 276817" d="M257.69,73.011l-80.4,46.42a3.473,3.473,0,0,0-1.572,2.722V146.9c0,1,.7,1.408,1.572.907l80.4-46.419a3.475,3.475,0,0,0,1.572-2.722V73.918c0-1-.7-1.408-1.572-.907" transform="translate(-69.423 -28.761)" fill="#27debf"/>
        <g id="Grupo_564476" data-name="Grupo 564476" transform="translate(106.294 44.035)" opacity="0.2">
          <g id="Grupo_564475" data-name="Grupo 564475">
            <g id="Grupo_564474" data-name="Grupo 564474" clip-path="url(#clip-path-6)">
              <path id="Trazado_276818" data-name="Trazado 276818" d="M257.69,73.011l-80.4,46.42a3.473,3.473,0,0,0-1.572,2.722V146.9c0,1,.7,1.408,1.572.907l80.4-46.419a3.475,3.475,0,0,0,1.572-2.722V73.918c0-1-.7-1.408-1.572-.907" transform="translate(-175.717 -72.796)" fill="#fff"/>
            </g>
          </g>
        </g>
        <path id="Trazado_276819" data-name="Trazado 276819" d="M225.771,123.177l14.581-8.419c.723-.417,1.31-.12,1.31.663a2.808,2.808,0,0,1-1.31,2.175l-14.581,8.418c-.723.418-1.31.122-1.31-.662a2.808,2.808,0,0,1,1.31-2.175" transform="translate(-88.681 -45.265)" fill="#fff"/>
        <path id="Trazado_276820" data-name="Trazado 276820" d="M224.462,123.614c0,.783.586,1.08,1.309.662l44.067-25.442a2.808,2.808,0,0,0,1.31-2.175c0-.783-.587-1.08-1.31-.662l-44.067,25.442a2.807,2.807,0,0,0-1.309,2.175" transform="translate(-88.681 -37.852)" fill="#fff"/>
        <path id="Trazado_276821" data-name="Trazado 276821" d="M224.462,132.994c0,.783.586,1.08,1.309.662l44.067-25.442a2.808,2.808,0,0,0,1.31-2.175c0-.783-.587-1.08-1.31-.662l-44.067,25.442a2.807,2.807,0,0,0-1.309,2.175" transform="translate(-88.681 -41.558)" fill="#fff"/>
        <path id="Trazado_276822" data-name="Trazado 276822" d="M224.462,142.373c0,.783.586,1.08,1.309.662l44.067-25.442a2.808,2.808,0,0,0,1.31-2.175c0-.783-.587-1.08-1.31-.662L225.771,140.2a2.809,2.809,0,0,0-1.309,2.175" transform="translate(-88.681 -45.264)" fill="#fff"/>
        <path id="Trazado_276823" data-name="Trazado 276823" d="M181.351,144.94l18.971-10.953c.868-.5,1.572-.095,1.572.907v19.069a3.475,3.475,0,0,1-1.572,2.722l-18.971,10.953c-.868.5-1.572.095-1.572-.907V147.662a3.473,3.473,0,0,1,1.572-2.722" transform="translate(-71.028 -52.851)" fill="#fff"/>
        <path id="Trazado_276824" data-name="Trazado 276824" d="M196.714,149.521l-5.64,11.7-2.875-1.659a1.21,1.21,0,0,0-1.653.443l-6.767,11.719v1.023c0,1,.7,1.409,1.572.907L200.322,162.7a3.476,3.476,0,0,0,1.572-2.72v-6.7l-3.817-3.976a.784.784,0,0,0-1.363.217" transform="translate(-71.028 -58.867)" fill="#27debf"/>
        <path id="Trazado_276825" data-name="Trazado 276825" d="M182.627,157.588a8.9,8.9,0,0,0,4.029-6.978,2.955,2.955,0,0,0-1-2.484l-4.3,2.484a3.473,3.473,0,0,0-1.572,2.722v4.538a2.832,2.832,0,0,0,2.848-.282" transform="translate(-71.028 -58.522)" fill="#27debf"/>
        <path id="Trazado_276826" data-name="Trazado 276826" d="M257.69,133.987l-80.4,46.419a3.473,3.473,0,0,0-1.572,2.722v24.744c0,1,.7,1.408,1.572.907l80.4-46.42a3.473,3.473,0,0,0,1.572-2.722V134.894c0-1-.7-1.409-1.572-.907" transform="translate(-69.423 -52.851)" fill="#27debf"/>
        <g id="Grupo_564479" data-name="Grupo 564479" transform="translate(106.294 80.921)" opacity="0.2">
          <g id="Grupo_564478" data-name="Grupo 564478">
            <g id="Grupo_564477" data-name="Grupo 564477" clip-path="url(#clip-path-6)">
              <path id="Trazado_276827" data-name="Trazado 276827" d="M257.69,133.987l-80.4,46.419a3.473,3.473,0,0,0-1.572,2.722v24.744c0,1,.7,1.408,1.572.907l80.4-46.42a3.473,3.473,0,0,0,1.572-2.722V134.894c0-1-.7-1.409-1.572-.907" transform="translate(-175.717 -133.772)" fill="#fff"/>
            </g>
          </g>
        </g>
        <path id="Trazado_276828" data-name="Trazado 276828" d="M225.771,184.152l14.581-8.418c.723-.417,1.31-.121,1.31.662a2.809,2.809,0,0,1-1.31,2.175l-14.581,8.418c-.723.417-1.31.121-1.31-.662a2.809,2.809,0,0,1,1.31-2.175" transform="translate(-88.681 -69.355)" fill="#fff"/>
        <path id="Trazado_276829" data-name="Trazado 276829" d="M224.462,184.59c0,.783.586,1.08,1.309.662l44.067-25.442a2.808,2.808,0,0,0,1.31-2.175c0-.783-.587-1.08-1.31-.662l-44.067,25.442a2.808,2.808,0,0,0-1.309,2.175" transform="translate(-88.681 -61.943)" fill="#fff"/>
        <path id="Trazado_276830" data-name="Trazado 276830" d="M224.462,193.97c0,.783.586,1.08,1.309.662l44.067-25.442a2.808,2.808,0,0,0,1.31-2.175c0-.784-.587-1.08-1.31-.662l-44.067,25.442a2.809,2.809,0,0,0-1.309,2.175" transform="translate(-88.681 -65.649)" fill="#fff"/>
        <path id="Trazado_276831" data-name="Trazado 276831" d="M224.462,203.348c0,.784.586,1.08,1.309.662l44.067-25.442a2.81,2.81,0,0,0,1.31-2.176c0-.782-.587-1.08-1.31-.662l-44.067,25.442a2.809,2.809,0,0,0-1.309,2.175" transform="translate(-88.681 -69.354)" fill="#fff"/>
        <path id="Trazado_276832" data-name="Trazado 276832" d="M181.351,205.915l18.971-10.953c.868-.5,1.572-.1,1.572.907v19.069a3.473,3.473,0,0,1-1.572,2.722l-18.971,10.953c-.868.5-1.572.095-1.572-.907V208.637a3.475,3.475,0,0,1,1.572-2.722" transform="translate(-71.028 -76.942)" fill="#fff"/>
        <path id="Trazado_276833" data-name="Trazado 276833" d="M196.714,210.5l-5.64,11.7-2.875-1.66a1.21,1.21,0,0,0-1.653.443L179.779,232.7v1.024c0,1,.7,1.408,1.572.907l18.971-10.954a3.476,3.476,0,0,0,1.572-2.72v-6.7l-3.817-3.977a.784.784,0,0,0-1.363.217" transform="translate(-71.028 -82.958)" fill="#27debf"/>
        <path id="Trazado_276834" data-name="Trazado 276834" d="M182.627,218.564a8.9,8.9,0,0,0,4.029-6.977,2.958,2.958,0,0,0-1-2.486l-4.3,2.485a3.475,3.475,0,0,0-1.572,2.722v4.538a2.832,2.832,0,0,0,2.848-.282" transform="translate(-71.028 -82.613)" fill="#27debf"/>
        <path id="Trazado_276835" data-name="Trazado 276835" d="M239.151,5.075V1.216c0-1-.7-1.409-1.572-.907L132.606,60.915a3.474,3.474,0,0,0-1.572,2.722V67.5Z" transform="translate(-51.77 -0.037)" fill="#27debf"/>
        <path id="Trazado_276836" data-name="Trazado 276836" d="M287.72,13.582a2.578,2.578,0,0,0-1.166,2.019c0,.743.522,1.045,1.166.673a2.575,2.575,0,0,0,1.166-2.019c0-.743-.521-1.045-1.166-.673" transform="translate(-113.213 -5.303)" fill="#f5f5f5"/>
        <path id="Trazado_276837" data-name="Trazado 276837" d="M295.367,9.168a2.575,2.575,0,0,0-1.166,2.019c0,.743.521,1.045,1.166.673a2.577,2.577,0,0,0,1.165-2.019c0-.743-.522-1.045-1.165-.673" transform="translate(-116.234 -3.559)" fill="#f5f5f5"/>
        <path id="Trazado_276838" data-name="Trazado 276838" d="M303.013,4.753a2.578,2.578,0,0,0-1.166,2.019c0,.743.523,1.045,1.166.673a2.579,2.579,0,0,0,1.166-2.019c0-.743-.523-1.044-1.166-.673" transform="translate(-119.255 -1.815)" fill="#f5f5f5"/>
        <path id="Trazado_276839" data-name="Trazado 276839" d="M304.514,316.818a6.078,6.078,0,0,1,.371,1.446,3.211,3.211,0,0,1,.116,1.589,3.168,3.168,0,0,1-1.8,1.4,4.019,4.019,0,0,1-3.166-.613,12.988,12.988,0,0,0-3.5-1.906,8,8,0,0,1-3.1-1.406c-.87-.7-2.033-2.631-.368-3.077s5.288,1.131,8.581,1.275Z" transform="translate(-115.453 -124.125)" fill="#263238"/>
        <path id="Trazado_276840" data-name="Trazado 276840" d="M309.885,314.945s.2,2.311.2,2.591c0,.783-2.879,1.827-3.415,0l-.457-2.455Z" transform="translate(-120.978 -124.43)" fill="#f28f8f"/>
        <path id="Trazado_276841" data-name="Trazado 276841" d="M301.374,231.13a47.13,47.13,0,0,1,2.716,4.524s.285,3.366.285,5.6c0,4.115-.64,7.292-1.224,15.4a11.476,11.476,0,0,1,1.562,5.239c.243,3.671.246,3.647.27,20.566a4.7,4.7,0,0,1-3.6.352l-5.463-23.72-.594-9.308-1.706-11.573Z" transform="translate(-116.004 -91.316)" fill="#37474f"/>
        <path id="Trazado_276842" data-name="Trazado 276842" d="M276.665,324.605c.2.2.129.583.217,1.271a5.467,5.467,0,0,1,.08,1.555,3.166,3.166,0,0,1-1.607,1.616,4.018,4.018,0,0,1-3.218-.214,12.983,12.983,0,0,0-3.714-1.455,7.982,7.982,0,0,1-3.25-1.01c-.95-.585-2.345-2.357-.748-3.008s5.6.527,8.883.259Z" transform="translate(-104.183 -127.675)" fill="#263238"/>
        <path id="Trazado_276843" data-name="Trazado 276843" d="M283.6,320.315s-.619,2.636-.769,3.223c-.361,1.412-3.491,1.484-3.491-.145l.211-3.747Z" transform="translate(-110.365 -126.287)" fill="#f28f8f"/>
        <path id="Trazado_276844" data-name="Trazado 276844" d="M288.742,232.276c1.569,3.074,3.08,5.794,3.132,9.078.111,6.935-2.766,14.577-3.825,19.591a22.3,22.3,0,0,1,.263,5.5c-.211,2.095-5,21.161-5,21.161s-2.659.553-3.793-.647l1.347-36.724.361-10.669Z" transform="translate(-110.435 -91.769)" fill="#37474f"/>
        <path id="Trazado_276845" data-name="Trazado 276845" d="M291.2,200.523l.991,5.459,4.931-.36-1.035-6.188Z" transform="translate(-115.05 -78.793)" fill="#ffa8a7"/>
        <path id="Trazado_276846" data-name="Trazado 276846" d="M298.834,207.176a4.154,4.154,0,0,0-4.256-2.75,55.711,55.711,0,0,0-8.252,2.061c-1.725.616-3.3,2.108-3.439,7.782l-.541,14.275a6.2,6.2,0,0,0,2.6,1.379,14.278,14.278,0,0,0,8.333.279c5.185-1.133,6.419-4.271,6.419-4.271s-.2-7.554-.355-11.662c-.132-3.491-.178-6.074-.514-7.093" transform="translate(-111.551 -80.747)" fill="#455a64"/>
        <path id="Trazado_276847" data-name="Trazado 276847" d="M269.84,185.237l-25.132-6.819c-2.273-.39-3.224,5.158-.951,5.547l25.835,2.611Z" transform="translate(-95.79 -70.483)" fill="#263238"/>
        <path id="Trazado_276848" data-name="Trazado 276848" d="M268.628,198.225l-5.137.157s.775-7.643,1.252-8.642,1.624-1.208,2.757-1.533,1.137-.864,1.137-.864l-1.025-.1a1.334,1.334,0,0,1-.863-1.964c.182-.353.486-.906,1.031-.759l1.356.368a3.159,3.159,0,0,0-.429-1.7c-.451-.5-.758-.348-1.66-.661a4.75,4.75,0,0,0-3.154-.2c-1.109.456-1.951,2.532-2.23,4a24.7,24.7,0,0,1-1.391,4.964,55.1,55.1,0,0,0-2.575,10.555c-.063,1.033.033,1.647,1.183,1.921s9.6.292,9.6.292Z" transform="translate(-101.806 -71.953)" fill="#ffa8a7"/>
        <path id="Trazado_276849" data-name="Trazado 276849" d="M284.479,190.541s-1.194,1.768-1.042,1.957a2.809,2.809,0,0,0,.9.4Z" transform="translate(-111.976 -75.28)" fill="#ffa8a7"/>
        <path id="Trazado_276850" data-name="Trazado 276850" d="M288.664,180.987c-1.149.58-3.136,1.653-3.686,5.862-.563,4.322.178,5.714.763,6.286.394.387,2.539.41,3.614.088,1.344-.4,4.378-1.556,5.761-3.776,1.627-2.611,1.991-6.109.155-7.5a6.907,6.907,0,0,0-6.607-.961" transform="translate(-112.511 -71.329)" fill="#ffa8a7"/>
        <path id="Trazado_276851" data-name="Trazado 276851" d="M296.783,260.351l2.621-7.407a12.95,12.95,0,0,0,5.293-3.53s-.584,2.112-4.743,4.275l-2.872,7.008-.024,3.9Z" transform="translate(-117.254 -98.54)" fill="#263238"/>
        <path id="Trazado_276852" data-name="Trazado 276852" d="M284.539,180.952c.379,1.037,1.014,3.573,3.662,4.634,0,0,.378-1.617,1.737-1.446s1.591,1.907.756,2.982-1.647.689-1.647.689-.182,2.319,1.366,3.37a4.336,4.336,0,0,0,3.848.274c.891-.409,2.15-2.542,2.89-4.293,1.564-3.7,1.788-6.674-.577-7.61A2.8,2.8,0,0,0,294,176.921c-3.281-.676-5.761,1.479-8.514,1.1-1.436-.2-1.383,1.748-.95,2.933" transform="translate(-112.311 -69.846)" fill="#263238"/>
        <path id="Trazado_276853" data-name="Trazado 276853" d="M304.612,181.381l1.547-.959a.91.91,0,1,0-1.547.959" transform="translate(-120.293 -71.112)" fill="#263238"/>
        <path id="Trazado_276854" data-name="Trazado 276854" d="M272.9,208.29s7.229-.414,9.106-.425,3.807,3.136,2.653,5.283c-.759,1.414-3.134,1.9-6.129,2.042-2.971.144-6.018.144-6.018.144s-2.719-3.069.388-7.044" transform="translate(-107.231 -82.124)" fill="#455a64"/>
        <path id="Trazado_276855" data-name="Trazado 276855" d="M283.248,218.637s4.582-.059,6.078-2.039a3.564,3.564,0,0,1-2.126,1.956,13.192,13.192,0,0,1-3.979.857Z" transform="translate(-111.896 -85.575)" fill="#37474f"/>
        <path id="Trazado_276856" data-name="Trazado 276856" d="M244.708,178.417c-2.273-.39-3.224,5.158-.951,5.548l3.6.364c-1.477-.149-.451-5.314.675-5.009Z" transform="translate(-95.79 -70.482)" fill="#455a64"/>
        <path id="Trazado_276857" data-name="Trazado 276857" d="M390.183,172.322a5.6,5.6,0,0,1-9.709,3.811l-.369-.447c-.006-.007-.012-.007-.012-.013a5.6,5.6,0,0,1,8.59-7.168l.381.46a.006.006,0,0,1,.006.006,5.615,5.615,0,0,1,1.113,3.351" transform="translate(-149.729 -65.869)" fill="#455a64"/>
        <path id="Trazado_276858" data-name="Trazado 276858" d="M375.676,156.072a5.6,5.6,0,0,1-9.709,3.811l-.369-.447c-.006-.007-.012-.007-.012-.013l-23.325-28.159,9.83-5.674,22.085,26.665.381.46a.006.006,0,0,1,.006.006,5.615,5.615,0,0,1,1.113,3.351" transform="translate(-135.222 -49.619)" fill="#455a64"/>
        <path id="Trazado_276859" data-name="Trazado 276859" d="M363.709,156.179a5.6,5.6,0,0,0,8.6-7.162.006.006,0,0,0-.007-.006l-2.884-3.477c.006,0,.006.007.006.007a5.6,5.6,0,0,1-8.6,7.162Z" transform="translate(-142.556 -57.498)" fill="#27debf"/>
        <path id="Trazado_276860" data-name="Trazado 276860" d="M326.97,49.285a12.968,12.968,0,0,1,5,1.627l-7.1-4.127c-4.761-3.271-11.615-3.079-19.23,1.314C291.265,56.4,279.6,76.6,279.6,93.213c-.008,8.16,2.782,13.992,7.359,16.764l.1.057,7.574,4.366a13.037,13.037,0,0,1-3.455-3.287,16.915,16.915,0,0,0,5.58-.32c.665-.145,1.339-.321,2.02-.538a2.364,2.364,0,0,1-.257-.1,6.681,6.681,0,0,1-1.042-.593,7.476,7.476,0,0,1-1.572-1.491,10.321,10.321,0,0,1-1.474-2.565,10.631,10.631,0,0,1-1.491.105,8.134,8.134,0,0,1-3.423-.682,5.918,5.918,0,0,1-.729-.392c-.217-.137-.425-.289-.633-.449a28.806,28.806,0,0,1-.633-6.229c0-16.609,11.663-36.809,26.052-45.113a29.479,29.479,0,0,1,5.811-2.605,6.561,6.561,0,0,1,1.523.882,7.58,7.58,0,0,1,1.323,1.306,10.692,10.692,0,0,1,1.483,2.573,10.806,10.806,0,0,1,1.491-.1,7.7,7.7,0,0,1,3.919.954,5.549,5.549,0,0,1,.866.569q-.157-.732-.361-1.419a17.166,17.166,0,0,0-2.661-5.611" transform="translate(-110.466 -17.597)" fill="#263238"/>
        <path id="Trazado_276861" data-name="Trazado 276861" d="M337.147,53.943c-.137-.08-.273-.152-.41-.224a13.06,13.06,0,0,0-4.593-1.4,16.7,16.7,0,0,0-5.163.233,22.336,22.336,0,0,0-2.421.617,29.485,29.485,0,0,0-5.811,2.6c-14.389,8.3-26.052,28.505-26.052,45.115a28.84,28.84,0,0,0,.633,6.228c.08.369.169.722.264,1.074a17.615,17.615,0,0,0,2.758,5.956,12.952,12.952,0,0,0,1.964,2.156,12.583,12.583,0,0,0,1.491,1.131c4.746,3.062,11.471,2.8,18.934-1.507,14.389-8.3,26.052-28.5,26.052-45.114,0-8.321-2.926-14.156-7.647-16.866M334.3,58.777a5.622,5.622,0,0,1,.866.569,7.913,7.913,0,0,1,1.242,1.243c1.812,2.276,2.774,5.811,2.774,10.22,0,14.541-10.645,32.978-23.246,40.257a18.31,18.31,0,0,1-8.826,2.806,8.072,8.072,0,0,1-3.159-.585,2.555,2.555,0,0,1-.257-.1,6.756,6.756,0,0,1-1.042-.593,7.157,7.157,0,0,1-1.123-.978h-.008c-.152-.16-.3-.336-.441-.513a10.346,10.346,0,0,1-1.475-2.565,20.13,20.13,0,0,1-1.3-7.647c0-.192,0-.385.016-.585.265-14.453,10.8-32.5,23.231-39.672.288-.168.577-.328.865-.481a19.3,19.3,0,0,1,6.47-2.221,10.7,10.7,0,0,1,1.491-.1,8.133,8.133,0,0,1,3.143.577,5.3,5.3,0,0,1,.777.377" transform="translate(-115.64 -20.628)" fill="#455a64"/>
        <path id="Trazado_276862" data-name="Trazado 276862" d="M344.355,74.5c0,14.541-10.646,32.978-23.247,40.257a25.341,25.341,0,0,1-2.357,1.21.028.028,0,0,1-.016.008,16.027,16.027,0,0,1-6.451,1.587,8.075,8.075,0,0,1-3.159-.585,2.359,2.359,0,0,1-.256-.1,6.659,6.659,0,0,1-1.043-.593,7.44,7.44,0,0,1-1.57-1.491c-.161-.209-.321-.417-.466-.649.281.024.577.04.882.04a18.314,18.314,0,0,0,8.826-2.806c12.6-7.279,23.247-25.716,23.247-40.257,0-4-.794-7.279-2.3-9.555a7.063,7.063,0,0,1,3.03.906,5.617,5.617,0,0,1,.866.569,7.934,7.934,0,0,1,1.242,1.242c1.6,2,2.534,4.978,2.726,8.665.032.505.048,1.026.048,1.555" transform="translate(-120.813 -24.324)" fill="#37474f"/>
        <g id="Grupo_564482" data-name="Grupo 564482" transform="translate(182.668 37.195)" opacity="0.6">
          <g id="Grupo_564481" data-name="Grupo 564481">
            <g id="Grupo_564480" data-name="Grupo 564480" clip-path="url(#clip-path-8)">
              <path id="Trazado_276863" data-name="Trazado 276863" d="M340.418,72.8c0,14.541-10.646,32.978-23.247,40.257a18.312,18.312,0,0,1-8.826,2.806,8.031,8.031,0,0,1-3.15-.585h-.007c-.152-.16-.3-.337-.442-.513a10.365,10.365,0,0,1-1.474-2.565,20.135,20.135,0,0,1-1.3-7.647c0-.192,0-.385.016-.585.264-14.453,10.8-32.5,23.231-39.672q.433-.252.866-.481a19.28,19.28,0,0,1,6.469-2.22,10.623,10.623,0,0,1,1.491-.1,8.132,8.132,0,0,1,3.142.577c.161.161.313.337.457.513,1.811,2.277,2.774,5.812,2.774,10.221" transform="translate(-301.973 -61.488)" fill="#fff"/>
            </g>
          </g>
        </g>
      </g>
    </g>
  </g>
</svg>
