<svg id="Grupo_576850" data-name="Grupo 576850" xmlns="http://www.w3.org/2000/svg" xmlns:xlink="http://www.w3.org/1999/xlink" width="210.979" height="191.202" viewBox="0 0 210.979 191.202">
  <defs>
    <clipPath id="clip-path">
      <rect id="Rect치ngulo_204466" data-name="Rect치ngulo 204466" width="210.978" height="191.202" fill="none"/>
    </clipPath>
    <clipPath id="clip-path-2">
      <rect id="Rect치ngulo_54408" data-name="Rect치ngulo 54408" width="94.748" height="120.617" stroke="#000" stroke-width="2"/>
    </clipPath>
  </defs>
  <g id="Grupo_564795" data-name="Grupo 564795" transform="translate(0)" clip-path="url(#clip-path)">
    <path id="Trazado_277620" data-name="Trazado 277620" d="M142.393,0H68.586A31.683,31.683,0,0,0,41.148,15.841L4.245,79.76a31.683,31.683,0,0,0,0,31.683l36.9,63.918A31.683,31.683,0,0,0,68.586,191.2h73.807a31.683,31.683,0,0,0,27.438-15.841l36.9-63.918a31.683,31.683,0,0,0,0-31.683l-36.9-63.918A31.683,31.683,0,0,0,142.393,0" transform="translate(0)" fill="#ffb923"/>
    <path id="Trazado_277621" data-name="Trazado 277621" d="M163.538,33.379H94.812A25.018,25.018,0,0,0,73.146,45.888L38.783,105.406a25.017,25.017,0,0,0,0,25.018l34.363,59.518a25.018,25.018,0,0,0,21.666,12.509h68.726A25.018,25.018,0,0,0,185.2,189.942l34.363-59.518a25.017,25.017,0,0,0,0-25.018L185.2,45.888a25.018,25.018,0,0,0-21.666-12.509" transform="translate(-23.686 -22.314)" fill="#ffb923"/>
    <path id="Trazado_277622" data-name="Trazado 277622" d="M163.538,33.379H94.812A25.018,25.018,0,0,0,73.146,45.888L38.783,105.406a25.017,25.017,0,0,0,0,25.018l34.363,59.518a25.018,25.018,0,0,0,21.666,12.509h68.726A25.018,25.018,0,0,0,185.2,189.942l34.363-59.518a25.017,25.017,0,0,0,0-25.018L185.2,45.888A25.018,25.018,0,0,0,163.538,33.379Z" transform="translate(-23.686 -22.314)" fill="none" stroke="#000" stroke-miterlimit="10" stroke-width="14"/>
    <g id="Grupo_564800" data-name="Grupo 564800" transform="translate(58.115 35.292)">
      <g id="Grupo_166185" data-name="Grupo 166185" transform="translate(0 0)" clip-path="url(#clip-path-2)">
        <path id="Trazado_205921" data-name="Trazado 205921" d="M49.229,0c.523.142,1.043.294,1.569.425a12.5,12.5,0,0,1,8.721,7.258,1.445,1.445,0,0,0,1.563,1.035c2.395-.053,4.791-.024,7.186-.014,2.053.008,3.692.549,3.45,3.433-.1,1.164-.016,2.344-.016,3.7.562,0,1.013-.006,1.464,0,3.727.061,7.478-.122,11.175.244A11.818,11.818,0,0,1,94.674,27.692c.042,5.38.01,10.76.01,16.141,0,21.6-.112,43.2.063,64.8.058,7.167-5.417,11.636-11.477,11.963-.392.021-.785.022-1.177.022q-34.755,0-69.51,0a12.9,12.9,0,0,1-9.6-3.738,9.776,9.776,0,0,1-2.974-7.085Q0,68.737.017,27.679c.007-6.506,5.431-11.71,12.208-11.832,3.1-.056,6.2-.011,9.307-.011h1.455c0-1.494-.009-2.9,0-4.3.015-1.872.8-2.749,2.7-2.8,2.59-.068,5.184,0,7.774-.067a1.554,1.554,0,0,0,1.186-.607A13.074,13.074,0,0,1,44.928.181c.105-.017.2-.118.295-.18ZM71.736,21.579c0,2.253.014,4.405,0,6.557a3.1,3.1,0,0,1-3.433,3.43q-21.027.012-42.055,0a2.98,2.98,0,0,1-3.29-3.288c-.027-1.884-.047-3.771.01-5.654.027-.894-.294-1.146-1.155-1.133-3.023.041-6.047,0-9.071.018-4.453.021-7.094,2.683-7.094,7.132q0,31.57,0,63.141c0,5.851.01,11.7,0,17.552a4.672,4.672,0,0,0,2.817,4.643,11.159,11.159,0,0,0,4.3.94q34.574.085,69.149.04c.275,0,.55.006.825,0,4.154-.167,6.312-2.4,6.312-6.536q0-39.935,0-79.869c0-4.294-2.664-7-6.955-7.036-3.023-.025-6.047-.007-9.071,0-.382,0-.763.042-1.28.072m-5.864-7.158c-2.611,0-5.08.009-7.548,0a3.218,3.218,0,0,1-3.439-2.6c-.1-.339-.172-.686-.289-1.018A7.811,7.811,0,0,0,43.338,6.478a8.189,8.189,0,0,0-3.978,5.316,3.049,3.049,0,0,1-3.373,2.625c-1.964.009-3.927,0-5.891.006-.415,0-.831.04-1.345.067,0,3.379.045,6.633-.025,9.886-.024,1.113.271,1.472,1.427,1.468,11.467-.04,22.935-.024,34.4-.028.42,0,.84-.053,1.316-.085Z" transform="translate(0 -0.001)" stroke="#000" stroke-width="2"/>
        <path id="Trazado_205922" data-name="Trazado 205922" d="M132.925,254.23q7.77,0,15.541.007a6.4,6.4,0,0,1,1.627.173,2.793,2.793,0,0,1-.283,5.433,8.25,8.25,0,0,1-1.406.1q-15.6.008-31.2,0a8.941,8.941,0,0,1-1.407-.091,2.8,2.8,0,0,1-.279-5.46,6.751,6.751,0,0,1,1.63-.157q7.888-.017,15.776-.007" transform="translate(-71.787 -160.857)" stroke="#000" stroke-width="2"/>
        <path id="Trazado_205923" data-name="Trazado 205923" d="M132.752,134.8c-5.376,0-10.752.01-16.128-.007-1.846-.006-3.009-.958-3.153-2.489a2.755,2.755,0,0,1,2.265-3.094,7.216,7.216,0,0,1,1.4-.086q15.657-.006,31.314,0a6.27,6.27,0,0,1,1.74.2,2.791,2.791,0,0,1-.494,5.415,10.984,10.984,0,0,1-1.409.058q-7.77.006-15.539,0" transform="translate(-71.786 -81.697)" stroke="#000" stroke-width="2"/>
        <path id="Trazado_205924" data-name="Trazado 205924" d="M132.867,191.757c5.3,0,10.6-.039,15.892.04a4.615,4.615,0,0,1,2.544.894,2.371,2.371,0,0,1,.634,2.8,2.766,2.766,0,0,1-2.214,1.886,3.562,3.562,0,0,1-.7.042q-16.246,0-32.492,0a2.845,2.845,0,0,1-3.058-2.353,2.755,2.755,0,0,1,2.8-3.285c2.707-.048,5.415-.018,8.123-.02q4.238,0,8.476,0" transform="translate(-71.772 -121.324)" stroke="#000" stroke-width="2"/>
        <path id="Trazado_205925" data-name="Trazado 205925" d="M48.015,244.521c2.847-2.71,5.7-5.509,8.667-8.188a4.485,4.485,0,0,1,2.579-1.076,2.783,2.783,0,0,1,1.747,4.783c-3.743,3.575-7.488,7.148-11.272,10.678a2.637,2.637,0,0,1-3.975-.158q-2.822-2.834-5.59-5.721a2.967,2.967,0,0,1-.2-4.309c1.141-1.116,2.878-.921,4.27.436,1.2,1.172,2.444,2.305,3.774,3.555" transform="translate(-24.762 -148.852)" stroke="#000" stroke-width="2"/>
        <path id="Trazado_205926" data-name="Trazado 205926" d="M48.074,181.784c2.818-2.687,5.732-5.482,8.667-8.256a2.892,2.892,0,0,1,3.932-.438,2.735,2.735,0,0,1,.144,4.451c-3.084,2.96-6.2,5.891-9.3,8.833-.6.567-1.176,1.157-1.805,1.687a2.668,2.668,0,0,1-3.9-.122q-2.918-2.9-5.753-5.893a2.925,2.925,0,0,1-.067-4.22c1.151-1.089,2.764-.949,4.1.31,1.28,1.206,2.591,2.377,3.981,3.648" transform="translate(-24.755 -109.149)" stroke="#000" stroke-width="2"/>
        <path id="Trazado_205927" data-name="Trazado 205927" d="M48.031,119.211,55.3,112.3c.568-.541,1.112-1.11,1.707-1.618a2.812,2.812,0,0,1,4.1.25,2.622,2.622,0,0,1-.168,3.884q-5.556,5.337-11.182,10.6a2.615,2.615,0,0,1-3.891,0q-3-2.986-5.913-6.061a2.816,2.816,0,0,1-.46-3.473,2.4,2.4,0,0,1,2.777-1.281,4.725,4.725,0,0,1,1.884,1.074c1.284,1.089,2.5,2.264,3.879,3.534" transform="translate(-24.734 -69.544)" stroke="#000" stroke-width="2"/>
      </g>
    </g>
  </g>
</svg>
