<svg xmlns="http://www.w3.org/2000/svg" xmlns:xlink="http://www.w3.org/1999/xlink" width="321.438" height="268.156" viewBox="0 0 321.438 268.156">
  <defs>
    <clipPath id="clip-path">
      <rect id="Rectángulo_208389" data-name="Rectángulo 208389" width="321.438" height="268.156" fill="none"/>
    </clipPath>
  </defs>
  <g id="Grupo_575665" data-name="Grupo 575665" transform="translate(0 0.003)">
    <g id="Grupo_575665-2" data-name="Grupo 575665" transform="translate(0 -0.003)" clip-path="url(#clip-path)">
      <path id="Trazado_287203" data-name="Trazado 287203" d="M1004.671,661.122c-2.822-15.374-28.585-12.785-28.585-12.785s-19.416,24.88-24.48,25.09,12.446-24.513,12.446-24.513c-9.633-1.747-35.368,8.1-35.368,8.1s-.986,30.828-5.946,29.785S925,659.545,925,659.545c-9.632,2.038-19.314,12.272-19.314,12.272-12.448,16.943,9.952,32.052,9.952,32.052s-.572,10.676-8.166,22.346h0a36.372,36.372,0,0,0-3.5,5.841l2.562.213q.4-1,.861-1.931a.016.016,0,0,1,.006-.011l.014-.026c.208-.381.507-.924.879-1.584v0s0,0,0,0c.91-1.468,1.533-2.555,1.935-3.345l0-.007c2.745-4.614,6.645-10.6,9.007-11.728a4.992,4.992,0,0,1-.45-1.221c.144.389.294.8.45,1.221,3.6,9.762,25.4,13.15,37.826,11.66s7.386-5.379,1.273-11.518-20.018-5.811-23.908-8.342,2.244-4.229,10.336-2.926,11.487,9.786,24.539,12.133,25.133-21.566,25.133-21.566c-9.318,2.064-25.19-4.3-25.556-7.487s23.728-.866,27.564-1.493,11.04-7.6,8.218-22.972" transform="translate(-684.772 -492.114)" fill="#a8d29f"/>
      <path id="Trazado_287204" data-name="Trazado 287204" d="M2.02,749.527c-8.208-12.46,11.258-27.69,11.258-27.69s29.813,4.325,33.442,1.125-24.768-8.675-24.768-8.675c5.485-7.566,29.725-17.776,29.725-17.776s21.039,20.6,23.769,16.6-19.56-17.286-19.56-17.286c7.984-4.956,21.417-4.3,21.417-4.3,19.769,3.457,14.31,28.664,14.31,28.664S99.058,727.173,112,730.2h0a34.715,34.715,0,0,1,6.27,1.714l-1.625,1.839q-.939-.429-1.868-.763a.016.016,0,0,0-.011,0l-.027-.009c-.4-.125-.96-.3-1.652-.511h-.006c-1.6-.41-2.744-.749-3.543-1.027l-.007,0c-4.94-1.368-22.775,23.705-32.323,30.884s-8.643,1.171-8.484-7.1S78.682,738,79.691,733.682s-4.34-1.433-9.056,4.81-1.454,14.332-8.9,24.569S30.17,764.8,30.17,764.8c7.785-4.732,14.52-19.6,12.67-22.038s-16.925,15.073-19.984,17.175S10.228,761.987,2.02,749.527" transform="translate(0 -525.009)" fill="#a8d29f"/>
      <path id="Trazado_287205" data-name="Trazado 287205" d="M1034.9,274.034s16.84-34.336,26.259-31.288-26.259,31.288-26.259,31.288" transform="translate(-785.729 -184.154)" fill="#a8d29f"/>
      <path id="Trazado_287206" data-name="Trazado 287206" d="M984.6,333.1s40.34-39.541,56.016-32.33-9.555,14.944-19.179,17.05S984.6,333.1,984.6,333.1" transform="translate(-747.539 -227.688)" fill="#a8d29f"/>
      <path id="Trazado_287207" data-name="Trazado 287207" d="M382.511,307.147s-16.84-34.336-26.259-31.288,26.259,31.288,26.259,31.288" transform="translate(-269.276 -209.295)" fill="#daf4f7"/>
      <path id="Trazado_287208" data-name="Trazado 287208" d="M328.16,366.216s-40.34-39.541-56.016-32.33,9.556,14.944,19.179,17.05,36.837,15.28,36.837,15.28" transform="translate(-202.815 -252.829)" fill="#a8d29f"/>
      <path id="Trazado_287209" data-name="Trazado 287209" d="M333.735,7.416c5.761-12.868,27.782-5.089,27.782-5.089S373.209,28.28,377.6,29.547s-5.664-24.142-5.664-24.142c8.814.529,29.259,14.661,29.259,14.661s-5.729,27.224-1.16,27.371,3.843-24.364,3.843-24.364c8,3.846,14.3,14.884,14.3,14.884C425.463,55.465,402.6,63.914,402.6,63.914a45.229,45.229,0,0,0,2.376,21.327h0a32.809,32.809,0,0,1,1.818,5.866l-2.291-.361q-.135-.966-.341-1.876a.013.013,0,0,0,0-.011l-.006-.026c-.1-.379-.247-.918-.431-1.576v0s0,0,0,0c-.483-1.48-.8-2.567-.981-3.345a.043.043,0,0,1,0-.007c-1.419-4.631-3.555-10.71-5.384-12.2a4.493,4.493,0,0,0,.656-.973l-.656.973c-5.246,7.783-25.07,6.091-35.639,2.128s-5.322-6.293,1.348-10.365,18.784-.81,22.734-2.2-1.062-4.185-8.432-4.774-12.159,6.119-24.1,5.384S335.862,37.6,335.862,37.6c7.724,3.8,22.993,1.618,23.995-1.094s-20.606-5.834-23.834-7.2-8.049-9.019-2.288-21.887" transform="translate(-251.344 0.003)" fill="#a8d29f"/>
      <path id="Trazado_287210" data-name="Trazado 287210" d="M594.109,208.125V400.386a3.377,3.377,0,0,1-3.377,3.376H442.568a3.378,3.378,0,0,1-3.378-3.376V208.125a3.377,3.377,0,0,1,3.378-3.376H590.732a3.375,3.375,0,0,1,3.377,3.376" transform="translate(-333.448 -155.452)" fill="#f9d7d7"/>
      <path id="Trazado_287211" data-name="Trazado 287211" d="M455.167,204.749V403.763h-12.6a3.378,3.378,0,0,1-3.378-3.377V208.125a3.377,3.377,0,0,1,3.378-3.376Z" transform="translate(-333.447 -155.452)" fill="#49abb5"/>
      <path id="Trazado_287222" data-name="Trazado 287222" d="M516.915,189.008s-3.967-.085-4.1,3.79h8.337s.874-2.891,3.429-1.9v-1.895Z" transform="translate(-389.346 -143.5)" fill="#fc4b42"/>
      <path id="Trazado_287223" data-name="Trazado 287223" d="M529.848,189.008s7.059.672,7.328,6.723,0,18.153,0,18.153l5.379-2.017,4.3,2.017V195.462a7.27,7.27,0,0,0-6.185-6.454Z" transform="translate(-402.279 -143.501)" fill="#f99746"/>
      <path id="Trazado_287224" data-name="Trazado 287224" d="M320.776,1033.493H.661a.663.663,0,0,1-.661-.661v-.841a.663.663,0,0,1,.661-.661H320.776a.663.663,0,0,1,.661.661v.841a.663.663,0,0,1-.661.661" transform="translate(0 -783.02)" fill="#1c3a3e"/>
      <path id="Trazado_287225" data-name="Trazado 287225" d="M264.5,1020.064H175.784c-2.655,0-13.764.516-11.271,1.653,2.312,1.054,18.223,1.653,20.877,1.653h83.382c8.073,0,15.233-.744,12.591-1.653s-8.08-1.653-16.865-1.653" transform="translate(-124.629 -774.467)" fill="#9dc0c9"/>
      <path id="Trazado_287226" data-name="Trazado 287226" d="M464.867,1039.652c42.016,1.722,32.174,5.877,12.113,7.79s-38.231,2.1-38.231,2.1,13.422,1.719,3.2,4.78-105.621,2.8-112.807-1.145c-3.571-1.963,6.268-6.552,6.268-6.552s-50.723-2.383-45.42-5.9,132.859-2.8,174.875-1.074" transform="translate(-219.877 -788.253)" fill="#83a9ff"/>
      <path id="Trazado_287227" data-name="Trazado 287227" d="M638.39,1012.292a1.14,1.14,0,0,1-.035-2.28c2.254-.07,55.366-1.7,68.546-.667a1.14,1.14,0,1,1-.178,2.274c-13.057-1.02-67.747.655-68.3.672h-.036" transform="translate(-483.822 -766.07)" fill="#fff"/>
      <path id="Trazado_287228" data-name="Trazado 287228" d="M646.227,778.3s-12.8,27.818-.411,28.791c17.384,1.365.411-28.791.411-28.791" transform="translate(-486.224 -590.91)" fill="#83a9ff"/>
      <path id="Trazado_287229" data-name="Trazado 287229" d="M648.489,837.2a.7.7,0,0,1-.7-.681,35.723,35.723,0,0,1,1.282-9.715.7.7,0,0,1,1.338.393,34.958,34.958,0,0,0-1.225,9.289.7.7,0,0,1-.681.714h-.017" transform="translate(-491.821 -627.354)" fill="#fff"/>
      <rect id="Rectángulo_208386" data-name="Rectángulo 208386" width="32.235" height="18.47" transform="translate(75.598 127.511)" fill="#aeced3"/>
      <rect id="Rectángulo_208387" data-name="Rectángulo 208387" width="32.235" height="18.47" transform="translate(75.598 112.839)" fill="#95b2b5"/>
      <path id="Trazado_287230" data-name="Trazado 287230" d="M330.07,420.788H293.115A3.511,3.511,0,0,0,289.6,424.3v22.688h43.979V424.3a3.511,3.511,0,0,0-3.511-3.511" transform="translate(-219.876 -319.476)" fill="#c6dfe5"/>
      <path id="Trazado_287231" data-name="Trazado 287231" d="M278.048,983.119H182.493v-9.641a3.253,3.253,0,0,1,3.253-3.253H274.8a3.253,3.253,0,0,1,3.253,3.253Z" transform="translate(-138.555 -736.627)" fill="#c6dfe5"/>
      <rect id="Rectángulo_208388" data-name="Rectángulo 208388" width="43.979" height="94.608" transform="translate(69.727 143.083)" fill="#c6dfe5"/>
      <path id="Trazado_287232" data-name="Trazado 287232" d="M440.1,678.123l-10.2,2.349s5.643,8.053,10.2,14.685Z" transform="translate(-326.392 -514.853)" fill="#95b2b5"/>
      <path id="Trazado_287233" data-name="Trazado 287233" d="M486.941,648.143a2.081,2.081,0,0,0,1.113-1.914l-.025-14.615a12.391,12.391,0,0,0-9.483-12.09,11.011,11.011,0,0,0-2.494-.3H428.495a9.786,9.786,0,0,0-9.786,9.786h0a9.786,9.786,0,0,0,9.786,9.786h39.4v6.924a3,3,0,0,0,1.927,2.72,23.817,23.817,0,0,0,8.322,1.175c4.9,0,7.506-.828,8.793-1.475" transform="translate(-317.898 -470.138)" fill="#c6dfe5"/>
      <path id="Trazado_287234" data-name="Trazado 287234" d="M343.549,929.537a4.26,4.26,0,1,1-4.26-4.26,4.26,4.26,0,0,1,4.26,4.26" transform="translate(-254.365 -702.501)" fill="#95b2b5"/>
      <path id="Trazado_287235" data-name="Trazado 287235" d="M305.433,651.669a.951.951,0,0,1-.951-.951V612.21a.951.951,0,1,1,1.9,0v38.508a.951.951,0,0,1-.951.951" transform="translate(-231.173 -464.088)" fill="#fff"/>
      <g id="Grupo_575667" data-name="Grupo 575667" transform="translate(153.335 97.424)">
        <path id="Trazado_287212" data-name="Trazado 287212" d="M700.215,412.163v-6.817h2.625V412.1c0,1.943.972,2.948,2.574,2.948s2.573-.972,2.573-2.863v-6.834h2.625v6.732c0,3.613-2.028,5.385-5.232,5.385s-5.164-1.79-5.164-5.3" transform="translate(-684.962 -405.176)" fill="#12263f"/>
        <path id="Trazado_287213" data-name="Trazado 287213" d="M751.107,415l1.551-1.858a5.473,5.473,0,0,0,3.562,1.449c1.074,0,1.721-.426,1.721-1.159,0-.665-.409-1.006-2.4-1.517-2.4-.613-3.954-1.278-3.954-3.681,0-2.164,1.739-3.6,4.176-3.6a6.906,6.906,0,0,1,4.431,1.517l-1.363,1.977a5.6,5.6,0,0,0-3.1-1.176c-1.005,0-1.534.46-1.534,1.074,0,.784.512,1.04,2.574,1.568,2.42.63,3.783,1.5,3.783,3.613,0,2.369-1.806,3.7-4.38,3.7A7.592,7.592,0,0,1,751.107,415" transform="translate(-723.601 -404.638)" fill="#12263f"/>
        <path id="Trazado_287214" data-name="Trazado 287214" d="M799.807,405.346h9v2.335h-6.391v2.42h5.624v2.335h-5.624v2.506h6.476v2.335h-9.084Z" transform="translate(-760.576 -405.176)" fill="#12263f"/>
        <path id="Trazado_287215" data-name="Trazado 287215" d="M847.232,405.346h5.454a4.754,4.754,0,0,1,3.477,1.21,3.771,3.771,0,0,1,1.023,2.761,3.705,3.705,0,0,1-2.556,3.7l2.915,4.261h-3.068l-2.591-3.818h-2.028v3.818h-2.625Zm5.283,5.795c1.278,0,2.011-.682,2.011-1.721,0-1.125-.784-1.7-2.062-1.7h-2.608v3.426Z" transform="translate(-796.582 -405.176)" fill="#12263f"/>
        <path id="Trazado_287216" data-name="Trazado 287216" d="M636.864,479.739h2.829l3.136,5.045,3.136-5.045h2.829v11.93h-2.607v-7.789l-3.357,5.1h-.068l-3.323-5.045v7.738h-2.574Z" transform="translate(-636.864 -461.658)" fill="#12263f"/>
        <path id="Trazado_287217" data-name="Trazado 287217" d="M699.17,479.386h2.42L706.7,491.4h-2.744l-1.091-2.676h-5.045l-1.091,2.676h-2.676Zm2.761,7.021-1.585-3.869-1.585,3.869Z" transform="translate(-680.287 -461.389)" fill="#12263f"/>
        <path id="Trazado_287218" data-name="Trazado 287218" d="M754.223,479.739h2.42l5.59,7.346v-7.346h2.591v11.93h-2.233l-5.777-7.584v7.584h-2.591Z" transform="translate(-725.966 -461.658)" fill="#12263f"/>
        <path id="Trazado_287219" data-name="Trazado 287219" d="M809.363,486.556v-6.817h2.624v6.749c0,1.943.972,2.949,2.574,2.949s2.574-.972,2.574-2.863v-6.834h2.625v6.732c0,3.613-2.028,5.386-5.232,5.386s-5.164-1.79-5.164-5.3" transform="translate(-767.831 -461.657)" fill="#12263f"/>
        <path id="Trazado_287220" data-name="Trazado 287220" d="M862.75,479.386h2.42l5.113,12.015h-2.744l-1.091-2.676H861.4l-1.091,2.676h-2.676Zm2.761,7.021-1.585-3.869-1.585,3.869Z" transform="translate(-804.482 -461.389)" fill="#12263f"/>
        <path id="Trazado_287221" data-name="Trazado 287221" d="M917.8,479.739h2.624v9.544h5.948v2.386H917.8Z" transform="translate(-850.162 -461.658)" fill="#12263f"/>
        <path id="Trazado_287236" data-name="Trazado 287236" d="M723.5,595.119h3.1v6.007h5.56v-6.007h3.1v15.214h-3.1v-6.641h-5.56v6.641h-3.1Z" transform="translate(-702.644 -549.258)" fill="#12263f"/>
        <path id="Trazado_287237" data-name="Trazado 287237" d="M783.886,626.776V626.7c0-1.334.431-2.89,2.978-4.839,1.2-.922,1.628-1.358,1.628-2.213a1.176,1.176,0,0,0-1.255-1.316c-.925,0-1.323.615-1.41,1.612H783.9a3.1,3.1,0,0,1,3.4-3.169c2.132,0,3.236,1.276,3.236,2.868,0,1.274-.494,2.051-2.292,3.351a5.376,5.376,0,0,0-1.936,2.119H790.8l-.249,1.662Z" transform="translate(-748.488 -565.7)" fill="#12263f"/>
        <path id="Trazado_287238" data-name="Trazado 287238" d="M833.2,602.017c0,4.379-2.116,7.9-6.909,7.9-4.693,0-6.7-3.61-6.7-7.935,0-3.747,2.051-7.7,6.912-7.7,4.6,0,6.7,3.644,6.7,7.738m-10.4-.022c0,3.036,1.21,5.456,3.619,5.456,2.646,0,3.6-2.249,3.6-5.431,0-2.8-.942-5.272-3.652-5.272-2.514,0-3.565,2.321-3.565,5.248" transform="translate(-775.599 -548.62)" fill="#12263f"/>
      </g>
    </g>
  </g>
</svg>
