<svg xmlns="http://www.w3.org/2000/svg" width="99.324" height="3.965" viewBox="0 0 99.324 3.965">
  <g id="Grupo_755973" data-name="Grupo 755973" transform="translate(-547.748 -8236.391)">
    <path id="Trazado_268744" data-name="Trazado 268744" d="M2980.506,109.4a2,2,0,1,1-1.983,2A1.993,1.993,0,0,1,2980.506,109.4Z" transform="translate(661.153 5257.867) rotate(90)" fill="#491079"/>
    <path id="Trazado_268745" data-name="Trazado 268745" d="M2980.506,64.95a2,2,0,1,1-1.983,2A1.993,1.993,0,0,1,2980.506,64.95Z" transform="translate(640.548 5257.867) rotate(90)" fill="#491079"/>
    <path id="Trazado_268746" data-name="Trazado 268746" d="M2980.506,20.5a2,2,0,1,1-1.983,2A1.993,1.993,0,0,1,2980.506,20.5Z" transform="translate(619.942 5257.867) rotate(90)" fill="#491079"/>
    <path id="Trazado_268747" data-name="Trazado 268747" d="M2980.506-23.946a1.993,1.993,0,0,1,1.983,2,1.993,1.993,0,0,1-1.983,2,1.993,1.993,0,0,1-1.983-2A1.993,1.993,0,0,1,2980.506-23.946Z" transform="translate(599.337 5257.867) rotate(90)" fill="#491079"/>
    <path id="Trazado_268752" data-name="Trazado 268752" d="M2980.506-68.293a1.993,1.993,0,0,1,1.983,2,1.994,1.994,0,0,1-1.983,2,1.993,1.993,0,0,1-1.983-2A1.993,1.993,0,0,1,2980.506-68.293Z" transform="translate(578.779 5257.867) rotate(90)" fill="#491079"/>
  </g>
</svg>
